<svg width="48" height="48" viewBox="0 0 48 48" fill="none" xmlns="http://www.w3.org/2000/svg">
<g opacity="0.3">
<path d="M38 18.9997L31 11.9997C31 10.6997 31.18 9.41969 31.52 8.17969C29.58 8.67969 28 10.1197 27.34 11.9997H15C11.14 11.9997 8 15.1397 8 18.9997C8 22.7597 10.44 32.2997 12.02 37.9997H16V33.9997H28V37.9997H32.02L35.12 27.6997L40 26.0597V18.9997H38ZM26 17.9997H16V13.9997H26V17.9997ZM32 21.9997C30.9 21.9997 30 21.0997 30 19.9997C30 18.8997 30.9 17.9997 32 17.9997C33.1 17.9997 34 18.8997 34 19.9997C34 21.0997 33.1 21.9997 32 21.9997Z" fill="#6C31BC"/>
</g>
<path d="M30 20C30 18.9 30.9 18 32 18C33.1 18 34 18.9 34 20C34 21.1 33.1 22 32 22C30.9 22 30 21.1 30 20ZM16 18H26V14H16V18ZM44 15V28.94L38.36 30.82L35 42H24V38H20V42H9C9 42 4 25.08 4 19C4 12.92 8.92 8 15 8H25C26.82 5.58 29.72 4 33 4C34.66 4 36 5.34 36 7C36 7.42 35.92 7.8 35.76 8.16C35.48 8.84 35.24 9.62 35.12 10.46L39.66 15H44ZM40 19H38L31 12C31 10.7 31.18 9.42 31.52 8.18C29.58 8.68 28 10.12 27.34 12H15C11.14 12 8 15.14 8 19C8 22.76 10.44 32.3 12.02 38H16V34H28V38H32.02L35.12 27.7L40 26.06V19Z" fill="#6C31BC"/>
</svg>
