<svg width="48" height="48" viewBox="0 0 48 48" fill="none" xmlns="http://www.w3.org/2000/svg">
<path opacity="0.3" d="M35.4 23.06C34 23.68 32.5 24 30.98 24C24.92 24 20 19.06 20 13C20 12.66 20.02 12.32 20.06 12H8V40H36V23.66L35.4 23.06ZM11 36L16.5 28.94L20.42 33.66L25.92 26.58L33 36H11Z" fill="#6C31BC"/>
<path d="M20.42 33.66L16.5 28.94L11 36H33L25.92 26.58L20.42 33.66ZM40 13C40 8.02 35.98 4 31 4C26.02 4 22 8.02 22 13C22 17.98 26.02 22 30.98 22C32.74 22 34.38 21.48 35.76 20.6L42 26.84L44.84 24L38.6 17.78C39.48 16.38 40 14.76 40 13ZM31 18C28.24 18 26 15.76 26 13C26 10.24 28.24 8 31 8C33.76 8 36 10.24 36 13C36 15.76 33.76 18 31 18ZM36 40H8V12H20.06C20.18 10.56 20.6 9.22 21.22 8H8C5.8 8 4 9.8 4 12V40C4 42.2 5.8 44 8 44H36C38.2 44 40 42.2 40 40V27.66L36 23.66V40Z" fill="#6C31BC"/>
</svg>
