<svg width="48" height="48" viewBox="0 0 48 48" fill="none" xmlns="http://www.w3.org/2000/svg">
<path opacity="0.3" d="M25.9995 8.44434C20.1106 8.44434 15.3551 13.0221 14.9551 18.8221L11.9995 23.9999H14.8884V32.8888H21.5551V39.5555H28.2217V30.7777L30.1995 29.8221C34.244 28.1777 37.1106 24.1999 37.1106 19.5554C37.1106 13.4221 32.1328 8.44434 25.9995 8.44434ZM34.4884 17.2221L32.5995 18.6888C32.644 18.9554 32.6662 19.2443 32.6662 19.5554C32.6662 19.8443 32.644 20.1332 32.6217 20.4221L34.4662 21.8888C34.644 22.0221 34.6884 22.2443 34.5773 22.4443L32.7995 25.5332C32.6884 25.7332 32.444 25.7999 32.2662 25.7332L30.0662 24.8443C29.5995 25.1999 29.1106 25.4888 28.5773 25.711L28.2217 28.0666C28.1995 28.2888 27.9995 28.4443 27.7773 28.4443H24.2217C23.9995 28.4443 23.8217 28.2888 23.7773 28.0666L23.444 25.711C22.8884 25.4888 22.3995 25.1999 21.9328 24.8443L19.7328 25.7332C19.5328 25.7999 19.2884 25.7332 19.1773 25.5332L17.3995 22.4443C17.2884 22.2666 17.3328 22.0221 17.5106 21.8888L19.3773 20.4221C19.3551 20.1332 19.3328 19.8443 19.3328 19.5554C19.3328 19.2666 19.3773 18.9554 19.4217 18.6888L17.5328 17.2221C17.3551 17.0888 17.3106 16.8666 17.4217 16.6443L19.1995 13.5777C19.3106 13.3777 19.5328 13.311 19.7328 13.3777L21.9551 14.2666C22.3995 13.9332 22.9106 13.6221 23.444 13.3999L23.7773 11.0443C23.8217 10.8221 23.9995 10.6666 24.2217 10.6666H27.7773C27.9995 10.6666 28.1773 10.8221 28.2217 11.0443L28.5551 13.3999C29.0884 13.6221 29.5773 13.911 30.044 14.2666L32.2662 13.3777C32.4662 13.311 32.7106 13.3777 32.7995 13.5777L34.5773 16.6443C34.6884 16.8443 34.644 17.0888 34.4884 17.2221Z" fill="#6C31BC"/>
<path d="M32.2668 13.3781L30.0446 14.267C29.5779 13.9114 29.0891 13.6225 28.5557 13.4003L28.2224 11.0448C28.1779 10.8225 28.0002 10.667 27.7779 10.667H24.2224C24.0002 10.667 23.8224 10.8225 23.8002 11.0448L23.4668 13.4003C22.9335 13.6225 22.4224 13.9114 21.9779 14.267L19.7557 13.3781C19.5557 13.3114 19.3113 13.3781 19.2224 13.5781L17.4446 16.6448C17.3335 16.8448 17.3779 17.0892 17.5557 17.2225L19.4446 18.6892C19.3779 18.9559 19.3335 19.267 19.3335 19.5559C19.3335 19.8448 19.3557 20.1337 19.4002 20.4225L17.5335 21.8892C17.3557 22.0225 17.3113 22.267 17.4224 22.4448L19.2002 25.5337C19.3113 25.7337 19.5335 25.8003 19.7557 25.7337L21.9557 24.8448C22.4224 25.2003 22.9113 25.4892 23.4668 25.7114L23.7779 28.067C23.8224 28.2892 24.0002 28.4448 24.2224 28.4448H27.7779C28.0002 28.4448 28.1779 28.2892 28.2224 28.067L28.5557 25.7114C29.0891 25.4892 29.6002 25.2003 30.0446 24.8448L32.2446 25.7337C32.4446 25.8225 32.6891 25.7337 32.7779 25.5337L34.5557 22.4448C34.6668 22.2448 34.6224 22.0225 34.4446 21.8892L32.6002 20.4225C32.6446 20.1337 32.6668 19.8448 32.6668 19.5559C32.6668 19.2448 32.6446 18.9559 32.6002 18.6892L34.4891 17.2225C34.6668 17.0892 34.7113 16.8448 34.6002 16.6448L32.8224 13.5781C32.7113 13.3781 32.4668 13.3114 32.2668 13.3781ZM26.0002 22.7337C24.2446 22.7337 22.8224 21.3114 22.8224 19.5559C22.8224 17.8003 24.2446 16.3781 26.0002 16.3781C27.7557 16.3781 29.1779 17.8003 29.1779 19.5559C29.1779 21.3114 27.7557 22.7337 26.0002 22.7337Z" fill="#6C31BC"/>
<path d="M41.4219 17.4667C40.4663 10.2 34.2441 4.44444 26.9108 4.02222C26.5997 4 26.3108 4 25.9997 4C18.1552 4 11.7108 9.8 10.6219 17.3333L6.33299 25.0667C5.42188 26.5333 6.48855 28.4444 8.22188 28.4444H10.4441V32.8889C10.4441 35.3333 12.4441 37.3333 14.8886 37.3333H17.1108V44H32.6663V33.6C38.4886 30.8222 42.333 24.5333 41.4219 17.4667ZM30.1997 29.8444L28.2219 30.7778V39.5556H21.5552V32.8889H14.8886V24H11.9997L14.9552 18.8222C15.3552 13.0222 20.1108 8.44444 25.9997 8.44444C32.133 8.44444 37.1108 13.4222 37.1108 19.5556C37.1108 24.2 34.2441 28.1778 30.1997 29.8444Z" fill="#6C31BC"/>
</svg>
