<svg width="48" height="48" viewBox="0 0 48 48" fill="none" xmlns="http://www.w3.org/2000/svg">
<path opacity="0.3" d="M8.5 8.5V40H40V8.5H8.5ZM17.5 35.5H13V19.75H17.5V35.5ZM26.5 35.5H22V13H26.5V35.5ZM35.5 35.5H31V26.5H35.5V35.5Z" fill="#6C31BC"/>
<path d="M40 4H8.5C6.025 4 4 6.025 4 8.5V40C4 42.475 6.025 44.5 8.5 44.5H40C42.475 44.5 44.5 42.475 44.5 40V8.5C44.5 6.025 42.475 4 40 4ZM40 40H8.5V8.5H40V40ZM13 19.75H17.5V35.5H13V19.75ZM22 13H26.5V35.5H22V13ZM31 26.5H35.5V35.5H31V26.5Z" fill="#6C31BC"/>
</svg>
