<svg width="24" height="24" viewBox="0 0 24 24" fill="none" xmlns="http://www.w3.org/2000/svg">
<path d="M12.5 1C6.704 1 2 5.704 2 11.5C2 17.296 6.704 22 12.5 22C18.296 22 23 17.296 23 11.5C23 5.704 18.296 1 12.5 1ZM12.5 19.9C7.8695 19.9 4.1 16.1305 4.1 11.5C4.1 6.8695 7.8695 3.1 12.5 3.1C17.1305 3.1 20.9 6.8695 20.9 11.5C20.9 16.1305 17.1305 19.9 12.5 19.9ZM12.8255 10.597C10.967 10.1245 10.3685 9.61 10.3685 8.8435C10.3685 7.9615 11.198 7.342 12.5735 7.342C14.0225 7.342 14.5685 8.035 14.6105 9.064H16.406C16.3535 7.657 15.4925 6.3655 13.7915 5.9455V4.15H11.345V5.9245C9.7595 6.2605 8.489 7.2895 8.489 8.875C8.489 10.7545 10.0535 11.6995 12.332 12.2455C14.3795 12.7285 14.789 13.453 14.789 14.209C14.789 14.7655 14.3795 15.6685 12.584 15.6685C10.904 15.6685 10.2425 14.9125 10.148 13.9465H8.342C8.447 15.7315 9.77 16.7395 11.345 17.065V18.85H13.802V17.0965C15.398 16.792 16.658 15.8785 16.6685 14.188C16.658 11.878 14.6735 11.08 12.8255 10.597Z" fill="#6C31BC"/>
</svg>
