<svg width="212" height="141" viewBox="0 0 212 141" fill="none" xmlns="http://www.w3.org/2000/svg">
<g clip-path="url(#clip0_6294_507)">
<path d="M2 58.9244L0.730516 58.1254L0.5 58.4917V58.9244H2ZM2 138.55H0.5V140.05H2V138.55ZM97.5893 138.55V140.05H99.0893V138.55H97.5893ZM97.5893 58.9244H99.0893V57.4244H97.5893V58.9244ZM49.7947 58.9244L48.5252 58.1254L47.0782 60.4244H49.7947V58.9244ZM85.2993 2.51367L86.5688 3.31268L88.0158 1.01367L85.2993 1.01367V2.51367ZM37.5046 2.51367V1.01367H36.6763L36.2351 1.71467L37.5046 2.51367ZM114.411 58.9244L113.141 58.1254L112.911 58.4917V58.9244H114.411ZM114.411 138.55H112.911V140.05H114.411V138.55ZM210 138.55V140.05H211.5V138.55H210ZM210 58.9244H211.5V57.4244H210V58.9244ZM162.206 58.9244L160.936 58.1254L159.489 60.4244H162.206V58.9244ZM197.71 2.51367L198.98 3.31268L200.427 1.01367H197.71V2.51367ZM149.916 2.51367V1.01367H149.087L148.646 1.71467L149.916 2.51367ZM0.5 58.9244V138.55H3.5V58.9244H0.5ZM2 140.05H97.5893V137.05H2V140.05ZM99.0893 138.55V58.9244H96.0893V138.55H99.0893ZM97.5893 57.4244H49.7947V60.4244H97.5893V57.4244ZM51.0642 59.7234L86.5688 3.31268L84.0298 1.71467L48.5252 58.1254L51.0642 59.7234ZM85.2993 1.01367H37.5046V4.01367H85.2993V1.01367ZM36.2351 1.71467L0.730516 58.1254L3.26948 59.7234L38.7741 3.31268L36.2351 1.71467ZM112.911 58.9244V138.55H115.911V58.9244H112.911ZM114.411 140.05H210V137.05H114.411V140.05ZM211.5 138.55V58.9244H208.5V138.55H211.5ZM210 57.4244H162.206V60.4244H210V57.4244ZM163.475 59.7234L198.98 3.31268L196.441 1.71467L160.936 58.1254L163.475 59.7234ZM197.71 1.01367H149.916V4.01367H197.71V1.01367ZM148.646 1.71467L113.141 58.1254L115.68 59.7234L151.185 3.31268L148.646 1.71467Z" fill="#9688DD"/>
</g>
<defs>
<clipPath id="clip0_6294_507">
<rect width="212" height="140" fill="white" transform="translate(0 0.513672)"/>
</clipPath>
</defs>
</svg>
