<svg width="52" height="52" viewBox="0 0 52 52" fill="none" xmlns="http://www.w3.org/2000/svg">
<g clip-path="url(#clip0)">
<path d="M21.2554 17.8633L18.6456 34.1036H22.817L25.4252 17.8633H21.2554ZM33.8378 24.4787C32.3801 23.7588 31.4865 23.273 31.4865 22.5367C31.5043 21.8673 32.2422 21.1815 33.8899 21.1815C35.2451 21.1475 36.2412 21.4659 36.9969 21.7828L37.3754 21.9518L37.9426 18.5539C37.1186 18.2354 35.8122 17.8845 34.1986 17.8845C30.0792 17.8845 27.1786 20.0262 27.1606 23.0894C27.1265 25.3499 29.2373 26.6042 30.8169 27.3567C32.4305 28.1286 32.9798 28.629 32.9798 29.3149C32.962 30.3678 31.675 30.8537 30.4742 30.8537C28.8102 30.8537 27.9164 30.6034 26.5596 30.0167L26.0103 29.7665L25.427 33.2977C26.4069 33.7333 28.2089 34.1166 30.0794 34.1362C34.4572 34.1362 37.3058 32.0269 37.3416 28.7623C37.3558 26.9715 36.2428 25.5999 33.8378 24.4787ZM48.6367 17.9135H45.4093C44.4148 17.9135 43.6592 18.1996 43.2286 19.2201L37.0324 34.1036H41.4101L42.6158 30.8813H47.5137L48.1392 34.1166H52.0003L48.6367 17.9135ZM43.8299 27.6294C43.9144 27.6376 45.5102 22.3692 45.5102 22.3692L46.781 27.6294C46.781 27.6294 44.6538 27.6294 43.8299 27.6294ZM15.1601 17.8633L11.0732 28.8971L10.628 26.7211C9.87228 24.2105 7.50312 21.4822 4.85913 20.1269L8.60152 34.0874H13.0151L19.5737 17.8651H15.1601V17.8633Z" fill="#2394BC"/>
<path d="M9.25279 19.9585C8.9343 18.7202 7.91859 17.885 6.53912 17.8672H0.0666566L0 18.1677C5.04897 19.4124 9.28683 23.2425 10.6617 26.8452L9.25279 19.9585Z" fill="#EFC75E"/>
</g>
<defs>
<clipPath id="clip0">
<rect width="52" height="52" fill="white"/>
</clipPath>
</defs>
</svg>
