<svg width="26" height="18" viewBox="0 0 26 18" fill="none" xmlns="http://www.w3.org/2000/svg">
<path d="M23.8743 0.950195H2.12575C1.14158 0.950195 0.34375 1.74802 0.34375 2.7322V15.2672C0.34375 16.2514 1.14158 17.0492 2.12575 17.0492H23.8743C24.8584 17.0492 25.6562 16.2514 25.6562 15.2672V2.7322C25.6562 1.74802 24.8584 0.950195 23.8743 0.950195Z" fill="#FDBD40"/>
<path d="M0.34375 4.1123H25.6562V7.56155H0.34375V4.1123Z" fill="#2D75BB"/>
<path d="M21.6418 11.2764H17.252C16.7234 11.2764 16.2949 11.7049 16.2949 12.2335V13.3391C16.2949 13.8676 16.7234 14.2961 17.252 14.2961H21.6418C22.1704 14.2961 22.5989 13.8676 22.5989 13.3391V12.2335C22.5989 11.7049 22.1704 11.2764 21.6418 11.2764Z" fill="#FFF69A"/>
</svg>
