<svg width="32" height="32" viewBox="0 0 32 32" fill="none" xmlns="http://www.w3.org/2000/svg">
<path fill-rule="evenodd" clip-rule="evenodd" d="M32 16C32 24.8366 24.8366 32 16 32C7.16344 32 0 24.8366 0 16C0 7.16344 7.16344 0 16 0C24.8366 0 32 7.16344 32 16ZM18.7313 8.725C21.1938 8.9125 23.275 10.5437 23.275 10.5437C23.275 10.5437 25.6 13.9187 26.0125 20.5437C23.6687 23.25 20.1063 23.2687 20.1063 23.2687L19.3625 22.275C20.625 21.8375 22.0563 21.05 23.2875 19.6312C21.8125 20.75 19.5938 21.9062 16.0125 21.9062C12.4313 21.9062 10.2062 20.7437 8.7375 19.6312C9.96875 21.05 11.4 21.8375 12.6625 22.275L11.9187 23.2687C11.9187 23.2687 8.35625 23.25 6.0125 20.5437C6.4125 13.9187 8.7375 10.5437 8.7375 10.5437C8.7375 10.5437 10.7 8.96875 13.2812 8.725L13.5 9.16875C11.4688 9.625 10.2562 10.4937 9.1875 11.45C11.025 10.5125 12.8438 9.63125 16.0063 9.63125C19.1688 9.63125 20.9875 10.5125 22.825 11.45C21.7562 10.4937 20.7375 9.7125 18.5125 9.16875L18.7313 8.725ZM11.45 16.9062C11.45 17.9125 12.1625 18.725 13.0437 18.725C13.925 18.725 14.6375 17.9125 14.6375 16.9062C14.6375 15.9 13.925 15.0875 13.0437 15.0875C12.1625 15.0875 11.45 15.9 11.45 16.9062ZM17.3625 16.9062C17.3625 17.9125 18.075 18.725 18.9562 18.725C19.8312 18.725 20.55 17.9125 20.55 16.9062C20.55 15.9 19.8375 15.0875 18.9562 15.0875C18.075 15.0875 17.3625 15.9 17.3625 16.9062Z" fill="white"/>
</svg>
