<svg width="249" height="61" viewBox="0 0 249 61" fill="none" xmlns="http://www.w3.org/2000/svg">
<path d="M52.7735 37.9458C52.4926 37.8424 52.1941 37.7954 51.895 37.8075C51.5959 37.8196 51.3021 37.8905 51.0305 38.0162C50.7589 38.1419 50.5148 38.3199 50.3122 38.5399C50.1096 38.76 49.9525 39.0179 49.8498 39.2987C49.8498 39.2987 48.3551 44.9905 34.4689 47.5475C33.5397 45.4503 31.2209 41.8075 26.5396 42.3591L27.4952 44.5045C28.0472 44.5548 28.6035 44.5268 29.1476 44.4214C28.5691 45.0956 25.137 46.4222 22.7481 45.8705C22.9259 45.8125 23.0921 45.7236 23.239 45.6079L22.393 44.1148C22.393 44.1148 19.6097 45.7743 20.6967 48.2568C21.7838 50.7393 25.1633 49.5702 25.1633 49.5702C25.1633 49.5702 23.9491 50.5948 22.7963 50.5948C22.0599 52.6307 24.5759 56.1202 27.3111 55.7086C27.1736 55.8883 26.9965 56.0339 26.7935 56.1342C26.5905 56.2344 26.3672 56.2866 26.1407 56.2865C27.9685 57.2629 33.8597 57.5037 34.9073 52.0878C51.7653 49.0624 54.1191 40.8925 54.1323 40.8662C54.2351 40.5853 54.2815 40.287 54.2688 39.9882C54.2562 39.6894 54.1847 39.396 54.0585 39.1249C53.9323 38.8537 53.7539 38.61 53.5334 38.4077C53.3129 38.2054 53.0547 38.0484 52.7735 37.9458Z" fill="white"/>
<path d="M15.6216 40.7705L17.9491 45.4421C18.3874 46.2915 18.3874 47.4211 17.7913 47.7801L14.2847 49.873C14.4087 49.9469 14.5248 50.0335 14.6309 50.1313C14.9669 50.4338 15.2178 50.8189 15.3585 51.2483C15.4992 51.6777 15.5249 52.1364 15.4331 52.5788C20.6273 51.2828 21.2672 43.4675 15.6216 40.7705Z" fill="white"/>
<path d="M11.4436 50.7307C12.6972 48.813 11.4436 46.9084 9.86127 46.637C9.71699 46.6087 9.56976 46.5985 9.42294 46.6064C10.5538 44.3515 9.34842 42.193 7.8099 41.8953C5.64018 41.4575 4.71531 45.3542 4.57504 47.6265C4.43478 49.8988 6.72285 49.3078 6.72285 49.3078C6.87626 49.2115 7.02529 49.1195 7.16117 49.0232C6.91821 49.7843 6.77097 50.5726 6.72285 51.37C6.61326 53.2614 8.91448 52.8017 8.91448 52.8017C9.0679 52.7272 9.21254 52.6484 9.35281 52.574C9.23446 52.7141 9.12488 52.8498 9.02845 52.9811C7.89318 54.5004 10.0497 55.3674 10.0497 55.3674C15.2746 56.0153 15.8795 52.2763 14.2752 50.7658C13.4292 50.0127 12.4079 50.1835 11.4436 50.7307Z" fill="white"/>
<path d="M40.0369 21.0674C39.0375 21.0674 38.2266 22.197 38.2266 23.5849C38.2266 24.9728 39.0375 26.1024 40.0369 26.1024C41.0362 26.1024 41.8471 24.9772 41.8471 23.5849C41.8471 22.1926 41.045 21.0674 40.0369 21.0674Z" fill="white"/>
<path d="M52.5946 16.4442C52.935 15.9292 53.3833 15.4942 53.9085 15.1691C54.4337 14.8441 55.0233 14.6368 55.6365 14.5615C52.8839 11.5711 45.6383 10.8969 45.6383 10.8969C45.9652 11.3338 46.1667 11.8515 46.2213 12.3943C45.3446 11.1858 42.741 8.52821 39.4535 9.00107C39.5981 8.68996 39.7775 8.3962 39.9883 8.12541C39.5786 6.93263 39.2477 5.71433 38.9977 4.4783C39.5219 4.29625 39.9628 3.93139 40.2394 3.45075C40.516 2.9701 40.6098 2.40592 40.5034 1.86179C40.3971 1.31767 40.0978 0.830107 39.6605 0.488658C39.2233 0.147208 38.6774 -0.0252559 38.1231 0.00299303C37.5687 0.0312419 37.0432 0.258292 36.643 0.642422C36.2428 1.02655 35.9948 1.54201 35.9444 2.09413C35.8941 2.64624 36.0448 3.19793 36.369 3.64796C36.6931 4.09799 37.1689 4.41612 37.709 4.54393C37.7542 6.12756 38.0017 7.69897 38.4454 9.21999C34.8204 10.4766 34.1454 15.1701 34.1454 15.1701C33.9688 14.5035 33.9855 13.8004 34.1936 13.1429C33.2293 13.6727 25.3087 19.7104 25.6462 27.1798C25.9837 34.6492 33.1548 42.2762 44.674 39.1413C56.1932 36.0064 56.8902 26.2604 56.8902 26.2604C56.8902 26.2604 55.1062 26.3085 54.6722 25.0563C61.6767 26.221 60.0943 12.5037 52.5946 16.4442ZM48.8249 30.4811C45.8706 35.5161 32.2737 37.749 28.903 32.8584C27.4784 30.7919 27.1102 29.2551 27.0007 26.8646C26.9086 24.798 27.2154 23.178 28.2411 21.5142C30.3013 18.178 40.7992 16.4836 46.0723 17.8452C49.6052 18.7296 50.324 27.911 48.8249 30.4548V30.4811Z" fill="white"/>
<path d="M39.3517 30.0738C39.2792 30.0209 39.1969 29.9828 39.1096 29.9616C39.0224 29.9405 38.9318 29.9367 38.8431 29.9506C38.7543 29.9644 38.6692 29.9955 38.5925 30.0422C38.5158 30.0889 38.4491 30.1502 38.3961 30.2226C36.7042 32.565 33.614 30.9495 33.6052 30.9451C33.4448 30.8626 33.2582 30.8472 33.0864 30.9022C32.9146 30.9572 32.7717 31.0782 32.6891 31.2384C32.6066 31.3987 32.5912 31.5851 32.6462 31.7567C32.7013 31.9283 32.8224 32.0711 32.9828 32.1535C32.9828 32.1535 37.1162 34.3164 39.5007 31.0239C39.5536 30.9518 39.5916 30.87 39.6128 30.7832C39.6339 30.6964 39.6376 30.6062 39.6238 30.5179C39.6099 30.4297 39.5788 30.345 39.5321 30.2688C39.4854 30.1926 39.4241 30.1263 39.3517 30.0738Z" fill="white"/>
<path d="M30.0416 22.8145C29.1211 22.8145 28.376 23.8521 28.376 25.1305C28.376 26.409 29.1211 27.4423 30.0416 27.4423C30.9621 27.4423 31.7073 26.409 31.7073 25.1305C31.7073 23.8521 30.9621 22.8145 30.0416 22.8145Z" fill="white"/>
<path fill-rule="evenodd" clip-rule="evenodd" d="M15.2095 22.7975C17.8088 22.7975 21.2233 26.738 22.832 31.5541C24.4406 36.3703 23.6297 40.3107 21.0261 40.3107C18.4224 40.3107 15.0122 36.3703 13.4036 31.5541C11.7949 26.738 12.6058 22.7975 15.2095 22.7975ZM32.2429 56.6199L33.1195 58.5858C33.1871 58.7217 33.2269 58.8698 33.2364 59.0214C33.2459 59.1729 33.2249 59.3247 33.1748 59.4681C33.1246 59.6114 33.0463 59.7432 32.9443 59.8558C32.8424 59.9684 32.719 60.0595 32.5812 60.1238C32.4435 60.188 32.2944 60.2241 32.1425 60.2299C31.9906 60.2357 31.8391 60.2111 31.6969 60.1576C31.5547 60.104 31.4246 60.0226 31.3144 59.9181C31.2041 59.8136 31.116 59.688 31.055 59.549L29.9679 57.4124C30.7697 57.2946 31.5417 57.0257 32.2429 56.6199ZM24.9053 40.5647L26.9479 44.8904C25.9494 45.2241 24.9059 45.4042 23.8533 45.4246L22.0342 42.0401C18.475 41.9657 14.0917 37.1365 12.2069 31.1864C10.3221 25.2362 11.6678 20.3369 15.2445 20.3369C18.8213 20.3369 23.2528 25.1925 25.1507 31.1864C26.4175 35.1881 26.229 38.6864 24.9053 40.5647ZM0.451008 34.5139L7.87188 30.7354C8.48554 30.4201 9.23508 30.5865 9.68656 31.4403L17.2565 45.8186C17.6948 46.6943 17.7605 47.8064 17.1688 48.1654L14.3372 49.9167C13.5263 49.4176 12.5839 49.6059 11.6415 50.1006C11.9298 49.7365 12.1163 49.3025 12.1821 48.8429C12.2479 48.3833 12.1906 47.9145 12.0159 47.4842C11.8413 47.054 11.5557 46.6776 11.1881 46.3935C10.8205 46.1094 10.384 45.9276 9.92325 45.8668C9.75989 45.8375 9.59368 45.8272 9.42794 45.8361C10.6421 43.5244 9.33589 41.3003 7.67464 40.9894C6.12296 40.696 5.16741 42.3379 4.65456 44.1593L0.380876 36.8606C-0.118816 36.0287 -0.158266 34.8335 0.451008 34.5139Z" fill="white"/>
<path d="M84.499 24.3055H79.9535L77.5077 21.4027H72.2916V24.3055H68.8945V18.6969H78.4413C79.4933 18.6969 80.313 18.2241 80.313 17.471C80.313 16.6172 79.6073 16.1925 78.4413 16.1925H68.8945L71.1081 13.3379H78.1652C80.6592 13.3379 83.8064 14.126 83.8064 17.2565C83.8273 18.0842 83.5484 18.8916 83.0209 19.5303C82.4935 20.169 81.7529 20.596 80.9354 20.7329C81.4863 21.1723 82.0022 21.6539 82.4783 22.1733L84.499 24.3055Z" fill="white"/>
<path d="M102.169 18.815C102.169 22.7292 99.4774 24.5068 94.1474 24.5068C88.8173 24.5068 86.1216 22.7555 86.1216 18.815C86.1216 14.8745 88.7998 13.1582 94.1474 13.1582C99.4949 13.1582 102.169 14.8964 102.169 18.815ZM98.7892 18.815C98.7892 16.4551 97.5575 16.0129 94.1474 16.0129C90.7372 16.0129 89.5011 16.4507 89.5011 18.815C89.5011 21.1793 90.7328 21.6302 94.1474 21.6302C97.5619 21.6302 98.7892 21.1749 98.7892 18.815Z" fill="white"/>
<path d="M119.15 21.1094C119.15 22.9264 118.15 24.3055 114.688 24.3055H105.04V17.633H114.753C115.249 17.633 115.705 17.4535 115.705 16.8975C115.705 16.3414 115.231 16.1925 114.753 16.1925H105.04L107.337 13.3379H114.609C117.239 13.3379 118.922 14.358 118.922 16.372C118.951 16.8638 118.822 17.3521 118.553 17.765C118.284 18.178 117.889 18.4938 117.427 18.6663C117.947 18.8216 118.399 19.1469 118.712 19.59C119.024 20.0331 119.178 20.5682 119.15 21.1094ZM108.455 19.9754V21.4859H114.705C115.442 21.4859 115.757 21.2232 115.757 20.7153C115.757 20.2074 115.442 19.9754 114.705 19.9754H108.455Z" fill="white"/>
<path d="M137.708 18.815C137.708 22.7292 135.016 24.5068 129.682 24.5068C124.348 24.5068 121.661 22.7555 121.661 18.815C121.661 14.8745 124.334 13.1582 129.682 13.1582C135.03 13.1582 137.708 14.8964 137.708 18.815ZM134.328 18.815C134.328 16.4551 133.097 16.0129 129.682 16.0129C126.267 16.0129 125.04 16.4507 125.04 18.815C125.04 21.1793 126.272 21.6302 129.682 21.6302C133.092 21.6302 134.328 21.1749 134.328 18.815Z" fill="white"/>
<path d="M147.356 17.4535H154.369V24.3055H146.848C143.043 24.3055 140.233 21.8931 140.233 18.7144C140.233 15.5358 143.043 13.3379 146.848 13.3379H154.707L152.515 16.1925H146.848C145.011 16.1925 143.613 17.3046 143.613 18.8633C143.613 20.422 144.959 21.4903 146.848 21.4903H150.999V19.901H145.3L147.356 17.4535Z" fill="white"/>
<path d="M173.051 24.3055H168.505L166.059 21.4027H160.843V24.3055H157.446V18.6969H166.993C168.045 18.6969 168.865 18.2241 168.865 17.471C168.865 16.6172 168.159 16.1925 166.993 16.1925H157.446L159.66 13.3379H166.717C169.211 13.3379 172.358 14.126 172.358 17.2565C172.379 18.0842 172.1 18.8916 171.573 19.5303C171.045 20.169 170.305 20.596 169.487 20.7329C170.038 21.1723 170.554 21.6539 171.03 22.1733L173.051 24.3055Z" fill="white"/>
<path d="M180.055 24.3054L182.107 21.4858H184.864C185.521 21.4858 186.288 21.4857 186.814 21.5164C186.521 21.1223 186.06 20.4524 185.701 19.927L183.733 17.0286L178.578 24.3054H174.559L181.598 14.3885C181.832 14.0169 182.154 13.7097 182.537 13.4948C182.92 13.2799 183.351 13.1642 183.79 13.1582C184.227 13.1605 184.656 13.2749 185.035 13.4903C185.415 13.7057 185.734 14.015 185.959 14.3885L192.815 24.3054H180.055Z" fill="white"/>
<path d="M202.532 24.306H195.182V17.4715H198.596V21.4864H202.541C204.43 21.4864 205.789 20.4356 205.789 18.8594C205.789 17.2832 204.378 16.1886 202.541 16.1886H195.182L197.347 13.334H202.532C206.372 13.334 209.147 15.5494 209.147 18.7105C209.147 21.8716 206.341 24.306 202.532 24.306Z" fill="white"/>
<path d="M215.462 24.3061H212.065V13.3604H215.462V24.3061Z" fill="white"/>
<path d="M228.489 23.8943L221.761 17.861V24.3015H218.692V15.2034C218.692 13.7454 219.569 13.1543 220.547 13.1543C220.801 13.1552 221.053 13.2081 221.287 13.3098C221.521 13.4114 221.731 13.5596 221.905 13.7454L228.634 19.7743V13.3338H231.715V22.4144C231.715 23.8724 230.838 24.481 229.848 24.481C229.593 24.483 229.34 24.4318 229.106 24.3308C228.872 24.2298 228.662 24.0811 228.489 23.8943Z" fill="white"/>
<path d="M241.649 17.4535H248.662V24.3055H241.14C237.336 24.3055 234.53 21.8931 234.53 18.7144C234.53 15.5358 237.336 13.3379 241.14 13.3379H248.999L246.808 16.1925H241.14C239.304 16.1925 237.905 17.3046 237.905 18.8633C237.905 20.422 239.251 21.4903 241.14 21.4903H245.304V19.901H239.606L241.649 17.4535Z" fill="white"/>
<path d="M74.0137 42.4834H70.7715V41.6631H74.0137C74.6908 41.6631 75.2402 41.5537 75.6621 41.335C76.0892 41.111 76.3991 40.8089 76.5918 40.4287C76.7897 40.0485 76.8887 39.6214 76.8887 39.1475C76.8887 38.6839 76.7897 38.2568 76.5918 37.8662C76.3991 37.4756 76.0892 37.1631 75.6621 36.9287C75.2402 36.6891 74.6908 36.5693 74.0137 36.5693H71.1074V47.1162H70.1465V35.7412H74.0137C74.847 35.7412 75.5475 35.8844 76.1152 36.1709C76.6882 36.4574 77.1204 36.8558 77.4121 37.3662C77.7038 37.8766 77.8496 38.4652 77.8496 39.1318C77.8496 39.8298 77.7038 40.4313 77.4121 40.9365C77.1204 41.4365 76.6908 41.8193 76.123 42.085C75.5553 42.3506 74.8522 42.4834 74.0137 42.4834ZM79.1621 43.0225V42.7646C79.1621 42.1501 79.2507 41.5824 79.4277 41.0615C79.6048 40.5407 79.8574 40.0902 80.1855 39.71C80.5189 39.3298 80.9173 39.0355 81.3809 38.8271C81.8444 38.6136 82.36 38.5068 82.9277 38.5068C83.5007 38.5068 84.0189 38.6136 84.4824 38.8271C84.946 39.0355 85.3444 39.3298 85.6777 39.71C86.0111 40.0902 86.2663 40.5407 86.4434 41.0615C86.6204 41.5824 86.709 42.1501 86.709 42.7646V43.0225C86.709 43.637 86.6204 44.2048 86.4434 44.7256C86.2663 45.2412 86.0111 45.6891 85.6777 46.0693C85.3496 46.4495 84.9538 46.7464 84.4902 46.96C84.0267 47.1683 83.5111 47.2725 82.9434 47.2725C82.3704 47.2725 81.8522 47.1683 81.3887 46.96C80.9251 46.7464 80.5267 46.4495 80.1934 46.0693C79.86 45.6891 79.6048 45.2412 79.4277 44.7256C79.2507 44.2048 79.1621 43.637 79.1621 43.0225ZM80.0918 42.7646V43.0225C80.0918 43.486 80.1543 43.9261 80.2793 44.3428C80.4043 44.7542 80.5866 45.1214 80.8262 45.4443C81.0658 45.762 81.3626 46.012 81.7168 46.1943C82.071 46.3766 82.4798 46.4678 82.9434 46.4678C83.4017 46.4678 83.8053 46.3766 84.1543 46.1943C84.5085 46.012 84.8053 45.762 85.0449 45.4443C85.2845 45.1214 85.4642 44.7542 85.584 44.3428C85.709 43.9261 85.7715 43.486 85.7715 43.0225V42.7646C85.7715 42.3063 85.709 41.8714 85.584 41.46C85.4642 41.0485 85.2819 40.6813 85.0371 40.3584C84.7975 40.0355 84.5007 39.7803 84.1465 39.5928C83.7923 39.4053 83.3861 39.3115 82.9277 39.3115C82.4694 39.3115 82.0632 39.4053 81.709 39.5928C81.36 39.7803 81.0632 40.0355 80.8184 40.3584C80.5788 40.6813 80.3965 41.0485 80.2715 41.46C80.1517 41.8714 80.0918 42.3063 80.0918 42.7646ZM90.9902 45.1396L93.0293 38.6631H93.6855L93.2949 40.4053L91.1621 47.1162H90.5059L90.9902 45.1396ZM88.873 38.6631L90.6621 45.1787L91.0449 47.1162H90.3652L87.9121 38.6631H88.873ZM96.2246 45.1553L97.9668 38.6631H98.9277L96.4746 47.1162H95.8027L96.2246 45.1553ZM93.8184 38.6631L95.8262 45.085L96.334 47.1162H95.6777L93.498 40.3975L93.1309 38.6631H93.8184ZM103.99 47.2725C103.438 47.2725 102.93 47.1709 102.467 46.9678C102.008 46.7646 101.607 46.4782 101.264 46.1084C100.925 45.7386 100.662 45.3011 100.475 44.7959C100.292 44.2855 100.201 43.7282 100.201 43.124V42.7881C100.201 42.137 100.298 41.5485 100.49 41.0225C100.683 40.4964 100.949 40.0459 101.287 39.6709C101.626 39.2959 102.011 39.0094 102.443 38.8115C102.881 38.6084 103.339 38.5068 103.818 38.5068C104.355 38.5068 104.831 38.6032 105.248 38.7959C105.665 38.9834 106.014 39.2516 106.295 39.6006C106.581 39.9443 106.798 40.3532 106.943 40.8271C107.089 41.2959 107.162 41.8141 107.162 42.3818V42.9521H100.764V42.1553H106.232V42.0459C106.222 41.5719 106.126 41.1292 105.943 40.7178C105.766 40.3011 105.501 39.9626 105.146 39.7021C104.792 39.4417 104.35 39.3115 103.818 39.3115C103.423 39.3115 103.058 39.3949 102.725 39.5615C102.396 39.7282 102.113 39.9678 101.873 40.2803C101.639 40.5876 101.456 40.9548 101.326 41.3818C101.201 41.8037 101.139 42.2725 101.139 42.7881V43.124C101.139 43.5928 101.206 44.0303 101.342 44.4365C101.482 44.8376 101.68 45.1917 101.936 45.499C102.196 45.8063 102.503 46.0459 102.857 46.2178C103.212 46.3896 103.602 46.4756 104.029 46.4756C104.529 46.4756 104.972 46.3844 105.357 46.2021C105.743 46.0146 106.089 45.7204 106.396 45.3193L106.982 45.7725C106.8 46.0433 106.571 46.2933 106.295 46.5225C106.024 46.7516 105.699 46.9339 105.318 47.0693C104.938 47.2048 104.495 47.2725 103.99 47.2725ZM109.936 40.0615V47.1162H109.006V38.6631H109.912L109.936 40.0615ZM112.928 38.6006L112.904 39.46C112.8 39.4443 112.699 39.4313 112.6 39.4209C112.501 39.4105 112.394 39.4053 112.279 39.4053C111.873 39.4053 111.516 39.4808 111.209 39.6318C110.907 39.7777 110.652 39.9834 110.443 40.249C110.235 40.5094 110.076 40.8167 109.967 41.1709C109.857 41.5199 109.795 41.8949 109.779 42.2959L109.436 42.4287C109.436 41.8766 109.493 41.3636 109.607 40.8896C109.722 40.4157 109.896 40.0016 110.131 39.6475C110.37 39.2881 110.67 39.0094 111.029 38.8115C111.394 38.6084 111.821 38.5068 112.311 38.5068C112.43 38.5068 112.548 38.5173 112.662 38.5381C112.782 38.5537 112.87 38.5745 112.928 38.6006ZM117.506 47.2725C116.954 47.2725 116.446 47.1709 115.982 46.9678C115.524 46.7646 115.123 46.4782 114.779 46.1084C114.441 45.7386 114.178 45.3011 113.99 44.7959C113.808 44.2855 113.717 43.7282 113.717 43.124V42.7881C113.717 42.137 113.813 41.5485 114.006 41.0225C114.199 40.4964 114.464 40.0459 114.803 39.6709C115.141 39.2959 115.527 39.0094 115.959 38.8115C116.396 38.6084 116.855 38.5068 117.334 38.5068C117.87 38.5068 118.347 38.6032 118.764 38.7959C119.18 38.9834 119.529 39.2516 119.811 39.6006C120.097 39.9443 120.313 40.3532 120.459 40.8271C120.605 41.2959 120.678 41.8141 120.678 42.3818V42.9521H114.279V42.1553H119.748V42.0459C119.738 41.5719 119.641 41.1292 119.459 40.7178C119.282 40.3011 119.016 39.9626 118.662 39.7021C118.308 39.4417 117.865 39.3115 117.334 39.3115C116.938 39.3115 116.574 39.3949 116.24 39.5615C115.912 39.7282 115.628 39.9678 115.389 40.2803C115.154 40.5876 114.972 40.9548 114.842 41.3818C114.717 41.8037 114.654 42.2725 114.654 42.7881V43.124C114.654 43.5928 114.722 44.0303 114.857 44.4365C114.998 44.8376 115.196 45.1917 115.451 45.499C115.712 45.8063 116.019 46.0459 116.373 46.2178C116.727 46.3896 117.118 46.4756 117.545 46.4756C118.045 46.4756 118.488 46.3844 118.873 46.2021C119.258 46.0146 119.605 45.7204 119.912 45.3193L120.498 45.7725C120.316 46.0433 120.087 46.2933 119.811 46.5225C119.54 46.7516 119.214 46.9339 118.834 47.0693C118.454 47.2048 118.011 47.2725 117.506 47.2725ZM128.014 45.4756V35.1162H128.951V47.1162H128.076L128.014 45.4756ZM122.146 42.9756V42.8115C122.146 42.1553 122.222 41.5641 122.373 41.0381C122.524 40.5068 122.74 40.0537 123.021 39.6787C123.308 39.2985 123.652 39.0094 124.053 38.8115C124.454 38.6084 124.907 38.5068 125.412 38.5068C125.907 38.5068 126.344 38.5876 126.725 38.749C127.105 38.9105 127.43 39.1423 127.701 39.4443C127.977 39.7464 128.199 40.1058 128.365 40.5225C128.537 40.9391 128.662 41.4027 128.74 41.9131V43.999C128.678 44.4782 128.563 44.9183 128.396 45.3193C128.23 45.7152 128.008 46.0615 127.732 46.3584C127.456 46.6501 127.123 46.8766 126.732 47.0381C126.347 47.1943 125.902 47.2725 125.396 47.2725C124.896 47.2725 124.446 47.1683 124.045 46.96C123.644 46.7516 123.303 46.4574 123.021 46.0771C122.74 45.6917 122.524 45.236 122.373 44.71C122.222 44.1839 122.146 43.6058 122.146 42.9756ZM123.084 42.8115V42.9756C123.084 43.4704 123.133 43.9287 123.232 44.3506C123.331 44.7725 123.482 45.1396 123.686 45.4521C123.889 45.7646 124.146 46.0094 124.459 46.1865C124.771 46.3636 125.141 46.4521 125.568 46.4521C126.105 46.4521 126.555 46.3506 126.92 46.1475C127.285 45.9391 127.576 45.6657 127.795 45.3271C128.014 44.9834 128.173 44.6084 128.271 44.2021V41.7725C128.209 41.4964 128.118 41.2152 127.998 40.9287C127.878 40.6423 127.714 40.3792 127.506 40.1396C127.303 39.8949 127.042 39.6995 126.725 39.5537C126.412 39.4027 126.032 39.3271 125.584 39.3271C125.152 39.3271 124.779 39.4157 124.467 39.5928C124.154 39.7699 123.894 40.0173 123.686 40.335C123.482 40.6475 123.331 41.0146 123.232 41.4365C123.133 41.8584 123.084 42.3167 123.084 42.8115ZM135.303 35.1162H136.24V45.4756L136.178 47.1162H135.303V35.1162ZM142.123 42.8115V42.9756C142.123 43.6058 142.05 44.1839 141.904 44.71C141.758 45.236 141.548 45.6917 141.271 46.0771C140.995 46.4574 140.657 46.7516 140.256 46.96C139.86 47.1683 139.404 47.2725 138.889 47.2725C138.383 47.2725 137.936 47.1943 137.545 47.0381C137.154 46.8766 136.821 46.6501 136.545 46.3584C136.269 46.0615 136.048 45.7152 135.881 45.3193C135.714 44.9183 135.597 44.4782 135.529 43.999V41.9131C135.607 41.4027 135.732 40.9391 135.904 40.5225C136.076 40.1058 136.298 39.7464 136.568 39.4443C136.844 39.1423 137.173 38.9105 137.553 38.749C137.938 38.5876 138.378 38.5068 138.873 38.5068C139.389 38.5068 139.847 38.6084 140.248 38.8115C140.654 39.0094 140.995 39.2985 141.271 39.6787C141.548 40.0537 141.758 40.5068 141.904 41.0381C142.05 41.5641 142.123 42.1553 142.123 42.8115ZM141.178 42.9756V42.8115C141.178 42.3167 141.131 41.8584 141.037 41.4365C140.943 41.0146 140.795 40.6475 140.592 40.335C140.394 40.0173 140.139 39.7699 139.826 39.5928C139.514 39.4157 139.139 39.3271 138.701 39.3271C138.253 39.3271 137.87 39.4027 137.553 39.5537C137.24 39.6995 136.98 39.8949 136.771 40.1396C136.568 40.3792 136.407 40.6423 136.287 40.9287C136.167 41.2152 136.079 41.4964 136.021 41.7725V44.2021C136.11 44.5928 136.264 44.96 136.482 45.3037C136.701 45.6475 136.995 45.9261 137.365 46.1396C137.735 46.348 138.186 46.4521 138.717 46.4521C139.144 46.4521 139.511 46.3636 139.818 46.1865C140.131 46.0094 140.386 45.7646 140.584 45.4521C140.787 45.1396 140.936 44.7725 141.029 44.3506C141.128 43.9287 141.178 43.4704 141.178 42.9756ZM146.607 46.2725L149.24 38.6631H150.248L146.67 48.4756C146.597 48.6683 146.503 48.8818 146.389 49.1162C146.279 49.3506 146.133 49.5745 145.951 49.7881C145.774 50.0068 145.55 50.1839 145.279 50.3193C145.014 50.46 144.688 50.5303 144.303 50.5303C144.204 50.5303 144.076 50.5173 143.92 50.4912C143.769 50.4704 143.66 50.4495 143.592 50.4287L143.584 49.6396C143.641 49.6553 143.725 49.6683 143.834 49.6787C143.943 49.6891 144.019 49.6943 144.061 49.6943C144.399 49.6943 144.683 49.637 144.912 49.5225C145.146 49.4079 145.342 49.236 145.498 49.0068C145.654 48.7829 145.792 48.5016 145.912 48.1631L146.607 46.2725ZM144.146 38.6631L146.842 45.9209L147.092 46.8975L146.412 47.2803L143.131 38.6631H144.146ZM159.568 36.4209L155.631 47.1162H154.631L158.928 35.7412H159.623L159.568 36.4209ZM163.146 47.1162L159.201 36.4209L159.146 35.7412H159.842L164.146 47.1162H163.146ZM162.443 43.1006V43.9287H156.404V43.1006H162.443ZM173.943 41.71V45.7568C173.813 45.9495 173.589 46.1631 173.271 46.3975C172.954 46.6318 172.527 46.8376 171.99 47.0146C171.454 47.1865 170.787 47.2725 169.99 47.2725C169.324 47.2725 168.712 47.1527 168.154 46.9131C167.597 46.6735 167.113 46.3271 166.701 45.874C166.295 45.4157 165.98 44.8662 165.756 44.2256C165.537 43.585 165.428 42.8662 165.428 42.0693V40.6943C165.428 39.9131 165.529 39.21 165.732 38.585C165.936 37.9548 166.23 37.4157 166.615 36.9678C167.001 36.5199 167.464 36.1787 168.006 35.9443C168.553 35.7048 169.165 35.585 169.842 35.585C170.686 35.585 171.396 35.7308 171.975 36.0225C172.553 36.3141 173.003 36.7152 173.326 37.2256C173.654 37.7308 173.857 38.3037 173.936 38.9443H172.975C172.902 38.4912 172.751 38.0745 172.521 37.6943C172.292 37.3089 171.959 36.999 171.521 36.7646C171.089 36.5303 170.529 36.4131 169.842 36.4131C169.29 36.4131 168.798 36.5146 168.365 36.7178C167.938 36.9209 167.579 37.21 167.287 37.585C166.995 37.96 166.774 38.4105 166.623 38.9365C166.472 39.4574 166.396 40.0381 166.396 40.6787V42.0693C166.396 42.736 166.48 43.3376 166.646 43.874C166.818 44.4105 167.063 44.8714 167.381 45.2568C167.699 45.6423 168.079 45.9391 168.521 46.1475C168.964 46.3506 169.456 46.4521 169.998 46.4521C170.576 46.4521 171.068 46.3975 171.475 46.2881C171.881 46.1787 172.206 46.0485 172.451 45.8975C172.701 45.7412 172.881 45.5954 172.99 45.46V42.5303H169.936V41.71H173.943ZM183.131 44.3193C183.131 44.0068 183.079 43.7282 182.975 43.4834C182.87 43.2386 182.699 43.0199 182.459 42.8271C182.225 42.6292 181.907 42.4469 181.506 42.2803C181.11 42.1084 180.615 41.9391 180.021 41.7725C179.454 41.611 178.941 41.4339 178.482 41.2412C178.024 41.0485 177.631 40.8271 177.303 40.5771C176.98 40.3271 176.732 40.0355 176.561 39.7021C176.389 39.3636 176.303 38.9704 176.303 38.5225C176.303 38.085 176.396 37.6865 176.584 37.3271C176.771 36.9678 177.035 36.6579 177.373 36.3975C177.717 36.137 178.12 35.9365 178.584 35.7959C179.053 35.6553 179.566 35.585 180.123 35.585C180.92 35.585 181.607 35.736 182.186 36.0381C182.769 36.3402 183.219 36.749 183.537 37.2646C183.86 37.7751 184.021 38.348 184.021 38.9834H183.061C183.061 38.4886 182.943 38.0485 182.709 37.6631C182.48 37.2725 182.146 36.9678 181.709 36.749C181.277 36.5251 180.748 36.4131 180.123 36.4131C179.498 36.4131 178.972 36.5094 178.545 36.7021C178.123 36.8896 177.803 37.1423 177.584 37.46C177.37 37.7725 177.264 38.1214 177.264 38.5068C177.264 38.7777 177.316 39.0277 177.42 39.2568C177.524 39.4808 177.693 39.6917 177.928 39.8896C178.167 40.0824 178.482 40.2646 178.873 40.4365C179.264 40.6032 179.745 40.762 180.318 40.9131C180.923 41.0798 181.459 41.2646 181.928 41.4678C182.396 41.6709 182.792 41.9053 183.115 42.1709C183.438 42.4313 183.683 42.736 183.85 43.085C184.016 43.4339 184.1 43.8402 184.1 44.3037C184.1 44.7673 184.001 45.1839 183.803 45.5537C183.61 45.9183 183.337 46.2282 182.982 46.4834C182.633 46.7386 182.219 46.9339 181.74 47.0693C181.266 47.2048 180.748 47.2725 180.186 47.2725C179.68 47.2725 179.178 47.2074 178.678 47.0771C178.178 46.9469 177.719 46.7464 177.303 46.4756C176.891 46.1995 176.561 45.8454 176.311 45.4131C176.066 44.9808 175.943 44.4652 175.943 43.8662H176.896C176.896 44.3454 176.993 44.749 177.186 45.0771C177.378 45.4053 177.633 45.6709 177.951 45.874C178.274 46.0771 178.628 46.2256 179.014 46.3193C179.404 46.4079 179.795 46.4521 180.186 46.4521C180.785 46.4521 181.303 46.3636 181.74 46.1865C182.183 46.0094 182.524 45.762 182.764 45.4443C183.008 45.1214 183.131 44.7464 183.131 44.3193ZM191.256 35.7412V47.1162H190.295V35.7412H191.256ZM195.061 40.4678V47.1162H194.131V38.6631H195.021L195.061 40.4678ZM194.85 42.3662L194.436 42.1318C194.467 41.6318 194.568 41.1631 194.74 40.7256C194.912 40.2881 195.144 39.9027 195.436 39.5693C195.732 39.236 196.079 38.9756 196.475 38.7881C196.876 38.6006 197.318 38.5068 197.803 38.5068C198.225 38.5068 198.602 38.5641 198.936 38.6787C199.269 38.7933 199.553 38.9756 199.787 39.2256C200.021 39.4756 200.199 39.7959 200.318 40.1865C200.443 40.5771 200.506 41.0537 200.506 41.6162V47.1162H199.568V41.6084C199.568 41.0251 199.488 40.5693 199.326 40.2412C199.165 39.9079 198.936 39.6709 198.639 39.5303C198.342 39.3896 197.99 39.3193 197.584 39.3193C197.136 39.3193 196.743 39.4183 196.404 39.6162C196.071 39.8089 195.79 40.0615 195.561 40.374C195.337 40.6813 195.165 41.012 195.045 41.3662C194.925 41.7152 194.86 42.0485 194.85 42.3662ZM206.045 46.4678C206.441 46.4678 206.811 46.3949 207.154 46.249C207.503 46.098 207.79 45.8766 208.014 45.585C208.243 45.2881 208.373 44.9261 208.404 44.499H209.295C209.269 45.0355 209.105 45.5146 208.803 45.9365C208.506 46.3532 208.115 46.6813 207.631 46.9209C207.152 47.1553 206.623 47.2725 206.045 47.2725C205.456 47.2725 204.936 47.1657 204.482 46.9521C204.035 46.7386 203.66 46.4417 203.357 46.0615C203.055 45.6761 202.826 45.2282 202.67 44.7178C202.519 44.2021 202.443 43.6475 202.443 43.0537V42.7256C202.443 42.1318 202.519 41.5798 202.67 41.0693C202.826 40.5537 203.055 40.1058 203.357 39.7256C203.66 39.3402 204.035 39.0407 204.482 38.8271C204.93 38.6136 205.449 38.5068 206.037 38.5068C206.641 38.5068 207.183 38.6292 207.662 38.874C208.146 39.1188 208.532 39.4652 208.818 39.9131C209.11 40.361 209.269 40.8923 209.295 41.5068H208.404C208.378 41.0537 208.258 40.6631 208.045 40.335C207.831 40.0068 207.55 39.7542 207.201 39.5771C206.852 39.4001 206.464 39.3115 206.037 39.3115C205.558 39.3115 205.149 39.4053 204.811 39.5928C204.472 39.7751 204.196 40.0277 203.982 40.3506C203.774 40.6683 203.62 41.0329 203.521 41.4443C203.423 41.8506 203.373 42.2777 203.373 42.7256V43.0537C203.373 43.5068 203.42 43.9391 203.514 44.3506C203.613 44.7568 203.766 45.1188 203.975 45.4365C204.188 45.7542 204.464 46.0068 204.803 46.1943C205.146 46.3766 205.561 46.4678 206.045 46.4678ZM211.092 46.5459C211.092 46.3636 211.149 46.21 211.264 46.085C211.383 45.9548 211.545 45.8896 211.748 45.8896C211.956 45.8896 212.12 45.9521 212.24 46.0771C212.36 46.2021 212.42 46.3584 212.42 46.5459C212.42 46.723 212.36 46.874 212.24 46.999C212.12 47.124 211.956 47.1865 211.748 47.1865C211.545 47.1865 211.383 47.124 211.264 46.999C211.149 46.874 211.092 46.723 211.092 46.5459Z" fill="white"/>
</svg>
