<svg width="32" height="32" viewBox="0 0 32 32" fill="none" xmlns="http://www.w3.org/2000/svg">
<path d="M22.6048 12.4978V9.93317V9.5498L22.2214 9.5511L19.6567 9.5602L19.6665 12.5076L22.6048 12.4978Z" fill="white"/>
<path d="M15.9209 19.3051C17.6091 19.3051 18.9833 17.9321 18.9833 16.244C18.9833 15.578 18.7663 14.9607 18.4031 14.4584C17.8475 13.6878 16.9424 13.1816 15.9209 13.1816C14.8995 13.1816 13.9957 13.6878 13.4388 14.4584C13.0756 14.9607 12.8599 15.578 12.8599 16.244C12.8599 17.9321 14.2328 19.3051 15.9209 19.3051Z" fill="white"/>
<path d="M16.0007 0C7.16374 0 0 7.16244 0 15.9994C0 24.8363 7.16374 32 16.0007 32C24.8363 32 32 24.8363 32 15.9994C32 7.16244 24.8356 0 16.0007 0ZM24.6186 14.4581V21.5802C24.6186 23.4334 23.1098 24.9409 21.2567 24.9409H10.5841C8.73034 24.9409 7.22287 23.4334 7.22287 21.5802V14.4581V10.9077C7.22287 9.05393 8.73034 7.54646 10.5841 7.54646H21.2567C23.1098 7.54646 24.6186 9.05393 24.6186 10.9077V14.4581Z" fill="white"/>
<path d="M20.6774 16.2436C20.6774 18.8654 18.5442 20.9999 15.9211 20.9999C13.2979 20.9999 11.166 18.8654 11.166 16.2436C11.166 15.6114 11.2914 15.0103 11.5149 14.458H8.91846V21.5802C8.91846 22.4989 9.6657 23.2462 10.5845 23.2462H21.257C22.1758 23.2462 22.923 22.4989 22.923 21.5802V14.458H20.3252C20.5507 15.0103 20.6774 15.612 20.6774 16.2436Z" fill="white"/>
</svg>
