<svg width="33" height="32" viewBox="0 0 33 32" fill="none" xmlns="http://www.w3.org/2000/svg">
<g clip-path="url(#clip0_6025_1349)">
<path d="M16.7139 0C7.87731 0 0.713867 7.16344 0.713867 16C0.713867 24.8366 7.87731 32 16.7139 32C25.5504 32 32.7139 24.8366 32.7139 16C32.7139 7.16344 25.5504 0 16.7139 0ZM25.0301 10.121L22.1883 23.6875C22.1539 23.8516 22.0789 24.0044 21.97 24.1319C21.8612 24.2594 21.722 24.3575 21.5653 24.4172C21.4087 24.4769 21.2395 24.4963 21.0734 24.4735C20.9073 24.4508 20.7496 24.3867 20.6147 24.2871L16.4812 21.2332L13.977 23.5958C13.9442 23.6267 13.9056 23.6508 13.8634 23.6666C13.8212 23.6824 13.7763 23.6897 13.7313 23.688C13.6862 23.6863 13.642 23.6756 13.6011 23.6566C13.5603 23.6376 13.5236 23.6107 13.4932 23.5774L13.4394 23.5182L13.8746 19.3073L21.7173 12.1416C21.7561 12.1062 21.7802 12.0576 21.7849 12.0053C21.7896 11.953 21.7745 11.9009 21.7427 11.8592C21.7108 11.8175 21.6644 11.7892 21.6128 11.78C21.5611 11.7707 21.5078 11.7812 21.4635 11.8093L11.4336 18.1574L7.11387 16.7067C6.99901 16.6681 6.8989 16.5949 6.82728 16.4972C6.75567 16.3995 6.71604 16.2819 6.71385 16.1608C6.71166 16.0397 6.74701 15.9208 6.81505 15.8205C6.88309 15.7203 6.98048 15.6435 7.09387 15.6008L23.9951 9.234C24.1255 9.18494 24.2667 9.1718 24.4038 9.19596C24.541 9.22012 24.6692 9.28069 24.775 9.37134C24.8807 9.462 24.9602 9.57939 25.0051 9.71127C25.05 9.84314 25.0586 9.98465 25.0301 10.121Z" fill="white"/>
</g>
<defs>
<clipPath id="clip0_6025_1349">
<rect width="32" height="32" fill="white" transform="translate(0.713867)"/>
</clipPath>
</defs>
</svg>
