<svg width="33" height="32" viewBox="0 0 33 32" fill="none" xmlns="http://www.w3.org/2000/svg">
<g clip-path="url(#clip0_6025_1347)">
<path fill-rule="evenodd" clip-rule="evenodd" d="M16.4287 0C25.2593 0 32.4287 7.16938 32.4287 16C32.4287 24.8306 25.2593 32 16.4287 32C7.59809 32 0.428711 24.8306 0.428711 16C0.428711 7.16938 7.59809 0 16.4287 0ZM13.6105 24.5099C20.6907 24.5099 24.562 18.643 24.562 13.5584C24.562 13.3908 24.562 13.2232 24.554 13.0635C25.3043 12.5208 25.9589 11.8422 26.4777 11.068C25.7913 11.3713 25.0489 11.5789 24.2666 11.6746C25.0649 11.1957 25.6715 10.4454 25.9589 9.54344C25.2165 9.98244 24.3944 10.3017 23.5163 10.4773C22.8139 9.727 21.8161 9.26406 20.7066 9.26406C18.5834 9.26406 16.8593 10.9882 16.8593 13.1114C16.8593 13.4148 16.8912 13.7101 16.963 13.9894C13.7622 13.8298 10.9285 12.2972 9.02884 9.96644C8.70152 10.5332 8.50996 11.1957 8.50996 11.8981C8.50996 13.2311 9.18846 14.4125 10.2261 15.0989C9.59552 15.083 9.00484 14.9074 8.48602 14.6201V14.6679C8.48602 16.5357 9.81102 18.0843 11.5751 18.4435C11.2558 18.5312 10.9126 18.5792 10.5614 18.5792C10.3139 18.5792 10.0745 18.5553 9.83502 18.5073C10.3219 20.0399 11.7427 21.1494 13.427 21.1813C12.1099 22.2111 10.4496 22.8257 8.64565 22.8257C8.33434 22.8257 8.03102 22.8097 7.72771 22.7698C9.41196 23.8713 11.4394 24.5099 13.6105 24.5099Z" fill="white"/>
</g>
<defs>
<clipPath id="clip0_6025_1347">
<rect width="32" height="32" fill="white" transform="translate(0.428711)"/>
</clipPath>
</defs>
</svg>
