<svg width="401" height="97" viewBox="0 0 401 97" fill="none" xmlns="http://www.w3.org/2000/svg">
<path d="M84.785 60.5067C84.3338 60.3418 83.8543 60.2669 83.3738 60.2862C82.8934 60.3054 82.4215 60.4185 81.9851 60.6189C81.5488 60.8193 81.1567 61.1031 80.8312 61.454C80.5058 61.805 80.2533 62.2161 80.0884 62.6639C80.0884 62.6639 77.6873 71.7397 55.3802 75.8167C53.8874 72.4727 50.1626 66.6642 42.6424 67.5438L44.1774 70.9647C45.0641 71.0449 45.9579 71.0003 46.832 70.8321C45.9025 71.9072 40.3891 74.0225 36.5516 73.1429C36.8372 73.0503 37.1042 72.9085 37.3402 72.724L35.9812 70.3433C35.9812 70.3433 31.5099 72.9893 33.2562 76.9477C35.0025 80.9061 40.4314 79.0421 40.4314 79.0421C40.4314 79.0421 38.4809 80.6757 36.629 80.6757C35.4461 83.922 39.4878 89.4861 43.8816 88.8299C43.6608 89.1165 43.3763 89.3486 43.0502 89.5084C42.7242 89.6683 42.3653 89.7514 42.0016 89.7514C44.9378 91.3082 54.4015 91.6922 56.0844 83.0564C83.1655 78.2323 86.9467 65.2052 86.9679 65.1633C87.133 64.7154 87.2076 64.2397 87.1872 63.7633C87.1669 63.2868 87.0521 62.8191 86.8494 62.3867C86.6467 61.9543 86.36 61.5657 86.0058 61.2431C85.6516 60.9205 85.2368 60.6703 84.785 60.5067Z" fill="black" fill-opacity="0.87"/>
<path d="M25.1027 65.0098L28.8417 72.4588C29.5458 73.8132 29.5458 75.6143 28.5882 76.1868L22.9551 79.5239C23.1544 79.6417 23.3408 79.7798 23.5113 79.9357C24.0511 80.4181 24.454 81.0322 24.6801 81.7169C24.9062 82.4015 24.9475 83.1329 24.7999 83.8384C33.144 81.7719 34.172 69.3103 25.1027 65.0098Z" fill="black" fill-opacity="0.87"/>
<path d="M18.3915 80.8925C20.4053 77.8347 18.3915 74.7977 15.8495 74.3649C15.6177 74.3198 15.3812 74.3035 15.1454 74.3161C16.9621 70.7207 15.0257 67.2789 12.5542 66.8042C9.06867 66.1061 7.58293 72.3194 7.35761 75.9427C7.13228 79.566 10.8079 78.6236 10.8079 78.6236C11.0543 78.47 11.2937 78.3234 11.512 78.1698C11.1217 79.3833 10.8852 80.6403 10.8079 81.9117C10.6319 84.9277 14.3286 84.1946 14.3286 84.1946C14.575 84.076 14.8074 83.9503 15.0327 83.8316C14.8426 84.055 14.6666 84.2714 14.5117 84.4808C12.6879 86.9033 16.1523 88.2857 16.1523 88.2857C24.5456 89.3189 25.5173 83.3569 22.9402 80.9483C21.5812 79.7475 19.9406 80.0198 18.3915 80.8925Z" fill="black" fill-opacity="0.87"/>
<path d="M64.3241 33.5938C62.7187 33.5938 61.416 35.3949 61.416 37.608C61.416 39.8211 62.7187 41.6223 64.3241 41.6223C65.9295 41.6223 67.2322 39.8281 67.2322 37.608C67.2322 35.3879 65.9436 33.5938 64.3241 33.5938Z" fill="black" fill-opacity="0.87"/>
<path d="M84.4967 26.2216C85.0437 25.4005 85.7638 24.7068 86.6075 24.1885C87.4512 23.6702 88.3983 23.3396 89.3834 23.2196C84.9615 18.4514 73.322 17.3763 73.322 17.3763C73.8471 18.0731 74.1708 18.8985 74.2585 19.7639C72.8503 17.8371 68.6677 13.5994 63.3867 14.3534C63.6189 13.8573 63.9071 13.3889 64.2457 12.9571C63.5876 11.0552 63.0561 9.11261 62.6543 7.14173C63.4965 6.85144 64.2048 6.26968 64.6491 5.50327C65.0935 4.73687 65.2441 3.83728 65.0732 2.96965C64.9024 2.10203 64.4216 1.3246 63.7192 0.780153C63.0168 0.235703 62.1398 -0.0392946 61.2494 0.00574902C60.3589 0.0507926 59.5147 0.41283 58.8718 1.02533C58.2289 1.63784 57.8305 2.45975 57.7496 3.34011C57.6687 4.22047 57.9108 5.10015 58.4316 5.81774C58.9523 6.53533 59.7166 7.04258 60.5842 7.24639C60.6568 9.77152 61.0544 12.2772 61.7671 14.7025C55.9439 16.7061 54.8595 24.19 54.8595 24.19C54.5759 23.1271 54.6027 22.0061 54.937 20.9577C53.3879 21.8024 40.6641 31.4297 41.2063 43.3398C41.7485 55.2499 53.2682 67.4113 71.7729 62.4127C90.2777 57.4141 91.3973 41.8737 91.3973 41.8737C91.3973 41.8737 88.5314 41.9505 87.8343 39.9539C99.0865 41.8109 96.5445 19.9384 84.4967 26.2216ZM78.4411 48.6037C73.6952 56.6322 51.8529 60.1927 46.438 52.3945C44.1496 49.0994 43.5581 46.649 43.3821 42.8372C43.2342 39.542 43.7271 36.9588 45.3748 34.306C48.6842 28.9862 65.5484 26.2844 74.0191 28.4556C79.6945 29.8658 80.8493 44.5057 78.4411 48.5618V48.6037Z" fill="black" fill-opacity="0.87"/>
<path d="M63.2244 47.9547C63.1078 47.8703 62.9757 47.8095 62.8355 47.7758C62.6953 47.7421 62.5498 47.7361 62.4073 47.7581C62.2647 47.7802 62.1279 47.8298 62.0048 47.9043C61.8816 47.9788 61.7744 48.0765 61.6893 48.192C58.9714 51.927 54.0072 49.3509 53.9931 49.3439C53.7354 49.2125 53.4356 49.1879 53.1596 49.2756C52.8836 49.3633 52.654 49.5562 52.5215 49.8117C52.3889 50.0672 52.3641 50.3645 52.4526 50.6381C52.541 50.9117 52.7355 51.1393 52.9932 51.2708C52.9932 51.2708 59.6333 54.7196 63.4638 49.4696C63.5487 49.3547 63.6098 49.2243 63.6437 49.0858C63.6777 48.9474 63.6837 48.8036 63.6614 48.6629C63.6392 48.5221 63.5891 48.3871 63.5141 48.2656C63.4391 48.144 63.3406 48.0384 63.2244 47.9547Z" fill="black" fill-opacity="0.87"/>
<path d="M48.2695 36.3799C46.7908 36.3799 45.5938 38.0344 45.5938 40.0729C45.5938 42.1115 46.7908 43.7591 48.2695 43.7591C49.7482 43.7591 50.9452 42.1115 50.9452 40.0729C50.9452 38.0344 49.7482 36.3799 48.2695 36.3799Z" fill="black" fill-opacity="0.87"/>
<path fill-rule="evenodd" clip-rule="evenodd" d="M24.4407 36.3512C28.6162 36.3512 34.1014 42.6344 36.6856 50.3138C39.2698 57.9933 37.9672 64.2765 33.7846 64.2765C29.602 64.2765 24.1238 57.9933 21.5396 50.3138C18.9554 42.6344 20.2581 36.3512 24.4407 36.3512ZM51.8035 90.2818L53.2118 93.4164C53.3204 93.6332 53.3843 93.8694 53.3995 94.111C53.4147 94.3526 53.3811 94.5948 53.3005 94.8233C53.2199 95.0518 53.0941 95.262 52.9303 95.4416C52.7666 95.6211 52.5683 95.7664 52.3471 95.8689C52.1259 95.9713 51.8862 96.0289 51.6423 96.0381C51.3983 96.0473 51.1549 96.0081 50.9264 95.9227C50.698 95.8373 50.4891 95.7075 50.312 95.5408C50.1349 95.3742 49.9932 95.174 49.8953 94.9523L48.149 91.5454C49.4369 91.3576 50.6771 90.9288 51.8035 90.2818ZM40.0162 64.6814L43.2975 71.5789C41.6935 72.1109 40.0173 72.3981 38.3263 72.4306L35.4041 67.034C29.6865 66.9154 22.6451 59.215 19.6173 49.7274C16.5895 40.2398 18.7512 32.4277 24.497 32.4277C30.2428 32.4277 37.3616 40.17 40.4105 49.7274C42.4455 56.1084 42.1427 61.6864 40.0162 64.6814ZM0.732323 55.0332L12.6534 49.0083C13.6392 48.5057 14.8433 48.771 15.5685 50.1323L27.729 73.0589C28.4331 74.4552 28.5387 76.2284 27.5882 76.8009L23.0394 79.5934C21.7368 78.7976 20.2229 79.0978 18.709 79.8867C19.1721 79.306 19.4718 78.614 19.5774 77.8812C19.6831 77.1483 19.591 76.4008 19.3105 75.7148C19.03 75.0287 18.5711 74.4286 17.9806 73.9756C17.3901 73.5225 16.689 73.2327 15.9488 73.1357C15.6863 73.089 15.4193 73.0726 15.1531 73.0869C17.1035 69.4007 15.0052 65.8543 12.3365 65.3586C9.84387 64.8909 8.30885 67.5088 7.48501 70.4131L0.619661 58.7752C-0.183057 57.4487 -0.24643 55.5429 0.732323 55.0332Z" fill="black" fill-opacity="0.87"/>
<path d="M135.751 40.7811H128.449L124.52 36.1525H116.141V40.7811H110.684V31.8381H126.02C127.71 31.8381 129.026 31.0841 129.026 29.8833C129.026 28.5219 127.893 27.8447 126.02 27.8447H110.684L114.24 23.293H125.576C129.583 23.293 134.638 24.5496 134.638 29.5412C134.672 30.861 134.224 32.1485 133.377 33.1669C132.529 34.1853 131.34 34.8662 130.026 35.0844C130.911 35.7851 131.74 36.553 132.505 37.3812L135.751 40.7811Z" fill="black"/>
<path d="M164.134 32.0267C164.134 38.268 159.811 41.1024 151.248 41.1024C142.686 41.1024 138.355 38.3099 138.355 32.0267C138.355 25.7435 142.658 23.0068 151.248 23.0068C159.839 23.0068 164.134 25.7784 164.134 32.0267ZM158.705 32.0267C158.705 28.2638 156.726 27.5587 151.248 27.5587C145.77 27.5587 143.784 28.2568 143.784 32.0267C143.784 35.7966 145.763 36.5157 151.248 36.5157C156.733 36.5157 158.705 35.7896 158.705 32.0267Z" fill="black"/>
<path d="M191.412 35.6848C191.412 38.582 189.807 40.7811 184.244 40.7811H168.746V30.1416H184.35C185.145 30.1416 185.878 29.8554 185.878 28.9688C185.878 28.0822 185.117 27.8447 184.35 27.8447H168.746L172.436 23.293H184.117C188.342 23.293 191.046 24.9196 191.046 28.131C191.093 28.9152 190.885 29.6937 190.453 30.3522C190.021 31.0106 189.387 31.5143 188.645 31.7892C189.48 32.0369 190.207 32.5556 190.709 33.2621C191.211 33.9686 191.458 34.8219 191.412 35.6848ZM174.231 33.8766V36.2852H184.272C185.455 36.2852 185.962 35.8663 185.962 35.0565C185.962 34.2466 185.455 33.8766 184.272 33.8766H174.231Z" fill="black"/>
<path d="M221.226 32.0267C221.226 38.268 216.902 41.1024 208.333 41.1024C199.764 41.1024 195.447 38.3099 195.447 32.0267C195.447 25.7435 199.743 23.0068 208.333 23.0068C216.923 23.0068 221.226 25.7784 221.226 32.0267ZM215.797 32.0267C215.797 28.2638 213.818 27.5587 208.333 27.5587C202.848 27.5587 200.876 28.2568 200.876 32.0267C200.876 35.7966 202.855 36.5157 208.333 36.5157C213.811 36.5157 215.797 35.7896 215.797 32.0267Z" fill="black"/>
<path d="M236.725 29.8553H247.992V40.7811H235.909C229.797 40.7811 225.283 36.9344 225.283 31.866C225.283 26.7975 229.797 23.293 235.909 23.293H248.534L245.013 27.8447H235.909C232.958 27.8447 230.712 29.618 230.712 32.1034C230.712 34.5887 232.874 36.2922 235.909 36.2922H242.577V33.758H233.423L236.725 29.8553Z" fill="black"/>
<path d="M278.001 40.7811H270.699L266.77 36.1525H258.391V40.7811H252.934V31.8381H268.27C269.96 31.8381 271.276 31.0841 271.276 29.8833C271.276 28.5219 270.143 27.8447 268.27 27.8447H252.934L256.489 23.293H267.826C271.833 23.293 276.888 24.5496 276.888 29.5412C276.922 30.861 276.474 32.1485 275.627 33.1669C274.779 34.1853 273.59 34.8662 272.276 35.0844C273.161 35.7851 273.99 36.553 274.755 37.3812L278.001 40.7811Z" fill="black"/>
<path d="M289.254 40.7812L292.549 36.2853H296.978C298.034 36.2853 299.267 36.2853 300.112 36.3341C299.64 35.7058 298.9 34.6377 298.323 33.7999L295.161 29.1783L286.881 40.7812H280.424L291.732 24.9685C292.107 24.3761 292.626 23.8862 293.241 23.5436C293.856 23.2009 294.548 23.0164 295.253 23.0068C295.955 23.0106 296.644 23.1929 297.254 23.5364C297.864 23.8799 298.375 24.373 298.738 24.9685L309.751 40.7812H289.254Z" fill="black"/>
<path d="M325.361 40.7812H313.553V29.8834H319.038V36.2853H325.375C328.41 36.2853 330.593 34.6098 330.593 32.0965C330.593 29.5833 328.326 27.838 325.375 27.838H313.553L317.031 23.2861H325.361C331.529 23.2861 335.987 26.8186 335.987 31.8591C335.987 36.8996 331.48 40.7812 325.361 40.7812Z" fill="black"/>
<path d="M346.133 40.7814H340.676V23.3281H346.133V40.7814Z" fill="black"/>
<path d="M367.06 40.1252L356.251 30.5049V40.7744H351.322V26.2673C351.322 23.9425 352.731 23 354.301 23C354.71 23.0015 355.115 23.0858 355.49 23.2479C355.866 23.41 356.204 23.6463 356.484 23.9425L367.292 33.5557V23.2863H372.242V37.7655C372.242 40.0903 370.834 41.0607 369.243 41.0607C368.833 41.0638 368.428 40.9823 368.052 40.8212C367.676 40.6601 367.338 40.4231 367.06 40.1252Z" fill="black"/>
<path d="M388.199 29.8553H399.465V40.7811H387.382C381.27 40.7811 376.764 36.9344 376.764 31.866C376.764 26.7975 381.27 23.293 387.382 23.293H400.007L396.487 27.8447H387.382C384.432 27.8447 382.186 29.618 382.186 32.1034C382.186 34.5887 384.347 36.2922 387.382 36.2922H394.071V33.758H384.918L388.199 29.8553Z" fill="black"/>
<path d="M108.4 53.82V69H109.72V63.74H115.34C119.08 63.74 119.54 62.32 119.54 59.28V58.5C119.54 55.16 119.08 53.82 115.62 53.82H108.4ZM109.72 54.94H115.46C117.98 54.94 118.28 56.02 118.28 58.46V59.34C118.28 61.5 117.98 62.64 115.26 62.64H109.72V54.94ZM126.62 58.16C121.9 58.16 121.56 60.16 121.56 63.54C121.56 66.98 121.9 69.18 126.62 69.18C131.32 69.18 131.66 67.04 131.66 63.54C131.66 60.16 131.32 58.16 126.62 58.16ZM126.62 59.16C130.16 59.16 130.44 60.64 130.44 63.26V63.9C130.44 66.6 130.18 68.18 126.62 68.18C123.06 68.18 122.78 66.58 122.78 63.88V63.26C122.78 60.64 123.06 59.16 126.62 59.16ZM133.498 58.36L136.638 69H138.118L141.178 59.44L144.198 69H145.678L148.838 58.36H147.678L144.918 67.88L141.918 58.36H140.438L137.458 67.88L134.658 58.36H133.498ZM155.701 58.16C151.001 58.16 150.681 60.22 150.681 63.54C150.681 66.94 150.921 69.18 155.701 69.18C159.821 69.18 160.501 67.82 160.581 65.56H159.421C159.401 67.28 158.861 68.2 155.701 68.2C152.001 68.2 151.901 66.54 151.901 63.88H160.641C160.661 63.7 160.661 63.5 160.661 63.28C160.661 60.02 160.481 58.16 155.701 58.16ZM155.721 59.14C159.381 59.14 159.501 60.46 159.501 63.04V63.14H151.901C151.901 60.74 152.001 59.14 155.721 59.14ZM163.363 58.36V69H164.563V61.42C165.383 59.86 166.743 59.18 168.803 59.18C169.563 59.18 170.143 59.3 170.603 59.54V58.42C170.203 58.28 169.603 58.16 168.903 58.16C166.863 58.16 165.363 58.82 164.483 60.28V58.36H163.363ZM177.127 58.16C172.427 58.16 172.107 60.22 172.107 63.54C172.107 66.94 172.347 69.18 177.127 69.18C181.247 69.18 181.927 67.82 182.007 65.56H180.847C180.827 67.28 180.287 68.2 177.127 68.2C173.427 68.2 173.327 66.54 173.327 63.88H182.067C182.087 63.7 182.087 63.5 182.087 63.28C182.087 60.02 181.907 58.16 177.127 58.16ZM177.147 59.14C180.807 59.14 180.927 60.46 180.927 63.04V63.14H173.327C173.327 60.74 173.427 59.14 177.147 59.14ZM193.069 53.82V60.18C192.429 58.96 191.169 58.16 188.789 58.16C184.969 58.16 184.609 60.08 184.609 63.5C184.609 66.94 184.969 69.18 188.829 69.18C191.109 69.18 192.469 68.5 193.149 67.16V69H194.249V53.82H193.069ZM185.789 63.14C185.789 60.58 186.189 59.16 189.129 59.16C191.489 59.16 192.569 60 193.069 61.36V66C192.529 67.48 191.389 68.18 189.129 68.18C186.189 68.18 185.789 66.54 185.789 63.98V63.14ZM203.246 53.82V69H204.366V67.16C205.026 68.48 206.346 69.18 208.686 69.18C212.546 69.18 212.906 66.94 212.906 63.5C212.906 60.08 212.546 58.16 208.726 58.16C206.346 58.16 205.086 58.96 204.446 60.18V53.82H203.246ZM204.446 61.36C204.926 60 206.026 59.16 208.386 59.16C211.326 59.16 211.706 60.58 211.706 63.14V63.98C211.706 66.54 211.326 68.18 208.386 68.18C206.126 68.18 204.986 67.48 204.446 66V61.36ZM214.241 58.36L219.101 69.36L217.461 73.52H218.701L224.721 58.36H223.521L219.601 68.1L215.481 58.36H214.241ZM237.417 53.82L231.857 69H234.217L235.497 65.38H241.937L243.177 69H245.557L240.177 53.82H237.417ZM238.777 56.16L241.297 63.5H236.177L238.777 56.16ZM253.368 53.6C247.548 53.6 246.988 55.58 246.988 61.4C246.988 67.12 247.648 69 252.528 69H259.448V60.98H253.748V62.94H257.188V66.96H252.648C249.828 66.96 249.408 65.7 249.408 62.58V60.14C249.408 56.82 249.768 55.6 253.348 55.6C256.608 55.6 257.108 56.58 257.128 58.56C257.128 58.64 257.128 58.78 257.108 58.86H259.328V58.64C259.328 55.22 258.568 53.6 253.368 53.6ZM261.89 64.16C261.87 64.44 261.83 64.84 261.83 65.24C261.83 68.26 263.57 69.18 267.75 69.18C271.97 69.18 273.57 68.12 273.57 64.66C273.57 62.98 273.15 61.66 271.63 60.98C269.95 60.3 267.57 60.38 266.13 60.04C264.89 59.76 264.35 59.2 264.35 57.82C264.35 56.18 265.23 55.56 267.83 55.56C270.21 55.56 271.01 56.1 271.01 57.58C271.01 57.8 271.01 58.08 270.99 58.3H273.23C273.25 58.06 273.27 57.7 273.27 57.34C273.27 54.24 271.55 53.6 267.93 53.6C263.75 53.6 261.95 54.44 261.95 57.78C261.95 61.3 264.43 61.7 267.29 62.1C268.21 62.24 269.11 62.4 269.83 62.68C270.85 63.08 271.13 63.68 271.13 64.8C271.13 66.44 270.31 67.22 267.73 67.22C264.91 67.22 264.15 66.56 264.15 64.98C264.15 64.7 264.17 64.38 264.19 64.16H261.89ZM282.132 53.82V69H284.512V53.82H282.132ZM287.405 58.36V69H289.585V61.6C290.005 60.7 290.725 59.94 292.905 59.94C295.025 59.94 295.365 60.46 295.365 61.52V69H297.525V61.02C297.525 59.18 296.985 58.16 293.665 58.16C291.105 58.16 290.045 59 289.425 59.9V58.36H287.405ZM302.216 63.12C302.216 61.04 302.396 59.94 305.316 59.94C307.856 59.94 308.156 60.58 308.176 61.94H310.236C310.216 59.48 309.656 58.16 305.316 58.16C300.336 58.16 300.016 60.14 300.016 63.56C300.016 67.16 300.336 69.18 305.316 69.18C309.516 69.18 310.176 67.86 310.216 65.36H308.176C308.156 66.76 307.776 67.4 305.316 67.4C302.396 67.4 302.216 66.26 302.216 64.1V63.12ZM312.52 66.16V69H314.64V66.16H312.52Z" fill="black" fill-opacity="0.87"/>
</svg>