<svg xmlns="http://www.w3.org/2000/svg" viewBox="0 0 474.212 474.212" style="enable-background:new 0 0 474.212 474.212" xml:space="preserve"><circle style="fill:#fff" cx="237.106" cy="236.97" r="236.97"/><path style="fill:#0095c3" d="M473.888 237.598v-.438c0-30.095-21.897-55.097-52.662-55.097-30.746 0-52.216 24.557-52.216 54.645v.449c0 30.087 21.904 55.082 52.669 55.082 30.742 0 52.209-24.553 52.209-54.641m-137.181-59.262-19.162 18.716c-11.034-9.119-23.102-14.99-38.514-14.99-29.642 0-51.097 24.333-51.097 54.645v.449c0 30.308 21.455 55.082 51.097 55.082 15.955 0 27.068-5.489 38.076-14.544l18.133 17.736c-14.698 13.504-31.491 21.807-57.092 21.807-45.141 0-78.768-35.18-78.768-79.643v-.438c0-44.041 32.987-80.089 79.879-80.089 26.556.001 43.297 8.674 57.448 21.269m-153.58 136.249H71.173v-21.448l53.313-45.361c21.238-17.916 28.999-27.869 28.999-41.818 0-15.266-10.851-24.112-25.017-24.112-14.155 0-23.899 7.738-35.839 23.236l-19.255-15.049c14.829-20.812 29.429-32.52 57.084-32.52 30.323 0 51.112 18.585 51.112 46.237v.438c0 24.329-12.827 37.616-40.261 59.947l-31.88 26.566h73.694v23.884h.004zm280.856-146.329C434.334 71.404 344.247.965 237.708.965 107.016.965 1.064 106.905 1.064 237.598c0 130.685 105.952 236.614 236.644 236.614 107.063 0 197.494-71.135 226.661-168.723-12.221 7.397-26.843 11.753-43.146 11.753-47.569 0-80.747-36.059-80.747-79.643v-.438c0-43.592 33.623-80.089 81.2-80.089 15.984-.004 30.278 4.134 42.307 11.184"/></svg>