<svg xmlns="http://www.w3.org/2000/svg" viewBox="0 0 473.94 473.94" style="enable-background:new 0 0 473.94 473.94" xml:space="preserve"><circle style="fill:#055d77" cx="236.97" cy="236.97" r="236.97"/><path style="fill:#fff" d="M49.822 218.953h.213l5.351 15.266H44.527l5.295-15.266m6.514 35.068h20.288v-2.312c-3.925-.49-5.122-.79-7.689-7.79-2.806-7.491-6.08-16.34-9.186-25.081l-4.876-13.777-3.641 1.003-14.975 38.091c-2.586 6.672-3.551 7.023-7.981 7.558v2.309h16.692v-2.312l-1.826-.206c-3.427-.389-3.558-1.171-2.477-4.905.965-3.207 1.938-6.462 2.844-8.625h13.126c1.119 2.72 2.537 6.593 3.495 9.055 1.25 3.188.868 4.004-1.856 4.4l-1.938.277v2.315zM97.836 228.266c0-2.705-.359-3.188-2.279-3.51l-2.294-.367v-2.148c3.704-.191 10.151-.905 13.639-1.381v25.171c0 3.076.299 3.895 2.653 3.895h2.309v2.294c-4.449.636-9.194 1.673-13.433 2.746l-.591-.505v-4.752c-1.396 1.036-2.645 1.979-4.284 2.975-2.286 1.396-4.15 2.17-6.488 2.17-6.181 0-9.594-4.108-9.594-9.8v-16.793c0-2.705-.359-3.188-2.271-3.51l-2.009-.367v-2.148c3.412-.191 9.485-.905 13.351-1.381v22.357c0 4.355 2.215 6.065 4.999 6.065 2.084 0 4.15-.973 6.301-2.844v-18.17M125.169 243.102c0 5.687 2.799 6.746 4.142 6.746 1.175 0 2.447-.389 3.858-1.19l1.021 2.215-6.372 3.214c-1.175.561-2.286.775-2.806.775-5.721 0-8.902-2.485-8.902-9.07v-20.58h-4.752l-.52-.943 2.376-2.836h2.892v-4.524l7.768-5.852 1.287.629v9.747h7.323c.958.812.827 3.173-.513 3.779h-6.81v17.889M149.139 225.306c2.499-2.477 6.241-4.745 10.114-4.745 6.739 0 10.458 4.217 10.458 11.203v15.019c0 4.15.374 4.438 4.464 4.924v2.309h-17.399v-2.309c3.588-.49 3.873-.775 3.873-4.924v-14.207c0-4.576-2.567-6.526-5.65-6.526a8.212 8.212 0 0 0-5.86 2.432v18.301c0 4.15.352 4.438 3.442 4.924v2.309H134.74v-2.309c4.947-.49 5.328-.775 5.328-4.924V210.99c0-4.385-.146-4.486-4.838-4.771v-2.133c3.289-.513 8.995-1.572 13.908-2.608l.001 23.828M185.629 235.566c0-8.019 3.136-11.947 6.159-11.947 4.745 0 7.585 5.714 7.585 15.611 0 10.72-3.326 12.554-6.013 12.554-4.757-.001-7.731-6.901-7.731-16.218m7.285-15.004c-8.325 0-17.519 6.241-17.519 17.987 0 7.921 5.714 16.31 17.13 16.31 8.535 0 17.074-5.796 17.074-17.882-.001-8.617-6.38-16.415-16.685-16.415zM225.46 246.784c0 4.135.359 4.438 6.065 4.924v2.309h-20.172v-2.309c4.655-.49 5.036-.79 5.036-4.924v-16.438c0-4.524-.138-4.576-4.905-5.115v-2.002c4.333-.606 9.077-1.594 13.972-2.668v7.368h.153c.943-1.504 2.069-3.274 3.457-4.745 1.418-1.504 3.046-2.623 4.905-2.623 2.814 0 4.969 2.062 4.969 4.524s-1.639 4.61-3.51 5.261c-.958.408-1.68.131-2.286-.299-1.235-1.003-2.522-1.564-3.697-1.564-1.25 0-2.739.561-3.989 3.656v14.645M244.782 230.347c0-4.524-.138-4.576-4.883-5.115v-2.002c4.355-.606 9.268-1.594 13.953-2.668v26.125c0 4.232.374 4.531 5.085 5.021v2.309h-19.255v-2.309c4.745-.49 5.1-.79 5.1-5.021v-16.34m9.295-21.478c0 3.005-2.376 5.351-5.381 5.351-2.881 0-5.392-2.346-5.392-5.351 0-3.02 2.514-5.392 5.392-5.392 3.005 0 5.381 2.372 5.381 5.392zM288.411 221.419l.651 1.059-17.036 28.392h5.86c5.1 0 7.083-.92 9.575-5.137l1.089-1.833 2.668.988c-1.328 3.682-2.286 6.425-3.412 9.134H261.06l-.737-1.081 17.568-28.385h-5.205c-4.905 0-6.219 1.126-7.914 4.778l-1.051 2.271-2.66-1.003c.868-2.799 2.047-7.498 2.732-10.735h1.639c.382 1.081 1.175 1.549 3.996 1.549h18.986"/><path style="fill:#fff" d="M299.775 232.831c.445-5.029 3.188-8.872 5.919-8.872 2.821 0 5.182 3.888 5.182 6.892 0 1.441-.284 1.755-1.381 1.755l-9.72.225m18.387 12.61c-2.982 2.002-5.276 2.874-8.019 2.874-5.643 0-10.69-3.835-10.69-12.138 7.368-.292 17.231-.98 18.264-1.19 1.478-.284 1.695-.453 1.695-3.229 0-5.729-5.122-11.165-11.555-11.165-9.033 0-17.029 7.959-17.029 18.641 0 8.303 5.759 15.633 15.757 15.633 2.586 0 8.382-1.489 12.606-7.944l-1.029-1.482zM321.803 249.055c0-3.341 2.432-5.796 5.605-5.796 3.244 0 5.687 2.455 5.687 5.796 0 3.465-2.44 5.803-5.687 5.803-3.173.001-5.605-2.338-5.605-5.803M380.911 254.559h-4.509l-29.444-36.153h-.161v15.349c0 7.798.445 11.899.73 14.207.393 2.574 2.253 3.543 7.162 3.749v2.309h-18.394v-2.312c3.712-.138 5.482-1.175 5.833-3.749.337-2.309.775-6.41.775-14.207v-14.705c0-4.722 0-6.548-1.351-8.31-1.411-1.796-3.267-2.264-6.294-2.514v-2.331h12.89l28.684 33.369h.153V226.18c0-7.775-.423-11.854-.737-14.185-.374-2.615-2.238-3.521-7.147-3.772v-2.331h18.402v2.331c-3.727.146-5.482 1.156-5.852 3.772-.307 2.331-.737 6.41-.737 14.185v28.381"/><path style="fill:#fff" d="M392.368 232.831c.423-5.029 3.18-8.872 5.905-8.872 2.814 0 5.182 3.888 5.182 6.892 0 1.441-.269 1.755-1.411 1.755l-9.676.225m18.387 12.61c-2.99 2.002-5.276 2.874-8.045 2.874-5.613 0-10.649-3.835-10.649-12.138 7.33-.292 17.197-.98 18.234-1.19 1.478-.284 1.695-.453 1.695-3.229 0-5.729-5.1-11.165-11.555-11.165-9.04 0-17.051 7.959-17.051 18.641 0 8.303 5.788 15.633 15.772 15.633 2.608 0 8.397-1.489 12.613-7.944l-1.014-1.482zM426.418 243.102c0 5.687 2.799 6.746 4.157 6.746 1.164 0 2.432-.389 3.828-1.19l1.044 2.215-6.38 3.214c-1.171.561-2.26.775-2.814.775-5.687 0-8.924-2.485-8.924-9.07v-20.58h-4.715l-.52-.943 2.384-2.836h2.851v-4.524l7.813-5.852 1.272.629v9.747h7.33c.973.812.797 3.173-.52 3.779h-6.81v17.889M435.23 218.728a3.557 3.557 0 0 1-1.826-.49c-.576-.314-1.029-.767-1.381-1.343a3.655 3.655 0 0 1-.513-1.893c0-.666.168-1.287.498-1.863a3.603 3.603 0 0 1 1.373-1.366 3.684 3.684 0 0 1 3.704 0c.584.329 1.036.79 1.366 1.366.337.576.513 1.197.513 1.863a3.726 3.726 0 0 1-1.893 3.236 3.608 3.608 0 0 1-1.841.49m0-.568c.554 0 1.074-.131 1.557-.408.49-.269.883-.651 1.175-1.149.284-.483.43-1.021.43-1.594s-.146-1.096-.415-1.587a3.048 3.048 0 0 0-1.164-1.156c-.505-.284-1.029-.423-1.587-.423a3 3 0 0 0-1.557.423 2.87 2.87 0 0 0-1.175 1.156c-.269.49-.415 1.014-.415 1.587s.146 1.111.423 1.594c.307.498.688.876 1.175 1.149a3.11 3.11 0 0 0 1.553.408zm-.692-.936h-.73v-4.509h1.456c.344 0 .621.052.804.161.176.101.314.247.423.438.094.198.153.408.153.629 0 .269-.075.52-.213.752a1.466 1.466 0 0 1-.659.554c.146.094.314.314.505.651l.703 1.325h-.819l-.584-1.111-.138-.284c-.176-.299-.292-.445-.374-.445h-.528v1.839h.001zm0-2.398h.49c.329 0 .546-.086.681-.262a.995.995 0 0 0 .191-.584.81.81 0 0 0-.075-.352.684.684 0 0 0-.236-.254c-.101-.075-.277-.101-.528-.101h-.528v1.553h.005z"/></svg>