<svg xmlns="http://www.w3.org/2000/svg" viewBox="0 0 473.94 473.94" style="enable-background:new 0 0 473.94 473.94" xml:space="preserve"><circle style="fill:#f3f2f2" cx="236.97" cy="236.97" r="236.97"/><path style="fill:#e0effa" d="M140.114 204.203c0-51.752 41.941-93.716 93.716-93.716 51.752 0 93.709 41.964 93.709 93.716 0 51.76-41.956 93.716-93.709 93.716-51.775 0-93.716-41.956-93.716-93.716z"/><circle style="fill:#65b1e2" cx="233.82" cy="204.2" r="73.16"/><path style="fill:#fff" d="M334.614 100.395c1.089 20.138 8.093 34.361 16.916 46.768-56.25 19.723-96.305 55.172-118.008 109.439-10.174-19.959-19.547-41.418-47.064-48.673 11.049-8.527 16.598-13.111 20.561-28.729 13.122 9.44 18.413 18.409 23.521 35.854 24.528-50.106 60.457-83.64 104.074-114.659z"/><path style="fill:#005595" d="M325.054 102.569c.995 18.353 7.368 31.307 15.412 42.619-51.251 17.975-88.145 50.308-107.912 99.752-12.329-18.81-23.442-38.832-53.503-39.895 10.058-7.772 20.872-14.802 24.479-29.025 11.962 8.602 21.642 19.476 26.301 35.363 22.352-45.653 55.478-80.545 95.223-108.814z"/><path style="fill:#65b1e2" d="M131.676 368.754c-5.721 0-9.478-.43-11.21-.681l-.715-.109V322.03l.696-.123c2.713-.475 8.179-.95 13.388-.95 6.754 0 10.511.722 13.871 2.668 3.667 1.949 5.789 5.482 5.789 9.661 0 4.078-2.223 7.484-6.166 9.575 4.816 1.949 7.719 6.125 7.719 11.27 0 4.108-1.732 7.682-5.021 10.335-3.623 2.885-9.632 4.288-18.351 4.288zm-.093-9.339c.827.067 1.841.067 3.121.067 2.376 0 7.899-.561 7.899-5.751 0-4.763-5.238-5.482-8.367-5.482h-2.653v11.166zm2.514-20.172c4.73 0 7.431-1.725 7.431-4.745 0-3.641-3.487-4.4-6.417-4.4-1.433 0-2.593.052-3.528.161v8.98h2.514v.004z"/><path style="fill:#fff" d="M133.832 321.799c6.256 0 10.077.599 13.44 2.552 3.166 1.688 5.384 4.778 5.384 8.939 0 3.97-2.361 7.667-7.461 9.616v.131c5.182 1.351 9.003 5.313 9.003 11.094 0 4.172-1.878 7.397-4.707 9.676-3.289 2.63-8.808 4.108-17.818 4.108-5.036 0-8.801-.337-11.087-.674V322.74c2.694-.473 8.074-.941 13.246-.941m-3.091 18.286h3.353c5.452 0 8.273-2.223 8.273-5.583 0-3.427-2.623-5.238-7.255-5.238-2.286 0-3.566.131-4.37.262l-.001 10.559m3.962 20.235c4.64 0 8.741-1.818 8.741-6.593 0-4.501-4.101-6.32-9.208-6.32h-3.495v12.774c1.01.139 2.215.139 3.962.139m-.871-40.201c-5.261 0-10.787.483-13.534.965l-1.388.239v47.375l1.433.213c1.755.247 5.553.688 11.334.688 9.048 0 15.042-1.418 18.862-4.464 3.502-2.829 5.343-6.627 5.343-10.997 0-4.962-2.514-9.07-6.769-11.356 3.36-2.264 5.22-5.583 5.22-9.485 0-4.486-2.271-8.281-6.241-10.406-3.488-2.028-7.353-2.772-14.26-2.772zm-1.411 10.911c.76-.06 1.65-.086 2.69-.086 5.575 0 5.575 2.683 5.575 3.558 0 3.397-4.131 3.903-6.593 3.903h-1.673v-7.375h.001zm0 18.058h1.811c2.814 0 7.536.606 7.536 4.64 0 4.269-4.43 4.905-7.068 4.905-.883 0-1.639 0-2.279-.015v-9.53z"/><path style="fill:#65b1e2" d="M159.54 318.87h11.899v49.4H159.54z"/><path style="fill:#fff" d="M170.609 319.707v47.737h-10.222v-47.737h10.222m1.68-1.672H158.707v51.09H172.289v-51.09z"/><path style="fill:#65b1e2" d="M189.827 369.024c-4.632 0-12.4-1.972-12.4-15.158v-20.142h11.899v18.518c0 6.825 3.267 6.825 4.34 6.825 2.354 0 3.802-1.624 4.318-3.02.236-.543.352-1.171.352-1.923V333.72h11.899v23.158c0 4.445.138 7.951.269 10.518l.037.876H200.03l-.359-3.502c-1.672 1.893-4.778 4.254-9.844 4.254z"/><path style="fill:#fff" d="M209.393 334.573v22.312c0 4.303.138 7.798.269 10.559h-8.872l-.475-4.64h-.198c-1.28 2.017-4.37 5.381-10.29 5.381-6.716 0-11.562-4.172-11.562-14.316v-19.292h10.215v17.672c0 4.778 1.549 7.667 5.182 7.667 2.821 0 4.501-1.946 5.107-3.558.269-.606.4-1.343.4-2.223v-19.558h10.222m1.682-1.691h-13.575v21.246c0 .636-.086 1.156-.262 1.542l-.015.045-.022.045c-.153.408-1.051 2.47-3.528 2.47-.958 0-3.502 0-3.502-5.987v-19.36h-13.575V353.868c0 10.166 4.831 15.989 13.242 15.989 4.284 0 7.252-1.587 9.194-3.252l.094 1.01.153 1.512h12.153l-.079-1.77a209.91 209.91 0 0 1-.269-10.473V332.888h-.009v-.002z"/><path style="fill:#65b1e2" d="M232.786 368.949c-11.51 0-18.38-6.571-18.38-17.575 0-8.857 5.452-18.387 17.444-18.387 11.424 0 15.495 8.909 15.495 17.238 0 1.673-.183 3.259-.359 4.187l-.116.688h-20.909c.812 3.36 4.868 4.576 8.31 4.576 3.319 0 6.028-.423 8.801-1.366l.913-.314 1.658 8.542-.629.262c-3.401 1.434-7.513 2.149-12.228 2.149zm3.353-22.514c-.183-1.71-1.036-4.977-4.905-4.977-3.353 0-4.853 2.806-5.328 4.977h10.233z"/><path style="fill:#fff" d="M231.851 333.829c10.619 0 14.653 8.273 14.653 16.4 0 1.755-.206 3.296-.337 4.034h-21.178c.269 4.239 4.501 6.256 9.28 6.256 3.495 0 6.316-.475 9.078-1.411l1.343 6.922c-3.36 1.418-7.469 2.092-11.906 2.092-11.158 0-17.545-6.455-17.545-16.744-.002-8.341 5.181-17.549 16.612-17.549m-6.93 13.444h12.093c0-2.485-1.074-6.657-5.781-6.657-4.295 0-6.043 3.97-6.312 6.657m6.93-15.128c-5.759 0-10.552 2.163-13.893 6.271-2.799 3.427-4.393 8.157-4.393 12.958 0 11.356 7.368 18.417 19.221 18.417 4.823 0 9.055-.745 12.55-2.215l1.265-.528-.262-1.343-1.343-6.922-.367-1.893-1.826.621c-2.675.913-5.306 1.325-8.527 1.325-2.836 0-5.882-.789-7.083-2.885h20.381l.247-1.381c.176-.973.359-2.615.359-4.34 0-4.763-1.31-9.122-3.682-12.262-2.885-3.81-7.263-5.823-12.647-5.823zm-4.808 13.448c.546-1.478 1.717-3.289 4.195-3.289 2.623 0 3.588 1.74 3.933 3.289h-8.128z"/><path style="fill:#005595" d="M252.43 368.279v-46.256l.696-.116c3.719-.629 8.426-.95 13.994-.95 6.462 0 11.158 1.242 14.376 3.817 3.274 2.529 5.152 6.593 5.152 11.139 0 4.756-1.579 8.793-4.449 11.386-3.528 3.259-8.812 4.984-15.281 4.984-1.051 0-1.923-.037-2.653-.123v16.123H252.43v-.004zm11.832-25.676c.644.094 1.441.131 2.586.131 4.984 0 7.966-2.425 7.966-6.481 0-3.757-2.574-5.818-7.229-5.818-1.688 0-2.728.094-3.326.183v11.985h.003z"/><path style="fill:#fff" d="M267.121 321.799c6.316 0 10.825 1.205 13.848 3.626 2.952 2.286 4.838 6.05 4.838 10.488s-1.411 8.273-4.172 10.758c-3.495 3.229-8.666 4.771-14.72 4.771-1.343 0-2.552-.067-3.495-.262v16.269h-10.144v-44.707c3.151-.543 7.588-.943 13.845-.943m-.274 21.777c5.444 0 8.801-2.754 8.801-7.323 0-4.172-2.885-6.657-8.06-6.657-2.017 0-3.427.131-4.165.337v13.373c.869.206 1.875.27 3.424.27m.274-23.457c-5.62 0-10.368.322-14.133.965l-1.396.236V369.129h13.512V353.08c.543.03 1.141.045 1.811.045 6.679 0 12.161-1.804 15.858-5.22 3.035-2.732 4.715-7.001 4.715-11.992 0-4.801-2.002-9.107-5.489-11.809-3.361-2.687-8.229-3.985-14.878-3.985zm-2.021 11.244c.576-.052 1.381-.086 2.485-.086 2.915 0 6.387.861 6.387 4.977 0 5.093-4.984 5.643-7.124 5.643-.703 0-1.272-.015-1.747-.045l-.001-10.489z"/><path style="fill:#005595" d="M298.783 369.024c-7.446 0-11.465-5.635-11.465-10.926 0-8.333 7.008-13.19 19.278-13.403-.213-2.017-1.938-3.035-5.13-3.035-3.353 0-6.746 1.182-8.625 2.354l-.947.595-2.376-8.296.584-.329c1.287-.715 6.035-3.061 13.175-3.061 9.968 0 15.229 5.22 15.229 15.091v11.495c0 3.543.183 6.226.52 7.745l.228 1.022h-10.956l-.468-2.529c-2.27 2.12-5.428 3.277-9.047 3.277zm8.165-16.262c-5.22.138-7.865 1.594-7.865 4.325 0 2.754 2.23 3.053 3.195 3.053 2.017 0 3.918-1.336 4.509-3.18.101-.4.161-.943.161-1.489v-2.709z"/><path style="fill:#fff" d="M303.281 333.761c10.963 0 14.391 6.455 14.391 14.252v11.495c0 3.091.138 6.118.535 7.936h-9.212l-.606-3.296h-.198c-2.148 2.623-5.512 4.034-9.407 4.034-6.657 0-10.627-4.846-10.627-10.084 0-8.535 7.667-12.569 19.293-12.569v-.408c0-1.811-.943-4.296-5.987-4.296-3.36 0-6.922 1.141-9.078 2.485l-1.878-6.586c2.293-1.283 6.795-2.963 12.774-2.963m-1.003 27.229c2.485 0 4.64-1.688 5.306-3.772a7.166 7.166 0 0 0 .206-1.747v-3.558c-5.381 0-9.545 1.28-9.545 5.175-.001 2.626 1.747 3.902 4.033 3.902m1.003-28.909c-7.139 0-11.884 2.223-13.586 3.173l-1.164.651.367 1.28 1.878 6.593.614 2.14 1.893-1.182c1.785-1.111 4.999-2.23 8.187-2.23 2.578 0 3.611.681 4.026 1.381-12.116.49-19.016 5.613-19.016 14.215 0 5.706 4.311 11.76 12.307 11.76 3.267 0 6.189-.883 8.486-2.552l.079.438.247 1.381h12.703l-.453-2.047c-.322-1.47-.498-4.086-.498-7.57v-11.495c.001-10.278-5.702-15.936-16.07-15.936zm-1.003 27.222c-2.354 0-2.354-1.665-2.354-2.215 0-2.054 2.077-3.214 6.181-3.45v1.833c0 .453-.052.898-.138 1.287-.493 1.456-2.072 2.545-3.689 2.545z"/><path style="fill:#005595" d="m323.094 373.05.861-.183c1.28-.269 2.806-.868 4.195-1.658 1.433-.745 3.076-2.339 3.925-3.787.314-.513.423-.883.423-1.059 0-.277-.045-.644-.344-1.358l-12.569-31.281h13.227l5.093 16.801c.269.958.599 2.125.905 3.289.247-1.134.528-2.279.767-3.311l4.262-16.778h12.729l-8.052 22.772c-5.021 13.972-8.236 18.746-11.794 21.923-4.056 3.588-8.187 4.486-10.29 4.715l-.722.075-2.616-10.16z"/><path style="fill:#fff" d="m355.392 334.573-7.674 21.639c-4.7 13.111-7.865 18.286-11.562 21.582-3.495 3.091-7.263 4.232-9.815 4.501l-2.215-8.602c1.28-.269 2.885-.868 4.438-1.747 1.542-.812 3.296-2.492 4.232-4.108.337-.535.543-1.066.543-1.478 0-.4-.075-.868-.408-1.68l-12.093-30.11h11.356l4.913 16.194c.535 1.886 1.205 4.37 1.609 6.118h.269c.4-1.811.943-4.232 1.411-6.181l4.108-16.131h10.889m2.368-1.684h-14.582l-.322 1.272-4.093 16.131a.289.289 0 0 0-.022.101c-.015-.022-.022-.052-.03-.079l-4.917-16.224-.359-1.197h-15.087l.921 2.309 12.101 30.117c.269.636.284.891.284 1.029-.015.075-.079.292-.284.614l-.015.015-.015.03c-.775 1.328-2.271 2.784-3.558 3.457l-.022.007-.022.022c-1.317.737-2.761 1.317-3.955 1.564l-1.725.359.438 1.703 2.215 8.61.367 1.396 1.441-.146c2.2-.236 6.526-1.175 10.75-4.917 4.325-3.85 7.585-9.889 12.045-22.267l7.659-21.654.787-2.252z"/></svg>