<svg xmlns="http://www.w3.org/2000/svg" viewBox="0 0 473.94 473.94" style="enable-background:new 0 0 473.94 473.94" xml:space="preserve"><circle style="fill:#f3f2f2" cx="236.97" cy="236.97" r="236.97"/><path style="fill:#0683c2" d="m318.921 357.297 5.879-.142 5.758-.457 5.706-.707 5.613-1.018 5.504-1.249 5.422-1.535 5.276-1.814 5.167-2.013 5.052-2.302 4.901-2.492 4.767-2.757 4.625-2.979 4.487-3.143 4.284-3.409 4.142-3.573 3.94-3.775 3.772-3.94 3.581-4.146 3.397-4.311 3.177-4.456 2.952-4.625 2.758-4.767 2.492-4.909 2.301-5.044 2.009-5.167 1.823-5.306 1.526-5.388 1.25-5.535 1.029-5.586.703-5.71.453-5.781.146-5.874-.146-5.815-.453-5.762-.703-5.677-1.029-5.552-1.25-5.512-1.526-5.358-1.823-5.276-2.009-5.138-2.301-5.021-2.492-4.909-2.758-4.737-2.952-4.625-3.177-4.457-3.397-4.284-3.581-4.116-3.772-3.94-3.94-3.772-4.142-3.577-4.284-3.379-4.487-3.146-4.625-2.949-4.767-2.754-4.901-2.525-5.052-2.268-5.167-2.047-5.276-1.785-5.422-1.534-5.504-1.249-5.613-1.014-5.706-.715-5.758-.457-5.879-.138-5.867.138-5.788.457-5.68.715-5.613 1.014-5.5 1.249-5.422 1.534-5.28 1.785-5.159 2.047-5.048 2.268-4.883 2.525-4.763 2.754-4.629 2.949-4.456 3.146-4.285 3.379-4.142 3.577-3.94 3.772-3.749 3.94-3.574 4.116-3.375 4.284-3.18 4.457-2.945 4.625-2.724 4.737-2.529 4.909-2.268 5.021-2.017 5.138-1.781 5.276-1.534 5.358-1.279 5.512-.996 5.552-.707 5.677-.453 5.762-.138 5.815.138 5.874.453 5.781.707 5.71.996 5.586 1.279 5.535 1.534 5.388 1.781 5.306 2.017 5.167 2.268 5.044 2.529 4.909 2.724 4.767 2.945 4.625 3.18 4.456 3.375 4.311 3.574 4.146 3.749 3.94 3.94 3.775 4.142 3.573 4.285 3.409 4.456 3.143 4.629 2.979 4.763 2.757 4.883 2.492 5.048 2.302 5.159 2.013 5.28 1.814 5.422 1.535 5.5 1.249 5.613 1.018 5.68.707 5.788.457z"/><path style="fill:#305499" d="m168.076 357.297 5.875-.142 5.788-.457 5.673-.707 5.62-1.018 5.5-1.249 5.418-1.535 5.276-1.814 5.168-2.013 5.047-2.302 4.883-2.492 4.763-2.757 4.629-2.979 4.449-3.143 4.284-3.409 4.142-3.573 3.948-3.775 3.742-3.94 3.573-4.146 3.375-4.311 3.181-4.456 2.952-4.625 2.724-4.767 2.529-4.909 2.268-5.044 2.009-5.167 1.789-5.306 1.534-5.388 1.272-5.535.995-5.586.708-5.71.452-5.781.146-5.874-.146-5.815-.452-5.762-.708-5.677-.995-5.552-1.272-5.512-1.534-5.358-1.789-5.276-2.009-5.138-2.268-5.021-2.529-4.909-2.724-4.737-2.952-4.625-3.181-4.457-3.375-4.284-3.573-4.116-3.742-3.94-3.948-3.772-4.142-3.577-4.284-3.379-4.449-3.146-4.629-2.949-4.763-2.754-4.883-2.525-5.047-2.268-5.168-2.047-5.276-1.785-5.418-1.534-5.5-1.249-5.62-1.014-5.673-.715-5.788-.457-5.875-.138-5.878.138-5.759.457-5.698.715-5.621 1.014-5.504 1.249-5.414 1.534-5.276 1.785-5.197 2.047-5.022 2.268-4.931 2.525-4.771 2.754-4.621 2.949-4.457 3.146-4.31 3.379-4.116 3.577-3.97 3.772-3.775 3.94-3.574 4.116-3.379 4.284-3.176 4.457-2.983 4.625-2.72 4.737-2.529 4.909-2.264 5.021-2.047 5.138-1.785 5.276-1.56 5.358-1.25 5.512-1.017 5.552-.708 5.677-.46 5.762-.142 5.815.142 5.874.46 5.781.708 5.71 1.017 5.586 1.25 5.535 1.56 5.388 1.785 5.306 2.047 5.167 2.264 5.044 2.529 4.909 2.72 4.767 2.983 4.625 3.176 4.456 3.379 4.311 3.574 4.146 3.775 3.94 3.97 3.775 4.116 3.573 4.31 3.409 4.457 3.143 4.621 2.979 4.771 2.757 4.931 2.492 5.022 2.302 5.197 2.013 5.276 1.814 5.414 1.535 5.504 1.249 5.621 1.018 5.698.707 5.759.457z"/><path style="fill:#0683c2" d="M229.471 173.195h57.675v-6.354h-52.085zM220.423 186.669h66.723v-6.354h-62.667zM213.692 200.315h73.454v-6.353h-70.382zM209.273 213.797h77.873v-6.358H211.2zM206.377 227.275h80.769v-6.361H207.54zM205.217 240.719h81.929v-6.358H205.61zM205.808 254.167h81.338v-6.358h-81.929zM207.735 267.644h79.411v-6.357h-80.571zM211.567 281.089h75.579v-6.324h-77.51zM217.355 294.566h69.791v-6.353h-72.882zM225.415 308.242h61.731v-6.551h-65.963zM236.393 321.69h50.753v-6.323h-56.347z"/><path style="fill:#fff" d="m405.004 275.528.03-.138.139-.543.176-.509.254-.452.277-.453.314-.427.374-.37.397-.341.423-.31.453-.258.482-.225.513-.168.539-.116.561-.086.573-.03.538.03.513.086.513.116.482.168.483.225.453.258.393.31.396.341.341.37.344.427.258.453.255.452.168.509.138.543.03.138h-.995l-.254-.793-.423-.733-.565-.655-.659-.535-.737-.404-.819-.251-.853-.09-.453.034-.453.056-.453.112-.426.139-.401.172-.366.232-.371.25-.307.285-.314.31-.288.345-.225.366-.198.367-.146.427-.108.366z"/><path style="fill:#fff" d="M408.379 275.528v-1.526h2.332l.449.026.4.082.337.116.254.169.206.228.138.254.086.311.023.34h-.79l.03-.198-.03-.195-.116-.142-.138-.086-.168-.086-.206-.026-.225-.03H409.345v.763zM404.918 276.381l.027-.452.059-.401H406l-.03.06-.06.453-.03.34z"/><path style="fill:#fff" d="M408.379 276.381v-.853h.966v.767h1.309l.307-.052.255-.06.228-.086.168-.116.116-.168.086-.225v-.06h.79l-.023.255-.086.258-.116.202-.108.138zM414.935 276.381l-.086-.793-.03-.06h.995l.056.401.03.452zM404.918 276.381v.113l.027.598.089.565.139.569.176.509.254.483.277.482.314.397.374.397.397.34.423.314.453.285.482.228.513.168.539.113.561.082.573.03.538-.03.513-.082.513-.113.482-.168.483-.228.453-.285.393-.314.396-.34.341-.397.344-.397.258-.482.255-.483.168-.509.138-.569.086-.565.03-.598v-.113h-.965v.113l-.086.965-.284.883-.423.79-.565.684-.659.535-.737.401-.819.258-.853.079-.453-.027-.453-.052-.453-.116-.426-.142-.401-.172-.366-.229-.371-.254-.307-.281-.314-.34-.288-.344-.225-.367-.198-.423-.146-.43-.138-.453-.06-.483-.03-.482v-.113z"/><path style="fill:#fff" d="M408.379 276.381v2.414h.966v-1.931h.965l1.164 1.931h.962l-1.16-1.931.284-.086.254-.112.229-.113.198-.145.03-.027z"/><path style="fill:#fff" d="m410.509 282.458-.591-.03-1.167-.206-.55-.18-.531-.243-.947-.64-.415-.359-.737-.849-.572-1.025-.202-.569-.15-.602-.094-.599-.034-.64.03-.606.09-.58.333-1.119.569-.988.337-.453.827-.778.449-.329 1.003-.52.558-.187 1.171-.217.606-.034.584.03 1.093.21.524.18 1.003.513.857.696.737.849.546.962.348 1.149.094.572.034.61-.03.64-.09.61-.322 1.141-.543 1.025-.737.868-.842.703-.49.311-.528.251-.524.183-1.089.213-.608.037zm-.023-10.952-.528.03-1.04.191-.471.157-.861.453-.752.606-.352.352-.535.801-.247.442-.273.954-.079.501-.026.524.03.558.217 1.059.165.475.501.894.632.718.767.606.427.269.438.202.464.15 1.036.18.513.026.52-.03.958-.187.438-.157.442-.21.408-.262.741-.621.647-.752.46-.887.269-.984.079-.535.026-.558-.03-.528-.217-.999-.161-.486-.479-.834-.632-.722-.741-.606-.857-.434-.442-.153-.958-.183-.497-.02z"/><path style="fill:#fff" d="M413.15 279.199h-1.905l-1.164-1.931h-.337v1.931h-1.77v-5.601l3.199.026.464.094.385.131.423.277.206.228.195.333.12.393.037.423-.022.314-.109.352-.4.565-.599.344 1.277 2.121zm-1.452-.805h.026l-1.059-1.762 1.295-.513.191-.281.056-.344-.022-.281-.18-.4-.101-.101-.225-.15-.602-.146-.385-.015h-1.908v3.989h.161v-1.931h1.594l1.159 1.935z"/><path style="fill:#fff" d="M410.692 276.699h-1.747v-2.335l2.634.101.43.273.187.228.056.359-.06.408-.086.228-.262.355-.258.161-.531.157-.363.065zm-.943-.804 1.145-.049.43-.153.097-.18.019-.172-.007-.037-.161-.09-.363-.049-1.164.004v.726h.004z"/><path style="fill:#fff" d="m410.516 281.493-.958-.082-.962-.277-.43-.183-.808-.52-.692-.681-.299-.359-.258-.412-.221-.468-.303-.935-.105-1.059.09-.98.303-.932.46-.816.318-.389.659-.632.797-.528.917-.352.479-.123.977-.097.924.09.894.269.816.434.718.576.61.703.468.797.318.924.109.995-.086 1.04-.303.973-.453.857-.606.748-.711.595-.804.441-.887.288-.971.095zm-.049-9.026-.819.086-.801.236-.37.157-.67.445-.565.55-.254.314-.382.666-.254.786-.071.804.082.891.266.804.389.707.834.879.681.438.741.273.427.109.797.067.827-.079.733-.243.67-.37.591-.494.509-.625.382-.722.254-.819.071-.876-.086-.831-.262-.763-.389-.662-.52-.591-.61-.486-.677-.363-.741-.221-.783-.067zM401.461 227.836l-.913-.056-.842-.083-.804-.089-.79-.109-.767-.116-.797-.138-.816-.116-.857-.143-.905-.112-.995-.082-1.104-.06-1.19-.06h-2.754l-1.616.09-1.793.112-1.268.198-1.224.255-1.081.37-.992.423-.879.483-.767.542-.647.622-.513.654-.404.681-.255.737-.108.764v.793l.168.797.341.823.456.85.648.823.602.625.677.542.711.509.793.457.85.422.875.393.943.345.966.37.988.34 1.021.315 1.025.333 1.022.344 1.025.367 1.044.4.995.427 1.022.452.965.509.936.569.905.595.876.707.797.741.767.853.711.936.621 1.021.539 1.104.482 1.246.375 1.336.276 1.474.206 1.587.079 1.732-.049 1.875-.15 2.043-.194 1.504-.285 1.418-.336 1.332-.431 1.28-.482 1.219-.535 1.13-.599 1.086-.681 1.014-.707.939-.767.879-.797.823-.85.794-.875.707-.943.655-.936.624-.995.543-1.014.509-1.025.479-1.052.43-1.073.363-1.052.344-1.104.315-1.081.25-1.104.228-1.081.203-1.074.168-1.082.116-1.073.108-1.056.09-1.051.053-.995.026H370.876l-1.25-.026h-1.19l-1.134-.027-1.111-.026-1.014-.03-.995-.03-.966-.059-.913-.053-.849-.026-.823-.06-.79-.086-.767-.06-.711-.078-.707-.09-.658-.083-.651-.086-.622-.116-.598-.108-.591-.116-.573-.112-.569-.116-.531-.139-.543-.146-.542-.138-.539-.172-.535-.143-.509-.168-.542-.198-.539-.176-.573-.195 2.904-14.069.247.083.314.112.344.112.363.116.427.139.46.116.505.138.509.15.573.138.598.142.651.143.648.142.681.142.711.138.737.143.767.142.767.116.797.142.819.112.853.112.85.087.875.082.883.09.88.056.905.056.936.052h.913l.935.03h.936l.935-.03.935-.052.936-.056.935-.116.827-.139.767-.232.681-.28.591-.315.509-.366.483-.397.404-.427.363-.452.288-.483.255-.483.228-.512.194-.483.139-.509.146-.482.12-.483.108-.996-.03-.875-.198-.793-.363-.741-.49-.681-.621-.621-.738-.569-.819-.513-.913-.505-1.018-.46-1.081-.453-1.134-.453-1.16-.452-1.22-.483-1.219-.483-1.25-.512-1.25-.539-1.25-.595-1.223-.651-1.16-.685-1.134-.789-1.081-.827-1.014-.936-.936-1.051-.827-1.134-.737-1.22-.651-1.358-.483-1.504-.374-1.617-.224-1.762-.06-1.927.116-2.069.138-1.28.176-1.25.228-1.19.225-1.163.314-1.108.307-1.077.374-1.022.423-.995.453-.966.483-.905.572-.876.591-.827.651-.797.707-.733.738-.711.827-.681.849-.621.943-.599.991-.535 1.048-.512 1.104-.483 1.167-.427 1.22-.366 1.302-.341 1.388-.31 1.449-.259 1.504-.224 1.594-.198 1.642-.146 1.733-.083 1.811-.056 1.901-.03H387.837l1.082.03 1.055.026.984.03.935.027.913.026.85.03.827.06.767.056.729.03.689.052.647.056.621.06.573.086.568.052.513.06.505.056.453.057.43.086.423.056.397.06.37.052.344.086.307.056.315.056.314.06.277.053.258.029.254.06.255.056.228.027z"/><path style="fill:#fff" d="m374.561 281.691-10.391-.138-7.873-.685-4.614-1.003-3.603-1.175.071-.344 2.993-14.514 4.138 1.239 4.771.992 5.815.733 2.702.165h3.686l1.86-.109 1.717-.251.715-.221.644-.266.554-.299.928-.718.707-.823.501-.902.404-.958.385-1.418.101-.943-.034-.819-.187-.707-.337-.662-.453-.621-.58-.572-.7-.539-.786-.486-.894-.494-2.062-.894-7.24-2.926-1.261-.599-1.239-.662-1.175-.692-1.16-.804-1.096-.838-1.044-.958-.962-1.081-.853-1.164-.756-1.25-.67-1.396-.505-1.557-.382-1.646-.236-1.8-.064-1.968.116-2.103.318-2.563.457-2.372.629-2.219.385-1.051.887-1.994.494-.924 1.19-1.747.666-.816 1.482-1.482.849-.703.864-.636.965-.614 2.08-1.066 1.119-.49 1.19-.434 1.242-.378 1.317-.344 1.403-.314 2.982-.486 1.601-.198 1.658-.15 3.57-.142 4.266-.03 10.136.483 7.24 1.1-.101.438-3.338 14.574-2.915-.247-4.939-.737-3.255-.198h-2.735l-3.379.202-1.235.195-1.197.251-1.033.355-.969.415-.842.464-.73.516-.602.584-.471.614-.374.636-.224.666-.09.688.004.737.161.715.322.748.434.819.61.76.572.599 1.332 1.003 1.59.846.861.389 2.862 1.04 4.097 1.362 2.062.834 1.029.456.992.524 1.871 1.179.909.733.819.756.793.879.73.962.644 1.051.561 1.141.498 1.28.385 1.369.284 1.508.21 1.609.082 1.766-.052 1.905-.146 2.062-.202 1.53-.288 1.444-.341 1.351-.442 1.31-.49 1.242-.543 1.156-.614 1.104-.7 1.044-.718.958-.786.902-.812.838-.861.808-.898.726-1.908 1.302-2.054 1.074-1.029.486-1.074.438-2.151.718-1.119.318-2.215.486-2.174.374-3.237.314-2.072.075zm-4.935-.831 4.928.026 2.028-.079 3.188-.311 2.125-.363 2.167-.475 2.122-.647 1.07-.363 1.029-.419 2.009-.977.98-.535 1.841-1.257.857-.692.827-.775.782-.808.752-.864.692-.917.67-.995.58-1.055.52-1.108.475-1.197.423-1.257.326-1.302.281-1.399.195-1.482.142-2.021.052-1.856-.079-1.703-.202-1.553-.273-1.452-.367-1.302-.471-1.209-.528-1.074-.602-.988-.688-.902-.745-.831-.771-.711-.857-.692-1.796-1.13-.947-.498-1.983-.864-3.061-1.096-4.95-1.706-1.766-.838-.816-.464-1.444-1.089-.636-.662-.677-.849-.494-.913-.363-.857-.191-.868-.008-.876.112-.819.273-.812.434-.752.543-.7.692-.666.816-.58.913-.505 1.029-.442 1.108-.378 1.268-.269 1.295-.202 3.446-.206h2.776l3.323.202 7.139.939 3.091-13.489-5.201-.838-5.407-.453-8.142-.168-3.701.082-1.725.082-1.628.146-3.076.423-1.437.254-2.657.644-1.205.367-1.149.415-2.11.98-.98.528-.917.584-.827.606-.808.67-1.414 1.411-.629.771-1.137 1.669-.464.876-.861 1.927-.367 1.003-.61 2.159-.445 2.32-.311 2.496-.112 2.047.06 1.893.224 1.721.367 1.575.475 1.474.629 1.31.718 1.186.808 1.104.909 1.022.992.905 1.051.801 1.119.778 1.138.666 1.205.647 2.47 1.119 8.086 3.296.943.52.838.524.771.595.662.655.531.73.4.801.228.872.041.962-.112 1.051-.412 1.538-.441 1.051-.561 1.007-.397.501-.423.453-1.051.816-.636.341-.715.299-.804.243-1.826.269-2.848.142-2.795-.03-5.369-.427-5.489-.913-4.647-1.115-1.298-.423-2.735 13.272 4.49 1.351 4.209.73 3.779.37 8.132.251zM151.538 218.021l-.405-.228-.422-.195-.423-.228-.423-.224-.434-.202-.453-.229-.483-.198-.482-.228-.479-.199-.513-.194-.505-.198-.513-.199-.538-.206-.543-.168-.569-.165-.561-.202-.602-.142-.592-.168-.628-.142-.621-.143-.651-.116-.655-.142-.651-.082-.711-.112-.677-.083-.711-.06-.737-.086-.738-.03-.767-.056H131.901l-.797.027-.82.029-.845.09-.827.086-.876.109-.857.142-.875.168-.887.229-.876.288-.875.307-.917.37-.875.427-.876.452-.857.543-.875.621-.85.651-.823.741-.827.819-.819.91-.797.961-.767 1.085-.738 1.16-.737 1.25-.711 1.332-.681 1.444-.621 1.565-.628 1.646-.562 1.755-.568 1.904-.483 1.98-.483 2.133-.423 2.185-.288 2.185-.116 2.155.03 2.099.228 2.069.371 1.987.572 1.931.73 1.811.943 1.733 1.104 1.59 1.306 1.478 1.5 1.332 1.703 1.164 1.9.991 2.126.823 2.361.595.366.09.453.052.453.086.509.057.572.086.599.052.591.06.651.03.681.06.715.022h2.238l.767-.022.797-.06.789-.09.823-.079.797-.116.82-.138.797-.176.823-.198.789-.198.797-.255.797-.284.76-.311.741-.37.737-.393.707-.43.681-.453.659-.509.621-.539.599-.599-2.897 16.939-.172.139-.198.146-.191.168-.232.169-.258.202-.254.202-.255.194-.31.198-.341.229-.367.194-.4.229-.427.228-.482.228-.539.202-.565.195-.625.198-.651.198-.741.199-.793.172-.85.168-.905.142-.965.116-1.052.109-1.111.116-1.212.056-1.28.06-1.34.022h-2.974l-1.621-.052-1.695-.086-1.822-.116-1.444-.109-1.448-.168-1.448-.284-1.445-.345-1.478-.422-1.448-.483-1.418-.573-1.444-.677-1.388-.711-1.388-.819-1.34-.883-1.302-.992-1.276-1.051-1.224-1.134-1.19-1.194-1.103-1.298-1.082-1.37-.995-1.47-.906-1.531-.853-1.62-.789-1.702-.681-1.789-.599-1.871-.512-1.927-.393-2.046-.315-2.126-.198-2.185-.086-2.297.056-2.358.146-2.465.281-2.53.422-2.638.483-2.638.569-2.548.599-2.473.651-2.35.681-2.305.767-2.181.827-2.1.845-2.013.936-1.927.965-1.848 1.052-1.759 1.073-1.672 1.172-1.59 1.189-1.505 1.273-1.418 1.335-1.332 1.392-1.276 1.445-1.164 1.508-1.081 1.556-1.018 1.643-.913 1.702-.845 1.763-.767 1.811-.711 1.901-.591 1.956-.539 2.047-.457 2.069-.37 2.156-.281 2.245-.232 2.301-.138 2.353-.086h1.022l1.018.056.995.03.992.086.965.082.965.116.936.112.935.113.906.142.913.172.849.142.853.169.85.198.797.168.759.202.767.169.707.198.711.198.685.172.621.199.621.168.573.172.539.172.512.169.453.142.423.142.396.139.371.116.314.082.258.086.225.06.198.052z"/><path style="fill:#fff" d="M124.638 281.945h-2.978l-3.338-.138-3.278-.228-1.467-.168-1.478-.292-1.463-.348-1.493-.427-1.467-.486-1.441-.58-1.471-.688-1.399-.715-1.411-.834-1.355-.891-1.325-1.01-1.291-1.059-1.239-1.152-1.201-1.201-1.126-1.325-1.089-1.377-1.014-1.497-.92-1.553-.861-1.635-.801-1.721-.692-1.815-.606-1.89-.516-1.949-.4-2.073-.318-2.144-.2-2.208-.086-2.316.06-2.38.146-2.481.281-2.548.423-2.657.486-2.649 1.171-5.044 1.332-4.673.775-2.2.834-2.114.853-2.021.943-1.946.969-1.86 1.066-1.777 1.078-1.684 1.182-1.609 1.201-1.519 1.287-1.437 1.351-1.347 1.399-1.291 1.471-1.179 1.523-1.093 1.572-1.029 1.669-.928 1.717-.857 1.781-.778 1.826-.715 1.927-.602 1.972-.546 2.065-.46 2.084-.378 2.178-.284 2.256-.232 2.316-.142 3.401-.086 4.004.258 3.768.486 4.284.857 9.512 2.739-.067.359-3.188 18.264-3.038-1.575-3.48-1.403-4.064-1.115-3.304-.528-2.934-.232-4.722.06-3.353.419-.864.168-.861.221-1.721.587-.894.363-1.717.864-.827.524-1.695 1.253-.804.718-.808.808-.804.891-.786.95-.748 1.059-1.459 2.383-.703 1.317-.67 1.429-1.239 3.18-1.126 3.633-.958 4.086-.419 2.174-.281 2.159-.112 2.125.03 2.073.225 2.028.37 1.957.561 1.89.715 1.777.924 1.691 1.078 1.553 1.28 1.441 1.467 1.302 1.661 1.13 1.86.969 2.088.804 2.675.666 4.445.471 2.919.022 1.534-.082 3.195-.419 2.38-.565 1.557-.528.741-.307 1.441-.745 1.355-.861 1.239-1.018 1.474-1.474-3.136 18.338-2.361 1.762-1.725.909-2.436.816-1.568.378-1.777.314-3.147.344-3.857.149zm8.864-85.454h-1.003l-2.339.086-2.29.138-2.23.228-2.144.281-2.047.37-2.032.449-1.942.535-1.886.587-1.789.7-1.747.763-1.684.838-1.631.902-1.53 1.003-1.489 1.074-1.429 1.149-1.366 1.261-1.325 1.321-1.257 1.403-1.175 1.485-1.16 1.575-1.059 1.654-1.048 1.747-.95 1.83-.932 1.916-.842 1.994-.823 2.095-.76 2.163-1.325 4.629-1.167 4.999-.479 2.623-.419 2.63-.277 2.507-.142 2.447-.06 2.342.086 2.271.198 2.163.311 2.107.389 2.028.505 1.905.595 1.852.674 1.766.778 1.676.846 1.601.898 1.515.98 1.452 1.063 1.34 1.096 1.291 1.171 1.167 1.209 1.126 1.261 1.033 1.291.984 1.317.864 1.369.812 1.366.696 1.437.674 1.396.561 1.426.471 1.459.419 1.429.341 1.433.281 1.418.161 4.932.311 1.62.056 4.288-.026 2.481-.112 3.989-.479 2.342-.531 2.346-.778 1.624-.857 2.036-1.508 2.66-15.588-1.025.834-1.429.909-1.504.778-1.601.614-.808.262-2.447.58-1.643.262-2.44.232-3.035.026-3.274-.228-2.413-.378-2.365-.599-2.174-.838-1.942-1.014-1.744-1.186-1.538-1.366-1.34-1.508-1.134-1.628-.969-1.77-.748-1.856-.584-1.964-.382-2.028-.228-2.107-.034-2.14.116-2.181.288-2.215.427-2.211.969-4.131 1.141-3.689 1.261-3.233.688-1.471.718-1.347 1.489-2.436.778-1.096.816-.988.831-.92.842-.838.846-.752 1.759-1.306.872-.55 1.792-.902 1.833-.696.883-.292.909-.236 1.766-.318 2.574-.288 4.804-.06 3.678.314 3.959.745 2.896.857 3.547 1.433 2.107 1.051 2.93-16.789-11.251-3.072-5.474-.79-1.946-.168-1.988-.081zM171.736 280.92l10.978-66.162h-20.793l-10.952 66.162z"/><path style="fill:#fff" d="M172.076 281.324h-21.582l.079-.468 11.012-66.499h21.605l-.079.468-11.035 66.499zm-20.636-.804h19.955l10.84-65.361h-19.977L151.44 280.52zM184.809 280.92H205.984l7.708-40.201.46-1.108.535-1.018.569-.939.621-.823.689-.797.707-.677.737-.621.763-.543.767-.513.767-.422.797-.371.79-.337.767-.284.737-.228.737-.199.711-.175.314-.049h.797l.479.049.483.059.483.087.512.086.476.112.482.112.46.116.393.082.367.113.284.089.229.057.146.026.048.03 5.594-19.237-.995-.026-.936-.03h-.965l-.905.03-.906.026-.887.086-.845.086-.827.113-.82.142-.823.142-.767.198-.76.199-.74.228-.738.224-.707.285-.711.284-.658.315-.678.31-.621.367-.658.366-.591.405-.599.392-.595.453-.569.457-.535.479-.539.482-.542.513-.509.569-.483.539-.482.594-.483.599-.453.621.767-8.849h-18.271z"/><path style="fill:#fff" d="M206.317 281.324h-21.983l.082-.471 11.809-67.262h19.046l-.688 7.906 1.594-1.845 1.643-1.504 1.186-.932 1.209-.808 1.302-.748 2.81-1.22 3.053-.864 2.518-.404 1.744-.176 2.818-.056 2.462.067-5.878 20.232-.524-.266-3.674-.849-.935-.105-1.003.049-2.133.587-1.515.61-.782.367-.745.412-1.485 1.025-.711.602-.692.662-.662.771-.602.801-.546.905-.52.999-.445 1.066-7.753 40.449zm-21.029-.804h20.359l7.648-39.876.483-1.186.546-1.051.584-.962.644-.857.703-.816.733-.707.756-.636 1.564-1.081.797-.442 1.624-.726 1.553-.528 1.811-.438.861-.004 2.024.288 2.544.644 5.336-18.357-2.361-.041-1.8.056-2.518.281-1.628.284-2.956.838-2.705 1.171-2.417 1.5-1.134.887-1.59 1.452-1.923 2.26-1.295 1.774.857-9.852h-17.496l-11.604 66.125zM340.459 281.089h-20.396l1.526-9.785-.482.539-.483.538-.453.539-.453.513-.482.509-.453.482-.483.453-.452.453-.483.453-.509.43-.513.427-.535.366-.538.397-.573.37-.591.341-.629.31-.651.311-.707.314-.711.255-.767.254-.797.258-.846.199-.905.198-.943.198-.988.142-1.051.143-1.104.108-1.141.116-1.25.06-1.272.056-1.366.053h-1.418l-.992-.027-.995-.112-.988-.172-.935-.225-.943-.28-.936-.344-.875-.423-.876-.483-.857-.513-.819-.598-.797-.651-.737-.681-.737-.767-.711-.794-.648-.849-.628-.906-.565-.969-.569-.991-.483-1.052-.482-1.074-.393-1.133-.375-1.194-.344-1.223-.247-1.246-.228-1.306-.176-1.332-.108-1.366-.056-1.418v-1.445l.056-1.478.138-1.5.168-1.53 6.163-38.443h20.397l-5.396 34.012-.225 1.647-.082 1.504.03 1.418.176 1.306.247 1.164.344 1.077.453.966.535.849.599.767.681.621.707.543.797.453.819.34.853.228.88.139.883.06 1.103-.03 1.164-.143 1.19-.198 1.19-.31 1.22-.401 1.193-.483 1.19-.621 1.141-.707 1.104-.857 1.022-.961.965-1.108.85-1.22.767-1.388.628-1.534.502-1.673.374-1.814 5.19-33.452h20.396z"/><path style="fill:#fff" d="M340.807 281.493h-21.216l1.392-8.905-1.908 2.114-2.473 2.249-1.684 1.164-1.261.674-1.377.632-2.309.782-2.735.606-2.069.292-2.26.228-3.914.168-2.436-.03-1.025-.112-1.014-.176-.962-.232-.962-.288-.962-.352-.913-.442-1.766-1.01-.849-.621-.816-.662-.756-.696-1.474-1.587-.67-.876-.64-.924-1.152-1.987-.984-2.163-.786-2.372-.348-1.239-.483-2.589-.18-1.351-.112-1.384-.06-1.433v-1.463l.06-1.493.311-3.061 6.215-38.798h21.212l-5.691 36.115-.079 1.47.03 1.388.172 1.265.243 1.13.333 1.04.434.917.509.808.576.733.632.569.685.52.748.423.775.318.808.213.834.131.849.052 1.066-.03 2.297-.333 1.156-.303 1.197-.393 1.167-.471 1.156-.606 1.115-.696 1.07-.831.995-.935.935-1.081.823-1.186.745-1.351.606-1.493.494-1.639.363-1.777 5.238-33.773h21.208l-10.123 67.143zm-53.881-66.525-6.107 38.102-.303 3.005-.06 1.456v1.429l.06 1.403.108 1.347.172 1.313.471 2.526.703 2.376.389 1.123.95 2.092 1.115 1.923 1.25 1.714 1.418 1.527.722.662.778.632.801.587 1.688.965.857.415.898.326.917.273.917.221.962.165.969.105 2.369.026 3.869-.168 4.243-.509 2.664-.587 2.23-.756 1.946-.917 1.123-.688 2.058-1.59 2.32-2.32 2.769-3.128-1.661 10.66h19.577L350 215.147h-19.584l-5.134 33.115-.378 1.83-.516 1.71-.64 1.568-.79 1.429-.868 1.257-.992 1.141-1.051.988-1.134.879-1.171.733-1.216.636-1.227.498-1.246.412-1.212.318-2.41.352-1.141.03-.92-.06-.913-.146-.898-.236-.864-.359-.842-.475-.756-.569-.703-.644-.647-.801-.554-.883-.479-1.007-.363-1.126-.258-1.201-.18-1.34-.034-1.463.079-1.534.232-1.68 5.321-33.556h-19.584v.005h-.001zM230.436 280.92h20.741l7.884-40.201.482-1.108.513-1.018.599-.939.621-.823.681-.797.707-.677.737-.621.741-.543.797-.513.767-.422.79-.371.793-.337.767-.284.741-.228.737-.199.707-.175.314-.049h.79l.483.049.482.059.483.087.513.086.482.112.483.112.453.116.393.082.374.113.284.089.228.057.139.026.056.03 5.59-19.237-.991-.026-.936-.03h-.965l-.906.03-.913.026-.879.086-.853.086-.849.113-.827.142-.786.142-.771.198-.767.199-.767.228-.707.224-.737.285-.681.284-.681.315-.651.31-.655.367-.621.366-.622.405-.598.392-.573.453-.561.457-.572.479-.539.482-.513.513-.505.569-.479.539-.49.594-.475.599-.453.621.759-8.849h-18.072z"/><path style="fill:#fff" d="M251.51 281.324h-21.553l.082-.471 11.772-67.262h18.847l-.681 7.899 1.587-1.837 1.085-1.025 1.721-1.403 1.886-1.194 1.34-.696 1.373-.606 1.482-.52 2.327-.629 2.511-.404 1.744-.176 2.825-.056 2.462.067-5.871 20.202-.535-.239-3.678-.849-.935-.105-.995.049-2.133.587-1.523.61-.775.367-.745.412-.775.49-.715.528-.715.602-.692.662-.651.767-.606.804-.58.913-.494.984-.471 1.089-7.921 40.44zm-20.595-.804h19.929l7.824-39.876.509-1.19.524-1.04.617-.973.64-.849.696-.816.737-.707.756-.636.76-.558.819-.524.79-.438 1.624-.726 1.542-.535 1.811-.438.857-.004 2.024.288 2.552.644 5.336-18.357-2.361-.041-1.807.056-2.541.281-1.594.284-2.96.838-1.384.554-1.317.617-2.447 1.504-2.2 1.833-1.467 1.587-1.392 1.785-.849 1.164.846-9.848h-17.298l-11.576 66.121zM196.562 213.995h18.469-18.469zM196.56 213.58h18.469v.804H196.56zM242.152 213.995h18.271-18.271z"/><path style="fill:#fff" d="M242.15 213.58h18.271v.804H242.15z"/></svg>