<svg xmlns="http://www.w3.org/2000/svg" viewBox="0 0 473.94 473.94" style="enable-background:new 0 0 473.94 473.94" xml:space="preserve"><circle style="fill:#f3f2f2" cx="236.97" cy="236.97" r="236.97"/><path style="fill:#32357f" d="M223.654 183.318H193.11v149.349h30.544zM251.65 183.565v28h25.714v84.258c0 11.622 3.195 20.961 9.332 28.004 6.14 7.282 14.327 10.889 24.643 11.136 10.238.239 19.326-2.047 27.023-6.791l.494-.247v-.494l7.285-28.411-1.8 1.145c-8.187 4.999-15.723 7.454-22.6 7.454-9.497 0-14.327-5.654-14.327-16.786v-79.266h31.203v-28h-31.203V136.89l-30.047 16.135v30.54H251.65zM399.447 183.318H368.66v149.349h30.787zM175.587 206.82l-.655-.49c-14.084-17.115-31.685-25.47-52.812-25.47-22.103 0-40.288 6.795-54.858 20.228-15.476 14.163-23.255 33.238-23.255 57.148 0 23.906 7.779 42.825 23.255 57.148 14.331 13.429 32.756 20.06 54.858 20.06 21.126 0 38.892-8.434 52.812-25.302l.655-.49-17.276-20.879-.655.651c-11.214 11.139-23.255 16.872-36.191 16.872-13.512 0-24.643-4.587-33.489-13.676-8.928-8.924-13.179-20.471-13.179-34.383 0-13.923 4.254-25.545 13.179-34.634 8.846-8.846 19.977-13.433 33.489-13.433 12.935 0 24.976 5.729 36.191 16.868l.655.659 17.276-20.877z"/><path style="fill:#ea2230" d="M208.174 158.76c12.037-12.284 25.467-21.62 40.774-28.254 14.735-6.387 30.462-9.5 46.671-9.5 16.135 0 31.854 3.113 46.918 9.5 14.982 6.63 28.415 15.97 40.452 28.254l.49.404h35.042l-1.313-2.05c-13.919-19.566-31.929-35.042-53.549-46.342-21.613-11.214-44.131-16.707-68.044-16.707-23.659 0-46.507 5.493-68.123 16.707-21.613 11.3-39.626 26.776-53.463 46.342l-1.396 2.05h35.293l.248-.404z"/><path style="fill:#32357f" d="M223.654 183.318H193.11v149.349h30.544zM251.65 183.565v28h25.714v84.258c0 11.622 3.195 20.961 9.332 28.004 6.14 7.282 14.327 10.889 24.643 11.136 10.238.239 19.326-2.047 27.023-6.791l.494-.247v-.494l7.285-28.411-1.8 1.145c-8.187 4.999-15.723 7.454-22.6 7.454-9.497 0-14.327-5.654-14.327-16.786v-79.266h31.203v-28h-31.203V136.89l-30.047 16.135v30.54H251.65zM399.447 183.318H368.66v149.349h30.787zM175.587 206.82l-.655-.49c-14.084-17.115-31.685-25.47-52.812-25.47-22.103 0-40.288 6.795-54.858 20.228-15.476 14.163-23.255 33.238-23.255 57.148 0 23.906 7.779 42.825 23.255 57.148 14.331 13.429 32.756 20.06 54.858 20.06 21.126 0 38.892-8.434 52.812-25.302l.655-.49-17.276-20.879-.655.651c-11.214 11.139-23.255 16.872-36.191 16.872-13.512 0-24.643-4.587-33.489-13.676-8.928-8.924-13.179-20.471-13.179-34.383 0-13.923 4.254-25.545 13.179-34.634 8.846-8.846 19.977-13.433 33.489-13.433 12.935 0 24.976 5.729 36.191 16.868l.655.659 17.276-20.877z"/><path style="fill:#e92f30" d="M208.174 158.76c12.037-12.284 25.467-21.62 40.774-28.254 14.735-6.387 30.462-9.5 46.671-9.5 16.135 0 31.854 3.113 46.918 9.5 14.982 6.63 28.415 15.97 40.452 28.254l.49.404h35.042l-1.313-2.05c-13.919-19.566-31.929-35.042-53.549-46.342-21.613-11.214-44.131-16.707-68.044-16.707-23.659 0-46.507 5.493-68.123 16.707-21.613 11.3-39.626 26.776-53.463 46.342l-1.396 2.05h35.293l.248-.404z"/></svg>