<svg xmlns="http://www.w3.org/2000/svg" viewBox="0 0 473.94 473.94" style="enable-background:new 0 0 473.94 473.94" xml:space="preserve"><circle style="fill:#f3f2f2" cx="236.97" cy="236.97" r="236.97"/><path style="fill:#a23c42" d="M120.41 364.507c-1.961 1.007-6.054 2.021-11.225 2.021-11.974 0-20.924-7.566-20.924-21.56 0-13.358 9.01-22.312 22.185-22.312 5.231 0 8.64 1.134 10.088 1.893l-1.384 4.475c-2.017-1.014-4.98-1.766-8.509-1.766-9.957 0-16.576 6.365-16.576 17.523 0 10.462 5.987 17.081 16.262 17.081 3.394 0 6.806-.696 9.01-1.766l1.073 4.411zM127.28 323.352h5.545v37.882h18.155v4.599h-23.7v-42.481zM162.576 323.352v42.484h-5.545v-42.484h5.545zM201.774 364.507c-1.957 1.007-6.043 2.021-11.222 2.021-11.974 0-20.924-7.566-20.924-21.56 0-13.358 9.018-22.312 22.192-22.312 5.235 0 8.632 1.134 10.08 1.893l-1.384 4.475c-2.017-1.014-4.98-1.766-8.501-1.766-9.964 0-16.587 6.365-16.587 17.523 0 10.462 5.998 17.081 16.265 17.081 3.401 0 6.806-.696 9.01-1.766l1.071 4.411zM208.708 323.352h5.489v20.486h.183a115.323 115.323 0 0 1 3.338-4.535l12.991-15.951h6.803l-15.367 18.028 16.576 24.452h-6.507l-13.927-20.864-4.093 4.658v16.206h-5.489v-42.48h.003z"/><path style="fill:#9a847a" d="M242.874 323.984c2.387-.573 6.238-.947 10.02-.947 5.482 0 9.021.947 11.596 3.083 2.204 1.639 3.6 4.161 3.6 7.506 0 4.165-2.776 7.753-7.188 9.324v.195c4.03.947 8.759 4.281 8.759 10.589 0 3.656-1.448 6.481-3.659 8.501-2.896 2.72-7.686 3.978-14.615 3.978-3.794 0-6.679-.251-8.509-.509v-41.721l-.004.001zm5.489 17.395h4.973c5.732 0 9.141-3.091 9.141-7.188 0-4.913-3.723-6.933-9.272-6.933-2.518 0-3.97.187-4.846.382v13.74l.004-.001zm0 20.3c1.13.187 2.642.243 4.599.243 5.669 0 10.9-2.077 10.9-8.251 0-5.74-4.98-8.187-10.971-8.187h-4.531v16.194h.003v.001zM283.902 352.474l-4.408 13.358h-5.673l14.499-42.484h6.552l14.499 42.484h-5.86l-4.535-13.358h-15.074zm13.991-4.288-4.213-12.228c-.954-2.776-1.579-5.295-2.211-7.749h-.127c-.632 2.455-1.257 5.096-2.144 7.693l-4.153 12.284h12.848zM315.602 365.832v-42.48h6.054l13.553 21.5c3.098 4.973 5.609 9.444 7.566 13.8l.195-.071c-.509-5.669-.632-10.84-.632-17.455v-17.773h5.167v42.484h-5.545l-13.485-21.56c-2.963-4.718-5.803-9.575-7.884-14.185l-.187.067c.322 5.358.382 10.466.382 17.526v18.155h-5.182v-.008h-.002zM357.08 323.352h5.489v20.486h.187a108.527 108.527 0 0 1 3.345-4.535l12.991-15.951h6.803L370.52 341.38l16.569 24.452h-6.484l-13.942-20.864-4.09 4.658v16.206h-5.489v-42.48h-.004z"/><path style="fill:#ba6d71" d="M171.163 126.071c42.955-.011 85.915-.022 128.859 0l.004.471c-42.948 0-85.903.011-128.859-.011v-.46h-.004z"/><path style="fill:#d29ea1" d="m153.674 146.976.46-.015c.022 36.471.022 72.946 0 109.42h-.46c-.026-36.474-.026-72.941 0-109.405z"/><path style="fill:#a23c42" d="M154.134 146.961c.516-9.332 7.274-19.3 17.029-20.43 42.955.022 85.915.011 128.859.011 10.806 1.699 17.691 13.448 17.025 23.824-.034 22.537.041 45.055-.034 67.58-8.078.049-16.164.022-24.243.011 4.168-14.926 1.508-31.506-7.338-44.246-9.253-13.994-25.126-23.206-41.781-24.909-17.871-2.223-36.849 4.37-49.04 17.732-8.569 8.359-13.601 20.03-14.844 31.846a38.472 38.472 0 0 0-.052 10.496c1.104 10.129 4.943 20.104 11.394 28.041 9.86 12.958 25.661 20.752 41.795 21.942.022 6.14.022 12.277 0 18.421-19.599.034-39.221 0-58.828 0-10.975.12-19.491-10.432-19.947-20.894.028-36.479.028-72.954.005-109.425z"/><path style="fill:#9a847a" d="M220.599 167.197c14.739-6.443 33.002-3.338 44.924 7.454 6.945 6.368 11.97 15.311 12.628 24.823v8.295c-1.332 19.678-20.037 35.603-39.464 35.491-.819 0-2.447.015-3.259.015-8.385.15-16.527-3.218-23.39-7.85-8.932-6.361-15.147-16.703-16.067-27.689-2.458-17.026 8.823-34.395 24.628-40.539zM265.01 246.17c4.89-9.815 19.641-11.424 27.356-4.015 4.917 4.03 5.871 11.876 2.208 17.044-2.574 4.288-7.644 6.687-12.524 6.919-1.313-.011-2.615-.022-3.899 0-4.977-.232-10.058-2.978-12.606-7.334-2.365-3.701-2.888-8.793-.535-12.614z"/><path style="fill:#debbbc" d="M179.72 208.873a38.551 38.551 0 0 1 .052-10.496c.068 3.495.476 7.031-.052 10.496z"/><path style="fill:#d0d1d1" d="m278.151 199.473.475.022c0 2.735.071 5.493-.011 8.239l-.464.034v-8.295z"/><path style="fill:#e0e0e0" d="M235.428 243.274c.812 0 2.44-.015 3.259-.015-.397.883-2.87.883-3.259.015zM278.151 266.114c1.283-.022 2.586-.011 3.899 0-.46 1.059-2.728.236-3.899.457v-.457z"/><path style="fill:#d19ea0" d="m232.91 258.859.479-.067c.022 6.163.071 12.333 0 18.484h-.479c.022-6.141.022-12.281 0-18.417z"/><path style="fill:#9a847a" d="M303.588 266.301c4.004-.385 8.711 1.355 10.507 5.175 1.927 2.967 1.28 7.409-1.283 9.852-3.719 4.247-11.083 4.73-15.218.831-3.035-2.496-4.037-7.311-1.938-10.701 1.253-3.181 4.744-4.772 7.932-5.157z"/></svg>