<svg xmlns="http://www.w3.org/2000/svg" viewBox="0 0 473.94 473.94" style="enable-background:new 0 0 473.94 473.94" xml:space="preserve"><circle style="fill:#00529e" cx="236.97" cy="236.97" r="236.97"/><path style="fill:#fff" d="M253.802 233.821c37.639.183 71.999-30.69 71.999-68.254 0-41.066-34.365-69.459-71.999-69.444h-32.396c-38.084-.015-69.444 28.385-69.444 69.444 0 37.571 31.36 68.437 69.444 68.254h32.396z"/><path style="fill:#00529e" d="M235.86 202.139v-74.578c14.99 5.747 25.631 20.266 25.657 37.287-.026 17.022-10.668 31.529-25.657 37.291m-54.241-37.291c.03-17.014 10.657-31.521 25.639-37.287v74.566c-14.982-5.762-25.609-20.265-25.639-37.279m39.94-63.034c-34.802.007-63.012 28.224-63.019 63.034.007 34.81 28.217 63.012 63.019 63.027 34.817-.015 63.034-28.217 63.034-63.027s-28.221-63.026-63.034-63.034"/><path style="fill:#fff" d="M81.556 280.81c0 5.609 4.004 6.253 7.57 6.253 15.727 0 20.887-11.858 20.887-22.705 0-13.616-8.733-23.439-22.78-23.439-2.997 0-4.363.217-5.68.292v39.599h.003zm-7.139-34.148c0-6.548-3.413-6.122-6.687-6.185v-1.89c2.836.135 5.744.135 8.587.135 3.053 0 7.207-.135 12.599-.135 18.847 0 29.107 12.584 29.107 25.478 0 7.214-4.217 25.336-29.987 25.336-3.712 0-7.139-.142-10.559-.142-3.267 0-6.473.071-9.747.142v-1.89c4.363-.445 6.481-.584 6.687-5.538v-35.311zM128.366 244.919c-1.893 0-3.558-1.747-3.558-3.645 0-1.822 1.747-3.502 3.558-3.502 1.893 0 3.573 1.534 3.573 3.502 0 1.972-1.609 3.645-3.573 3.645m-7.794 42.589h1.388c2.032 0 3.487 0 3.487-2.413v-19.723c0-3.199-1.089-3.645-3.779-5.085v-1.171c3.42-1.022 7.499-2.398 7.783-2.616.513-.296.943-.374 1.317-.374.359 0 .505.438.505 1.022v27.947c0 2.413 1.609 2.413 3.648 2.413h1.235v1.89c-2.477 0-5.029-.142-7.637-.142-2.623 0-5.246.071-7.944.142v-1.89h-.003zM143.067 265.809c0-2.69-.804-3.416-4.217-4.801v-1.381c3.128-1.022 6.11-1.964 9.601-3.502.228 0 .43.15.43.726v4.737c4.157-2.986 7.723-5.463 12.606-5.463 6.189 0 8.374 4.516 8.374 10.196v18.776c0 2.413 1.601 2.413 3.633 2.413h1.317v1.89c-2.559 0-5.1-.142-7.719-.142-2.623 0-5.246.071-7.865.142v-1.89h1.31c2.039 0 3.495 0 3.495-2.413V266.25c0-4.15-2.544-6.185-6.694-6.185-2.331 0-6.035 1.882-8.456 3.499v21.538c0 2.413 1.609 2.413 3.656 2.413h1.31v1.89c-2.544 0-5.1-.142-7.723-.142-2.616 0-5.239.071-7.858.142v-1.89h1.317c2.039 0 3.487 0 3.487-2.413v-19.293h-.004zM193.237 266.973c1.818 0 2.024-.947 2.024-1.811 0-3.712-2.253-6.702-6.327-6.702-4.445 0-7.499 3.27-8.367 8.513h12.67zm-12.89 2.335c-.146.655-.146 1.744 0 4.221.43 6.922 4.883 12.595 10.698 12.595 4.011 0 7.139-2.193 9.83-4.876l1.014 1.018c-3.353 4.438-7.499 8.224-13.463 8.224-11.577 0-13.916-11.214-13.916-15.869 0-14.271 9.609-18.496 14.705-18.496 5.905 0 12.247 3.712 12.307 11.431 0 .438 0 .876-.06 1.317l-.666.434-20.449.001zM203.205 287.508h1.964c2.024 0 3.495 0 3.495-2.413v-20.449c0-2.256-2.698-2.705-3.794-3.274v-1.089c5.321-2.264 8.228-4.157 8.894-4.157.43 0 .644.224.644.95v6.548h.153c1.819-2.836 4.883-7.499 9.317-7.499 1.818 0 4.15 1.239 4.15 3.858 0 1.957-1.388 3.727-3.42 3.727-2.271 0-2.271-1.77-4.808-1.77-1.242 0-5.321 1.68-5.321 6.05v17.1c0 2.413 1.456 2.413 3.495 2.413h4.079v1.89c-4.004-.075-7.053-.142-10.189-.142-2.982 0-6.043.071-8.658.142l-.001-1.885zM231.235 279.28c.95 4.804 3.858 8.879 9.171 8.879 4.288 0 5.89-2.619 5.89-5.167 0-8.587-15.865-5.818-15.865-17.542 0-4.075 3.282-9.321 11.285-9.321 2.331 0 5.459.659 8.303 2.118l.505 7.409h-1.665c-.73-4.576-3.282-7.192-7.944-7.192-2.907 0-5.68 1.665-5.68 4.801 0 8.52 16.89 5.89 16.89 17.321 0 4.801-3.858 9.905-12.52 9.905-2.907 0-6.335-1.022-8.872-2.473l-.812-8.37 1.314-.368zM317.857 251.759h-1.811c-1.388-8.509-7.431-11.933-15.573-11.933-8.382 0-20.542 5.601-20.542 23.072 0 14.713 10.488 25.265 21.699 25.265 7.207 0 13.182-4.939 14.638-12.591l1.673.43-1.673 10.63c-3.061 1.905-11.285 3.865-16.101 3.865-17.029 0-27.794-10.993-27.794-27.371 0-14.93 13.317-25.639 27.588-25.639 5.89 0 11.57 1.905 17.175 3.873l.721 10.399zM320.488 287.508h1.373c2.047 0 3.502 0 3.502-2.413V244.56c0-4.737-1.081-4.883-3.858-5.684v-1.16c2.907-.95 5.972-2.256 7.499-3.139.797-.423 1.381-.804 1.601-.804.438 0 .584.438.584 1.029v50.293c0 2.413 1.602 2.413 3.641 2.413h1.227v1.89c-2.462 0-5.014-.142-7.637-.142-2.616 0-5.231.071-7.929.142v-1.89h-.003zM367.23 285.39c0 1.317.797 1.384 2.032 1.384.876 0 1.957-.071 2.907-.071v1.53c-3.136.296-9.1 1.822-10.488 2.26l-.367-.217v-5.897c-4.355 3.562-7.712 6.114-12.89 6.114-3.925 0-8.004-2.552-8.004-8.662v-18.634c0-1.901-.284-3.712-4.355-4.079v-1.388c2.623-.067 8.434-.505 9.384-.505.812 0 .812.505.812 2.11v18.776c0 2.193 0 8.456 6.327 8.456 2.47 0 5.744-1.901 8.801-4.445V262.53c0-1.448-3.495-2.245-6.103-2.975v-1.31c6.541-.445 10.627-1.022 11.349-1.022.591 0 .591.505.591 1.317v26.847h.004v.003zM381.711 281.173c0 2.758 2.623 7.431 7.499 7.431 7.79 0 11.064-7.652 11.064-14.133 0-7.861-5.972-14.41-11.641-14.41-2.705 0-4.947 1.751-6.922 3.424v17.688zm0-19.798c2.907-2.473 6.847-5.246 10.851-5.246 8.449 0 13.534 7.36 13.534 15.293 0 9.534-6.986 19.076-17.399 19.076-5.381 0-8.221-1.751-10.122-2.552l-2.178 1.676-1.519-.804c.636-4.292 1.014-8.513 1.014-12.962V244.56c0-4.737-1.096-4.883-3.865-5.684v-1.16c2.922-.95 5.972-2.256 7.499-3.132.804-.43 1.381-.804 1.609-.804.438 0 .576.43.576 1.022v26.573zM67.648 331.732h.546c1.426 0 2.93-.198 2.93-2.26v-20.756c0-2.062-1.504-2.26-2.93-2.26h-.546v-1.19c1.542 0 3.918.161 5.86.161 1.979 0 4.355-.161 6.219-.161v1.19h-.554c-1.426 0-2.93.202-2.93 2.26v20.756c0 2.062 1.504 2.26 2.93 2.26h.554v1.19c-1.901 0-4.284-.161-6.256-.161-1.946 0-4.284.161-5.826.161v-1.19h.003z"/><path style="fill:#fff" d="M79.554 332.75v-.85h-.382c-1.418 0-3.098-.247-3.106-2.428v-20.756c.007-2.185 1.688-2.425 3.106-2.425h.382v-.853c-1.826 0-4.123.161-6.043.161-1.886 0-4.157-.153-5.691-.161v.853h.382c1.418 0 3.098.239 3.098 2.425v20.756c0 2.181-1.68 2.428-3.098 2.428h-.382v.849c1.534-.019 3.772-.165 5.658-.165 1.915.001 4.205.154 6.076.166m.172.333c-1.923 0-4.288-.157-6.256-.157-1.946 0-4.277.157-5.826.157h-.176V331.565h.722c1.441-.041 2.746-.153 2.754-2.092v-20.756c-.007-1.942-1.317-2.062-2.754-2.088h-.722v-1.534h.176c1.549 0 3.925.157 5.86.157 1.972 0 4.34-.157 6.219-.157h.176v1.534h-.73c-1.441.026-2.754.146-2.761 2.088v20.756c.007 1.938 1.325 2.05 2.761 2.092h.73v1.519h-.173v-.001zM106.937 325.113l.079-.079v-14.855c0-3.244-2.26-3.723-3.442-3.723h-.876v-1.19c1.863 0 3.689.161 5.545.161 1.624 0 3.252-.161 4.876-.161v1.19h-.591c-1.665 0-3.529.322-3.529 5.033v18.02c0 1.388.037 2.776.236 4h-1.508L87.33 310.77v16.325c0 3.442.674 4.632 3.719 4.632h.674v1.19c-1.695 0-3.398-.161-5.108-.161-1.777 0-3.603.161-5.384.161v-1.19h.554c2.731 0 3.558-1.863 3.558-5.029v-16.685c0-2.211-1.819-3.562-3.596-3.562h-.52v-1.19c1.504 0 3.053.161 4.554.161 1.19 0 2.339-.161 3.529-.161l17.627 19.852z"/><path style="fill:#fff" d="M106.851 325.03v-.007l-.03-.037.03.044zm.086.083.131-.12-.131.12zm.789 8.22h1.31c-.176-1.186-.206-2.507-.206-3.824v-18.02c0-4.752 1.987-5.197 3.697-5.197h.415v-.853c-1.564.007-3.128.153-4.7.153-1.811 0-3.581-.146-5.366-.153l-.015.853h.703c1.22 0 3.618.535 3.618 3.895l-.045 14.967-.079.079-.138.131-17.613-19.925c-1.175 0-2.316.153-3.536.153-1.448 0-2.93-.146-4.37-.153l-.007.853h.352c1.856 0 3.772 1.411 3.772 3.727v16.685c0 3.173-.883 5.19-3.727 5.209l-.389-.019v.857c1.717-.019 3.48-.165 5.212-.165 1.65 0 3.304.146 4.932.165v-.842h-.498c-3.113-.019-3.888-1.369-3.888-4.812V310.33l20.566 23.003zm1.504.345-1.631-.056-20.105-22.406v15.88c.045 3.442.569 4.427 3.551 4.464h.849v1.519h-.176c-1.71 0-3.42-.157-5.108-.157-1.77 0-3.588.157-5.384.157h-.176v-1.519H81.787c2.608-.022 3.353-1.703 3.383-4.861v-16.685c-.007-2.099-1.732-3.386-3.427-3.386h-.696v-1.534h.176c1.512 0 3.061.157 4.546.157 1.182 0 2.324-.157 3.667-.101l17.407 19.607v-14.574c-.022-3.151-2.125-3.529-3.282-3.555h-1.044v-1.534h.176c1.871 0 3.697.157 5.545.157 1.616 0 3.237-.157 4.876-.157h.168v1.534h-.759c-1.639.049-3.319.187-3.36 4.857v18.02c0 1.384.037 2.769.236 3.978l.045.195h-.214zM119.052 307.249c-2.975 0-3.091.711-3.682 3.603h-1.19c.161-1.111.359-2.215.475-3.368.161-1.111.239-2.219.239-3.36h.95c.322 1.19 1.31 1.145 2.384 1.145h20.434c1.074 0 2.062-.034 2.133-1.224l.95.161c-.153 1.063-.314 2.133-.43 3.207-.075 1.066-.075 2.137-.075 3.207l-1.19.438c-.086-1.463-.277-3.809-2.937-3.809h-6.488v21.074c0 3.05 1.381 3.409 3.282 3.409h.752v1.19c-1.534 0-4.311-.161-6.455-.161-2.376 0-5.152.161-6.694.161v-1.19h.752c2.185 0 3.282-.198 3.282-3.326V307.25l-6.492-.001z"/><path style="fill:#fff" d="M134.663 333.083c-1.557 0-4.326-.157-6.462-.157-2.369 0-5.145.157-6.694.157h-.168V331.564h.92c2.185-.06 3.061-.079 3.106-3.158v-20.98h-6.316v-.352h6.657v21.332c0 3.181-1.28 3.499-3.45 3.506h-.584v.834c1.557-.011 4.232-.157 6.526-.157 2.069 0 4.715.146 6.286.157v-.834h-.584c-1.916-.007-3.45-.471-3.45-3.588v-21.25h6.664c2.66.007 3.005 2.264 3.091 3.742l.857-.314c0-1.025.007-2.069.075-3.113.123-1.022.269-2.032.415-3.046l-.602-.097c-.183 1.149-1.302 1.212-2.294 1.194h-20.639c-.928 0-1.946-.041-2.294-1.145h-.659a22.297 22.297 0 0 1-.239 3.207c-.109 1.089-.292 2.133-.43 3.181h.842c.528-2.754.857-3.648 3.82-3.611v.352c-2.937.049-2.874.546-3.521 3.472l-.022.131H113.988l.022-.202c.161-1.108.367-2.219.483-3.368.161-1.1.236-2.2.236-3.338v-.18h1.265l.022.127c.269 1.01 1.003 1.01 2.009 1.025h20.639c1.104-.019 1.908-.034 1.972-1.07l.015-.187.183.041 1.119.176-.03.176c-.153 1.055-.314 2.125-.43 3.195-.075 1.051-.075 2.118-.075 3.195v.116l-.109.052-1.411.513-.007-.236c-.101-1.482-.262-3.637-2.761-3.637h-6.32v20.898c.037 2.993 1.22 3.199 3.106 3.24h.928v1.519l-.181.001zM143.011 331.732h.561c1.426 0 2.922-.198 2.922-2.26v-20.756c0-2.062-1.497-2.26-2.922-2.26h-.561v-1.19c2.413 0 6.541.161 9.86.161 3.334 0 7.446-.161 10.144-.161a67.212 67.212 0 0 0 .086 6.065l-1.197.314c-.183-2.571-.659-4.629-4.823-4.629h-5.504v10.372h4.707c2.376 0 2.892-1.34 3.136-3.484h1.182a90.884 90.884 0 0 0-.123 4.632c0 1.504.045 3.012.123 4.516l-1.182.236c-.239-2.372-.359-3.918-3.098-3.918h-4.745v9.231c0 2.574 2.286 2.574 4.823 2.574 4.752 0 6.855-.318 8.045-4.834l1.104.266c-.513 2.114-.988 4.202-1.336 6.312-2.544 0-7.094-.161-10.657-.161-3.573 0-8.288.161-10.544.161l-.001-1.187z"/><path style="fill:#fff" d="M164.059 332.742c.344-1.998.797-4 1.287-5.998l-.782-.198c-1.19 4.434-3.487 4.823-8.157 4.801-2.5 0-4.999 0-5.014-2.746v-9.399h4.924c2.769-.03 3.053 1.639 3.244 3.888l.857-.176a85.28 85.28 0 0 1-.109-4.378c0-1.482.037-2.975.109-4.464h-.857c-.221 2.069-.868 3.514-3.282 3.491h-4.887v-10.724h5.688c4.123-.034 4.801 2.099 4.977 4.584l.857-.221a69.236 69.236 0 0 1-.109-3.88c0-.681.015-1.325.03-1.882-2.69.007-6.702.153-9.961.153-3.252 0-7.255-.146-9.684-.153v.853h.389c1.411 0 3.091.239 3.098 2.425v20.756c-.007 2.181-1.688 2.417-3.098 2.436h-.389v.834c2.309-.004 6.885-.157 10.365-.157 3.495-.002 7.944.151 10.504.155m.146.341c-2.544 0-7.094-.157-10.657-.157-3.566 0-8.273.157-10.537.157h-.168v-1.519H143.572c1.433-.03 2.732-.153 2.746-2.092v-20.756c-.015-1.931-1.317-2.062-2.746-2.088h-.73v-1.534h.168c2.417 0 6.541.157 9.86.157 3.334 0 7.439-.157 10.144-.157h.176l-.011.176c-.03.599-.037 1.306-.037 2.051 0 1.366.037 2.866.116 3.996v.146l-.123.041-1.396.355-.007-.198c-.236-2.574-.584-4.445-4.655-4.479h-5.343v10.032h4.546c2.279-.022 2.69-1.19 2.96-3.33l.015-.153H160.766v.176a95.743 95.743 0 0 0-.123 4.632c0 1.504.052 3.005.123 4.509v.138l-.138.037-1.373.269-.015-.183c-.269-2.417-.292-3.746-2.922-3.772h-4.584v9.063c.007 2.402 2.084 2.395 4.67 2.402 4.763-.026 6.672-.258 7.873-4.707l.045-.161.161.034 1.272.322-.037.168c-.52 2.099-.988 4.191-1.343 6.294l-.03.131h-.14zM175.969 318.651h1.931c3.978 0 6.103-1.5 6.103-6.178 0-3.517-2.253-5.774-5.781-5.774-1.19 0-1.695.116-2.253.153v11.799zm-5.078-9.19c0-2.885-1.579-3.001-2.806-3.001h-.715v-1.197c1.272 0 3.719.161 6.14.161 2.376 0 4.277-.161 6.372-.161 4.992 0 9.433 1.343 9.433 6.978 0 3.562-2.376 5.74-5.504 6.971l6.769 10.133c1.119 1.673 1.901 2.144 3.843 2.384v1.19c-1.31 0-2.578-.161-3.88-.161-1.227 0-2.5.161-3.719.161-3.046-3.996-5.673-8.281-8.243-12.842h-2.608v8.479c0 3.053 1.426 3.173 3.237 3.173h.715v1.19c-2.26 0-4.546-.161-6.81-.161-1.901 0-3.764.161-5.744.161v-1.19h.715c1.463 0 2.806-.67 2.806-2.14l-.001-20.128z"/><path style="fill:#fff" d="M177.9 318.486c3.925-.034 5.897-1.392 5.942-6.002-.022-3.457-2.17-5.601-5.62-5.62-1.074 0-1.572.101-2.084.146v11.476h1.762zm-1.939.337h-.168V306.7l.146-.022c.546-.041 1.081-.146 2.279-.146 3.603 0 5.949 2.339 5.957 5.949-.015 4.733-2.279 6.342-6.279 6.342h-1.935zm0 1.092h2.713l.045.082c2.586 4.546 5.19 8.823 8.105 12.748 1.205 0 2.477-.165 3.712-.165 1.265 0 2.492.138 3.719.157v-.864c-1.863-.228-2.732-.786-3.817-2.425l-6.9-10.32.206-.079c3.098-1.216 5.392-3.341 5.399-6.821-.007-5.497-4.284-6.769-9.268-6.791-2.084 0-3.981.161-6.372.161-2.324 0-4.677-.153-5.979-.161v.853h.554c1.227 0 2.975.198 2.975 3.173v20.127c0 1.598-1.482 2.312-2.975 2.32h-.554v.834c1.916-.004 3.719-.157 5.583-.157 2.215 0 4.445.153 6.642.157v-.834h-.546c-1.804-.008-3.413-.232-3.413-3.353v-8.644l.171.002zm18.462 13.168c-1.328 0-2.586-.157-3.888-.157-1.205 0-2.477.157-3.85.094-3.042-3.985-5.643-8.236-8.206-12.76h-2.339v8.299c.045 2.975 1.235 2.956 3.068 3.005h.891v1.519h-.176c-2.271 0-4.569-.157-6.81-.157-1.893 0-3.757.157-5.744.157h-.176v-1.519h.891c1.426-.022 2.63-.636 2.63-1.972v-20.127c-.03-2.806-1.403-2.799-2.63-2.833h-.891v-1.534h.176c1.28 0 3.727.157 6.14.157 2.369 0 4.269-.157 6.372-.157 4.999.011 9.594 1.384 9.609 7.136 0 3.581-2.361 5.811-5.414 7.061l6.642 9.968c1.111 1.639 1.804 2.054 3.734 2.301l.138.015v1.504h-.167zM221.316 325.113l.075-.079v-14.855c0-3.244-2.26-3.723-3.435-3.723h-.876v-1.19c1.863 0 3.682.161 5.545.161 1.624 0 3.237-.161 4.883-.161v1.19h-.599c-1.665 0-3.529.322-3.529 5.033v18.02c0 1.388.037 2.776.239 4h-1.508l-20.396-22.739v16.325c0 3.442.666 4.632 3.719 4.632h.666v1.19c-1.695 0-3.405-.161-5.1-.161-1.792 0-3.611.161-5.384.161v-1.19h.543c2.739 0 3.573-1.863 3.573-5.029v-16.685c0-2.211-1.819-3.562-3.603-3.562h-.513v-1.19c1.497 0 3.046.161 4.554.161 1.175 0 2.331-.161 3.521-.161l17.625 19.852z"/><path style="fill:#fff" d="M221.222 325.034v-.011l-.03-.03.03.041zm.094.079.123-.12-.123.12zm.797 8.22h1.302c-.176-1.179-.213-2.507-.213-3.824v-18.02c0-4.752 2.002-5.19 3.704-5.197h.408v-.853c-1.549.007-3.121.153-4.692.153-1.811 0-3.588-.146-5.381-.153v.853h.707c1.212.007 3.611.535 3.611 3.888l-.052 14.975-.079.079-.116.131-17.635-19.925c-1.175 0-2.316.153-3.514.153-1.471 0-2.952-.146-4.4-.153v.853h.359c1.856.007 3.772 1.403 3.772 3.727v16.673c0 3.184-.898 5.201-3.742 5.22l-.389-.007v.842c1.717-.011 3.487-.157 5.224-.157 1.665 0 3.304.146 4.939.157v-.834h-.498c-3.121-.007-3.903-1.369-3.91-4.819V310.34l20.595 22.993zm1.507.345-1.639-.049-20.105-22.413v15.873c.052 3.45.569 4.434 3.558 4.471h.834v1.519h-.168c-1.71 0-3.413-.157-5.108-.157-1.777 0-3.603.157-5.381.157h-.183V331.56h.726c2.623-.022 3.375-1.703 3.398-4.872v-16.673c-.007-2.107-1.732-3.386-3.427-3.386h-.696v-1.534h.183c1.504 0 3.053.157 4.554.157 1.164 0 2.309-.157 3.648-.109l17.407 19.614v-14.578c-.015-3.143-2.118-3.536-3.267-3.547h-1.051v-1.534h.176c1.863 0 3.689.157 5.545.157 1.616 0 3.229-.157 4.868-.157h.176v1.534h-.76c-1.639.034-3.319.187-3.36 4.857v18.02c0 1.384.037 2.761.236 3.981l.022.187h-.186v.001zM239.647 309.704h-.079l-3.674 11.214h7.405l-3.652-11.214zm-5.774 17.553c-.4 1.343-.876 2.384-.876 3.083 0 1.19 1.665 1.388 2.967 1.388h.445v1.19c-1.594-.086-3.207-.161-4.801-.161-1.426 0-2.844.075-4.277.161v-1.19h.239c1.542 0 2.851-.917 3.435-2.578l6.342-18.17c.52-1.474 1.235-3.454 1.471-4.913 1.265-.441 2.851-1.227 3.603-1.706.123-.041.198-.079.322-.079.109 0 .183 0 .269.12.123.322.236.681.367.988l7.278 20.718c.483 1.384.958 2.851 1.463 4.049.475 1.104 1.317 1.579 2.63 1.579h.228v1.19c-1.777-.086-3.566-.161-5.459-.161-1.946 0-3.925.075-5.942.161v-1.19h.43c.906 0 2.462-.161 2.462-1.149 0-.52-.359-1.59-.804-2.855l-1.542-4.599h-8.995l-1.255 4.124z"/><path style="fill:#fff" d="m239.478 309.756.086-.03-.086.03zm-3.356 10.986h6.937l-3.457-10.615-3.48 10.615zm-.475.345 3.794-11.558h.202v.176l-.037.015.037-.015v-.176h.131l3.757 11.558h-7.884zm8.089 11.644c1.964-.071 3.888-.146 5.781-.146 1.833 0 3.566.079 5.283.146v-.831h-.06c-1.351.011-2.286-.531-2.776-1.691-.52-1.197-.995-2.668-1.463-4.049l-7.293-20.722c-.123-.314-.236-.666-.344-.954-.03-.041-.022-.041-.06-.041h-.067c-.079 0-.131.026-.236.056-.76.498-2.354 1.276-3.529 1.587-.239 1.497-.958 3.48-1.471 4.947l-6.335 18.174c-.606 1.725-1.994 2.702-3.618 2.694h-.052v.831c1.351-.071 2.728-.146 4.101-.146 1.534 0 3.098.079 4.602.146v-.832h-.247c-1.287-.011-3.091-.157-3.143-1.553.007-.797.49-1.807.876-3.143l.176.052-.176-.056 1.31-4.243h9.238l1.594 4.715c.43 1.272.804 2.324.804 2.907-.067 1.212-1.74 1.302-2.63 1.321h-.269v.831h.004zm11.233.352c-1.785-.075-3.566-.157-5.452-.157-1.946 0-3.91.082-5.942.157l-.183.015v-1.549h.613c.92 0 2.271-.21 2.271-.965.015-.445-.337-1.542-.782-2.799l-1.497-4.486h-8.741l-1.235 4.007c-.393 1.347-.876 2.402-.868 3.042.015.965 1.497 1.197 2.806 1.197h.606V333.094l-.176-.015c-1.587-.075-3.199-.157-4.786-.157-1.418 0-2.844.082-4.262.157l-.18.019v-1.549h.396c1.489-.007 2.713-.842 3.289-2.447l6.335-18.181c.52-1.471 1.235-3.446 1.579-5.021 1.242-.423 2.829-1.22 3.596-1.695.109-.045.221-.097.389-.097a.483.483 0 0 1 .43.232c.116.329.239.681.359 1.003l7.293 20.715c.468 1.392.935 2.855 1.456 4.026.468 1.055 1.19 1.467 2.462 1.474h.4V333.107l-.176-.024zM256.724 307.249c-2.967 0-3.091.711-3.682 3.603h-1.197c.153-1.111.359-2.215.483-3.368.161-1.111.239-2.219.239-3.36h.95c.314 1.19 1.31 1.145 2.369 1.145h20.449c1.059 0 2.054-.034 2.133-1.224l.95.161a111.877 111.877 0 0 0-.43 3.207c-.086 1.066-.086 2.137-.086 3.207l-1.186.434c-.079-1.463-.269-3.809-2.93-3.809h-6.499v21.074c0 3.05 1.388 3.409 3.289 3.409h.752v1.19c-1.542 0-4.318-.161-6.462-.161-2.369 0-5.145.161-6.687.161v-1.19h.745c2.185 0 3.296-.198 3.296-3.326v-21.156h-6.496v.003z"/><path style="fill:#fff" d="M272.327 333.083c-1.557 0-4.326-.157-6.462-.157-2.361 0-5.137.157-6.687.157h-.172V331.564h.921c2.185-.06 3.061-.079 3.113-3.158v-20.98h-6.316v-.352h6.664v21.332c0 3.181-1.287 3.487-3.465 3.499h-.584v.849c1.572-.019 4.232-.165 6.526-.165 2.077 0 4.722.146 6.294.165l-.007-.849h-.576c-1.908-.011-3.457-.464-3.457-3.581v-21.25h6.664c2.66.007 3.012 2.264 3.083 3.742l.861-.314c0-1.025 0-2.069.079-3.106.116-1.022.262-2.039.408-3.046l-.599-.101c-.183 1.149-1.31 1.212-2.286 1.194H255.682c-.935.007-1.946-.041-2.301-1.156h-.644a24.697 24.697 0 0 1-.247 3.218c-.101 1.089-.299 2.144-.445 3.181h.849c.52-2.754.861-3.659 3.828-3.611v.352c-2.937.049-2.874.546-3.521 3.472l-.03.131h-1.527l.022-.195c.168-1.115.359-2.226.483-3.368.161-1.108.239-2.208.239-3.345v-.18h1.25l.037.127c.269 1.01.995 1.01 2.009 1.025H276.331c1.089-.019 1.893-.034 1.964-1.063v-.195l.191.041 1.126.176-.03.176a75.981 75.981 0 0 0-.438 3.195c-.075 1.051-.075 2.122-.075 3.195v.116l-.116.052-1.403.513-.007-.236c-.101-1.482-.254-3.637-2.761-3.637h-6.316v20.898c.03 2.993 1.212 3.199 3.106 3.24h.921v1.519h-.165l-.001-.001zM280.877 331.732h.546c1.433 0 2.93-.198 2.93-2.26v-20.756c0-2.062-1.497-2.26-2.93-2.26h-.546v-1.19c1.549 0 3.918.161 5.86.161 1.987 0 4.355-.161 6.226-.161v1.19h-.554c-1.433 0-2.937.202-2.937 2.26v20.756c0 2.062 1.504 2.26 2.937 2.26h.554v1.19c-1.908 0-4.284-.161-6.264-.161-1.946 0-4.277.161-5.826.161v-1.19h.004z"/><path style="fill:#fff" d="M292.791 332.742v-.842h-.382c-1.418 0-3.106-.247-3.106-2.428v-20.756c0-2.185 1.688-2.425 3.106-2.425h.382v-.853c-1.833.007-4.123.153-6.05.153-1.886 0-4.15-.146-5.688-.153v.853h.374c1.418 0 3.098.239 3.106 2.425v20.756c-.007 2.181-1.688 2.428-3.106 2.428h-.374v.842c1.527-.019 3.764-.157 5.65-.157 1.916 0 4.217.146 6.088.157m.169.341c-1.908 0-4.284-.157-6.256-.157-1.938 0-4.277.157-5.826.157h-.176v-1.519h.722c1.433-.03 2.746-.153 2.754-2.092v-20.756c-.007-1.931-1.325-2.062-2.754-2.088h-.722v-1.534h.176c1.549 0 3.925.157 5.86.157 1.972 0 4.348-.157 6.219-.157h.168v1.534H292.411c-1.456.026-2.754.157-2.769 2.088v20.756c.015 1.938 1.317 2.062 2.769 2.092h.715v1.519h-.166zM309.36 331.773c7.689 0 9.025-6.784 9.025-12.557 0-5.792-3.121-12.801-9.699-12.801-6.937 0-8.995 6.189-8.995 11.487 0 7.091 3.252 13.871 9.669 13.871m-.61-27.098c8.456 0 15.188 5.231 15.188 13.672 0 9.104-6.541 15.162-14.975 15.162-8.404 0-14.821-5.695-14.821-14.219 0-8.235 6.38-14.615 14.608-14.615"/><path style="fill:#fff" d="M299.515 317.902c.015-5.336 2.099-11.656 9.171-11.656 6.724.007 9.86 7.139 9.875 12.969-.015 5.777-1.373 12.718-9.201 12.718V331.596c7.529-.011 8.842-6.608 8.849-12.385 0-5.74-3.091-12.61-9.523-12.625-6.795.007-8.812 6.035-8.819 11.311 0 7.057 3.222 13.68 9.493 13.695V331.933c-6.578-.003-9.83-6.903-9.845-14.031m-5.549 1.388c.022-8.333 6.462-14.776 14.784-14.791v.344c-8.142 0-14.44 6.301-14.447 14.447.022 8.419 6.342 14.039 14.66 14.043 8.344-.004 14.791-5.976 14.806-15.001-.007-8.333-6.634-13.478-15.02-13.489v-.344c8.513.007 15.341 5.295 15.349 13.833-.007 9.209-6.623 15.334-15.136 15.345-8.474-.011-14.973-5.773-14.996-14.387M350.62 325.113l.086-.079v-14.855c0-3.244-2.264-3.723-3.457-3.723h-.861v-1.19c1.856 0 3.682.161 5.538.161 1.639 0 3.259-.161 4.883-.161v1.19h-.599c-1.658 0-3.521.322-3.521 5.033v18.02c0 1.388.037 2.776.239 4h-1.504L331.02 310.77v16.325c0 3.442.666 4.632 3.727 4.632h.674v1.19c-1.71 0-3.413-.161-5.108-.161-1.785 0-3.611.161-5.399.161v-1.19h.561c2.739 0 3.566-1.863 3.566-5.029v-16.685c0-2.211-1.819-3.562-3.611-3.562h-.52v-1.19c1.512 0 3.053.161 4.561.161 1.19 0 2.339-.161 3.521-.161l17.628 19.852z"/><path style="fill:#fff" d="M350.534 325.034v-.011l-.03-.03.03.041zm.086.079.131-.12-.131.12zm.805 8.22h1.295c-.168-1.186-.206-2.507-.206-3.824v-18.02c0-4.763 2.002-5.19 3.697-5.197h.423v-.853c-1.564.007-3.121.153-4.707.153-1.804 0-3.573-.146-5.373-.153v.853h.703c1.22.007 3.618.543 3.618 3.895l-.045 14.967-.079.079-.131.131-17.628-19.925c-1.171 0-2.324.153-3.521.153-1.463 0-2.945-.146-4.393-.153v.853h.352c1.863.007 3.779 1.403 3.779 3.727v16.685c0 3.173-.883 5.19-3.734 5.209l-.393-.007v.842c1.725-.011 3.487-.157 5.231-.157 1.643 0 3.289.146 4.932.157v-.834h-.513c-3.106-.007-3.888-1.369-3.888-4.812v-16.767l20.581 22.998zm1.504.345-1.643-.056-20.097-22.406v15.88c.052 3.442.576 4.419 3.543 4.449h.857v1.534h-.168c-1.717 0-3.42-.157-5.108-.157-1.785 0-3.596.157-5.399.157h-.165v-1.534H325.471c2.608-.007 3.36-1.688 3.39-4.846v-16.685c0-2.107-1.732-3.386-3.435-3.386h-.677v-1.534h.161c1.519 0 3.068.157 4.561.157 1.175 0 2.309-.157 3.663-.101l17.399 19.607v-14.574c-.008-3.151-2.118-3.529-3.274-3.555h-1.044v-1.534h.176c1.863 0 3.689.157 5.538.157 1.616 0 3.237-.157 4.876-.157h.176v1.534H356.214c-1.631.049-3.311.187-3.353 4.857v18.02c0 1.384.037 2.769.228 3.981l.03.187h-.191v.005h.001zM368.963 309.704h-.079l-3.682 11.214h7.409l-3.648-11.214zm-5.789 17.553c-.389 1.343-.868 2.384-.868 3.083 0 1.19 1.665 1.388 2.967 1.388h.438v1.19c-1.587-.086-3.207-.161-4.793-.161-1.426 0-2.851.075-4.269.161v-1.19h.228c1.549 0 2.859-.917 3.442-2.578l6.342-18.17c.52-1.474 1.235-3.454 1.471-4.913 1.272-.441 2.851-1.227 3.611-1.706.109-.041.191-.079.307-.079.123 0 .198 0 .277.12.131.322.24.681.367.988l7.278 20.718c.475 1.384.95 2.851 1.471 4.049.475 1.104 1.31 1.579 2.616 1.579h.236v1.19c-1.777-.086-3.558-.161-5.459-.161-1.946 0-3.925.075-5.949.161v-1.19h.438c.905 0 2.462-.161 2.462-1.149 0-.52-.367-1.59-.804-2.855l-1.534-4.599h-8.995l-1.28 4.124z"/><path style="fill:#fff" d="m368.802 309.756.079-.03-.079.03zm-3.36 10.986h6.922l-3.442-10.604-3.48 10.604zm-.483.345 3.802-11.558h.202v.176l-.045.015.045-.015v-.176h.123l3.749 11.558h-7.876zm8.097 11.651c1.957-.079 3.888-.153 5.774-.153 1.841 0 3.566.079 5.291.146l-.007-.831h-.067c-1.343.007-2.279-.531-2.769-1.691-.52-1.197-.995-2.668-1.463-4.049l-7.293-20.722c-.123-.314-.239-.666-.337-.947-.03-.049-.03-.049-.06-.049h-.079c-.086 0-.116.034-.221.056-.775.483-2.361 1.283-3.529 1.587-.247 1.497-.965 3.472-1.478 4.947l-6.342 18.174c-.606 1.725-1.987 2.702-3.603 2.694h-.06v.831c1.358-.071 2.728-.146 4.101-.146 1.534 0 3.098.079 4.625.146v-.831h-.269c-1.287-.011-3.091-.15-3.143-1.56.007-.79.505-1.792.883-3.136l.161.052-.161-.056 1.31-4.243h9.231l1.587 4.715c.438 1.272.797 2.324.797 2.907-.052 1.212-1.717 1.302-2.615 1.321h-.262l-.002.838zm11.226.345c-1.792-.064-3.566-.157-5.452-.157-1.938 0-3.925.094-5.942.157l-.176.015v-1.534h.606c.92 0 2.279-.224 2.286-.98.007-.445-.352-1.534-.797-2.799l-1.504-4.486h-8.741l-1.22 4.007c-.393 1.355-.876 2.402-.868 3.038 0 .973 1.482 1.22 2.799 1.22h.606v1.534l-.176-.015c-1.587-.064-3.207-.157-4.786-.157-1.418 0-2.844.094-4.269.157l-.176.015v-1.534h.404c1.471-.015 2.705-.861 3.289-2.462l6.335-18.181c.513-1.47 1.227-3.446 1.572-5.021 1.25-.43 2.836-1.22 3.611-1.695a.827.827 0 0 1 .367-.086.435.435 0 0 1 .438.228c.116.314.236.674.367.995l7.285 20.715c.468 1.392.943 2.855 1.463 4.03.46 1.051 1.175 1.463 2.447 1.482h.415v1.534l-.183-.02zM394.28 329.034c0 1.594 1.096 2.065 2.369 2.223 1.624.116 3.405.116 5.224-.079 1.665-.202 3.091-1.152 3.809-2.144.629-.872.988-1.979 1.22-2.851h1.156c-.43 2.26-.988 4.479-1.471 6.739-3.48 0-6.971-.161-10.451-.161-3.495 0-6.971.161-10.458.161v-1.19h.546c1.426 0 2.975-.198 2.975-2.653V308.72c0-2.062-1.549-2.26-2.975-2.26h-.546v-1.19c2.092 0 4.157.161 6.256.161 2.024 0 3.996-.161 6.021-.161v1.19h-.995c-1.504 0-2.683.049-2.683 2.137v20.438l.003-.001z"/><path style="fill:#fff" d="M406.448 332.742c.453-2.144.973-4.247 1.403-6.391h-.812c-.247.857-.599 1.931-1.235 2.788-.73 1.025-2.2 1.998-3.918 2.211a31.577 31.577 0 0 1-3.042.157c-.767 0-1.504-.034-2.223-.082-1.295-.138-2.537-.696-2.537-2.391v-20.441c0-2.2 1.396-2.301 2.874-2.301h.812v-.853c-1.946.007-3.865.161-5.841.161-2.054 0-4.064-.153-6.088-.161v.853h.382c1.411 0 3.143.239 3.143 2.421v20.363c0 2.567-1.725 2.825-3.143 2.825h-.382v.842c3.42-.004 6.847-.157 10.29-.157 3.443-.001 6.889.152 10.317.156m.138.341c-3.495 0-6.971-.157-10.451-.157-3.487 0-6.971.157-10.473.157h-.161v-1.519H386.223c1.426-.041 2.784-.138 2.806-2.485v-20.363c-.022-1.927-1.366-2.058-2.806-2.084h-.722v-1.534h.161c2.11 0 4.172.157 6.271.157 2.009 0 3.981-.157 6.021-.157h.161v1.534h-1.156c-1.534.034-2.492-.026-2.522 1.961v20.441c.015 1.478.973 1.878 2.215 2.054a29.574 29.574 0 0 0 5.198-.078c1.609-.195 3.005-1.119 3.689-2.069.606-.842.95-1.938 1.19-2.795l.037-.135h1.489l-.03.213c-.453 2.264-.995 4.479-1.478 6.732l-.037.131h-.124v-.004zM406.901 308.323h.498c.535 0 .79-.4.79-1.059 0-.666-.393-.898-.819-.898h-.468v1.957h-.001zm-1.403 2.2v-.202c.513-.075.606-.056.606-.378v-3.087c0-.427-.045-.58-.591-.554v-.21h2.14c.73 0 1.403.341 1.403 1.1 0 .621-.408 1.078-.988 1.257l.688.962c.322.423.681.838.92.98v.131h-.819c-.389 0-.73-.819-1.497-1.916h-.46v1.381c0 .277.094.258.614.333v.202l-2.016.001zm2.076 1.183c1.863 0 3.297-1.587 3.297-3.383 0-1.792-1.411-3.401-3.297-3.401-1.878 0-3.311 1.613-3.311 3.401 0 1.796 1.433 3.383 3.311 3.383m0-7.562c2.384 0 4.172 1.841 4.172 4.18 0 2.342-1.792 4.157-4.172 4.157s-4.18-1.815-4.18-4.157c-.003-2.339 1.797-4.18 4.18-4.18"/></svg>