<svg xmlns="http://www.w3.org/2000/svg" viewBox="0 0 473.94 473.94" style="enable-background:new 0 0 473.94 473.94" xml:space="preserve"><circle style="fill:#686969" cx="236.97" cy="236.97" r="236.97"/><path style="fill:#d2d2d2" d="M215.43 200.204h20.329s20.127-.408 19.921 17.889c-.206 13.616-19.513 15.656-19.513 15.656H215.43v-33.545zm60.815 65.669c.569 2.66 2.5 5.587 8.917 5.886 8.535.206 13.414-3.046 13.414-3.046v6.301s-9.351 2.238-13.822 2.238c-4.677 0-18.496-1.014-18.496-13.818 0-10.368 11.383-13.62 17.886-13.62 11.386.397 16.872 4.468 16.666 16.056-.004.167-18.732.036-24.565.003zm.026-5.089h15.6s0-5.89-7.525-5.89c-5.661-.003-7.51 3.046-8.075 5.89zm49.339-6.369c2.256-2.447 6.043-4.412 12.4-4.412 12.606 0 14.634 10.571 14.432 13.422-.206 2.848-1.22 13.62-15.854 13.62-5.53 0-8.913-1.882-10.982-4.228v3.413h-9.961v-36.591h9.961v14.776h.004zm8.539 16.943c5.897-.206 8.539-5.287 8.539-7.723 0-2.443-1.422-7.525-8.943-7.525-5.841 0-7.615 4.408-8.135 6.567v2.653c.513 2.189 2.305 6.028 8.539 6.028zm85.994-1.018.206 5.691s-4.677 1.014-7.723 1.014c-3.05 0-10.982-1.822-10.982-9.557v-11.787h-8.337v-5.283h8.337v-6.309h10.166v6.309h8.337v5.283h-8.337v10.163s0 5.081 4.067 5.081 4.266-.605 4.266-.605zm-30.9-64.646h11.787v28.254h9.964v-28.254h11.992v-5.897H389.24v5.897h.003zm-4.067 1.421 1.216-5.901s-5.078-2.23-14.02-2.23c-8.745 0-22.773 4.879-22.773 18.092 0 13.01 14.84 17.485 23.989 17.485 9.149 0 12.198-1.422 12.198-1.422l-1.014-6.511s-4.064 1.224-10.978 1.224c-6.709-.206-13.624-5.489-13.624-11.379.206-5.291 6.301-11.188 14.23-11.188 6.102.001 10.776 1.83 10.776 1.83zm-89.855-7.113s16.677-.812 16.677 8.947c0 8.337-9.56 8.947-9.56 8.947s2.645.404 3.865 2.238c1.014 1.624 7.719 13.818 7.719 13.818h-10.159s-1.631-2.028-2.44-3.454c-.614-1.422-2.436-4.468-2.436-4.468s-1.429-5.085-6.305-5.085c-.123 0-2.11-.075-3.663-.131v13.141h-9.755V200.01h16.056v-.008h.001zm-6.302 15.244h5.283s7.323-.408 7.727-4.879c.202-4.273-7.113-4.879-7.113-4.879h-5.897v9.758zm40.864 5.287h16.262v-6.305h-16.262v-7.723h17.687v-6.503h-27.648v33.945h27.846v-6.095h-17.886l.001-7.319zm39.645 26.021h9.961v-6.915h-9.961v6.915zm0 29.68h9.961v-25.811h-9.961v25.811zm-108.561-42.286h9.755v-33.945h-9.755v33.945zm-45.537 8.542h20.329s20.127-.408 19.921 17.889c-.206 13.62-19.513 15.652-19.513 15.652H215.43V242.49zm9.96 27.237h6.503s13.414-.816 13.414-11.173c0-10.376-14.223-11.394-14.223-11.394h-5.695l.001 22.567zm0-42.282h6.503s13.414-1.014 13.414-11.18c0-10.567-14.223-11.386-14.223-11.386h-5.695l.001 22.566zM124.156 220.414v68.018s-39.442-7.109-39.442-34.151c-.004-21.56 29.194-31.068 39.442-33.867zm0-1.265c-23.708-1.717-77.451 9.392-77.451 33.71 0 15.854 28.456 39.038 74.806 39.641 1.833 0 54.484-2.036 53.672-58.548-.685-47.468-36.213-55.775-47.573-57.231v-2.885c45.291 2.877 80.912 30.11 80.912 63.169 0 34.967-39.843 63.427-88.838 63.427s-88.635-28.46-88.635-63.427 39.644-63.423 88.635-63.423c1.497 0 2.99.03 4.471.079l.001 45.488z"/></svg>