<svg xmlns="http://www.w3.org/2000/svg" viewBox="0 0 473.94 473.94" style="enable-background:new 0 0 473.94 473.94" xml:space="preserve"><circle style="fill:#f3f2f2" cx="236.97" cy="236.97" r="236.97"/><path style="fill:#ee3b3f" d="M103.876 196.159c-46.2-.007-47.992 35.951-47.76 45.291 0 0-2.26 42.043 46.63 42.043 42.005 0 44.071-26.38 44.071-26.38l-19.326.034s-3.764 14.537-24.67 14.148c-26.874-.498-27.917-26.537-27.917-26.537h74.45c.003 0 5.653-48.587-45.478-48.599zm-28.355 35.847s1.325-23.543 27.899-23.555c26.473-.007 26.473 23.555 26.473 23.555H75.521z"/><path style="fill:#0468b2" d="M201.076 196.159c-23.229-.131-33.223 13.751-33.223 13.751v-46.454H149.23l.314 98.188s-.112 11.435-.816 18.99h18.084l.775-11.027s8.438 13.886 33.092 13.886c24.662 0 44.127-15.18 44.647-43.341.517-28.161-21.021-43.869-44.25-43.993zm-4.269 74.78c-29.336.374-28.86-31.105-28.86-31.105s-1.066-30.308 28.812-31.083c29.874-.778 28.909 31.727 28.909 31.727s.474 30.094-28.861 30.461z"/><path style="fill:#f7ab1b" d="M331.365 261.259c.045-12.703.415-24.041 0-32.041-.49-9.276.389-31.659-39.712-33.317 0 0-38.443-3.502-42.436 25.111h19.663s1.527-13.107 21.478-12.73c18.881.359 22.324 9.616 22.222 21.003 0 0-16.187.052-21.586.075-9.736.049-43.79 1.13-46.971 21.874-3.783 24.67 18.23 32.359 35.457 32.265 17.231-.094 27.053-5.253 34.361-14.499l.778 11.484 17.134-.101c.001-.007-.44-6.428-.388-19.124zM282.7 271.62s-18.66.026-19.76-14.889c-1.167-15.914 28.714-14.952 28.714-14.952l21.115-.026c-.004 0 3.412 30.301-30.069 29.867z"/><path style="fill:#6bb745" d="M321.176 199.273h21.609l31.596 63.008 31.667-63.008h19.535l-57.174 112.321h-20.89l16.546-31.218z"/><path style="fill:#231f20" d="M432.891 203.767v-2.327h-.715v-.864h.715v-1.212h1.302v1.212h1.523v.864h-1.523v2.166c0 .397.254.554.696.554.292 0 .55-.052.812-.15v.831a2.842 2.842 0 0 1-1.171.228c-.965 0-1.639-.326-1.639-1.302zM437.037 200.575h1.298v.67c.367-.393.857-.76 1.732-.76.812 0 1.396.311 1.695.778.453-.468 1.051-.778 1.916-.778 1.227 0 1.983.61 1.983 1.691v2.821h-1.298v-2.514c0-.703-.419-1.081-1.156-1.081-.703 0-1.209.389-1.209 1.096v2.5h-1.302v-2.518c0-.688-.427-1.078-1.152-1.078-.715 0-1.212.419-1.212 1.096v2.5h-1.298v-4.423h.003z"/></svg>