<svg xmlns="http://www.w3.org/2000/svg" viewBox="0 0 473.94 473.94" style="enable-background:new 0 0 473.94 473.94" xml:space="preserve"><circle style="fill:#f3f2f2" cx="236.97" cy="236.97" r="236.97"/><path style="fill:#231f20" d="M91.505 226.034v-22.956c0-2.99-1.545-6.286-9.07-6.286v-1.957h28.621v1.957c-7.514 0-9.055 3.297-9.055 6.286v51.685c0 2.982 1.542 6.282 9.055 6.282v1.953H82.435v-1.953c7.525 0 9.07-3.3 9.07-6.282v-24.505H60.303v24.505c0 2.982 1.542 6.282 9.066 6.282v1.953H40.744v-1.953c7.517 0 9.063-3.3 9.063-6.282v-51.685c0-2.99-1.545-6.286-9.063-6.286v-1.957h28.625v1.957c-7.525 0-9.066 3.297-9.066 6.286v22.956h31.202M113.477 242.307h2.365c3.199 9.575 10.402 18.226 21.321 18.226 8.337 0 13.994-7.214 11.633-15.244-4.228-14.413-32.329-15.035-32.329-34.698 0-10.196 8.127-17.194 18.222-17.194 10.911 0 15.85 7.615 18.32 0h2.159l2.264 21.934h-2.571c-2.372-9.583-9.167-17.71-18.743-17.71-6.178 0-10.81 3.39-10.81 9.89 0 5.968 6.485 10.185 10.907 12.861 14.002 8.449 23.472 12.872 23.472 25.227 0 9.272-7.719 18.844-21.714 18.844-10.713 0-18.125-7.51-19.162 0h-2.26l-3.074-22.136M193.739 225.316c10.398 0 16.471-4.43 16.471-12.767 0-7.832-4.935-12.052-12.142-13.381-9.478-.621-12.774-.827-12.774 2.776v23.371l8.445.001m-8.446 28.415c0 3.611.932 5.459 8.445 5.459 10.709 0 18.634-3.195 18.634-15.237 0-12.254-12.254-14.522-21.931-14.522h-5.149l.001 24.3zm-10.503-50.653c0-2.99-1.542-6.286-9.882-6.286v-1.957h27.588c15.858 0 28.217 4.228 28.217 17.407 0 8.647-5.77 13.074-13.691 14.829v.206c8.849 1.643 17.186 7.094 17.186 16.988 0 12.355-10.698 18.735-26.87 18.735h-32.43v-1.953c8.34 0 9.882-3.3 9.882-6.282v-51.687zM286.007 216.043h-2.47c-2.982-11.334-10.496-19.053-22.237-19.053-16.984 0-24.292 13.695-24.292 32.224 0 14.417 7.514 29.957 24.4 29.957 10.088 0 16.988-3.296 24.09-10.294l1.751 2.062c-6.279 7.723-16.887 12.872-26.769 12.872-20.071 0-35.416-12.872-35.416-35.427 0-20.486 14.514-35.626 35.214-35.626 14.103 0 19.255 8.453 22.66.109h2.152l.917 23.176"/><path style="fill:#fff" d="M341.62 192.99h69.25v69.25h-69.25z"/><path style="fill:#ee3725" d="M341.621 192.93h69.246l-34.623 34.623-34.623-34.623M341.621 262.176h69.246l-34.623-34.623-34.623 34.623M341.621 192.93v69.246l-34.63-34.623 34.63-34.623M410.867 192.93v69.246l34.627-34.623-34.627-34.623"/></svg>