<svg xmlns="http://www.w3.org/2000/svg" viewBox="0 0 473.94 473.94" style="enable-background:new 0 0 473.94 473.94" xml:space="preserve"><circle style="fill:#f3f2f2" cx="236.97" cy="236.97" r="236.97"/><path d="M127.93 250.85h53.02v88.04h-53.02z"/><circle cx="154.91" cy="206.84" r="30.01"/><path d="M281.358 88.47H91.142v288.475h190.216v-.06c41.549-.569 74.461-10.881 97.821-30.761 28.415-24.172 42.817-62.33 42.817-113.424 0-24.415-3.794-46.327-11.263-65.107-7.147-17.964-17.713-33.246-31.397-45.406-24.101-21.418-57.93-33.002-97.982-33.657v-.06h.004zm-3.596 19.158c36.864 0 67.587 9.983 88.852 28.883 24.03 21.365 36.22 53.732 36.22 96.193 0 84.16-40.912 125.08-125.072 125.08H110.296V107.632c16.83-.004 160.925-.004 167.466-.004z"/><path style="fill:#cc1b69" d="M272.524 338.977H205.28V130.95h67.243-2.713c56.082 0 115.781 22.133 115.781 104.283 0 86.846-59.7 103.744-115.781 103.744h2.714z"/><path style="fill:#fff" d="M193.685 184.652h18.469c4.165 0 7.338.314 9.523.954 2.937.864 5.444 2.406 7.543 4.606 2.092 2.215 3.689 4.913 4.778 8.112 1.089 3.195 1.639 7.139 1.639 11.831 0 4.116-.52 7.671-1.534 10.649-1.257 3.648-3.042 6.593-5.358 8.846-1.755 1.706-4.123 3.038-7.094 3.992-2.238.703-5.22 1.059-8.947 1.059h-19.016v-50.05h-.003v.001zm10.091 8.486v33.085h7.562c2.829 0 4.876-.161 6.125-.479 1.643-.404 3.005-1.1 4.086-2.077 1.089-.977 1.964-2.586 2.653-4.827.688-2.238 1.029-5.283 1.029-9.141 0-3.865-.344-6.825-1.029-8.894s-1.639-3.674-2.874-4.838c-1.227-1.164-2.799-1.946-4.685-2.354-1.418-.318-4.187-.475-8.318-.475h-4.549z"/><path style="fill:#fff" d="M192.315 183.279v52.792h20.381c3.85 0 7.001-.382 9.354-1.123 3.173-1.014 5.736-2.466 7.637-4.318 2.462-2.395 4.385-5.542 5.699-9.377 1.066-3.117 1.609-6.851 1.609-11.098 0-4.823-.576-8.95-1.71-12.269-1.156-3.375-2.866-6.271-5.078-8.614a18.166 18.166 0 0 0-8.15-4.98c-2.339-.681-5.575-1.014-9.908-1.014l-19.834.001zm19.835 2.739c4.011 0 7.091.303 9.141.898 2.683.797 5.014 2.215 6.93 4.239 1.946 2.054 3.45 4.614 4.479 7.607 1.036 3.042 1.557 6.874 1.557 11.394 0 3.948-.49 7.382-1.456 10.208-1.175 3.416-2.866 6.215-5.021 8.307-1.594 1.549-3.802 2.788-6.563 3.674-2.084.659-4.954.992-8.52.992h-17.65v-47.318l17.103-.001z"/><path style="fill:#fff" d="M202.411 191.761v35.824h8.932c2.975 0 5.085-.168 6.462-.516 1.848-.464 3.42-1.268 4.67-2.395 1.28-1.156 2.279-2.93 3.046-5.437.73-2.391 1.081-5.512 1.081-9.545 0-4.049-.359-7.094-1.096-9.324-.752-2.271-1.841-4.093-3.237-5.399-1.403-1.328-3.199-2.238-5.336-2.698-1.519-.344-4.333-.513-8.602-.513h-5.92v.003zm5.919 2.743c4.992 0 7.109.239 8.019.442 1.643.359 3.005 1.033 4.049 2.013 1.059.999 1.901 2.436 2.514 4.277.629 1.916.95 4.76.95 8.464 0 3.704-.322 6.649-.965 8.748-.606 1.983-1.366 3.398-2.26 4.202-.906.823-2.092 1.418-3.51 1.766-1.134.292-3.083.442-5.788.442h-6.189v-30.349c1.335-.005 3.18-.005 3.18-.005zM247.053 234.706v-50.054h37.051v8.486h-26.959v11.083h25.074v8.49h-25.074v13.511h27.917v8.486h-38.009v-.002z"/><path style="fill:#fff" d="M245.68 183.279v52.792h40.751v-11.218h-27.917v-10.78h25.074v-11.222h-25.074v-8.348h26.959v-11.225l-39.793.001zm37.051 2.739v5.744h-26.952v13.826h25.074v5.744h-25.074v16.254h27.91v5.747h-35.27v-47.318c2.444.003 31.873.003 34.312.003zM341.585 234.706h-11.001l-4.363-11.364h-19.996l-4.15 11.364h-10.72l19.453-50.054h10.758l20.019 50.054zm-18.607-19.843-6.9-18.548-6.761 18.548h13.661z"/><path style="fill:#fff" d="m309.874 183.279-20.512 52.792h13.672s3.588-9.83 4.142-11.356h18.103c.569 1.493 4.37 11.356 4.37 11.356h13.953l-21.107-52.792h-12.621zm10.765 2.739c.636 1.601 17.553 43.898 18.922 47.318h-8.03c-.569-1.489-4.37-11.356-4.37-11.356h-21.897s-3.588 9.837-4.135 11.356h-7.768c1.317-3.394 17.751-45.694 18.387-47.318h8.891z"/><path style="fill:#fff" d="M307.359 216.225h17.583l-8.879-23.869-8.704 23.869zm8.734-15.947c1.497 4.03 4.026 10.844 4.913 13.212h-9.736c.864-2.354 3.348-9.175 4.823-13.212zM350.027 234.706V185.06h10.092v41.159h25.148v8.486h-35.24v.001z"/><path style="fill:#fff" d="M348.661 183.694v52.377h37.979v-11.218h-25.156v-41.159h-12.823zm10.092 2.735v41.159h25.148v5.747h-32.508v-46.907l7.36.001z"/></svg>