<svg xmlns="http://www.w3.org/2000/svg" viewBox="0 0 473.94 473.94" style="enable-background:new 0 0 473.94 473.94" xml:space="preserve"><circle style="fill:#f3f2f2" cx="236.97" cy="236.97" r="236.97"/><path style="fill:#0f549d" d="M78.94 355.093h58.465c20.557 0 44.325-19.27 44.325-44.325V112.851h-56.531c-26.338 0-46.259 16.699-46.259 45.612v196.63z"/><path style="fill:#b41f36" d="M194.583 355.093h58.465c20.557 0 44.332-19.27 44.332-44.325V112.851h-56.538c-26.346 0-46.259 16.699-46.259 45.612v196.63z"/><path style="fill:#329947" d="M311.82 355.093h58.465c20.557 0 44.332-19.27 44.332-44.325V112.851h-56.534c-26.338 0-46.259 16.699-46.259 45.612v196.629h-.004v.001z"/><path style="fill:#f3f2f2" d="M78.704 240.988H62.648c4.501 17.99 25.695 32.13 49.47 32.13 21.844 0 51.397-12.213 51.397-35.341V196.02h-36.621v41.758c0 12.213-9.639 21.848-23.132 21.848-12.201-.004-23.127-7.712-25.058-18.638zM399.253 249.343c0 9.631-8.344 17.343-19.27 17.343h-80.945v-70.671h80.945c9.631 0 17.994 8.355 17.994 17.994 0 9.631-8.359 17.99-17.994 17.99 10.926-.002 19.27 7.709 19.27 17.344zm-69.383-21.2h25.059c6.425 0 12.206-5.781 12.206-12.213 0-6.417-5.781-12.206-12.206-12.206H329.87v24.419zm25.702 30.832c6.417 0 12.206-5.781 12.206-12.206s-5.788-12.206-12.206-12.206H329.87v24.408h25.702v.004zM279.67 254.481v12.206h-61.679c-19.27 0-35.333-16.06-35.333-35.333 0-19.266 16.063-35.333 35.333-35.333h61.679v12.853c-14.776-3.214-28.92-5.141-35.984-5.141-15.412 0-27.618 12.206-27.618 27.625s12.206 27.625 27.618 27.625c7.064-.008 21.208-1.288 35.984-4.502z"/></svg>