<svg xmlns="http://www.w3.org/2000/svg" viewBox="0 0 473.94 473.94" style="enable-background:new 0 0 473.94 473.94" xml:space="preserve"><circle style="fill:#f4c82e" cx="236.97" cy="236.97" r="236.97"/><path style="fill:#505f7c" d="M42.735 290.626h43.569v-34.559c9.306-.015 18.612.086 27.914-.067 1.388-.052 2.784-.037 4.165-.228 5.643-.367 11.263-1.358 16.101-2.975 4.831-1.616 8.887-3.779 12.303-6.32 3.424-2.544 6.2-5.452 8.46-8.894 2.26-3.45 3.989-7.424 5.108-11.932 1.126-4.509 1.639-9.56 1.497-14.447-.142-4.887-.935-9.624-2.26-13.74-1.328-4.116-3.195-7.622-5.643-10.713-2.44-3.091-5.459-5.766-9.063-7.981-3.596-2.2-7.768-3.94-12.875-5.122-5.108-1.182-11.15-1.71-17.167-1.71H42.735v118.688zm43.569-91.497c6.896.138 13.743-.505 20.673.599 1.482.254 2.941.688 4.232 1.25a13.97 13.97 0 0 1 3.39 2.054c4.711 4.209 5.579 8.819 4.733 14.024-.483 2.279-1.403 4.43-3.386 6.481-.879.906-1.934 1.71-3.169 2.425-4.296 2.544-10.267 3.035-15.843 3.005h-10.63v-29.838z"/><path style="fill:#505f7c" d="M125.652 291.027h43.573v-34.551c9.302-.03 18.6.075 27.917-.075 1.384-.06 2.78-.037 4.157-.228 5.639-.367 11.259-1.366 16.101-2.975 4.838-1.609 8.887-3.787 12.303-6.32 3.416-2.544 6.2-5.459 8.456-8.902 2.256-3.442 3.985-7.424 5.115-11.932 1.119-4.509 1.635-9.553 1.489-14.439-.138-4.89-.935-9.624-2.26-13.74-1.328-4.123-3.188-7.622-5.628-10.713-2.447-3.091-5.474-5.774-9.063-7.981-3.603-2.208-7.772-3.948-12.883-5.13-5.107-1.175-11.154-1.702-17.167-1.702h-72.111v118.688h.001zm43.573-91.498c6.885.138 13.736-.498 20.666.599 1.489.247 2.945.688 4.232 1.242 1.291.569 2.413 1.25 3.39 2.062 4.715 4.202 5.575 8.819 4.733 14.032-.486 2.271-1.396 4.423-3.386 6.481-.876.891-1.931 1.702-3.158 2.417-4.303 2.544-10.267 3.042-15.85 3.005h-10.627v-29.838z"/><path style="fill:#f4c82e" d="M125.895 254.836c1.882-.367 3.843-.644 5.781-1.25 4.284-1.059 8.367-2.885 11.955-5.051s6.657-4.745 9.212-7.783c2.548-3.042 4.584-6.541 6.069-10.537 1.482-3.989 2.425-8.464 2.776-13.141.355-4.67.12-9.538-.666-13.923-.793-4.385-2.133-8.295-3.977-11.715a32.57 32.57 0 0 0-7.068-8.939c-2.885-2.567-6.301-4.752-10.297-6.447-4.165-1.77-8.965-2.922-13.792-3.502v82.289l.007-.001z"/><path style="fill:#505f7c" d="M252.15 179.309h26.559c5.796 0 10.121 1.373 13.003 4.123 1.441 1.373 2.522 3.046 3.24 4.999.718 1.957 1.085 4.209 1.085 6.746 0 5.22-1.575 9.302-4.711 12.247-1.575 1.471-3.555 2.567-5.949 3.304-4.434 1.519-11.147 1.003-17.178 1.096v19.191H252.15v-51.706zm16.048 22.039h3.918c3.079 0 5.246-.535 6.488-1.609 1.429-1.242 1.856-2.623 1.871-4.108 0-1.624-.543-2.997-1.624-4.131-.546-.561-1.317-.988-2.339-1.265-1.968-.614-5.384-.374-8.318-.423v11.536h.004zM296.377 204.244c.513-2.398 1.261-4.288 2.238-5.665a10.746 10.746 0 0 1 1.785-1.923 14.413 14.413 0 0 1 2.432-1.658c2.687-1.557 8.378-2.324 12.905-2.294 4.307 0 7.76.247 10.368.73 1.31.239 2.507.614 3.588 1.119a11.93 11.93 0 0 1 2.941 1.893c2.305 1.886 3.936 6.327 3.948 10.058v16.542c.019 3.027.266 4.288.872 5.848.243.636.546 1.343.928 2.118h-13.478c-1.029-1.841-1.108-2.294-1.31-3.18a26.725 26.725 0 0 1-.24-1.403c-1.875 1.796-3.749 3.098-5.613 3.88-2.791 1.126-5.747 1.542-8.849 1.557-4.468 0-7.861-1.044-10.174-3.106-1.164-1.036-2.032-2.193-2.612-3.472-.572-1.272-.864-2.668-.864-4.187 0-1.426.206-2.72.629-3.888a9.11 9.11 0 0 1 1.878-3.136c.834-.913 2.017-1.71 3.562-2.398 1.534-.681 3.431-1.25 5.676-1.688 5.384-1.081 8.879-1.841 10.481-2.279a47.63 47.63 0 0 0 5.078-1.71c0-1.762-.367-2.997-1.093-3.704-1.018-.906-2.335-1.029-3.847-1.051-1.175 0-2.2.094-3.083.277-1.456.374-2.41.621-3.45 2.118-.37.546-.7 1.235-.977 2.047l-13.719-1.445zm26.17 8.995a69.146 69.146 0 0 1-6.174 1.871c-1.456.389-2.649.775-3.566 1.156-.928.382-1.579.752-1.968 1.134-.864.842-1.194 1.725-1.194 2.645 0 1.134.389 2.054 1.175 2.769.999.868 2.17 1.066 3.472 1.081a8.912 8.912 0 0 0 4.464-1.171c2.331-1.287 3.267-3.068 3.573-4.763.293-1.324.203-3.083.218-4.722zM336.785 193.55h15.15l7.723 24.943 7.173-24.943h14.151l-14.87 40.033c-.846 2.279-1.699 4.195-2.563 5.729-.861 1.542-1.736 2.713-2.619 3.514-1.246 1.126-2.818 1.972-4.715 2.537-1.897.569-4.127.849-6.672.849-1.033 0-2.35-.067-3.955-.213-1.598-.138-3.48-.352-5.639-.636l-1.126-10.013c2.215.703 4.516.988 6.911.995 1.684 0 3.057-.393 4.105-1.171.52-.389 1.007-.928 1.448-1.631.442-.696.849-1.534 1.212-2.544l-15.714-37.449zM252.15 239.652h26.559c5.796 0 10.121 1.381 13.003 4.131 1.441 1.373 2.522 3.042 3.24 5.006.718 1.949 1.085 4.202 1.085 6.739 0 5.224-1.575 9.302-4.711 12.239-1.575 1.47-3.555 2.574-5.949 3.304-4.434 1.527-11.147 1.01-17.178 1.104v19.191H252.15v-51.714zm16.048 22.047h3.918c3.079 0 5.246-.535 6.488-1.609 1.429-1.242 1.856-2.623 1.871-4.108 0-1.624-.543-2.997-1.624-4.131-.546-.561-1.317-.988-2.339-1.265-1.968-.621-5.384-.374-8.318-.43v11.543h.004zM301.765 258.616c1.931-1.856 4.187-3.237 6.799-4.165 2.601-.928 5.542-1.388 8.823-1.388 3.749 0 7.046.535 9.875 1.624 2.836 1.096 5.212 2.72 7.124 4.898a18.079 18.079 0 0 1 3.472 5.867c.767 2.155 1.156 4.516 1.156 7.083 0 5.759-1.916 10.481-5.732 14.155-1.912 1.841-4.191 3.222-6.829 4.15-2.642.913-5.65 1.373-9.025 1.373-3.012 0-5.736-.389-8.168-1.149-2.436-.76-4.58-1.916-6.436-3.435-2.286-1.901-3.992-4.086-5.134-6.571-1.145-2.477-1.706-5.253-1.706-8.325 0-5.706 1.924-10.421 5.781-14.117zm10.635 21.5c1.557 1.819 3.267 2.384 5.1 2.391 2.062 0 3.764-.79 5.093-2.361.666-.782 1.167-1.811 1.493-3.076.333-1.265.494-2.761.494-4.509 0-3.237-.666-5.658-2.009-7.252-1.527-1.792-3.195-2.369-4.969-2.376-2.095 0-3.82.804-5.186 2.417-.685.804-1.194 1.811-1.538 3.042-.337 1.227-.513 2.668-.513 4.303.003 3.35.68 5.812 2.035 7.421zM366.872 253.901h13.373v6.103c1.998-2.492 4.026-4.277 6.065-5.343 2.32-1.197 4.816-1.601 7.48-1.601 3.974 0 7.087 1.175 9.332 3.536 1.119 1.182 1.961 2.69 2.526 4.516.561 1.818.842 3.978.842 6.44v23.809h-14.424v-20.595c0-2.361-.434-4.019-1.31-4.999-1.066-1.164-2.301-1.441-3.667-1.463-1.736 0-3.147.659-4.232 1.972-.543.659-.943 1.579-1.212 2.761s-.408 2.623-.408 4.325v17.994h-14.361v-37.455h-.004zM430.83 239.652v14.252h7.903v10.518h-7.903v13.272c0 .797.041 1.463.112 1.979.079.535.198.928.348 1.182 1.351 1.755 2.709 1.197 4.37.973.745-.161 1.59-.382 2.541-.688l1.059 9.908c-3.383.737-6.702 1.164-9.946 1.164-3.573 0-6.211-.46-7.899-1.373-1.695-.92-2.945-2.309-3.757-4.172-.404-.935-.707-2.163-.909-3.667-.21-1.519-.303-3.311-.303-5.399v-13.175h-5.295v-10.518h5.295v-6.877l14.384-7.379zM344.92 253.9h14.361v37.455H344.92z"/></svg>