<svg xmlns="http://www.w3.org/2000/svg" viewBox="0 0 473.94 473.94" style="enable-background:new 0 0 473.94 473.94" xml:space="preserve"><circle style="fill:#f3f2f2" cx="236.97" cy="236.97" r="236.97"/><path style="fill:#0c4875" d="M85.387 217.074c0 6.234-1.957 7.876-5.942 7.876H63.831v-15.764h15.614c3.981.005 5.942 1.651 5.942 7.888m12.748 0c0-9.59-2.904-15.214-8.131-17.306-2.413-.95-5.392-1.074-9.055-1.074H53.784a2.59 2.59 0 0 0-2.593 2.593v46.649a2.596 2.596 0 0 0 2.593 2.578h7.513c1.403 0 2.533-1.175 2.533-2.578v-12.483h17.119c3.663 0 6.642-.123 9.055-1.089 5.228-2.079 8.131-7.692 8.131-17.29m11.566-22.375v59.793c0 3.626-2.99 6.6-6.627 6.6h-59.79c-3.626 0-6.574-2.975-6.574-6.6v-59.793c0-3.596 2.949-6.578 6.574-6.578h59.79c3.637 0 6.627 2.982 6.627 6.578m20.258 14.529a2.573 2.573 0 0 0-2.578-2.578h-7.502c-1.437 0-2.601 1.164-2.601 2.578v38.72c0 1.396 1.167 2.578 2.601 2.578h7.502a2.585 2.585 0 0 0 2.578-2.578v-38.72zm25.556 7.386c3.581-.161 7.611.284 9.736.505 1.949.161 2.649-.546 2.649-2.2v-4.816c0-1.717-.726-2.544-2.387-2.967-1.126-.299-4.464-1.029-9.998-1.01-17.175.079-18.219 15.809-18.473 18.761-.217 2.698-.195 4.905 0 7.469.206 2.945 1.298 18.694 18.473 18.761 5.534.022 9.074-.767 9.998-1.003 1.658-.393 2.387-1.265 2.387-2.99v-4.793c0-1.833-.883-2.425-2.84-2.2-2.619.284-6.825.591-9.545.498-3.981-.131-5.964-2.406-6.387-8.572a57.169 57.169 0 0 1 0-6.877c.423-6.152 2.402-8.405 6.387-8.566m55.247 33.912h-9.53c-1.616 0-2.69-1.227-3.192-1.916l-10.836-14.746v14.024c0 1.411-1.212 2.638-2.664 2.638h-7.304c-1.463 0-2.675-1.227-2.675-2.638v-53.227c0-1.411 1.171-2.578 2.675-2.578h7.304c1.471 0 2.664 1.171 2.664 2.578v28.071l11.992-14.806c.797-.95 1.553-1.28 2.66-1.28h8.527c1.931 0 2.885 1.265 1.527 3.158l-15.12 17.781 15.457 20.22c1.288 1.711.143 2.721-1.485 2.721"/><path style="fill:#d32259" d="M266.043 221.733v26.114a2.59 2.59 0 0 1-2.608 2.578h-7.446c-1.426 0-2.593-1.171-2.593-2.578v-25.736c0-3.267-.46-5.298-6.81-5.298-3.3 0-5.021.408-7.36.782v30.349c0 1.396-1.141 2.578-2.567 2.578h-7.517a2.577 2.577 0 0 1-2.574-2.578v-36.737c0-.812.064-2.148 1.811-2.698 3.046-.95 10.189-2.432 17.38-2.432 15.135 0 20.284 5.707 20.284 15.656m181.176 25.291c0 13.687-5.643 19.936-20.011 19.936-5.343 0-10.23-.696-13.717-1.811-1.635-.475-2.294-1.411-2.294-2.859v-4.311c0-1.456.939-2.47 2.537-2.155 3.772.767 8.329 1.227 12.696 1.227 7.035 0 8.108-1.695 8.108-7.27-2.586.46-5.332.797-8.075.797-12.872 0-18.039-4.142-18.039-15.704v-25.717a2.579 2.579 0 0 1 2.574-2.574h7.483a2.578 2.578 0 0 1 2.593 2.574v25.93c0 4.131 2.219 5.721 7.345 5.721 2.118 0 4.415-.475 6.129-.905v-30.746a2.574 2.574 0 0 1 2.578-2.574h7.48c1.437 0 2.615 1.149 2.615 2.574v37.867h-.002zm-110.842-12.655c-2.406.965-5.407 1.089-9.07 1.089H310.2v12.483c0 1.403-1.13 2.578-2.552 2.578h-7.491c-1.437 0-2.608-1.175-2.608-2.578v-46.648a2.602 2.602 0 0 1 2.608-2.593h27.15c3.663 0 6.664.123 9.07 1.074 5.205 2.092 8.142 7.719 8.142 17.306 0 9.592-2.941 15.205-8.142 17.289m13.066-46.248h-59.801c-3.626 0-6.571 2.982-6.571 6.578v59.793c0 3.626 2.945 6.6 6.571 6.6h59.801c3.626 0 6.604-2.975 6.604-6.6v-59.793c0-3.596-2.978-6.578-6.604-6.578m-23.64 21.07H310.2v15.764h15.603c3.981 0 5.934-1.643 5.934-7.876 0-6.242-1.953-7.888-5.934-7.888m62.045 32.048c-.984.168-4.67.359-6.039.359-4.864 0-6.769-1.527-6.769-5.452 0-3.42 2.354-4.685 5.216-5.107 1.994-.314 5.085-.254 7.592-.094v10.294zm-5.638-35.229c-5.134 0-9.863.73-12.883 1.549-1.661.423-2.327 1.317-2.327 2.638v4.325c0 1.833 1.096 2.623 2.9 2.354 3.195-.445 7.091-.943 11.281-.943 5.74 0 6.668 1.594 6.668 4.707v1.777c-4.202-.191-9.291-.191-13.257.621-7.083 1.448-11.498 5.568-11.498 14.054 0 9.777 5.646 13.957 18.439 13.908 6.926 0 12.55-.46 16.389-1.31 1.302-.277 2.238-1.557 2.238-3.259v-25.096c-.005-8.264-1.487-15.325-17.95-15.325"/><path style="fill:#0c4875" d="M40.737 309.182h-1.56c-1.396 0-2.193-.475-2.193-1.972v-20.542c0-1.755 1.381-1.856 2.193-1.856h1.56c1.568 0 1.968.913 1.968 1.856v20.542c0 1.268-.614 1.972-1.968 1.972M61.825 309.182h-1.313c-1.452 0-2.331-.292-2.331-1.972v-9.01c0-1.643-.075-2.559-.984-2.559-1.467 0-2.739.696-4.093 1.747v9.822c0 1.096-.438 1.972-1.86 1.972H49.93c-1.463 0-2.335-.292-2.335-1.972v-13.571c0-1.433.73-1.938 2.006-1.938h1.639c.801 0 1.239.367 1.53.804 1.497-.876 3.065-1.343 4.853-1.343 4.816 0 6.058 2.881 6.058 5.253v10.795c.008 1.092-.43 1.972-1.856 1.972M75.071 309.664c-2.369 0-4.12-.079-5.287-.236-.988-.101-1.388-.183-1.388-2.047 0-1.051-.187-2.653 1.463-2.653.288 0 2.522.43 5.729.43 1.137 0 1.418-.146 1.418-.95 0-.4 0-.767-.138-.876-.696-.651-5.807-1.197-7.592-2.806-.876-.804-1.272-2.084-1.272-3.611 0-5.545 3.824-5.759 8.722-5.759.943 0 1.815 0 2.728.06 1.497.116 2.234.483 2.234 2.125 0 1.381-.037 2.586-1.759 2.586-.801 0-2.327-.292-4.853-.292-1.422 0-1.714.037-1.714 1.029 0 .651.292.688 2.776 1.411 3.719 1.104 6.234 1.295 6.234 5.774-.005 4.558-1.898 5.815-7.301 5.815M97.843 296.516c-.112-.546-.479-.842-1.022-.842-1.13 0-3.064.876-4.445 1.68v7.375c.95.254 1.964.4 2.99.4.767 0 1.126-.075 1.493-.236.625-.24 1.347-.943 1.347-4.4-.004-1.238-.179-3.248-.363-3.977m4.816 9.567c-1.355 2.44-4.082 3.581-7.368 3.581-.917 0-1.942-.079-2.919-.269v5.373c0 1.126-.445 2.039-1.863 2.039h-1.321c-1.456 0-2.327-.292-2.327-2.039v-21.1c0-1.463.73-1.964 2.002-1.964h1.643c.876 0 1.351.438 1.609.95 1.564-.775 3.353-1.489 5.283-1.489 5.549 0 6.354 4.853 6.354 9.223.003 2.945-.255 4.188-1.093 5.695M111.561 309.182h-1.377c-1.463 0-2.339-.337-2.339-2.047V293.71c0-1.463.726-2.009 2.002-2.009h1.714c1.463 0 1.905 1.242 1.905 2.009v13.425c-.001 1.134-.476 2.047-1.905 2.047m0-19.895h-1.377c-1.463 0-2.339-.284-2.339-2.002v-1.242c0-1.463.726-1.964 2.002-1.964h1.714c1.463 0 1.905 1.197 1.905 1.964v1.242c-.001 1.134-.476 2.002-1.905 2.002M128.204 295.966c-2.23 0-3.214.546-4.524 1.351v9.889c0 1.096-.475 1.972-1.905 1.972h-1.384c-1.463 0-2.335-.292-2.335-1.972v-13.571c0-1.433.733-1.938 2.006-1.938h1.714c.913 0 1.429.438 1.68.95 1.276-.629 2.806-1.489 4.486-1.489.872 0 2.047.359 2.047 1.594v1.212c.004.872-.258 2.002-1.785 2.002M143.126 297.605c0-1.639-.333-2.331-2.447-2.331-2.335 0-2.814 1.021-2.847 3.207h5.295m3.243 3.61h-8.58c-.109 2.376.37 3.427 3.072 3.427 1.635 0 3.203-.284 4.778-.621.438-.101.76-.176.947-.176 1.422 0 1.493 1.456 1.493 2.485 0 .913-.258 1.747-1.68 1.964-1.815.292-3.977.475-5.583.475-6.855 0-8.393-3.098-8.393-9.126 0-5.759 1.137-9.369 8.213-9.369 6.604 0 7.697 3.573 7.697 8.426.004 2.377-.433 2.515-1.964 2.515M162.662 296.28c-1.171-.262-2.331-.4-3.18-.4-.733 0-.98.075-1.272.228-.621.314-1.283 1.456-1.283 5.212 0 1.564.232 4.019 2.268 4.019.906 0 2.26-.475 3.465-1.396m3.613 5.478H165c-.913 0-1.609-.116-2.017-.629-1.639.73-3.053 1.059-4.557 1.059-4.741 0-7.038-3.573-7.038-8.98 0-6.342 2.619-9.515 8.243-9.515.947 0 2.08.101 3.031.221v-5.328c0-1.463.73-1.972 2.006-1.972h1.605c1.463 0 1.901 1.205 1.901 1.972v21.126c-.001 1.133-.48 2.046-1.901 2.046M191.889 296.939c-.183-.804-.367-1.059-1.818-1.059-.812 0-2.2.191-3.36.4v8.801c.842.138 1.826.254 2.586.254 1.717 0 2.301-.52 2.518-1.175.258-.767.404-2.286.404-3.978-.005-1.305-.083-2.147-.33-3.243m-2.668 12.92c-1.564 0-3.719-.109-5.912-.43-1.164-.198-2.11-.674-2.11-2.017v-21.163c0-1.463.726-1.964 2.006-1.964h1.639c1.463 0 1.863 1.197 1.863 1.964v5.399c1.205-.146 2.735-.284 4.086-.284 5.145 0 7.008 2.66 7.008 8.894 0 6.716-2.339 9.601-8.58 9.601M217.643 294.024l-8.06 21.515c-.4 1.111-1.018 1.351-2.189 1.351h-1.826c-.73 0-1.68-.206-1.68-1.351 0-.359.146-.688.292-1.014l2.705-6.05-5.991-14.447a2.21 2.21 0 0 1-.138-.722c0-.891.984-1.396 1.669-1.396h1.65c1.785 0 2.14.322 2.44 1.28l2.919 9.078 2.702-8.681c.4-1.28 1.093-1.673 2.406-1.673h1.613c.655 0 1.635.322 1.635 1.463l-.147.647M244.068 294.024l-8.06 21.515c-.4 1.111-1.025 1.351-2.193 1.351h-1.826c-.73 0-1.673-.206-1.673-1.351 0-.359.146-.688.288-1.014l2.702-6.05-5.987-14.447a2.052 2.052 0 0 1-.146-.722c0-.891.984-1.396 1.68-1.396h1.643c1.785 0 2.148.322 2.44 1.28l2.919 9.078 2.702-8.681c.393-1.28 1.096-1.673 2.406-1.673h1.609c.659 0 1.643.322 1.643 1.463l-.147.647M257.815 296.793c-.322-.576-.546-.913-2.623-.913-2.08 0-2.331.337-2.668.913-.363.688-.621 1.792-.621 3.835 0 2.017.221 3.166.621 3.828.337.546.587.876 2.668.876 2.077 0 2.301-.329 2.623-.876.4-.666.625-1.811.625-3.828 0-2.043-.225-3.147-.625-3.835m-2.623 13.066c-6.387 0-8.827-3.573-8.827-9.231s2.44-9.268 8.827-9.268c6.387 0 8.793 3.611 8.793 9.268 0 5.658-2.406 9.231-8.793 9.231M281.279 309.384h-1.643c-.76 0-1.235-.475-1.53-.913-1.493.876-3.057 1.388-4.849 1.388-4.782 0-6.058-2.922-6.058-5.291V293.87c0-1.089.438-1.964 1.856-1.964h1.317c1.463 0 2.335.299 2.335 1.964v8.909c0 1.601.112 2.559.947 2.559 1.463 0 2.488-.591 4.127-1.747v-9.721c0-1.089.442-1.964 1.86-1.964h1.321c1.459 0 2.335.299 2.335 1.964v13.579c-.008 1.426-.738 1.935-2.018 1.935"/></svg>