<svg xmlns="http://www.w3.org/2000/svg" viewBox="0 0 473.94 473.94" style="enable-background:new 0 0 473.94 473.94" xml:space="preserve"><circle style="fill:#f5e11c" cx="236.97" cy="236.97" r="236.97"/><path style="fill:#0356a2" d="M66.638 204.616c2.253-.935 4.861-1.313 7.293-1.313 4.853 0 8.965 1.497 11.955 4.486 3.181 2.99 4.868 7.289 5.414 12.52.382 3.742 0 7.85-1.119 12.146-.935 4.296-2.425 8.03-4.486 11.214-2.238 3.921-5.224 6.915-8.965 8.965-2.99 1.867-6.35 2.803-10.092 3.177v-7.469c1.317-.382 2.616-.935 3.742-1.497 2.432-1.497 4.486-3.738 6.166-6.724a40.806 40.806 0 0 0 3.925-9.721c.928-3.551 1.119-6.915.928-10.092-.374-3.36-1.489-5.979-3.36-8.03-2.054-2.058-4.67-2.99-7.659-2.99-1.31 0-2.616.183-3.742.561v-5.233zm-33.067 69.133 12.89-56.617c.382-2.241.745-4.292 1.119-6.537.191-2.245.382-4.303.561-6.541h8.973l-.752 7.659c2.806-2.799 5.613-5.048 8.412-6.35.561-.382 1.31-.561 1.863-.748v5.235c-1.302.37-2.608 1.119-3.925 1.863-2.417 1.68-4.479 4.116-5.979 7.102-1.68 2.99-2.99 6.533-3.918 10.458-.935 4.116-1.126 7.285-.935 9.908.183 2.986 1.31 5.224 3.173 7.094 1.871 1.68 4.303 2.616 7.285 2.616 1.497 0 2.997-.187 4.296-.554v7.469h-1.68c-3.543 0-6.35-.745-8.965-2.054-2.425-1.31-4.67-3.368-6.541-5.983l-5.979 25.972h-9.897v.008h-.001zM306.385 212.088c-1.119 0-2.054.191-3.173.374v-7.285c.554-.191.928-.374 1.31-.558 2.608-1.313 5.605-1.871 8.778-1.871 4.861 0 8.786 1.493 11.585 4.299 2.806 2.806 4.486 6.915 4.861 12.329.935 10.092-.935 18.687-5.796 25.601-4.67 7.102-11.02 10.653-18.87 10.653-.554 0-1.31-.187-1.863-.187v-9.721c1.119-.183 2.238-.748 3.173-1.493 1.68-1.31 2.99-3.177 4.296-5.796a45.747 45.747 0 0 0 3.181-9.34c.745-3.364.935-6.166.745-8.595-.183-2.803-1.119-4.861-2.425-6.166-1.506-1.492-3.377-2.244-5.802-2.244zm-3.173.374c-2.997.935-5.613 3.368-7.667 6.915-2.99 5.044-4.116 10.657-3.543 16.819.367 3.177 1.119 5.609 2.799 7.282 1.489 1.688 3.551 2.623 6.159 2.623.752 0 1.497-.191 2.253-.378v9.717c-2.806-.183-5.238-.935-7.293-2.054-2.616-1.31-4.67-3.551-6.159-6.35l-5.987 26.716h-15.51l11.962-54.181c1.489-6.919 2.425-12.15 2.799-15.513h14.017l-.374 6.163c2.238-2.058 4.288-3.738 6.541-5.048v7.289h.003zM364.682 230.588c-.374-.187-.745-.187-1.119-.187h-1.68c-2.432 0-4.67.187-6.541.745v-8.221c2.054-.187 4.486-.187 6.915-.187h4.296c.374-1.867.745-3.173.745-4.299.191-.935.191-1.673.191-2.425-.191-1.497-.745-2.616-1.871-3.36-.935-.745-2.425-1.126-4.296-1.126-2.245 0-3.925.561-5.044 1.497-.382.374-.745.558-.935 1.126v-10.47c1.871-.378 3.925-.378 5.979-.378 6.541 0 11.401.935 14.952 3.181 3.36 2.245 5.231 5.422 5.605 9.717.191 1.306.191 2.619 0 4.112-.191 1.31-.561 2.99-.943 4.677l-3.918 17.186c-.561 2.058-.745 4.112-1.126 6.357-.183 2.238-.183 4.292-.183 6.537h-14.2v-3.551c0-1.306.183-2.425.183-3.738-1.863 2.612-4.108 4.673-6.35 5.796v-7.854c1.497-.748 2.99-1.867 4.486-3.551 2.426-2.986 4.11-6.915 4.854-11.584zm-9.339.561c-2.054.561-3.734 1.31-5.231 2.428-3.181 2.054-4.479 4.673-4.116 7.663 0 1.68.561 2.99 1.688 3.925.935.935 2.238 1.31 3.925 1.31 1.31 0 2.616-.191 3.734-.748v7.85l-.382.187c-2.417 1.31-5.044 2.054-8.213 2.054-4.486 0-8.037-1.31-10.836-3.734-2.806-2.428-4.296-5.605-4.67-9.721-.561-6.35 1.863-11.21 7.094-14.574 4.108-2.616 9.721-4.296 17.006-4.861l.001 8.221zm0-27.469v10.47c-.745.932-1.119 2.238-1.497 3.734h-14.754c.374-4.677 2.615-8.221 6.35-10.836 2.795-1.684 5.976-2.81 9.901-3.368zM384.495 273.57l12.329-18.687-8.969-51.203h15.326l4.296 35.136 19.805-35.136h14.582l-31.772 53.257-9.156 16.633zM120.646 208.915c-1.31 0-2.432.183-3.734.554v-6.533c1.489-.195 3.173-.195 4.853-.195 5.979 0 10.657 1.493 14.208 4.299 3.734 2.99 5.605 7.102 6.159 12.329.382 4.116 0 8.602-1.31 13.268-1.119 4.673-2.799 8.782-5.044 12.146-2.616 3.925-5.605 6.728-9.34 8.408-2.623 1.31-5.796 2.062-9.53 2.428v-6.529c1.489-.378 2.99-.935 4.108-1.68 2.245-1.31 4.116-3.368 5.789-6.166 1.871-3.181 3.188-6.731 4.116-10.653.935-4.112 1.31-7.472 1.126-10.466-.382-3.925-1.497-6.728-3.368-8.408-1.874-1.866-4.482-2.802-8.033-2.802zm-3.734.558c-1.317.382-2.806.935-4.116 1.684-2.245 1.684-4.296 3.925-5.979 6.915-1.68 2.803-2.997 6.163-3.925 10.271-.935 4.116-1.126 7.667-.935 10.657.183 3.36 1.489 5.792 3.36 7.663 2.062 1.871 4.677 2.803 8.03 2.803 1.31 0 2.432-.191 3.558-.374v6.537c-1.317 0-2.806.187-4.303.187-5.979 0-10.836-1.489-14.383-4.67-3.742-2.99-5.796-7.285-6.166-12.707-.374-4.479 0-8.965 1.489-13.822 1.317-4.861 3.181-8.969 5.796-12.524 2.425-3.173 5.414-5.418 9.156-7.102 2.432-.928 5.422-1.68 8.412-2.047v6.529h.006zM152.414 238.251c-.374.935-.569 1.68-.569 2.425-.183.745-.183 1.31 0 1.871.198 2.058.943 3.551 2.432 4.486 1.489 1.119 3.551 1.493 6.541 1.493 3.925 0 6.915-.752 9.156-2.249 2.245-1.676 3.181-3.734 2.997-6.159 0-1.497-.752-2.806-2.069-3.929-1.302-1.123-3.918-2.616-8.03-4.483-5.231-2.432-8.965-4.67-11.027-6.724-2.238-1.871-3.353-4.299-3.543-6.919-.374-4.486 1.31-8.034 4.861-11.023 3.742-2.806 8.786-4.299 15.136-4.299 5.796 0 10.092.935 12.89 2.619 2.99 1.68 4.486 4.108 4.861 7.659v1.871c0 .554 0 1.489-.191 2.803h-9.156v-2.803c-.183-1.871-.928-3.368-2.425-4.296-1.302-.935-3.368-1.497-6.166-1.497-3.173 0-5.605.752-7.285 2.058-1.863 1.306-2.616 3.177-2.432 5.418.191 1.31.752 2.616 2.062 3.547 1.119 1.123 3.925 2.616 8.221 4.67 5.979 2.806 10.092 5.235 11.772 7.106a11.684 11.684 0 0 1 2.99 7.094c.374 4.673-1.489 8.782-5.979 11.962-4.296 3.173-10.092 4.853-17.197 4.853-5.605 0-9.901-1.123-13.265-2.99-3.181-2.058-4.861-4.861-5.231-8.595-.183-.752-.183-1.68 0-2.806.191-.935.374-2.054.561-3.173h10.088v.01h-.003zM213.884 255.066c-1.863.191-3.543.374-5.044.558-1.489 0-2.99.187-4.296.187-3.734 0-6.533-.554-8.221-1.863-1.863-1.126-2.799-3.184-2.99-5.987-.183-.928 0-2.615.191-4.67.183-2.241.745-4.479 1.119-6.915l5.796-25.41h-9.347l1.68-6.541h9.156l2.616-11.585 9.901-2.432-2.982 14.017h11.02l-1.489 6.541h-11.027l-5.605 26.537c-.561 2.047-.935 3.547-.935 4.479-.191 1.123-.374 1.871-.191 2.425 0 1.497.561 2.432 1.497 2.997.935.745 2.616 1.123 4.861 1.123.745 0 1.871-.187 2.99-.378.928 0 2.054-.378 2.99-.561l-1.69 7.478zM246.217 223.677h12.703c.191-1.684.382-2.99.382-3.925.191-.932.191-1.68 0-2.428-.191-2.806-1.31-4.861-3.181-6.35-2.054-1.497-4.67-2.428-8.03-2.428-.561 0-1.31.187-1.871.187v-6.163h2.054c6.541 0 11.585 1.306 14.952 3.731 3.173 2.432 5.224 6.357 5.605 11.775.191 1.867.191 3.921 0 5.983 0 2.054-.382 4.288-.935 6.537H246.22v-6.919h-.003zm0 31.764v-7.663c1.119-.37 2.245-.932 3.173-1.493 2.245-1.493 3.925-3.734 4.861-6.533h11.027c-1.31 5.04-4.108 8.965-8.412 11.768-2.993 2.053-6.544 3.363-10.649 3.921zm-13.081-31.764h13.081v6.915h-14.761c-.561 1.493-.745 2.803-.935 4.299-.183 1.306-.183 2.615-.183 3.734.374 3.181 1.489 5.605 3.36 7.285 2.054 1.68 4.67 2.619 8.221 2.619 1.489 0 2.982-.187 4.296-.752v7.663c-1.68.187-3.551.374-5.422.374-5.979 0-10.649-1.489-14.2-4.296-3.36-2.803-5.414-6.911-5.789-12.146-.382-3.925 0-8.404 1.31-13.455 1.119-4.857 2.99-9.149 5.044-12.707 2.245-3.353 5.231-6.159 8.778-7.843 2.997-1.684 6.357-2.425 10.282-2.803v6.163c-2.99.374-5.605 1.493-7.659 3.734-2.624 2.434-4.488 6.172-5.423 11.216z"/></svg>