<svg xmlns="http://www.w3.org/2000/svg" viewBox="0 0 473.94 473.94" style="enable-background:new 0 0 473.94 473.94" xml:space="preserve"><circle style="fill:#008061" cx="236.97" cy="236.97" r="236.97"/><path style="fill:#e2e4d5" d="M427.956 222.431c0-16.34-12.688-46.836-53.713-46.959-17.796-.056-31.206 7.798-37.373 12.969v-11.6l-27.442-.011v11.611c-6.724-5.807-14.892-11.042-23.117-12.281-8.741-1.321-17.482-.924-28.292 2.331-8.988 2.709-14.72 6.705-20.266 12.962-11.461-12.812-29.56-15.368-43.988-15.895-16.423-.599-32.98 1.426-45.889 10.844-12.438-6.354-28.157-11.345-45.605-11.248-15.341.086-30.035 3.543-40.452 12.531-3.757 3.24-5.437 5.815-7.3 10.41-3.682 9.108-2.148 19.622 1.957 25.111 7.659 10.238 16.247 14.215 31.659 15.947 13.542 1.519 23.019 1.527 33.04 3.371 4.737.864 9.078 4.367 9.078 9.557 0 6.054-8.471 15.977-28.924 14.645-17.044-1.108-23.48-3.51-39.51-13.927l-18.095 14.619s3.083 2.462 5.19 3.843a85.275 85.275 0 0 0 6.316 3.753h.052c18.249 9.841 41.343 13.957 62.252 10.612 10.26-1.643 19.989-5.078 28.355-10.522 6.769 4.625 15.712 12.554 37.358 11.585 13.624-.614 23.738-.123 33.193-10.993v10.859h26.507l-.007-10.859s4.18 3.375 7.117 5.137c16.831 10.092 43.599 6.275 59.431-5.762l.037 14.05c-.453 8.666-8.419 14.6-16.793 17.946-14.462 5.766-27.641.595-39.405-7.697l-20.082 13.418c5.422 5.426 10.376 8.595 18.103 12.131 21.721 9.934 47.132 6.548 64.662-3.843 11.562-6.855 16.034-15.259 18.825-28.179 1.482-6.87 1.631-11.899 1.856-17.908.007-.176.007-.333.015-.486l.696.486c5.59 3.899 10.537 6.788 18.103 9.089 12.213 3.708 26.106 3.876 41.612-.168 7.214-1.886 13.586-4.898 19.27-8.92h.015a65.348 65.348 0 0 0 8.666-7.416l-17.321-12.322c-5.867 4.782-14.6 9.609-24.557 10.866-11.495 1.456-24.535-.621-31.592-8.269-3.817-4.131-5.145-5.433-5.145-15.903l81.5.09v-19.603h.003v-.002zm-173.541 7.607c.221-6.021.79-12.456 1.433-18.78.314-3.083 4.041-6.806 9.28-9.665 4.756-2.589 10.765-4.464 16.599-4.494 4.438-.026 8.988.812 13.018 2.365 7.023 2.702 12.468 7.558 13.029 13.774.52 5.789 1.119 11.263 1.388 16.505.337 6.552.176 12.752-1.25 18.765-.913 3.824-2.814 7.076-6.739 10.185-4.438 3.51-11.304 6.627-19.446 6.166-11.394-.636-21.583-5.149-24.591-11.457-2.53-5.314-3.065-13.812-2.721-23.364zm-48.373 35.056c-5.688 1.777-14.761 2.687-24.43 1.515-8.045-.969-15.712-1.538-18.847-8.763-1.695-3.914-1.336-7.51 1.302-10.851 4.15-5.25 13.762-6.275 19.521-6.331h31.566c.833 8.214 3.467 20.498-9.112 24.43zm-93.747-44.86c-12.651-.677-24.292-.92-30.615-5.979-3.641-2.911-2.922-11.293 2.178-14.327 7.345-4.367 16.224-4.221 21.339-3.955 10.365.535 22.29 3.918 31.689 10.174l10.993-10.174s11.607 10.627 11.607 10.174c13.534-9.422 18.316-9.441 30.922-9.433 17.238.015 22.189 3.36 24.722 7.147 1.601 2.391.022 16.977.022 16.977s-15.222.468-26.2-.079c-8.718-.438-13.601-.471-22.372.958-7.85 1.28-13.235 3.573-18.701 8.097 0 0-4.677-3.267-9.77-5.598-9.264-4.236-15.891-3.454-25.814-3.982zm234.797 1.89c0-6.571 1.725-11.832 4.561-15.918 5.665-8.157 15.764-11.652 25.478-11.633 9.56.022 19.412 3.454 25.272 10.926 3.311 4.217 5.351 9.725 5.351 16.625h-60.662z"/></svg>