<svg xmlns="http://www.w3.org/2000/svg" viewBox="0 0 473.961 473.961" style="enable-background:new 0 0 473.961 473.961" xml:space="preserve"><circle style="fill:#00a051" cx="236.99" cy="236.99" r="236.97"/><path style="fill:#00a051" d="M437.247 363.604c23.21-36.64 36.711-80.044 36.711-126.622C473.957 106.095 367.859 0 236.975 0 106.098 0 0 106.095 0 236.982c0 46.578 13.489 89.983 36.703 126.622H437.247z"/><path style="fill:#231f20" d="M197.884 246.337a102.587 102.587 0 0 0 19.117 26.896l24.505-24.617a66.81 66.81 0 0 1-12.774-17.781 65.922 65.922 0 0 1-6.264-20.973 66.305 66.305 0 0 1 .928-21.878 66.428 66.428 0 0 1 8.011-20.385 64.145 64.145 0 0 1 14.645-16.913c6.065-4.932 13.381-9.126 21.216-11.835s16.194-3.929 24.497-3.615 16.539 2.166 24.176 5.441a68.432 68.432 0 0 1 20.602 13.755l24.329-24.408c-9.01-9.01-19.712-16.34-31.397-21.437a101.706 101.706 0 0 0-37.074-8.367c-12.737-.423-25.556 1.572-37.511 5.912-11.948 4.333-23.034 11.008-32.105 18.709-9.07 7.697-16.131 16.415-21.639 26.009a102.77 102.77 0 0 0-11.615 30.915 101.757 101.757 0 0 0-1.141 32.976 101.663 101.663 0 0 0 9.494 31.596z"/><path style="fill:#fff" d="M199.796 328.982c12.696.393 25.463-1.631 37.425-5.89a102.603 102.603 0 0 0 26.683-14.35c8.112-6.069 15.311-13.366 21.276-21.564s10.683-17.291 13.979-26.874a101.713 101.713 0 0 0 5.351-36.849 100.415 100.415 0 0 0-8.426-36.269c-5.029-11.42-12.221-21.889-21.033-30.724l-24.344 24.408a68.711 68.711 0 0 1 12.314 17.579 67.867 67.867 0 0 1 6.189 20.539c.958 7.124.782 14.395-.561 21.44-1.343 7.042-3.85 13.856-6.915 19.659-3.061 5.807-6.687 10.604-10.874 14.836s-8.939 7.899-14.099 10.851a65.448 65.448 0 0 1-16.494 6.642 68.92 68.92 0 0 1-22.978 1.777 68.24 68.24 0 0 1-22.252-5.953 68.974 68.974 0 0 1-19.023-13.006l-24.557 24.224c9.018 8.943 19.712 16.209 31.375 21.257a101.07 101.07 0 0 0 36.964 8.267z"/><path style="fill:#231f20" d="M236.975 473.961c84.299 0 158.266-44.052 200.272-110.357H36.703c42.013 66.305 115.973 110.357 200.272 110.357z"/><path style="fill:#fff" d="m146.981 387.728-6.301.21c.423-2.095.584-4.281-1.643-6.069-2.537-1.804-4.977-1.826-7.383-1.68-1.471.109-3.151.546-4.303.995-.546.213-.906.393-1.242.614s-.659.471-.943.752c-1.833 1.886-1.792 3.787-.737 5.328a2.98 2.98 0 0 0 1.572 1.014l11.439 3.012c1.673.49 3.603 1.328 4.905 2.874a7.018 7.018 0 0 1 1.287 2.215c.752 2.17.423 4.34-.329 6.342-.688 1.777-2.238 3.903-3.996 5.512a16.395 16.395 0 0 1-2.092 1.616 22.327 22.327 0 0 1-2.945 1.643c-3.45 1.602-6.907 2.017-10.062 1.991-2.099-.011-4.408-.236-6.219-.625-.883-.183-1.579-.404-2.253-.703a9.771 9.771 0 0 1-1.886-1.111 10.585 10.585 0 0 1-1.557-1.426c-2.728-3.222-3.207-6.9-2.11-10.021l7.229-.76c-.109.483-.183.98-.228 1.478-.101 1.916-.239 3.888 1.336 5.628.868.849 1.504 1.242 2.578 1.616.43.146 1.003.296 1.579.408 1.777.344 3.551.262 5.328-.06 2.339-.516 4.73-1.156 6.922-3.424 1.504-1.983 2.069-4.019.965-5.762-.73-1.048-1.287-1.197-1.923-1.396l-9.706-2.309c-2.024-.576-4.056-.913-5.86-2.66a8.297 8.297 0 0 1-1.227-1.489 8.25 8.25 0 0 1-1.141-2.937c-.367-2.092.116-4.21 1.388-6.11a15.61 15.61 0 0 1 2.346-2.724 16.647 16.647 0 0 1 2.967-2.167 17.233 17.233 0 0 1 3.581-1.5 25.97 25.97 0 0 1 4.632-.924 24.117 24.117 0 0 1 9.755 1.014 9.017 9.017 0 0 1 2.844 1.429 8.767 8.767 0 0 1 2.148 2.339c.576.898.98 1.905 1.19 2.949.372 1.63.394 3.276.095 4.878zM185.87 413.385l-2.5-27.42-17.205 27.42h-6.136l-2.159-37.309h6.69l1.276 26.406 16.838-26.406h6.301l2.294 26.982 16.445-26.982h7.27l-23.071 37.309zM221.263 413.385h-7.113l10.335-37.261h6.761zM271.242 381.962h-12.015l-8.411 31.453h-6.994l8.457-31.453h-12.367l1.669-5.838 31.241.027zM314.916 387.773l-6.533.834c-.236-2.137-.688-4.4-2.982-6.275a6.487 6.487 0 0 0-1.302-.767 12.81 12.81 0 0 0-1.665-.636 14.612 14.612 0 0 0-1.804-.415c-3.925-.554-7.82.142-11.304 2.376a16.339 16.339 0 0 0-2.746 2.234 16.64 16.64 0 0 0-2.193 2.765 26.59 26.59 0 0 0-3.158 6.387c-.696 2.125-1.141 4.135-1.111 5.77.007 1.53.337 3.079.98 4.52a7.432 7.432 0 0 0 2.369 2.836 8.414 8.414 0 0 0 1.695.913c.629.258 1.336.483 2.062.636 3.042.703 6.432.123 9.317-1.126 1.609-.681 3.42-1.867 5.19-3.439a22.692 22.692 0 0 0 2.529-2.694 21.606 21.606 0 0 0 2.039-3.079l6.35.973a27.517 27.517 0 0 1-3.012 4.733 27.999 27.999 0 0 1-3.925 4.007 25.426 25.426 0 0 1-4.846 3.184 27.98 27.98 0 0 1-6.174 2.238 24.47 24.47 0 0 1-6.724.591 29.347 29.347 0 0 1-6.006-.98c-1.519-.427-2.339-.834-3.106-1.328-.76-.49-1.47-1.066-2.099-1.717s-1.182-1.373-1.688-2.245a15.75 15.75 0 0 1-1.317-2.952c-.715-2.185-.827-4.449-.584-6.586.599-5.029 2.477-10.211 6.776-15.031a24.018 24.018 0 0 1 2.522-2.436 25.036 25.036 0 0 1 3.053-2.17c3.641-2.174 7.255-3.057 10.773-3.405 2.455-.247 5.152-.123 7.308.217 1.059.172 1.938.385 2.784.685.849.292 1.673.659 2.455 1.1 1.482.823 3.098 2.073 4.378 4.015a10.412 10.412 0 0 1 1.343 2.997c.285 1.058.401 2.17.356 3.27zM353.641 413.617h-7.017l4.7-16.613-20.916-.023-4.495 16.636h-6.997l10.051-37.264h7.068l-3.888 14.858h20.797l4.079-14.858h6.555z"/></svg>