<svg xmlns="http://www.w3.org/2000/svg" viewBox="0 0 473.94 473.94" style="enable-background:new 0 0 473.94 473.94" xml:space="preserve"><circle style="fill:#f3f2f2" cx="236.97" cy="236.97" r="236.97"/><path style="fill:#f16823" d="m259.34 399.451 140.25-140.253c12.322-12.307 12.322-32.284 0-44.587L259.34 74.368c-12.307-12.348-32.273-12.348-44.587 0L74.503 214.61c-12.314 12.303-12.314 32.28 0 44.587l140.25 140.253c12.314 12.308 32.28 12.308 44.587.001z"/><path style="fill:#0063a6" d="m329.457 144.474-70.117-70.11c-12.307-12.348-32.273-12.348-44.587 0L74.503 214.607c-12.314 12.303-12.314 32.28 0 44.587l70.106 70.106 184.848-184.826z"/><path style="fill:#fff" d="M308.028 251.306c-5.321 27.925-29.833 51.607-60.097 54.66-11.921 1.182-23.517-.775-33.96-5.137-1.658 1.426-22.144 21.931-24.381 24.52 17.972 10.627 39.397 15.835 61.784 13.586 37.863-3.824 68.841-28.699 83.015-61.388l-26.361-26.241zM169.649 310.048a97.883 97.883 0 0 0 12.445 10.503l141.758-141.687a100.918 100.918 0 0 0-10.451-12.43L169.649 310.048zM307.047 160.706c-4.737-4.056-9.1-7.237-13.351-9.852-18.103-10.84-40.172-16.509-62.783-14.238-55.813 5.613-96.43 55.405-90.922 111.21 1.673 16.917 6.948 31.659 15.742 45.122 2.462 3.794 8.165 10.904 8.165 10.904l143.149-143.146zm-69.732 8.659c11.787-1.186 23.094.692 33.302 4.992l-89.825 89.799c-2.537-6.077-4.239-12.741-4.924-19.611-3.794-37.725 23.723-71.379 61.447-75.18z"/></svg>