<svg xmlns="http://www.w3.org/2000/svg" viewBox="0 0 473.961 473.961" style="enable-background:new 0 0 473.961 473.961" xml:space="preserve"><circle style="fill:#203d74" cx="236.99" cy="236.99" r="236.97"/><path style="fill:#ea2227" d="M201.476 2.66C87.446 19.79.001 118.165.001 236.981c0 81.047 40.718 152.563 102.782 195.294l96.56-423.893c.445-1.965 1.183-3.881 2.133-5.722z"/><path style="fill:#0872b9" d="M201.476 2.66c-.95 1.841-1.688 3.757-2.133 5.721l-96.56 423.893c32.041 22.061 69.754 36.46 110.528 40.501L317.762 14.148C292.55 5.006 265.348 0 236.974 0c-12.063 0-23.914.92-35.498 2.66z"/><path style="fill:#009da5" d="M236.978 473.961c130.883 0 236.981-106.105 236.981-236.981 0-102.509-65.092-189.801-156.192-222.833L213.315 472.775a237.736 237.736 0 0 0 23.663 1.186z"/><path style="fill:#fff" d="M211.006 264.636h1.856c1.717 0 2.866-.584 3.405-1.717l4.838-7.244h12.965l-2.705 4.756h15.536l-1.968 7.3h-18.492c-2.125 3.207-4.752 4.715-7.899 4.539h-9.631l2.095-7.634m-2.133 10.451h34.05l-2.17 7.929h-13.691l-2.092 7.659h13.329l-2.17 7.921h-13.324l-3.098 11.311c-.763 1.893.239 2.739 3.012 2.544h10.851l-2.009 7.375h-20.845c-3.951 0-5.31-2.264-4.067-6.795l3.955-14.432h-8.52l2.163-7.921h8.516l2.088-7.659h-8.138l2.16-7.932zm54.342-19.472-.535 4.64s6.417-4.816 12.251-4.816h21.556l-8.243 29.833c-.688 3.412-3.618 5.107-8.793 5.107h-24.43l-5.721 20.954c-.329 1.119.138 1.695 1.369 1.695h4.804l-1.766 6.503h-12.224c-4.688 0-6.638-1.411-5.863-4.247l16.168-59.67 11.427.001zm18.249 8.434h-19.236l-2.301 8.052s3.203-2.316 8.557-2.398c5.343-.079 11.435 0 11.435 0l1.545-5.654zm-6.968 18.682c1.422.191 2.219-.374 2.312-1.703l1.179-4.239h-19.266l-1.616 5.942h17.391zm-12.995 9.639h11.106l-.206 4.801h2.956c1.493 0 2.234-.475 2.234-1.418l.876-3.113h9.231l-1.235 4.531c-1.036 3.787-3.809 5.751-8.295 5.949h-5.916l-.026 8.213c-.108 1.317 1.081 1.987 3.529 1.987h5.56l-1.796 6.503h-13.336c-3.734.176-5.568-1.609-5.534-5.384l.852-22.069zM308.7 264.958l2.574-9.063h13.021l-.561 3.326s6.653-3.326 11.45-3.326h16.105l-2.563 9.063h-2.533l-12.146 42.746h2.533l-2.41 8.494h-2.537l-1.051 3.682H317.97l1.055-3.682h-24.879l2.425-8.494h2.492l12.157-42.746h-2.52m14.046 0-3.311 11.57s5.669-2.178 10.556-2.791c1.081-4.041 2.492-8.778 2.492-8.778h-9.737v-.001zm-4.845 16.991-3.326 12.116s6.282-3.083 10.597-3.353a267.836 267.836 0 0 1 2.492-8.763h-9.763zm2.439 25.751 2.492-8.793h-9.725l-2.503 8.793h9.736zm31.495-52.37h12.239l.52 4.516c-.079 1.149.602 1.695 2.054 1.695h2.163l-2.189 7.659h-8.999c-3.435.176-5.205-1.134-5.366-3.978l-.422-9.892zm-3.589 16.415h39.655l-2.331 8.213h-12.621l-2.163 7.644h12.61l-2.342 8.198h-14.047l-3.18 4.808h6.877l1.587 9.624c.191.958 1.04 1.426 2.492 1.426h2.133l-2.245 7.921h-7.558c-3.918.198-5.942-1.119-6.11-3.955l-1.819-8.793-6.256 9.354c-1.482 2.645-3.757 3.873-6.818 3.682h-11.547l2.249-7.929h3.6c1.482 0 2.713-.659 3.82-1.987l9.792-14.155h-12.628l2.342-8.198h13.691l2.178-7.644h-13.702l2.341-8.209zM126.933 215.866c-1.508 7.383-4.999 13.044-10.413 17.074-5.369 3.963-12.292 5.942-20.767 5.942-7.977 0-13.822-2.024-17.553-6.088-2.586-2.892-3.876-6.563-3.876-10.997 0-1.833.221-3.809.659-5.927l9.033-43.543h13.639l-8.909 43.045a13.938 13.938 0 0 0-.37 3.304c-.015 2.208.539 4.019 1.639 5.429 1.62 2.092 4.239 3.128 7.888 3.128 4.198 0 7.656-1.022 10.338-3.091 2.687-2.062 4.438-4.969 5.223-8.771l8.935-43.045h13.568l-9.034 43.54M139.497 198.721h9.631l-1.104 5.613 1.381-1.594c3.124-3.349 6.919-5.006 11.394-5.006 4.052 0 6.975 1.175 8.812 3.551 1.804 2.369 2.294 5.643 1.444 9.845l-5.306 26.477h-9.901l4.789-24c.494-2.477.355-4.325-.404-5.519-.752-1.19-2.193-1.785-4.262-1.785-2.552 0-4.692.797-6.44 2.369-1.755 1.594-2.907 3.794-3.48 6.6l-4.415 22.335h-9.919l7.78-38.886M249.958 198.721h9.639l-1.096 5.613 1.369-1.594c3.124-3.349 6.933-5.006 11.394-5.006 4.052 0 6.982 1.175 8.804 3.551 1.796 2.369 2.316 5.643 1.441 9.845l-5.283 26.477h-9.916l4.793-24c.494-2.477.355-4.325-.393-5.519-.782-1.19-2.193-1.785-4.262-1.785-2.548 0-4.685.797-6.451 2.369-1.751 1.594-2.919 3.794-3.465 6.6l-4.438 22.335h-9.904l7.768-38.886M184.208 198.736h10.679l-8.367 38.858h-10.66l8.348-38.858m3.36-14.155h10.776l-2.013 9.433h-10.776l2.013-9.433zM204.342 234.642c-2.791-2.675-4.202-6.271-4.217-10.844 0-.782.049-1.673.15-2.645.105-.988.236-1.946.419-2.836 1.265-6.309 3.963-11.319 8.12-15.019 4.146-3.712 9.152-5.575 15.012-5.575 4.801 0 8.61 1.343 11.394 4.026 2.788 2.705 4.183 6.342 4.183 10.978 0 .79-.064 1.71-.165 2.69a49.875 49.875 0 0 1-.445 2.9c-1.239 6.219-3.929 11.173-8.082 14.806-4.157 3.656-9.149 5.482-14.967 5.482-4.82 0-8.614-1.325-11.402-3.963m20.352-7.697c1.886-2.047 3.229-5.137 4.056-9.261.123-.644.232-1.317.299-1.987.067-.659.094-1.265.094-1.833 0-2.391-.606-4.254-1.833-5.568-1.22-1.328-2.949-1.987-5.19-1.987-2.956 0-5.369 1.036-7.255 3.121-1.905 2.084-3.252 5.231-4.101 9.422a46.44 46.44 0 0 0-.299 1.923c-.075.644-.09 1.242-.079 1.792 0 2.383.614 4.217 1.837 5.519 1.216 1.302 2.941 1.946 5.209 1.946 2.974-.007 5.383-1.033 7.262-3.087M297.609 174.628h27.988c5.381 0 9.545 1.212 12.404 3.611 2.847 2.425 4.273 5.904 4.273 10.436v.138c0 .861-.056 1.833-.138 2.885a40.96 40.96 0 0 1-.546 3.195c-1.227 5.994-4.094 10.817-8.513 14.469-4.438 3.641-9.695 5.474-15.749 5.474h-15.004l-4.644 22.772h-12.995l12.924-62.98m7.001 29.261h12.445c3.244 0 5.818-.76 7.697-2.245 1.863-1.512 3.091-3.817 3.779-6.937.109-.569.176-1.096.258-1.572.041-.453.094-.906.094-1.343 0-2.23-.793-3.843-2.38-4.861-1.594-1.029-4.086-1.519-7.536-1.519h-10.57l-3.787 18.477zM400.44 245.13c-4.108 8.733-8.026 13.826-10.324 16.194-2.301 2.346-6.859 7.79-17.844 7.383l.943-6.664c9.246-2.851 14.245-15.682 17.089-21.362l-3.394-41.84 7.147-.101h6.002l.647 26.252 11.24-26.252h11.379l-22.885 46.39M368.62 201.902l-4.52 3.106c-4.726-3.697-9.036-5.987-17.362-2.118-11.338 5.253-20.815 45.582 10.406 32.303l1.777 2.107 12.284.314 8.063-36.643-10.648.931m-6.985 20.033c-1.968 5.818-6.38 9.669-9.83 8.572-3.45-1.066-4.685-6.687-2.683-12.52 1.972-5.833 6.41-9.661 9.83-8.572 3.45 1.074 4.699 6.687 2.683 12.52"/></svg>