<svg xmlns="http://www.w3.org/2000/svg" viewBox="0 0 473.94 473.94" style="enable-background:new 0 0 473.94 473.94" xml:space="preserve"><circle style="fill:#1b7ec1" cx="236.97" cy="236.97" r="236.97"/><path style="fill:#eaf3f8" d="M30.185 202.788c6.907-.722 15.15-.109 22.574-.307 2.653 14.245 5.467 28.34 8.037 42.671 4.546-13.803 8.03-28.662 12.367-42.671h21.96c3.779 14.361 8.026 28.247 11.753 42.671 3.353-13.65 5.714-28.299 8.34-42.671h22.582c-5.781 25.65-11.326 51.543-17.006 77.305H97.911c-4.34-15.772-9.268-30.937-13.916-46.383-4.969 15.135-9.134 31.068-13.923 46.383H47.191c-5.437-25.893-11.128-51.542-17.006-76.998zM180.783 202.482h6.488c26.712 1.22 39.367 16.494 38.346 45.447h-54.424c.161 11.656 9.44 18.148 19.483 14.222 4.67-1.826 7.102-5.553 7.102-5.553l25.672 2.47c.075 1.411-.943 2.982-1.856 4.325-6.526 9.616-17.306 16.179-33.399 16.393h-7.416c-21.751-.943-35.7-13.317-37.118-34.327-1.755-26.285 13.182-41.245 37.122-42.977zm-4.647 19.79c-3.042 2.713-4.378 6.855-4.939 12.374h26.9c1.2-12.913-13.288-20.09-21.961-12.374zM239.533 203.095s43.636-4.262 55.973 3.704c5.919 3.835 8.961 11.15 8.961 19.491 0 20.763-17.074 26.806-40.815 24.729l-.307 28.142h-23.809v-76.066h-.003zm42.061 23.817c-.037-8.097-8.602-9.347-17.942-8.658-.715 5.145-.109 11.641-.307 17.306 9.31.698 18.275-.544 18.249-8.648zM326.42 203.095h25.665l28.452 75.763-24.729.307-3.405-12.367h-26.9l-4.019 12.367h-23.809l28.745-76.07zm4.019 47.315h16.707l-8.666-27.528-8.041 27.528zM369.091 203.41l25.362-.315 15.779 25.669 15.76-25.669h25.055l-28.759 44.224v31.846h-23.817v-31.539z"/></svg>