<svg xmlns="http://www.w3.org/2000/svg" viewBox="0 0 473.94 473.94" style="enable-background:new 0 0 473.94 473.94" xml:space="preserve"><circle style="fill:#43567e" cx="236.97" cy="236.97" r="236.97"/><path style="fill:#bc202a" d="M131.68 194.175h11.124v11.121H131.68v-11.121z"/><path style="fill:#fff" d="M423.354 194.175v72.788H412.23v-6.571c-3.742 9.351-23.7 9.706-31.842 3.536-12.138-9.182-12.707-35.846-1.01-46.001 7.431-6.451 25.556-7.465 32.351 3.038v-26.791a45043 45043 0 0 0 11.625.001zm-35.386 62.177c5.482 4.812 14.507 3.693 18.709 0 11.431-10.058 6.511-38.027-12.643-33.874-12.539 2.727-15.791 25.32-6.066 33.874zM180.207 212.876v11.12c-22.971-4.131-19.27 22.424-19.214 42.967h-11.618v-52.568h11.117v10.106c3.199-7.247 8.445-12.452 19.715-11.625z"/><path style="fill:#fff" d="M228.734 243.708H189.82c-3.214 17.373 23.633 20.759 27.296 7.083h10.612c-2.499 17.605-27.925 22.821-40.437 12.636-17.743-14.424-9.003-48.153 13.141-50.551 19.408-2.103 28.519 11.824 28.302 30.832zm-38.918-7.577h27.296c1.485-18.087-28.894-18.667-27.296 0zM281.811 231.585h-10.612c-2.499-3.427-3.151-6.993-6.578-8.595-26.682-12.512-28.669 44.19-2.522 35.887 4.584-1.456 7.023-4.853 8.082-11.626h11.626c-2.062 8.958-5.006 16.075-11.626 18.705-18.05 7.162-35.782-1.949-37.908-19.206-3.222-26.106 19.36-42.158 39.932-30.836 4.865 2.668 8.446 7.877 9.606 15.671zM332.874 258.369c.876 1.317 3.353 1.029 5.553 1.014v7.577c-5.534 2.578-15.682 2.26-16.172-4.546-8.471 6.473-26.323 9.822-33.874 0-5.351-6.971-2.945-18.327 3.536-22.245 8.947-5.384 32.003-.561 29.826-12.636-1.755-9.822-23.7-6.2-23.248 2.529h-10.619c-1.182-20.265 36.235-22.817 43.476-8.595 5.088 9.98-.633 23.566 1.522 36.902zm-35.898-5.048c1.036 7.409 17.818 8.602 22.75 1.512 2.47-3.543 1.631-7.914 1.01-14.148-7.611 4.243-25.47.337-23.76 12.636zM373.308 213.389v10.608c-23.18-4.352-19.255 22.432-19.214 42.967h-11.618v-52.568h10.612v10.106c3.281-6.84 9.567-13.332 20.22-11.113zM49.788 214.395h12.131c3.296 13.212 7.068 25.96 10.114 39.423 4.584-12.093 6.701-26.649 10.612-39.423h11.626c3.143 13.197 6.103 26.581 9.601 39.423 4.079-12.771 7.102-26.589 11.124-39.423h11.626c-5.826 17.257-11.005 35.154-16.685 52.568H98.311c-3.334-12.842-6.776-25.575-9.601-38.914-5.085 11.424-6.608 26.413-10.612 38.914H65.967c-5.264-17.657-10.84-35-16.179-52.568zM142.804 214.395v52.568H131.68c.329-17.354-.674-36.059.505-52.568h10.619z"/></svg>