<svg xmlns="http://www.w3.org/2000/svg" viewBox="0 0 473.94 473.94" style="enable-background:new 0 0 473.94 473.94" xml:space="preserve"><circle style="fill:#203d74" cx="236.97" cy="236.97" r="236.97"/><path style="fill:#fff" d="M119.385 274.918h-13.833L93.676 231.85c-1.246-4.232-1.964-8.673-2.69-13.119h-.101c-.516 4.34-1.34 8.572-2.477 12.913l-11.775 43.27H63.415l-18.073-69.713h11.981l10.739 42.342c1.239 4.647 2.065 9.085 2.687 13.732h.101c.722-4.539 1.549-8.98 2.788-13.212l11.876-42.862h12.292l12.187 42.963c1.029 3.719 2.062 8.359 2.784 12.804h.109c.718-4.34 1.441-8.367 2.473-12.183l10.847-43.584h11.255l-18.076 69.717M157.775 275.951c-14.252 0-23.551-7.944-23.551-26.024 0-15.495 10.02-27.367 25.616-27.367 13.736 0 23.45 7.644 23.45 25.717 0 15.798-10.335 27.674-25.515 27.674m1.138-44.097c-6.72 0-13.216 5.167-13.216 16.939 0 11.562 4.542 17.665 13.111 17.665 7.124 0 13.115-5.583 13.115-17.459 0-10.948-4.232-17.145-13.01-17.145zM215.724 233.505c-10.222-1.957-15.184 5.167-15.184 20.55v20.864h-11.05V223.59h10.529c0 2.892-.303 7.439-1.029 11.364h.202c2.275-6.922 7.439-13.324 17.047-12.284l-.515 10.835M222.15 204.55h11.05v70.37h-11.05zM275.12 274.918c0-2.69.21-6.716.722-9.601h-.21c-2.784 6.301-8.778 10.634-16.729 10.634-12.598 0-18.903-9.295-18.903-24.168 0-17.657 10.226-29.021 26.855-29.021 2.477 0 4.954.213 7.745.415v-18.63h10.945v70.371H275.12m-.516-42.442c-2.791-.621-5.474-.928-8.161-.928-8.778 0-14.765 5.373-14.765 19.206 0 10.327 3.199 16.116 10.222 16.116 8.161 0 12.703-9.714 12.703-18.488v-15.906h.001zM310.035 249.415c-1.549 0-3.405 0-5.171-.213v25.717h-11.251v-69.702c5.377-.213 11.36-.415 17.867-.415 16.52 0 25.609 8.052 25.609 20.961-.001 13.53-10.837 23.652-27.054 23.652m.621-35.431c-2.17 0-3.925 0-5.792.213v25.504c1.553.213 3.311.415 4.958.415 9.403-.109 15.596-5.268 15.596-13.433-.001-7.947-4.648-12.699-14.762-12.699zM368.923 274.918c0-3.304.105-6.716.516-9.5l-.101-.101c-2.477 6.088-8.879 10.634-17.04 10.634-8.782 0-14.353-5.882-14.353-14.252 0-11.562 11.457-17.867 30.26-17.867v-2.99c0-6.309-2.687-9.714-10.746-9.714-4.748 0-10.533 1.549-14.664 3.719l-2.166-8.879c5.164-1.964 12.082-3.413 18.694-3.413 15.592 0 19.932 6.817 19.932 17.044v21.276c0 4.445.101 9.714.307 14.047h-10.638m-.72-23.652c-15.39 0-19.622 4.232-19.622 9.085 0 3.925 2.687 6.922 7.02 6.922 7.54 0 12.602-7.229 12.602-14.559v-1.448z"/><path style="fill:#fff" d="M409.12 278.529c-6.402 17.145-13.22 22.413-24.883 22.413-1.961 0-4.748-.307-6.507-.621l1.235-9.601c1.766.52 4.239.827 6.305.827 4.853 0 9.399-2.376 12.808-11.57l1.856-5.059-19.203-51.333h12.393l8.359 23.446c1.65 4.546 2.892 9.092 4.03 13.433h.097c1.036-4.135 3.207-10.844 5.066-16.011l7.33-20.864h11.876l-20.762 54.94M412.858 205.486h-3.663v-1.332h8.853v1.332h-3.704v9.852h-1.486v-9.852M419.582 204.154h2.219l2.638 7.914c.374 1.111.438 1.328.516 1.658h.03c.191-.614.236-.73.595-1.796l2.672-7.775h1.968v11.18h-1.407v-9.354h-.034l-3.218 9.354h-1.325l-3.203-9.508h-.045v9.508h-1.407v-11.181"/></svg>