<svg width="73" height="20" viewBox="0 0 73 20" fill="none" xmlns="http://www.w3.org/2000/svg">
<path fill-rule="evenodd" clip-rule="evenodd" d="M54.3849 9.17057C52.9642 9.10591 51.806 8.47715 52.0354 6.86288C52.2053 8.03568 53.262 8.42363 54.3849 8.46823C54.6055 8.46823 54.8261 8.46823 55.0467 8.46823H65.8147C69.4746 8.46823 72.433 9.61873 72.3007 13.8506C72.1462 10.1449 69.0974 9.16834 65.8147 9.16834H55.0423C54.8217 9.16834 54.6011 9.16834 54.3805 9.16834L54.3849 9.17057ZM47.5945 19.2977V19.175L50.3499 15.5608H65.486C66.7369 15.5608 68.0583 15.4158 68.2591 13.9019C68.5172 15.8528 67.1163 16.2765 65.4926 16.2765H50.3499L48.0291 19.3088L47.5945 19.2977ZM48.2916 17.1126L50.0146 14.8584H65.4926C66.5361 14.8584 67.5928 14.8361 67.5928 13.5541C67.5928 12.272 66.6155 12.2965 65.5809 12.2965H54.3055C52.0155 12.2965 49.73 11.757 48.2916 10.3434V17.1126ZM34.7131 16.2765C31.287 16.2765 27.969 14.2698 28.2006 10.4415C28.4036 13.8707 31.5451 15.5697 34.7131 15.5697H42.8933V16.2765H34.7131ZM22.9479 15.7213L23.4354 16.4169L13.9492 16.3501L11.8027 19.2977H11.2886L13.9492 15.6477L22.9413 15.7101L22.9479 15.7213ZM33.4468 11.5942H34.0247L35.9551 9.24861H47.5923V8.53512H35.9573L33.4468 11.5942ZM28.8867 10.087C28.8867 13.3623 31.8539 14.8696 34.7131 14.8696H42.1984V12.2854H31.962L35.6308 7.82609H46.9305C46.8358 7.37233 46.7892 6.90967 46.7915 6.44593C46.7898 6.02839 46.8164 5.61122 46.8709 5.19732H34.7131C31.8451 5.19732 28.8867 6.88071 28.8867 10.0713V10.087ZM23.6384 5.87291L20.5675 2.20513C19.3961 0.824972 18.4894 0 16.6539 0C14.8184 0 13.6668 0.833891 12.6829 2.20513L0 20H7.24705L16.5348 6.94091L22.0963 15.0011L13.605 14.9387L9.90761 20H64.5087C69.9225 20 73 18.6622 73 13.4537C73 9.0301 69.5055 7.77481 65.8103 7.77481H55.0423C54.0319 7.77481 52.706 7.77481 52.706 6.51505C52.706 5.2553 53.8091 5.20178 54.8063 5.20178H68.5326L64.844 0H34.7131C30.1773 0 25.5048 1.91973 23.6384 5.87291ZM23.859 7.92865C25.2731 3.34448 30.3185 1.40691 34.7131 1.40691H64.4955L66.6751 4.49944H67.1737L64.4822 0.70903H34.6998C30.067 0.70903 25.2136 2.79822 23.8502 7.23077L20.027 2.66221C19.0232 1.47157 18.2776 0.704571 16.6539 0.704571C15.0964 0.704571 14.1389 1.37347 13.2543 2.61761L1.35896 19.2977H1.85975L13.2543 3.31996C14.1367 2.08027 15.0964 1.40691 16.6539 1.40691C18.2776 1.40691 19.0254 2.17391 20.027 3.36455L23.8612 7.92865H23.859Z" fill="#251A36"/>
</svg>
