<svg width="232" height="221" viewBox="0 0 232 221" fill="none" xmlns="http://www.w3.org/2000/svg">
<g clip-path="url(#clip0_18377_16408)">
<path d="M226.042 7.10547H190.035V44.6843H226.042V7.10547Z" fill="#E0E0E0"/>
<path d="M223.609 7.10547H187.602V44.6843H223.609V7.10547Z" fill="#FAFAFA"/>
<path d="M223.618 44.6934H187.59V7.09375H223.618V44.6934ZM187.611 44.6726H223.597V7.11463H187.611V44.6726Z" fill="#E0E0E0"/>
<path d="M218.764 12.1562H192.438V39.6305H218.764V12.1562Z" fill="white"/>
<path d="M192.439 39.8125C192.439 39.8125 192.209 40.1257 191.787 40.5693C191.365 41.0129 190.776 41.6132 190.114 42.2656C189.451 42.918 188.842 43.5025 188.393 43.9149C187.945 44.3272 187.653 44.5725 187.632 44.5516C187.611 44.5307 187.856 44.2437 188.279 43.8C188.701 43.3564 189.29 42.751 189.957 42.0985C190.619 41.4409 191.229 40.8616 191.683 40.4493C192.131 40.0369 192.418 39.7916 192.439 39.8177V39.8125Z" fill="#E0E0E0"/>
<path d="M218.764 39.7461C218.764 39.7461 219.076 39.9757 219.52 40.3985C219.963 40.8213 220.562 41.411 221.214 42.0739C221.865 42.7367 222.449 43.3474 222.861 43.7963C223.273 44.2451 223.518 44.5374 223.497 44.5583C223.476 44.5791 223.19 44.3338 222.746 43.9111C222.303 43.4883 221.699 42.8985 221.047 42.2305C220.395 41.5676 219.811 40.957 219.4 40.5029C218.988 40.054 218.743 39.767 218.769 39.7461H218.764Z" fill="#E0E0E0"/>
<path d="M218.691 12.2286C218.691 12.2286 218.921 11.9155 219.343 11.4718C219.765 11.0282 220.354 10.428 221.016 9.77556C221.679 9.12315 222.288 8.53859 222.737 8.12627C223.185 7.71394 223.477 7.46864 223.498 7.48952C223.519 7.51039 223.274 7.79745 222.851 8.24109C222.429 8.68473 221.84 9.29017 221.173 9.94258C220.511 10.6002 219.901 11.1795 219.447 11.5919C218.999 12.0042 218.712 12.2495 218.691 12.2234V12.2286Z" fill="#E0E0E0"/>
<path d="M192.366 12.2978C192.366 12.2978 192.053 12.0681 191.61 11.6454C191.167 11.2226 190.567 10.6328 189.915 9.96999C189.264 9.30714 188.68 8.69648 188.268 8.24762C187.856 7.79877 187.611 7.50649 187.632 7.48561C187.653 7.46473 187.94 7.71004 188.383 8.1328C188.826 8.55556 189.431 9.14534 190.082 9.81341C190.734 10.4763 191.318 11.0869 191.73 11.541C192.141 11.9898 192.386 12.2769 192.36 12.2978H192.366Z" fill="#E0E0E0"/>
<path d="M218.692 39.6321C218.692 39.6321 218.692 39.5851 218.687 39.4964C218.687 39.4024 218.687 39.2772 218.682 39.1154C218.682 38.7709 218.677 38.2751 218.671 37.6331C218.666 36.3335 218.656 34.4389 218.645 32.0328C218.635 27.2206 218.614 20.3677 218.593 12.1578L218.692 12.257C211.029 12.257 202.026 12.2674 192.439 12.2726L192.554 12.1578C192.548 22.2414 192.543 31.6779 192.538 39.6321L192.439 39.5329C200.306 39.5538 206.858 39.5695 211.451 39.5851C213.745 39.5956 215.549 39.606 216.789 39.6112C217.405 39.6112 217.874 39.6217 218.202 39.6217C218.359 39.6217 218.479 39.6217 218.567 39.6269C218.651 39.6269 218.692 39.6269 218.692 39.6321C218.692 39.6321 218.656 39.6321 218.578 39.6373C218.489 39.6373 218.374 39.6373 218.223 39.6425C217.9 39.6425 217.436 39.6477 216.831 39.653C215.596 39.6582 213.797 39.6686 211.514 39.6791C206.905 39.6895 200.332 39.7104 192.439 39.7313H192.34V39.6321C192.34 31.6779 192.329 22.2414 192.324 12.1578V12.043H192.439C202.026 12.0482 211.029 12.0534 218.692 12.0586H218.797V12.1578C218.776 20.3938 218.755 27.2728 218.744 32.1007C218.734 34.4963 218.724 36.3805 218.718 37.6749C218.718 38.3116 218.708 38.797 218.708 39.1363C218.708 39.2928 218.708 39.4181 218.703 39.5068C218.703 39.5903 218.703 39.6321 218.697 39.6269L218.692 39.6321Z" fill="#E0E0E0"/>
<path d="M209.995 21.5H201.211V30.2945H209.995V21.5Z" fill="#EBEBEB"/>
<path d="M226.042 59.1289H190.035V96.7077H226.042V59.1289Z" fill="#E0E0E0"/>
<path d="M223.609 59.1289H187.602V96.7077H223.609V59.1289Z" fill="#FAFAFA"/>
<path d="M223.618 96.7247H187.59V59.125H223.618V96.7247ZM187.611 96.7038H223.597V59.1459H187.611V96.7038Z" fill="#E0E0E0"/>
<path d="M218.764 64.1836H192.438V91.6579H218.764V64.1836Z" fill="white"/>
<path d="M192.439 91.8438C192.439 91.8438 192.209 92.1569 191.787 92.6005C191.365 93.0442 190.776 93.6444 190.114 94.2968C189.451 94.9492 188.842 95.5338 188.393 95.9461C187.945 96.3584 187.653 96.6037 187.632 96.5829C187.611 96.562 187.856 96.2749 188.279 95.8313C188.701 95.3876 189.29 94.7822 189.957 94.1298C190.619 93.4774 191.229 92.8928 191.683 92.4805C192.131 92.0682 192.418 91.8229 192.439 91.849V91.8438Z" fill="#E0E0E0"/>
<path d="M218.764 91.7773C218.764 91.7773 219.076 92.007 219.52 92.4298C219.963 92.8525 220.562 93.4423 221.214 94.1051C221.865 94.768 222.449 95.3787 222.861 95.8275C223.273 96.2764 223.518 96.5686 223.497 96.5895C223.476 96.6104 223.19 96.3651 222.746 95.9423C222.303 95.5196 221.699 94.9298 221.047 94.2617C220.395 93.5989 219.811 92.9882 219.4 92.5341C218.988 92.0853 218.743 91.7982 218.769 91.7773H218.764Z" fill="#E0E0E0"/>
<path d="M218.691 64.256C218.691 64.256 218.921 63.9428 219.343 63.4992C219.765 63.0555 220.354 62.4553 221.016 61.8029C221.679 61.1505 222.288 60.5659 222.737 60.1536C223.185 59.7413 223.477 59.496 223.498 59.5169C223.519 59.5377 223.274 59.8248 222.851 60.2684C222.429 60.7121 221.84 61.3175 221.173 61.9699C220.511 62.6223 219.901 63.2069 219.447 63.6192C218.999 64.0315 218.712 64.2768 218.691 64.2507V64.256Z" fill="#E0E0E0"/>
<path d="M192.366 64.3251C192.366 64.3251 192.053 64.0955 191.61 63.6727C191.167 63.25 190.567 62.6602 189.915 61.9973C189.264 61.3345 188.68 60.7238 188.268 60.275C187.856 59.8261 187.611 59.5338 187.632 59.513C187.653 59.4921 187.94 59.7374 188.383 60.1601C188.826 60.5829 189.431 61.1727 190.082 61.8408C190.734 62.5036 191.318 63.1143 191.73 63.5683C192.141 64.0172 192.386 64.3043 192.36 64.3251H192.366Z" fill="#E0E0E0"/>
<path d="M218.692 91.6555C218.692 91.6555 218.692 91.6086 218.687 91.5198C218.687 91.4259 218.687 91.3006 218.682 91.1388C218.682 90.7943 218.677 90.2985 218.671 89.6565C218.666 88.3569 218.656 86.4623 218.645 84.0563C218.635 79.2441 218.614 72.3912 218.593 64.1812L218.692 64.2804C211.029 64.2804 202.026 64.2908 192.439 64.2961L192.554 64.1812C192.548 74.2649 192.543 83.7013 192.538 91.6555L192.439 91.5564C200.306 91.5772 206.858 91.5929 211.451 91.6086C213.745 91.619 215.549 91.6294 216.789 91.6347C217.405 91.6347 217.874 91.6451 218.202 91.6451C218.359 91.6451 218.479 91.6451 218.567 91.6503C218.651 91.6503 218.692 91.6503 218.692 91.6555C218.692 91.6555 218.656 91.6555 218.578 91.6607C218.489 91.6607 218.374 91.6607 218.223 91.666C217.9 91.666 217.436 91.6712 216.831 91.6764C215.596 91.6816 213.797 91.6921 211.514 91.7025C206.905 91.7129 200.332 91.7338 192.439 91.7547H192.34V91.6555C192.34 83.7013 192.329 74.2649 192.324 64.1812V64.0664H192.439C202.026 64.0716 211.029 64.0768 218.692 64.0821H218.797V64.1812C218.776 72.4173 218.755 79.2963 218.744 84.1241C218.734 86.5198 218.724 88.4039 218.718 89.6983C218.718 90.335 218.708 90.8204 218.708 91.1597C218.708 91.3163 218.708 91.4415 218.703 91.5303C218.703 91.6138 218.703 91.6555 218.697 91.6503L218.692 91.6555Z" fill="#E0E0E0"/>
<path d="M209.995 73.5234H201.211V82.3179H209.995V73.5234Z" fill="#EBEBEB"/>
<path d="M38.1336 98.2109H9.73242V127.856H38.1336V98.2109Z" fill="#E0E0E0"/>
<path d="M36.2117 98.2109H7.81055V127.856H36.2117V98.2109Z" fill="#FAFAFA"/>
<path d="M36.2208 127.86H7.79883V98.1992H36.2208V127.86ZM7.81968 127.845H36.2052V98.2201H7.81968V127.845Z" fill="#E0E0E0"/>
<path d="M32.4 102.195H11.6309V123.871H32.4V102.195Z" fill="white"/>
<path d="M11.6313 124.013C11.6313 124.013 11.4489 124.259 11.1204 124.608C10.7868 124.958 10.3228 125.433 9.80151 125.95C9.2802 126.466 8.80059 126.926 8.4461 127.249C8.0916 127.573 7.86223 127.766 7.84659 127.75C7.83095 127.735 8.02383 127.505 8.35747 127.155C8.69111 126.806 9.15508 126.331 9.68161 125.814C10.2081 125.297 10.6877 124.838 11.0422 124.509C11.3967 124.185 11.6209 123.992 11.6417 124.013H11.6313Z" fill="#E0E0E0"/>
<path d="M32.3941 123.96C32.3941 123.96 32.6391 124.142 32.9884 124.471C33.3377 124.805 33.8121 125.27 34.3282 125.792C34.8443 126.314 35.303 126.794 35.6263 127.149C35.9495 127.504 36.1424 127.733 36.1267 127.749C36.1111 127.765 35.8817 127.571 35.5324 127.237C35.1831 126.903 34.7087 126.439 34.1926 125.912C33.6765 125.39 33.2178 124.904 32.8894 124.549C32.5661 124.195 32.3733 123.97 32.3941 123.949V123.96Z" fill="#E0E0E0"/>
<path d="M32.3366 102.254C32.3366 102.254 32.5191 102.008 32.8475 101.659C33.1811 101.309 33.6451 100.834 34.1664 100.317C34.6877 99.8005 35.1673 99.3412 35.5218 99.0176C35.8763 98.694 36.1057 98.5009 36.1213 98.5165C36.137 98.5322 35.9441 98.7618 35.6104 99.1115C35.2768 99.4612 34.8128 99.9362 34.2863 100.453C33.765 100.97 33.2802 101.429 32.9257 101.758C32.5712 102.081 32.347 102.274 32.3262 102.254H32.3366Z" fill="#E0E0E0"/>
<path d="M11.5733 102.306C11.5733 102.306 11.3283 102.123 10.979 101.794C10.6298 101.46 10.1554 100.996 9.63926 100.474C9.12316 99.9518 8.6644 99.4716 8.34119 99.1167C8.01797 98.7618 7.82509 98.5322 7.84073 98.5165C7.85637 98.5009 8.08575 98.694 8.43502 99.028C8.7843 99.362 9.2587 99.8266 9.7748 100.354C10.2909 100.881 10.7497 101.361 11.0781 101.716C11.4013 102.071 11.5942 102.295 11.5733 102.316V102.306Z" fill="#E0E0E0"/>
<path d="M32.3362 123.866C32.3362 123.866 32.3362 123.829 32.3362 123.762C32.3362 123.689 32.3362 123.589 32.3362 123.459C32.3362 123.187 32.331 122.796 32.3258 122.29C32.3258 121.262 32.3153 119.769 32.3049 117.874C32.2945 114.08 32.2789 108.673 32.2632 102.196L32.3414 102.274C26.2942 102.274 19.1939 102.279 11.6349 102.284L11.7287 102.19C11.7287 110.145 11.7183 117.587 11.7183 123.866L11.6401 123.788C17.8437 123.803 23.0151 123.819 26.633 123.829C28.442 123.84 29.8652 123.845 30.8452 123.85C31.3301 123.85 31.7002 123.856 31.9609 123.861C32.0808 123.861 32.1798 123.861 32.2476 123.861C32.3101 123.861 32.3466 123.861 32.3466 123.861C32.3466 123.861 32.3153 123.861 32.2528 123.861C32.185 123.861 32.0912 123.861 31.9713 123.861C31.7158 123.861 31.3509 123.861 30.8713 123.871C29.8965 123.871 28.4785 123.882 26.6747 123.892C23.0412 123.903 17.8541 123.918 11.6296 123.934H11.5514V123.856C11.5514 117.577 11.541 110.139 11.541 102.18V102.086H11.6349C19.1991 102.086 26.2994 102.096 32.3414 102.096H32.4196V102.175C32.404 108.673 32.3883 114.095 32.3779 117.906C32.3675 119.795 32.3623 121.282 32.357 122.305C32.357 122.806 32.3518 123.193 32.3466 123.459C32.3466 123.584 32.3466 123.683 32.3466 123.751C32.3466 123.819 32.3466 123.85 32.3466 123.845L32.3362 123.866Z" fill="#E0E0E0"/>
<path d="M25.4771 109.562H18.5488V116.499H25.4771V109.562Z" fill="#EBEBEB"/>
<path d="M222.319 112.016C216.736 114.912 212.456 119.897 209.38 125.382C206.305 130.868 204.319 136.891 202.353 142.872L200.633 173.708C207.128 162.643 212.342 149.641 213.749 136.885C212.31 136.755 210.866 136.63 209.427 136.499C212.326 136.056 214.76 133.952 216.304 131.463C217.852 128.968 218.649 126.097 219.426 123.263C217.669 123.524 215.913 123.785 214.15 124.046C218.279 121.285 221.272 116.875 222.314 112.016H222.319Z" fill="#E0E0E0"/>
<path d="M199.673 180.932C199.673 180.932 185.576 164.038 185.738 147.91H191.431C191.431 147.91 185.243 143.839 185.733 141.558C186.223 139.277 186.384 130.645 186.384 130.645L191.592 131.95C191.592 131.95 187.688 129.992 187.198 126.897C186.708 123.802 188.334 109.465 188.334 109.465C188.334 109.465 194.678 116.146 196.633 122.988C198.588 129.83 203.713 137.811 202.206 158.662C200.7 179.513 199.667 180.932 199.667 180.932H199.673Z" fill="#EBEBEB"/>
<path d="M206.82 182.529C206.82 182.529 222.094 172.341 225.488 159.339L220.911 158.092C220.911 158.092 226.776 156.171 226.88 154.23C226.984 152.288 228.741 145.31 228.741 145.31L224.268 145.216C224.268 145.216 227.834 144.501 228.903 142.116C229.972 139.731 231.796 127.852 231.796 127.852C231.796 127.852 225.233 131.834 222.167 136.907C219.102 141.98 213.237 147.272 209.891 164.371C206.544 181.469 206.82 182.524 206.82 182.524V182.529Z" fill="#EBEBEB"/>
<path d="M192.193 124.195C192.193 124.195 192.214 124.253 192.245 124.373C192.276 124.503 192.318 124.675 192.37 124.895C192.474 125.37 192.625 126.043 192.818 126.899C193.016 127.771 193.241 128.835 193.486 130.077C193.736 131.32 194.028 132.734 194.314 134.3C194.919 137.431 195.555 141.179 196.212 145.344C196.848 149.514 197.484 154.107 198.047 158.94C198.6 163.778 199.027 168.397 199.361 172.604C199.674 176.811 199.903 180.605 200.028 183.789C200.106 185.381 200.143 186.827 200.184 188.09C200.226 189.358 200.247 190.449 200.257 191.341C200.268 192.218 200.273 192.907 200.278 193.393C200.278 193.617 200.278 193.794 200.278 193.925C200.278 194.045 200.278 194.108 200.268 194.108C200.268 194.108 200.257 194.045 200.252 193.925C200.247 193.789 200.237 193.612 200.226 193.393C200.211 192.907 200.184 192.218 200.153 191.341C200.127 190.449 200.091 189.358 200.033 188.095C199.981 186.832 199.929 185.386 199.84 183.794C199.689 180.611 199.439 176.821 199.116 172.62C198.772 168.418 198.334 163.804 197.781 158.971C197.218 154.138 196.593 149.551 195.967 145.38C195.326 141.215 194.705 137.468 194.127 134.336C193.85 132.765 193.574 131.351 193.334 130.109C193.1 128.861 192.891 127.791 192.709 126.92C192.537 126.059 192.406 125.38 192.313 124.905C192.271 124.686 192.24 124.514 192.214 124.378C192.193 124.258 192.188 124.201 192.188 124.195H192.193Z" fill="#E0E0E0"/>
<path d="M197.719 191.275C197.719 191.275 184.816 176.62 180.812 167.763L183.836 166.468C181.647 166.828 179.4 165.889 177.7 164.454C176.001 163.023 174.755 161.139 173.53 159.281L177.513 158.608C173.889 157.59 170.699 155.116 168.807 151.859C173.509 152.632 177.763 155.221 181.266 158.451C184.102 161.066 186.505 164.104 188.815 167.209C189.941 168.723 190.926 170.336 191.744 172.037C193.913 176.526 197.724 185.9 197.719 191.281V191.275Z" fill="#EBEBEB"/>
<path d="M225.692 136.391C225.692 136.391 225.676 136.443 225.634 136.542C225.582 136.652 225.52 136.793 225.436 136.97C225.249 137.356 224.988 137.904 224.649 138.598C223.956 140.008 222.981 142.054 221.792 144.59C220.604 147.127 219.233 150.175 217.763 153.572C216.303 156.981 214.749 160.744 213.206 164.737C211.668 168.729 210.287 172.565 209.077 176.068C207.878 179.575 206.846 182.748 206.023 185.431C205.194 188.108 204.542 190.285 204.109 191.788C203.89 192.524 203.718 193.103 203.598 193.521C203.541 193.709 203.494 193.855 203.458 193.97C203.426 194.069 203.406 194.121 203.4 194.121C203.4 194.121 203.406 194.069 203.432 193.965C203.463 193.85 203.499 193.698 203.546 193.51C203.656 193.093 203.812 192.508 204.01 191.767C204.412 190.254 205.037 188.067 205.845 185.384C206.648 182.696 207.665 179.512 208.848 176C210.047 172.487 211.423 168.651 212.961 164.653C214.51 160.66 216.068 156.892 217.544 153.489C219.029 150.091 220.416 147.054 221.625 144.522C222.835 141.991 223.841 139.955 224.56 138.562C224.915 137.878 225.191 137.341 225.389 136.96C225.483 136.787 225.556 136.652 225.614 136.547C225.666 136.453 225.692 136.406 225.697 136.411L225.692 136.391Z" fill="#E0E0E0"/>
<path d="M198.813 197.562C198.813 197.562 198.782 197.468 198.751 197.291C198.714 197.082 198.673 196.826 198.626 196.513C198.527 195.834 198.36 194.858 198.12 193.663C197.891 192.463 197.557 191.048 197.135 189.488C196.697 187.932 196.165 186.241 195.514 184.498C194.852 182.755 194.137 181.132 193.439 179.675C192.73 178.224 192.042 176.946 191.421 175.891C190.806 174.837 190.29 173.992 189.92 173.418C189.753 173.151 189.612 172.927 189.503 172.749C189.409 172.593 189.362 172.509 189.373 172.504C189.378 172.499 189.44 172.572 189.55 172.718C189.675 172.89 189.826 173.099 190.009 173.36C190.41 173.913 190.952 174.748 191.588 175.792C192.229 176.836 192.933 178.115 193.663 179.566C194.377 181.022 195.102 182.65 195.769 184.404C196.426 186.158 196.958 187.859 197.38 189.425C197.792 190.996 198.105 192.421 198.313 193.627C198.527 194.832 198.668 195.819 198.735 196.497C198.767 196.81 198.793 197.071 198.813 197.28C198.829 197.458 198.829 197.557 198.824 197.557L198.813 197.562Z" fill="#E0E0E0"/>
<path d="M215.834 194.109H187.6V199.877H215.834V194.109Z" fill="#E0E0E0"/>
<path d="M190.289 199.879L193.188 216.414H210.25L213.253 199.879H190.289Z" fill="#E0E0E0"/>
<path d="M214.103 199.878C214.103 199.951 208.759 200.014 202.175 200.014C195.591 200.014 190.242 199.951 190.242 199.878C190.242 199.805 195.58 199.742 202.175 199.742C208.77 199.742 214.103 199.805 214.103 199.878Z" fill="#EBEBEB"/>
<path d="M48.2727 4.07812H2.41797V78.6408H48.2727V4.07812Z" fill="#E0E0E0"/>
<path d="M46.7512 4.07812H0.896484V78.6408H46.7512V4.07812Z" fill="#EBEBEB"/>
<path d="M44.7958 5.58984H2.8457V77.1305H44.7958V5.58984Z" fill="white"/>
<path d="M36.6266 14.8867H10.832V67.8363H36.6266V14.8867Z" fill="#EBEBEB"/>
<path d="M10.8326 49.0983C10.7752 44.1504 15.3002 39.3226 20.284 38.6336C22.6612 38.3048 25.1895 38.7693 27.4103 37.8716C31.3775 36.2745 32.6391 31.097 36.6271 29.5625L36.8096 67.8303H10.8326V49.093V49.0983Z" fill="#E0E0E0"/>
<path d="M232 216.644C232 216.717 180.062 216.779 116.008 216.779C51.9541 216.779 0 216.717 0 216.644C0 216.57 51.928 216.508 116.008 216.508C180.088 216.508 232 216.57 232 216.644Z" fill="#263238"/>
<path d="M168.525 171.432H63.4754C60.6343 171.432 58.3301 169.047 58.3301 166.104V5.32889C58.3249 2.38521 60.6291 0 63.4702 0H168.525C171.366 0 173.676 2.38521 173.676 5.33411V166.104C173.676 169.047 171.372 171.438 168.525 171.438V171.432Z" fill="#263238"/>
<path d="M118.01 163.635C118.01 166.292 115.821 168.442 113.12 168.442C110.42 168.442 108.23 166.286 108.23 163.635C108.23 160.984 110.42 158.828 113.12 158.828C115.821 158.828 118.01 160.984 118.01 163.635Z" fill="#455A64"/>
<path d="M127.821 9.05922H104.263C103.356 9.05922 102.621 8.29721 102.621 7.35774C102.621 6.41827 103.356 5.65625 104.263 5.65625H127.821C128.728 5.65625 129.464 6.41827 129.464 7.35774C129.464 8.29721 128.728 9.05922 127.821 9.05922Z" fill="#455A64"/>
<path d="M169.939 12.2305H61.8652V155.401H169.939V12.2305Z" fill="white"/>
<path d="M170.036 12.2305H61.9629V155.401H170.036V12.2305Z" fill="#EBEBEB"/>
<path d="M155.826 23.9062H76.1694C73.3306 23.9062 71.0293 26.2103 71.0293 29.0525V138.501C71.0293 141.343 73.3306 143.647 76.1694 143.647H155.826C158.665 143.647 160.966 141.343 160.966 138.501V29.0525C160.966 26.2103 158.665 23.9062 155.826 23.9062Z" fill="white"/>
<path d="M100.186 39.3544L100.691 38.2114C101.176 38.5298 101.864 38.749 102.495 38.749C103.126 38.749 103.386 38.5715 103.386 38.3053C103.386 37.4389 100.279 38.0705 100.279 36.0402C100.279 35.0642 101.077 34.2656 102.698 34.2656C103.407 34.2656 104.142 34.4274 104.679 34.7406L104.205 35.8888C103.684 35.607 103.167 35.4661 102.693 35.4661C102.047 35.4661 101.812 35.6853 101.812 35.9567C101.812 36.7918 104.909 36.1654 104.909 38.1853C104.909 39.1404 104.111 39.9494 102.49 39.9494C101.593 39.9494 100.702 39.7093 100.186 39.3492V39.3544Z" fill="#7B4DD3"/>
<path d="M105.383 34.3545C105.383 33.9109 105.743 33.5664 106.29 33.5664C106.837 33.5664 107.197 33.8848 107.197 34.3336C107.197 34.8034 106.837 35.1478 106.29 35.1478C105.743 35.1478 105.383 34.8034 105.383 34.3597V34.3545ZM105.544 35.6124H107.025V39.8452H105.544V35.6124Z" fill="#7B4DD3"/>
<path d="M112.542 35.6108V39.0712C112.542 40.6735 111.634 41.4303 110.06 41.4303C109.247 41.4303 108.475 41.2424 107.959 40.8771L108.496 39.8384C108.845 40.1203 109.424 40.2925 109.925 40.2925C110.722 40.2925 111.056 39.9324 111.056 39.2695V39.1286C110.769 39.4627 110.336 39.6297 109.799 39.6297C108.673 39.6297 107.725 38.8311 107.725 37.5837C107.725 36.3363 108.679 35.543 109.799 35.543C110.383 35.543 110.837 35.7309 111.124 36.1275V35.6108H112.536H112.542ZM111.077 37.5785C111.077 37.0618 110.686 36.7173 110.154 36.7173C109.622 36.7173 109.226 37.0618 109.226 37.5785C109.226 38.0952 109.622 38.4449 110.154 38.4449C110.686 38.4449 111.077 38.0952 111.077 37.5785Z" fill="#7B4DD3"/>
<path d="M117.993 37.4232V39.845H116.513V37.6633C116.513 37.0527 116.247 36.7969 115.819 36.7969C115.345 36.7969 114.975 37.0944 114.975 37.799V39.845H113.494V35.6121H114.907V36.0714C115.241 35.7217 115.72 35.5391 116.247 35.5391C117.237 35.5391 117.993 36.108 117.993 37.4232Z" fill="#7B4DD3"/>
<path d="M125.646 35.612V39.8448H124.233V39.3908C123.915 39.7405 123.462 39.9127 122.977 39.9127C121.939 39.9127 121.184 39.3177 121.184 37.9763V35.6068H122.664V37.731C122.664 38.3887 122.92 38.6444 123.368 38.6444C123.816 38.6444 124.165 38.3573 124.165 37.6423V35.6016H125.646V35.612Z" fill="#7B4DD3"/>
<path d="M131.333 37.7259C131.333 39.0673 130.405 39.9128 129.258 39.9128C128.768 39.9128 128.367 39.7667 128.08 39.4692V41.3586H126.6V35.6069H128.012V36.0297C128.294 35.6956 128.706 35.5391 129.264 35.5391C130.41 35.5391 131.338 36.3846 131.338 37.7259H131.333ZM129.837 37.7259C129.837 37.084 129.446 36.7186 128.946 36.7186C128.445 36.7186 128.054 37.084 128.054 37.7259C128.054 38.3679 128.445 38.7333 128.946 38.7333C129.446 38.7333 129.837 38.3679 129.837 37.7259Z" fill="#7B4DD3"/>
<path d="M81.3084 70.4032V70.9825H82.3198V71.3896H81.3084V72.1882H80.8027V69.9961H82.4553V70.4032H81.3084Z" fill="#263238"/>
<path d="M84.4156 70.5039V72.1897H83.9517V71.9914C83.8213 72.1375 83.6337 72.2158 83.4303 72.2158C83.0081 72.2158 82.7109 71.9757 82.7109 71.459V70.5091H83.201V71.3912C83.201 71.673 83.3261 71.7983 83.5398 71.7983C83.7536 71.7983 83.9256 71.6521 83.9256 71.3442V70.5143H84.4156V70.5039Z" fill="#263238"/>
<path d="M84.8691 69.8672H85.3592V72.1898H84.8691V69.8672Z" fill="#263238"/>
<path d="M85.8125 69.8672H86.3025V72.1898H85.8125V69.8672Z" fill="#263238"/>
<path d="M89.6809 69.9961V72.1882H89.2638L88.1743 70.8573V72.1882H87.6738V69.9961H88.0909L89.1804 71.327V69.9961H89.6809Z" fill="#263238"/>
<path d="M91.6512 71.2281V72.1885H91.1925V71.9797C91.1038 72.1311 90.9266 72.2146 90.6816 72.2146C90.2854 72.2146 90.0508 71.9954 90.0508 71.7031C90.0508 71.4108 90.2593 71.1968 90.7754 71.1968H91.1612C91.1612 70.9881 91.0361 70.8628 90.7754 70.8628C90.5982 70.8628 90.4105 70.9202 90.2906 71.0194L90.1133 70.6801C90.2958 70.5496 90.5721 70.4766 90.838 70.4766C91.3488 70.4766 91.646 70.7167 91.646 71.2229L91.6512 71.2281ZM91.1612 71.6561V71.4839H90.8275C90.5982 71.4839 90.5252 71.5674 90.5252 71.6822C90.5252 71.8023 90.6294 71.8858 90.8015 71.8858C90.9631 71.8858 91.1038 71.8127 91.1612 71.6561Z" fill="#263238"/>
<path d="M94.9362 71.2242V72.1898H94.4462V71.3025C94.4462 71.0311 94.3263 70.9058 94.1282 70.9058C93.9092 70.9058 93.7581 71.0467 93.7581 71.3495V72.195H93.268V71.3077C93.268 71.0363 93.1533 70.911 92.95 70.911C92.7363 70.911 92.5799 71.052 92.5799 71.3547V72.2002H92.0898V70.5144H92.5538V70.7075C92.6789 70.5614 92.8666 70.4883 93.0803 70.4883C93.3149 70.4883 93.513 70.577 93.6329 70.7649C93.7685 70.5927 93.9874 70.4883 94.2377 70.4883C94.6391 70.4883 94.9258 70.7179 94.9258 71.2346L94.9362 71.2242Z" fill="#263238"/>
<path d="M97.0316 71.4865H95.7596C95.8065 71.6953 95.9837 71.8257 96.2392 71.8257C96.4164 71.8257 96.5467 71.7735 96.6614 71.6639L96.9221 71.9458C96.7657 72.1232 96.5311 72.2172 96.2287 72.2172C95.6449 72.2172 95.2695 71.8518 95.2695 71.3508C95.2695 70.8497 95.6553 70.4844 96.1662 70.4844C96.6771 70.4844 97.042 70.8184 97.042 71.356C97.042 71.3925 97.0368 71.4447 97.0316 71.4865ZM95.7543 71.1994H96.5832C96.5468 70.9854 96.3904 70.8497 96.1714 70.8497C95.9524 70.8497 95.7908 70.9854 95.7543 71.1994Z" fill="#263238"/>
<path d="M82.497 86.2694V86.6765H80.8027V84.4844H82.4553V84.8915H81.3032V85.3664H82.3198V85.7631H81.3032V86.2694H82.4918H82.497Z" fill="#263238"/>
<path d="M85.7077 85.7164V86.682H85.2177V85.7947C85.2177 85.5233 85.0978 85.398 84.8997 85.398C84.6807 85.398 84.5295 85.5389 84.5295 85.8416V86.6872H84.0395V85.7999C84.0395 85.5285 83.9248 85.4032 83.7215 85.4032C83.5078 85.4032 83.3514 85.5441 83.3514 85.8469V86.6924H82.8613V85.0066H83.3253V85.1997C83.4504 85.0535 83.6381 84.9805 83.8518 84.9805C84.0864 84.9805 84.2845 85.0692 84.4044 85.2571C84.54 85.0849 84.7589 84.9805 85.0091 84.9805C85.4106 84.9805 85.6973 85.2101 85.6973 85.7268L85.7077 85.7164Z" fill="#263238"/>
<path d="M87.6317 85.7164V86.6768H87.1729V86.468C87.0843 86.6194 86.9071 86.7029 86.662 86.7029C86.2658 86.7029 86.0312 86.4837 86.0312 86.1914C86.0312 85.8991 86.2398 85.6851 86.7559 85.6851H87.1416C87.1416 85.4763 87.0165 85.3511 86.7559 85.3511C86.5786 85.3511 86.391 85.4085 86.2711 85.5077L86.0938 85.1684C86.2763 85.0379 86.5526 84.9648 86.8184 84.9648C87.3293 84.9648 87.6265 85.2049 87.6265 85.7112L87.6317 85.7164ZM87.1416 86.1444V85.9722H86.808C86.5786 85.9722 86.5056 86.0557 86.5056 86.1705C86.5056 86.2905 86.6099 86.3741 86.7819 86.3741C86.9435 86.3741 87.0843 86.301 87.1416 86.1444Z" fill="#263238"/>
<path d="M88.0176 84.4902C88.0176 84.3388 88.1375 84.2188 88.3199 84.2188C88.5024 84.2188 88.6223 84.3336 88.6223 84.4797C88.6223 84.6415 88.5024 84.7616 88.3199 84.7616C88.1375 84.7616 88.0176 84.6415 88.0176 84.4902ZM88.0749 84.9964H88.565V86.6823H88.0749V84.9964Z" fill="#263238"/>
<path d="M89.0195 84.3555H89.5096V86.6781H89.0195V84.3555Z" fill="#263238"/>
<path d="M92.3186 86.2106H91.3021L91.1092 86.6804H90.5879L91.5627 84.4883H92.0632L93.0433 86.6804H92.5115L92.3186 86.2106ZM92.157 85.8244L91.8078 84.9841L91.4585 85.8244H92.1518H92.157Z" fill="#263238"/>
<path d="M94.9353 84.3555V86.6781H94.4713V86.4849C94.3514 86.6311 94.1689 86.7041 93.9448 86.7041C93.4704 86.7041 93.1055 86.3649 93.1055 85.8378C93.1055 85.3106 93.4704 84.9713 93.9448 84.9713C94.1533 84.9713 94.3253 85.0392 94.4504 85.1749V84.3555H94.9405H94.9353ZM94.4557 85.8378C94.4557 85.5455 94.268 85.3732 94.0282 85.3732C93.7884 85.3732 93.5955 85.5507 93.5955 85.8378C93.5955 86.1248 93.7832 86.3023 94.0282 86.3023C94.2732 86.3023 94.4557 86.1248 94.4557 85.8378Z" fill="#263238"/>
<path d="M97.1033 84.3555V86.6781H96.6393V86.4849C96.5194 86.6311 96.3369 86.7041 96.1128 86.7041C95.6384 86.7041 95.2734 86.3649 95.2734 85.8378C95.2734 85.3106 95.6384 84.9713 96.1128 84.9713C96.3213 84.9713 96.4933 85.0392 96.6184 85.1749V84.3555H97.1033ZM96.6236 85.8378C96.6236 85.5455 96.436 85.3732 96.1962 85.3732C95.9564 85.3732 95.7635 85.5507 95.7635 85.8378C95.7635 86.1248 95.9511 86.3023 96.1962 86.3023C96.4412 86.3023 96.6236 86.1248 96.6236 85.8378Z" fill="#263238"/>
<path d="M98.5947 84.9688V85.4176C98.553 85.4176 98.5217 85.4124 98.4852 85.4124C98.2142 85.4124 98.0369 85.5585 98.0369 85.8821V86.6755H97.5469V84.9896H98.0108V85.2141C98.1307 85.0523 98.3288 84.9688 98.5895 84.9688H98.5947Z" fill="#263238"/>
<path d="M100.514 85.9787H99.242C99.2889 86.1874 99.4662 86.3179 99.7216 86.3179C99.8988 86.3179 100.029 86.2657 100.144 86.1561L100.405 86.438C100.248 86.6154 100.014 86.7094 99.7112 86.7094C99.1273 86.7094 98.752 86.344 98.752 85.843C98.752 85.3419 99.1377 84.9766 99.6486 84.9766C100.159 84.9766 100.524 85.3106 100.524 85.8482C100.524 85.8847 100.519 85.9369 100.514 85.9787ZM99.2368 85.6916H100.066C100.029 85.4776 99.8728 85.3419 99.6538 85.3419C99.4349 85.3419 99.2733 85.4776 99.2368 85.6916Z" fill="#263238"/>
<path d="M100.685 86.5189L100.847 86.1692C100.998 86.2684 101.227 86.331 101.43 86.331C101.655 86.331 101.738 86.2736 101.738 86.1796C101.738 85.903 100.721 86.1848 100.721 85.5116C100.721 85.1932 101.008 84.9688 101.498 84.9688C101.728 84.9688 101.988 85.0209 102.145 85.1149L101.983 85.4646C101.816 85.3706 101.649 85.3393 101.498 85.3393C101.279 85.3393 101.185 85.4072 101.185 85.4959C101.185 85.783 102.202 85.5063 102.202 86.1692C102.202 86.4823 101.91 86.7068 101.41 86.7068C101.123 86.7068 100.836 86.6285 100.68 86.5241L100.685 86.5189Z" fill="#263238"/>
<path d="M102.343 86.5189L102.505 86.1692C102.656 86.2684 102.885 86.331 103.089 86.331C103.313 86.331 103.396 86.2736 103.396 86.1796C103.396 85.903 102.38 86.1848 102.38 85.5116C102.38 85.1932 102.666 84.9688 103.156 84.9688C103.386 84.9688 103.646 85.0209 103.803 85.1149L103.641 85.4646C103.474 85.3706 103.308 85.3393 103.156 85.3393C102.937 85.3393 102.844 85.4072 102.844 85.4959C102.844 85.783 103.86 85.5063 103.86 86.1692C103.86 86.4823 103.568 86.7068 103.068 86.7068C102.781 86.7068 102.494 86.6285 102.338 86.5241L102.343 86.5189Z" fill="#263238"/>
<path d="M83.0304 99.2738C83.0304 99.7644 82.6655 100.067 82.0816 100.067H81.6385V100.673H81.1328V98.4805H82.0816C82.6655 98.4805 83.0304 98.7832 83.0304 99.2738ZM82.5195 99.2738C82.5195 99.0337 82.3631 98.8928 82.0555 98.8928H81.6437V99.6548H82.0555C82.3631 99.6548 82.5195 99.5139 82.5195 99.2738Z" fill="#263238"/>
<path d="M84.829 99.7073V100.668H84.3702V100.459C84.2816 100.61 84.1043 100.694 83.8593 100.694C83.4631 100.694 83.2285 100.475 83.2285 100.182C83.2285 99.89 83.437 99.6812 83.9531 99.6812H84.3389C84.3389 99.4724 84.2138 99.3472 83.9531 99.3472C83.7759 99.3472 83.5882 99.4046 83.4683 99.5037L83.2911 99.1645C83.4735 99.034 83.7498 98.9609 84.0157 98.9609C84.5266 98.9609 84.8237 99.201 84.8237 99.7073H84.829ZM84.3389 100.135V99.963H84.0053C83.7759 99.963 83.7029 100.047 83.7029 100.161C83.7029 100.281 83.8072 100.365 83.9792 100.365C84.1408 100.365 84.2816 100.292 84.3389 100.135Z" fill="#263238"/>
<path d="M85.1107 100.511L85.2723 100.161C85.4235 100.261 85.6528 100.323 85.8562 100.323C86.0803 100.323 86.1637 100.266 86.1637 100.172C86.1637 99.8952 85.1472 100.177 85.1472 99.5037C85.1472 99.1854 85.4339 98.9609 85.9239 98.9609C86.1533 98.9609 86.414 99.0131 86.5704 99.1071L86.4088 99.4515C86.2419 99.3576 86.0751 99.3263 85.9239 99.3263C85.705 99.3263 85.6111 99.3941 85.6111 99.4829C85.6111 99.7699 86.6277 99.4933 86.6277 100.156C86.6277 100.469 86.3358 100.694 85.8353 100.694C85.5486 100.694 85.2619 100.615 85.1055 100.511H85.1107Z" fill="#263238"/>
<path d="M86.7689 100.511L86.9305 100.161C87.0817 100.261 87.3111 100.323 87.5144 100.323C87.7385 100.323 87.8219 100.266 87.8219 100.172C87.8219 99.8952 86.8054 100.177 86.8054 99.5037C86.8054 99.1854 87.0921 98.9609 87.5821 98.9609C87.8115 98.9609 88.0722 99.0131 88.2286 99.1071L88.067 99.4515C87.9001 99.3576 87.7333 99.3263 87.5821 99.3263C87.3632 99.3263 87.2693 99.3941 87.2693 99.4829C87.2693 99.7699 88.2859 99.4933 88.2859 100.156C88.2859 100.469 87.994 100.694 87.4935 100.694C87.2068 100.694 86.9201 100.615 86.7637 100.511H86.7689Z" fill="#263238"/>
<path d="M91.2625 98.9844L90.6525 100.67H90.1833L89.8028 99.6264L89.4118 100.67H88.9426L88.3379 98.9844H88.7966L89.1928 100.122L89.6047 98.9844H90.0165L90.4179 100.122L90.8298 98.9844H91.2625Z" fill="#263238"/>
<path d="M91.3184 99.8273C91.3184 99.3211 91.7093 98.9609 92.2411 98.9609C92.7728 98.9609 93.1638 99.3211 93.1638 99.8273C93.1638 100.334 92.778 100.694 92.2411 100.694C91.7041 100.694 91.3184 100.334 91.3184 99.8273ZM92.6738 99.8273C92.6738 99.5351 92.4913 99.3628 92.2463 99.3628C92.0013 99.3628 91.8136 99.5403 91.8136 99.8273C91.8136 100.114 92.0013 100.292 92.2463 100.292C92.4913 100.292 92.6738 100.114 92.6738 99.8273Z" fill="#263238"/>
<path d="M94.5361 98.9609V99.4098C94.4944 99.4098 94.4631 99.4046 94.4266 99.4046C94.1556 99.4046 93.9783 99.5507 93.9783 99.8743V100.668H93.4883V98.9818H93.9522V99.2062C94.0722 99.0444 94.2703 98.9609 94.5309 98.9609H94.5361Z" fill="#263238"/>
<path d="M96.5271 98.3438V100.666H96.0631V100.473C95.9432 100.619 95.7607 100.692 95.5366 100.692C95.0622 100.692 94.6973 100.353 94.6973 99.826C94.6973 99.2989 95.0622 98.9596 95.5366 98.9596C95.7451 98.9596 95.9171 99.0275 96.0423 99.1632V98.349H96.5323L96.5271 98.3438ZM96.0475 99.826C96.0475 99.5337 95.8598 99.3615 95.62 99.3615C95.3802 99.3615 95.1873 99.539 95.1873 99.826C95.1873 100.113 95.375 100.291 95.62 100.291C95.865 100.291 96.0475 100.113 96.0475 99.826Z" fill="#263238"/>
<path d="M138.664 126.23H97.0055C95.6293 126.23 94.5137 127.347 94.5137 128.725V133.292C94.5137 134.67 95.6293 135.787 97.0055 135.787H138.664C140.04 135.787 141.156 134.67 141.156 133.292V128.725C141.156 127.347 140.04 126.23 138.664 126.23Z" fill="#7B4DD3"/>
<path d="M102.871 130.796C102.871 130.018 103.465 129.465 104.279 129.465C104.748 129.465 105.128 129.637 105.379 129.945L104.92 130.363C104.758 130.169 104.56 130.06 104.315 130.06C103.893 130.06 103.601 130.352 103.601 130.791C103.601 131.229 103.893 131.521 104.315 131.521C104.56 131.521 104.758 131.417 104.92 131.224L105.379 131.641C105.128 131.949 104.748 132.121 104.279 132.121C103.471 132.121 102.871 131.568 102.871 130.791V130.796Z" fill="white"/>
<path d="M106.99 130.059V130.685C106.928 130.68 106.886 130.674 106.834 130.674C106.552 130.674 106.359 130.815 106.359 131.165V132.073H105.666V130.09H106.328V130.33C106.469 130.153 106.698 130.059 106.99 130.059Z" fill="white"/>
<path d="M109.268 131.262H107.829C107.887 131.46 108.059 131.58 108.314 131.58C108.507 131.58 108.637 131.523 108.773 131.408L109.138 131.789C108.95 132.003 108.669 132.112 108.293 132.112C107.59 132.112 107.131 131.679 107.131 131.084C107.131 130.489 107.595 130.066 108.22 130.066C108.804 130.066 109.279 130.437 109.279 131.095C109.279 131.147 109.273 131.209 109.268 131.267V131.262ZM107.819 130.896H108.627C108.591 130.687 108.439 130.557 108.22 130.557C108.001 130.557 107.855 130.687 107.814 130.896H107.819Z" fill="white"/>
<path d="M111.4 130.975V132.076H110.754V131.82C110.655 132.008 110.457 132.107 110.17 132.107C109.696 132.107 109.43 131.841 109.43 131.496C109.43 131.131 109.696 130.907 110.311 130.907H110.707C110.696 130.708 110.561 130.594 110.285 130.594C110.097 130.594 109.883 130.661 109.748 130.766L109.513 130.296C109.737 130.145 110.076 130.066 110.384 130.066C111.025 130.066 111.395 130.353 111.395 130.98L111.4 130.975ZM110.707 131.439V131.267H110.41C110.186 131.267 110.107 131.345 110.107 131.465C110.107 131.585 110.201 131.669 110.368 131.669C110.519 131.669 110.655 131.596 110.712 131.439H110.707Z" fill="white"/>
<path d="M113.198 131.992C113.078 132.07 112.901 132.107 112.718 132.107C112.213 132.107 111.916 131.856 111.916 131.35V130.687H111.629V130.165H111.916V129.648H112.609V130.165H113.063V130.687H112.609V131.345C112.609 131.491 112.692 131.569 112.817 131.569C112.896 131.569 112.969 131.548 113.031 131.507L113.203 131.992H113.198Z" fill="white"/>
<path d="M115.42 131.262H113.981C114.038 131.46 114.211 131.58 114.466 131.58C114.659 131.58 114.789 131.523 114.919 131.408L115.284 131.789C115.097 132.003 114.815 132.112 114.44 132.112C113.736 132.112 113.277 131.679 113.277 131.084C113.277 130.489 113.741 130.066 114.367 130.066C114.951 130.066 115.425 130.437 115.425 131.095C115.425 131.147 115.42 131.209 115.415 131.267L115.42 131.262ZM113.971 130.896H114.784C114.747 130.687 114.596 130.557 114.377 130.557C114.158 130.557 114.012 130.687 113.971 130.896Z" fill="white"/>
<path d="M118.557 131.573H117.477L117.274 132.069H116.539L117.665 129.512H118.379L119.511 132.069H118.76L118.562 131.573H118.557ZM118.343 131.041L118.014 130.222L117.686 131.041H118.343Z" fill="white"/>
<path d="M119.537 131.076C119.537 130.481 120.006 130.059 120.674 130.059C121.122 130.059 121.466 130.262 121.602 130.601L121.065 130.878C120.971 130.69 120.83 130.612 120.668 130.612C120.429 130.612 120.236 130.779 120.236 131.082C120.236 131.384 120.423 131.557 120.668 131.557C120.83 131.557 120.966 131.478 121.065 131.29L121.602 131.567C121.466 131.911 121.122 132.11 120.674 132.11C120.012 132.11 119.537 131.687 119.537 131.082V131.076Z" fill="white"/>
<path d="M121.717 131.076C121.717 130.481 122.186 130.059 122.853 130.059C123.302 130.059 123.646 130.262 123.781 130.601L123.244 130.878C123.15 130.69 123.01 130.612 122.848 130.612C122.608 130.612 122.415 130.779 122.415 131.082C122.415 131.384 122.603 131.557 122.848 131.557C123.01 131.557 123.145 131.478 123.244 131.29L123.781 131.567C123.646 131.911 123.302 132.11 122.853 132.11C122.191 132.11 121.717 131.687 121.717 131.082V131.076Z" fill="white"/>
<path d="M123.896 131.076C123.896 130.481 124.366 130.059 125.012 130.059C125.659 130.059 126.128 130.481 126.128 131.076C126.128 131.671 125.664 132.105 125.012 132.105C124.36 132.105 123.896 131.677 123.896 131.076ZM125.429 131.076C125.429 130.779 125.252 130.607 125.012 130.607C124.772 130.607 124.595 130.774 124.595 131.076C124.595 131.379 124.778 131.551 125.012 131.551C125.247 131.551 125.429 131.379 125.429 131.076Z" fill="white"/>
<path d="M128.53 130.09V132.073H127.868V131.859C127.717 132.026 127.508 132.104 127.279 132.104C126.794 132.104 126.439 131.828 126.439 131.196V130.09H127.133V131.087C127.133 131.395 127.253 131.515 127.461 131.515C127.67 131.515 127.831 131.379 127.831 131.045V130.09H128.525H128.53Z" fill="white"/>
<path d="M131.079 130.941V132.073H130.385V131.055C130.385 130.768 130.26 130.648 130.062 130.648C129.838 130.648 129.666 130.789 129.666 131.118V132.078H128.973V130.095H129.635V130.309C129.791 130.142 130.015 130.059 130.26 130.059C130.724 130.059 131.079 130.325 131.079 130.941Z" fill="white"/>
<path d="M132.878 131.992C132.758 132.07 132.581 132.107 132.398 132.107C131.892 132.107 131.595 131.856 131.595 131.35V130.687H131.309V130.165H131.595V129.648H132.289V130.165H132.742V130.687H132.289V131.345C132.289 131.491 132.372 131.569 132.497 131.569C132.575 131.569 132.648 131.548 132.711 131.507L132.883 131.992H132.878Z" fill="white"/>
<path d="M117.953 71.2226V69.9961H118.459V71.2017C118.459 71.6193 118.641 71.7915 118.949 71.7915C119.256 71.7915 119.434 71.6193 119.434 71.2017V69.9961H119.934V71.2226C119.934 71.8698 119.564 72.2247 118.944 72.2247C118.323 72.2247 117.953 71.8698 117.953 71.2226Z" fill="#263238"/>
<path d="M120.242 72.0306L120.403 71.6809C120.554 71.7801 120.784 71.8427 120.987 71.8427C121.211 71.8427 121.295 71.7853 121.295 71.6913C121.295 71.4147 120.278 71.6966 120.278 71.0233C120.278 70.7049 120.565 70.4805 121.055 70.4805C121.284 70.4805 121.545 70.5327 121.701 70.6266L121.54 70.9763C121.373 70.8824 121.211 70.851 121.055 70.851C120.836 70.851 120.742 70.9189 120.742 71.0076C120.742 71.2947 121.759 71.0181 121.759 71.6809C121.759 71.9941 121.467 72.2185 120.966 72.2185C120.679 72.2185 120.393 72.1402 120.236 72.0358L120.242 72.0306Z" fill="#263238"/>
<path d="M123.703 71.4826H122.431C122.478 71.6913 122.656 71.8218 122.911 71.8218C123.088 71.8218 123.219 71.7696 123.333 71.66L123.594 71.9419C123.438 72.1193 123.203 72.2133 122.901 72.2133C122.317 72.2133 121.941 71.8479 121.941 71.3469C121.941 70.8458 122.327 70.4805 122.838 70.4805C123.349 70.4805 123.714 70.8145 123.714 71.3521C123.714 71.3886 123.709 71.4408 123.703 71.4826ZM122.426 71.1955H123.255C123.219 70.9815 123.062 70.8458 122.843 70.8458C122.624 70.8458 122.463 70.9815 122.426 71.1955Z" fill="#263238"/>
<path d="M125.085 70.4766V70.9254C125.043 70.9254 125.012 70.9202 124.975 70.9202C124.704 70.9202 124.527 71.0663 124.527 71.3899V72.1833H124.037V70.4974H124.501V70.7219C124.621 70.5601 124.819 70.4766 125.08 70.4766H125.085Z" fill="#263238"/>
<path d="M127.092 71.2216V72.1872H126.607V71.2999C126.607 71.0285 126.482 70.9032 126.268 70.9032C126.034 70.9032 125.867 71.0494 125.867 71.3573V72.1924H125.377V70.5066H125.841V70.7049C125.971 70.5588 126.169 70.4805 126.399 70.4805C126.795 70.4805 127.097 70.7101 127.097 71.2268L127.092 71.2216Z" fill="#263238"/>
<path d="M129.025 71.2281V72.1885H128.571V71.9797C128.483 72.1311 128.305 72.2146 128.06 72.2146C127.669 72.2146 127.43 71.9954 127.43 71.7031C127.43 71.4108 127.638 71.1968 128.154 71.1968H128.54C128.54 70.9881 128.415 70.8628 128.154 70.8628C127.977 70.8628 127.789 70.9202 127.669 71.0194L127.492 70.6801C127.675 70.5496 127.951 70.4766 128.217 70.4766C128.728 70.4766 129.025 70.7167 129.025 71.2229V71.2281ZM128.535 71.6561V71.4839H128.201C127.972 71.4839 127.899 71.5674 127.899 71.6822C127.899 71.8023 128.003 71.8858 128.175 71.8858C128.337 71.8858 128.478 71.8127 128.535 71.6561Z" fill="#263238"/>
<path d="M132.305 71.2242V72.1898H131.815V71.3025C131.815 71.0311 131.695 70.9058 131.497 70.9058C131.278 70.9058 131.127 71.0467 131.127 71.3495V72.195H130.637V71.3077C130.637 71.0363 130.522 70.911 130.319 70.911C130.105 70.911 129.949 71.052 129.949 71.3547V72.2002H129.459V70.5144H129.923V70.7075C130.048 70.5614 130.236 70.4883 130.449 70.4883C130.684 70.4883 130.882 70.577 131.002 70.7649C131.138 70.5927 131.357 70.4883 131.607 70.4883C132.008 70.4883 132.295 70.7179 132.295 71.2346L132.305 71.2242Z" fill="#263238"/>
<path d="M134.407 71.4826H133.135C133.181 71.6913 133.359 71.8218 133.614 71.8218C133.791 71.8218 133.922 71.7696 134.036 71.66L134.297 71.9419C134.141 72.1193 133.906 72.2133 133.604 72.2133C133.02 72.2133 132.645 71.8479 132.645 71.3469C132.645 70.8458 133.03 70.4805 133.541 70.4805C134.052 70.4805 134.417 70.8145 134.417 71.3521C134.417 71.3886 134.412 71.4408 134.407 71.4826ZM133.129 71.1955H133.958C133.922 70.9815 133.765 70.8458 133.546 70.8458C133.327 70.8458 133.166 70.9815 133.129 71.1955Z" fill="#263238"/>
<path d="M81.127 64.4274H111.619C111.702 64.4274 111.702 64.2969 111.619 64.2969H81.127C81.0436 64.2969 81.0436 64.4274 81.127 64.4274Z" fill="#263238"/>
<path d="M120.664 64.4274H151.156C151.239 64.4274 151.239 64.2969 151.156 64.2969H120.664C120.581 64.2969 120.581 64.4274 120.664 64.4274Z" fill="#263238"/>
<path d="M114.146 64.092C114.146 63.4918 114.61 63.043 115.236 63.043C115.862 63.043 116.32 63.4866 116.32 64.092C116.32 64.6975 115.856 65.1411 115.236 65.1411C114.616 65.1411 114.146 64.6923 114.146 64.092ZM116.034 64.092C116.034 63.638 115.695 63.3039 115.241 63.3039C114.788 63.3039 114.444 63.638 114.444 64.092C114.444 64.5461 114.782 64.8802 115.241 64.8802C115.7 64.8802 116.034 64.5461 116.034 64.092Z" fill="#263238"/>
<path d="M117.567 63.5508V63.8222C117.567 63.8222 117.525 63.8222 117.504 63.8222C117.202 63.8222 117.014 64.0049 117.014 64.3493V65.1218H116.732V63.5664H117.004V63.8274C117.103 63.6447 117.295 63.5508 117.567 63.5508Z" fill="#263238"/>
<path d="M112.651 74.6094H82.1799C81.2758 74.6094 80.543 75.3431 80.543 76.2482V79.5886C80.543 80.4937 81.2758 81.2274 82.1799 81.2274H112.651C113.555 81.2274 114.288 80.4937 114.288 79.5886V76.2482C114.288 75.3431 113.555 74.6094 112.651 74.6094Z" fill="#EBEBEB"/>
<path d="M149.205 88.668H82.1799C81.2758 88.668 80.543 89.4017 80.543 90.3068V93.6472C80.543 94.5523 81.2758 95.286 82.1799 95.286H149.205C150.109 95.286 150.842 94.5523 150.842 93.6472V90.3068C150.842 89.4017 150.109 88.668 149.205 88.668Z" fill="#EBEBEB"/>
<path d="M149.205 102.754H82.1799C81.2758 102.754 80.543 103.488 80.543 104.393V107.733C80.543 108.638 81.2758 109.372 82.1799 109.372H149.205C150.109 109.372 150.842 108.638 150.842 107.733V104.393C150.842 103.488 150.109 102.754 149.205 102.754Z" fill="#EBEBEB"/>
<path d="M149.2 74.6094H119.35C118.446 74.6094 117.713 75.3431 117.713 76.2482V79.5886C117.713 80.4937 118.446 81.2274 119.35 81.2274H149.2C150.104 81.2274 150.837 80.4937 150.837 79.5886V76.2482C150.837 75.3431 150.104 74.6094 149.2 74.6094Z" fill="#EBEBEB"/>
<path d="M83.6134 113.172H81.893C81.608 113.172 81.377 113.403 81.377 113.689V115.411C81.377 115.696 81.608 115.928 81.893 115.928H83.6134C83.8984 115.928 84.1295 115.696 84.1295 115.411V113.689C84.1295 113.403 83.8984 113.172 83.6134 113.172Z" fill="#7B4DD3"/>
<path d="M147.698 115.739H87.1162C86.5532 115.739 86.0996 115.285 86.0996 114.721C86.0996 114.157 86.5532 113.703 87.1162 113.703H147.698C148.261 113.703 148.715 114.157 148.715 114.721C148.715 115.285 148.261 115.739 147.698 115.739Z" fill="#E0E0E0"/>
<path d="M97.0795 119.543H87.4248C86.8617 119.543 86.4082 119.089 86.4082 118.526C86.4082 117.962 86.8617 117.508 87.4248 117.508H97.0795C97.6425 117.508 98.096 117.962 98.096 118.526C98.096 119.089 97.6425 119.543 97.0795 119.543Z" fill="#E0E0E0"/>
<path d="M148.865 49.2656H83.133C81.8719 49.2656 80.8496 50.2891 80.8496 51.5517V55.6592C80.8496 56.9218 81.8719 57.9453 83.133 57.9453H148.865C150.126 57.9453 151.149 56.9218 151.149 55.6592V51.5517C151.149 50.2891 150.126 49.2656 148.865 49.2656Z" fill="#EBEBEB"/>
<path d="M102.697 54.2763L102.812 54.031C102.974 54.1771 103.255 54.2867 103.537 54.2867C103.917 54.2867 104.079 54.1406 104.079 53.9474C104.079 53.4099 102.755 53.7491 102.755 52.9349C102.755 52.5957 103.015 52.3086 103.594 52.3086C103.849 52.3086 104.115 52.3764 104.298 52.5017L104.193 52.7522C104.001 52.6322 103.787 52.5748 103.594 52.5748C103.224 52.5748 103.062 52.7314 103.062 52.9245C103.062 53.4621 104.386 53.1228 104.386 53.9266C104.386 54.2606 104.115 54.5477 103.542 54.5477C103.208 54.5477 102.88 54.4328 102.702 54.271L102.697 54.2763Z" fill="#263238"/>
<path d="M104.746 52.3507C104.746 52.2411 104.835 52.1523 104.949 52.1523C105.064 52.1523 105.153 52.2359 105.153 52.3455C105.153 52.4603 105.069 52.5438 104.949 52.5438C104.83 52.5438 104.746 52.4603 104.746 52.3507ZM104.798 52.8622H105.101V54.5219H104.798V52.8622Z" fill="#263238"/>
<path d="M107.253 52.8672V54.3025C107.253 54.8871 106.956 55.1533 106.393 55.1533C106.09 55.1533 105.783 55.0698 105.6 54.908L105.746 54.6783C105.897 54.8088 106.143 54.8923 106.382 54.8923C106.773 54.8923 106.951 54.7096 106.951 54.3338V54.2034C106.805 54.3756 106.591 54.4591 106.351 54.4591C105.871 54.4591 105.512 54.1355 105.512 53.6553C105.512 53.1752 105.877 52.8516 106.351 52.8516C106.596 52.8516 106.825 52.9403 106.966 53.123V52.8672H107.253ZM106.961 53.6553C106.961 53.3317 106.721 53.1177 106.393 53.1177C106.064 53.1177 105.819 53.3317 105.819 53.6553C105.819 53.9789 106.059 54.1981 106.393 54.1981C106.726 54.1981 106.961 53.9737 106.961 53.6553Z" fill="#263238"/>
<path d="M109.402 53.5705V54.5256H109.099V53.607C109.099 53.2835 108.938 53.1217 108.651 53.1217C108.333 53.1217 108.125 53.3148 108.125 53.6749V54.5309H107.822V52.8711H108.109V53.1217C108.229 52.9546 108.443 52.8555 108.708 52.8555C109.11 52.8555 109.397 53.0851 109.397 53.5757L109.402 53.5705Z" fill="#263238"/>
<path d="M112.347 52.8672V54.5269H112.06V54.2764C111.941 54.4486 111.732 54.5478 111.497 54.5478C111.07 54.5478 110.783 54.3129 110.783 53.8223V52.8672H111.086V53.7858C111.086 54.1094 111.247 54.2764 111.534 54.2764C111.847 54.2764 112.045 54.0833 112.045 53.7231V52.8672H112.347Z" fill="#263238"/>
<path d="M114.634 53.6971C114.634 54.2086 114.28 54.5478 113.795 54.5478C113.56 54.5478 113.352 54.4591 113.216 54.2764V55.1324H112.914V52.8672H113.201V53.1282C113.336 52.9455 113.55 52.8516 113.79 52.8516C114.275 52.8516 114.629 53.1908 114.629 53.6971H114.634ZM114.332 53.6971C114.332 53.3474 114.092 53.1125 113.774 53.1125C113.456 53.1125 113.216 53.3422 113.216 53.6971C113.216 54.052 113.456 54.2816 113.774 54.2816C114.092 54.2816 114.332 54.052 114.332 53.6971Z" fill="#263238"/>
<path d="M118.398 52.8672L117.778 54.5269H117.491L117.012 53.2691L116.527 54.5269H116.24L115.625 52.8672H115.912L116.391 54.1877L116.892 52.8672H117.147L117.637 54.1929L118.133 52.8672H118.404H118.398Z" fill="#263238"/>
<path d="M118.65 52.3507C118.65 52.2411 118.739 52.1523 118.854 52.1523C118.968 52.1523 119.057 52.2359 119.057 52.3455C119.057 52.4603 118.974 52.5438 118.854 52.5438C118.734 52.5438 118.65 52.4603 118.65 52.3507ZM118.703 52.8622H119.005V54.5219H118.703V52.8622Z" fill="#263238"/>
<path d="M120.511 54.4272C120.422 54.5055 120.281 54.5421 120.146 54.5421C119.812 54.5421 119.619 54.3594 119.619 54.0201V53.1067H119.338V52.8614H119.619V52.4961H119.922V52.8614H120.396V53.1067H119.922V54.0045C119.922 54.1819 120.016 54.2811 120.182 54.2811C120.271 54.2811 120.354 54.255 120.417 54.2028L120.511 54.4168V54.4272Z" fill="#263238"/>
<path d="M122.445 53.5732V54.5283H122.142V53.6097C122.142 53.2861 121.981 53.1243 121.694 53.1243C121.376 53.1243 121.168 53.3174 121.168 53.6776V54.5335H120.865V52.2109H121.168V53.1087C121.293 52.9469 121.501 52.8581 121.751 52.8581C122.153 52.8581 122.44 53.0878 122.44 53.5784L122.445 53.5732Z" fill="#263238"/>
<path d="M125.405 53.4164H125.708V54.2724C125.489 54.455 125.186 54.549 124.879 54.549C124.206 54.549 123.711 54.074 123.711 53.4268C123.711 52.7796 124.206 52.3047 124.884 52.3047C125.233 52.3047 125.525 52.4195 125.723 52.6439L125.53 52.8371C125.348 52.6596 125.145 52.5813 124.894 52.5813C124.389 52.5813 124.024 52.9362 124.024 53.4216C124.024 53.907 124.389 54.2619 124.894 54.2619C125.077 54.2619 125.249 54.2202 125.405 54.121V53.406V53.4164Z" fill="#263238"/>
<path d="M126.104 53.6971C126.104 53.2013 126.468 52.8516 126.969 52.8516C127.469 52.8516 127.829 53.2013 127.829 53.6971C127.829 54.1929 127.464 54.5478 126.969 54.5478C126.474 54.5478 126.104 54.1929 126.104 53.6971ZM127.521 53.6971C127.521 53.3422 127.282 53.1125 126.964 53.1125C126.646 53.1125 126.406 53.3422 126.406 53.6971C126.406 54.052 126.646 54.2816 126.964 54.2816C127.282 54.2816 127.521 54.052 127.521 53.6971Z" fill="#263238"/>
<path d="M128.09 53.6971C128.09 53.2013 128.455 52.8516 128.955 52.8516C129.456 52.8516 129.815 53.2013 129.815 53.6971C129.815 54.1929 129.45 54.5478 128.955 54.5478C128.46 54.5478 128.09 54.1929 128.09 53.6971ZM129.508 53.6971C129.508 53.3422 129.268 53.1125 128.95 53.1125C128.632 53.1125 128.392 53.3422 128.392 53.6971C128.392 54.052 128.632 54.2816 128.95 54.2816C129.268 54.2816 129.508 54.052 129.508 53.6971Z" fill="#263238"/>
<path d="M131.817 52.8672V54.3025C131.817 54.8871 131.52 55.1533 130.957 55.1533C130.655 55.1533 130.347 55.0698 130.165 54.908L130.311 54.6783C130.462 54.8088 130.707 54.8923 130.947 54.8923C131.338 54.8923 131.515 54.7096 131.515 54.3338V54.2034C131.369 54.3756 131.155 54.4591 130.915 54.4591C130.436 54.4591 130.076 54.1355 130.076 53.6553C130.076 53.1752 130.441 52.8516 130.915 52.8516C131.161 52.8516 131.39 52.9403 131.525 53.123V52.8672H131.812H131.817ZM131.525 53.6553C131.525 53.3317 131.286 53.1177 130.957 53.1177C130.629 53.1177 130.384 53.3317 130.384 53.6553C130.384 53.9789 130.624 54.1981 130.957 54.1981C131.291 54.1981 131.525 53.9737 131.525 53.6553Z" fill="#263238"/>
<path d="M132.387 52.2031H132.689V54.5257H132.387V52.2031Z" fill="#263238"/>
<path d="M134.753 53.7963H133.408C133.445 54.0885 133.68 54.2816 134.008 54.2816C134.201 54.2816 134.362 54.2138 134.488 54.0833L134.654 54.2764C134.503 54.4539 134.274 54.5478 134.003 54.5478C133.466 54.5478 133.111 54.1929 133.111 53.6971C133.111 53.2013 133.466 52.8516 133.94 52.8516C134.415 52.8516 134.759 53.196 134.759 53.7075C134.759 53.7336 134.759 53.7702 134.753 53.7963ZM133.408 53.5823H134.472C134.441 53.3056 134.232 53.1073 133.94 53.1073C133.648 53.1073 133.44 53.3004 133.408 53.5823Z" fill="#263238"/>
<path d="M98.5684 53.6075V54.0981H99.7674C99.6632 54.5209 99.2826 54.7871 98.7613 54.7871C98.094 54.7871 97.604 54.3069 97.604 53.6493C97.604 53.2735 97.7969 52.9133 98.1096 52.7046C98.6153 52.3705 99.2253 52.501 99.5433 52.8611C99.6267 52.9551 99.757 52.9864 99.8613 52.9238C99.9968 52.8455 100.033 52.6628 99.9342 52.5428C99.6423 52.214 99.2096 52.0156 98.7456 52.0156C97.8073 52.0156 97.1035 52.715 97.1035 53.644C97.1035 54.5731 97.8177 55.2725 98.7613 55.2725C99.6527 55.2725 100.294 54.6775 100.294 53.8528V53.6023H98.5632L98.5684 53.6075Z" fill="#263238"/>
<path d="M160.414 30.9442C163.202 29.7966 164.533 26.6035 163.387 23.8122C162.24 21.0209 159.051 19.6884 156.263 20.8361C153.475 21.9837 152.144 25.1769 153.29 27.9681C154.437 30.7594 157.626 32.0919 160.414 30.9442Z" fill="#7B4DD3"/>
<path d="M160.546 24.4918L159.738 23.6836L156.129 27.2967L156.937 28.1049L160.546 24.4918Z" fill="white"/>
<path d="M156.938 23.6801L156.131 24.4883L159.74 28.1014L160.547 27.2931L156.938 23.6801Z" fill="white"/>
<path d="M38.6189 170.175L35.2356 169.768C33.093 171.198 30.4968 172.017 27.6922 171.944C21.0715 171.777 15.5612 166.495 15.0972 159.883C14.5603 152.242 20.6909 145.775 28.3959 145.973C34.9384 146.14 40.4018 151.302 40.9648 157.831C41.2411 161.073 40.3184 164.105 38.5824 166.527H38.5876L38.6189 170.175Z" fill="white"/>
<path d="M38.6187 170.174C38.6187 170.174 38.6135 170.085 38.6082 169.929C38.6082 169.762 38.5978 169.527 38.5926 169.224C38.5822 168.598 38.5613 167.695 38.5405 166.521L38.6187 166.557C38.6187 166.557 38.6187 166.557 38.6135 166.557C38.5926 166.573 38.5613 166.573 38.5457 166.552C38.5301 166.536 38.5301 166.51 38.5457 166.494C39.4684 165.184 40.4902 163.243 40.8238 160.706C40.9959 159.443 40.975 158.055 40.7144 156.604C40.4433 155.158 39.8959 153.671 39.0409 152.261C38.1756 150.863 36.9974 149.558 35.5377 148.509C34.0833 147.465 32.3525 146.651 30.4549 146.311C28.5625 145.957 26.5294 146.03 24.5745 146.567C22.6091 147.094 20.7533 148.164 19.2154 149.62C18.4178 150.341 17.7766 151.197 17.1875 152.063C16.9268 152.517 16.6558 152.971 16.4316 153.436L16.124 154.151L15.9728 154.506L15.8581 154.876C15.2065 156.828 15.0605 158.879 15.3264 160.805C15.5818 162.737 16.3378 164.522 17.3282 166.03C18.3292 167.543 19.596 168.78 20.9722 169.704C22.3537 170.623 23.829 171.228 25.2731 171.552C25.638 171.615 25.9925 171.677 26.347 171.74C26.7015 171.792 27.0507 171.802 27.3948 171.834C28.0829 171.886 28.745 171.855 29.381 171.797C31.9302 171.547 33.8956 170.592 35.2197 169.725C35.2301 169.72 35.2406 169.715 35.251 169.72C36.3249 169.861 37.1642 169.97 37.7429 170.049C38.0244 170.085 38.2381 170.117 38.3997 170.137C38.5509 170.158 38.6291 170.174 38.6291 170.174C38.6291 170.174 38.5613 170.174 38.4154 170.158C38.259 170.143 38.0452 170.122 37.7689 170.091C37.1799 170.028 36.3301 169.934 35.2406 169.814H35.2718C33.9529 170.696 31.9719 171.682 29.3966 171.954C28.7554 172.016 28.0829 172.053 27.3896 172.006C27.0403 171.975 26.6858 171.969 26.3261 171.917C25.9716 171.855 25.6067 171.792 25.2366 171.729C23.7769 171.406 22.2703 170.8 20.868 169.877C19.4708 168.947 18.178 167.69 17.1562 166.155C16.1449 164.621 15.3733 162.815 15.1075 160.847C14.8364 158.89 14.9823 156.802 15.6444 154.814L15.7591 154.438L15.9103 154.073C16.0145 153.832 16.1188 153.587 16.2231 153.347C16.4524 152.872 16.7235 152.413 16.9894 151.948C17.5889 151.066 18.2405 150.189 19.0538 149.459C20.6177 147.976 22.5101 146.886 24.5119 146.353C26.5086 145.805 28.573 145.737 30.4966 146.103C32.4307 146.452 34.1875 147.287 35.6628 148.352C37.1434 149.422 38.3372 150.748 39.2078 152.173C40.0731 153.603 40.6205 155.116 40.8916 156.583C41.147 158.055 41.1575 159.459 40.9802 160.738C40.6257 163.3 39.5779 165.252 38.6291 166.562L38.5613 166.5H38.5665C38.5874 166.484 38.6187 166.484 38.6343 166.505C38.6395 166.515 38.6447 166.526 38.6447 166.536C38.6447 167.721 38.6447 168.634 38.6447 169.266C38.6447 169.563 38.6447 169.793 38.6447 169.96C38.6447 170.117 38.6395 170.19 38.6395 170.19L38.6187 170.174Z" fill="#263238"/>
<path d="M22.3125 159.756L23.939 158.013L27.2806 160.789L33.4425 154.438L35.0586 156.066L27.1503 164.046L22.3125 159.756Z" fill="#7B4DD3"/>
<path d="M59.3685 130.347C59.6865 129.324 60.5154 128.474 61.532 128.129C61.9438 127.988 62.4234 127.9 62.6632 127.529C62.8352 127.268 62.83 126.934 62.903 126.631C63.1324 125.702 64.2584 125.112 65.1551 125.452C65.374 125.535 65.5826 125.671 65.8224 125.676C66.7764 125.702 66.9171 123.87 67.8659 123.907C67.6105 124.22 67.3811 124.58 67.3446 124.982C67.3081 125.384 67.5375 125.833 67.9233 125.937C68.9346 126.214 69.4194 124.251 70.4621 124.382C71.0251 124.45 71.4369 125.149 71.9895 125.024C72.2032 124.977 72.3701 124.815 72.5525 124.695C73.1729 124.303 74.0956 124.512 74.4866 125.139C74.8202 125.671 74.8724 126.496 75.4771 126.668C75.8524 126.772 76.2278 126.543 76.551 126.318C76.796 126.84 76.9211 127.414 76.9107 127.988C78.0837 128.067 79.0637 129.236 78.9386 130.405C79.5538 130.535 80.1845 130.681 80.7059 131.036C81.2272 131.391 81.6129 132.018 81.5035 132.639C81.4774 132.78 81.4305 132.92 81.4461 133.061C81.4618 133.218 81.5504 133.354 81.6442 133.474C82.0091 133.949 82.4887 134.345 82.7338 134.888C82.9788 135.431 82.8693 136.219 82.3115 136.433C82.1812 136.485 82.0248 136.511 81.9518 136.626C81.8997 136.715 81.9153 136.83 81.9414 136.934C82.0561 137.346 82.3428 137.691 82.5826 138.046C82.8224 138.401 83.0257 138.824 82.9527 139.246C82.8797 139.669 82.4053 140.034 82.0196 139.852C82.4627 140.374 82.911 140.901 83.3541 141.423C83.62 141.736 83.9015 142.127 83.7712 142.514C83.5991 143.02 82.8537 143.051 82.4001 142.769C81.9466 142.487 81.6286 142.018 81.1646 141.746C80.9769 141.637 80.7632 141.564 80.6016 141.417C80.4713 141.303 80.3722 141.141 80.2002 141.099C79.8613 141.016 79.658 141.538 79.8405 141.83C80.0229 142.122 80.3879 142.242 80.7006 142.388C81.0134 142.534 81.3419 142.801 81.3158 143.15C81.3002 143.317 81.2063 143.469 81.1959 143.636C81.1646 144.215 82.0456 144.33 82.3793 144.81C82.6243 145.165 82.5148 145.645 82.3741 146.047C82.202 146.543 81.6911 147.127 81.2741 146.804C81.1281 146.694 81.0708 146.501 80.9404 146.376C80.7893 146.23 80.5651 146.188 80.3618 146.125C79.8561 145.979 79.3921 145.682 79.0533 145.275C79.6893 145.572 80.4191 146.016 80.4139 146.715C80.4139 147.007 80.2732 147.279 80.1793 147.561C80.0021 148.109 80.0177 148.704 79.8457 149.252C79.6789 149.8 79.2201 150.342 78.6467 150.311C79.0429 150.729 79.1106 151.428 78.7926 151.913C78.4746 152.399 77.8074 152.618 77.2652 152.42C77.114 152.368 76.968 152.279 76.8116 152.294C76.6396 152.305 76.4989 152.425 76.3633 152.529C75.5396 153.14 74.3615 153.223 73.4544 152.743C73.5795 152.613 73.7098 152.482 73.835 152.357C72.8705 152.681 71.8644 153.015 70.8583 152.863C69.8521 152.712 68.8616 151.924 68.8512 150.906C68.8512 150.462 68.992 149.941 68.6635 149.643C68.4394 149.44 68.0953 149.46 67.7929 149.497C66.5314 149.643 65.2698 149.789 64.003 149.941C63.3878 150.014 62.7414 150.076 62.1836 149.815C61.6258 149.554 61.2348 148.834 61.5476 148.296C61.0524 147.921 60.4528 147.686 59.8377 147.634C59.1443 147.571 58.4458 147.733 57.7472 147.707C57.0487 147.675 56.2875 147.383 56.0165 146.741C55.7506 146.094 56.3762 145.191 57.0278 145.436C56.4804 144.533 54.7757 145.295 54.171 144.434C53.681 143.73 54.463 142.858 54.6767 142.033C54.4473 141.819 54.0928 141.783 53.8582 141.574C53.363 141.141 53.6601 140.316 54.072 139.794C54.4838 139.278 55.0103 138.698 54.8592 138.056C54.7028 137.399 53.8687 136.976 53.926 136.303C53.9625 135.927 54.3274 135.619 54.7028 135.65C54.6037 134.351 57.0487 134.168 57.1529 132.874C57.1634 132.769 57.1529 132.66 57.0956 132.576C57.0487 132.503 56.9705 132.451 56.8871 132.414C56.5065 132.232 56.0634 132.252 55.6515 132.164C55.2397 132.08 54.7966 131.814 54.7601 131.391C54.7236 130.968 55.4013 130.655 55.5786 131.036C55.7975 130.504 56.5951 130.332 57.0122 130.734C57.1164 130.285 57.6325 130.039 58.0913 130.076C58.55 130.113 58.9567 130.363 59.3477 130.603" fill="#263238"/>
<path d="M70.3735 139.843C69.2422 138.475 67.4593 137.813 65.7129 137.505C64.9779 137.374 64.2115 137.301 63.5026 137.536C62.7988 137.771 62.1732 138.387 62.1367 139.133L62.7988 140.187C63.5651 142.014 65.6817 142.787 67.1726 144.086C67.819 144.655 68.4915 145.391 69.3517 145.328C69.8 145.297 70.2119 145.036 70.5194 144.707C71.7393 143.418 71.5047 141.205 70.3735 139.832V139.843Z" fill="#7B4DD3"/>
<path d="M74.73 147.862C75.0323 146.03 73.7968 144.072 72.0191 143.551C72.2277 142.402 71.331 141.285 70.2571 140.842C69.1832 140.398 67.9737 140.461 66.8112 140.529C65.0388 138.451 61.5147 138.216 59.4815 140.038C57.3025 138.9 54.5604 140.012 52.8087 141.739C52.3813 142.162 51.9746 142.627 51.4481 142.909C51.0571 143.117 50.6244 143.211 50.2126 143.368C47.9449 144.219 46.6468 146.839 46.8814 149.25C46.9179 149.636 46.9909 150.028 46.9231 150.409C46.8397 150.91 46.5321 151.343 46.3288 151.807C45.8805 152.81 45.8961 154.01 46.3757 155.002C46.7824 155.842 47.5122 156.573 47.5643 157.507C47.5904 157.977 47.4392 158.446 47.5174 158.906C47.7312 160.247 49.6027 160.727 49.9989 162.022C50.0823 162.288 50.0927 162.564 50.15 162.836C50.2699 163.389 50.6036 163.89 51.0571 164.224C51.4116 164.48 51.8495 164.652 52.0789 165.028C52.2509 165.31 52.2718 165.659 52.3656 165.973C52.6002 166.75 55.5561 168.634 56.3641 168.692L74.4954 159.151C75.71 158.138 76.1584 156.301 75.5432 154.84C75.4389 154.595 75.3086 154.344 75.3555 154.083C75.392 153.864 75.5536 153.686 75.6788 153.499C76.5076 152.251 75.7882 150.576 74.9593 149.328C74.8446 149.151 74.7248 148.973 74.6726 148.77C74.5996 148.472 74.6883 148.164 74.7352 147.862H74.73Z" fill="#263238"/>
<path d="M69.5752 150.67C67.9122 147.444 63.9398 144.845 59.9257 144.986C57.3973 145.075 55.8334 145.91 54.7178 146.353C52.2155 147.345 50.9435 149.537 50.9435 149.537C50.0729 150.304 48.2222 155.607 49.979 159.334C51.9288 163.478 54.4728 168.457 56.5893 171.182C60.8484 176.662 65.8634 174.887 65.8634 174.887C65.8634 174.877 68.0999 179.522 68.0999 179.522L74.3661 184.835L79.9493 175.722L81.164 173.755L69.5752 150.67Z" fill="#AE7461"/>
<path d="M64.5904 165.536C64.408 165.255 64.1108 165.072 63.8137 164.988C63.2142 164.827 62.5782 165.093 62.2706 165.625C61.9682 166.158 62.1663 166.721 62.5417 167.274C62.9639 167.504 63.3184 167.76 63.772 167.588C63.8398 167.562 63.9127 167.53 63.9753 167.499C64.2985 167.332 64.58 167.061 64.7103 166.7C64.8459 166.34 64.8146 165.881 64.5904 165.531V165.536Z" fill="#6F4439"/>
<path d="M54.5256 163.447C54.7342 163.859 55.2607 164.026 55.6934 163.812C56.1313 163.603 56.3137 163.097 56.1052 162.679C55.8967 162.267 55.3702 162.1 54.9375 162.309C54.4996 162.518 54.3171 163.029 54.5256 163.441V163.447Z" fill="#263238"/>
<path d="M52.6165 160.879C52.7676 160.926 53.1117 160.175 53.9406 159.721C54.7643 159.256 55.6036 159.345 55.6401 159.194C55.6609 159.126 55.4628 158.995 55.0927 158.948C54.7278 158.901 54.1804 158.959 53.6643 159.246C53.1482 159.533 52.8198 159.961 52.679 160.295C52.5331 160.629 52.5435 160.858 52.6165 160.879Z" fill="#263238"/>
<path d="M61.0617 164.755C61.0409 164.708 60.4779 164.901 59.5812 165.256C59.357 165.35 59.1329 165.417 59.0182 165.292C58.8826 165.167 58.8461 164.89 58.8149 164.588C58.7315 163.966 58.6428 163.314 58.5542 162.63C58.158 159.859 57.7514 157.625 57.6367 157.641C57.5272 157.656 57.7566 159.922 58.1476 162.693C58.2519 163.371 58.3457 164.024 58.4395 164.645C58.4917 164.932 58.5021 165.277 58.7888 165.537C58.9348 165.663 59.1485 165.694 59.3049 165.658C59.4613 165.626 59.5812 165.558 59.6907 165.511C60.5561 165.094 61.0774 164.812 61.0565 164.76L61.0617 164.755Z" fill="#263238"/>
<path d="M65.8574 174.889C65.8574 174.889 70.0644 172.911 72.7388 168.297C72.7388 168.297 72.9316 173.709 66.6185 176.46L65.8626 174.889H65.8574Z" fill="#6F4439"/>
<path d="M51.5014 159.136C51.7516 159.261 52.3094 158.776 53.0862 158.431C53.8473 158.061 54.5823 157.941 54.6449 157.669C54.671 157.539 54.4781 157.388 54.1079 157.325C53.743 157.262 53.2009 157.315 52.6743 157.56C52.1478 157.805 51.762 158.186 51.5744 158.505C51.3867 158.828 51.3867 159.068 51.4962 159.131L51.5014 159.136Z" fill="#263238"/>
<path d="M63.7111 158.726C63.9353 159.133 63.7737 159.66 63.3514 159.9C62.9292 160.141 62.4078 160.005 62.1889 159.598C61.9647 159.191 62.1263 158.663 62.5486 158.423C62.9709 158.183 63.4922 158.319 63.7163 158.726H63.7111Z" fill="#263238"/>
<path d="M64.1215 154.963C64.0746 155.115 63.2613 154.974 62.4168 155.402C61.567 155.814 61.1656 156.565 61.0249 156.508C60.9571 156.487 60.9623 156.252 61.1344 155.918C61.3012 155.589 61.6609 155.172 62.1874 154.906C62.7139 154.645 63.2561 154.613 63.6106 154.687C63.9703 154.754 64.1528 154.895 64.1267 154.968L64.1215 154.963Z" fill="#263238"/>
<path d="M62.3703 151.69C62.3025 151.967 61.5466 152.097 60.7595 152.478C59.9618 152.838 59.378 153.334 59.1225 153.214C59.0078 153.151 59.0131 152.906 59.2112 152.577C59.404 152.254 59.8107 151.862 60.3528 151.606C60.9002 151.351 61.4528 151.288 61.8229 151.351C62.1983 151.408 62.3912 151.559 62.3651 151.69H62.3703Z" fill="#263238"/>
<path d="M71.7386 156.9C71.4936 156.451 71.431 155.115 71.8324 154.801C72.9116 153.966 75.0854 152.891 76.7536 155.877C79.0318 159.958 74.4703 161.409 74.3973 161.294C74.34 161.205 72.5831 158.45 71.7386 156.905V156.9Z" fill="#AE7461"/>
<path d="M74.6894 159.167C74.6894 159.167 74.7885 159.178 74.9397 159.167C75.0856 159.157 75.3098 159.079 75.4766 158.88C75.8207 158.478 75.7998 157.591 75.4088 156.845C75.2107 156.469 74.9344 156.156 74.6425 155.937C74.3506 155.707 74.043 155.608 73.8032 155.691C73.5582 155.764 73.48 155.978 73.4904 156.119C73.5008 156.265 73.5738 156.333 73.553 156.349C73.5477 156.365 73.4278 156.328 73.3653 156.145C73.3392 156.057 73.3288 155.931 73.3809 155.801C73.4331 155.665 73.553 155.545 73.7146 155.477C74.043 155.321 74.4861 155.456 74.8093 155.696C75.1534 155.926 75.4714 156.271 75.6903 156.693C76.123 157.528 76.1335 158.536 75.6382 159.037C75.3932 159.272 75.1065 159.319 74.9292 159.293C74.7468 159.261 74.6738 159.183 74.6842 159.167H74.6894Z" fill="#6F4439"/>
<path d="M49.0971 159.894C49.6393 158.923 49.78 157.926 49.1909 156.981C49.8269 156.841 49.999 155.828 50.0563 155.181C50.1137 154.528 50.3743 154.074 50.0355 153.516C49.9677 153.406 49.8947 153.291 49.8947 153.161C49.8947 152.957 50.0563 152.801 50.1971 152.655C50.9217 151.903 51.2188 150.765 50.953 149.753C52.0425 149.654 53.1008 149.278 54.0131 148.672C54.7742 149.053 55.7334 149.017 56.458 148.573C57.1879 148.13 57.6623 147.3 57.6727 146.444C58.1992 146.82 58.9134 146.856 59.539 146.694C60.1646 146.532 60.7328 146.188 61.2854 145.854C61.6451 147.091 63.0318 147.926 64.2934 147.665C64.4654 147.629 64.6583 147.582 64.7991 147.681C64.945 147.785 64.9607 147.994 64.9867 148.171C65.1431 149.304 66.4151 150.144 67.5151 149.847C67.1293 150.734 67.8592 151.898 68.8236 151.94C69.0217 151.95 69.2771 151.95 69.3449 152.133C69.371 152.201 69.3605 152.284 69.3501 152.357C69.2667 152.931 69.2094 153.542 69.4492 154.064C69.689 154.591 70.3458 154.972 70.8619 154.711C70.7264 155.092 70.643 155.536 70.8359 155.896C71.0235 156.256 71.5866 156.418 71.8472 156.11C71.9567 155.979 73.7761 154.455 73.7969 154.283C74.0889 152.07 71.6804 151.136 70.4918 149.247C69.3032 147.357 67.5881 145.844 65.6853 144.685C64.8877 144.199 64.0484 143.771 63.1465 143.511C62.1247 143.213 61.0508 143.15 59.9873 143.093C58.6006 143.02 57.1827 142.962 55.8429 143.333C53.351 144.027 51.4951 146.094 49.9625 148.182C49.3786 148.975 48.8104 149.795 48.4611 150.718C48.0388 151.82 47.945 153.02 47.9346 154.2C47.9189 155.906 48.0858 157.644 48.7583 159.21" fill="#263238"/>
<path d="M47.5079 158.902C47.5079 158.902 47.4558 158.709 47.4871 158.344C47.4975 158.161 47.534 157.932 47.5392 157.665C47.5392 157.399 47.4871 157.091 47.3515 156.773C47.216 156.455 47.0075 156.126 46.7781 155.771C46.5487 155.416 46.2933 155.019 46.1421 154.534C45.9857 154.059 45.9179 153.516 45.9753 152.947C46.0013 152.665 46.0639 152.373 46.1629 152.091C46.2568 151.804 46.4027 151.528 46.5435 151.256C46.6842 150.98 46.825 150.692 46.8719 150.379C46.9188 150.066 46.8719 149.732 46.8354 149.393C46.7572 148.709 46.7885 147.984 46.9605 147.263C47.1326 146.543 47.4245 145.818 47.878 145.17C48.0918 144.836 48.3681 144.544 48.66 144.257C48.9676 143.991 49.296 143.735 49.6714 143.542C49.8538 143.443 50.0519 143.365 50.2448 143.281C50.4429 143.208 50.6462 143.151 50.8443 143.083C51.2457 142.958 51.6159 142.764 51.9391 142.483C52.2675 142.211 52.5542 141.877 52.8774 141.58C53.1954 141.272 53.5551 140.995 53.9253 140.739C54.3006 140.484 54.702 140.264 55.1191 140.071C55.5414 139.883 55.9845 139.737 56.4432 139.633C57.3555 139.445 58.3617 139.466 59.2479 139.862C59.3365 139.904 59.4251 139.941 59.5085 139.983L59.4303 139.993C60.5147 139.027 61.99 138.652 63.3454 138.772C64.7112 138.886 66.0093 139.497 66.8591 140.494L66.8017 140.473C67.4273 140.437 68.0424 140.405 68.6524 140.442C69.2571 140.484 69.8618 140.598 70.3988 140.849C70.9357 141.105 71.3945 141.496 71.7073 141.971C72.0201 142.446 72.1765 143.025 72.0722 143.573L72.0305 143.506C72.9376 143.772 73.657 144.388 74.1262 145.092C74.5953 145.797 74.8351 146.606 74.8143 147.363C74.8143 147.55 74.7882 147.738 74.7622 147.916C74.7309 148.093 74.6944 148.265 74.6788 148.438C74.6683 148.605 74.6892 148.772 74.7517 148.918C74.8143 149.069 74.9081 149.2 74.9968 149.335C75.3512 149.878 75.6223 150.411 75.8048 150.917C75.982 151.423 76.0707 151.903 76.0498 152.321C76.0342 152.738 75.9143 153.083 75.7787 153.333C75.6432 153.589 75.4868 153.746 75.4242 153.876C75.3565 154.007 75.346 154.085 75.3408 154.08C75.3408 154.08 75.3408 154.001 75.4086 153.866C75.4659 153.73 75.6223 153.563 75.7474 153.313C75.8778 153.062 75.9873 152.723 75.9977 152.31C76.0133 151.898 75.9247 151.428 75.7422 150.927C75.5598 150.432 75.2835 149.904 74.929 149.372C74.8404 149.236 74.7465 149.101 74.6735 148.944C74.6006 148.787 74.5745 148.6 74.5901 148.422C74.6006 148.245 74.637 148.067 74.6683 147.89C74.6892 147.712 74.7205 147.535 74.7153 147.347C74.7309 146.611 74.4911 145.823 74.0323 145.139C73.5736 144.455 72.8698 143.86 71.994 143.605L71.9419 143.589L71.9523 143.537C72.0461 143.025 71.9002 142.477 71.5978 142.023C71.2954 141.569 70.8523 141.188 70.3414 140.948C69.8201 140.708 69.2362 140.593 68.6419 140.557C68.0424 140.52 67.4325 140.551 66.8069 140.588H66.7756L66.7548 140.567C65.9311 139.602 64.6643 139.006 63.335 138.897C62.0108 138.782 60.572 139.147 59.5242 140.087L59.4877 140.118L59.4408 140.097C59.3574 140.061 59.274 140.019 59.1853 139.983C58.3252 139.596 57.3555 139.575 56.4641 139.758C56.0157 139.857 55.5831 140.003 55.1712 140.186C54.7594 140.379 54.3632 140.588 53.9983 140.844C53.6333 141.099 53.2788 141.366 52.9661 141.668C52.6428 141.966 52.3561 142.295 52.0173 142.576C51.8505 142.717 51.668 142.848 51.4751 142.952C51.2822 143.057 51.0789 143.135 50.8756 143.203C50.6723 143.271 50.4742 143.328 50.2813 143.401C50.0936 143.479 49.9007 143.552 49.7235 143.652C49.3586 143.834 49.0406 144.085 48.7382 144.341C48.4567 144.617 48.1856 144.904 47.9719 145.228C47.5236 145.859 47.2368 146.569 47.0648 147.279C46.8928 147.989 46.8563 148.699 46.9345 149.372C46.971 149.711 47.0179 150.05 46.9657 150.385C46.9136 150.719 46.7676 151.016 46.6217 151.293C46.4757 151.569 46.335 151.835 46.2411 152.112C46.1473 152.389 46.0847 152.671 46.0534 152.947C45.9961 153.5 46.0587 154.033 46.2098 154.503C46.3558 154.972 46.6008 155.369 46.825 155.724C47.0492 156.084 47.2629 156.413 47.3932 156.742C47.534 157.065 47.5809 157.384 47.5757 157.655C47.5653 157.926 47.5288 158.151 47.5079 158.333C47.4871 158.516 47.4871 158.657 47.4923 158.751C47.4923 158.845 47.5027 158.892 47.5027 158.892L47.5079 158.902Z" fill="#455A64"/>
<path d="M57.0626 140.195C57.0626 140.195 56.9219 140.195 56.6664 140.206C56.4162 140.216 56.0461 140.263 55.629 140.436C55.2172 140.603 54.748 140.9 54.3883 141.37C54.0286 141.839 53.7836 142.471 53.7679 143.155C53.7679 143.353 53.7783 143.551 53.8201 143.729C53.8618 143.906 53.9452 144.079 54.0859 144.146L54.2632 144.23L54.0703 144.272C53.5438 144.392 53.1267 144.736 52.8869 145.117C52.6419 145.503 52.5845 145.921 52.6054 146.255C52.6315 146.594 52.7305 146.85 52.8139 147.017C52.8973 147.184 52.9599 147.268 52.9495 147.273C52.9495 147.273 52.9286 147.257 52.8973 147.221C52.8661 147.184 52.8191 147.121 52.7722 147.043C52.6732 146.881 52.5533 146.615 52.5168 146.265C52.4803 145.916 52.5272 145.472 52.7826 145.055C53.0329 144.642 53.4708 144.272 54.039 144.136L54.0234 144.266C53.8201 144.167 53.7262 143.953 53.6793 143.76C53.6376 143.562 53.622 143.358 53.6272 143.15C53.6376 142.434 53.9035 141.772 54.284 141.291C54.6646 140.801 55.1546 140.503 55.5873 140.342C56.02 140.18 56.4006 140.148 56.656 140.148C56.7863 140.148 56.8854 140.159 56.9531 140.169C57.0209 140.18 57.0522 140.19 57.0522 140.19L57.0626 140.195Z" fill="#455A64"/>
<path d="M66.2812 141.262C66.2812 141.262 66.2707 141.345 66.2186 141.486C66.1665 141.627 66.0778 141.831 65.9319 142.061C65.7807 142.29 65.567 142.551 65.249 142.755C64.9362 142.953 64.5087 143.089 64.0656 143.005L64.149 142.943C64.1386 143.021 64.1281 143.099 64.1229 143.177C64.1073 143.256 64.0864 143.334 64.0708 143.418C63.9405 143.892 63.6902 144.31 63.3983 144.618C63.1064 144.931 62.7831 145.145 62.4912 145.276C62.1993 145.406 61.9438 145.458 61.7666 145.484C61.5893 145.5 61.4903 145.495 61.4903 145.484C61.4851 145.453 61.8917 145.463 62.4495 145.187C62.7258 145.051 63.0334 144.832 63.3045 144.529C63.5808 144.232 63.8153 143.835 63.9405 143.381C63.9561 143.303 63.9769 143.23 63.9874 143.157C63.9978 143.083 64.0082 143.005 64.0134 142.937L64.0239 142.859L64.0968 142.875C64.4983 142.953 64.8945 142.833 65.1916 142.656C65.494 142.478 65.7077 142.233 65.8641 142.014C66.1665 141.575 66.2707 141.252 66.2916 141.262H66.2812Z" fill="#455A64"/>
<path d="M70.524 143.876C70.524 143.876 70.5397 143.902 70.5553 143.96C70.5657 144.017 70.5814 144.101 70.5709 144.21C70.5605 144.424 70.4406 144.743 70.1487 145.009C69.862 145.28 69.4032 145.442 68.9079 145.52C68.6577 145.562 68.4023 145.604 68.1208 145.62C67.8497 145.63 67.5317 145.609 67.271 145.416C67.2502 145.4 67.2293 145.379 67.2085 145.364L67.3232 145.338C67.099 145.865 66.8383 146.355 66.5099 146.731C66.1867 147.117 65.7853 147.368 65.4256 147.483C65.0659 147.603 64.7479 147.592 64.5393 147.551C64.4351 147.53 64.3569 147.504 64.31 147.478C64.2578 147.457 64.2318 147.441 64.237 147.436C64.237 147.425 64.3465 147.467 64.5498 147.493C64.7479 147.519 65.0502 147.514 65.3943 147.389C65.7384 147.269 66.1085 147.024 66.4161 146.648C66.7289 146.277 66.9791 145.797 67.198 145.28L67.2345 145.192L67.3075 145.254C67.3075 145.254 67.3388 145.28 67.3597 145.296C67.5682 145.458 67.8549 145.484 68.1156 145.473C68.3814 145.463 68.6421 145.421 68.8871 145.385C69.3771 145.312 69.8046 145.165 70.0809 144.925C70.3624 144.685 70.4823 144.393 70.5136 144.195C70.5449 143.991 70.5032 143.876 70.5188 143.871L70.524 143.876Z" fill="#455A64"/>
<path d="M66.9056 126.831C66.9056 126.831 66.8378 126.873 66.7283 126.972C66.624 127.071 66.4937 127.248 66.4312 127.52C66.3686 127.786 66.3842 128.13 66.5511 128.47C66.7075 128.819 66.9942 129.153 67.3174 129.503L67.3695 129.56L67.3018 129.597C66.8326 129.837 66.3895 130.249 66.1236 130.808C65.8525 131.361 65.8108 132.071 66.134 132.671C66.4103 133.224 66.9316 133.621 67.479 133.71L67.6771 133.741L67.4999 133.835C66.8639 134.174 66.4624 134.785 66.3217 135.37C66.1757 135.959 66.2956 136.513 66.4885 136.914C66.6814 137.322 66.9368 137.583 67.1193 137.744C67.307 137.906 67.4269 137.969 67.4217 137.979C67.4217 137.979 67.3904 137.969 67.333 137.937C67.2757 137.906 67.1923 137.854 67.0932 137.781C66.8951 137.629 66.624 137.369 66.4103 136.951C66.2018 136.544 66.061 135.965 66.207 135.338C66.3478 134.722 66.7596 134.08 67.4373 133.71L67.4581 133.835C66.8639 133.741 66.306 133.313 66.0141 132.729C65.8473 132.41 65.7639 132.055 65.7743 131.711C65.7743 131.366 65.8734 131.038 66.0089 130.745C66.2904 130.161 66.7648 129.733 67.2548 129.487L67.2392 129.581C66.9212 129.226 66.6345 128.877 66.4729 128.506C66.306 128.141 66.3008 127.77 66.3738 127.499C66.4468 127.222 66.5928 127.034 66.7127 126.94C66.77 126.893 66.8221 126.862 66.8586 126.846C66.8951 126.831 66.9108 126.82 66.916 126.826L66.9056 126.831Z" fill="#455A64"/>
<path d="M79.073 131.708C79.073 131.708 79.0626 131.734 79.0261 131.786C78.9896 131.833 78.9479 131.906 78.8749 131.99C78.7342 132.162 78.4996 132.397 78.1503 132.632C77.8062 132.861 77.3422 133.08 76.7792 133.185C76.2214 133.294 75.5541 133.274 74.9025 133.039L74.9911 132.981C74.9598 133.78 74.6054 134.698 73.839 135.257C73.0258 135.847 71.8997 135.831 71.2064 135.288L71.3107 135.226C71.3628 135.565 71.3107 135.904 71.2012 136.191C71.0865 136.483 70.9197 136.734 70.7372 136.937C70.3619 137.355 69.924 137.59 69.5643 137.752C69.1993 137.913 68.897 138.002 68.6884 138.065C68.4799 138.122 68.3652 138.148 68.3652 138.143C68.3652 138.138 68.4747 138.096 68.6728 138.023C68.8761 137.95 69.1733 137.851 69.5278 137.679C69.877 137.506 70.2993 137.266 70.6538 136.864C70.9979 136.468 71.2846 135.878 71.1803 135.241L71.1543 135.079L71.2846 135.179C71.9258 135.68 72.9945 135.69 73.7556 135.137C74.4802 134.61 74.8243 133.738 74.8556 132.971V132.882L74.9442 132.913C75.5698 133.143 76.211 133.174 76.7532 133.075C77.3005 132.986 77.7541 132.778 78.0982 132.564C78.7915 132.125 79.0417 131.687 79.0626 131.708H79.073Z" fill="#455A64"/>
<path d="M78.0565 140.06C78.0565 140.06 78.0669 140.097 78.0513 140.159C78.0356 140.222 77.9783 140.311 77.874 140.389C77.6707 140.54 77.3319 140.681 76.8888 140.733C76.4509 140.785 75.893 140.728 75.3717 140.436C74.8556 140.149 74.3864 139.632 74.1779 138.969V138.953L74.2978 138.974C73.9068 139.543 73.3334 139.914 72.7808 140.102C72.223 140.295 71.6808 140.305 71.2429 140.248C70.805 140.19 70.4662 140.07 70.242 139.971C70.0178 139.872 69.9032 139.799 69.9084 139.794C69.9188 139.762 70.3984 140.055 71.2586 140.149C71.686 140.19 72.2074 140.175 72.7443 139.982C73.276 139.794 73.8182 139.434 74.1884 138.896L74.2666 138.781L74.3135 138.917V138.927C74.5168 139.548 74.9547 140.044 75.4395 140.321C75.9295 140.603 76.4613 140.671 76.8835 140.634C77.311 140.598 77.6499 140.467 77.848 140.342C78.0513 140.206 78.0513 140.05 78.0617 140.055L78.0565 140.06Z" fill="#455A64"/>
<path d="M58.0339 131.885C58.0651 131.875 58.0651 132.475 58.5395 133.248C58.7741 133.629 59.139 134.036 59.6499 134.333C60.1608 134.626 60.8125 134.793 61.4902 134.74C61.8707 134.709 62.2356 134.615 62.5589 134.469L62.6371 134.432L62.6527 134.516C62.7622 135.054 62.9759 135.534 63.2261 135.92C63.4816 136.306 63.7631 136.614 64.029 136.833C64.1593 136.943 64.2844 137.042 64.3991 137.11C64.5138 137.178 64.6285 137.193 64.7067 137.157C64.7901 137.12 64.8318 137.063 64.8422 137.016C64.8526 136.969 64.8474 136.943 64.8526 136.943C64.8526 136.943 64.8735 136.969 64.8631 137.021C64.8579 137.073 64.8161 137.152 64.7223 137.199C64.6285 137.251 64.4877 137.235 64.3626 137.167C64.2375 137.099 64.1124 137.011 63.9716 136.901C63.6953 136.687 63.393 136.379 63.1271 135.988C62.8612 135.591 62.6318 135.101 62.5172 134.542L62.611 134.589C62.2774 134.746 61.8968 134.845 61.4954 134.876C60.7864 134.928 60.1035 134.751 59.5769 134.438C59.0452 134.119 58.6803 133.686 58.4457 133.289C58.2111 132.893 58.1068 132.522 58.0599 132.272C58.0391 132.146 58.0287 132.047 58.0234 131.979C58.0234 131.912 58.0234 131.875 58.0234 131.875L58.0339 131.885Z" fill="#455A64"/>
<path d="M63.9602 164.392C63.8298 164.424 64.0957 165.285 63.5483 166.125C63.0062 166.965 62.0574 167.153 62.0886 167.278C62.0886 167.336 62.3441 167.383 62.7351 167.273C63.1208 167.169 63.6369 166.877 63.9706 166.36C64.3042 165.848 64.3407 165.285 64.2625 164.925C64.1843 164.554 64.0227 164.371 63.9654 164.392H63.9602Z" fill="#263238"/>
<path d="M67.9961 179.169C67.9961 179.169 71.6714 203.532 76.1129 207.802C80.8673 212.368 89.4064 214.618 89.4064 214.618C89.4064 214.618 100.776 219.117 104.728 218.136L111.875 193.605C111.875 193.605 111.557 192.191 109.936 192.133C109.227 192.107 107.183 193.062 106.26 192.838C102.559 191.945 93.8845 178.657 93.8845 178.657C93.8845 178.657 85.6425 167.284 78.6152 168.307C73.7983 169.012 71.8017 171.157 69.9875 176.021C69.5496 177.196 68.8771 178.276 67.9961 179.169Z" fill="#7B4DD3"/>
<path d="M67.9955 179.168L64.7894 195.416L49.9737 191.204L47.4141 199.862L72.4788 211.193L77.4104 190.65L67.9955 179.168Z" fill="#7B4DD3"/>
<path d="M101.505 207.828C101.437 207.802 102.527 204.759 103.939 201.032C105.352 197.306 106.556 194.31 106.629 194.336C106.697 194.362 105.608 197.405 104.195 201.132C102.782 204.858 101.578 207.854 101.505 207.828Z" fill="#263238"/>
<path d="M101.23 204.421C101.162 204.395 101.772 202.558 102.596 200.324C103.419 198.085 104.144 196.294 104.212 196.321C104.279 196.347 103.67 198.179 102.846 200.418C102.022 202.657 101.298 204.447 101.23 204.421Z" fill="#263238"/>
<path d="M67.6091 183.871C67.6873 183.871 67.7394 185.573 67.8228 187.671C67.8645 188.72 67.9115 189.67 67.9532 190.353C67.9949 191.037 68.0314 191.46 67.9949 191.47C67.9584 191.476 67.8541 191.058 67.7655 190.374C67.6717 189.691 67.5987 188.735 67.557 187.681C67.5153 186.627 67.51 185.677 67.5257 184.988C67.5413 184.299 67.5726 183.871 67.6143 183.871H67.6091Z" fill="#263238"/>
<g opacity="0.3">
<path d="M59.4512 205.301L64.9719 202.9L67.9955 192.18L65.9363 205.39L61.8701 206.397L59.4512 205.301Z" fill="black"/>
</g>
<g opacity="0.3">
<path d="M105.535 196.443C105.17 196.229 104.701 196.385 104.404 196.693C104.102 197.001 103.93 197.434 103.763 197.852C102.673 200.618 101.578 203.379 100.489 206.145C100.332 206.542 100.176 206.959 100.218 207.387C100.265 207.815 100.598 208.238 100.984 208.181C101.344 208.128 101.558 207.727 101.714 207.372C103.267 203.87 104.597 200.242 105.681 196.526" fill="black"/>
</g>
<path d="M27.0195 193.374C27.0195 193.374 29.0162 190.707 30.1891 190.133C31.1223 189.679 36.6743 188.698 37.352 188.828C38.0297 188.959 49.9729 191.579 49.9729 191.579L48.4247 196.803L47.6635 196.448C47.6635 196.448 45.2499 197.659 43.4148 197.08C41.5798 196.501 39.2235 194.877 39.2235 194.877L37.5813 195.493C37.5813 195.493 39.3851 196.057 39.5206 196.809C39.6562 197.56 38.6292 197.638 38.6292 197.638L38.5562 197.967C38.4259 198.541 37.8628 198.912 37.2842 198.792C36.2259 198.578 34.6985 198.218 34.3544 197.837C34.2137 197.68 33.489 196.349 33.489 196.349C32.3734 195.561 32.3891 194.778 32.4516 194.298C32.5767 193.343 33.5933 192.268 33.5933 192.268L31.581 192.158C31.581 192.158 28.3332 195.488 27.03 193.374H27.0195Z" fill="#AE7461"/>
<path d="M43.7965 192.496C41.3724 192.496 39.0734 192.172 37.2697 192.621C36.7953 192.741 36.3104 192.913 35.9664 193.263C35.6223 193.613 35.4659 194.187 35.7109 194.609C35.9247 194.975 36.3678 195.137 36.7848 195.163C37.2019 195.189 37.6242 195.1 38.0412 195.09C39.0525 195.064 40.0118 195.492 40.9084 195.956C41.8051 196.426 42.6861 196.953 43.6766 197.162C44.6619 197.376 46.9817 197.188 47.6646 196.441" fill="#AE7461"/>
<path d="M47.6641 196.448C47.6641 196.448 47.6224 196.516 47.5129 196.62C47.3982 196.714 47.2053 196.84 46.9395 196.944C46.4077 197.153 45.5945 197.335 44.5779 197.346C44.0723 197.356 43.4936 197.278 42.9306 197.069C42.3623 196.866 41.7941 196.573 41.2102 196.26C40.6212 195.952 40.0112 195.629 39.3335 195.42C38.9947 195.316 38.6454 195.248 38.2857 195.232C37.926 195.211 37.5611 195.274 37.1649 195.3C36.7739 195.326 36.3464 195.289 35.9867 195.07C35.6166 194.867 35.3976 194.407 35.4654 194.005C35.5175 193.604 35.7469 193.249 36.044 193.024C36.3412 192.795 36.68 192.664 37.0032 192.57C38.3222 192.21 39.5473 192.283 40.5482 192.309C41.5178 192.361 42.3206 192.408 42.9254 192.44C43.4884 192.471 43.796 192.487 43.796 192.508C43.796 192.518 43.7178 192.523 43.5718 192.534C43.4258 192.544 43.2069 192.549 42.9254 192.549C42.3623 192.549 41.5491 192.523 40.543 192.508C39.5473 192.508 38.3326 192.461 37.0762 192.821C36.7687 192.915 36.4611 193.04 36.2056 193.238C35.9502 193.437 35.7729 193.724 35.7312 194.047C35.6843 194.366 35.8355 194.684 36.1274 194.851C36.4142 195.023 36.7791 195.065 37.1492 195.039C37.5193 195.018 37.9051 194.95 38.2961 194.971C38.6819 194.987 39.0572 195.065 39.4117 195.175C40.1207 195.394 40.7463 195.733 41.3301 196.046C42.4875 196.693 43.577 197.2 44.5831 197.158C45.5788 197.174 46.3817 197.022 46.9082 196.85C47.4399 196.678 47.6537 196.438 47.6693 196.453L47.6641 196.448Z" fill="#6F4439"/>
<path d="M36.0438 191.94C36.0543 191.971 35.8197 192.086 35.413 192.159C35.0064 192.237 34.4434 192.289 33.823 192.305C32.5771 192.336 31.5762 192.237 31.5762 192.164C31.5762 192.086 32.5823 192.065 33.8126 192.034C34.4278 192.018 34.9856 191.997 35.387 191.966C35.7884 191.94 36.0334 191.898 36.0438 191.94Z" fill="#6F4439"/>
<path d="M38.7135 197.64C38.7291 197.702 37.4363 197.911 35.8984 197.499C34.3605 197.102 33.3335 196.283 33.3804 196.236C33.4222 196.163 34.4856 196.857 35.9662 197.238C37.4467 197.635 38.7083 197.556 38.7135 197.64Z" fill="#6F4439"/>
<path d="M35.3771 194.914C35.3875 194.841 35.9297 194.852 36.5761 195.014C37.2226 195.175 37.7074 195.426 37.6761 195.494C37.65 195.567 37.1339 195.436 36.5084 195.28C35.8828 195.123 35.3667 194.993 35.3771 194.92V194.914Z" fill="#6F4439"/>
<path d="M10.8594 199.012L24.0121 192.566C24.2258 192.462 24.4813 192.483 24.6794 192.618L39.1406 201.82C39.4743 202.055 39.5368 202.535 39.2762 202.848L31.6337 213.088L10.8594 199.012Z" fill="#263238"/>
<path d="M12.4961 199.486L30.1999 211.157L38.2438 202.18L24.3091 193.516L12.4961 199.486Z" fill="white"/>
<path d="M19.3774 196.004L34.5737 206.27L30.1999 211.155L12.4961 199.485L19.3774 196.004Z" fill="#E0E0E0"/>
<path d="M27.1447 196.31L24.8197 198.199C24.6685 198.325 24.4391 198.299 24.314 198.147C24.1889 197.991 24.2149 197.766 24.3661 197.641L26.6912 195.752C26.8424 195.626 27.0717 195.652 27.1968 195.804C27.322 195.96 27.2959 196.185 27.1447 196.31Z" fill="#E0E0E0"/>
<path d="M28.1975 197.166L25.8724 199.055C25.716 199.18 25.4918 199.154 25.3667 199.003C25.2416 198.846 25.2677 198.622 25.4189 198.496L27.7439 196.607C27.9003 196.482 28.1245 196.508 28.2496 196.659C28.3747 196.816 28.3486 197.04 28.1975 197.166Z" fill="#E0E0E0"/>
<path d="M29.3244 198.173L26.9993 200.063C26.843 200.188 26.6188 200.162 26.4937 200.011C26.3686 199.854 26.3946 199.629 26.5458 199.504L28.8709 197.615C29.022 197.49 29.2514 197.516 29.3765 197.667C29.5016 197.824 29.4756 198.048 29.3244 198.173Z" fill="#E0E0E0"/>
<path d="M29.7831 199.533L28.4642 200.603C28.313 200.728 28.0836 200.702 27.9585 200.55C27.8334 200.399 27.8595 200.169 28.0106 200.044L29.3296 198.974C29.486 198.849 29.7101 198.875 29.8352 199.026C29.9604 199.183 29.9343 199.407 29.7831 199.533Z" fill="#E0E0E0"/>
<path d="M25.1958 195.995L23.6631 197.07C23.5015 197.185 23.2773 197.143 23.1627 196.981C23.048 196.819 23.0897 196.595 23.2513 196.48L24.7839 195.405C24.9456 195.29 25.1697 195.332 25.2844 195.494C25.3991 195.655 25.3574 195.88 25.1958 195.995Z" fill="#7B4DD3"/>
<path d="M33.0936 201.135L31.7694 202.461C31.6287 202.602 31.4045 202.602 31.2638 202.461C31.123 202.32 31.123 202.096 31.2638 201.955L32.5879 200.629C32.7287 200.488 32.9528 200.488 33.0936 200.629C33.2343 200.77 33.2343 200.994 33.0936 201.135Z" fill="#7B4DD3"/>
<path d="M31.6284 213.09C31.2843 213.632 30.5649 213.789 30.0228 213.444L10.6873 201.059C10.1451 200.715 9.98869 199.994 10.3328 199.452C10.6768 198.909 11.3962 198.752 11.9384 199.097L31.2739 211.482C31.8161 211.826 31.9725 212.547 31.6284 213.09Z" fill="#263238"/>
<path d="M180.118 175.133L180.681 161.344C180.681 161.344 194.783 158.285 195.132 155.749L168.556 152.695L166.799 174.147L180.124 175.138L180.118 175.133Z" fill="#455A64"/>
<g opacity="0.6">
<path d="M172.346 161.862C171.84 161.679 171.528 161.074 171.689 160.557C171.851 160.046 172.466 159.722 172.972 159.894C173.483 160.067 173.879 160.787 173.66 161.277C173.446 161.768 172.701 162.107 172.247 161.82" fill="white"/>
</g>
<path d="M168.556 152.691L168.379 154.852L194.147 156.909C194.147 156.909 195.044 156.632 195.294 155.567L168.561 152.691H168.556Z" fill="#263238"/>
<path d="M181.104 161.511C181.109 161.38 180.462 161.271 179.852 160.801C179.232 160.347 178.945 159.757 178.82 159.799C178.7 159.815 178.831 160.608 179.581 161.166C180.322 161.725 181.124 161.631 181.104 161.511Z" fill="#263238"/>
<path d="M183.986 160.568C184.027 160.443 183.48 160.177 183.079 159.592C182.662 159.018 182.594 158.412 182.464 158.407C182.344 158.376 182.192 159.133 182.703 159.853C183.209 160.573 183.97 160.688 183.981 160.563L183.986 160.568Z" fill="#263238"/>
<path d="M185.838 157.337C185.723 157.301 185.488 157.938 185.77 158.679C186.046 159.42 186.635 159.749 186.698 159.644C186.781 159.545 186.411 159.128 186.192 158.517C185.958 157.912 185.963 157.358 185.832 157.337H185.838Z" fill="#263238"/>
<path d="M180.625 164.639C180.578 164.514 179.968 164.65 179.238 164.545C178.503 164.451 177.95 164.164 177.872 164.269C177.789 164.357 178.31 164.884 179.175 164.994C180.041 165.114 180.682 164.749 180.625 164.639Z" fill="#263238"/>
<g opacity="0.3">
<path d="M180.118 175.133L180.681 161.344C180.681 161.344 194.783 158.285 195.132 155.749L168.556 152.695L166.799 174.147L180.124 175.138L180.118 175.133Z" fill="black"/>
</g>
<path d="M182.35 165.021C182.137 165.449 180.536 205.491 180.536 205.491L166.768 200.052C166.768 200.052 164.334 195.501 164.761 189.269C165.189 183.038 168.838 163.914 168.838 163.914L182.35 165.021Z" fill="#263238"/>
<path d="M178.679 176.011L172.022 163.923C172.022 163.923 182.495 153.991 181.484 151.637L157.17 162.811L166.767 182.07L178.674 176.006L178.679 176.011Z" fill="#455A64"/>
<g opacity="0.6">
<path d="M165.161 168.696C164.634 168.805 164.056 168.445 163.925 167.923C163.795 167.401 164.155 166.806 164.681 166.691C165.202 166.577 165.917 166.984 165.984 167.516C166.052 168.048 165.593 168.727 165.056 168.711" fill="white"/>
</g>
<path d="M157.176 162.812L158.145 164.753L181.245 153.14C181.245 153.14 181.865 152.441 181.532 151.402L157.176 162.812Z" fill="#263238"/>
<path d="M172.47 163.846C172.407 163.731 171.797 163.972 171.036 163.888C170.27 163.825 169.722 163.465 169.634 163.57C169.54 163.648 170.061 164.259 170.989 164.342C171.912 164.436 172.548 163.94 172.47 163.846Z" fill="#263238"/>
<path d="M174.452 161.542C174.421 161.416 173.816 161.474 173.17 161.176C172.518 160.9 172.148 160.42 172.033 160.482C171.913 160.519 172.179 161.244 172.987 161.594C173.795 161.949 174.504 161.651 174.452 161.542Z" fill="#263238"/>
<path d="M174.358 157.824C174.238 157.855 174.374 158.518 174.994 159.003C175.614 159.494 176.292 159.468 176.292 159.348C176.308 159.217 175.781 159.055 175.276 158.648C174.759 158.252 174.478 157.777 174.358 157.824Z" fill="#263238"/>
<path d="M173.685 166.772C173.581 166.689 173.128 167.122 172.45 167.409C171.772 167.712 171.152 167.748 171.141 167.879C171.115 167.999 171.835 168.176 172.632 167.827C173.435 167.482 173.795 166.835 173.691 166.772H173.685Z" fill="#263238"/>
<g opacity="0.3">
<path d="M177.36 173.617L176.177 171.461L164.494 177.505L165.479 179.488L177.36 173.617Z" fill="black"/>
</g>
<path d="M111.873 193.604L115.72 192.377C115.72 192.377 122.805 186.683 130.745 187.435C138.684 188.186 145.122 191.923 145.122 191.923L153.385 196.459L174.634 202.153L162.399 173.254L174.478 168.238C174.478 168.238 186.551 187.706 190.2 193.186C193.85 198.667 196.623 204.199 197.056 208.714C197.483 213.228 194.095 219.549 184.758 220.619C175.421 221.694 135.463 219.022 135.463 219.022L104.721 218.135L111.868 193.604H111.873Z" fill="#263238"/>
<path d="M111.873 193.606C111.873 193.606 111.837 193.752 111.759 194.028C111.68 194.31 111.56 194.723 111.409 195.271C111.096 196.367 110.632 197.979 110.028 200.078C108.813 204.274 107.041 210.407 104.799 218.157L104.726 218.058C111.065 218.235 118.468 218.439 126.751 218.669C135.04 218.763 144.189 219.519 154.053 219.979C158.984 220.224 164.093 220.448 169.358 220.605C171.991 220.678 174.66 220.735 177.366 220.741C178.721 220.735 180.082 220.741 181.448 220.683C182.131 220.668 182.819 220.647 183.502 220.584C184.19 220.537 184.878 220.49 185.556 220.365C188.272 219.963 190.993 218.971 193.151 217.15C195.309 215.365 196.816 212.682 196.941 209.812C196.978 209.457 196.925 209.096 196.92 208.742C196.873 208.387 196.842 208.027 196.774 207.672C196.649 206.962 196.493 206.252 196.284 205.553C195.883 204.154 195.351 202.786 194.741 201.445C193.521 198.768 192.009 196.2 190.367 193.694C187.526 189.388 184.836 185.067 182.167 180.829C179.519 176.58 176.912 172.4 174.358 168.303L174.519 168.355C170.406 170.061 166.377 171.732 162.441 173.365L162.508 173.193C166.861 183.491 170.959 193.183 174.728 202.097L174.822 202.317L174.592 202.254C166.913 200.192 159.813 198.282 153.349 196.544H153.338L153.328 196.534C151.123 195.323 149.001 194.154 146.958 193.032C145.931 192.478 144.945 191.899 143.955 191.403C142.959 190.907 141.958 190.464 140.968 190.072C137.006 188.512 133.19 187.609 129.759 187.447C128.044 187.395 126.439 187.614 124.984 187.953C123.53 188.308 122.226 188.793 121.059 189.295C118.734 190.323 116.972 191.45 115.721 192.39V192.395C114.412 192.802 113.453 193.105 112.812 193.303C112.176 193.501 111.858 193.59 111.858 193.59C111.858 193.59 112.155 193.486 112.791 193.277C113.432 193.068 114.391 192.76 115.7 192.332H115.689C116.94 191.382 118.697 190.239 121.022 189.201C122.19 188.689 123.499 188.198 124.958 187.833C126.423 187.483 128.039 187.259 129.765 187.306C133.216 187.457 137.047 188.35 141.03 189.91C142.026 190.307 143.027 190.745 144.033 191.241C145.039 191.742 146.024 192.316 147.046 192.87C149.09 193.987 151.217 195.151 153.422 196.361L153.401 196.351C159.865 198.079 166.971 199.978 174.65 202.03L174.514 202.186C170.735 193.272 166.632 183.585 162.269 173.292L162.216 173.172L162.336 173.12C166.277 171.486 170.302 169.811 174.415 168.104L174.519 168.062L174.577 168.156C177.131 172.248 179.738 176.429 182.391 180.678C185.06 184.916 187.75 189.237 190.592 193.538C192.239 196.048 193.756 198.627 194.981 201.325C195.591 202.672 196.128 204.055 196.534 205.469C196.743 206.174 196.905 206.894 197.03 207.619C197.097 207.98 197.129 208.345 197.176 208.71C197.176 209.081 197.233 209.446 197.197 209.817C197.066 212.776 195.513 215.521 193.308 217.348C191.102 219.211 188.334 220.208 185.582 220.615C184.894 220.746 184.2 220.788 183.507 220.84C182.814 220.902 182.125 220.923 181.442 220.939C180.071 220.996 178.706 220.986 177.35 220.991C174.639 220.986 171.965 220.923 169.332 220.85C164.067 220.694 158.958 220.459 154.027 220.208C144.158 219.744 135.02 218.971 126.731 218.862C118.447 218.611 111.05 218.392 104.71 218.199H104.611L104.637 218.1C106.916 210.344 108.714 204.211 109.944 200.015C110.56 197.927 111.039 196.32 111.357 195.229C111.519 194.691 111.639 194.284 111.722 194.002C111.805 193.726 111.852 193.59 111.852 193.59L111.873 193.606Z" fill="#455A64"/>
<path d="M173.17 201.691C173.17 201.691 173.352 201.697 173.665 201.754C173.978 201.811 174.432 201.911 174.989 202.046C176.094 202.328 177.638 202.74 179.222 203.508C180.818 204.254 182.069 205.324 182.778 206.232C182.965 206.451 183.111 206.671 183.236 206.858C183.367 207.046 183.471 207.213 183.544 207.36C183.695 207.641 183.773 207.803 183.758 207.814C183.711 207.84 183.377 207.213 182.632 206.357C181.897 205.496 180.672 204.489 179.108 203.753C177.549 203.001 176.032 202.558 174.942 202.234C173.848 201.921 173.165 201.733 173.175 201.691H173.17Z" fill="#455A64"/>
<path d="M40.4914 210.791C40.4914 210.791 35.0437 207.69 33.9802 207.628C32.4684 207.534 25.7904 207.763 24.9719 207.711C24.2421 207.664 23.9345 208.437 24.2473 208.959C24.5549 209.48 25.3108 210.326 27.3752 210.274C29.4396 210.222 30.6282 210.582 31.1443 210.791C31.6604 210.999 31.5144 211.631 31.5144 211.631C31.5144 211.631 28.5168 211.787 27.6463 211.584C26.4524 211.302 22.4957 208.614 22.4957 208.614L20.9161 207.602C20.9161 207.602 20.254 208.405 21.2862 209.908C22.3184 211.406 23.6113 212.753 23.6113 212.753C23.6113 212.753 22.1933 213.645 23.434 215.013C23.434 215.013 22.5217 216.735 24.5966 217.737C24.5966 217.737 25.0553 218.943 25.952 219.658C26.5828 220.164 28.178 220.07 29.1581 220.128C30.2737 220.196 32.7186 219.956 33.5267 219.783C35.7631 219.314 37.3687 218.766 37.3687 218.766L42.3004 219.047L42.7487 210.629L40.4914 210.785V210.791Z" fill="#AE7461"/>
<path d="M26.7544 214.498C26.7283 214.566 25.8473 214.294 24.8516 213.752C23.8559 213.214 23.1417 212.629 23.1834 212.572C23.2303 212.509 23.9966 212.984 24.9767 213.511C25.9568 214.039 26.7752 214.425 26.7492 214.493L26.7544 214.498Z" fill="#6F4439"/>
<path d="M26.0972 216.385C26.0764 216.453 25.357 216.296 24.5594 215.873C23.7617 215.456 23.2196 214.949 23.2665 214.897C23.3134 214.835 23.9077 215.231 24.6845 215.633C25.456 216.04 26.1181 216.312 26.0972 216.385Z" fill="#6F4439"/>
<path d="M26.2178 218.407C26.2022 218.475 25.561 218.386 24.8468 218.031C24.1378 217.676 23.679 217.217 23.7259 217.16C23.7729 217.097 24.289 217.447 24.9719 217.786C25.6496 218.13 26.2387 218.329 26.2178 218.407Z" fill="#6F4439"/>
<g opacity="0.3">
<path d="M80.7305 210.992C83.5143 207.355 84.9427 202.824 85.5265 198.283C86.1052 193.737 85.9697 189.421 85.7455 184.844C84.7811 194.092 83.1285 202.668 80.7305 210.998V210.992Z" fill="black"/>
</g>
<path d="M86.2243 179.537C86.2712 180.001 86.2347 178.524 86.2243 179.041C86.0939 185.278 82.4187 211.865 77.6539 217.037C74.0151 220.988 39.9004 219.308 39.9004 219.308L40.2757 210.414C40.2757 210.414 41.1985 210.148 47.3239 209.381C53.4493 208.613 65.94 205.393 65.94 205.393L70.147 177.574" fill="#7B4DD3"/>
<path d="M70.1425 177.57C70.1425 177.57 70.1269 177.743 70.0852 178.071C70.0383 178.411 69.9705 178.896 69.8819 179.533C69.6942 180.822 69.4179 182.706 69.0686 185.117C68.3492 189.961 67.3118 196.913 66.0502 205.405L66.0398 205.478L65.972 205.493C62.3176 206.428 58.3192 207.398 54.0235 208.307C51.8757 208.756 49.6549 209.194 47.3455 209.502C45.0517 209.805 42.6693 210.076 40.3182 210.535L40.4121 210.415C40.2922 213.249 40.167 216.25 40.0419 219.309L39.9116 219.168C42.3201 219.278 44.8745 219.361 47.4654 219.424C52.3449 219.539 57.1149 219.565 61.7129 219.439C64.0119 219.372 66.2692 219.267 68.4743 219.09C70.6743 218.902 72.8377 218.667 74.8813 218.166C75.387 218.035 75.8874 217.889 76.367 217.691C76.8362 217.493 77.3054 217.263 77.6234 216.892C78.2855 216.13 78.7755 215.233 79.1925 214.33C80.0266 212.519 80.6261 210.661 81.1579 208.86C82.2057 205.248 82.9356 201.814 83.5507 198.672C84.755 192.383 85.4379 187.242 85.8341 183.682C86.0322 181.902 86.1469 180.514 86.1938 179.575C86.2042 179.34 86.2146 179.131 86.2251 178.953V178.933C86.2251 178.933 86.2251 178.917 86.2511 178.912C86.2668 178.912 86.2615 178.917 86.2668 178.922C86.2668 178.938 86.2668 178.933 86.2668 178.938V178.974L86.272 179.037C86.272 179.079 86.272 179.115 86.272 179.157C86.272 179.23 86.272 179.298 86.272 179.361C86.2616 179.481 86.2876 179.575 86.2459 179.637C86.2303 179.569 86.2355 179.543 86.2355 179.543C86.2355 179.543 86.2407 179.575 86.2511 179.632C86.2407 179.58 86.2511 179.481 86.2407 179.366C86.2407 179.303 86.2407 179.235 86.2303 179.162C86.2303 179.126 86.2303 179.084 86.2251 179.042V178.98L86.2198 178.948C86.2146 178.943 86.2198 178.948 86.2563 178.943V178.959C86.2511 179.141 86.2459 179.345 86.2407 179.58C86.2094 180.524 86.1104 181.913 85.9331 183.698C85.5682 187.263 84.9113 192.414 83.7332 198.714C83.1337 201.861 82.409 205.3 81.3716 208.928C80.8399 210.739 80.2456 212.602 79.4063 214.439C78.9892 215.353 78.494 216.266 77.8059 217.07C77.4461 217.487 76.9457 217.727 76.4609 217.931C75.9708 218.135 75.4599 218.286 74.9438 218.416C72.8742 218.928 70.7056 219.163 68.5004 219.356C66.29 219.539 64.0275 219.648 61.7233 219.716C57.1149 219.846 52.3449 219.82 47.4602 219.706C44.8693 219.643 42.3148 219.559 39.9012 219.445H39.7656L39.7708 219.304C39.9012 216.245 40.0263 213.244 40.1514 210.41V210.306L40.2452 210.285C41.4599 210.024 42.6381 209.878 43.8214 209.705C44.9996 209.549 46.1674 209.397 47.3142 209.251C49.608 208.949 51.8288 208.51 53.9714 208.067C58.2618 207.169 62.2655 206.203 65.9147 205.285L65.8365 205.373C67.1398 196.892 68.2085 189.94 68.9487 185.102C69.3241 182.696 69.6212 180.811 69.8193 179.528C69.9236 178.896 70.0018 178.411 70.0539 178.071C70.1113 177.743 70.1478 177.576 70.1478 177.576L70.1425 177.57Z" fill="#263238"/>
</g>
<defs>
<clipPath id="clip0_18377_16408">
<rect width="232" height="221" fill="white"/>
</clipPath>
</defs>
</svg>
