<svg width="216" height="209" viewBox="0 0 216 209" fill="none" xmlns="http://www.w3.org/2000/svg">
<g clip-path="url(#clip0_18377_16686)">
<path d="M198.18 0H15.6992V121.657H198.18V0Z" fill="#E0E0E0"/>
<path d="M192.649 5.4375H10.168V127.095H192.649V5.4375Z" fill="#EBEBEB"/>
<path d="M21.3338 164.145C23.0819 163.24 25.1448 163.122 27.0855 163.443C28.1288 163.617 29.219 163.928 29.9285 164.715C30.6381 165.501 30.7744 166.881 29.9567 167.56C29.4727 167.96 28.796 168.021 28.1663 168.016C26.6438 167.998 24.9568 167.729 23.7445 168.648C23.049 169.17 22.5885 170.042 21.7614 170.296C20.9485 170.546 20.0369 170.07 19.6045 169.335C19.1722 168.601 19.1581 167.687 19.3602 166.858C19.3602 166.858 19.5716 165.054 21.3338 164.145Z" fill="#EBEBEB"/>
<path d="M17.3256 156.386C18.3971 157.917 20.4741 157.413 21.4374 156.476C22.4007 155.539 22.8095 154.187 23.1808 152.891C24.0266 149.938 24.8818 146.839 24.2522 143.834C24.0642 142.934 23.7306 142.039 23.0962 141.37C22.4665 140.701 21.4985 140.306 20.6103 140.541C19.5624 140.819 18.9093 141.851 18.4393 142.826C17.0531 145.704 16.32 148.897 16.3106 152.091C16.3059 153.584 16.4798 155.148 17.321 156.382" fill="#EBEBEB"/>
<path d="M14.3839 158.588C15.5446 157.207 15.7655 155.191 15.2486 153.458C14.7317 151.725 13.5616 150.255 12.2176 149.049C10.6387 147.641 8.78256 146.543 6.79013 145.841C6.00538 145.564 5.17833 145.347 4.35129 145.427C3.52424 145.507 2.6878 145.931 2.30247 146.671C1.72917 147.763 2.27897 149.087 2.87106 150.166C3.91427 152.068 5.10785 153.891 6.4377 155.606C7.5044 156.986 8.73087 158.347 10.3568 158.974C11.9874 159.596 13.6791 159.525 14.539 158.394" fill="#EBEBEB"/>
<path d="M17.2504 179.494C17.2504 179.494 17.3021 179.249 17.3491 178.796C17.3961 178.288 17.4619 177.652 17.5324 176.898C17.6217 176.097 17.7391 175.146 17.96 174.11C18.1809 173.078 18.5286 171.957 18.9703 170.822C19.4308 169.691 19.99 168.665 20.6479 167.845C21.2964 167.021 22.0529 166.422 22.7672 166.079C23.4768 165.725 24.1111 165.584 24.5529 165.523C24.9946 165.476 25.2436 165.443 25.2436 165.424C25.2436 165.405 24.9946 165.4 24.5388 165.414C24.0877 165.443 23.4251 165.56 22.6779 165.9C21.9308 166.234 21.1272 166.837 20.4458 167.68C19.7598 168.519 19.1771 169.569 18.7072 170.714C18.256 171.868 17.913 173.003 17.7062 174.058C17.4948 175.113 17.4008 176.074 17.335 176.879C17.2739 177.685 17.2504 178.339 17.241 178.792C17.2316 179.244 17.2363 179.494 17.2551 179.494H17.2504Z" fill="#E0E0E0"/>
<path d="M17.3828 178.033C17.3828 178.033 17.3969 177.92 17.4015 177.708C17.4015 177.463 17.4015 177.162 17.4015 176.785C17.4015 175.984 17.4015 174.825 17.4438 173.389C17.5143 170.525 17.7587 167.44 18.238 163.092C18.6891 159.004 19.2906 154.246 19.9297 151.156C20.066 150.454 20.2022 149.819 20.3338 149.267C20.456 148.712 20.5641 148.231 20.6627 147.845C20.752 147.482 20.8225 147.181 20.8789 146.945C20.9259 146.738 20.9447 146.63 20.9353 146.625C20.9259 146.625 20.8883 146.729 20.8225 146.926C20.752 147.157 20.6627 147.454 20.5547 147.812C20.4372 148.198 20.315 148.674 20.174 149.225C20.0284 149.776 19.878 150.407 19.7276 151.109C19.0979 153.912 18.4307 157.826 17.9513 162.183C17.4767 166.54 17.2606 170.506 17.2418 173.379C17.223 174.816 17.2559 175.979 17.2935 176.78C17.317 177.157 17.3358 177.459 17.3499 177.703C17.364 177.915 17.3781 178.024 17.3875 178.024L17.3828 178.033Z" fill="#E0E0E0"/>
<path d="M17.4012 170.386C17.4012 170.386 17.42 170.042 17.3965 169.421C17.3589 168.799 17.2743 167.904 17.1005 166.806C16.9172 165.714 16.6587 164.409 16.2546 162.996C16.0807 162.35 15.6672 160.801 14.6663 158.488C13.3506 155.356 11.5602 152.793 10.0001 151.206C9.63355 150.787 9.22942 150.48 8.90048 150.184C8.73131 150.042 8.58094 149.896 8.43057 149.788C8.2802 149.684 8.13453 149.586 8.00295 149.496C7.49075 149.143 7.2041 148.959 7.1947 148.978C7.14771 149.039 8.34129 149.746 9.84971 151.352C11.3534 152.958 13.0921 155.502 14.3985 158.61C15.1268 160.297 15.6343 161.799 15.9962 163.076C16.4144 164.475 16.6916 165.761 16.8984 166.849C17.0958 167.937 17.2132 168.822 17.2837 169.439C17.3401 170.056 17.3824 170.396 17.4012 170.396V170.386Z" fill="#E0E0E0"/>
<path d="M10.0234 183.879L10.7894 194.378H24.2477L25.0136 183.879H10.0234Z" fill="#E0E0E0"/>
<path d="M26.6208 179.738H8.72656V183.879H26.6208V179.738Z" fill="#E0E0E0"/>
<path d="M8.72656 193.98V195.125H9.56771H26.3248V193.98H8.72656Z" fill="#EBEBEB"/>
<path d="M10.3888 197.146L9.56641 195.125H25.6797L24.7211 197.146H10.3888Z" fill="#E0E0E0"/>
<path d="M24.7636 187.309C24.7636 187.309 24.7448 187.342 24.7025 187.403C24.6508 187.474 24.585 187.563 24.5004 187.671C24.3077 187.916 24.0446 188.255 23.7157 188.679L23.6828 188.726L23.6499 188.679C23.1565 187.996 22.4986 187.083 21.7232 186.009H21.836C21.2627 186.823 20.6236 187.728 19.9376 188.698L19.8765 188.783L19.8107 188.703C19.1105 187.869 18.3492 186.96 17.5598 186.023H17.6914C17.6538 186.07 17.6115 186.122 17.5692 186.178C16.8737 187.054 16.1971 187.902 15.558 188.708L15.4922 188.792L15.4311 188.703C14.7497 187.733 14.1106 186.828 13.5326 186.013H13.6407C12.7056 187.087 11.9114 187.992 11.3053 188.689L11.263 188.736L11.2301 188.684C10.9199 188.166 10.6756 187.751 10.497 187.45C10.4218 187.318 10.3607 187.21 10.309 187.12C10.2668 187.045 10.248 187.007 10.2527 187.002C10.2527 187.002 10.2809 187.035 10.3325 187.106C10.3889 187.191 10.4547 187.295 10.5393 187.422C10.7273 187.714 10.9857 188.124 11.3053 188.632H11.2301C11.8269 187.921 12.6069 187.007 13.5279 185.924L13.5843 185.858L13.636 185.933C14.2187 186.748 14.8625 187.648 15.5486 188.613H15.4217C16.0608 187.808 16.7328 186.955 17.4282 186.079C17.4705 186.027 17.5128 185.971 17.5504 185.924L17.6162 185.844L17.682 185.924C18.4667 186.866 19.228 187.775 19.9235 188.613H19.7966C20.4874 187.653 21.1311 186.748 21.7138 185.943L21.7702 185.863L21.8266 185.943C22.5832 187.031 23.2316 187.949 23.711 188.642H23.6405C23.9835 188.227 24.2561 187.897 24.4581 187.657C24.5474 187.554 24.6179 187.469 24.6743 187.403C24.726 187.346 24.7542 187.318 24.7542 187.323L24.7636 187.309Z" fill="#F5F5F5"/>
<path d="M25.2021 183.811C25.2021 183.858 21.8281 183.896 17.6694 183.896C13.5107 183.896 10.1367 183.858 10.1367 183.811C10.1367 183.764 13.506 183.727 17.6694 183.727C21.8328 183.727 25.2021 183.764 25.2021 183.811Z" fill="#F5F5F5"/>
<path d="M25.8776 195.237C25.8776 195.284 22.2123 195.322 17.6917 195.322C13.1712 195.322 9.50586 195.284 9.50586 195.237C9.50586 195.19 13.1712 195.152 17.6917 195.152C22.2123 195.152 25.8776 195.19 25.8776 195.237Z" fill="#F5F5F5"/>
<path d="M201.41 197.146C201.41 197.212 156.317 197.268 100.708 197.268C45.0983 197.268 -0.00390625 197.212 -0.00390625 197.146C-0.00390625 197.08 45.0795 197.023 100.708 197.023C156.336 197.023 201.41 197.08 201.41 197.146Z" fill="#263238"/>
<path d="M186.415 11.7539H3.93359V132.54H186.415V11.7539Z" fill="#FAFAFA"/>
<path d="M186.42 132.533C186.42 131.737 186.382 85.4116 186.321 11.7475L186.42 11.8464C136.275 11.8511 72.7949 11.8605 3.95268 11.8699H3.93858L4.06076 11.7475C4.06076 54.7288 4.05606 95.6188 4.05136 132.533L3.93858 132.42C111.37 132.486 185.414 132.533 186.42 132.533C185.414 132.533 111.37 132.58 3.93858 132.646H3.8258V132.533C3.8258 95.6188 3.82111 54.7288 3.81641 11.7475V11.625H3.95268C72.7949 11.6344 136.28 11.6438 186.42 11.6486H186.518V11.7475C186.457 85.4116 186.42 131.737 186.42 132.533Z" fill="#263238"/>
<path d="M22.3183 21.4118V22.4136H23.1992C23.3742 22.4136 23.5054 22.3934 23.5929 22.3529C23.7477 22.2821 23.8251 22.1421 23.8251 21.9329C23.8251 21.7069 23.7502 21.5551 23.6005 21.4775C23.5163 21.4337 23.3901 21.4118 23.2219 21.4118H22.3183ZM23.3834 20.7641C23.6442 20.7692 23.8444 20.8012 23.9841 20.8602C24.1254 20.9193 24.2449 21.0061 24.3425 21.1208C24.4233 21.2153 24.4872 21.3198 24.5343 21.4345C24.5814 21.5492 24.605 21.6799 24.605 21.8267C24.605 22.0038 24.5604 22.1783 24.4712 22.3504C24.382 22.5207 24.2348 22.6413 24.0295 22.7122C24.2012 22.7813 24.3223 22.88 24.393 23.0082C24.4653 23.1347 24.5015 23.3286 24.5015 23.59V23.8405C24.5015 24.0109 24.5082 24.1264 24.5217 24.1871C24.5419 24.2832 24.589 24.3541 24.663 24.3996V24.4932H23.8074C23.7839 24.4106 23.767 24.344 23.7569 24.2934C23.7368 24.1888 23.7258 24.0817 23.7241 23.9721L23.7191 23.6255C23.7157 23.3877 23.672 23.2291 23.5878 23.1498C23.5054 23.0706 23.3498 23.0309 23.1209 23.0309H22.3183V24.4932H21.5586V20.7641H23.3834Z" fill="black"/>
<path d="M26.523 23.9847C26.7333 23.9847 26.8949 23.9097 27.0076 23.7596C27.1203 23.6094 27.1767 23.3961 27.1767 23.1195C27.1767 22.8429 27.1203 22.6304 27.0076 22.4819C26.8949 22.3318 26.7333 22.2568 26.523 22.2568C26.3127 22.2568 26.1503 22.3318 26.0359 22.4819C25.9232 22.6304 25.8668 22.8429 25.8668 23.1195C25.8668 23.3961 25.9232 23.6094 26.0359 23.7596C26.1503 23.9097 26.3127 23.9847 26.523 23.9847ZM27.9314 23.1195C27.9314 23.5243 27.8153 23.8709 27.5831 24.1593C27.3509 24.446 26.9984 24.5894 26.5255 24.5894C26.0527 24.5894 25.7002 24.446 25.468 24.1593C25.2358 23.8709 25.1197 23.5243 25.1197 23.1195C25.1197 22.7214 25.2358 22.3765 25.468 22.0847C25.7002 21.7929 26.0527 21.6471 26.5255 21.6471C26.9984 21.6471 27.3509 21.7929 27.5831 22.0847C27.8153 22.3765 27.9314 22.7214 27.9314 23.1195Z" fill="black"/>
<path d="M30.0059 21.6749C30.3676 21.6749 30.6503 21.8056 30.8539 22.067C31.0592 22.3285 31.1618 22.6658 31.1618 23.079C31.1618 23.5074 31.0609 23.8624 30.859 24.1441C30.657 24.4258 30.3752 24.5666 30.0134 24.5666C29.7863 24.5666 29.6037 24.5211 29.4657 24.43C29.3833 24.376 29.2941 24.2816 29.1982 24.1466V24.4932H28.494V20.7692H29.2108V22.0949C29.3017 21.9667 29.4018 21.8688 29.5112 21.8014C29.6407 21.717 29.8056 21.6749 30.0059 21.6749ZM29.8216 23.9721C30.0067 23.9721 30.1506 23.897 30.2532 23.7469C30.3559 23.5968 30.4072 23.3995 30.4072 23.1549C30.4072 22.9592 30.3819 22.7973 30.3315 22.6691C30.2355 22.4263 30.0589 22.3048 29.8014 22.3048C29.5406 22.3048 29.3614 22.4237 29.2638 22.6616C29.2133 22.7881 29.1881 22.9517 29.1881 23.1524C29.1881 23.3885 29.2403 23.5841 29.3446 23.7393C29.4489 23.8945 29.6079 23.9721 29.8216 23.9721Z" fill="black"/>
<path d="M32.9839 23.9847C33.1943 23.9847 33.3558 23.9097 33.4685 23.7596C33.5813 23.6094 33.6376 23.3961 33.6376 23.1195C33.6376 22.8429 33.5813 22.6304 33.4685 22.4819C33.3558 22.3318 33.1943 22.2568 32.9839 22.2568C32.7736 22.2568 32.6112 22.3318 32.4968 22.4819C32.3841 22.6304 32.3277 22.8429 32.3277 23.1195C32.3277 23.3961 32.3841 23.6094 32.4968 23.7596C32.6112 23.9097 32.7736 23.9847 32.9839 23.9847ZM34.3923 23.1195C34.3923 23.5243 34.2762 23.8709 34.044 24.1593C33.8118 24.446 33.4593 24.5894 32.9865 24.5894C32.5136 24.5894 32.1611 24.446 31.9289 24.1593C31.6967 23.8709 31.5806 23.5243 31.5806 23.1195C31.5806 22.7214 31.6967 22.3765 31.9289 22.0847C32.1611 21.7929 32.5136 21.6471 32.9865 21.6471C33.4593 21.6471 33.8118 21.7929 34.044 22.0847C34.2762 22.3765 34.3923 22.7214 34.3923 23.1195Z" fill="black"/>
<path d="M37.5395 21.9279C37.4806 21.6732 37.3367 21.4953 37.1079 21.3941C36.98 21.3384 36.8378 21.3106 36.6813 21.3106C36.3818 21.3106 36.1353 21.4244 35.9418 21.6521C35.75 21.8781 35.6541 22.2188 35.6541 22.6742C35.6541 23.133 35.7584 23.4576 35.9671 23.6482C36.1757 23.8388 36.413 23.9341 36.6788 23.9341C36.9396 23.9341 37.1533 23.8591 37.3199 23.709C37.4865 23.5572 37.5891 23.359 37.6278 23.1144H36.7671V22.4921H38.3168V24.4932H37.802L37.7237 24.0277C37.574 24.2048 37.4394 24.3296 37.3199 24.4022C37.1146 24.5287 36.8622 24.5919 36.5627 24.5919C36.0697 24.5919 35.6659 24.4207 35.3512 24.0783C35.0231 23.7343 34.859 23.2637 34.859 22.6666C34.859 22.0628 35.0248 21.5787 35.3563 21.2144C35.6877 20.8501 36.1261 20.668 36.6712 20.668C37.1441 20.668 37.5235 20.7886 37.8095 21.0297C38.0973 21.2693 38.2622 21.5686 38.3042 21.9279H37.5395Z" fill="black"/>
<path d="M40.568 21.6698C40.5815 21.6698 40.5924 21.6707 40.6008 21.6724C40.6109 21.6724 40.632 21.6732 40.6639 21.6749V22.4136C40.6185 22.4086 40.5781 22.4052 40.5428 22.4035C40.5074 22.4018 40.4788 22.401 40.457 22.401C40.1676 22.401 39.9732 22.4954 39.8739 22.6843C39.8184 22.7906 39.7906 22.9542 39.7906 23.1751V24.4932H39.0663V21.7356H39.7528V22.2163C39.8638 22.0324 39.9606 21.9068 40.043 21.8393C40.1777 21.7263 40.3526 21.6698 40.568 21.6698Z" fill="black"/>
<path d="M42.6753 23.1524C42.6299 23.181 42.5836 23.2047 42.5365 23.2232C42.4911 23.2401 42.428 23.2561 42.3472 23.2713L42.1857 23.3016C42.0343 23.3286 41.9257 23.3615 41.8601 23.4003C41.749 23.4661 41.6935 23.5681 41.6935 23.7064C41.6935 23.8295 41.7272 23.9189 41.7945 23.9746C41.8635 24.0286 41.9468 24.0556 42.0443 24.0556C42.1992 24.0556 42.3413 24.01 42.4709 23.9189C42.6021 23.8279 42.6703 23.6617 42.6753 23.4205V23.1524ZM42.2387 22.8159C42.3716 22.799 42.4667 22.7779 42.5239 22.7526C42.6265 22.7088 42.6779 22.6405 42.6779 22.5477C42.6779 22.4347 42.6383 22.3571 42.5592 22.315C42.4818 22.2711 42.3674 22.2492 42.216 22.2492C42.046 22.2492 41.9257 22.2913 41.8551 22.3757C41.8046 22.4381 41.7709 22.5224 41.7541 22.6287H41.06C41.0752 22.3875 41.1425 22.1893 41.2619 22.0341C41.4521 21.7913 41.7785 21.6698 42.2412 21.6698C42.5424 21.6698 42.8099 21.7297 43.0438 21.8494C43.2777 21.9692 43.3947 22.1952 43.3947 22.5275V23.7924C43.3947 23.8801 43.3963 23.9864 43.3997 24.1112C43.4048 24.2057 43.4191 24.2698 43.4426 24.3035C43.4662 24.3372 43.5015 24.3651 43.5486 24.387V24.4932H42.7662C42.7443 24.4376 42.7292 24.3853 42.7208 24.3364C42.7124 24.2875 42.7056 24.2318 42.7006 24.1694C42.6013 24.2773 42.4869 24.3693 42.3573 24.4452C42.2025 24.5346 42.0275 24.5793 41.8323 24.5793C41.5833 24.5793 41.3772 24.5084 41.214 24.3667C41.0524 24.2234 40.9717 24.021 40.9717 23.7596C40.9717 23.4205 41.1021 23.1751 41.3629 23.0233C41.5059 22.9407 41.7162 22.8817 41.9939 22.8462L42.2387 22.8159Z" fill="black"/>
<path d="M45.1208 21.6698C45.2874 21.6698 45.4355 21.7069 45.5651 21.7811C45.6946 21.8537 45.7998 21.9549 45.8806 22.0847V20.7692H46.61V24.4932H45.9108V24.1112C45.8082 24.2748 45.6913 24.3937 45.56 24.4679C45.4288 24.5421 45.2656 24.5793 45.0704 24.5793C44.749 24.5793 44.4781 24.4494 44.2577 24.1896C44.0389 23.9282 43.9295 23.5934 43.9295 23.1853C43.9295 22.7147 44.0372 22.3445 44.2526 22.0746C44.4697 21.8048 44.7591 21.6698 45.1208 21.6698ZM45.2773 23.9721C45.4809 23.9721 45.6357 23.8962 45.7417 23.7444C45.8477 23.5926 45.9007 23.3961 45.9007 23.1549C45.9007 22.8176 45.8158 22.5764 45.6458 22.4313C45.5415 22.3436 45.4204 22.2998 45.2824 22.2998C45.0721 22.2998 44.9173 22.3799 44.818 22.5401C44.7204 22.6987 44.6716 22.896 44.6716 23.1321C44.6716 23.3868 44.7212 23.5909 44.8205 23.7444C44.9215 23.8962 45.0737 23.9721 45.2773 23.9721Z" fill="black"/>
<path d="M48.0762 21.4067H47.3468V20.7413H48.0762V21.4067ZM47.3468 21.7356H48.0762V24.4932H47.3468V21.7356Z" fill="black"/>
<path d="M50.3703 21.6698C50.6547 21.6698 50.8869 21.7449 51.0669 21.895C51.2486 22.0434 51.3395 22.2905 51.3395 22.6363V24.4932H50.6025V22.8159C50.6025 22.6708 50.5831 22.5595 50.5444 22.4819C50.4738 22.3403 50.3392 22.2694 50.1406 22.2694C49.8966 22.2694 49.7292 22.3731 49.6383 22.5806C49.5912 22.6902 49.5677 22.8302 49.5677 23.0006V24.4932H48.8509V21.7407H49.545V22.1429C49.6375 22.0012 49.725 21.8992 49.8074 21.8368C49.9555 21.7255 50.1431 21.6698 50.3703 21.6698Z" fill="black"/>
<path d="M53.2575 23.9012C53.4258 23.9012 53.5679 23.838 53.684 23.7115C53.8001 23.5833 53.8582 23.3801 53.8582 23.1018C53.8582 22.8403 53.8027 22.6413 53.6916 22.5047C53.5822 22.3681 53.435 22.2998 53.2499 22.2998C52.9975 22.2998 52.8234 22.4187 52.7275 22.6565C52.677 22.783 52.6517 22.939 52.6517 23.1245C52.6517 23.2848 52.6787 23.4273 52.7325 23.5521C52.8301 23.7849 53.0051 23.9012 53.2575 23.9012ZM53.0783 21.6698C53.2163 21.6698 53.3366 21.6909 53.4392 21.7331C53.6142 21.8056 53.7556 21.9388 53.8632 22.1328V21.7356H54.5624V24.3516C54.5624 24.7074 54.5026 24.9756 54.3832 25.1561C54.1779 25.4664 53.7842 25.6216 53.202 25.6216C52.8503 25.6216 52.5634 25.5524 52.3413 25.4141C52.1192 25.2758 51.9964 25.0692 51.9728 24.7943H52.7552C52.7754 24.8786 52.8082 24.9393 52.8537 24.9765C52.9311 25.0422 53.0615 25.0751 53.2449 25.0751C53.504 25.0751 53.6773 24.9883 53.7648 24.8145C53.822 24.7032 53.8506 24.516 53.8506 24.2529V24.0758C53.7816 24.1939 53.7076 24.2824 53.6285 24.3414C53.4855 24.4511 53.2996 24.5059 53.0707 24.5059C52.7174 24.5059 52.4347 24.3819 52.2227 24.134C52.0124 23.8844 51.9072 23.547 51.9072 23.122C51.9072 22.7122 52.009 22.3681 52.2126 22.0898C52.4162 21.8098 52.7048 21.6698 53.0783 21.6698Z" fill="black"/>
<path d="M57.2021 23.294C57.2138 23.5049 57.2635 23.6761 57.351 23.8076C57.5175 24.0539 57.8112 24.177 58.2318 24.177C58.4203 24.177 58.5919 24.15 58.7467 24.096C59.0462 23.9915 59.196 23.8042 59.196 23.5344C59.196 23.332 59.1329 23.1878 59.0067 23.1018C58.8788 23.0174 58.6786 22.9441 58.406 22.8817L57.9037 22.7678C57.5756 22.6936 57.3434 22.6118 57.2071 22.5224C56.9715 22.3672 56.8538 22.1353 56.8538 21.8267C56.8538 21.4927 56.969 21.2187 57.1995 21.0045C57.43 20.7902 57.7565 20.6831 58.1788 20.6831C58.5675 20.6831 58.8973 20.7776 59.1682 20.9665C59.4408 21.1537 59.5771 21.4539 59.5771 21.8672H59.1051C59.0799 21.6681 59.026 21.5155 58.9436 21.4092C58.7905 21.2153 58.5305 21.1183 58.1637 21.1183C57.8675 21.1183 57.6547 21.1807 57.5251 21.3055C57.3956 21.4303 57.3308 21.5754 57.3308 21.7407C57.3308 21.9228 57.4065 22.0561 57.5579 22.1404C57.6572 22.1944 57.8818 22.2618 58.2318 22.3428L58.7518 22.4617C59.0025 22.519 59.196 22.5975 59.3323 22.697C59.5678 22.8707 59.6856 23.1229 59.6856 23.4534C59.6856 23.865 59.5359 24.1593 59.2364 24.3364C58.9385 24.5135 58.5919 24.602 58.1965 24.602C57.7354 24.602 57.3745 24.484 57.1137 24.2478C56.8529 24.0134 56.725 23.6955 56.7301 23.294H57.2021Z" fill="black"/>
<path d="M60.7859 21.7837V23.5825C60.7859 23.7208 60.8077 23.8338 60.8515 23.9215C60.9323 24.0834 61.0829 24.1643 61.3033 24.1643C61.6196 24.1643 61.835 24.0227 61.9494 23.7393C62.0117 23.5875 62.0428 23.3792 62.0428 23.1144V21.7837H62.4971V24.4932H62.068L62.0731 24.0935C62.0142 24.1964 61.941 24.2832 61.8535 24.3541C61.6802 24.4958 61.4699 24.5666 61.2225 24.5666C60.8372 24.5666 60.5747 24.4376 60.435 24.1795C60.3593 24.0412 60.3215 23.8565 60.3215 23.6255V21.7837H60.7859Z" fill="black"/>
<path d="M63.244 20.7641H63.6857V22.1126C63.785 21.9827 63.9036 21.884 64.0416 21.8166C64.1796 21.7474 64.3293 21.7128 64.4908 21.7128C64.8274 21.7128 65.0999 21.8292 65.3086 22.062C65.5189 22.293 65.6241 22.6346 65.6241 23.0866C65.6241 23.515 65.5206 23.8709 65.3136 24.1542C65.1067 24.4376 64.8198 24.5793 64.453 24.5793C64.2477 24.5793 64.0744 24.5295 63.933 24.43C63.8489 24.371 63.7589 24.2765 63.663 24.1466V24.4932H63.244V20.7641ZM64.4252 24.177C64.6709 24.177 64.8543 24.0792 64.9754 23.8835C65.0983 23.6879 65.1597 23.4298 65.1597 23.1094C65.1597 22.8243 65.0983 22.5882 64.9754 22.401C64.8543 22.2138 64.6751 22.1202 64.4378 22.1202C64.2309 22.1202 64.0491 22.1969 63.8927 22.3504C63.7379 22.5039 63.6605 22.7569 63.6605 23.1094C63.6605 23.364 63.6924 23.5707 63.7564 23.7292C63.8758 24.0277 64.0988 24.177 64.4252 24.177Z" fill="black"/>
<path d="M66.2271 21.7837H66.6764V22.1682C66.7841 22.035 66.8817 21.938 66.9692 21.8773C67.1189 21.7744 67.2889 21.723 67.479 21.723C67.6944 21.723 67.8677 21.7761 67.9989 21.8823C68.073 21.9431 68.1403 22.0324 68.2009 22.1505C68.3018 22.0055 68.4204 21.8984 68.5567 21.8292C68.693 21.7584 68.8461 21.723 69.0161 21.723C69.3795 21.723 69.6269 21.8545 69.7581 22.1176C69.8288 22.2593 69.8641 22.4499 69.8641 22.6894V24.4932H69.3922V22.611C69.3922 22.4305 69.3467 22.3065 69.2559 22.2391C69.1667 22.1716 69.0573 22.1379 68.9277 22.1379C68.7494 22.1379 68.5954 22.1977 68.4659 22.3175C68.338 22.4372 68.274 22.6371 68.274 22.9171V24.4932H67.8122V22.7248C67.8122 22.541 67.7903 22.4069 67.7465 22.3225C67.6776 22.1961 67.5488 22.1328 67.3604 22.1328C67.1888 22.1328 67.0323 22.1994 66.8909 22.3327C66.7513 22.4659 66.6814 22.7071 66.6814 23.0562V24.4932H66.2271V21.7837Z" fill="black"/>
<path d="M70.6035 21.7963H71.0653V24.4932H70.6035V21.7963ZM70.6035 20.7768H71.0653V21.2929H70.6035V20.7768Z" fill="black"/>
<path d="M72.0949 23.6432C72.1084 23.795 72.1463 23.9113 72.2085 23.9923C72.3229 24.139 72.5215 24.2124 72.8042 24.2124C72.9724 24.2124 73.1205 24.1761 73.2484 24.1036C73.3763 24.0294 73.4402 23.9156 73.4402 23.7621C73.4402 23.6457 73.3889 23.5572 73.2862 23.4964C73.2206 23.4593 73.091 23.4163 72.8975 23.3674L72.5366 23.2763C72.3061 23.219 72.1362 23.1549 72.0268 23.0841C71.8316 22.9609 71.734 22.7906 71.734 22.573C71.734 22.3166 71.8257 22.1092 72.0091 21.9506C72.1942 21.7921 72.4424 21.7128 72.7537 21.7128C73.1609 21.7128 73.4545 21.8326 73.6345 22.0721C73.7473 22.2239 73.802 22.3875 73.7986 22.5629H73.3695C73.3611 22.46 73.3249 22.3664 73.261 22.2821C73.1567 22.1623 72.9758 22.1024 72.7183 22.1024C72.5467 22.1024 72.4163 22.1353 72.3271 22.2011C72.2396 22.2669 72.1959 22.3538 72.1959 22.4617C72.1959 22.5798 72.2539 22.6742 72.37 22.745C72.4373 22.7872 72.5366 22.8243 72.6679 22.8564L72.9682 22.9297C73.2946 23.009 73.5134 23.0857 73.6244 23.16C73.8011 23.2763 73.8895 23.4593 73.8895 23.709C73.8895 23.9501 73.7978 24.1584 73.6143 24.3338C73.4326 24.5093 73.155 24.597 72.7814 24.597C72.3793 24.597 72.0941 24.5059 71.9258 24.3237C71.7592 24.1399 71.6701 23.913 71.6583 23.6432H72.0949Z" fill="black"/>
<path d="M74.7499 23.6432C74.7634 23.795 74.8013 23.9113 74.8635 23.9923C74.9779 24.139 75.1765 24.2124 75.4592 24.2124C75.6274 24.2124 75.7755 24.1761 75.9034 24.1036C76.0313 24.0294 76.0952 23.9156 76.0952 23.7621C76.0952 23.6457 76.0439 23.5572 75.9412 23.4964C75.8756 23.4593 75.7461 23.4163 75.5525 23.3674L75.1916 23.2763C74.9611 23.219 74.7912 23.1549 74.6818 23.0841C74.4866 22.9609 74.389 22.7906 74.389 22.573C74.389 22.3166 74.4807 22.1092 74.6641 21.9506C74.8492 21.7921 75.0974 21.7128 75.4087 21.7128C75.8159 21.7128 76.1095 21.8326 76.2895 22.0721C76.4023 22.2239 76.457 22.3875 76.4536 22.5629H76.0245C76.0161 22.46 75.9799 22.3664 75.916 22.2821C75.8117 22.1623 75.6308 22.1024 75.3733 22.1024C75.2017 22.1024 75.0713 22.1353 74.9821 22.2011C74.8946 22.2669 74.8509 22.3538 74.8509 22.4617C74.8509 22.5798 74.9089 22.6742 75.025 22.745C75.0924 22.7872 75.1916 22.8243 75.3229 22.8564L75.6232 22.9297C75.9496 23.009 76.1684 23.0857 76.2794 23.16C76.4561 23.2763 76.5445 23.4593 76.5445 23.709C76.5445 23.9501 76.4528 24.1584 76.2693 24.3338C76.0876 24.5093 75.81 24.597 75.4364 24.597C75.0343 24.597 74.7491 24.5059 74.5808 24.3237C74.4142 24.1399 74.3251 23.913 74.3133 23.6432H74.7499Z" fill="black"/>
<path d="M77.1349 21.7963H77.5968V24.4932H77.1349V21.7963ZM77.1349 20.7768H77.5968V21.2929H77.1349V20.7768Z" fill="black"/>
<path d="M79.429 24.1998C79.7302 24.1998 79.9363 24.0859 80.0473 23.8582C80.1601 23.6288 80.2164 23.3742 80.2164 23.0942C80.2164 22.8412 80.176 22.6354 80.0953 22.4769C79.9674 22.2273 79.747 22.1024 79.434 22.1024C79.1564 22.1024 78.9545 22.2087 78.8283 22.4212C78.7021 22.6337 78.639 22.8901 78.639 23.1903C78.639 23.4787 78.7021 23.7191 78.8283 23.9113C78.9545 24.1036 79.1547 24.1998 79.429 24.1998ZM79.4466 21.7052C79.7949 21.7052 80.0894 21.8216 80.33 22.0544C80.5706 22.2871 80.6909 22.6295 80.6909 23.0815C80.6909 23.5184 80.5849 23.8793 80.3729 24.1643C80.1609 24.4494 79.832 24.5919 79.3861 24.5919C79.0142 24.5919 78.7189 24.4662 78.5001 24.2149C78.2814 23.9619 78.172 23.6229 78.172 23.1979C78.172 22.7425 78.2873 22.3799 78.5178 22.11C78.7483 21.8402 79.0579 21.7052 79.4466 21.7052Z" fill="black"/>
<path d="M81.3041 21.7837H81.7357V22.1682C81.8635 22.0097 81.999 21.8958 82.142 21.8267C82.285 21.7575 82.444 21.723 82.619 21.723C83.0027 21.723 83.2618 21.857 83.3964 22.1252C83.4705 22.2719 83.5075 22.4819 83.5075 22.7552V24.4932H83.0456V22.7855C83.0456 22.6202 83.0212 22.487 82.9724 22.3858C82.8916 22.2171 82.7452 22.1328 82.5332 22.1328C82.4255 22.1328 82.3372 22.1438 82.2682 22.1657C82.1437 22.2028 82.0343 22.277 81.9401 22.3883C81.8644 22.4777 81.8147 22.5705 81.7912 22.6666C81.7693 22.7611 81.7584 22.8968 81.7584 23.0739V24.4932H81.3041V21.7837Z" fill="black"/>
<path d="M21.4375 65.8893L21.5926 65.5879C21.8557 65.847 22.3256 66.0354 22.8096 66.0354C23.5004 66.0354 23.8012 65.7433 23.8012 65.3806C23.8012 64.3632 21.5268 64.9897 21.5268 63.619C21.5268 63.0726 21.9497 62.6016 22.8895 62.6016C23.3078 62.6016 23.7401 62.724 24.0361 62.9313L23.9045 63.2422C23.5897 63.0349 23.2185 62.936 22.8895 62.936C22.2129 62.936 21.9121 63.2375 21.9121 63.6096C21.9121 64.627 24.1865 64.0099 24.1865 65.3618C24.1865 65.9082 23.7542 66.3745 22.8096 66.3745C22.2551 66.3745 21.71 66.1767 21.4375 65.8941V65.8893Z" fill="#7B4DD3"/>
<path d="M26.4238 66.1702C26.2782 66.3021 26.0526 66.3681 25.8364 66.3681C25.3148 66.3681 25.0235 66.0713 25.0235 65.5579V63.8763H24.5254V63.5608H25.0235V62.9531H25.3994V63.5608H26.2453V63.8763H25.3994V65.5391C25.3994 65.8688 25.5686 66.0478 25.8787 66.0478C26.0338 66.0478 26.1842 66.0007 26.2923 65.9065L26.4238 66.175V66.1702Z" fill="#7B4DD3"/>
<path d="M29.416 65.0644H27.0947C27.137 65.6485 27.5787 66.0347 28.1849 66.0347C28.5232 66.0347 28.824 65.9122 29.0354 65.672L29.2469 65.917C28.9978 66.2137 28.6125 66.3739 28.1755 66.3739C27.3108 66.3739 26.7188 65.7804 26.7188 64.9561C26.7188 64.1318 27.292 63.543 28.0768 63.543C28.8616 63.543 29.4207 64.1176 29.4207 64.9561C29.4207 64.989 29.416 65.0314 29.416 65.0738V65.0644ZM27.0947 64.7818H29.0636C29.0166 64.2354 28.6219 63.8538 28.0768 63.8538C27.5317 63.8538 27.1417 64.2354 27.0947 64.7818Z" fill="#7B4DD3"/>
<path d="M33.0023 64.9482C33.0023 65.7961 32.4102 66.366 31.6207 66.366C31.179 66.366 30.7984 66.1776 30.5634 65.8149V67.3646H30.1875V63.554H30.5446V64.1051C30.7702 63.733 31.1555 63.5352 31.616 63.5352C32.4055 63.5352 32.9976 64.1051 32.9976 64.9482H33.0023ZM32.6263 64.9482C32.6263 64.3029 32.1799 63.8649 31.5925 63.8649C31.0052 63.8649 30.5587 64.3029 30.5587 64.9482C30.5587 65.5936 31.0005 66.0316 31.5925 66.0316C32.1846 66.0316 32.6263 65.5983 32.6263 64.9482Z" fill="#7B4DD3"/>
<path d="M37.3449 65.2753C37.3449 65.8923 36.8985 66.3681 36.0056 66.3681C35.4746 66.3681 34.9624 66.1844 34.6758 65.8923L34.859 65.5909C35.0987 65.8405 35.5263 66.0195 36.0056 66.0195C36.6165 66.0195 36.9549 65.7322 36.9549 65.2753C36.9549 64.8184 36.6447 64.5405 35.9586 64.5405H35.6955V64.2579L36.7199 62.972H34.8309V62.6328H37.2039V62.9013L36.1607 64.2202C36.9502 64.2626 37.3496 64.6818 37.3496 65.2706L37.3449 65.2753Z" fill="#7B4DD3"/>
<path d="M151.647 113.02H132.554C132.089 113.02 131.713 113.397 131.713 113.863V123.702C131.713 124.168 132.089 124.546 132.554 124.546H151.647C152.111 124.546 152.488 124.168 152.488 123.702V113.863C152.488 113.397 152.111 113.02 151.647 113.02Z" fill="#E0E0E0"/>
<path d="M140.955 119.256C140.955 119.789 140.561 120.095 139.781 120.095H138.338V116.953H139.691C140.391 116.953 140.791 117.25 140.791 117.759C140.791 118.117 140.598 118.357 140.312 118.47C140.716 118.559 140.955 118.823 140.955 119.252V119.256ZM138.667 117.231V118.371H139.663C140.166 118.371 140.457 118.178 140.457 117.801C140.457 117.424 140.166 117.231 139.663 117.231H138.667ZM140.622 119.233C140.622 118.823 140.321 118.644 139.771 118.644H138.667V119.822H139.771C140.321 119.822 140.622 119.643 140.622 119.228V119.233Z" fill="white"/>
<path d="M143.423 118.633V120.093H143.117V119.725C142.976 119.966 142.694 120.116 142.309 120.116C141.778 120.116 141.449 119.838 141.449 119.429C141.449 119.066 141.684 118.76 142.356 118.76H143.103V118.618C143.103 118.213 142.873 117.997 142.436 117.997C142.131 117.997 141.844 118.105 141.651 118.275L141.51 118.039C141.745 117.837 142.098 117.719 142.469 117.719C143.075 117.719 143.423 118.025 143.423 118.633ZM143.103 119.386V119H142.366C141.91 119 141.759 119.179 141.759 119.424C141.759 119.697 141.98 119.867 142.356 119.867C142.732 119.867 142.976 119.697 143.103 119.386Z" fill="white"/>
<path d="M144.057 118.915C144.057 118.209 144.569 117.719 145.269 117.719C145.668 117.719 146.002 117.874 146.19 118.185L145.955 118.345C145.795 118.11 145.546 117.997 145.269 117.997C144.757 117.997 144.376 118.364 144.376 118.915C144.376 119.466 144.752 119.834 145.269 119.834C145.542 119.834 145.791 119.725 145.955 119.49L146.19 119.65C146.002 119.956 145.668 120.116 145.269 120.116C144.564 120.116 144.057 119.617 144.057 118.915Z" fill="white"/>
<path d="M147.647 118.912L147.093 119.425V120.099H146.773V116.773H147.093V119.03L148.498 117.744H148.893L147.887 118.709L148.987 120.104H148.597L147.647 118.921V118.912Z" fill="white"/>
<path d="M135.81 117.809C135.839 117.837 135.458 118.233 134.964 118.689V118.586C135.458 119.038 135.839 119.424 135.81 119.457C135.782 119.485 135.359 119.146 134.866 118.694L134.805 118.642L134.866 118.586C135.359 118.129 135.782 117.78 135.81 117.813V117.809Z" fill="white"/>
<path d="M137.158 118.638C137.158 118.68 136.655 118.713 136.035 118.713C135.415 118.713 134.912 118.68 134.912 118.638C134.912 118.595 135.415 118.562 136.035 118.562C136.655 118.562 137.158 118.595 137.158 118.638Z" fill="white"/>
<path d="M176.02 113.02H156.927C156.463 113.02 156.086 113.397 156.086 113.863V123.702C156.086 124.168 156.463 124.546 156.927 124.546H176.02C176.484 124.546 176.861 124.168 176.861 123.702V113.863C176.861 113.397 176.484 113.02 176.02 113.02Z" fill="#7B4DD3"/>
<path d="M162.613 116.957V120.099H162.34L160.329 117.551V120.099H160V116.957H160.273L162.288 119.505V116.957H162.613Z" fill="white"/>
<path d="M165.615 119.014H163.646C163.683 119.509 164.059 119.834 164.571 119.834C164.858 119.834 165.112 119.73 165.29 119.523L165.469 119.73C165.258 119.98 164.933 120.116 164.562 120.116C163.829 120.116 163.326 119.612 163.326 118.915C163.326 118.218 163.815 117.719 164.477 117.719C165.14 117.719 165.619 118.209 165.619 118.915C165.619 118.943 165.619 118.976 165.619 119.014H165.615ZM163.646 118.779H165.314C165.272 118.317 164.938 117.992 164.477 117.992C164.017 117.992 163.683 118.317 163.646 118.779Z" fill="white"/>
<path d="M167.698 120.094L166.951 119.11L166.199 120.094H165.842L166.772 118.884L165.889 117.734H166.246L166.951 118.658L167.656 117.734H168.003L167.12 118.884L168.06 120.094H167.698Z" fill="white"/>
<path d="M169.826 119.952C169.699 120.065 169.511 120.116 169.328 120.116C168.886 120.116 168.637 119.867 168.637 119.429V118.001H168.219V117.733H168.637V117.215H168.957V117.733H169.671V118.001H168.957V119.41C168.957 119.688 169.097 119.838 169.365 119.838C169.497 119.838 169.624 119.796 169.713 119.716L169.826 119.947V119.952Z" fill="white"/>
<path d="M171.992 119.452C171.964 119.423 172.344 119.028 172.838 118.571V118.674C172.339 118.222 171.964 117.836 171.992 117.803C172.02 117.77 172.443 118.114 172.936 118.566L172.997 118.618L172.936 118.674C172.443 119.131 172.02 119.48 171.992 119.447V119.452Z" fill="white"/>
<path d="M170.648 118.622C170.648 118.58 171.151 118.547 171.772 118.547C172.392 118.547 172.895 118.58 172.895 118.622C172.895 118.665 172.392 118.698 171.772 118.698C171.151 118.698 170.648 118.665 170.648 118.622Z" fill="white"/>
<path d="M25.8173 50.9769C28.371 50.9769 30.4412 48.9017 30.4412 46.3419C30.4412 43.7822 28.371 41.707 25.8173 41.707C23.2636 41.707 21.1934 43.7822 21.1934 46.3419C21.1934 48.9017 23.2636 50.9769 25.8173 50.9769Z" fill="#7B4DD3"/>
<path d="M120.087 46.6091C120.054 46.6091 120.077 46.1946 119.894 45.488C119.711 44.7956 119.246 43.7782 118.207 42.9916C117.69 42.61 117.042 42.285 116.295 42.1531C115.552 42.0307 114.716 42.0542 113.922 42.3604C113.522 42.5017 113.137 42.7137 112.78 42.9774C112.423 43.2365 112.098 43.5615 111.83 43.9383C111.276 44.6779 110.966 45.6293 110.956 46.6091C110.966 47.5888 111.276 48.5403 111.83 49.2798C112.098 49.6566 112.423 49.9816 112.784 50.2407C113.137 50.5092 113.522 50.7212 113.926 50.8577C114.72 51.1639 115.557 51.1875 116.299 51.065C117.047 50.9378 117.695 50.6081 118.212 50.2266C119.255 49.44 119.72 48.4225 119.899 47.7301C120.082 47.0236 120.059 46.6091 120.092 46.6091C120.092 46.6091 120.153 47.0236 119.993 47.7537C119.838 48.4696 119.382 49.5294 118.315 50.3632C117.789 50.7683 117.117 51.1168 116.337 51.2628C115.562 51.4041 114.688 51.3853 113.851 51.0697C113.428 50.9237 113.024 50.707 112.648 50.4291C112.268 50.1559 111.924 49.8168 111.643 49.4211C111.055 48.6439 110.726 47.6406 110.717 46.6091C110.726 45.5775 111.06 44.5742 111.643 43.797C111.924 43.4014 112.272 43.0622 112.648 42.789C113.024 42.5111 113.428 42.2897 113.851 42.1484C114.688 41.8328 115.566 41.814 116.337 41.9553C117.117 42.1013 117.789 42.4499 118.315 42.855C119.382 43.6887 119.833 44.7532 119.993 45.4645C120.153 46.1946 120.092 46.6091 120.092 46.6091H120.087Z" fill="#263238"/>
<path d="M164.884 46.0778C164.851 46.0778 164.874 45.6633 164.691 44.9568C164.508 44.2644 164.043 43.2469 163.004 42.4603C162.487 42.0788 161.839 41.7538 161.092 41.6219C160.349 41.4994 159.513 41.523 158.718 41.8291C158.319 41.9705 157.934 42.1824 157.577 42.4462C157.219 42.7053 156.895 43.0303 156.627 43.4071C156.073 44.1466 155.763 45.0981 155.753 46.0778C155.763 47.0576 156.073 48.009 156.627 48.7486C156.895 49.1254 157.219 49.4504 157.581 49.7095C157.934 49.9779 158.319 50.1852 158.723 50.3265C159.517 50.6327 160.354 50.6562 161.096 50.5338C161.843 50.4066 162.492 50.0769 163.009 49.6953C164.052 48.9087 164.517 47.8913 164.696 47.1989C164.879 46.4923 164.856 46.0778 164.888 46.0778C164.888 46.0778 164.95 46.4923 164.79 47.2224C164.635 47.9384 164.179 48.9982 163.112 49.8319C162.586 50.237 161.914 50.5856 161.134 50.7316C160.358 50.8729 159.484 50.8541 158.648 50.5385C158.225 50.3924 157.821 50.1758 157.445 49.8979C157.069 49.6247 156.721 49.2855 156.439 48.8899C155.852 48.1127 155.523 47.1094 155.514 46.0778C155.523 45.0463 155.852 44.043 156.439 43.2658C156.721 42.8701 157.069 42.531 157.445 42.2578C157.821 41.9799 158.225 41.7585 158.648 41.6172C159.484 41.3016 160.363 41.2828 161.134 41.4241C161.914 41.5701 162.586 41.9186 163.112 42.3237C164.179 43.1574 164.63 44.222 164.79 44.9332C164.95 45.6633 164.888 46.0778 164.888 46.0778H164.884Z" fill="#263238"/>
<path d="M27.7436 45.0898C27.7906 45.1369 26.9871 46.0696 25.9439 47.1718C25.7747 47.3461 25.6149 47.5156 25.4599 47.6805L25.3753 47.7653L25.2907 47.6852C24.4449 46.8609 23.8528 46.2344 23.8904 46.192C23.928 46.1497 24.5905 46.7102 25.4552 47.5156H25.286C25.4411 47.3555 25.6008 47.1859 25.7653 47.0069C26.8085 45.9047 27.692 45.0475 27.7436 45.0946V45.0898Z" fill="white"/>
<path d="M64.791 45.3984H31.3145V47.2826H64.791V45.3984Z" fill="#7B4DD3"/>
<path d="M70.5107 50.9769C73.0644 50.9769 75.1346 48.9017 75.1346 46.3419C75.1346 43.7822 73.0644 41.707 70.5107 41.707C67.9569 41.707 65.8867 43.7822 65.8867 46.3419C65.8867 48.9017 67.9569 50.9769 70.5107 50.9769Z" fill="#7B4DD3"/>
<path d="M72.437 45.0898C72.484 45.1369 71.6805 46.0696 70.6372 47.1718C70.4681 47.3461 70.3083 47.5156 70.1532 47.6805L70.0687 47.7653L69.9841 47.6852C69.1382 46.8609 68.5461 46.2344 68.5837 46.192C68.6213 46.1497 69.2839 46.7102 70.1485 47.5156H69.9794C70.1344 47.3555 70.2942 47.1859 70.4587 47.0069C71.5019 45.9047 72.3853 45.0475 72.437 45.0946V45.0898Z" fill="white"/>
<path d="M109.484 45.3984H76.0078V47.2826H109.484V45.3984Z" fill="#7B4DD3"/>
<path d="M154.875 46.0795C154.875 46.1454 147.38 46.202 138.137 46.202C128.894 46.202 121.398 46.1454 121.398 46.0795C121.398 46.0136 128.894 45.957 138.137 45.957C147.38 45.957 154.875 46.0136 154.875 46.0795Z" fill="#263238"/>
<path d="M186.419 31.3959C186.419 31.4618 145.565 31.5184 95.1812 31.5184C44.7972 31.5184 3.93359 31.4618 3.93359 31.3959C3.93359 31.33 44.7784 31.2734 95.1812 31.2734C145.584 31.2734 186.419 31.33 186.419 31.3959Z" fill="#E0E0E0"/>
<path d="M163.102 72.599C163.102 72.665 131.938 72.7215 93.4988 72.7215C55.0599 72.7215 23.8906 72.665 23.8906 72.599C23.8906 72.5331 55.0505 72.4766 93.4988 72.4766C131.947 72.4766 163.102 72.5331 163.102 72.599Z" fill="#263238"/>
<path d="M85.9578 78.1076C85.9578 78.1076 85.9015 78.1171 85.7981 78.1218C85.6806 78.1218 85.5255 78.1312 85.3282 78.1359C84.9005 78.1406 84.2943 78.15 83.519 78.1595C81.9354 78.1689 79.6657 78.183 76.8697 78.1971C71.2402 78.2066 63.4913 78.2207 54.9295 78.2348C46.363 78.2207 38.6141 78.2066 32.9846 78.1971C30.1886 78.183 27.9189 78.1689 26.3353 78.1595C25.56 78.15 24.9585 78.1406 24.5262 78.1359C24.3288 78.1312 24.1737 78.1265 24.0563 78.1218C23.9482 78.1218 23.8965 78.1124 23.8965 78.1076C23.8965 78.1029 23.9529 78.0982 24.0563 78.0935C24.1737 78.0935 24.3288 78.0841 24.5262 78.0794C24.9538 78.0747 25.56 78.0653 26.3353 78.0558C27.9189 78.0464 30.1886 78.0323 32.9846 78.0182C38.6141 78.0087 46.363 77.9946 54.9295 77.9805C63.4913 77.9946 71.2402 78.0087 76.8697 78.0182C79.6657 78.0323 81.9354 78.0464 83.519 78.0558C84.2943 78.0653 84.9005 78.0747 85.3282 78.0794C85.5255 78.0841 85.6806 78.0888 85.7981 78.0935C85.9062 78.0935 85.9578 78.1029 85.9578 78.1076Z" fill="#263238"/>
<path d="M148.883 86.1186C148.883 86.1845 123.433 86.241 92.0426 86.241C60.6524 86.241 35.1973 86.1845 35.1973 86.1186C35.1973 86.0526 60.643 85.9961 92.0426 85.9961C123.442 85.9961 148.883 86.0526 148.883 86.1186Z" fill="#263238"/>
<path d="M28.0679 87.9366C26.6957 87.9366 25.582 86.8203 25.582 85.4449C25.582 84.0695 26.6957 82.9531 28.0679 82.9531C29.44 82.9531 30.5537 84.0695 30.5537 85.4449C30.5537 86.8203 29.44 87.9366 28.0679 87.9366ZM28.0679 83.4289C26.9589 83.4289 26.0519 84.3332 26.0519 85.4496C26.0519 86.5659 26.9542 87.4703 28.0679 87.4703C29.1816 87.4703 30.0838 86.5659 30.0838 85.4496C30.0838 84.3332 29.1816 83.4289 28.0679 83.4289Z" fill="#E0E0E0"/>
<path d="M125.828 92.2248C125.828 92.2248 125.748 92.2343 125.593 92.239C125.429 92.239 125.198 92.2437 124.907 92.2531C124.292 92.2578 123.403 92.2672 122.266 92.2766C119.964 92.2861 116.646 92.3002 112.553 92.3143C104.344 92.3237 93.0188 92.3379 80.5145 92.352C68.0007 92.3379 56.6758 92.3237 48.4664 92.3143C44.3735 92.3002 41.0606 92.2861 38.7533 92.2766C37.6162 92.2672 36.728 92.2578 36.1124 92.2531C35.8211 92.2484 35.5908 92.2437 35.4264 92.239C35.2713 92.239 35.1914 92.2248 35.1914 92.2248C35.1914 92.2248 35.2713 92.2154 35.4264 92.2107C35.5908 92.2107 35.8211 92.206 36.1124 92.1966C36.728 92.1919 37.6162 92.1824 38.7533 92.173C41.0559 92.1636 44.3735 92.1495 48.4664 92.1353C56.6758 92.1259 68.0007 92.1118 80.5145 92.0977C93.0235 92.1118 104.344 92.1259 112.553 92.1353C116.646 92.1495 119.959 92.1636 122.266 92.173C123.403 92.1824 124.292 92.1919 124.907 92.1966C125.203 92.2013 125.429 92.206 125.593 92.2107C125.748 92.2107 125.828 92.2248 125.828 92.2248Z" fill="#263238"/>
<path d="M28.0679 94.71C26.6957 94.71 25.582 93.5937 25.582 92.2183C25.582 90.8429 26.6957 89.7266 28.0679 89.7266C29.44 89.7266 30.5537 90.8429 30.5537 92.2183C30.5537 93.5937 29.44 94.71 28.0679 94.71ZM28.0679 90.2023C26.9589 90.2023 26.0519 91.1067 26.0519 92.223C26.0519 93.3393 26.9542 94.2437 28.0679 94.2437C29.1816 94.2437 30.0838 93.3393 30.0838 92.223C30.0838 91.1067 29.1816 90.2023 28.0679 90.2023Z" fill="#E0E0E0"/>
<path d="M28.0676 93.32C28.6722 93.32 29.1624 92.8286 29.1624 92.2225C29.1624 91.6164 28.6722 91.125 28.0676 91.125C27.4629 91.125 26.9727 91.6164 26.9727 92.2225C26.9727 92.8286 27.4629 93.32 28.0676 93.32Z" fill="#7B4DD3"/>
<path d="M148.883 99.6654C148.883 99.7314 123.433 99.7879 92.0426 99.7879C60.6524 99.7879 35.1973 99.7314 35.1973 99.6654C35.1973 99.5995 60.643 99.543 92.0426 99.543C123.442 99.543 148.883 99.5995 148.883 99.6654Z" fill="#263238"/>
<path d="M28.0679 101.487C26.6957 101.487 25.582 100.371 25.582 98.9956C25.582 97.6202 26.6957 96.5039 28.0679 96.5039C29.44 96.5039 30.5537 97.6202 30.5537 98.9956C30.5537 100.371 29.44 101.487 28.0679 101.487ZM28.0679 96.9796C26.9589 96.9796 26.0519 97.884 26.0519 99.0004C26.0519 100.117 26.9542 101.021 28.0679 101.021C29.1816 101.021 30.0838 100.117 30.0838 99.0004C30.0838 97.884 29.1816 96.9796 28.0679 96.9796Z" fill="#E0E0E0"/>
<path d="M69.4027 100.586C67.1377 101.594 66.6208 103.44 66.5879 104.528C66.555 105.617 66.6067 106.898 65.7468 107.567C64.9385 108.193 63.7543 107.91 62.7957 108.268C61.5739 108.721 60.9724 110.091 60.7046 111.368C60.4367 112.644 60.3522 114.01 59.6426 115.103C58.9565 116.158 57.7958 116.78 56.7526 117.477C55.7094 118.174 54.6662 119.097 54.4736 120.341C54.1963 122.121 55.7611 123.94 55.1173 125.626C54.7038 126.709 53.5384 127.265 52.6644 128.028C51.5272 129.012 50.8176 130.468 50.7331 131.971C50.6485 133.473 51.203 134.999 52.2227 136.101C53.045 136.987 54.2386 137.613 55.4369 137.444C56.5976 137.279 57.5233 136.426 58.402 135.645C61.6068 132.785 65.197 130.369 69.0455 128.476C70.0465 127.986 71.132 127.463 71.6489 126.474C71.9073 125.974 71.9966 125.404 72.0765 124.849C73.1573 117.43 74.2334 110.016 75.3142 102.597" fill="#263238"/>
<path d="M80.384 93.5354C79.947 91.901 80.9009 90.1252 82.3154 89.1973C83.7251 88.2693 85.492 88.0527 87.179 88.0998C88.9129 88.1516 90.8396 88.5802 91.7982 90.031C92.3997 90.9448 92.5031 92.1035 93.0341 93.055C94.5425 95.7399 98.7341 95.7917 100.369 98.3965C101.925 100.874 100.337 104.119 100.708 107.026C100.957 108.971 102.08 110.671 102.959 112.428C103.837 114.181 104.486 116.263 103.743 118.081C102.949 120.021 100.698 121.279 100.473 123.366C100.196 125.956 103.255 128.321 102.315 130.747C101.619 132.546 99.0114 133.229 98.7294 135.137C98.5791 136.159 99.1852 137.12 99.4578 138.114C100.153 140.638 98.5227 143.413 96.1872 144.581C93.8517 145.749 91.0229 145.561 88.5511 144.713C84.6085 143.356 81.2581 140.342 79.4865 136.559C77.7149 132.777 77.5458 128.269 79.026 124.36" fill="#263238"/>
<path d="M53.9427 118.699C53.9427 118.699 53.8816 118.506 53.5761 118.365C53.4257 118.299 53.219 118.261 52.984 118.318C52.7538 118.365 52.5 118.534 52.406 118.827C52.3027 119.114 52.3496 119.486 52.5611 119.797C52.7632 120.108 53.1673 120.306 53.6043 120.296C54.0413 120.296 54.5018 120.098 54.8449 119.736C55.1973 119.378 55.4417 118.888 55.5967 118.351C55.9257 117.263 55.8317 115.996 55.9492 114.644C56.0197 113.966 56.1653 113.259 56.5037 112.604C56.6728 112.275 56.8937 111.964 57.171 111.7C57.4529 111.441 57.8006 111.238 58.1672 111.106C58.9096 110.847 59.6991 110.814 60.4744 110.711C61.2404 110.612 62.0533 110.395 62.5374 109.764C63.0355 109.147 63.0824 108.275 63.0214 107.446C62.9697 106.608 62.7911 105.751 62.8522 104.846C62.9274 103.951 63.2234 103.089 63.7168 102.369C64.2008 101.643 64.8916 101.059 65.6999 100.777C66.5222 100.489 67.3728 100.602 68.1481 100.664C68.9188 100.72 69.7317 100.753 70.305 100.301C70.8924 99.8676 71.0334 99.0951 71.0757 98.4027C71.118 97.6962 71.1039 96.9802 71.2824 96.3114C71.6302 94.9736 72.4525 93.9044 73.3876 93.2214C74.3275 92.529 75.3942 92.2464 76.3105 92.2323C77.2315 92.2087 78.0163 92.4207 78.6037 92.675C79.2005 92.9247 79.6093 93.2261 79.8677 93.4428C80.1262 93.6595 80.239 93.8008 80.239 93.8008C80.2296 93.8102 80.1027 93.6877 79.8348 93.4805C79.5717 93.2779 79.1582 92.9953 78.5661 92.7645C77.9787 92.529 77.2127 92.3359 76.3105 92.3736C75.4177 92.4018 74.3932 92.6892 73.4863 93.3674C72.5888 94.0363 71.804 95.082 71.4751 96.3679C71.3059 97.0085 71.3247 97.7009 71.2871 98.4263C71.2636 98.789 71.226 99.1611 71.1039 99.5285C70.9864 99.8959 70.7608 100.244 70.4413 100.489C70.1264 100.744 69.7223 100.866 69.3229 100.913C68.9235 100.96 68.524 100.937 68.1293 100.913C67.3399 100.852 66.5316 100.753 65.775 101.022C65.0232 101.285 64.37 101.832 63.9142 102.524C63.4443 103.207 63.1623 104.036 63.0918 104.884C63.0355 105.732 63.2046 106.589 63.261 107.446C63.2892 107.875 63.2986 108.308 63.2281 108.737C63.1623 109.166 62.9979 109.59 62.7253 109.929C62.4575 110.273 62.0909 110.522 61.6962 110.678C61.3062 110.833 60.9021 110.909 60.5026 110.96C59.7132 111.064 58.9378 111.097 58.2377 111.337C57.8946 111.46 57.5798 111.639 57.3166 111.879C57.0582 112.119 56.8514 112.411 56.6869 112.717C56.3627 113.339 56.217 114.022 56.1418 114.681C56.015 116.005 56.0995 117.291 55.7518 118.417C55.5873 118.973 55.3242 119.486 54.9436 119.863C54.5723 120.244 54.0648 120.456 53.5949 120.452C53.1203 120.456 52.6739 120.23 52.4577 119.882C52.2369 119.538 52.1899 119.133 52.3121 118.812C52.4248 118.487 52.7162 118.304 52.9652 118.261C53.2143 118.209 53.4398 118.261 53.5902 118.332C53.9051 118.497 53.9333 118.718 53.938 118.709L53.9427 118.699Z" fill="#263238"/>
<path d="M105.289 124.533C105.289 124.533 105.313 124.571 105.346 124.651C105.378 124.731 105.416 124.863 105.411 125.032C105.411 125.371 105.2 125.908 104.627 126.257C104.349 126.431 103.973 126.549 103.565 126.478C103.17 126.403 102.766 126.167 102.47 125.795C102.174 125.433 101.962 124.957 101.901 124.425C101.84 123.892 101.948 123.322 102.169 122.781C102.611 121.678 103.527 120.755 104.378 119.728C104.8 119.21 105.195 118.636 105.449 117.976C105.707 117.321 105.825 116.587 105.815 115.842C105.797 115.098 105.637 114.335 105.313 113.624C104.998 112.908 104.49 112.281 103.894 111.726C103.297 111.165 102.629 110.647 102.028 110.021C101.431 109.403 100.924 108.598 100.834 107.679C100.74 106.766 100.994 105.894 101.234 105.079C101.488 104.26 101.727 103.464 101.788 102.649C101.939 101.033 101.525 99.3941 100.538 98.2684C100.054 97.7031 99.4576 97.2651 98.8091 96.9966C98.1606 96.714 97.4698 96.6763 96.7979 96.6904C96.1306 96.6951 95.4445 96.714 94.8336 96.4455C94.2227 96.1817 93.8139 95.6494 93.5743 95.1219C93.0856 94.0385 93.1043 92.9599 92.8929 92.0837C92.7942 91.641 92.6626 91.2406 92.47 90.9062C92.2867 90.5717 92.0282 90.3221 91.7745 90.1384C91.2529 89.7757 90.7313 89.7192 90.407 89.7804C90.0828 89.8464 89.9371 89.9688 89.9277 89.9547C89.9277 89.9547 90.0593 89.8181 90.393 89.7333C90.7219 89.6532 91.2717 89.6956 91.8215 90.063C92.094 90.2467 92.3666 90.5011 92.5639 90.8497C92.7707 91.1935 92.9117 91.6033 93.0198 92.0508C93.2453 92.941 93.2453 94.015 93.7246 95.0465C93.9596 95.5505 94.3449 96.0357 94.8994 96.2712C95.4586 96.5114 96.1118 96.4973 96.7838 96.4831C97.4557 96.4643 98.1935 96.4973 98.8749 96.794C99.5562 97.0719 100.186 97.5335 100.693 98.1176C101.732 99.2952 102.164 101 102.009 102.668C101.943 103.511 101.694 104.335 101.445 105.15C101.206 105.96 100.966 106.803 101.055 107.651C101.14 108.499 101.6 109.248 102.183 109.851C102.761 110.459 103.428 110.977 104.035 111.547C104.645 112.112 105.181 112.776 105.505 113.52C105.839 114.26 106.003 115.056 106.022 115.828C106.032 116.601 105.905 117.364 105.632 118.047C105.364 118.735 104.951 119.328 104.519 119.851C103.644 120.887 102.747 121.787 102.31 122.842C102.089 123.36 101.986 123.902 102.037 124.401C102.089 124.9 102.286 125.357 102.559 125.701C102.832 126.05 103.203 126.276 103.569 126.356C103.936 126.426 104.293 126.328 104.556 126.167C105.106 125.847 105.327 125.343 105.341 125.023C105.355 124.688 105.247 124.528 105.266 124.523L105.289 124.533Z" fill="#263238"/>
<path d="M68.7025 101.16C67.8096 101.405 67.3256 102.423 67.3256 103.35C67.3256 104.278 67.6828 105.159 67.9271 106.054C68.1715 106.949 68.2889 107.952 67.8425 108.763C66.9497 110.392 64.4451 110.308 63.2374 111.721C61.7008 113.515 63.134 116.483 62.025 118.569C61.0147 120.472 58.1905 121.066 57.6313 123.148C57.2742 124.471 58.0214 125.913 57.6501 127.232C57.2272 128.729 55.5731 129.488 54.6991 130.774C53.8203 132.069 53.825 133.831 54.4312 135.272C54.9669 136.558 55.9161 137.622 56.9875 138.517C57.1238 138.63 57.2554 138.739 57.3964 138.847L73.5802 135.074L76.8273 105.065L68.6978 101.16H68.7025Z" fill="#263238"/>
<path d="M77.5797 95.6023C76.3627 95.4752 75.249 96.2995 75.0187 97.5053L69.6805 129.017C68.9474 132.715 73.8768 135.951 77.8335 136.709C81.8278 137.477 82.3775 135.55 83.1811 132.051C84.525 126.21 84.9903 124.01 84.9856 124.043C84.9856 124.043 90.1922 124.283 92.631 117.929C93.8434 114.768 94.8208 109.375 95.4787 104.933C96.0708 100.934 94.4919 95.5411 90.4835 95.1172L77.5797 95.6023Z" fill="#B78876"/>
<path d="M93.1189 108.876C93.039 109.324 92.5973 109.63 92.1274 109.554C91.6575 109.479 91.3427 109.06 91.4225 108.608C91.5024 108.16 91.9441 107.854 92.4141 107.929C92.884 108.005 93.1988 108.429 93.1189 108.876Z" fill="#263238"/>
<path d="M93.7259 108.028C93.5991 108.117 93.0634 107.505 92.1564 107.316C91.2542 107.114 90.4929 107.439 90.4178 107.307C90.3802 107.246 90.5305 107.071 90.8642 106.921C91.1931 106.77 91.7241 106.671 92.288 106.793C92.8519 106.916 93.2795 107.227 93.5098 107.5C93.7447 107.773 93.7964 107.995 93.7306 108.032L93.7259 108.028Z" fill="#263238"/>
<path d="M84.1013 106.931C84.0215 107.378 83.5797 107.684 83.1098 107.609C82.6399 107.534 82.3251 107.115 82.405 106.662C82.4848 106.215 82.9266 105.909 83.3965 105.984C83.8664 106.059 84.1812 106.483 84.1013 106.931Z" fill="#263238"/>
<path d="M84.7925 105.996C84.6656 106.086 84.1252 105.473 83.223 105.285C82.3207 105.082 81.5595 105.407 81.4843 105.276C81.4467 105.214 81.5924 105.04 81.9307 104.889C82.2597 104.739 82.7907 104.64 83.3545 104.762C83.9184 104.885 84.3461 105.196 84.5763 105.469C84.8066 105.742 84.863 105.963 84.7972 106.001L84.7925 105.996Z" fill="#263238"/>
<path d="M86.6435 113.173C86.6482 113.121 87.2356 113.145 88.1707 113.22C88.4057 113.244 88.6359 113.248 88.7064 113.098C88.7957 112.942 88.7534 112.674 88.697 112.377C88.5983 111.769 88.4949 111.133 88.3869 110.465C87.9733 107.751 87.7243 105.538 87.8324 105.524C87.9404 105.509 88.3681 107.695 88.7816 110.408C88.8803 111.077 88.9696 111.713 89.0588 112.32C89.0917 112.603 89.1763 112.933 88.9837 113.253C88.885 113.413 88.6876 113.503 88.5325 113.512C88.3728 113.526 88.2459 113.503 88.1284 113.484C87.2027 113.338 86.6294 113.22 86.6388 113.168L86.6435 113.173Z" fill="#263238"/>
<path d="M84.9857 124.042C84.9857 124.042 80.5122 123.382 76.7012 119.816C76.7012 119.816 77.9276 124.932 84.6239 125.718L84.9857 124.042Z" fill="#AA6550"/>
<path d="M85.7987 115.275C85.5638 114.776 85.0469 114.413 84.4642 114.357C84.0601 114.314 83.623 114.418 83.3176 114.691C83.0121 114.96 82.8618 115.407 83.0168 115.756C83.186 116.151 83.6794 116.34 84.1399 116.312C84.6005 116.279 85.0328 116.076 85.4463 115.869C85.5591 115.812 85.6766 115.751 85.7611 115.657C85.8457 115.563 85.888 115.426 85.8316 115.318" fill="#AA6550"/>
<path d="M83.8492 113.234C83.9996 113.258 83.7928 114.242 84.4836 115.123C85.1743 116.004 86.2457 116.117 86.2222 116.258C86.2222 116.324 85.9497 116.4 85.5033 116.32C85.0663 116.24 84.4648 115.966 84.0372 115.429C83.6142 114.892 83.5156 114.271 83.5672 113.861C83.6189 113.442 83.7787 113.22 83.8445 113.239L83.8492 113.234Z" fill="#263238"/>
<path d="M85.5351 104.241C85.3941 104.467 84.5154 104.157 83.4252 104.062C82.3397 103.94 81.414 104.072 81.32 103.817C81.2777 103.7 81.4797 103.497 81.8745 103.332C82.2692 103.167 82.866 103.059 83.5192 103.125C84.1723 103.191 84.7315 103.417 85.0887 103.657C85.4458 103.898 85.6009 104.133 85.5351 104.241Z" fill="#263238"/>
<path d="M93.9518 106.394C93.7497 106.568 93.1717 106.219 92.4246 106.05C91.6821 105.852 91.0101 105.894 90.9115 105.645C90.8692 105.527 91.0148 105.343 91.3344 105.207C91.6492 105.07 92.1379 105.009 92.6501 105.136C93.1623 105.263 93.5665 105.546 93.7826 105.81C94.0035 106.078 94.0458 106.309 93.9518 106.394Z" fill="#263238"/>
<path d="M82.3439 94.3973C81.061 93.0595 79.2142 92.174 77.3581 92.3012C75.5019 92.4284 73.7116 93.6907 73.2699 95.4665C72.9832 96.6205 73.2182 97.9629 72.4757 98.8956C71.7708 99.7858 70.4786 99.9318 69.4683 100.469C67.8847 101.312 67.0388 103.3 67.5416 105.014C67.9739 106.484 69.2709 107.774 69.0782 109.291C68.895 110.714 67.4664 111.642 66.8837 112.956C66.24 114.407 66.7428 116.154 67.7249 117.421C68.7117 118.688 70.1073 119.569 71.4748 120.426C72.5415 121.095 73.6881 121.788 74.9521 121.773C76.4512 121.759 77.8092 120.657 78.312 119.272C78.8148 117.887 78.5423 116.3 77.7998 115.009C77.156 113.898 76.1457 112.852 76.2068 111.58C76.3008 109.602 78.9135 108.523 79.1861 106.559C79.327 105.546 78.8054 104.571 78.3966 103.629C77.9878 102.687 77.7011 101.543 78.2603 100.685C78.9887 99.5691 80.6475 99.5974 81.8035 98.9144C82.7668 98.3445 83.3542 97.2093 83.2508 96.1024C83.1474 94.9955 82.3674 93.9686 81.3101 93.5588" fill="#263238"/>
<path d="M81.9576 92.7629C81.6709 94.0771 81.9952 95.5137 82.8175 96.5736C83.6399 97.6334 84.9509 98.3022 86.2949 98.3446C87.3381 98.3776 88.541 98.1091 89.2929 98.8298C90.0824 99.5881 89.8239 100.973 90.4818 101.854C91.4216 103.107 93.461 102.565 94.8332 103.314C95.8952 103.893 96.3698 105.132 96.9243 106.211C97.4788 107.285 98.4233 108.396 99.6263 108.307C99.772 107.271 99.9223 106.225 99.8283 105.179C99.7344 104.138 99.3772 103.083 98.6442 102.339C98.24 101.929 97.7372 101.628 97.3754 101.18C96.6 100.215 96.6658 98.8439 96.3134 97.6569C95.8576 96.1261 94.6217 94.8496 93.1039 94.3597C91.8445 93.9499 90.4301 94.0488 89.2412 93.4601C88.3625 93.0267 87.6811 92.2448 86.7789 91.8633C85.0214 91.119 83.0337 92.0705 81.4219 93.0927" fill="#263238"/>
<path d="M57.9642 130.691C57.9642 130.691 57.7809 130.672 57.4614 130.526C57.1465 130.38 56.6954 130.092 56.3007 129.546C55.9107 129.014 55.5817 128.199 55.671 127.243C55.7509 126.296 56.2255 125.241 57.0995 124.421C57.5366 124.011 58.0582 123.672 58.5563 123.277C59.0497 122.886 59.5431 122.415 59.7311 121.769C59.9237 121.129 59.7733 120.413 59.7311 119.669C59.6841 118.915 59.8438 118.124 60.2104 117.412C60.5722 116.701 61.1173 116.06 61.8128 115.594C62.4941 115.114 63.3588 114.859 64.214 114.836C65.0693 114.793 65.9339 114.883 66.7797 114.765C67.2027 114.709 67.6162 114.591 67.9733 114.365C68.3352 114.143 68.6171 113.814 68.8239 113.437C69.228 112.664 69.3408 111.769 69.5569 110.917C69.6603 110.488 69.7966 110.06 70.008 109.664C70.2195 109.273 70.5109 108.915 70.8727 108.665C71.6057 108.157 72.4657 108.006 73.2551 107.841C74.0446 107.686 74.8199 107.478 75.4308 107.04C75.7316 106.824 75.9806 106.536 76.1216 106.211C76.272 105.886 76.3143 105.519 76.3002 105.166C76.2579 104.45 76.0135 103.771 75.7927 103.117C75.5765 102.457 75.4167 101.779 75.4778 101.11C75.5107 100.78 75.6047 100.455 75.7739 100.177C75.9477 99.9042 76.178 99.6781 76.4458 99.5227C76.9815 99.2118 77.5548 99.127 78.0764 99.0516C78.6027 98.9763 79.0962 98.9245 79.5426 98.802C80.4354 98.5665 81.0651 98.0107 81.4645 97.5067C81.8639 96.9933 82.0472 96.5034 82.1365 96.1737C82.2258 95.8392 82.2352 95.6555 82.2493 95.6602C82.2493 95.6602 82.2587 95.844 82.1835 96.1878C82.1083 96.5269 81.9391 97.0262 81.5397 97.5632C81.145 98.0908 80.5059 98.6748 79.5802 98.9339C79.1243 99.0658 78.6215 99.1223 78.0999 99.2024C77.583 99.2825 77.0238 99.3767 76.5351 99.6687C76.0417 99.9513 75.7081 100.502 75.6658 101.124C75.6141 101.746 75.7692 102.401 75.9853 103.046C76.2062 103.696 76.4646 104.384 76.5116 105.151C76.5304 105.533 76.4834 105.933 76.319 106.296C76.1592 106.663 75.8866 106.984 75.5577 107.219C74.8998 107.7 74.0916 107.912 73.2927 108.067C72.5033 108.232 71.6715 108.392 71.0043 108.858C70.3276 109.325 69.9798 110.135 69.7872 110.973C69.5757 111.812 69.4676 112.716 69.0353 113.55C68.8192 113.96 68.4996 114.332 68.1002 114.572C67.7055 114.817 67.2544 114.944 66.8126 115.005C65.9245 115.123 65.0599 115.029 64.2281 115.071C62.5505 115.081 61.0938 116.155 60.4124 117.507C60.0647 118.185 59.9096 118.929 59.9472 119.65C59.9848 120.37 60.1399 121.11 59.9284 121.816C59.717 122.528 59.1813 123.022 58.6785 123.413C58.1662 123.809 57.6446 124.139 57.2217 124.534C56.3712 125.321 55.9013 126.334 55.812 127.243C55.7086 128.166 56.014 128.953 56.3806 129.48C56.7518 130.017 57.1794 130.314 57.4849 130.469C57.7903 130.625 57.9736 130.662 57.9689 130.676L57.9642 130.691Z" fill="#455A64"/>
<path d="M96.9337 140.67C96.9337 140.67 97.1028 140.539 97.3425 140.223C97.5774 139.907 97.8453 139.356 97.8829 138.593C97.9299 137.84 97.756 136.902 97.2579 135.941C96.7974 134.966 96.0549 133.958 95.5662 132.658C95.0963 131.358 95.0258 129.757 95.5521 128.207C95.8106 127.435 96.2241 126.681 96.7927 126.017C97.3613 125.357 98.0521 124.802 98.6019 124.104C99.1329 123.421 99.537 122.503 99.2691 121.627C99.0013 120.746 98.2071 120.134 97.507 119.446C97.1545 119.102 96.8068 118.716 96.5624 118.259C96.3134 117.802 96.1818 117.289 96.1301 116.77C96.0314 115.725 96.2711 114.679 96.6423 113.695C97.023 112.706 97.5258 111.801 97.944 110.883C98.3622 109.969 98.7099 109.022 98.7851 108.061C98.9402 106.13 98.085 104.251 96.7598 103.087C96.0972 102.494 95.2796 102.159 94.5559 101.669C94.1988 101.424 93.8604 101.132 93.6302 100.76C93.3905 100.388 93.3106 99.9595 93.2355 99.5685C93.1603 99.1729 93.0804 98.796 92.8736 98.4852C92.681 98.1696 92.3896 97.9341 92.0748 97.7598C91.4357 97.4112 90.7308 97.2652 90.0682 97.1051C89.4057 96.9496 88.7619 96.7659 88.2121 96.4692C87.6576 96.1818 87.1924 95.8144 86.8024 95.4282C86.0176 94.6604 85.543 93.8126 85.2798 93.0919C85.0167 92.3665 84.9321 91.7683 84.918 91.3632C84.9039 90.9581 84.9321 90.7462 84.9321 90.7462C84.9838 90.7367 84.8287 91.6223 85.3738 93.0542C85.6464 93.756 86.1257 94.5803 86.9057 95.3246C87.2911 95.6967 87.7516 96.0452 88.292 96.3231C88.8324 96.6058 89.448 96.78 90.1152 96.9261C90.7778 97.0815 91.4921 97.2181 92.1735 97.5855C92.5071 97.7692 92.8313 98.0236 93.0475 98.3721C93.2777 98.716 93.367 99.1305 93.4422 99.5214C93.5174 99.9171 93.5973 100.308 93.8135 100.642C94.0249 100.977 94.3351 101.25 94.6828 101.486C95.3783 101.952 96.2194 102.291 96.9149 102.913C98.2964 104.119 99.1893 106.059 99.0295 108.075C98.9496 109.083 98.5925 110.054 98.1695 110.982C97.7466 111.909 97.2438 112.814 96.8773 113.779C96.5155 114.74 96.2852 115.758 96.3792 116.747C96.4262 117.237 96.5483 117.722 96.7786 118.146C97.0042 118.57 97.3284 118.937 97.6761 119.276C98.0239 119.615 98.3904 119.941 98.724 120.303C99.0577 120.661 99.349 121.08 99.4947 121.561C99.6404 122.041 99.6028 122.559 99.4524 123.012C99.302 123.469 99.0624 123.878 98.7757 124.246C98.2024 124.971 97.5023 125.522 96.9525 126.163C96.4027 126.799 95.9985 127.529 95.7448 128.278C95.2232 129.78 95.2796 131.339 95.7307 132.606C96.1959 133.878 96.929 134.9 97.3848 135.89C97.8735 136.869 98.0474 137.84 97.9816 138.607C97.9299 139.385 97.6385 139.945 97.3848 140.261C97.1263 140.576 96.9337 140.68 96.9337 140.68V140.67Z" fill="#455A64"/>
<path d="M91.6484 135.074C91.6484 135.074 95.8165 138.993 95.6943 145.437C95.5721 151.881 96.6106 163.571 96.6106 163.571L114.397 174.466L109.378 182.172L89.7828 173.458L85.6758 165.022L91.6531 135.074H91.6484Z" fill="#7B4DD3"/>
<path d="M97.0806 179.23C97.0806 179.23 97.7432 177.953 95.8776 176.978H92.8561L86.9587 166.766L91.6672 135.071L83.6223 128.943L65.8173 127.355L59.5957 159.433L67.5513 174.006L83.3263 180.506L97.09 179.22L97.0806 179.23Z" fill="#7B4DD3"/>
<path d="M68.9551 127.596L69.3075 124.572C69.3733 123.988 69.9419 123.602 70.5105 123.757C74.9183 127.219 79.4623 128.981 84.2507 127.596C84.8992 127.78 85.2892 128.444 85.1295 129.103L83.2686 136.682L78.3956 138.142L71.9625 136.88L68.9598 131.312V127.596H68.9551Z" fill="#7B4DD3"/>
<path d="M84.3788 129.685C84.3788 129.685 84.1862 129.831 83.8103 130.033C83.4296 130.236 82.861 130.495 82.128 130.73C80.6712 131.206 78.4814 131.512 76.1648 130.989C73.8481 130.467 72.0013 129.247 70.8877 128.187C70.3238 127.659 69.9196 127.179 69.6659 126.835C69.4074 126.486 69.29 126.284 69.2993 126.274C69.3416 126.241 69.8632 127.047 71.0051 128.06C72.1329 129.068 73.9515 130.236 76.2212 130.749C78.4861 131.263 80.6336 130.989 82.081 130.561C83.5424 130.137 84.3647 129.638 84.3835 129.685H84.3788Z" fill="#263238"/>
<g opacity="0.2">
<path d="M69.8145 126.859C69.542 127.42 69.6923 128.112 70.0354 128.635C70.3784 129.158 70.8859 129.544 71.384 129.916C73.1086 131.202 74.9037 132.483 76.9713 133.072C79.0389 133.661 81.4636 133.444 83.0519 131.984C83.5125 131.56 83.8696 130.774 83.3903 130.373C83.0331 130.072 82.4974 130.255 82.0604 130.425C79.9505 131.235 77.5681 131.311 75.4112 130.642C73.2543 129.973 71.3323 128.56 70.0495 126.699" fill="black"/>
</g>
<path d="M67.3577 161.178L96.4547 176.816L85.9568 183.175L65.9432 177.291C55.3279 174.475 52.4286 170.056 52.5319 165.492C52.5695 163.829 52.3769 147.612 53.0911 139.661C54.0639 128.827 65.8117 127.367 65.8117 127.367L65.6049 136.632L65.7365 147.942L66.1359 158.323C67.1979 157.791 67.4658 159.788 67.4658 159.788L67.3577 161.182V161.178Z" fill="#7B4DD3"/>
<path d="M65.9434 159.554C65.8776 159.554 65.7836 155.631 65.7413 150.793C65.699 145.951 65.7178 142.027 65.7836 142.027C65.8494 142.027 65.9434 145.951 65.9857 150.793C66.028 155.635 66.0092 159.559 65.9434 159.559V159.554Z" fill="#263238"/>
<path d="M67.2551 161.706C67.2222 161.687 67.3115 161.513 67.3585 161.216C67.4055 160.924 67.3867 160.491 67.1611 160.105C66.9356 159.718 66.5691 159.487 66.2918 159.389C66.0099 159.28 65.8125 159.276 65.8125 159.238C65.8125 159.21 66.0146 159.148 66.3388 159.224C66.6583 159.294 67.1001 159.53 67.3679 159.982C67.6311 160.439 67.6217 160.943 67.523 161.254C67.4243 161.574 67.2739 161.725 67.2504 161.706H67.2551Z" fill="#263238"/>
<path d="M67.2539 161.709C67.2539 161.709 67.268 161.727 67.3056 161.751C67.3385 161.779 67.3995 161.817 67.4747 161.859C67.6298 161.954 67.8601 162.081 68.1561 162.246C68.7529 162.571 69.6269 163.032 70.7077 163.597C72.9022 164.728 75.8862 166.259 79.1849 167.954C82.4837 169.645 85.4724 171.176 87.6716 172.302C88.7336 172.853 89.5982 173.305 90.2326 173.635C90.5145 173.786 90.7401 173.908 90.9234 174.007C91.0784 174.097 91.163 174.144 91.1583 174.153C91.1583 174.163 91.0643 174.125 90.9046 174.054C90.7166 173.965 90.4816 173.856 90.1903 173.72C89.5465 173.404 88.6678 172.976 87.5917 172.453C85.4019 171.374 82.3898 169.862 79.0722 168.166C75.7593 166.471 72.7706 164.912 70.6231 163.743C68.4803 162.585 67.174 161.793 67.2492 161.699L67.2539 161.709Z" fill="#263238"/>
<path d="M86.2945 167.089C86.2851 167.122 85.7635 166.994 84.9318 166.759C84.1 166.519 82.9581 166.165 81.7082 165.741C80.4582 165.313 79.3398 164.898 78.5363 164.578C77.7327 164.258 77.244 164.036 77.2581 164.008C77.2722 163.975 77.7797 164.14 78.5974 164.418C79.4855 164.724 80.5804 165.101 81.7881 165.515C82.9957 165.925 84.0906 166.297 84.9835 166.603C85.8011 166.886 86.3039 167.065 86.2945 167.098V167.089Z" fill="#263238"/>
<path d="M79.1193 155.067C79.1193 155.067 79.0817 155.199 78.9783 155.411C78.8749 155.627 78.6964 155.924 78.4426 156.273C78.1935 156.621 77.8458 157.003 77.4276 157.389C77 157.766 76.4925 158.138 75.9145 158.458C75.3365 158.769 74.7444 158.995 74.1993 159.151C73.6495 159.297 73.142 159.377 72.7097 159.4C72.282 159.424 71.9343 159.415 71.6947 159.382C71.455 159.353 71.3281 159.33 71.3281 159.311C71.3281 159.264 71.8591 159.316 72.6909 159.226C73.1091 159.184 73.5978 159.085 74.1335 158.934C74.6645 158.769 75.2284 158.548 75.7923 158.246C76.3515 157.936 76.8496 157.582 77.2725 157.224C77.6907 156.857 78.0385 156.499 78.3016 156.169C78.8326 155.514 79.077 155.048 79.1146 155.067H79.1193Z" fill="#263238"/>
<path d="M65.8219 139.359C65.7843 139.359 65.7232 138.705 65.5682 137.65C65.4084 136.599 65.1453 135.139 64.4733 133.674C63.8013 132.209 62.7863 131.102 61.9264 130.504C61.0664 129.892 60.4132 129.722 60.432 129.675C60.432 129.661 60.6012 129.694 60.8831 129.788C61.1698 129.882 61.5692 130.066 62.025 130.358C62.9367 130.937 64.0081 132.063 64.6941 133.57C65.3802 135.078 65.6199 136.566 65.7373 137.631C65.7937 138.163 65.8219 138.596 65.8313 138.898C65.8407 139.199 65.836 139.364 65.8219 139.364V139.359Z" fill="#263238"/>
<path d="M96.8642 163.528C96.8783 163.566 96.54 163.702 96.1217 164.126C95.7082 164.541 95.1913 165.177 94.7355 165.959C94.2703 166.731 93.9554 167.489 93.7957 168.055C93.6312 168.62 93.6312 168.992 93.5889 168.992C93.5654 168.992 93.5043 168.615 93.6265 168.012C93.7487 167.414 94.0447 166.623 94.524 165.831C94.9892 165.035 95.5437 164.395 96.0043 163.999C96.4648 163.594 96.8595 163.5 96.8595 163.528H96.8642Z" fill="#263238"/>
<g opacity="0.2">
<path d="M92.5254 174.99C93.4934 173.13 93.2537 170.873 92.7086 168.848C92.1635 166.822 91.3318 164.849 91.1767 162.758C91.0404 160.944 91.4164 159.135 91.7829 157.355C92.1447 155.574 92.4972 153.756 92.3092 151.947C92.1212 150.139 91.313 148.311 89.7952 147.312C90.3966 148.815 91.0075 150.336 91.2096 151.943C91.4117 153.549 91.1626 155.278 90.1852 156.568C89.6871 157.228 89.0057 157.769 88.6815 158.528C88.2492 159.54 88.3149 160.69 87.9907 161.707C87.6383 162.823 86.9992 166.563 86.9992 166.563C86.9569 166.771 88.1035 168.886 89.2407 170.393C90.3779 171.9 91.75 173.257 92.5723 174.962" fill="black"/>
</g>
<path d="M92.5963 174.864C92.5963 174.864 92.5493 174.822 92.4788 174.723C92.3942 174.61 92.2908 174.468 92.1593 174.294C91.8726 173.894 91.4732 173.342 90.9798 172.655C89.9648 171.218 88.5456 169.207 86.868 166.828L86.8398 166.79L86.8492 166.743C87.3051 164.497 87.8267 161.939 88.3718 159.23C88.4281 158.943 88.4892 158.661 88.5456 158.383L88.555 158.35L88.5785 158.321C90.3689 156.484 91.3134 154.04 91.2617 151.906C91.1536 149.758 90.3501 147.94 89.4009 146.828L89.3821 146.809V146.786C89.3069 145.585 89.2458 144.624 89.2035 143.936C89.1894 143.625 89.1753 143.371 89.1659 143.178C89.1612 143.004 89.1612 142.914 89.1659 142.914C89.1753 142.914 89.1847 143.004 89.2082 143.173C89.227 143.366 89.2552 143.616 89.2834 143.927C89.3445 144.614 89.4291 145.571 89.5324 146.772L89.5136 146.725C90.5146 147.855 91.3463 149.687 91.4779 151.892C91.539 153.003 91.2711 154.172 90.8247 155.307C90.3642 156.442 89.6734 157.544 88.7477 158.486L88.7806 158.425C88.7242 158.703 88.6678 158.986 88.6067 159.273C88.0475 161.977 87.5212 164.534 87.056 166.776L87.0372 166.692C88.6866 169.089 90.0775 171.115 91.0738 172.57C91.5484 173.272 91.9243 173.837 92.2015 174.247C92.319 174.431 92.4177 174.577 92.4929 174.694C92.5587 174.798 92.5869 174.85 92.5822 174.854L92.5963 174.864Z" fill="#263238"/>
<g opacity="0.2">
<path d="M71.4742 159.471C71.1829 159.244 70.7318 159.598 70.7506 159.97C70.7694 160.342 71.0748 160.625 71.3897 160.818C72.2496 161.345 73.3069 161.482 74.3125 161.402C75.5625 161.303 76.8171 160.865 77.7288 160.003C78.6404 159.141 79.1573 157.817 78.8801 156.588C78.8566 156.489 78.8284 156.385 78.7579 156.315C78.5229 156.07 78.1282 156.343 77.8932 156.588C76.2861 158.293 74.0071 159.348 71.6716 159.461" fill="black"/>
</g>
<g opacity="0.2">
<path d="M65.7971 159.268C64.7163 158.787 63.3301 159.145 62.6158 160.083C62.3856 160.384 62.2258 160.808 62.4231 161.128C62.5876 161.392 62.9495 161.477 63.2502 161.406C63.5556 161.336 63.8141 161.142 64.0584 160.954C64.5988 160.535 65.1251 160.106 65.642 159.659C65.7172 159.597 65.7924 159.527 65.8206 159.437C65.8535 159.348 65.8206 159.225 65.736 159.188" fill="black"/>
</g>
<path d="M63.3405 161.726C63.3123 161.716 63.3358 161.486 63.4768 161.142C63.6178 160.798 63.9044 160.35 64.3368 159.969C64.7691 159.592 65.2484 159.366 65.6102 159.272C65.972 159.173 66.2023 159.182 66.207 159.211C66.2258 159.281 65.3095 159.423 64.4965 160.153C63.6695 160.864 63.4063 161.754 63.3358 161.726H63.3405Z" fill="#263238"/>
<path d="M54.6891 145.669C54.6233 145.669 54.628 143.785 54.6985 141.462C54.7737 139.14 54.8865 137.261 54.9523 137.266C55.0181 137.266 55.0134 139.15 54.9429 141.472C54.8677 143.794 54.7549 145.673 54.6891 145.669Z" fill="#FAFAFA"/>
<path d="M56.78 152.24C56.7142 152.24 56.6531 149.984 56.6484 147.2C56.6484 144.416 56.6954 142.16 56.7659 142.16C56.8317 142.16 56.8928 144.416 56.8928 147.2C56.8928 149.984 56.8458 152.24 56.7753 152.24H56.78Z" fill="#FAFAFA"/>
<path d="M60.5342 135.583C60.5671 135.583 60.5812 136.021 60.5765 136.727C60.5718 137.434 60.5483 138.409 60.506 139.483C60.4637 140.557 60.412 141.532 60.3603 142.234C60.3086 142.94 60.2616 143.374 60.2287 143.374C60.1958 143.374 60.1817 142.936 60.1864 142.229C60.1911 141.523 60.2146 140.548 60.2569 139.469C60.2992 138.39 60.3509 137.42 60.4026 136.713C60.4543 136.007 60.5013 135.573 60.5342 135.578V135.583Z" fill="#FAFAFA"/>
<path d="M63.2838 149.108C63.218 149.108 63.1616 147.652 63.1663 145.863C63.1663 144.068 63.2227 142.617 63.2932 142.617C63.359 142.617 63.4153 144.073 63.4106 145.863C63.4106 147.657 63.3543 149.108 63.2838 149.108Z" fill="#FAFAFA"/>
<path d="M60.2015 156.516C60.1357 156.516 60.1498 155.14 60.2344 153.454C60.3189 151.768 60.4411 150.402 60.5116 150.406C60.5821 150.411 60.5633 151.782 60.4787 153.468C60.3941 155.154 60.272 156.52 60.2015 156.516Z" fill="#FAFAFA"/>
<path d="M53.9093 162.706C53.8435 162.706 53.7636 161.359 53.7354 159.691C53.7072 158.024 53.7354 156.672 53.8059 156.672C53.8717 156.672 53.9516 158.019 53.9798 159.686C54.008 161.354 53.9798 162.706 53.9093 162.706Z" fill="#FAFAFA"/>
<path d="M56.7607 163.162C56.695 163.162 56.6903 162.182 56.756 160.976C56.8218 159.775 56.9299 158.8 56.9957 158.805C57.0615 158.809 57.0662 159.784 57.0004 160.99C56.9346 162.191 56.8265 163.166 56.7607 163.162Z" fill="#FAFAFA"/>
<path d="M71.851 166.608C71.8228 166.665 70.5306 166.109 69.0315 165.242C67.5278 164.375 66.4047 163.527 66.4423 163.476C66.4799 163.419 67.6641 164.168 69.1537 165.03C70.6433 165.897 71.8792 166.547 71.851 166.613V166.608Z" fill="#FAFAFA"/>
<path d="M81.4496 171.643C81.4355 171.671 81.0595 171.53 80.4815 171.243C79.9036 170.955 79.1188 170.522 78.2918 169.98C77.4694 169.434 76.7598 168.888 76.2664 168.464C75.773 168.044 75.4958 167.757 75.5146 167.729C75.5616 167.672 76.7833 168.694 78.4233 169.773C80.0586 170.856 81.4778 171.577 81.4449 171.643H81.4496Z" fill="#FAFAFA"/>
<path d="M82.0567 174.408C82.0285 174.469 80.9947 174.046 79.7494 173.466C78.5041 172.882 77.5173 172.364 77.5455 172.303C77.5737 172.242 78.6075 172.665 79.8528 173.245C81.098 173.829 82.0849 174.347 82.0567 174.408Z" fill="#FAFAFA"/>
<path d="M88.5558 176.662C88.5135 176.723 87.4421 176.045 86.0512 175.343C84.6602 174.637 83.4808 174.175 83.5043 174.104C83.523 174.043 84.7542 174.406 86.1593 175.122C87.569 175.833 88.5934 176.605 88.5558 176.657V176.662Z" fill="#FAFAFA"/>
<path d="M86.938 179.896C86.8957 179.953 86.1673 179.491 85.2463 178.968C84.3252 178.441 83.5546 178.05 83.5828 177.988C83.6063 177.927 84.4333 178.224 85.3638 178.756C86.2989 179.288 86.9709 179.844 86.9333 179.896H86.938Z" fill="#FAFAFA"/>
<path d="M64.2803 160.419C64.2145 160.419 64.1252 159.552 64.0829 158.478C64.0406 157.404 64.0594 156.528 64.1299 156.523C64.1957 156.523 64.285 157.39 64.3273 158.469C64.3696 159.543 64.3508 160.419 64.2803 160.424V160.419Z" fill="#FAFAFA"/>
<path d="M78.6064 147.508C78.5406 147.517 78.3292 146.311 78.1365 144.813C77.9439 143.315 77.8452 142.095 77.911 142.086C77.9768 142.077 78.1882 143.282 78.3809 144.78C78.5735 146.278 78.6722 147.498 78.6064 147.508Z" fill="#FAFAFA"/>
<path d="M80.1813 155.529C80.1155 155.529 80.0403 154.248 80.0168 152.665C79.9933 151.083 80.0309 149.802 80.0967 149.797C80.1625 149.797 80.2377 151.078 80.2612 152.661C80.2846 154.243 80.2471 155.525 80.1813 155.525V155.529Z" fill="#FAFAFA"/>
<path d="M70.7222 156.674C70.6611 156.688 70.3651 155.511 70.2617 154.022C70.1536 152.534 70.2758 151.323 70.3416 151.328C70.4121 151.328 70.4027 152.529 70.506 154.004C70.6094 155.478 70.7927 156.66 70.7222 156.674Z" fill="#FAFAFA"/>
<path d="M73.9599 164.545C73.8988 164.559 73.6168 163.447 73.5041 162.044C73.3819 160.64 73.4712 159.495 73.537 159.5C73.6074 159.5 73.6309 160.635 73.7484 162.025C73.8612 163.414 74.0304 164.535 73.9646 164.549L73.9599 164.545Z" fill="#FAFAFA"/>
<path d="M75.3565 153.236C75.2908 153.236 75.2344 152.007 75.2344 150.485C75.2344 148.964 75.2908 147.734 75.3565 147.734C75.4223 147.734 75.4787 148.964 75.4787 150.485C75.4787 152.007 75.4223 153.236 75.3565 153.236Z" fill="#FAFAFA"/>
<path d="M71.4698 143.762C71.5356 143.762 71.592 144.685 71.592 145.825C71.592 146.965 71.5356 147.888 71.4698 147.888C71.404 147.888 71.3477 146.965 71.3477 145.825C71.3477 144.685 71.404 143.762 71.4698 143.762Z" fill="#FAFAFA"/>
<path d="M75.4449 136.809C75.5107 136.809 75.5859 137.628 75.6047 138.641C75.6235 139.654 75.5859 140.473 75.5201 140.478C75.4543 140.478 75.3791 139.658 75.3603 138.646C75.3415 137.633 75.3791 136.813 75.4449 136.809Z" fill="#FAFAFA"/>
<path d="M82.734 144.451C82.6682 144.451 82.5038 142.713 82.3675 140.565C82.2312 138.412 82.1748 136.665 82.2453 136.66C82.3111 136.66 82.4756 138.394 82.6118 140.546C82.7481 142.699 82.8045 144.446 82.734 144.446V144.451Z" fill="#FAFAFA"/>
<path d="M85.1105 158.201C85.0447 158.201 84.9883 156.251 84.9883 153.848C84.9883 151.446 85.0447 149.496 85.1105 149.496C85.1762 149.496 85.2326 151.446 85.2326 153.848C85.2326 156.251 85.1762 158.201 85.1105 158.201Z" fill="#FAFAFA"/>
<path d="M80.8448 165.227C80.779 165.227 80.7227 163.861 80.7227 162.17C80.7227 160.479 80.779 159.113 80.8448 159.113C80.9106 159.113 80.967 160.479 80.967 162.17C80.967 163.861 80.9106 165.227 80.8448 165.227Z" fill="#FAFAFA"/>
<path d="M84.7296 169.353C84.6638 169.353 84.6074 168.821 84.6074 168.171C84.6074 167.521 84.6638 166.988 84.7296 166.988C84.7954 166.988 84.8518 167.521 84.8518 168.171C84.8518 168.821 84.7954 169.353 84.7296 169.353Z" fill="#FAFAFA"/>
<path d="M87.3194 140.48C87.3852 140.48 87.4416 141.729 87.4416 143.269C87.4416 144.809 87.3852 146.057 87.3194 146.057C87.2537 146.057 87.1973 144.809 87.1973 143.269C87.1973 141.729 87.2537 140.48 87.3194 140.48Z" fill="#FAFAFA"/>
<path d="M84.6554 130.777C84.7212 130.777 84.7776 132.435 84.7776 134.484C84.7776 136.533 84.7212 138.191 84.6554 138.191C84.5896 138.191 84.5332 136.533 84.5332 134.484C84.5332 132.435 84.5896 130.777 84.6554 130.777Z" fill="#FAFAFA"/>
<path d="M79.6222 131.77C79.688 131.77 79.7444 132.9 79.7444 134.29C79.7444 135.679 79.688 136.81 79.6222 136.81C79.5564 136.81 79.5 135.679 79.5 134.29C79.5 132.9 79.5564 131.77 79.6222 131.77Z" fill="#FAFAFA"/>
<path d="M91.1631 143.282C91.0974 143.287 90.9141 141.921 90.8859 140.216C90.853 138.515 90.9893 137.14 91.0551 137.145C91.1256 137.145 91.1021 138.52 91.1303 140.216C91.1584 141.907 91.2336 143.277 91.1631 143.287V143.282Z" fill="#FAFAFA"/>
<path d="M93.3722 148.434C93.3064 148.434 93.25 147.04 93.25 145.321C93.25 143.601 93.3064 142.207 93.3722 142.207C93.438 142.207 93.4944 143.601 93.4944 145.321C93.4944 147.04 93.438 148.434 93.3722 148.434Z" fill="#FAFAFA"/>
<path d="M94.7296 157.491C94.6638 157.491 94.6074 156.055 94.6074 154.279C94.6074 152.503 94.6638 151.066 94.7296 151.066C94.7954 151.066 94.8518 152.503 94.8518 154.279C94.8518 156.055 94.7954 157.491 94.7296 157.491Z" fill="#FAFAFA"/>
<path d="M91.6241 162.456C91.5583 162.456 91.502 160.929 91.502 159.05C91.502 157.171 91.5583 155.645 91.6241 155.645C91.6899 155.645 91.7463 157.171 91.7463 159.05C91.7463 160.929 91.6899 162.456 91.6241 162.456Z" fill="#FAFAFA"/>
<path d="M89.1944 168.199C89.1287 168.199 89.0723 166.588 89.0723 164.596C89.0723 162.603 89.1287 160.992 89.1944 160.992C89.2602 160.992 89.3166 162.603 89.3166 164.596C89.3166 166.588 89.2602 168.199 89.1944 168.199Z" fill="#FAFAFA"/>
<path d="M94.5382 165.183C94.4724 165.183 94.416 164.245 94.416 163.091C94.416 161.937 94.4724 161 94.5382 161C94.604 161 94.6604 161.937 94.6604 163.091C94.6604 164.245 94.604 165.183 94.5382 165.183Z" fill="#FAFAFA"/>
<path d="M99.7529 175.367C99.7247 175.428 98.1223 174.816 96.1675 173.996C94.2127 173.177 92.6525 172.465 92.676 172.399C92.6995 172.333 94.3066 172.95 96.2615 173.77C98.2163 174.59 99.7764 175.301 99.7482 175.367H99.7529Z" fill="#FAFAFA"/>
<path d="M105.984 173.487C105.961 173.553 104.246 172.997 102.154 172.248C100.059 171.499 98.381 170.84 98.4045 170.779C98.428 170.713 100.143 171.269 102.239 172.018C104.33 172.766 106.012 173.426 105.989 173.487H105.984Z" fill="#FAFAFA"/>
<path d="M101.605 169.315C101.572 169.376 100.425 168.849 99.0345 168.137C97.6436 167.426 96.544 166.804 96.5769 166.743C96.6098 166.682 97.7564 167.209 99.1473 167.921C100.538 168.632 101.638 169.254 101.605 169.315Z" fill="#FAFAFA"/>
<path d="M60.2296 130.746C60.2766 130.803 59.5341 131.481 58.7964 132.47C58.0539 133.455 57.6028 134.354 57.537 134.326C57.4806 134.302 57.8378 133.332 58.599 132.324C59.3556 131.311 60.192 130.699 60.2296 130.751V130.746Z" fill="#FAFAFA"/>
<path d="M66.6614 132.532C66.5956 132.546 66.4029 131.891 66.2337 131.067C66.0646 130.243 65.98 129.569 66.0458 129.555C66.1116 129.541 66.3042 130.196 66.4734 131.02C66.6426 131.844 66.7271 132.518 66.6614 132.532Z" fill="#FAFAFA"/>
<path d="M93.5602 181.196L124.645 166.062C127.817 164.517 131.553 164.7 134.56 166.542C139.988 169.872 141.158 177.272 137.027 182.124L123.559 197.922L89.1759 202.689L85.957 183.169L89.7774 177.239L93.5602 181.2V181.196Z" fill="#263238"/>
<path d="M112.332 187.66C112.332 187.66 112.205 187.787 111.952 187.976C111.698 188.164 111.327 188.433 110.857 188.753C109.922 189.394 108.615 190.246 107.135 191.141C105.655 192.036 104.292 192.794 103.287 193.322C102.784 193.586 102.38 193.793 102.093 193.93C101.806 194.066 101.647 194.137 101.637 194.118C101.628 194.104 101.773 194.005 102.046 193.845C102.366 193.656 102.751 193.435 103.202 193.171C104.179 192.606 105.528 191.824 107.004 190.934C108.479 190.044 109.8 189.215 110.758 188.612C111.2 188.334 111.58 188.098 111.895 187.9C112.163 187.736 112.318 187.651 112.328 187.665L112.332 187.66Z" fill="#455A64"/>
<path d="M46.6862 188.823C46.6862 188.823 49.7735 173.882 51.3618 171.584C52.9501 169.285 56.3006 164.141 60.5345 163.609C64.7684 163.077 73.4195 168.169 74.9984 170.17C78.9833 175.229 104.128 201.918 103.823 201.565L95.7169 207.17L87.1551 204.447H62.5786C62.5786 204.447 45.5537 201.565 46.6956 188.823H46.6862Z" fill="#263238"/>
<path d="M87.1454 204.444C87.1454 204.444 87.0138 204.444 86.7694 204.425C86.5204 204.415 86.1632 204.349 85.7027 204.255C84.7864 204.048 83.4894 203.624 81.9622 202.932C78.9031 201.552 74.8994 199.154 70.8864 195.984C66.831 192.87 63.3114 189.846 60.9806 187.425C59.8247 186.215 58.9318 185.183 58.4102 184.397C58.1236 184.025 57.9638 183.69 57.8369 183.483C57.7147 183.266 57.6537 183.153 57.6631 183.148C57.6725 183.148 57.7476 183.252 57.8792 183.455C58.0202 183.657 58.1894 183.977 58.4901 184.34C59.0305 185.103 59.9374 186.111 61.1075 187.303C63.4571 189.682 66.9861 192.677 71.0368 195.786C75.0451 198.951 79.0065 201.358 82.0327 202.771C83.5411 203.483 84.824 203.93 85.7262 204.161C86.1773 204.269 86.5345 204.349 86.7788 204.373C87.0232 204.411 87.1501 204.434 87.1501 204.444H87.1454Z" fill="#455A64"/>
<path d="M76.1347 201.106C76.1347 201.106 76.0313 201.182 75.8151 201.299C75.5802 201.426 75.27 201.601 74.88 201.817C74.4712 202.039 73.9402 202.246 73.3387 202.519C73.038 202.661 72.6949 202.755 72.3472 202.882C71.99 202.995 71.6235 203.155 71.2194 203.245C69.6264 203.725 67.6527 204.05 65.4536 204.107C63.2544 204.158 60.8202 203.895 58.3767 203.188C55.9284 202.486 53.7339 201.379 51.9295 200.122C51.4878 199.787 51.046 199.491 50.6419 199.151C50.2378 198.812 49.8901 198.435 49.5705 198.063C48.9408 197.305 48.4474 196.528 48.0574 195.788C47.2726 194.309 46.9202 192.981 46.7839 192.062C46.7134 191.601 46.6853 191.238 46.69 190.993C46.69 190.748 46.69 190.621 46.6993 190.621C46.7275 190.621 46.7134 191.139 46.8779 192.048C47.0424 192.957 47.4183 194.257 48.2125 195.708C48.6072 196.434 49.1006 197.192 49.7256 197.931C50.0451 198.294 50.3835 198.662 50.7829 198.987C51.1776 199.316 51.624 199.608 52.0611 199.938C53.8561 201.172 56.0271 202.26 58.4519 202.953C60.8719 203.65 63.2779 203.914 65.4583 203.881C67.6387 203.838 69.5982 203.532 71.1865 203.08C71.5906 202.995 71.9571 202.844 72.3143 202.736C72.6667 202.613 73.0098 202.529 73.3058 202.392C73.9073 202.133 74.443 201.94 74.8565 201.733C75.2559 201.535 75.5708 201.375 75.8104 201.257C76.0313 201.149 76.1488 201.097 76.1535 201.106H76.1347Z" fill="#455A64"/>
<path d="M103.09 200.685C103.043 200.732 96.9392 194.293 89.4628 186.304C81.9865 178.316 75.967 171.801 76.0139 171.754C76.0609 171.707 82.1651 178.146 89.6414 186.135C97.1177 194.123 103.137 200.638 103.09 200.685Z" fill="#455A64"/>
<path d="M77.7184 200.57C77.7184 200.57 72.1593 202.836 72.742 205.436C73.32 208.031 76.1912 209.237 79.0858 208.959C81.9805 208.681 87.3187 206.289 87.3187 206.289L90.0677 204.828C90.0677 204.828 86.7266 204.777 85.0443 204.169C83.0895 203.467 77.7231 200.57 77.7231 200.57H77.7184Z" fill="#7B4DD3"/>
<path d="M84.5937 205.121L104.311 208.23L145.969 204.071L123.131 197.797L84.6078 203.35C84.166 203.412 83.8418 203.793 83.8418 204.241C83.8418 204.683 84.1613 205.06 84.5984 205.126L84.5937 205.121Z" fill="#455A64"/>
<path d="M109.622 176.776L104.847 205.066C104.579 206.658 105.895 208.071 107.502 207.911L145.974 204.067C147.06 203.959 147.943 203.144 148.136 202.07L153.338 173.431C153.629 171.82 152.294 170.379 150.673 170.558L111.774 174.75C110.684 174.868 109.81 175.697 109.626 176.776H109.622Z" fill="#455A64"/>
<path d="M83.8379 204.236C83.8379 204.236 83.8755 204.236 83.9413 204.241C84.0212 204.25 84.1198 204.265 84.2467 204.279C84.5287 204.316 84.9234 204.373 85.4168 204.444C86.4553 204.599 87.9261 204.82 89.7635 205.094C93.4711 205.668 98.626 206.469 104.486 207.378L104.35 207.477C104.594 206.003 104.843 204.467 105.101 202.894C106.262 195.932 107.31 189.634 108.076 185.056C108.466 182.79 108.781 180.949 109.006 179.653C109.119 179.032 109.208 178.542 109.27 178.188C109.302 178.033 109.326 177.906 109.345 177.807C109.364 177.722 109.373 177.68 109.378 177.68C109.378 177.68 109.378 177.727 109.368 177.812C109.354 177.91 109.34 178.038 109.317 178.198C109.265 178.551 109.19 179.046 109.096 179.672C108.894 180.967 108.602 182.814 108.245 185.084C107.498 189.667 106.474 195.97 105.341 202.936C105.083 204.505 104.829 206.04 104.585 207.515L104.566 207.632L104.448 207.614C98.5884 206.671 93.4429 205.842 89.74 205.249C87.912 204.943 86.4412 204.698 85.4074 204.528C84.914 204.444 84.524 204.373 84.242 204.326C84.1198 204.302 84.0212 204.283 83.9413 204.269C83.8755 204.255 83.8379 204.246 83.8426 204.241L83.8379 204.236Z" fill="#263238"/>
<path d="M133.662 189.025C133.662 190.561 132.553 191.804 131.19 191.804C129.828 191.804 128.719 190.561 128.719 189.025C128.719 187.49 129.828 186.246 131.19 186.246C132.553 186.246 133.662 187.49 133.662 189.025Z" fill="#FAFAFA"/>
<path d="M75.6935 111.992C76.685 113.467 77.6906 114.964 78.2498 116.655C78.8043 118.346 78.8654 120.282 78.0008 121.837C77.2818 123.132 75.9567 124.14 75.7358 125.605C75.3599 128.097 78.3438 129.938 78.5553 132.449C78.6775 133.881 77.8598 135.219 76.9388 136.316C76.0131 137.414 74.9323 138.412 74.3308 139.717C73.7293 141.022 73.7622 142.769 74.8759 143.674C73.5037 143.287 72.0799 144.748 70.7265 144.295C69.5753 143.914 69.2698 142.449 69.157 141.238C68.5884 141.954 68.3911 142.948 68.6448 143.829C66.5584 141.709 66.0603 138.191 67.47 135.567C68.2924 134.041 69.7162 132.689 69.6927 130.956C69.6692 129.058 67.9118 127.64 67.4137 125.807C67.0753 124.555 67.3573 123.217 67.7332 121.973C68.1091 120.73 68.5884 119.496 68.6401 118.196C68.6918 116.896 68.5743 116.377 67.4606 115.709" fill="#263238"/>
<path d="M72.2391 143.4C72.2391 143.4 72.2015 143.4 72.1357 143.381C72.0652 143.367 71.9666 143.344 71.8444 143.287C71.6 143.179 71.2382 142.957 70.9516 142.515C70.6602 142.086 70.4394 141.455 70.4581 140.711C70.4722 139.962 70.8059 139.151 71.3181 138.384C71.8256 137.606 72.5258 136.876 73.1789 136.038C73.8133 135.204 74.4571 134.182 74.4524 132.995C74.4618 131.803 73.8086 130.663 73.085 129.59C72.3566 128.516 71.5013 127.366 71.2476 125.934C71.1207 125.228 71.2241 124.474 71.5436 123.848C71.8585 123.216 72.319 122.703 72.7701 122.223C73.2259 121.742 73.6864 121.299 74.0483 120.795C74.4148 120.296 74.7015 119.745 74.7813 119.17C74.8706 118.596 74.7109 118.026 74.4148 117.555C74.1235 117.079 73.7428 116.674 73.3951 116.259C72.6714 115.445 72.2438 114.465 72.1216 113.542C71.9901 112.618 72.1216 111.761 72.3942 111.073C72.662 110.386 73.0333 109.863 73.3857 109.481C73.7381 109.1 74.0624 108.864 74.2879 108.718C74.4007 108.643 74.49 108.596 74.5511 108.563C74.6122 108.53 74.6451 108.516 74.6451 108.52C74.6686 108.549 74.1282 108.789 73.4515 109.547C73.1225 109.929 72.7654 110.447 72.5211 111.125C72.272 111.794 72.1545 112.628 72.2908 113.518C72.4224 114.408 72.8312 115.336 73.5502 116.128C73.8932 116.537 74.2832 116.942 74.5981 117.442C74.9129 117.936 75.1009 118.572 75.0022 119.199C74.9129 119.83 74.6075 120.409 74.2315 120.927C73.8556 121.455 73.3857 121.912 72.9346 122.383C72.4882 122.859 72.0465 123.358 71.7504 123.947C71.4544 124.535 71.3557 125.218 71.4779 125.883C71.7175 127.234 72.5399 128.36 73.2729 129.443C73.6395 129.99 73.9825 130.55 74.2456 131.139C74.5041 131.728 74.6733 132.354 74.6639 132.981C74.6639 133.607 74.4853 134.206 74.2315 134.728C73.9778 135.256 73.6535 135.718 73.3246 136.146C72.6526 136.999 71.9525 137.71 71.4497 138.464C70.9422 139.208 70.6085 139.985 70.585 140.696C70.5568 141.408 70.7542 142.025 71.022 142.444C71.2805 142.877 71.6235 143.103 71.8538 143.226C72.0887 143.348 72.2344 143.362 72.2297 143.381L72.2391 143.4Z" fill="#455A64"/>
<path d="M105.209 186.387C103.851 185.167 105.379 183.74 102.926 181.418C101.093 179.685 97.6204 176.712 90.896 174.461L86.6855 182.002L94.0162 184.376L93.9457 189.171C93.9316 190.156 94.7305 190.961 95.7173 190.952L99.5236 190.905C99.5236 190.905 98.4146 195.61 98.5978 195.897C99.1194 196.717 100.243 196.34 100.393 195.704C100.543 195.068 103.673 187.466 103.673 187.466C103.673 187.466 105.717 189.237 106.008 188.224C106.008 188.224 106.568 187.607 105.214 186.387H105.209Z" fill="#B78876"/>
<path d="M94.9695 191.066C94.9554 191.038 95.148 190.925 95.3971 190.675C95.6508 190.43 95.9422 190.03 96.1208 189.521C96.2946 189.013 96.3134 188.518 96.2711 188.165C96.2288 187.812 96.149 187.604 96.1771 187.59C96.1959 187.581 96.3181 187.779 96.398 188.141C96.4779 188.504 96.4826 189.036 96.2946 189.578C96.1067 190.12 95.773 190.534 95.4864 190.77C95.1997 191.005 94.9789 191.08 94.9695 191.066Z" fill="#AA6550"/>
<path d="M97.4183 190.907C97.376 190.87 97.9305 190.328 98.1514 189.433C98.3863 188.543 98.1608 187.799 98.2172 187.789C98.236 187.784 98.3252 187.959 98.3816 188.265C98.438 188.571 98.4474 189.014 98.3299 189.48C98.2078 189.946 97.9869 190.328 97.7895 190.568C97.5922 190.808 97.4324 190.921 97.4183 190.907Z" fill="#AA6550"/>
<path d="M100.37 188.149C100.37 188.149 100.44 188.3 100.445 188.564C100.45 188.823 100.398 189.19 100.243 189.558C100.083 189.925 99.8576 190.217 99.665 190.391C99.4723 190.57 99.3266 190.641 99.3125 190.622C99.2749 190.58 99.7778 190.184 100.069 189.482C100.375 188.785 100.309 188.149 100.365 188.145L100.37 188.149Z" fill="#AA6550"/>
<path d="M200.139 166.118C200.562 164.649 201.469 163.231 202.865 162.628C204.321 161.997 206.008 162.355 207.498 162.901C208.988 163.443 210.454 164.168 212.033 164.267C213.616 164.366 215.402 163.612 215.876 162.096C216.323 160.669 215.463 159.147 214.392 158.116C212.136 155.939 208.743 155.016 205.698 155.746C202.653 156.481 200.05 158.846 199.025 161.813" fill="#7B4DD3"/>
<g opacity="0.5">
<path d="M200.139 166.118C200.562 164.649 201.469 163.231 202.865 162.628C204.321 161.997 206.008 162.355 207.498 162.901C208.988 163.443 210.454 164.168 212.033 164.267C213.616 164.366 215.402 163.612 215.876 162.096C216.323 160.669 215.463 159.147 214.392 158.116C212.136 155.939 208.743 155.016 205.698 155.746C202.653 156.481 200.05 158.846 199.025 161.813" fill="black"/>
</g>
<path d="M187.602 172.493C185.28 170.284 185.398 166.436 186.554 163.44C187.71 160.449 190.238 158.15 193.062 156.634C198.537 153.699 205.379 153.478 211.027 156.05C208.25 156.144 205.566 157.722 204.133 160.11C202.86 162.229 202.578 164.796 201.525 167.034C200.355 169.526 198.203 171.537 195.647 172.54C193.086 173.543 190.144 173.525 187.597 172.488" fill="#7B4DD3"/>
<path d="M186.489 159.209C183.918 156.166 183.575 151.286 183.956 147.316C184.336 143.35 185.253 139.355 184.628 135.418C184.256 133.086 183.354 130.858 183.049 128.517C182.743 126.176 183.176 123.529 184.985 122.017C187.067 120.279 190.342 120.688 192.503 122.318C194.67 123.948 195.92 126.51 196.836 129.068C198.847 134.678 199.59 140.9 197.936 146.628C196.282 152.356 192.4 157.476 186.709 159.204" fill="#7B4DD3"/>
<path d="M185.254 184.163C185.254 184.163 185.244 184.041 185.244 183.815C185.244 183.584 185.244 183.245 185.263 182.812C185.296 181.94 185.38 180.678 185.573 179.128C185.77 177.578 186.076 175.741 186.56 173.735C187.039 171.724 187.857 169.576 189.018 167.489C190.178 165.402 191.597 163.598 193.031 162.11C194.469 160.621 195.939 159.467 197.236 158.601C197.88 158.153 198.5 157.819 199.036 157.503C199.586 157.216 200.065 156.976 200.455 156.787C200.845 156.622 201.151 156.495 201.381 156.396C201.592 156.311 201.705 156.269 201.71 156.274C201.71 156.279 201.606 156.335 201.4 156.434C201.174 156.538 200.873 156.679 200.493 156.858C200.107 157.06 199.638 157.305 199.097 157.602C198.571 157.922 197.96 158.266 197.326 158.718C196.043 159.595 194.595 160.753 193.176 162.237C191.762 163.721 190.361 165.511 189.206 167.583C186.842 171.728 186.193 176.085 185.723 179.138C185.512 180.678 185.404 181.935 185.348 182.807C185.324 183.226 185.305 183.56 185.286 183.81C185.272 184.041 185.263 184.159 185.254 184.159V184.163Z" fill="#263238"/>
<path d="M163.082 147.215C158.327 150.093 158.341 152.712 159.135 155.18C159.929 157.653 162.847 159.367 165.267 158.444C166.635 157.921 167.626 156.73 168.472 155.533C169.318 154.337 170.112 153.056 171.301 152.194C172.485 151.332 174.205 151.007 175.399 151.859" fill="#7B4DD3"/>
<g opacity="0.5">
<path d="M163.082 147.215C158.327 150.093 158.341 152.712 159.135 155.18C159.929 157.653 162.847 159.367 165.267 158.444C166.635 157.921 167.626 156.73 168.472 155.533C169.318 154.337 170.112 153.056 171.301 152.194C172.485 151.332 174.205 151.007 175.399 151.859" fill="black"/>
</g>
<path d="M159.52 150.365C160.765 148.641 163.833 148.142 165.774 149.003C167.715 149.861 169.134 151.566 170.407 153.271C171.681 154.971 172.917 156.771 174.679 157.953C176.441 159.135 178.903 159.564 180.656 158.372C181.807 157.59 182.479 156.229 182.686 154.849C182.898 153.469 182.696 152.06 182.409 150.694C181.991 148.697 181.305 146.606 179.707 145.339C177.926 143.921 175.459 143.855 173.189 143.931C170.586 144.015 167.94 144.213 165.497 145.118C163.053 146.022 160.558 147.977 159.52 150.374" fill="#7B4DD3"/>
<path d="M181.3 180.344C181.3 180.344 181.291 180.306 181.286 180.24C181.286 180.16 181.277 180.057 181.272 179.934C181.263 179.647 181.249 179.251 181.23 178.752C181.202 177.706 181.159 176.222 181.103 174.4C181.046 172.563 180.971 170.377 180.84 167.951C180.703 165.525 180.525 162.859 180.158 160.085C179.97 158.7 179.754 157.344 179.369 156.091C178.984 154.833 178.471 153.665 177.912 152.596C177.348 151.526 176.728 150.556 176.075 149.704C175.417 148.856 174.736 148.116 174.068 147.494C172.72 146.26 171.427 145.502 170.506 145.064C170.276 144.956 170.074 144.852 169.891 144.777C169.712 144.706 169.557 144.645 169.426 144.598C169.308 144.551 169.219 144.513 169.139 144.485C169.073 144.456 169.045 144.442 169.045 144.438C169.045 144.438 169.083 144.442 169.148 144.461C169.228 144.485 169.322 144.518 169.44 144.555C169.571 144.602 169.731 144.654 169.914 144.715C170.102 144.786 170.304 144.885 170.544 144.984C171.479 145.403 172.795 146.147 174.172 147.381C174.853 148.003 175.544 148.743 176.216 149.595C176.883 150.448 177.513 151.428 178.086 152.506C178.655 153.585 179.176 154.762 179.571 156.03C179.961 157.306 180.182 158.667 180.37 160.057C180.736 162.841 180.91 165.511 181.037 167.942C181.159 170.372 181.216 172.558 181.258 174.395C181.296 176.232 181.31 177.72 181.314 178.747C181.314 179.246 181.314 179.642 181.314 179.929C181.314 180.057 181.314 180.156 181.31 180.236C181.31 180.306 181.305 180.339 181.3 180.339V180.344Z" fill="#263238"/>
<path d="M183.011 182.503C183.011 182.503 182.743 181.796 182.49 180.454C182.241 179.116 182.057 177.133 182.274 174.703C182.476 172.272 183.096 169.418 184.087 166.356C185.065 163.29 186.39 160.011 187.522 156.483C188.082 154.717 188.561 152.974 188.89 151.26C189.224 149.545 189.43 147.873 189.567 146.276C189.834 143.078 189.797 140.181 189.717 137.755C189.637 135.329 189.505 133.365 189.426 132.009C189.388 131.34 189.355 130.817 189.332 130.445C189.322 130.275 189.318 130.139 189.313 130.04C189.313 129.95 189.313 129.903 189.313 129.898C189.313 129.898 189.322 129.946 189.332 130.035C189.341 130.139 189.355 130.271 189.374 130.44C189.407 130.812 189.449 131.335 189.505 131.999C189.609 133.356 189.764 135.315 189.863 137.746C189.961 140.176 190.013 143.078 189.755 146.29C189.628 147.896 189.421 149.573 189.087 151.297C188.763 153.021 188.284 154.778 187.72 156.545C186.583 160.082 185.253 163.356 184.271 166.413C183.274 169.46 182.645 172.296 182.424 174.712C182.189 177.128 182.353 179.102 182.574 180.435C182.692 181.104 182.8 181.617 182.894 181.966C182.936 182.131 182.964 182.263 182.988 182.362C183.007 182.451 183.016 182.498 183.011 182.498V182.503Z" fill="#263238"/>
<path d="M194.801 184.654H172.47L171.963 180.344H194.801V184.654Z" fill="#455A64"/>
<path d="M174.867 184.164L177.658 197.089H189.796L192.404 184.164H174.867Z" fill="#455A64"/>
<path d="M194.801 184.653C194.801 184.714 189.891 184.747 183.838 184.729C177.781 184.71 172.875 184.649 172.875 184.592C172.875 184.535 177.786 184.498 183.843 184.517C189.9 184.535 194.806 184.597 194.806 184.653H194.801Z" fill="#455A64"/>
<path d="M190.971 191.036C190.943 191.079 190.313 190.429 189.007 189.906C188.359 189.647 187.536 189.444 186.615 189.426C185.69 189.397 184.689 189.619 183.674 189.967C182.654 190.311 181.705 190.711 180.779 190.933C179.849 191.135 178.984 191.121 178.279 191.008C177.569 190.895 177.024 190.688 176.672 190.5C176.498 190.401 176.366 190.321 176.287 190.255C176.202 190.193 176.16 190.156 176.164 190.151C176.179 190.132 176.357 190.264 176.71 190.429C177.067 190.589 177.607 190.773 178.303 190.862C178.993 190.952 179.839 190.952 180.737 190.744C181.629 190.518 182.579 190.113 183.608 189.765C184.632 189.411 185.671 189.185 186.62 189.228C187.569 189.261 188.406 189.482 189.064 189.765C189.726 190.038 190.205 190.372 190.52 190.617C190.675 190.74 190.793 190.843 190.868 190.919C190.943 190.989 190.981 191.032 190.976 191.036H190.971Z" fill="#263238"/>
<path d="M190.802 191.9C190.774 191.942 190.167 191.311 188.913 190.783C188.288 190.524 187.498 190.326 186.605 190.308C185.713 190.284 184.74 190.487 183.762 190.821C182.78 191.151 181.855 191.532 180.976 191.773C180.097 192.013 179.265 192.098 178.57 192.041C177.874 191.994 177.334 191.796 176.996 191.617C176.827 191.523 176.7 191.443 176.62 191.377C176.54 191.316 176.498 191.283 176.502 191.273C176.516 191.254 176.686 191.382 177.029 191.537C177.372 191.688 177.903 191.857 178.579 191.886C179.251 191.919 180.06 191.824 180.919 191.575C181.784 191.33 182.7 190.943 183.692 190.614C184.683 190.275 185.689 190.072 186.61 190.105C187.526 190.133 188.339 190.355 188.969 190.637C189.603 190.915 190.064 191.245 190.365 191.48C190.515 191.598 190.628 191.702 190.698 191.773C190.769 191.843 190.806 191.881 190.802 191.89V191.9Z" fill="white"/>
<path d="M191.192 190.178C191.164 190.22 190.511 189.561 189.171 188.986C188.509 188.703 187.672 188.454 186.718 188.397C185.769 188.331 184.731 188.576 183.683 188.934C182.63 189.287 181.653 189.716 180.685 189.914C179.717 190.088 178.829 190.036 178.1 189.914C177.372 189.787 176.808 189.58 176.441 189.386C176.263 189.287 176.122 189.203 176.037 189.137C175.953 189.071 175.906 189.033 175.91 189.028C175.925 189.01 176.108 189.141 176.474 189.311C176.846 189.476 177.405 189.66 178.119 189.763C178.833 189.862 179.707 189.895 180.643 189.716C181.568 189.518 182.55 189.085 183.608 188.727C184.66 188.364 185.736 188.115 186.723 188.195C187.705 188.265 188.556 188.539 189.223 188.845C189.895 189.146 190.388 189.49 190.713 189.744C190.872 189.872 190.995 189.975 191.07 190.055C191.15 190.131 191.187 190.173 191.183 190.178H191.192Z" fill="white"/>
<path d="M194.999 184.675C194.999 184.731 189.976 184.783 183.782 184.783C177.589 184.783 172.561 184.736 172.561 184.675C172.561 184.614 177.584 184.566 183.782 184.566C189.98 184.566 194.999 184.614 194.999 184.675Z" fill="#263238"/>
</g>
<defs>
<clipPath id="clip0_18377_16686">
<rect width="216" height="209" fill="white"/>
</clipPath>
</defs>
</svg>
