<svg width="24" height="17" viewBox="0 0 24 17" fill="none" xmlns="http://www.w3.org/2000/svg">
<g clip-path="url(#clip0_23251_2118)">
<path d="M3.92494 16.6975C2.97132 15.2908 2.42904 13.6611 2.35553 11.981C2.28201 10.3009 2.67999 8.63276 3.50732 7.15331C4.33466 5.67386 5.56058 4.4381 7.05529 3.57685C8.55 2.7156 10.2579 2.2609 11.9982 2.2609C13.7384 2.2609 15.4463 2.7156 16.941 3.57685C18.4358 4.4381 19.6617 5.67386 20.489 7.15331C21.3164 8.63276 21.7143 10.3009 21.6408 11.981C21.5673 13.6611 21.025 15.2908 20.0714 16.6975H22.7735C23.671 14.9296 24.0878 12.97 23.9846 11.0034C23.8815 9.03682 23.2617 7.12799 22.1839 5.45688C21.106 3.78576 19.6054 2.40742 17.8237 1.45178C16.042 0.496138 14.0378 -0.00531769 12 -0.00531769C9.96222 -0.00531769 7.958 0.496138 6.17628 1.45178C4.39456 2.40742 2.89403 3.78576 1.81615 5.45688C0.738268 7.12799 0.118541 9.03682 0.0153868 11.0034C-0.0877677 12.97 0.329048 14.9296 1.22655 16.6975H3.92494Z" fill="#4A4AF4"/>
<path d="M12.1611 6.08533C10.4037 6.08533 8.38078 6.88668 7.28238 7.73226L8.28375 9.7719C9.1643 8.99355 10.5886 8.32841 11.8719 8.32841C13.0929 8.32841 13.7648 8.72112 13.7648 9.51717C13.7648 10.0479 13.3181 10.3521 12.4741 10.4264C9.30893 10.7077 6.84851 11.6647 6.84851 14.0122C6.84851 15.8749 8.23799 17 10.5245 17C11.2118 17.0009 11.887 16.8249 12.4807 16.49C13.0743 16.1552 13.5649 15.6736 13.9021 15.0948V16.6957H16.7542V9.98418C16.7542 7.21218 14.7588 6.0924 12.1611 6.0924V6.08533ZM11.3281 14.8471C10.4128 14.8471 9.8984 14.465 9.8984 13.8388C9.8984 12.5298 11.546 12.2149 13.7062 12.2149C13.7062 13.5841 12.7579 14.8471 11.3263 14.8471H11.3281Z" fill="#060809"/>
</g>
<defs>
<clipPath id="clip0_23251_2118">
<rect width="24" height="17" fill="white"/>
</clipPath>
</defs>
</svg>
