<svg width="60" height="60" viewBox="0 0 60 60" fill="none" xmlns="http://www.w3.org/2000/svg">
<circle cx="30" cy="30" r="30" fill="white"/>
<path d="M43.9272 34.5978C43.7493 34.5321 43.5602 34.5023 43.3708 34.51C43.1814 34.5176 42.9953 34.5627 42.8232 34.6425C42.6512 34.7223 42.4966 34.8353 42.3683 34.9751C42.2399 35.1149 42.1404 35.2786 42.0754 35.457C42.0754 35.457 41.1286 39.0717 32.333 40.6955C31.7444 39.3636 30.2757 37.0502 27.3104 37.4006L27.9157 38.763C28.2653 38.795 28.6177 38.7772 28.9624 38.7102C28.5959 39.1384 26.422 39.9809 24.9089 39.6305C25.0215 39.5937 25.1268 39.5372 25.2198 39.4637L24.684 38.5156C24.684 38.5156 22.9209 39.5694 23.6095 41.146C24.298 42.7225 26.4387 41.9801 26.4387 41.9801C26.4387 41.9801 25.6696 42.6307 24.9394 42.6307C24.473 43.9237 26.0666 46.1398 27.7991 45.8784C27.712 45.9925 27.5998 46.085 27.4713 46.1487C27.3427 46.2123 27.2012 46.2454 27.0578 46.2454C28.2156 46.8655 31.947 47.0184 32.6106 43.5789C43.2887 41.6576 44.7796 36.4691 44.7879 36.4524C44.853 36.2741 44.8824 36.0846 44.8744 35.8948C44.8664 35.7051 44.8211 35.5188 44.7412 35.3466C44.6613 35.1743 44.5483 35.0196 44.4086 34.8911C44.2689 34.7626 44.1054 34.663 43.9272 34.5978Z" fill="#6C31BC"/>
<path d="M20.3944 36.3911L21.8687 39.3579C22.1463 39.8973 22.1463 40.6147 21.7687 40.8427L19.5476 42.1718C19.6262 42.2188 19.6997 42.2737 19.7669 42.3358C19.9798 42.528 20.1386 42.7725 20.2278 43.0452C20.3169 43.3179 20.3332 43.6092 20.275 43.8902C23.5651 43.0671 23.9704 38.1039 20.3944 36.3911Z" fill="#6C31BC"/>
<path d="M17.7491 42.7167C18.5431 41.4988 17.7491 40.2893 16.7468 40.1169C16.6554 40.0989 16.5622 40.0924 16.4692 40.0974C17.1855 38.6654 16.422 37.2946 15.4474 37.1056C14.0731 36.8275 13.4873 39.3022 13.3985 40.7453C13.3096 42.1884 14.7589 41.813 14.7589 41.813C14.8561 41.7518 14.9505 41.6934 15.0365 41.6323C14.8826 42.1156 14.7894 42.6162 14.7589 43.1226C14.6895 44.3238 16.1471 44.0319 16.1471 44.0319C16.2443 43.9846 16.3359 43.9345 16.4247 43.8873C16.3498 43.9762 16.2804 44.0624 16.2193 44.1458C15.5002 45.1107 16.8662 45.6612 16.8662 45.6612C20.1757 46.0728 20.5588 43.6982 19.5426 42.7389C19.0068 42.2607 18.3599 42.3691 17.7491 42.7167Z" fill="#6C31BC"/>
<path d="M35.8591 23.8799C35.226 23.8799 34.7124 24.5973 34.7124 25.4787C34.7124 26.3601 35.226 27.0775 35.8591 27.0775C36.4921 27.0775 37.0057 26.3629 37.0057 25.4787C37.0057 24.5945 36.4976 23.8799 35.8591 23.8799Z" fill="#6C31BC"/>
<path d="M43.8138 20.9432C44.0294 20.6161 44.3134 20.3399 44.6461 20.1334C44.9787 19.927 45.3522 19.7953 45.7406 19.7476C43.997 17.8485 39.4076 17.4203 39.4076 17.4203C39.6147 17.6978 39.7423 18.0265 39.7769 18.3712C39.2216 17.6038 37.5724 15.916 35.4901 16.2163C35.5817 16.0187 35.6953 15.8322 35.8288 15.6602C35.5694 14.9027 35.3598 14.129 35.2014 13.344C35.5334 13.2284 35.8127 12.9967 35.9879 12.6915C36.1631 12.3862 36.2225 12.0279 36.1551 11.6824C36.0878 11.3368 35.8982 11.0272 35.6212 10.8103C35.3443 10.5935 34.9985 10.484 34.6474 10.5019C34.2963 10.5198 33.9634 10.664 33.7099 10.908C33.4564 11.1519 33.2993 11.4793 33.2674 11.8299C33.2355 12.1805 33.331 12.5309 33.5363 12.8167C33.7416 13.1025 34.043 13.3045 34.3851 13.3857C34.4137 14.3914 34.5705 15.3894 34.8515 16.3553C32.5555 17.1533 32.1279 20.1341 32.1279 20.1341C32.016 19.7107 32.0266 19.2642 32.1584 18.8467C31.5476 19.1831 26.5306 23.0175 26.7444 27.761C26.9582 32.5046 31.5004 37.3483 38.7968 35.3574C46.0932 33.3666 46.5347 27.1771 46.5347 27.1771C46.5347 27.1771 45.4047 27.2077 45.1298 26.4125C49.5665 27.1521 48.5642 18.4407 43.8138 20.9432ZM41.4261 29.8576C39.5548 33.0552 30.9424 34.4732 28.8073 31.3674C27.905 30.055 27.6717 29.079 27.6023 27.5609C27.544 26.2484 27.7384 25.2196 28.3881 24.163C29.693 22.0443 36.3425 20.9682 39.6825 21.8329C41.9203 22.3946 42.3756 28.2254 41.4261 29.8409V29.8576Z" fill="#6C31BC"/>
<path d="M35.4266 29.6001C35.3806 29.5665 35.3285 29.5422 35.2732 29.5288C35.218 29.5154 35.1606 29.513 35.1044 29.5218C35.0482 29.5306 34.9942 29.5503 34.9457 29.58C34.8971 29.6097 34.8548 29.6486 34.8213 29.6946C33.7496 31.1822 31.7922 30.1562 31.7867 30.1534C31.6851 30.101 31.5669 30.0912 31.458 30.1262C31.3492 30.1611 31.2587 30.2379 31.2064 30.3397C31.1541 30.4415 31.1444 30.5598 31.1793 30.6688C31.2141 30.7778 31.2908 30.8685 31.3924 30.9208C31.3924 30.9208 34.0106 32.2944 35.521 30.2034C35.5544 30.1577 35.5785 30.1057 35.5919 30.0506C35.6053 29.9954 35.6077 29.9382 35.5989 29.8821C35.5901 29.8261 35.5704 29.7723 35.5408 29.7239C35.5112 29.6755 35.4724 29.6334 35.4266 29.6001Z" fill="#6C31BC"/>
<path d="M29.5301 24.9888C28.9471 24.9888 28.4751 25.6477 28.4751 26.4596C28.4751 27.2716 28.9471 27.9278 29.5301 27.9278C30.1132 27.9278 30.5852 27.2716 30.5852 26.4596C30.5852 25.6477 30.1132 24.9888 29.5301 24.9888Z" fill="#6C31BC"/>
<path fill-rule="evenodd" clip-rule="evenodd" d="M20.1338 24.9782C21.7802 24.9782 23.9431 27.4807 24.962 30.5392C25.9809 33.5978 25.4673 36.1003 23.8181 36.1003C22.1689 36.1003 20.0089 33.5978 18.99 30.5392C17.971 27.4807 18.4846 24.9782 20.1338 24.9782ZM30.923 46.4577L31.4782 47.7062C31.5211 47.7925 31.5462 47.8866 31.5523 47.9828C31.5583 48.079 31.545 48.1755 31.5132 48.2665C31.4815 48.3575 31.4318 48.4412 31.3673 48.5127C31.3027 48.5843 31.2245 48.6421 31.1373 48.6829C31.0501 48.7237 30.9556 48.7467 30.8594 48.7503C30.7632 48.754 30.6672 48.7384 30.5771 48.7044C30.4871 48.6704 30.4047 48.6187 30.3349 48.5523C30.265 48.4859 30.2092 48.4062 30.1705 48.3179L29.482 46.961C29.9898 46.8862 30.4788 46.7154 30.923 46.4577ZM26.2752 36.2615L27.5691 39.0087C26.9366 39.2206 26.2757 39.335 25.6089 39.3479L24.4567 37.1986C22.2023 37.1513 19.4259 34.0844 18.232 30.3057C17.0381 26.5269 17.8905 23.4155 20.156 23.4155C22.4216 23.4155 25.2285 26.4991 26.4307 30.3057C27.2331 32.8471 27.1137 35.0687 26.2752 36.2615ZM10.7857 32.4189L15.4861 30.0193C15.8748 29.8191 16.3496 29.9247 16.6356 30.4669L21.4304 39.5982C21.7081 40.1543 21.7497 40.8605 21.3749 41.0885L19.5813 42.2007C19.0677 41.8838 18.4708 42.0033 17.8738 42.3175C18.0565 42.0863 18.1746 41.8106 18.2163 41.5188C18.2579 41.2269 18.2216 40.9292 18.111 40.6559C18.0004 40.3827 17.8195 40.1437 17.5866 39.9632C17.3538 39.7828 17.0774 39.6674 16.7855 39.6287C16.682 39.6101 16.5767 39.6036 16.4718 39.6093C17.2408 38.1412 16.4135 36.7287 15.3612 36.5313C14.3783 36.345 13.7731 37.3877 13.4482 38.5444L10.7413 33.9092C10.4247 33.3809 10.3998 32.6218 10.7857 32.4189Z" fill="#6C31BC"/>
</svg>
