<svg width="72" height="72" viewBox="0 0 72 72" fill="none" xmlns="http://www.w3.org/2000/svg">
<path d="M70.8559 36.239C70.8559 17.0276 55.282 1.45364 36.0705 1.45364C16.8591 1.45364 1.28515 17.0276 1.28515 36.239C1.28516 55.4505 16.8591 71.0244 36.0705 71.0244C55.282 71.0244 70.8559 55.4505 70.8559 36.239Z" fill="#E4EDFF"/>
<mask id="mask0" style="mask-type:alpha" maskUnits="userSpaceOnUse" x="1" y="1" width="70" height="71">
<path d="M70.8579 36.239C70.8579 17.0276 55.2839 1.45364 36.0725 1.45364C16.8611 1.45364 1.28711 17.0276 1.28711 36.239C1.28711 55.4505 16.8611 71.0244 36.0725 71.0244C55.2839 71.0244 70.8579 55.4505 70.8579 36.239Z" fill="#E4EDFF"/>
</mask>
<g mask="url(#mask0)">
<path d="M36.4512 7.58887H35.3242V18.9711H36.4512V7.58887Z" fill="#3A3687"/>
<path d="M35.8885 7.90796C37.2163 7.90796 38.2927 6.83157 38.2927 5.50378C38.2927 4.17599 37.2163 3.09961 35.8885 3.09961C34.5608 3.09961 33.4844 4.17599 33.4844 5.50378C33.4844 6.83157 34.5608 7.90796 35.8885 7.90796Z" fill="#70A2FF"/>
<g style="mix-blend-mode:multiply">
<path d="M35.8875 7.19379C35.3125 7.19267 34.7569 6.98552 34.3216 6.60991C33.8863 6.2343 33.5999 5.7151 33.5146 5.14648C33.5082 5.26535 33.5082 5.38448 33.5146 5.50335C33.546 6.11894 33.8127 6.69894 34.2596 7.12354C34.7064 7.54813 35.2992 7.78488 35.9156 7.78488C36.532 7.78488 37.1249 7.54813 37.5717 7.12354C38.0186 6.69894 38.2852 6.11894 38.3167 5.50335C38.3262 5.38459 38.3262 5.26525 38.3167 5.14648C38.2313 5.72536 37.9372 6.25304 37.4897 6.63013C37.0423 7.00722 36.4724 7.20769 35.8875 7.19379Z" fill="#C5C3E6"/>
</g>
<g style="mix-blend-mode:screen">
<path d="M35.886 4.28241C36.3647 4.28172 36.8396 4.36653 37.2884 4.53284C37.3247 4.54958 37.3658 4.55291 37.4043 4.54224C37.4429 4.53157 37.4764 4.50759 37.4989 4.47456C37.5214 4.44153 37.5315 4.40158 37.5273 4.36182C37.5232 4.32206 37.5051 4.28505 37.4763 4.25737C37.274 4.03827 37.0286 3.86342 36.7554 3.74383C36.4823 3.62424 36.1873 3.5625 35.8891 3.5625C35.5909 3.5625 35.296 3.62424 35.0228 3.74383C34.7497 3.86342 34.5043 4.03827 34.302 4.25737C34.2732 4.28505 34.2551 4.32206 34.2509 4.36182C34.2468 4.40158 34.2569 4.44153 34.2794 4.47456C34.3019 4.50759 34.3354 4.53157 34.3739 4.54224C34.4125 4.55291 34.4535 4.54958 34.4898 4.53284C34.9363 4.36595 35.4093 4.28111 35.886 4.28241Z" fill="#235ECC"/>
</g>
<path d="M24.5094 70.3166C29.3503 70.3166 33.2746 66.3922 33.2746 61.5513C33.2746 56.7105 29.3503 52.7861 24.5094 52.7861C19.6685 52.7861 15.7441 56.7105 15.7441 61.5513C15.7441 66.3922 19.6685 70.3166 24.5094 70.3166Z" fill="#474CA8"/>
<path d="M48.439 70.3166C53.2799 70.3166 57.2043 66.3922 57.2043 61.5513C57.2043 56.7105 53.2799 52.7861 48.439 52.7861C43.5982 52.7861 39.6738 56.7105 39.6738 61.5513C39.6738 66.3922 43.5982 70.3166 48.439 70.3166Z" fill="#474CA8"/>
<g style="mix-blend-mode:multiply">
<path d="M57.1041 60.2547C56.7784 62.4119 55.6627 64.371 53.9737 65.7518C53.7551 65.9196 53.5037 66.0397 53.2357 66.1041C52.9678 66.1685 52.6892 66.1758 52.4183 66.1256C52.1473 66.0755 51.8899 65.9689 51.6628 65.8128C51.4356 65.6567 51.2439 65.4546 51.0999 65.2196C50.4738 64.1991 49.6537 62.8968 48.8773 61.5507C47.7452 59.6691 46.3776 57.9397 44.8077 56.4043L50.3173 67.5173C49.7006 67.655 49.0709 67.7264 48.439 67.7302C46.3397 67.7276 44.3111 66.9716 42.7221 65.5997C41.133 64.2278 40.0892 62.3312 39.7803 60.2547C39.7132 60.6836 39.6776 61.1167 39.6738 61.5507C39.6738 63.8754 40.5973 66.1049 42.2411 67.7487C43.8849 69.3925 46.1144 70.3159 48.439 70.3159C50.7637 70.3159 52.9932 69.3925 54.637 67.7487C56.2808 66.1049 57.2043 63.8754 57.2043 61.5507C57.2025 61.1169 57.169 60.6837 57.1041 60.2547Z" fill="#C5C3E6"/>
</g>
<g style="mix-blend-mode:multiply">
<path d="M15.8725 60.2547C16.1999 62.4113 17.3153 64.3698 19.0029 65.7518C19.2201 65.9204 19.4705 66.0411 19.7377 66.1059C20.0048 66.1708 20.2827 66.1783 20.553 66.128C20.8233 66.0777 21.0799 65.9708 21.3059 65.8142C21.5318 65.6577 21.7221 65.455 21.8641 65.2196C22.4902 64.1991 23.3041 62.8968 24.0867 61.5507C25.2145 59.6695 26.5778 57.94 28.1438 56.4043L22.6467 67.5173C23.2634 67.6551 23.8931 67.7265 24.525 67.7302C26.6178 67.7186 28.6374 66.9586 30.2187 65.5875C31.7999 64.2164 32.8383 62.3248 33.1462 60.2547C33.2133 60.6836 33.2488 61.1167 33.2527 61.5507C33.3377 62.751 33.1747 63.9559 32.7738 65.0904C32.3729 66.2249 31.7428 67.2647 30.9226 68.1451C30.1023 69.0255 29.1097 69.7275 28.0063 70.2076C26.903 70.6876 25.7126 70.9354 24.5094 70.9354C23.3061 70.9354 22.1157 70.6876 21.0124 70.2076C19.9091 69.7275 18.9164 69.0255 18.0962 68.1451C17.2759 67.2647 16.6458 66.2249 16.2449 65.0904C15.844 63.9559 15.681 62.751 15.7661 61.5507C15.7699 61.1167 15.8054 60.6836 15.8725 60.2547Z" fill="#C5C3E6"/>
</g>
<path d="M56.1848 92.3424C56.1848 97.5994 54.0965 102.641 50.3791 106.359C46.6618 110.076 41.62 112.164 36.3629 112.164C31.1058 112.164 26.064 110.076 22.3467 106.359C18.6294 102.641 16.541 97.5994 16.541 92.3424C16.541 81.3921 25.4127 50.3945 36.3629 50.3945C47.3132 50.3945 56.1848 81.3921 56.1848 92.3424Z" fill="#70A2FF"/>
<path d="M36.3642 56.2416C38.851 56.2402 41.3152 55.7686 43.6268 54.8517C41.3729 52.1032 38.9249 50.3877 36.3642 50.3877C33.8035 50.3877 31.3555 52.1032 29.1016 54.8517C31.413 55.7692 33.8773 56.2408 36.3642 56.2416Z" fill="#474CA8"/>
<g style="mix-blend-mode:screen">
<path d="M36.361 61.5514C39.1171 61.5462 41.8689 61.3369 44.5941 60.9253C44.7242 60.9048 44.8473 60.8528 44.9527 60.7738C45.0581 60.6948 45.1426 60.5911 45.1988 60.472C45.255 60.3528 45.2812 60.2217 45.2751 60.0901C45.269 59.9586 45.2308 59.8304 45.1638 59.717C44.6255 58.8112 44.0382 57.9355 43.4045 57.0937C43.3075 56.9721 43.1766 56.8821 43.0282 56.8353C42.8799 56.7884 42.721 56.7869 42.5718 56.8307C38.5088 57.9161 34.2321 57.9161 30.169 56.8307C30.0178 56.7851 29.8562 56.787 29.7061 56.8363C29.5561 56.8856 29.4248 56.9798 29.3301 57.1062C28.6878 57.9474 28.0921 58.8231 27.5457 59.7295C27.4788 59.843 27.4406 59.9711 27.4345 60.1027C27.4284 60.2343 27.4545 60.3654 27.5107 60.4845C27.5669 60.6037 27.6514 60.7073 27.7568 60.7863C27.8622 60.8653 27.9853 60.9174 28.1155 60.9379C30.8451 61.3453 33.6011 61.5504 36.361 61.5514Z" fill="#235ECC"/>
</g>
<path d="M54.6129 42.1192C58.8851 32.0399 54.1774 20.4057 44.0981 16.1335C34.0188 11.8613 22.3846 16.5689 18.1124 26.6482C13.8402 36.7275 18.5479 48.3617 28.6272 52.6339C38.7065 56.9061 50.3407 52.1985 54.6129 42.1192Z" fill="#70A2FF"/>
<g style="mix-blend-mode:multiply">
<path d="M36.3629 49.5988C31.5042 49.5974 26.8152 47.811 23.1873 44.579C19.5594 41.347 17.2453 36.8947 16.685 32.0684C16.3476 34.8524 16.6048 37.6763 17.4395 40.3535C18.2743 43.0307 19.6676 45.5004 21.5275 47.5993C23.3873 49.6982 25.6714 51.3785 28.2288 52.5294C30.7861 53.6802 33.5586 54.2752 36.3629 54.2752C39.1673 54.2752 41.9397 53.6802 44.4971 52.5294C47.0545 51.3785 49.3385 49.6982 51.1984 47.5993C53.0583 45.5004 54.4516 43.0307 55.2863 40.3535C56.1211 37.6763 56.3783 34.8524 56.0408 32.0684C55.4805 36.8947 53.1665 41.347 49.5386 44.579C45.9106 47.811 41.2217 49.5974 36.3629 49.5988Z" fill="#C5C3E6"/>
</g>
<path d="M41.6524 75.6087C44.5742 72.6869 44.5742 67.9498 41.6524 65.028C38.7306 62.1062 33.9934 62.1062 31.0716 65.028C28.1498 67.9498 28.1498 72.6869 31.0716 75.6087C33.9934 78.5305 38.7306 78.5305 41.6524 75.6087Z" fill="#474CA8"/>
<path d="M36.3616 76.5709C39.8125 76.5709 42.61 73.7734 42.61 70.3226C42.61 66.8717 39.8125 64.0742 36.3616 64.0742C32.9108 64.0742 30.1133 66.8717 30.1133 70.3226C30.1133 73.7734 32.9108 76.5709 36.3616 76.5709Z" fill="#42F9FF"/>
<path d="M36.3623 48.6542C44.2426 48.6542 50.6308 42.266 50.6308 34.3857C50.6308 26.5054 44.2426 20.1172 36.3623 20.1172C28.482 20.1172 22.0938 26.5054 22.0938 34.3857C22.0938 42.266 28.482 48.6542 36.3623 48.6542Z" fill="#474CA8"/>
<path d="M48.3585 33.0958C45.1153 31.5181 42.3042 31.6997 39.2051 33.0958C40.4385 28.5567 46.956 28.419 48.3585 33.0958Z" fill="#42F9FF"/>
<path d="M34.8516 39.8321C38.4265 40.3204 41.0373 39.2811 43.5479 36.9834C43.7858 41.679 37.6314 43.8265 34.8516 39.8321Z" fill="#42F9FF"/>
<path d="M33.9385 33.0958C30.6954 31.5181 27.8843 31.6997 24.7852 33.0958C26.0185 28.5567 32.5549 28.419 33.9385 33.0958Z" fill="#42F9FF"/>
<g style="mix-blend-mode:screen">
<path d="M55.2002 56.9742C54.2922 55.9865 53.1889 55.1983 51.9602 54.6594C50.7316 54.1205 49.4044 53.8428 48.0628 53.8438C47.3208 53.8459 46.5815 53.932 45.8589 54.1005C45.7822 54.1196 45.711 54.1564 45.6511 54.208C45.5911 54.2596 45.544 54.3244 45.5136 54.3974C45.4832 54.4704 45.4703 54.5495 45.4759 54.6284C45.4815 54.7073 45.5055 54.7838 45.5459 54.8518L46.7542 56.8865C46.8009 56.9665 46.869 57.0318 46.9509 57.075C47.0328 57.1181 47.1252 57.1375 47.2175 57.1307C47.4993 57.1307 47.7748 57.1307 48.0628 57.1307C50.2001 57.1247 52.3211 57.5043 54.3236 58.2514C54.4931 58.3513 54.6941 58.3833 54.8861 58.3407C55.0782 58.2981 55.2469 58.1842 55.3582 58.022C55.4695 57.8598 55.5151 57.6615 55.4858 57.4669C55.4564 57.2724 55.3543 57.0963 55.2002 56.9742Z" fill="#272DA1"/>
</g>
<g style="mix-blend-mode:screen">
<path d="M17.9039 56.9746C19.0657 55.7094 20.5431 54.7758 22.1846 54.2698C23.826 53.7637 25.5726 53.7032 27.2451 54.0946C27.3208 54.1153 27.3906 54.1532 27.4491 54.2054C27.5076 54.2576 27.5532 54.3227 27.5824 54.3955C27.6115 54.4683 27.6233 54.5469 27.617 54.625C27.6106 54.7032 27.5862 54.7788 27.5457 54.8459L26.331 56.8807C26.2854 56.9602 26.2184 57.0253 26.1376 57.0684C26.0568 57.1116 25.9654 57.1312 25.874 57.1249C25.5923 57.1249 25.3105 57.1249 25.0288 57.1249C22.8968 57.1146 20.7803 57.4879 18.7804 58.2268C18.6151 58.3034 18.4281 58.3194 18.2522 58.272C18.0762 58.2246 17.9226 58.1169 17.8181 57.9676C17.7136 57.8183 17.6649 57.6371 17.6806 57.4555C17.6963 57.274 17.7754 57.1038 17.9039 56.9746Z" fill="#272DA1"/>
</g>
<g style="mix-blend-mode:screen">
<path d="M36.3646 18.6639C40.0938 18.6462 43.7833 19.4298 47.1834 20.9616C47.3155 20.9994 47.4562 20.9926 47.5841 20.9425C47.7119 20.8923 47.8197 20.8016 47.8909 20.6841C47.962 20.5667 47.9926 20.4291 47.9779 20.2926C47.9632 20.1561 47.904 20.0282 47.8095 19.9286C44.5466 17.3379 40.5028 15.9277 36.3365 15.9277C32.1701 15.9277 28.1264 17.3379 24.8634 19.9286C24.7689 20.0282 24.7097 20.1561 24.695 20.2926C24.6803 20.4291 24.7109 20.5667 24.7821 20.6841C24.8532 20.8016 24.961 20.8923 25.0889 20.9425C25.2167 20.9926 25.3575 20.9994 25.4895 20.9616C28.9084 19.4264 32.6169 18.6428 36.3646 18.6639Z" fill="#235ECC"/>
</g>
<g style="mix-blend-mode:multiply">
<path d="M36.3607 44.7779C33.0529 44.7879 29.7751 44.1498 26.7127 42.8997C26.6312 42.8745 26.5439 42.8755 26.4631 42.9026C26.3823 42.9297 26.312 42.9815 26.2622 43.0507C26.2124 43.1199 26.1856 43.2029 26.1855 43.2882C26.1855 43.3734 26.2122 43.4565 26.2619 43.5257C27.5842 44.8588 29.1574 45.9168 30.8907 46.6389C32.6239 47.3609 34.483 47.7326 36.3607 47.7326C38.2383 47.7326 40.0974 47.3609 41.8306 46.6389C43.5639 45.9168 45.1371 44.8588 46.4594 43.5257C46.5103 43.4561 46.5377 43.3721 46.5377 43.2858C46.5376 43.1996 46.5102 43.1156 46.4594 43.0459C46.4085 42.9763 46.3369 42.9246 46.2547 42.8983C46.1726 42.872 46.0842 42.8725 46.0024 42.8997C42.9423 44.1504 39.6665 44.7886 36.3607 44.7779Z" fill="#C5C3E6"/>
</g>
<g style="mix-blend-mode:screen">
<path d="M36.4488 25.6702C39.201 25.6586 41.9314 26.1597 44.5002 27.1477C44.7156 27.2244 44.9506 27.226 45.167 27.1524C45.3834 27.0788 45.5686 26.9342 45.6925 26.7421C45.8165 26.55 45.8719 26.3217 45.8498 26.0942C45.8277 25.8667 45.7294 25.6533 45.5709 25.4886C44.4244 24.2027 43.019 23.1737 41.4469 22.4692C39.8748 21.7646 38.1715 21.4004 36.4488 21.4004C34.726 21.4004 33.0227 21.7646 31.4506 22.4692C29.8785 23.1737 28.4731 24.2027 27.3267 25.4886C27.1681 25.6533 27.0698 25.8667 27.0477 26.0942C27.0256 26.3217 27.0811 26.55 27.205 26.7421C27.3289 26.9342 27.5141 27.0788 27.7306 27.1524C27.947 27.226 28.1819 27.2244 28.3973 27.1477C30.9661 26.1597 33.6965 25.6586 36.4488 25.6702Z" fill="#272DA1"/>
</g>
<path d="M54.9206 41.7294H54.4698C53.4684 36.8825 53.4684 31.8821 54.4698 27.0352H54.9018C56.8132 27.091 58.6277 27.8895 59.96 29.2613C61.2923 30.633 62.0375 32.47 62.0375 34.3823C62.0375 36.2946 61.2923 38.1315 59.96 39.5033C58.6277 40.8751 56.8132 41.6736 54.9018 41.7294H54.9206Z" fill="#474CA8"/>
<g style="mix-blend-mode:screen">
<path d="M55.2779 31.1481C55.3468 30.2966 55.4344 29.4452 55.5471 28.6C55.5621 28.5066 55.5958 28.4171 55.6462 28.3371C55.6967 28.2571 55.7628 28.1881 55.8406 28.1343C55.9184 28.0805 56.0062 28.043 56.0989 28.024C56.1916 28.005 56.2871 28.005 56.3798 28.0239C57.3817 28.3447 58.2995 28.8849 59.0663 29.6051C59.8331 30.3253 60.4297 31.2075 60.8125 32.1874C60.8466 32.3029 60.8466 32.4258 60.8126 32.5413C60.7786 32.6568 60.712 32.76 60.6208 32.8387C60.5297 32.9173 60.4177 32.968 60.2985 32.9846C60.1792 33.0012 60.0577 32.9831 59.9485 32.9325C58.5897 32.4036 57.1857 31.9992 55.7537 31.7241C55.6172 31.7041 55.4929 31.6341 55.405 31.5277C55.3171 31.4213 55.2718 31.286 55.2779 31.1481Z" fill="#272DA1"/>
</g>
<g style="mix-blend-mode:multiply">
<path d="M57.2998 39.2622C56.8901 39.3583 56.4592 39.292 56.0973 39.0772C55.7355 38.8624 55.4708 38.5159 55.359 38.1102C54.5784 34.9733 54.1935 31.751 54.2132 28.5186C53.6103 32.1917 53.5765 35.9357 54.1131 39.6191L54.1694 39.9947C54.2633 40.577 54.3697 41.153 54.4887 41.729H54.9207C56.2895 41.7074 57.6255 41.3069 58.7805 40.572C59.9354 39.837 60.8641 38.7963 61.4633 37.5655C60.6056 38.3168 58.671 38.9116 57.2998 39.2622Z" fill="#C5C3E6"/>
</g>
<path d="M17.6487 41.7296H18.0807C19.0821 36.8827 19.0821 31.8823 18.0807 27.0354H17.6487C16.6659 27.0067 15.6872 27.1755 14.7707 27.5318C13.8543 27.8881 13.0186 28.4247 12.3132 29.1098C11.6079 29.7949 11.0471 30.6145 10.6642 31.5202C10.2813 32.4259 10.084 33.3992 10.084 34.3825C10.084 35.3658 10.2813 36.3391 10.6642 37.2448C11.0471 38.1505 11.6079 38.9701 12.3132 39.6552C13.0186 40.3403 13.8543 40.8769 14.7707 41.2332C15.6872 41.5895 16.6659 41.7583 17.6487 41.7296Z" fill="#474CA8"/>
<g style="mix-blend-mode:screen">
<path d="M17.2848 31.1482C17.2222 30.2967 17.1345 29.4452 17.0218 28.6C17.0061 28.5064 16.9717 28.4168 16.9206 28.3368C16.8695 28.2567 16.8029 28.1877 16.7246 28.134C16.6463 28.0802 16.558 28.0428 16.4649 28.0239C16.3718 28.005 16.2759 28.0051 16.1829 28.024C15.1814 28.3456 14.264 28.886 13.4973 29.6061C12.7306 30.3263 12.1338 31.2081 11.7502 32.1875C11.7161 32.303 11.7161 32.4258 11.7501 32.5413C11.7841 32.6568 11.8506 32.7601 11.9418 32.8387C12.033 32.9174 12.1449 32.968 12.2642 32.9847C12.3834 33.0013 12.505 32.9832 12.6142 32.9325C13.9736 32.4053 15.3774 32.0009 16.809 31.7242C16.9461 31.7055 17.0713 31.6359 17.1594 31.5292C17.2476 31.4224 17.2923 31.2864 17.2848 31.1482Z" fill="#272DA1"/>
</g>
<g style="mix-blend-mode:multiply">
<path d="M15.265 39.2622C15.6756 39.3601 16.1082 39.2947 16.4714 39.0798C16.8347 38.8648 17.1003 38.5172 17.2122 38.1102C17.9897 34.9727 18.3745 31.7509 18.3579 28.5186C18.9587 32.192 18.9904 35.936 18.4518 39.6191L18.3955 39.9947C18.3078 40.577 18.2014 41.153 18.0824 41.729H17.6504C16.2806 41.7086 14.9432 41.3086 13.7871 40.5736C12.6309 39.8386 11.7013 38.7973 11.1016 37.5655C11.9593 38.3168 13.8939 38.9116 15.265 39.2622Z" fill="#C5C3E6"/>
</g>
</g>
<path d="M35.9938 72C28.8742 71.9988 21.9148 69.8865 15.9956 65.9303C10.0764 61.9741 5.46313 56.3516 2.73915 49.7737C0.0151764 43.1958 -0.697216 35.958 0.692051 28.9752C2.08132 21.9925 5.50986 15.5785 10.5442 10.5442C15.5785 5.50986 21.9925 2.08132 28.9752 0.692051C35.958 -0.697216 43.1958 0.0151764 49.7737 2.73915C56.3516 5.46313 61.9741 10.0764 65.9303 15.9956C69.8865 21.9148 71.9988 28.8742 72 35.9938C71.9917 45.5407 68.1955 54.6942 61.4449 61.4449C54.6942 68.1955 45.5407 71.9917 35.9938 72ZM35.9938 2.42297C29.3513 2.42297 22.8581 4.39276 17.3352 8.08321C11.8123 11.7737 7.50788 17.019 4.96623 23.1559C2.42457 29.2929 1.75988 36.0457 3.0562 42.5603C4.35253 49.075 7.55165 55.059 12.249 59.7555C16.9463 64.4519 22.9309 67.6499 29.4458 68.945C35.9607 70.2402 42.7134 69.5742 48.8499 67.0314C54.9863 64.4886 60.2309 60.1832 63.9203 54.6596C67.6097 49.136 69.5783 42.6424 69.577 36C69.5688 27.0957 66.0279 18.5585 59.7316 12.2622C53.4353 5.96589 44.8981 2.425 35.9938 2.41671V2.42297Z" fill="#E4EDFF"/>
</svg>
