<svg width="28" height="28" viewBox="0 0 28 28" fill="none" xmlns="http://www.w3.org/2000/svg">
<path d="M14 28C21.732 28 28 21.732 28 14C28 6.26801 21.732 0 14 0C6.26801 0 0 6.26801 0 14C0 21.732 6.26801 28 14 28Z" fill="white"/>
<path d="M16.9743 6.22266H11.0321C8.3814 6.22266 6.22852 8.37555 6.22852 11.0262V16.9684C6.22852 19.6191 8.3814 21.772 11.0321 21.772H16.9743C19.625 21.772 21.7778 19.6191 21.7778 16.9684V11.0262C21.7778 8.37555 19.625 6.22266 16.9743 6.22266ZM20.0418 16.9747C20.0418 18.6671 18.6667 20.0484 16.9681 20.0484H11.0258C9.3334 20.0484 7.95207 18.6733 7.95207 16.9747V11.0324C7.95207 9.33999 9.32718 7.95866 11.0258 7.95866H16.9681C18.6605 7.95866 20.0418 9.33377 20.0418 11.0324V16.9747Z" fill="#833AB4"/>
<path d="M13.9994 10.0244C11.8092 10.0244 10.0234 11.8102 10.0234 14.0004C10.0234 16.1906 11.8092 17.9764 13.9994 17.9764C16.1897 17.9764 17.9754 16.1906 17.9754 14.0004C17.9754 11.8102 16.1897 10.0244 13.9994 10.0244ZM13.9994 16.4146C12.6679 16.4146 11.5852 15.332 11.5852 14.0004C11.5852 12.6689 12.6679 11.5862 13.9994 11.5862C15.331 11.5862 16.4137 12.6689 16.4137 14.0004C16.4137 15.332 15.331 16.4146 13.9994 16.4146Z" fill="#833AB4"/>
<path d="M18.2787 10.4602C18.645 10.4008 18.8938 10.0557 18.8344 9.68943C18.7751 9.32312 18.43 9.07431 18.0637 9.13369C17.6973 9.19307 17.4485 9.53816 17.5079 9.90447C17.5673 10.2708 17.9124 10.5196 18.2787 10.4602Z" fill="#833AB4"/>
</svg>
