<svg width="28" height="28" viewBox="0 0 28 28" fill="none" xmlns="http://www.w3.org/2000/svg">
<path d="M14 28C21.732 28 28 21.732 28 14C28 6.26801 21.732 0 14 0C6.26801 0 0 6.26801 0 14C0 21.732 6.26801 28 14 28Z" fill="url(#paint0_linear_12990_11437)"/>
<path d="M16.9743 6.22266H11.0321C8.3814 6.22266 6.22852 8.37555 6.22852 11.0262V16.9684C6.22852 19.6191 8.3814 21.772 11.0321 21.772H16.9743C19.625 21.772 21.7778 19.6191 21.7778 16.9684V11.0262C21.7778 8.37555 19.625 6.22266 16.9743 6.22266ZM20.0418 16.9747C20.0418 18.6671 18.6667 20.0484 16.9681 20.0484H11.0258C9.3334 20.0484 7.95207 18.6733 7.95207 16.9747V11.0324C7.95207 9.33999 9.32718 7.95866 11.0258 7.95866H16.9681C18.6605 7.95866 20.0418 9.33377 20.0418 11.0324V16.9747Z" fill="white"/>
<path d="M14.0004 10.0244C11.8102 10.0244 10.0244 11.8102 10.0244 14.0004C10.0244 16.1906 11.8102 17.9764 14.0004 17.9764C16.1906 17.9764 17.9764 16.1906 17.9764 14.0004C17.9764 11.8102 16.1906 10.0244 14.0004 10.0244ZM14.0004 16.4146C12.6689 16.4146 11.5862 15.332 11.5862 14.0004C11.5862 12.6689 12.6689 11.5862 14.0004 11.5862C15.332 11.5862 16.4146 12.6689 16.4146 14.0004C16.4146 15.332 15.332 16.4146 14.0004 16.4146Z" fill="white"/>
<path d="M18.2787 10.4602C18.645 10.4008 18.8938 10.0557 18.8344 9.68943C18.7751 9.32312 18.43 9.07431 18.0637 9.13369C17.6973 9.19307 17.4485 9.53816 17.5079 9.90447C17.5673 10.2708 17.9124 10.5196 18.2787 10.4602Z" fill="white"/>
<defs>
<linearGradient id="paint0_linear_12990_11437" x1="3.34003" y1="24.66" x2="23.2356" y2="4.76442" gradientUnits="userSpaceOnUse">
<stop stop-color="#FEE411"/>
<stop offset="0.0518459" stop-color="#FEDB16"/>
<stop offset="0.1381" stop-color="#FEC125"/>
<stop offset="0.2481" stop-color="#FE983D"/>
<stop offset="0.3762" stop-color="#FE5F5E"/>
<stop offset="0.5" stop-color="#FE2181"/>
<stop offset="1" stop-color="#9000DC"/>
</linearGradient>
</defs>
</svg>
