<svg width="208" height="40" viewBox="0 0 208 40" fill="none" xmlns="http://www.w3.org/2000/svg">
<path d="M34.8374 25.0921C34.6505 25.0242 34.452 24.9933 34.253 25.0012C34.0541 25.0091 33.8587 25.0557 33.678 25.1383C33.4973 25.2209 33.335 25.3377 33.2002 25.4823C33.0655 25.6268 32.9609 25.7962 32.8926 25.9807C32.8926 25.9807 31.8985 29.7192 22.6618 31.3987C22.0437 30.0211 20.5013 27.6285 17.3874 27.9909L18.0231 29.4C18.3902 29.433 18.7603 29.4146 19.1222 29.3454C18.7373 29.7882 16.4545 30.6596 14.8654 30.2972C14.9838 30.2591 15.0942 30.2006 15.192 30.1247L14.6293 29.144C14.6293 29.144 12.7778 30.2339 13.5009 31.8645C14.224 33.4951 16.4719 32.7273 16.4719 32.7273C16.4719 32.7273 15.6643 33.4002 14.8975 33.4002C14.4077 34.7374 16.0812 37.0294 17.9006 36.7591C17.8091 36.8771 17.6914 36.9728 17.5564 37.0386C17.4214 37.1044 17.2727 37.1387 17.1222 37.1387C18.3379 37.78 22.2565 37.9381 22.9533 34.3808C34.1668 32.3937 35.7325 27.0275 35.7412 27.0102C35.8096 26.8258 35.8404 26.6298 35.832 26.4336C35.8236 26.2373 35.776 26.0446 35.6921 25.8665C35.6082 25.6883 35.4895 25.5283 35.3428 25.3954C35.1962 25.2626 35.0244 25.1595 34.8374 25.0921Z" fill="#20BFB8"/>
<path d="M10.215 26.6666L12.0402 29.9635C12.3839 30.563 12.3839 31.3601 11.9164 31.6135L9.16663 33.0905C9.2639 33.1426 9.3549 33.2037 9.43815 33.2727C9.70164 33.4862 9.89835 33.758 10.0087 34.061C10.1191 34.3641 10.1392 34.6878 10.0672 35C14.1402 34.0854 14.6421 28.57 10.215 26.6666Z" fill="#20BFB8"/>
<path d="M7.70253 33.4866C8.49929 32.1922 7.70253 30.9067 6.69685 30.7235C6.60515 30.7044 6.51159 30.6974 6.41827 30.7028C7.13701 29.1809 6.37091 27.7239 5.3931 27.5229C4.01414 27.2274 3.42634 29.8576 3.33719 31.3913C3.24804 32.9251 4.70222 32.5262 4.70222 32.5262C4.79973 32.4612 4.89445 32.3991 4.9808 32.3341C4.82639 32.8478 4.73282 33.3799 4.70222 33.9181C4.63258 35.1948 6.09512 34.8845 6.09512 34.8845C6.19263 34.8342 6.28456 34.7811 6.3737 34.7308C6.29849 34.8254 6.22884 34.917 6.16756 35.0057C5.44603 36.0311 6.81665 36.6162 6.81665 36.6162C10.1373 37.0536 10.5217 34.5298 9.50212 33.5103C8.96446 33.002 8.3154 33.1173 7.70253 33.4866Z" fill="#20BFB8"/>
<path d="M26.2502 14.1667C25.5601 14.1667 25.0001 14.9145 25.0001 15.8334C25.0001 16.7522 25.5601 17.5 26.2502 17.5C26.9402 17.5 27.5001 16.755 27.5001 15.8334C27.5001 14.9116 26.9462 14.1667 26.2502 14.1667Z" fill="#20BFB8"/>
<path d="M34.7611 10.6563C34.9896 10.3226 35.2905 10.0407 35.643 9.83008C35.9955 9.61939 36.3912 9.48506 36.8028 9.43627C34.9552 7.49844 30.0921 7.0615 30.0921 7.0615C30.3115 7.34468 30.4468 7.68014 30.4834 8.03186C29.895 7.24877 28.1475 5.52654 25.941 5.83297C26.038 5.63136 26.1584 5.441 26.2999 5.26551C26.0249 4.49256 25.8028 3.70306 25.635 2.90208C25.9869 2.7841 26.2828 2.54766 26.4685 2.23619C26.6542 1.92472 26.717 1.55912 26.6457 1.2065C26.5742 0.853888 26.3734 0.537935 26.0799 0.316665C25.7865 0.0953954 25.42 -0.0163666 25.048 0.00193957C24.6759 0.0202457 24.3233 0.167382 24.0546 0.416309C23.786 0.665237 23.6195 0.99927 23.5857 1.35706C23.5519 1.71484 23.6531 2.07236 23.8707 2.36399C24.0883 2.65562 24.4075 2.86178 24.77 2.94461C24.8004 3.97085 24.9665 4.98916 25.2643 5.97483C22.8313 6.78913 22.3782 9.83064 22.3782 9.83064C22.2597 9.3987 22.2709 8.94309 22.4106 8.517C21.7633 8.86031 16.4471 12.7729 16.6737 17.6134C16.9002 22.4537 21.7133 27.3963 29.4449 25.3648C37.1764 23.3333 37.6442 17.0175 37.6442 17.0175C37.6442 17.0175 36.4468 17.0487 36.1556 16.2373C40.8569 16.992 39.7948 8.10279 34.7611 10.6563ZM32.231 19.7527C30.2481 23.0155 21.122 24.4625 18.8596 21.2933C17.9034 19.9541 17.6563 18.9582 17.5827 17.409C17.521 16.0699 17.7269 15.0201 18.4153 13.9419C19.7981 11.7799 26.8442 10.6818 30.3834 11.5643C32.7546 12.1374 33.2371 18.0872 32.231 19.7356V19.7527Z" fill="#20BFB8"/>
<path d="M25.6668 20.0753C25.6238 20.045 25.5749 20.0231 25.5231 20.011C25.4713 19.9989 25.4175 19.9968 25.3648 20.0047C25.3122 20.0126 25.2616 20.0304 25.2161 20.0572C25.1705 20.084 25.1309 20.1191 25.0995 20.1606C24.095 21.5029 22.2604 20.5771 22.2552 20.5746C22.1599 20.5274 22.0491 20.5185 21.9471 20.55C21.8451 20.5816 21.7603 20.6509 21.7113 20.7427C21.6623 20.8345 21.6531 20.9413 21.6858 21.0397C21.7185 21.138 21.7903 21.2198 21.8856 21.267C21.8856 21.267 24.3396 22.5065 25.7552 20.6198C25.7866 20.5785 25.8092 20.5316 25.8218 20.4818C25.8343 20.4321 25.8365 20.3804 25.8283 20.3298C25.8201 20.2792 25.8016 20.2307 25.7739 20.187C25.7462 20.1434 25.7097 20.1054 25.6668 20.0753Z" fill="#20BFB8"/>
<path d="M19.5832 15C18.8924 15 18.3333 15.7474 18.3333 16.6682C18.3333 17.589 18.8924 18.3333 19.5832 18.3333C20.274 18.3333 20.8333 17.589 20.8333 16.6682C20.8333 15.7474 20.274 15 19.5832 15Z" fill="#20BFB8"/>
<path fill-rule="evenodd" clip-rule="evenodd" d="M9.9143 14.9782C11.6087 14.9782 13.8345 17.6121 14.8831 20.8314C15.9317 24.0507 15.4031 26.6847 13.7059 26.6847C12.0087 26.6847 9.78576 24.0507 8.73715 20.8314C7.68855 17.6121 8.21717 14.9782 9.9143 14.9782ZM21.0176 37.5864L21.5891 38.9005C21.6331 38.9913 21.659 39.0903 21.6652 39.1916C21.6714 39.2928 21.6577 39.3944 21.625 39.4902C21.5923 39.586 21.5413 39.6741 21.4749 39.7494C21.4084 39.8247 21.3279 39.8856 21.2382 39.9285C21.1484 39.9715 21.0512 39.9956 20.9522 39.9995C20.8532 40.0034 20.7545 39.9869 20.6617 39.9511C20.569 39.9153 20.4842 39.8608 20.4123 39.791C20.3405 39.7211 20.2831 39.6372 20.2433 39.5443L19.5347 38.1161C20.0573 38.0373 20.5605 37.8576 21.0176 37.5864ZM16.2345 26.8544L17.566 29.7459C16.9152 29.969 16.235 30.0893 15.5488 30.103L14.363 27.8407C12.043 27.791 9.18573 24.5629 7.95713 20.5856C6.72851 16.6083 7.60569 13.3334 9.93721 13.3334C12.2687 13.3334 15.1574 16.579 16.3946 20.5856C17.2203 23.2606 17.0975 25.5989 16.2345 26.8544ZM0.293991 22.8098L5.13131 20.2842C5.53133 20.0735 6.01992 20.1846 6.31421 20.7553L11.2487 30.3664C11.5344 30.9517 11.5773 31.695 11.1916 31.935L9.34574 33.1057C8.81712 32.7721 8.20282 32.8979 7.58854 33.2286C7.77648 32.9852 7.89807 32.6951 7.94095 32.3879C7.98383 32.0807 7.94645 31.7673 7.83262 31.4797C7.7188 31.1921 7.53259 30.9406 7.29297 30.7506C7.05335 30.5607 6.76887 30.4392 6.4685 30.3986C6.36201 30.3789 6.25367 30.3721 6.14563 30.3781C6.93709 28.8329 6.08563 27.3461 5.00274 27.1383C3.99127 26.9422 3.36839 28.0397 3.03409 29.2572L0.248275 24.3785C-0.0774509 23.8225 -0.103166 23.0235 0.293991 22.8098Z" fill="#20BFB8"/>
<path d="M61.6154 16.9311H57.5843L55.4153 14.3656H50.7894V16.9311H47.7767V11.9743H56.2432C57.1761 11.9743 57.9031 11.5563 57.9031 10.8907C57.9031 10.1361 57.2772 9.76081 56.2432 9.76081H47.7767L49.7398 7.23792H55.9983C58.2101 7.23792 61.0012 7.9344 61.0012 10.7011C61.0198 11.4326 60.7724 12.1463 60.3046 12.7107C59.8368 13.2752 59.1801 13.6526 58.455 13.7736C58.9437 14.162 59.4011 14.5875 59.8233 15.0466L61.6154 16.9311Z" fill="black"/>
<path d="M77.2846 12.0783C77.2846 15.5376 74.8978 17.1086 70.1709 17.1086C65.444 17.1086 63.0533 15.5608 63.0533 12.0783C63.0533 8.59567 65.4285 7.0788 70.1709 7.0788C74.9134 7.0788 77.2846 8.61499 77.2846 12.0783ZM74.2875 12.0783C74.2875 9.99253 73.1952 9.6017 70.1709 9.6017C67.1466 9.6017 66.0505 9.98865 66.0505 12.0783C66.0505 14.1678 67.1427 14.5664 70.1709 14.5664C73.1991 14.5664 74.2875 14.164 74.2875 12.0783Z" fill="black"/>
<path d="M92.3439 14.1063C92.3439 15.7123 91.4574 16.9311 88.3869 16.9311H79.8311V11.0339H88.4455C88.8846 11.0339 89.2891 10.8753 89.2891 10.3838C89.2891 9.89239 88.8689 9.76081 88.4455 9.76081H79.8311L81.8679 7.23792H88.3167C90.6494 7.23792 92.1417 8.13944 92.1417 9.91946C92.1681 10.3541 92.0534 10.7857 91.8148 11.1507C91.5763 11.5156 91.2263 11.7947 90.8161 11.9471C91.2775 12.0844 91.6786 12.3719 91.956 12.7635C92.2325 13.1551 92.3695 13.6281 92.3439 14.1063ZM82.859 13.1041V14.4391H88.4026C89.0555 14.4391 89.3353 14.2069 89.3353 13.7581C89.3353 13.3092 89.0555 13.1041 88.4026 13.1041H82.859Z" fill="black"/>
<path d="M108.803 12.0783C108.803 15.5376 106.416 17.1086 101.685 17.1086C96.9539 17.1086 94.5709 15.5608 94.5709 12.0783C94.5709 8.59567 96.9424 7.0788 101.685 7.0788C106.427 7.0788 108.803 8.61499 108.803 12.0783ZM105.806 12.0783C105.806 9.99253 104.713 9.6017 101.685 9.6017C98.6568 9.6017 97.568 9.98865 97.568 12.0783C97.568 14.1678 98.6609 14.5664 101.685 14.5664C104.71 14.5664 105.806 14.164 105.806 12.0783Z" fill="black"/>
<path d="M117.358 10.8752H123.578V16.9311H116.908C113.533 16.9311 111.042 14.7989 111.042 11.9897C111.042 9.18038 113.533 7.23792 116.908 7.23792H123.878L121.934 9.76081H116.908C115.279 9.76081 114.039 10.7437 114.039 12.1213C114.039 13.4988 115.232 14.443 116.908 14.443H120.589V13.0384H115.536L117.358 10.8752Z" fill="black"/>
<path d="M140.146 16.9311H136.115L133.946 14.3656H129.319V16.9311H126.307V11.9743H134.774C135.707 11.9743 136.434 11.5563 136.434 10.8907C136.434 10.1361 135.807 9.76081 134.774 9.76081H126.307L128.27 7.23792H134.529C136.741 7.23792 139.532 7.9344 139.532 10.7011C139.551 11.4326 139.303 12.1463 138.835 12.7107C138.367 13.2752 137.711 13.6526 136.985 13.7736C137.474 14.162 137.932 14.5875 138.354 15.0466L140.146 16.9311Z" fill="black"/>
<path d="M146.357 16.9306L148.176 14.4387H150.622C151.205 14.4387 151.885 14.4387 152.351 14.4657C152.091 14.1175 151.683 13.5254 151.364 13.0611L149.619 10.4994L145.047 16.9306H141.483L147.726 8.16604C147.933 7.83769 148.219 7.56621 148.558 7.37628C148.898 7.18635 149.28 7.08408 149.669 7.0788C150.057 7.08086 150.437 7.18189 150.774 7.37232C151.111 7.56266 151.393 7.83604 151.593 8.16604L157.674 16.9306H146.357Z" fill="black"/>
<path d="M166.291 16.9314H159.772V10.891H162.8V14.4394H166.299C167.974 14.4394 169.179 13.5107 169.179 12.1177C169.179 10.7246 167.928 9.75721 166.299 9.75721H159.772L161.692 7.23431H166.291C169.696 7.23431 172.157 9.19221 172.157 11.9861C172.157 14.7799 169.669 16.9314 166.291 16.9314Z" fill="black"/>
<path d="M177.759 16.9308H174.746V7.25696H177.759V16.9308Z" fill="black"/>
<path d="M189.312 16.5671L183.345 11.2349V16.927H180.624V8.88605C180.624 7.59748 181.401 7.07507 182.268 7.07507C182.494 7.0759 182.718 7.12262 182.925 7.21251C183.132 7.30231 183.319 7.43331 183.473 7.59748L189.44 12.9258V7.23372H192.173V15.2592C192.173 16.5478 191.395 17.0856 190.517 17.0856C190.291 17.0874 190.067 17.0422 189.859 16.9529C189.652 16.8636 189.466 16.7322 189.312 16.5671Z" fill="black"/>
<path d="M200.981 10.8752H207.2V16.9311H200.53C197.156 16.9311 194.668 14.7989 194.668 11.9897C194.668 9.18038 197.156 7.23792 200.53 7.23792H207.5L205.556 9.76081H200.53C198.901 9.76081 197.661 10.7437 197.661 12.1213C197.661 13.4988 198.854 14.443 200.53 14.443H204.223V13.0384H199.169L200.981 10.8752Z" fill="black"/>
<path d="M49.8157 27.3743H47.7926V26.8471H49.8157C50.2383 26.8471 50.5811 26.7769 50.8444 26.6363C51.1109 26.4924 51.3043 26.2983 51.4245 26.0539C51.548 25.8096 51.6098 25.5352 51.6098 25.2306C51.6098 24.9327 51.548 24.6583 51.4245 24.4073C51.3043 24.1563 51.1109 23.9555 50.8444 23.8048C50.5811 23.6509 50.2383 23.5739 49.8157 23.5739H48.0022V30.3513H47.4026V23.0418H49.8157C50.3358 23.0418 50.7729 23.1338 51.1271 23.3179C51.4846 23.502 51.7544 23.758 51.9364 24.086C52.1184 24.414 52.2094 24.7922 52.2094 25.2206C52.2094 25.669 52.1184 26.0556 51.9364 26.3803C51.7544 26.7016 51.4863 26.9476 51.132 27.1182C50.7778 27.2889 50.339 27.3743 49.8157 27.3743Z" fill="black"/>
<path d="M53.171 27.7207V27.555C53.171 27.1601 53.2263 26.7953 53.3368 26.4606C53.4473 26.1259 53.6049 25.8364 53.8097 25.5921C54.0177 25.3478 54.2663 25.1587 54.5556 25.0248C54.8448 24.8876 55.1666 24.8189 55.5208 24.8189C55.8783 24.8189 56.2017 24.8876 56.491 25.0248C56.7802 25.1587 57.0288 25.3478 57.2369 25.5921C57.4449 25.8364 57.6041 26.1259 57.7146 26.4606C57.8251 26.7953 57.8804 27.1601 57.8804 27.555V27.7207C57.8804 28.1156 57.8251 28.4804 57.7146 28.8151C57.6041 29.1464 57.4449 29.4343 57.2369 29.6786C57.0321 29.9229 56.7851 30.1137 56.4958 30.2509C56.2066 30.3848 55.8848 30.4517 55.5306 30.4517C55.1731 30.4517 54.8497 30.3848 54.5604 30.2509C54.2712 30.1137 54.0226 29.9229 53.8146 29.6786C53.6066 29.4343 53.4473 29.1464 53.3368 28.8151C53.2263 28.4804 53.171 28.1156 53.171 27.7207ZM53.7512 27.555V27.7207C53.7512 28.0185 53.7902 28.3014 53.8682 28.5691C53.9462 28.8335 54.0599 29.0695 54.2094 29.277C54.3589 29.4811 54.5442 29.6418 54.7652 29.7589C54.9862 29.8761 55.2413 29.9346 55.5306 29.9346C55.8166 29.9346 56.0685 29.8761 56.2862 29.7589C56.5072 29.6418 56.6925 29.4811 56.842 29.277C56.9915 29.0695 57.1036 28.8335 57.1783 28.5691C57.2564 28.3014 57.2954 28.0185 57.2954 27.7207V27.555C57.2954 27.2605 57.2564 26.981 57.1783 26.7166C57.1036 26.4522 56.9898 26.2163 56.8371 26.0088C56.6876 25.8013 56.5023 25.6373 56.2813 25.5168C56.0603 25.3963 55.8068 25.336 55.5208 25.336C55.2348 25.336 54.9813 25.3963 54.7603 25.5168C54.5426 25.6373 54.3573 25.8013 54.2046 26.0088C54.0551 26.2163 53.9413 26.4522 53.8633 26.7166C53.7886 26.981 53.7512 27.2605 53.7512 27.555Z" fill="black"/>
<path d="M60.6945 29.0812L61.9669 24.9194H62.3764L62.1327 26.0389L60.8018 30.3513H60.3923L60.6945 29.0812ZM59.3734 24.9194L60.4898 29.1063L60.7287 30.3513H60.3045L58.7738 24.9194H59.3734ZM63.9608 29.0912L65.048 24.9194H65.6476L64.1168 30.3513H63.6976L63.9608 29.0912ZM62.4593 24.9194L63.7122 29.046L64.0291 30.3513H63.6196L62.2594 26.0339L62.0303 24.9194H62.4593Z" fill="black"/>
<path d="M68.9493 30.4517C68.6048 30.4517 68.2879 30.3865 67.9986 30.2559C67.7126 30.1254 67.4624 29.9413 67.2479 29.7037C67.0366 29.4661 66.8725 29.1849 66.7555 28.8603C66.6417 28.5323 66.5849 28.1742 66.5849 27.7859V27.5701C66.5849 27.1517 66.645 26.7735 66.7652 26.4355C66.8855 26.0974 67.0512 25.8079 67.2625 25.567C67.4737 25.326 67.7143 25.1419 67.984 25.0147C68.257 24.8842 68.543 24.8189 68.842 24.8189C69.1768 24.8189 69.4741 24.8809 69.7342 25.0047C69.9942 25.1252 70.2119 25.2975 70.3874 25.5218C70.5662 25.7427 70.701 26.0054 70.792 26.31C70.883 26.6112 70.9285 26.9442 70.9285 27.309V27.6755H66.9359V27.1634H70.3484V27.0931C70.3419 26.7886 70.2818 26.5041 70.168 26.2397C70.0575 25.9719 69.8918 25.7544 69.6708 25.5871C69.4498 25.4197 69.1735 25.336 68.842 25.336C68.595 25.336 68.3675 25.3896 68.1595 25.4967C67.9548 25.6038 67.7776 25.7577 67.6281 25.9586C67.4819 26.156 67.3681 26.392 67.2869 26.6664C67.2089 26.9375 67.1699 27.2387 67.1699 27.5701V27.7859C67.1699 28.0872 67.2121 28.3683 67.2966 28.6294C67.3844 28.8871 67.5079 29.1146 67.6671 29.3121C67.8296 29.5096 68.0214 29.6635 68.2424 29.774C68.4634 29.8844 68.7071 29.9397 68.9736 29.9397C69.2856 29.9397 69.5619 29.8811 69.8024 29.7639C70.0429 29.6435 70.259 29.4544 70.4508 29.1966L70.8164 29.4878C70.7027 29.6619 70.5597 29.8225 70.3874 29.9698C70.2184 30.117 70.0153 30.2342 69.778 30.3212C69.5408 30.4082 69.2645 30.4517 68.9493 30.4517Z" fill="black"/>
<path d="M72.8018 25.818V30.3513H72.2217V24.9194H72.7872L72.8018 25.818ZM74.669 24.8792L74.6543 25.4314C74.5893 25.4214 74.526 25.413 74.4642 25.4063C74.4025 25.3996 74.3358 25.3963 74.2643 25.3963C74.0108 25.3963 73.7882 25.4448 73.5965 25.5419C73.408 25.6356 73.2487 25.7678 73.1187 25.9385C72.9887 26.1058 72.8896 26.3033 72.8213 26.5309C72.7531 26.7551 72.7141 26.9961 72.7043 27.2538L72.4898 27.3391C72.4898 26.9844 72.5256 26.6547 72.5971 26.3501C72.6686 26.0456 72.7774 25.7795 72.9237 25.5519C73.0732 25.321 73.2601 25.1419 73.4843 25.0147C73.7118 24.8842 73.9783 24.8189 74.2838 24.8189C74.3586 24.8189 74.4317 24.8256 74.5032 24.839C74.578 24.8491 74.6332 24.8625 74.669 24.8792Z" fill="black"/>
<path d="M77.6684 30.4517C77.3239 30.4517 77.007 30.3865 76.7178 30.2559C76.4318 30.1254 76.1815 29.9413 75.967 29.7037C75.7557 29.4661 75.5916 29.1849 75.4746 28.8603C75.3609 28.5323 75.304 28.1742 75.304 27.7859V27.5701C75.304 27.1517 75.3641 26.7735 75.4844 26.4355C75.6046 26.0974 75.7704 25.8079 75.9816 25.567C76.1929 25.326 76.4334 25.1419 76.7031 25.0147C76.9761 24.8842 77.2621 24.8189 77.5611 24.8189C77.8959 24.8189 78.1933 24.8809 78.4533 25.0047C78.7133 25.1252 78.931 25.2975 79.1065 25.5218C79.2853 25.7427 79.4202 26.0054 79.5112 26.31C79.6022 26.6112 79.6477 26.9442 79.6477 27.309V27.6755H75.655V27.1634H79.0675V27.0931C79.061 26.7886 79.0009 26.5041 78.8872 26.2397C78.7767 25.9719 78.6109 25.7544 78.3899 25.5871C78.1689 25.4197 77.8926 25.336 77.5611 25.336C77.3141 25.336 77.0866 25.3896 76.8786 25.4967C76.6739 25.6038 76.4968 25.7577 76.3472 25.9586C76.201 26.156 76.0872 26.392 76.006 26.6664C75.928 26.9375 75.889 27.2387 75.889 27.5701V27.7859C75.889 28.0872 75.9312 28.3683 76.0157 28.6294C76.1035 28.8871 76.227 29.1146 76.3863 29.3121C76.5488 29.5096 76.7405 29.6635 76.9615 29.774C77.1825 29.8844 77.4263 29.9397 77.6928 29.9397C78.0048 29.9397 78.281 29.8811 78.5215 29.7639C78.762 29.6435 78.9782 29.4544 79.1699 29.1966L79.5355 29.4878C79.4218 29.6619 79.2788 29.8225 79.1065 29.9698C78.9375 30.117 78.7344 30.2342 78.4972 30.3212C78.2599 30.4082 77.9836 30.4517 77.6684 30.4517Z" fill="black"/>
<path d="M84.368 29.2971V22.6401H84.953V30.3513H84.407L84.368 29.2971ZM80.7068 27.6906V27.5851C80.7068 27.1634 80.7539 26.7836 80.8482 26.4455C80.9424 26.1041 81.0773 25.813 81.2528 25.572C81.4316 25.3277 81.6461 25.1419 81.8963 25.0147C82.1466 24.8842 82.4293 24.8189 82.7446 24.8189C83.0533 24.8189 83.3264 24.8708 83.5636 24.9746C83.8009 25.0783 84.004 25.2273 84.173 25.4214C84.3452 25.6155 84.4834 25.8464 84.5874 26.1142C84.6946 26.3819 84.7726 26.6798 84.8214 27.0078V28.3482C84.7824 28.6561 84.7109 28.9389 84.6069 29.1966C84.5029 29.451 84.3647 29.6736 84.1925 29.8643C84.0202 30.0518 83.8122 30.1974 83.5685 30.3011C83.328 30.4015 83.0501 30.4517 82.7348 30.4517C82.4228 30.4517 82.1417 30.3848 81.8915 30.2509C81.6412 30.117 81.4283 29.9279 81.2528 29.6836C81.0773 29.4359 80.9424 29.1431 80.8482 28.8051C80.7539 28.467 80.7068 28.0955 80.7068 27.6906ZM81.2918 27.5851V27.6906C81.2918 28.0085 81.3227 28.303 81.3844 28.5741C81.4462 28.8452 81.5405 29.0812 81.6672 29.282C81.794 29.4828 81.9548 29.6401 82.1498 29.7539C82.3448 29.8677 82.5756 29.9246 82.8421 29.9246C83.1768 29.9246 83.458 29.8593 83.6855 29.7288C83.913 29.5949 84.095 29.4192 84.2315 29.2017C84.368 28.9808 84.4671 28.7398 84.5289 28.4787V26.9174C84.4899 26.74 84.433 26.5593 84.3582 26.3752C84.2835 26.1912 84.1811 26.0221 84.0511 25.8682C83.9244 25.7109 83.7619 25.5854 83.5636 25.4917C83.3686 25.3946 83.1313 25.3461 82.8518 25.3461C82.5821 25.3461 82.3497 25.403 82.1547 25.5168C81.9597 25.6306 81.7972 25.7895 81.6672 25.9937C81.5405 26.1945 81.4462 26.4305 81.3844 26.7016C81.3227 26.9727 81.2918 27.2672 81.2918 27.5851Z" fill="black"/>
<path d="M89.2017 22.6401H89.7867V29.2971L89.7477 30.3513H89.2017V22.6401ZM93.4576 27.5851V27.6906C93.4576 28.0955 93.4121 28.467 93.3211 28.8051C93.2301 29.1431 93.0985 29.4359 92.9262 29.6836C92.754 29.9279 92.5427 30.117 92.2925 30.2509C92.0455 30.3848 91.7611 30.4517 91.4393 30.4517C91.1241 30.4517 90.8446 30.4015 90.6008 30.3011C90.3571 30.1974 90.1491 30.0518 89.9768 29.8643C89.8046 29.6736 89.6664 29.451 89.5624 29.1966C89.4584 28.9389 89.3853 28.6561 89.3431 28.3482V27.0078C89.3918 26.6798 89.4698 26.3819 89.5771 26.1142C89.6843 25.8464 89.8224 25.6155 89.9914 25.4214C90.1637 25.2273 90.3685 25.0783 90.6057 24.9746C90.8462 24.8708 91.1208 24.8189 91.4296 24.8189C91.7513 24.8189 92.0373 24.8842 92.2876 25.0147C92.5411 25.1419 92.754 25.3277 92.9262 25.572C93.0985 25.813 93.2301 26.1041 93.3211 26.4455C93.4121 26.7836 93.4576 27.1634 93.4576 27.5851ZM92.8677 27.6906V27.5851C92.8677 27.2672 92.8385 26.9727 92.78 26.7016C92.7215 26.4305 92.6289 26.1945 92.5021 25.9937C92.3786 25.7895 92.2194 25.6306 92.0243 25.5168C91.8293 25.403 91.5953 25.3461 91.3223 25.3461C91.0428 25.3461 90.804 25.3946 90.6057 25.4917C90.4107 25.5854 90.2482 25.7109 90.1182 25.8682C89.9914 26.0221 89.8907 26.1912 89.8159 26.3752C89.7412 26.5593 89.6859 26.74 89.6502 26.9174V28.4787C89.7054 28.7298 89.8013 28.9657 89.9378 29.1866C90.0743 29.4075 90.2579 29.5866 90.4887 29.7238C90.7195 29.8577 91.0006 29.9246 91.3321 29.9246C91.5986 29.9246 91.8277 29.8677 92.0195 29.7539C92.2145 29.6401 92.3737 29.4828 92.4972 29.282C92.624 29.0812 92.7166 28.8452 92.7751 28.5741C92.8369 28.303 92.8677 28.0085 92.8677 27.6906Z" fill="black"/>
<path d="M96.3985 29.8091L98.0414 24.9194H98.6703L96.4375 31.2248C96.392 31.3487 96.3335 31.4859 96.262 31.6365C96.1938 31.7871 96.1028 31.931 95.989 32.0683C95.8785 32.2088 95.7388 32.3226 95.5698 32.4096C95.404 32.5 95.2009 32.5452 94.9604 32.5452C94.8986 32.5452 94.819 32.5368 94.7215 32.5201C94.6273 32.5067 94.559 32.4933 94.5168 32.4799L94.5119 31.9729C94.5476 31.9829 94.5996 31.9913 94.6679 31.998C94.7361 32.0047 94.7833 32.008 94.8093 32.008C95.0205 32.008 95.1977 31.9712 95.3407 31.8976C95.4869 31.8239 95.6088 31.7135 95.7063 31.5662C95.8038 31.4223 95.8899 31.2416 95.9647 31.024L96.3985 29.8091ZM94.8629 24.9194L96.5448 29.5832L96.7008 30.2107L96.2767 30.4567L94.2291 24.9194H94.8629Z" fill="black"/>
<path d="M105.064 24.0157L102.943 30.3513H101.661L104.333 23.0418H105.152L105.064 24.0157ZM106.839 30.3513L104.713 24.0157L104.62 23.0418H105.444L108.126 30.3513H106.839ZM106.736 27.6404V28.6394H102.875V27.6404H106.736Z" fill="black"/>
<path d="M114.435 26.6162V29.4075C114.334 29.5447 114.177 29.6953 113.962 29.8593C113.751 30.02 113.47 30.1589 113.119 30.276C112.768 30.3932 112.331 30.4517 111.808 30.4517C111.362 30.4517 110.954 30.3747 110.584 30.2208C110.213 30.0635 109.893 29.8342 109.623 29.533C109.357 29.2318 109.151 28.8653 109.004 28.4336C108.858 27.9985 108.785 27.5031 108.785 26.9476V26.4405C108.785 25.8883 108.852 25.3963 108.985 24.9645C109.121 24.5294 109.316 24.1613 109.57 23.8601C109.823 23.5589 110.129 23.3313 110.486 23.1773C110.847 23.02 111.255 22.9414 111.71 22.9414C112.292 22.9414 112.773 23.0418 113.153 23.2426C113.537 23.44 113.832 23.7145 114.04 24.0659C114.248 24.4173 114.38 24.8189 114.435 25.2708H113.236C113.197 25.0164 113.121 24.7888 113.007 24.588C112.896 24.3872 112.737 24.2299 112.529 24.1161C112.324 23.999 112.058 23.9404 111.73 23.9404C111.447 23.9404 111.198 23.9956 110.984 24.1061C110.769 24.2165 110.59 24.3788 110.447 24.593C110.308 24.8072 110.202 25.0683 110.13 25.3762C110.059 25.6841 110.023 26.0355 110.023 26.4305V26.9476C110.023 27.3492 110.064 27.7056 110.145 28.0169C110.23 28.3281 110.35 28.5909 110.506 28.8051C110.665 29.0193 110.858 29.1816 111.086 29.292C111.314 29.3991 111.57 29.4527 111.856 29.4527C112.136 29.4527 112.365 29.4293 112.544 29.3824C112.722 29.3322 112.864 29.2736 112.968 29.2067C113.075 29.1364 113.158 29.0695 113.216 29.0059V27.555H111.739V26.6162H114.435Z" fill="black"/>
<path d="M119.667 28.4687C119.667 28.3181 119.645 28.1842 119.599 28.0671C119.557 27.9499 119.48 27.8428 119.37 27.7458C119.259 27.6487 119.103 27.555 118.902 27.4646C118.704 27.3709 118.45 27.2755 118.141 27.1785C117.803 27.0714 117.491 26.9526 117.205 26.822C116.923 26.6882 116.676 26.5342 116.464 26.3602C116.253 26.1828 116.089 25.9803 115.972 25.7527C115.855 25.5218 115.797 25.2557 115.797 24.9545C115.797 24.6566 115.857 24.3855 115.977 24.1412C116.1 23.8969 116.274 23.686 116.499 23.5086C116.726 23.3279 116.994 23.189 117.303 23.092C117.612 22.9916 117.953 22.9414 118.327 22.9414C118.853 22.9414 119.307 23.0418 119.687 23.2426C120.07 23.4434 120.365 23.7128 120.569 24.0508C120.777 24.3889 120.881 24.762 120.881 25.1704H119.667C119.667 24.9294 119.617 24.7169 119.516 24.5328C119.419 24.3454 119.269 24.1981 119.068 24.091C118.869 23.9839 118.618 23.9304 118.312 23.9304C118.023 23.9304 117.782 23.9755 117.591 24.0659C117.399 24.1563 117.256 24.2784 117.162 24.4324C117.067 24.5863 117.02 24.7604 117.02 24.9545C117.02 25.0917 117.051 25.2172 117.113 25.331C117.175 25.4415 117.269 25.5452 117.396 25.6423C117.522 25.736 117.682 25.8247 117.873 25.9084C118.065 25.992 118.291 26.0723 118.551 26.1493C118.944 26.2698 119.287 26.4037 119.58 26.5509C119.872 26.6949 120.116 26.8589 120.311 27.0429C120.506 27.227 120.652 27.4362 120.75 27.6705C120.847 27.9014 120.896 28.1641 120.896 28.4587C120.896 28.7666 120.836 29.0444 120.716 29.292C120.595 29.5364 120.423 29.7455 120.199 29.9196C119.978 30.0903 119.711 30.2225 119.399 30.3162C119.09 30.4065 118.746 30.4517 118.366 30.4517C118.024 30.4517 117.688 30.4049 117.357 30.3112C117.028 30.2174 116.729 30.0752 116.46 29.8844C116.19 29.6903 115.975 29.4493 115.816 29.1615C115.657 28.8703 115.577 28.5306 115.577 28.1424H116.801C116.801 28.38 116.84 28.5825 116.918 28.7498C116.999 28.9172 117.111 29.0544 117.254 29.1615C117.397 29.2653 117.563 29.3422 117.751 29.3924C117.943 29.4426 118.148 29.4677 118.366 29.4677C118.652 29.4677 118.891 29.4259 119.082 29.3422C119.277 29.2586 119.424 29.1414 119.521 28.9908C119.619 28.8402 119.667 28.6662 119.667 28.4687Z" fill="black"/>
<path d="M126.056 23.0418V30.3513H124.833V23.0418H126.056Z" fill="black"/>
<path d="M128.768 26.079V30.3513H127.593V24.9194H128.7L128.768 26.079ZM128.558 27.4345L128.178 27.4295C128.181 27.0446 128.233 26.6915 128.334 26.3702C128.438 26.0489 128.581 25.7728 128.763 25.5419C128.948 25.3109 129.169 25.1336 129.426 25.0097C129.683 24.8825 129.969 24.8189 130.284 24.8189C130.538 24.8189 130.767 24.8558 130.972 24.9294C131.18 24.9997 131.357 25.1151 131.503 25.2758C131.652 25.4364 131.766 25.6456 131.844 25.9033C131.922 26.1577 131.961 26.4706 131.961 26.8421V30.3513H130.781V26.8371C130.781 26.5761 130.744 26.3702 130.669 26.2196C130.598 26.0657 130.492 25.9569 130.352 25.8933C130.216 25.8264 130.045 25.7929 129.841 25.7929C129.639 25.7929 129.459 25.8364 129.299 25.9234C129.14 26.0104 129.005 26.1292 128.895 26.2799C128.788 26.4305 128.705 26.6045 128.646 26.802C128.588 26.9994 128.558 27.2103 128.558 27.4345Z" fill="black"/>
<path d="M135.458 29.4878C135.65 29.4878 135.822 29.4493 135.975 29.3724C136.131 29.292 136.256 29.1816 136.35 29.041C136.447 28.9004 136.501 28.7381 136.511 28.554H137.618C137.611 28.9055 137.51 29.2251 137.315 29.5129C137.12 29.8008 136.862 30.03 136.54 30.2007C136.218 30.368 135.862 30.4517 135.472 30.4517C135.069 30.4517 134.718 30.3814 134.419 30.2409C134.12 30.097 133.872 29.8995 133.674 29.6485C133.475 29.3975 133.326 29.108 133.225 28.78C133.128 28.452 133.079 28.1005 133.079 27.7257V27.55C133.079 27.1751 133.128 26.8237 133.225 26.4957C133.326 26.1644 133.475 25.8732 133.674 25.6222C133.872 25.3712 134.12 25.1754 134.419 25.0348C134.718 24.8909 135.068 24.8189 135.468 24.8189C135.89 24.8189 136.261 24.906 136.579 25.08C136.898 25.2507 137.148 25.49 137.33 25.7979C137.515 26.1025 137.611 26.4572 137.618 26.8622H136.511C136.501 26.6614 136.452 26.4807 136.365 26.32C136.28 26.156 136.16 26.0255 136.004 25.9284C135.851 25.8314 135.667 25.7828 135.453 25.7828C135.216 25.7828 135.019 25.833 134.863 25.9335C134.707 26.0305 134.585 26.1644 134.497 26.3351C134.41 26.5024 134.346 26.6915 134.307 26.9024C134.272 27.1099 134.254 27.3257 134.254 27.55V27.7257C134.254 27.9499 134.272 28.1675 134.307 28.3783C134.343 28.5892 134.405 28.7783 134.493 28.9456C134.584 29.1096 134.707 29.2418 134.863 29.3422C135.019 29.4393 135.217 29.4878 135.458 29.4878Z" fill="black"/>
<path d="M138.711 29.7489C138.711 29.5615 138.773 29.4042 138.896 29.277C139.02 29.1464 139.187 29.0812 139.398 29.0812C139.613 29.0812 139.78 29.1464 139.9 29.277C140.024 29.4042 140.086 29.5615 140.086 29.7489C140.086 29.9363 140.024 30.0936 139.9 30.2208C139.78 30.348 139.613 30.4116 139.398 30.4116C139.187 30.4116 139.02 30.348 138.896 30.2208C138.773 30.0936 138.711 29.9363 138.711 29.7489Z" fill="black"/>
</svg>
