<svg width="48" height="48" viewBox="0 0 48 48" fill="none" xmlns="http://www.w3.org/2000/svg">
<path d="M42.202 30.2406C41.9774 30.1582 41.7387 30.1208 41.4995 30.1304C41.2604 30.14 41.0254 30.1965 40.8082 30.2967C40.5911 30.3968 40.3958 30.5387 40.2338 30.7141C40.0718 30.8895 39.9462 31.0949 39.8641 31.3188C39.8641 31.3188 38.6688 35.8548 27.5643 37.8925C26.8212 36.2212 24.967 33.3181 21.2235 33.7578L21.9876 35.4675C22.429 35.5076 22.8739 35.4853 23.309 35.4012C22.8464 35.9386 20.1018 36.9958 18.1915 36.5561C18.3337 36.5099 18.4666 36.439 18.584 36.3468L17.9075 35.1569C17.9075 35.1569 15.6817 36.4794 16.551 38.4578C17.4203 40.4362 20.1228 39.5046 20.1228 39.5046C20.1228 39.5046 19.1519 40.321 18.23 40.321C17.6412 41.9435 19.6531 44.7245 21.8404 44.3965C21.7304 44.5397 21.5888 44.6557 21.4265 44.7356C21.2642 44.8155 21.0855 44.8571 20.9045 44.8571C22.3661 45.6352 27.0771 45.8271 27.9149 41.5109C41.3958 39.0998 43.2781 32.5889 43.2886 32.568C43.3708 32.3441 43.408 32.1063 43.3978 31.8682C43.3877 31.6301 43.3306 31.3963 43.2297 31.1802C43.1288 30.9641 42.9861 30.7699 42.8097 30.6087C42.6334 30.4474 42.4269 30.3224 42.202 30.2406Z" fill="#20BFB8"/>
<path d="M12.4919 32.4912L14.3532 36.2142C14.7037 36.8911 14.7037 37.7913 14.227 38.0775L11.4229 39.7453C11.5221 39.8042 11.6149 39.8732 11.6998 39.9512C11.9684 40.1923 12.169 40.4992 12.2816 40.8414C12.3941 41.1836 12.4147 41.5491 12.3412 41.9017C16.4949 40.8689 17.0066 34.6406 12.4919 32.4912Z" fill="#20BFB8"/>
<path d="M9.15189 40.4287C10.1544 38.9005 9.15189 37.3826 7.88651 37.1663C7.77114 37.1437 7.6534 37.1356 7.536 37.1419C8.44033 35.3449 7.47641 33.6247 6.24608 33.3874C4.51101 33.0385 3.77142 36.1439 3.65925 37.9548C3.54708 39.7658 5.3768 39.2947 5.3768 39.2947C5.49948 39.218 5.61865 39.1447 5.72732 39.0679C5.53302 39.6745 5.41528 40.3027 5.3768 40.9382C5.28917 42.4455 7.12939 42.0791 7.12939 42.0791C7.25207 42.0198 7.36775 41.957 7.47991 41.8977C7.38527 42.0094 7.29764 42.1175 7.22053 42.2222C6.31268 43.4329 8.03724 44.1238 8.03724 44.1238C12.2154 44.6402 12.6991 41.6604 11.4162 40.4566C10.7397 39.8565 9.92303 39.9926 9.15189 40.4287Z" fill="#20BFB8"/>
<path d="M32.016 16.79C31.2168 16.79 30.5684 17.6903 30.5684 18.7964C30.5684 19.9024 31.2168 20.8027 32.016 20.8027C32.8152 20.8027 33.4637 19.9059 33.4637 18.7964C33.4637 17.6868 32.8222 16.79 32.016 16.79Z" fill="#20BFB8"/>
<path d="M42.0583 13.105C42.3306 12.6946 42.6891 12.3479 43.1091 12.0889C43.5291 11.8298 44.0005 11.6646 44.4909 11.6046C42.2896 9.22148 36.4956 8.68414 36.4956 8.68414C36.7569 9.03239 36.9181 9.44494 36.9618 9.87748C36.2607 8.91444 34.1786 6.79647 31.5497 7.17331C31.6654 6.92538 31.8088 6.69127 31.9774 6.47546C31.6498 5.52489 31.3852 4.55397 31.1852 3.56894C31.6044 3.42385 31.957 3.13308 32.1782 2.75004C32.3994 2.36699 32.4744 1.91738 32.3893 1.48374C32.3043 1.0501 32.0649 0.661546 31.7153 0.389431C31.3656 0.117316 30.9291 -0.0201274 30.4858 0.00238526C30.0425 0.0248979 29.6223 0.205844 29.3023 0.511972C28.9822 0.8181 28.7839 1.22889 28.7436 1.66889C28.7033 2.10889 28.8239 2.54856 29.0831 2.90721C29.3423 3.26585 29.7228 3.51938 30.1547 3.62124C30.1908 4.8833 30.3887 6.13561 30.7435 7.34777C27.8447 8.34919 27.3049 12.0896 27.3049 12.0896C27.1637 11.5584 27.1771 10.9981 27.3435 10.4741C26.5724 10.8963 20.2385 15.708 20.5084 21.6607C20.7783 27.6133 26.5128 33.6916 35.7244 31.1933C44.9361 28.695 45.4934 20.9279 45.4934 20.9279C45.4934 20.9279 44.0668 20.9663 43.7198 19.9684C49.3211 20.8965 48.0557 9.96471 42.0583 13.105ZM39.0438 24.2916C36.6813 28.3042 25.8082 30.0837 23.1127 26.1862C21.9736 24.5393 21.6791 23.3146 21.5915 21.4094C21.5179 19.7625 21.7632 18.4715 22.5835 17.1456C24.2309 14.4868 32.6258 13.1364 36.8426 14.2216C39.6678 14.9264 40.2426 22.2434 39.0438 24.2706V24.2916Z" fill="#20BFB8"/>
<path d="M31.4692 23.968C31.4112 23.9259 31.3454 23.8955 31.2756 23.8786C31.2059 23.8618 31.1334 23.8588 31.0625 23.8698C30.9915 23.8808 30.9234 23.9056 30.8621 23.9428C30.8008 23.9801 30.7474 24.0289 30.7051 24.0866C29.3521 25.9534 26.8809 24.6659 26.8739 24.6624C26.7456 24.5967 26.5964 24.5844 26.459 24.6282C26.3216 24.6721 26.2073 24.7685 26.1413 24.8962C26.0753 25.0239 26.063 25.1724 26.107 25.3092C26.1511 25.446 26.2479 25.5597 26.3762 25.6254C26.3762 25.6254 29.6816 27.3491 31.5884 24.7252C31.6306 24.6677 31.6611 24.6026 31.678 24.5334C31.6949 24.4642 31.6979 24.3923 31.6868 24.322C31.6757 24.2516 31.6508 24.1841 31.6135 24.1234C31.5761 24.0627 31.5271 24.0098 31.4692 23.968Z" fill="#20BFB8"/>
<path d="M24.0234 18.1816C23.2873 18.1816 22.6914 19.0086 22.6914 20.0274C22.6914 21.0463 23.2873 21.8698 24.0234 21.8698C24.7595 21.8698 25.3553 21.0463 25.3553 20.0274C25.3553 19.0086 24.7595 18.1816 24.0234 18.1816Z" fill="#20BFB8"/>
<path fill-rule="evenodd" clip-rule="evenodd" d="M12.1626 18.168C14.2412 18.168 16.9718 21.3083 18.2582 25.1465C19.5446 28.9846 18.8961 32.125 16.814 32.125C14.7319 32.125 12.0049 28.9846 10.7185 25.1465C9.4321 21.3083 10.0806 18.168 12.1626 18.168ZM25.7838 45.1224L26.4849 46.6891C26.5389 46.7974 26.5707 46.9154 26.5783 47.0362C26.5859 47.1569 26.5691 47.278 26.529 47.3922C26.4889 47.5064 26.4263 47.6115 26.3448 47.7012C26.2633 47.791 26.1645 47.8636 26.0544 47.9148C25.9443 47.966 25.825 47.9947 25.7036 47.9994C25.5821 48.004 25.461 47.9844 25.3472 47.9417C25.2335 47.899 25.1295 47.8341 25.0413 47.7508C24.9532 47.6675 24.8827 47.5675 24.8339 47.4567L23.9646 45.7539C24.6057 45.66 25.2231 45.4457 25.7838 45.1224ZM19.9161 32.3273L21.5495 35.7747C20.7511 36.0406 19.9167 36.1841 19.0749 36.2004L17.6202 33.5032C14.774 33.4439 11.2688 29.5953 9.76159 24.8534C8.25435 20.1115 9.33045 16.207 12.1907 16.207C15.0509 16.207 18.5947 20.0766 20.1124 24.8534C21.1254 28.0426 20.9747 30.8304 19.9161 32.3273ZM0.36066 27.5052L6.29495 24.494C6.78568 24.2428 7.38507 24.3753 7.7461 25.0557L13.7996 36.5144C14.1501 37.2123 14.2027 38.0985 13.7295 38.3846L11.4651 39.7803C10.8166 39.3826 10.063 39.5326 9.30942 39.9269C9.53997 39.6367 9.68914 39.2908 9.74174 38.9246C9.79434 38.5583 9.74849 38.1847 9.60885 37.8418C9.46921 37.4989 9.24078 37.199 8.94682 36.9725C8.65286 36.7461 8.30386 36.6013 7.93538 36.5528C7.80474 36.5294 7.67183 36.5213 7.53929 36.5284C8.51023 34.6861 7.46569 32.9135 6.13722 32.6658C4.89638 32.432 4.13225 33.7405 3.72214 35.192L0.304577 29.3754C-0.0950146 28.7125 -0.126561 27.7599 0.36066 27.5052Z" fill="#20BFB8"/>
</svg>
