<svg width="279" height="67" viewBox="0 0 279 67" fill="none" xmlns="http://www.w3.org/2000/svg">
<g clip-path="url(#clip0)">
<path d="M59.1377 42.2283C58.823 42.1132 58.4885 42.0609 58.1533 42.0743C57.8182 42.0878 57.4891 42.1667 57.1847 42.3065C56.8804 42.4464 56.6069 42.6445 56.3799 42.8894C56.1529 43.1343 55.9768 43.4212 55.8618 43.7338C55.8618 43.7338 54.187 50.0679 38.6278 52.9134C37.5866 50.5795 34.9885 46.5257 29.7431 47.1396L30.8138 49.5271C31.4323 49.583 32.0557 49.5519 32.6654 49.4345C32.0171 50.1848 28.1715 51.6611 25.4948 51.0472C25.6941 50.9826 25.8803 50.8837 26.0449 50.7549L25.097 49.0934C25.097 49.0934 21.9783 50.9401 23.1963 53.7027C24.4143 56.4653 28.201 55.1644 28.201 55.1644C28.201 55.1644 26.8405 56.3045 25.5488 56.3045C24.7237 58.5702 27.5429 62.4535 30.6075 61.9955C30.4535 62.1955 30.2551 62.3575 30.0276 62.469C29.8002 62.5806 29.5499 62.6386 29.2962 62.6386C31.3442 63.7252 37.9451 63.9931 39.1189 57.966C58.008 54.5992 60.6455 45.5074 60.6602 45.4781C60.7754 45.1656 60.8274 44.8336 60.8132 44.5011C60.799 44.1686 60.7189 43.8421 60.5775 43.5403C60.4362 43.2385 60.2362 42.9673 59.9892 42.7422C59.7421 42.5171 59.4528 42.3424 59.1377 42.2283Z" fill="#20BFB8"/>
<path d="M17.5097 45.3711L20.1176 50.5699C20.6088 51.5151 20.6088 52.7722 19.9408 53.1717L16.0117 55.5007C16.1507 55.583 16.2807 55.6793 16.3997 55.7882C16.7762 56.1248 17.0572 56.5534 17.2149 57.0313C17.3726 57.5091 17.4014 58.0196 17.2985 58.5119C23.1185 57.0697 23.8355 48.3725 17.5097 45.3711Z" fill="#20BFB8"/>
<path d="M12.8281 56.4562C14.2327 54.3221 12.8281 52.2026 11.0551 51.9005C10.8934 51.8691 10.7284 51.8576 10.5639 51.8664C11.831 49.3572 10.4804 46.9551 8.75653 46.6238C6.3254 46.1365 5.28911 50.4729 5.13194 53.0017C4.97478 55.5304 7.53851 54.8727 7.53851 54.8727C7.71041 54.7655 7.8774 54.6632 8.02965 54.556C7.75741 55.4029 7.59243 56.2802 7.53851 57.1676C7.41573 59.2724 9.9942 58.7608 9.9942 58.7608C10.1661 58.678 10.3282 58.5903 10.4853 58.5075C10.3527 58.6634 10.2299 58.8144 10.1219 58.9606C8.84985 60.6513 11.2662 61.616 11.2662 61.616C17.1206 62.3372 17.7984 58.1761 16.0008 56.4952C15.0529 55.6571 13.9086 55.8472 12.8281 56.4562Z" fill="#20BFB8"/>
<path d="M44.8663 23.4453C43.7465 23.4453 42.8379 24.7024 42.8379 26.2469C42.8379 27.7915 43.7465 29.0485 44.8663 29.0485C45.9861 29.0485 46.8947 27.7963 46.8947 26.2469C46.8947 24.6975 45.9959 23.4453 44.8663 23.4453Z" fill="#20BFB8"/>
<path d="M58.9373 18.2998C59.3188 17.7267 59.8211 17.2426 60.4096 16.8809C60.9981 16.5192 61.6587 16.2884 62.3458 16.2047C59.2614 12.8769 51.143 12.1265 51.143 12.1265C51.5092 12.6128 51.735 13.1889 51.7962 13.7929C50.8139 12.4481 47.8965 9.49058 44.213 10.0168C44.375 9.67058 44.576 9.34367 44.8122 9.04232C44.3532 7.71494 43.9824 6.35916 43.7022 4.98365C44.2896 4.78105 44.7837 4.37503 45.0936 3.84015C45.4035 3.30526 45.5086 2.67742 45.3894 2.07189C45.2703 1.46636 44.9349 0.923781 44.445 0.5438C43.955 0.16382 43.3433 -0.0281059 42.7223 0.00333077C42.1012 0.0347674 41.5123 0.287439 41.0639 0.714916C40.6155 1.14239 40.3376 1.71602 40.2812 2.33044C40.2247 2.94485 40.3936 3.5588 40.7568 4.05962C41.12 4.56043 41.6531 4.91445 42.2583 5.05669C42.309 6.81903 42.5862 8.56775 43.0834 10.2604C39.0217 11.6588 38.2654 16.882 38.2654 16.882C38.0675 16.1401 38.0862 15.3577 38.3194 14.626C37.2389 15.2156 28.364 21.9346 28.7422 30.2469C29.1204 38.5592 37.1554 47.0468 50.0625 43.5582C62.9695 40.0696 63.7504 29.2237 63.7504 29.2237C63.7504 29.2237 61.7515 29.2773 61.2653 27.8838C69.1136 29.1799 67.3406 13.9147 58.9373 18.2998ZM54.7135 33.9207C51.4033 39.5239 36.1682 42.0088 32.3914 36.5663C30.7952 34.2666 30.3826 32.5564 30.2598 29.8961C30.1567 27.5963 30.5005 25.7935 31.6497 23.942C33.9581 20.2293 45.7208 18.3437 51.6292 19.859C55.5877 20.8432 56.3932 31.0606 54.7135 33.8914V33.9207Z" fill="#20BFB8"/>
<path d="M44.0985 33.4666C44.0173 33.4077 43.9251 33.3653 43.8273 33.3417C43.7295 33.3182 43.628 33.314 43.5286 33.3294C43.4292 33.3448 43.3338 33.3794 43.2479 33.4314C43.162 33.4834 43.0872 33.5516 43.0279 33.6322C41.1321 36.2389 37.6696 34.441 37.6597 34.4362C37.48 34.3444 37.2709 34.3272 37.0784 34.3885C36.8859 34.4497 36.7258 34.5843 36.6333 34.7626C36.5408 34.941 36.5235 35.1484 36.5852 35.3394C36.6469 35.5304 36.7826 35.6892 36.9623 35.7809C36.9623 35.7809 41.5937 38.1879 44.2655 34.5239C44.3247 34.4437 44.3674 34.3526 44.3911 34.256C44.4147 34.1594 44.4189 34.0591 44.4034 33.9608C44.3879 33.8626 44.353 33.7683 44.3007 33.6835C44.2483 33.5987 44.1797 33.525 44.0985 33.4666Z" fill="#20BFB8"/>
<path d="M33.6671 25.3887C32.6357 25.3887 31.8008 26.5434 31.8008 27.9661C31.8008 29.3889 32.6357 30.5387 33.6671 30.5387C34.6985 30.5387 35.5334 29.3889 35.5334 27.9661C35.5334 26.5434 34.6985 25.3887 33.6671 25.3887Z" fill="#20BFB8"/>
<path fill-rule="evenodd" clip-rule="evenodd" d="M17.0478 25.3691C19.9602 25.3691 23.7862 29.7543 25.5886 35.1139C27.3911 40.4735 26.4825 44.8586 23.5652 44.8586C20.6478 44.8586 16.8268 40.4735 15.0243 35.1139C13.2218 29.7543 14.1304 25.3691 17.0478 25.3691ZM36.1333 63.0082L37.1156 65.1959C37.1914 65.3472 37.2359 65.512 37.2466 65.6806C37.2572 65.8493 37.2337 66.0183 37.1775 66.1777C37.1213 66.3372 37.0335 66.4839 36.9193 66.6093C36.8051 66.7346 36.6668 66.836 36.5125 66.9075C36.3582 66.979 36.1911 67.0191 36.0209 67.0256C35.8507 67.0321 35.681 67.0047 35.5216 66.9451C35.3623 66.8855 35.2165 66.7949 35.093 66.6785C34.9695 66.5622 34.8707 66.4226 34.8024 66.2678L33.5843 63.8901C34.4827 63.759 35.3477 63.4597 36.1333 63.0082ZM27.9117 45.1412L30.2004 49.9551C29.0816 50.3264 27.9125 50.5268 26.733 50.5495L24.6948 46.7832C20.7067 46.7004 15.7954 41.3262 13.6835 34.7046C11.5716 28.0831 13.0794 22.6309 17.0871 22.6309C21.0947 22.6309 26.0601 28.0343 28.1868 34.7046C29.6061 39.158 29.3949 43.0509 27.9117 45.1412ZM0.511205 38.4076L8.82615 34.2027C9.51374 33.8519 10.3536 34.0371 10.8595 34.9872L19.3414 50.988C19.8325 51.9625 19.9062 53.2001 19.2432 53.5996L16.0704 55.5486C15.1618 54.9931 14.1059 55.2027 13.0499 55.7532C13.373 55.348 13.582 54.865 13.6557 54.3536C13.7294 53.8421 13.6651 53.3204 13.4695 52.8416C13.2738 52.3628 12.9538 51.944 12.5419 51.6278C12.13 51.3116 11.641 51.1093 11.1247 51.0416C10.9416 51.009 10.7554 50.9976 10.5697 51.0076C11.9301 48.4349 10.4665 45.9598 8.60514 45.6139C6.86651 45.2874 5.79584 47.1145 5.22121 49.1415L0.432624 41.0192C-0.127272 40.0934 -0.171475 38.7633 0.511205 38.4076Z" fill="#20BFB8"/>
<path d="M94.6866 39.6018H89.5935L86.853 36.3714H81.0085V39.6018H77.2021V33.3603H87.8991C89.0778 33.3603 89.9963 32.834 89.9963 31.996C89.9963 31.0459 89.2055 30.5732 87.8991 30.5732H77.2021L79.6824 27.3965H87.5897C90.3843 27.3965 93.9106 28.2735 93.9106 31.7572C93.9341 32.6783 93.6215 33.5769 93.0305 34.2876C92.4395 34.9984 91.6097 35.4736 90.6937 35.6259C91.311 36.115 91.889 36.6509 92.4225 37.2289L94.6866 39.6018Z" fill="black"/>
<path d="M114.484 33.4924C114.484 37.8483 111.469 39.8265 105.497 39.8265C99.5244 39.8265 96.5039 37.8775 96.5039 33.4924C96.5039 29.1073 99.5048 27.1973 105.497 27.1973C111.488 27.1973 114.484 29.1316 114.484 33.4924ZM110.698 33.4924C110.698 30.8662 109.318 30.3741 105.497 30.3741C101.676 30.3741 100.291 30.8613 100.291 33.4924C100.291 36.1235 101.671 36.6253 105.497 36.6253C109.323 36.6253 110.698 36.1186 110.698 33.4924Z" fill="black"/>
<path d="M133.511 36.045C133.511 38.067 132.391 39.6018 128.511 39.6018H117.701V32.1763H128.585C129.14 32.1763 129.651 31.9765 129.651 31.3577C129.651 30.7389 129.12 30.5732 128.585 30.5732H117.701L120.275 27.3965H128.423C131.37 27.3965 133.255 28.5317 133.255 30.773C133.288 31.3203 133.143 31.8637 132.842 32.3232C132.54 32.7828 132.098 33.1343 131.581 33.3261C132.163 33.499 132.67 33.8611 133.02 34.3541C133.37 34.8472 133.543 35.4427 133.511 36.045ZM121.527 34.783V36.464H128.531C129.356 36.464 129.709 36.1716 129.709 35.6064C129.709 35.0412 129.356 34.783 128.531 34.783H121.527Z" fill="black"/>
<path d="M154.306 33.4924C154.306 37.8483 151.29 39.8265 145.313 39.8265C139.336 39.8265 136.325 37.8775 136.325 33.4924C136.325 29.1073 139.321 27.1973 145.313 27.1973C151.305 27.1973 154.306 29.1316 154.306 33.4924ZM150.519 33.4924C150.519 30.8662 149.139 30.3741 145.313 30.3741C141.487 30.3741 140.112 30.8613 140.112 33.4924C140.112 36.1235 141.492 36.6253 145.313 36.6253C149.134 36.6253 150.519 36.1186 150.519 33.4924Z" fill="black"/>
<path d="M165.115 31.9765H172.973V39.6018H164.545C160.282 39.6018 157.134 36.9171 157.134 33.3797C157.134 29.8424 160.282 27.3965 164.545 27.3965H173.351L170.895 30.5732H164.545C162.487 30.5732 160.92 31.8109 160.92 33.5454C160.92 35.28 162.428 36.4688 164.545 36.4688H169.196V34.7002H162.811L165.115 31.9765Z" fill="black"/>
<path d="M193.905 39.6018H188.812L186.072 36.3714H180.227V39.6018H176.421V33.3603H187.118C188.297 33.3603 189.215 32.834 189.215 31.996C189.215 31.0459 188.424 30.5732 187.118 30.5732H176.421L178.901 27.3965H186.808C189.603 27.3965 193.129 28.2735 193.129 31.7572C193.153 32.6783 192.84 33.5769 192.249 34.2876C191.658 34.9984 190.828 35.4736 189.912 35.6259C190.53 36.115 191.108 36.6509 191.641 37.2289L193.905 39.6018Z" fill="black"/>
<path d="M201.754 39.6023L204.052 36.4645H207.141C207.878 36.4645 208.738 36.4645 209.327 36.4986C208.998 36.0601 208.482 35.3146 208.079 34.7299L205.874 31.5044L200.098 39.6023H195.595L203.482 28.5664C203.744 28.1529 204.106 27.811 204.535 27.5719C204.964 27.3327 205.446 27.2039 205.938 27.1973C206.428 27.1999 206.908 27.3271 207.334 27.5669C207.76 27.8066 208.116 28.1507 208.369 28.5664L216.051 39.6023H201.754Z" fill="black"/>
<path d="M226.939 39.6027H218.703V31.9969H222.529V36.4649H226.949C229.066 36.4649 230.589 35.2956 230.589 33.5415C230.589 31.7875 229.007 30.5694 226.949 30.5694H218.703L221.129 27.3926H226.939C231.242 27.3926 234.351 29.858 234.351 33.3758C234.351 36.8937 231.207 39.6027 226.939 39.6027Z" fill="black"/>
<path d="M241.428 39.6028H237.622V27.4219H241.428V39.6028Z" fill="black"/>
<path d="M256.025 39.1453L248.486 32.4312V39.5984H245.048V29.4737C245.048 27.8512 246.03 27.1934 247.125 27.1934C247.411 27.1944 247.693 27.2533 247.955 27.3664C248.217 27.4795 248.453 27.6444 248.648 27.8511L256.187 34.5604V27.3931H259.64V37.4984C259.64 39.1209 258.657 39.7982 257.547 39.7982C257.262 39.8004 256.979 39.7435 256.717 39.6311C256.454 39.5186 256.219 39.3532 256.025 39.1453Z" fill="black"/>
<path d="M270.769 31.9765H278.627V39.6018H270.199C265.936 39.6018 262.793 36.9171 262.793 33.3797C262.793 29.8424 265.936 27.3965 270.199 27.3965H279.005L276.55 30.5732H270.199C268.141 30.5732 266.575 31.8109 266.575 33.5454C266.575 35.28 268.083 36.4688 270.199 36.4688H274.865V34.7002H268.48L270.769 31.9765Z" fill="black"/>
</g>
<defs>
<clipPath id="clip0">
<rect width="279" height="67" fill="white"/>
</clipPath>
</defs>
</svg>
