<svg width="79" height="20" viewBox="0 0 79 20" fill="none" xmlns="http://www.w3.org/2000/svg">
<path d="M60.4969 5.21777H56.2733C56.0249 5.21777 55.7764 5.46622 55.6522 5.71466L53.9131 16.6462C53.9131 16.8947 54.0373 17.0189 54.2858 17.0189H56.5218C56.7702 17.0189 56.8944 16.8947 56.8944 16.6462L57.3913 13.5407C57.3913 13.2922 57.6398 13.0438 58.0124 13.0438H59.3789C62.236 13.0438 63.8509 11.6773 64.2235 8.94445C64.472 7.82645 64.2235 6.83267 63.7266 6.21155C62.9813 5.59044 61.8633 5.21777 60.4969 5.21777ZM60.9938 9.31712C60.7453 10.8078 59.6273 10.8078 58.5093 10.8078H57.764L58.2609 7.95067C58.2609 7.82645 58.3851 7.70222 58.6335 7.70222H58.882C59.6273 7.70222 60.3726 7.70222 60.7453 8.19911C60.9938 8.32333 60.9938 8.696 60.9938 9.31712Z" fill="#139AD6"/>
<path d="M30.0633 5.21777H25.8397C25.5913 5.21777 25.3428 5.46622 25.2186 5.71466L23.4795 16.6462C23.4795 16.8947 23.6037 17.0189 23.8522 17.0189H25.8397C26.0882 17.0189 26.3366 16.7705 26.4608 16.522L26.9577 13.5407C26.9577 13.2922 27.2062 13.0438 27.5788 13.0438H28.9453C31.8024 13.0438 33.4173 11.6773 33.7899 8.94445C34.0384 7.82645 33.7899 6.83267 33.2931 6.21155C32.5477 5.59044 31.5539 5.21777 30.0633 5.21777ZM30.5602 9.31712C30.3117 10.8078 29.1937 10.8078 28.0757 10.8078H27.4546L27.9515 7.95067C27.9515 7.82645 28.0757 7.70222 28.3242 7.70222H28.5726C29.3179 7.70222 30.0633 7.70222 30.4359 8.19911C30.5602 8.32333 30.6844 8.696 30.5602 9.31712Z" fill="#263B80"/>
<path d="M42.8558 9.19278H40.8683C40.744 9.19278 40.4956 9.317 40.4956 9.44123L40.3714 10.0623L40.2472 9.81389C39.7503 9.19278 38.8807 8.94434 37.8869 8.94434C35.6509 8.94434 33.6634 10.6835 33.2907 13.0437C33.0423 14.2859 33.4149 15.4039 34.036 16.1492C34.6572 16.8946 35.5267 17.143 36.6447 17.143C38.508 17.143 39.5018 16.025 39.5018 16.025L39.3776 16.6461C39.3776 16.8946 39.5018 17.0188 39.7503 17.0188H41.6136C41.862 17.0188 42.1105 16.7704 42.2347 16.5219L43.3527 9.56545C43.2285 9.44123 42.98 9.19278 42.8558 9.19278ZM39.9987 13.1679C39.7503 14.2859 38.8807 15.1555 37.6385 15.1555C37.0174 15.1555 36.5205 14.907 36.272 14.6586C36.0236 14.2859 35.8994 13.789 35.8994 13.1679C36.0236 12.0499 37.0174 11.1803 38.1354 11.1803C38.7565 11.1803 39.1291 11.4288 39.5018 11.6772C39.8745 12.0499 39.9987 12.671 39.9987 13.1679Z" fill="#263B80"/>
<path d="M73.1669 9.19278H71.1793C71.0551 9.19278 70.8067 9.317 70.8067 9.44123L70.6824 10.0623L70.5582 9.81389C70.0613 9.19278 69.1918 8.94434 68.198 8.94434C65.962 8.94434 63.9744 10.6835 63.6017 13.0437C63.3533 14.2859 63.726 15.4039 64.3471 16.1492C64.9682 16.8946 65.8378 17.143 66.9558 17.143C68.8191 17.143 69.8129 16.025 69.8129 16.025L69.6886 16.6461C69.6886 16.8946 69.8129 17.0188 70.0613 17.0188H71.9247C72.1731 17.0188 72.4215 16.7704 72.5458 16.5219L73.6638 9.56545C73.5395 9.44123 73.4153 9.19278 73.1669 9.19278ZM70.3098 13.1679C70.0613 14.2859 69.1918 15.1555 67.9495 15.1555C67.3284 15.1555 66.8315 14.907 66.5831 14.6586C66.3346 14.2859 66.2104 13.789 66.2104 13.1679C66.3346 12.0499 67.3284 11.1803 68.4464 11.1803C69.0675 11.1803 69.4402 11.4288 69.8129 11.6772C70.3098 12.0499 70.434 12.671 70.3098 13.1679Z" fill="#139AD6"/>
<path d="M53.6652 9.19238H51.5534C51.305 9.19238 51.1808 9.3166 51.0566 9.44083L48.3237 13.6644L47.0814 9.68927C46.9572 9.44083 46.833 9.31661 46.4603 9.31661H44.4728C44.2243 9.31661 44.1001 9.56505 44.1001 9.81349L46.3361 16.3973L44.2243 19.3786C44.1001 19.627 44.2243 19.9997 44.4728 19.9997H46.4603C46.7088 19.9997 46.833 19.8755 46.9572 19.7513L53.7895 9.93772C54.1621 9.56505 53.9137 9.19238 53.6652 9.19238Z" fill="#263B80"/>
<path d="M75.5272 5.59015L73.7881 16.7702C73.7881 17.0186 73.9123 17.1428 74.1608 17.1428H75.8999C76.1483 17.1428 76.3967 16.8944 76.521 16.6459L78.2601 5.71437C78.2601 5.46592 78.1359 5.3417 77.8874 5.3417H75.8999C75.7756 5.21748 75.6514 5.3417 75.5272 5.59015Z" fill="#139AD6"/>
<path d="M14.2856 1.49067C13.416 0.496888 11.8011 0 9.56512 0H3.354C2.98134 0 2.60867 0.372665 2.48445 0.745332L0 17.0185C0 17.3911 0.248445 17.6396 0.496889 17.6396H4.34778L5.34156 11.5527V11.8011C5.46578 11.4285 5.83845 11.0558 6.21112 11.0558H8.07445C11.6769 11.0558 14.4098 9.56512 15.2793 5.46578C15.2793 5.34156 15.2793 5.21733 15.2793 5.09311C15.1551 5.09311 15.1551 5.09311 15.2793 5.09311C15.4036 3.47822 15.1551 2.48444 14.2856 1.49067Z" fill="#263B80"/>
<path d="M15.1556 5.09375C15.1556 5.21797 15.1556 5.3422 15.1556 5.46642C14.286 9.68998 11.5531 11.0564 7.9507 11.0564H6.08737C5.7147 11.0564 5.34203 11.4291 5.21781 11.8018L3.97559 19.3793C3.97559 19.6278 4.09981 19.8762 4.47248 19.8762H7.70226C8.07492 19.8762 8.44759 19.6278 8.44759 19.2551V19.1309L9.0687 15.28V15.0315C9.0687 14.6589 9.44137 14.4104 9.81403 14.4104H10.3109C13.4165 14.4104 15.9009 13.1682 16.522 9.44153C16.7705 7.95086 16.6463 6.58442 15.9009 5.71486C15.7767 5.46642 15.5283 5.21797 15.1556 5.09375Z" fill="#139AD6"/>
<path d="M14.2868 4.72032C14.1626 4.72032 14.0383 4.5961 13.9141 4.5961C13.7899 4.5961 13.6657 4.5961 13.5414 4.47188C13.0446 4.34765 12.5477 4.34766 11.9266 4.34766H7.08189C6.95766 4.34766 6.83344 4.34765 6.70922 4.47188C6.46077 4.5961 6.33655 4.84454 6.33655 5.09299L5.34277 11.5525V11.801C5.467 11.4283 5.83966 11.0557 6.21233 11.0557H8.07566C11.6781 11.0557 14.411 9.56499 15.2806 5.46566C15.2806 5.34143 15.2806 5.21721 15.4048 5.09299C15.1563 4.96877 15.0321 4.84454 14.7837 4.84454C14.411 4.72032 14.411 4.72032 14.2868 4.72032Z" fill="#232C65"/>
</svg>
