<svg width="156" height="20" viewBox="0 0 156 20" fill="none" xmlns="http://www.w3.org/2000/svg">
    <path fill-rule="evenodd" clip-rule="evenodd" d="M137.875 9.17085C136.416 9.10494 135.225 8.47577 135.461 6.86241C135.638 8.03535 136.722 8.41585 137.875 8.46678C138.1 8.47727 138.332 8.47727 138.551 8.47727H149.613C153.376 8.47727 156.423 9.62774 156.278 13.8581C156.126 10.155 152.987 9.18134 149.613 9.18134H138.551C138.326 9.18134 138.094 9.18134 137.875 9.17085ZM130.901 19.2974V19.1746L133.738 15.5644H149.287C150.572 15.5644 151.932 15.4146 152.138 13.9061C152.397 15.8535 150.954 16.2669 149.287 16.2669H133.738L131.354 19.2974H130.901ZM131.615 17.1118V10.3438C133.093 11.7564 135.44 12.2912 137.794 12.2912H149.38C150.446 12.2912 151.445 12.2702 151.445 13.5495C151.445 14.8289 150.361 14.8528 149.287 14.8528H133.387L131.615 17.1118ZM117.666 16.264C114.145 16.264 110.737 14.2701 110.975 10.4307C111.183 13.8596 114.412 15.5614 117.666 15.5614H126.07V16.264H117.666ZM105.578 15.7097L106.079 16.4167L96.3327 16.3508L94.1261 19.2974H93.5977L96.3388 15.6468L105.578 15.7097ZM116.365 11.5827L118.943 8.53869H130.901V9.24126H118.943L116.964 11.5871L116.365 11.5827ZM111.678 10.0757C111.678 6.88488 114.731 5.20261 117.666 5.20261H130.153C130.097 5.61628 130.07 6.03316 130.071 6.45045C130.068 6.91404 130.116 7.37654 130.214 7.83013H118.608L114.839 12.2837H125.347V14.8588H117.666C114.728 14.8588 111.678 13.3518 111.678 10.0757ZM106.286 5.87222L103.121 2.20658C101.929 0.825406 100.997 0 99.1103 0C97.2235 0 96.0434 0.832896 95.0383 2.20658L82 20H89.4465L98.9885 6.9418L104.702 15.0011L95.9794 14.9412L92.1815 20H148.277C153.84 20 157 18.6683 157 13.4537C157 9.03004 153.411 7.7747 149.613 7.7747H138.551C137.513 7.7747 136.151 7.7747 136.151 6.51487C136.151 5.25504 137.283 5.20261 138.311 5.20261H152.41L148.623 0H117.666C113.004 0 108.205 1.92046 106.286 5.87222ZM106.517 7.9275L102.576 3.36454C101.548 2.16613 100.779 1.40664 99.1103 1.40664C97.5114 1.40664 96.5215 2.07925 95.617 3.3196L83.9127 19.2974H83.3964L95.617 2.61703C96.5307 1.37668 97.5114 0.704067 99.1103 0.704067C100.785 0.704067 101.547 1.47105 102.576 2.66048L106.517 7.22493C107.915 2.7953 112.913 0.704067 117.666 0.704067H148.254L151.018 4.49405H150.507L148.254 1.40664H117.666C113.151 1.40664 107.965 3.34207 106.517 7.9275Z" fill="white"/>
    <path d="M4.82617 11.0967H2.16699V10.0234H4.82617C5.34115 10.0234 5.75814 9.94141 6.07715 9.77734C6.39616 9.61328 6.62858 9.38542 6.77441 9.09375C6.9248 8.80208 7 8.4694 7 8.0957C7 7.75391 6.9248 7.43262 6.77441 7.13184C6.62858 6.83105 6.39616 6.58952 6.07715 6.40723C5.75814 6.22038 5.34115 6.12695 4.82617 6.12695H2.47461V15H1.15527V5.04688H4.82617C5.57812 5.04688 6.21387 5.17676 6.7334 5.43652C7.25293 5.69629 7.64714 6.05632 7.91602 6.5166C8.1849 6.97233 8.31934 7.49414 8.31934 8.08203C8.31934 8.72005 8.1849 9.26465 7.91602 9.71582C7.64714 10.167 7.25293 10.5111 6.7334 10.748C6.21387 10.9805 5.57812 11.0967 4.82617 11.0967ZM9.61523 11.3838V11.2266C9.61523 10.6934 9.69271 10.1989 9.84766 9.74316C10.0026 9.28288 10.2259 8.88411 10.5176 8.54688C10.8092 8.20508 11.1624 7.94076 11.5771 7.75391C11.9919 7.5625 12.4567 7.4668 12.9717 7.4668C13.4912 7.4668 13.9583 7.5625 14.373 7.75391C14.7923 7.94076 15.1478 8.20508 15.4395 8.54688C15.7357 8.88411 15.9613 9.28288 16.1162 9.74316C16.2712 10.1989 16.3486 10.6934 16.3486 11.2266V11.3838C16.3486 11.917 16.2712 12.4115 16.1162 12.8672C15.9613 13.3229 15.7357 13.7217 15.4395 14.0635C15.1478 14.4007 14.7946 14.665 14.3799 14.8564C13.9697 15.0433 13.5049 15.1367 12.9854 15.1367C12.4658 15.1367 11.9987 15.0433 11.584 14.8564C11.1693 14.665 10.8138 14.4007 10.5176 14.0635C10.2259 13.7217 10.0026 13.3229 9.84766 12.8672C9.69271 12.4115 9.61523 11.917 9.61523 11.3838ZM10.8799 11.2266V11.3838C10.8799 11.7529 10.9232 12.1016 11.0098 12.4297C11.0964 12.7533 11.2262 13.0404 11.3994 13.291C11.5771 13.5417 11.7982 13.7399 12.0625 13.8857C12.3268 14.027 12.6344 14.0977 12.9854 14.0977C13.3317 14.0977 13.6348 14.027 13.8945 13.8857C14.1589 13.7399 14.3776 13.5417 14.5508 13.291C14.724 13.0404 14.8538 12.7533 14.9404 12.4297C15.0316 12.1016 15.0771 11.7529 15.0771 11.3838V11.2266C15.0771 10.862 15.0316 10.5179 14.9404 10.1943C14.8538 9.86621 14.7217 9.57682 14.5439 9.32617C14.3708 9.07096 14.152 8.87044 13.8877 8.72461C13.6279 8.57878 13.3226 8.50586 12.9717 8.50586C12.6253 8.50586 12.32 8.57878 12.0557 8.72461C11.7959 8.87044 11.5771 9.07096 11.3994 9.32617C11.2262 9.57682 11.0964 9.86621 11.0098 10.1943C10.9232 10.5179 10.8799 10.862 10.8799 11.2266ZM20.0576 13.6875L21.958 7.60352H22.792L22.6279 8.81348L20.6934 15H19.8799L20.0576 13.6875ZM18.7793 7.60352L20.3994 13.7559L20.5156 15H19.6611L17.5146 7.60352H18.7793ZM24.6104 13.708L26.1553 7.60352H27.4131L25.2666 15H24.4189L24.6104 13.708ZM22.9766 7.60352L24.8359 13.585L25.0479 15H24.2412L22.252 8.7998L22.0879 7.60352H22.9766ZM32.0312 15.1367C31.5163 15.1367 31.0492 15.0501 30.6299 14.877C30.2152 14.6992 29.8574 14.4508 29.5566 14.1318C29.2604 13.8128 29.0326 13.4346 28.873 12.9971C28.7135 12.5596 28.6338 12.0811 28.6338 11.5615V11.2744C28.6338 10.6729 28.7227 10.1374 28.9004 9.66797C29.0781 9.19401 29.3197 8.79297 29.625 8.46484C29.9303 8.13672 30.2767 7.88835 30.6641 7.71973C31.0514 7.55111 31.4525 7.4668 31.8672 7.4668C32.3958 7.4668 32.8516 7.55794 33.2344 7.74023C33.6217 7.92253 33.9385 8.17773 34.1846 8.50586C34.4307 8.82943 34.613 9.21224 34.7314 9.6543C34.8499 10.0918 34.9092 10.5703 34.9092 11.0898V11.6572H29.3857V10.625H33.6445V10.5293C33.6263 10.2012 33.5579 9.88216 33.4395 9.57227C33.3255 9.26237 33.1432 9.00716 32.8926 8.80664C32.6419 8.60612 32.3001 8.50586 31.8672 8.50586C31.5801 8.50586 31.3158 8.56738 31.0742 8.69043C30.8327 8.80892 30.6253 8.98665 30.4521 9.22363C30.279 9.46061 30.1445 9.75 30.0488 10.0918C29.9531 10.4336 29.9053 10.8278 29.9053 11.2744V11.5615C29.9053 11.9124 29.9531 12.2428 30.0488 12.5527C30.1491 12.8581 30.2926 13.127 30.4795 13.3594C30.6709 13.5918 30.901 13.7741 31.1699 13.9062C31.4434 14.0384 31.7533 14.1045 32.0996 14.1045C32.5462 14.1045 32.9245 14.0133 33.2344 13.8311C33.5443 13.6488 33.8154 13.4049 34.0479 13.0996L34.8135 13.708C34.654 13.9495 34.4512 14.1797 34.2051 14.3984C33.959 14.6172 33.6559 14.7949 33.2959 14.9316C32.9404 15.0684 32.5189 15.1367 32.0312 15.1367ZM37.9004 8.76562V15H36.6357V7.60352H37.8662L37.9004 8.76562ZM40.2109 7.5625L40.2041 8.73828C40.0993 8.71549 39.999 8.70182 39.9033 8.69727C39.8122 8.68815 39.7074 8.68359 39.5889 8.68359C39.2972 8.68359 39.0397 8.72917 38.8164 8.82031C38.5931 8.91146 38.404 9.03906 38.249 9.20312C38.0941 9.36719 37.971 9.56315 37.8799 9.79102C37.7933 10.0143 37.7363 10.2604 37.709 10.5293L37.3535 10.7344C37.3535 10.2878 37.3968 9.86849 37.4834 9.47656C37.5745 9.08464 37.7135 8.73828 37.9004 8.4375C38.0872 8.13216 38.3242 7.89518 38.6113 7.72656C38.903 7.55339 39.2493 7.4668 39.6504 7.4668C39.7415 7.4668 39.8464 7.47819 39.9648 7.50098C40.0833 7.51921 40.1654 7.53971 40.2109 7.5625ZM44.5625 15.1367C44.0475 15.1367 43.5804 15.0501 43.1611 14.877C42.7464 14.6992 42.3887 14.4508 42.0879 14.1318C41.7917 13.8128 41.5638 13.4346 41.4043 12.9971C41.2448 12.5596 41.165 12.0811 41.165 11.5615V11.2744C41.165 10.6729 41.2539 10.1374 41.4316 9.66797C41.6094 9.19401 41.8509 8.79297 42.1562 8.46484C42.4616 8.13672 42.8079 7.88835 43.1953 7.71973C43.5827 7.55111 43.9837 7.4668 44.3984 7.4668C44.9271 7.4668 45.3828 7.55794 45.7656 7.74023C46.153 7.92253 46.4697 8.17773 46.7158 8.50586C46.9619 8.82943 47.1442 9.21224 47.2627 9.6543C47.3812 10.0918 47.4404 10.5703 47.4404 11.0898V11.6572H41.917V10.625H46.1758V10.5293C46.1576 10.2012 46.0892 9.88216 45.9707 9.57227C45.8568 9.26237 45.6745 9.00716 45.4238 8.80664C45.1732 8.60612 44.8314 8.50586 44.3984 8.50586C44.1113 8.50586 43.847 8.56738 43.6055 8.69043C43.3639 8.80892 43.1566 8.98665 42.9834 9.22363C42.8102 9.46061 42.6758 9.75 42.5801 10.0918C42.4844 10.4336 42.4365 10.8278 42.4365 11.2744V11.5615C42.4365 11.9124 42.4844 12.2428 42.5801 12.5527C42.6803 12.8581 42.8239 13.127 43.0107 13.3594C43.2021 13.5918 43.4323 13.7741 43.7012 13.9062C43.9746 14.0384 44.2845 14.1045 44.6309 14.1045C45.0775 14.1045 45.4557 14.0133 45.7656 13.8311C46.0755 13.6488 46.3467 13.4049 46.5791 13.0996L47.3447 13.708C47.1852 13.9495 46.9824 14.1797 46.7363 14.3984C46.4902 14.6172 46.1872 14.7949 45.8271 14.9316C45.4717 15.0684 45.0501 15.1367 44.5625 15.1367ZM53.8291 13.5645V4.5H55.1006V15H53.9385L53.8291 13.5645ZM48.8525 11.3838V11.2402C48.8525 10.6751 48.9209 10.1624 49.0576 9.70215C49.1989 9.2373 49.3971 8.83854 49.6523 8.50586C49.9121 8.17318 50.2197 7.91797 50.5752 7.74023C50.9352 7.55794 51.3363 7.4668 51.7783 7.4668C52.2432 7.4668 52.6488 7.54883 52.9951 7.71289C53.346 7.8724 53.6423 8.1071 53.8838 8.41699C54.1299 8.72233 54.3236 9.09147 54.4648 9.52441C54.6061 9.95736 54.7041 10.4473 54.7588 10.9941V11.623C54.7087 12.1654 54.6107 12.653 54.4648 13.0859C54.3236 13.5189 54.1299 13.888 53.8838 14.1934C53.6423 14.4987 53.346 14.7334 52.9951 14.8975C52.6442 15.057 52.234 15.1367 51.7646 15.1367C51.3317 15.1367 50.9352 15.0433 50.5752 14.8564C50.2197 14.6696 49.9121 14.4076 49.6523 14.0703C49.3971 13.7331 49.1989 13.3366 49.0576 12.8809C48.9209 12.4206 48.8525 11.9215 48.8525 11.3838ZM50.124 11.2402V11.3838C50.124 11.7529 50.1605 12.0993 50.2334 12.4229C50.3109 12.7464 50.4294 13.0312 50.5889 13.2773C50.7484 13.5234 50.9512 13.7171 51.1973 13.8584C51.4434 13.9951 51.7373 14.0635 52.0791 14.0635C52.4984 14.0635 52.8424 13.9746 53.1113 13.7969C53.3848 13.6191 53.6035 13.3844 53.7676 13.0928C53.9316 12.8011 54.0592 12.4844 54.1504 12.1426V10.4951C54.0957 10.2445 54.016 10.0029 53.9111 9.77051C53.8109 9.53353 53.6787 9.32389 53.5146 9.1416C53.3551 8.95475 53.1569 8.80664 52.9199 8.69727C52.6875 8.58789 52.4118 8.5332 52.0928 8.5332C51.7464 8.5332 51.4479 8.60612 51.1973 8.75195C50.9512 8.89323 50.7484 9.08919 50.5889 9.33984C50.4294 9.58594 50.3109 9.87305 50.2334 10.2012C50.1605 10.5247 50.124 10.8711 50.124 11.2402ZM61.0352 4.5H62.3066V13.5645L62.1973 15H61.0352V4.5ZM67.3037 11.2402V11.3838C67.3037 11.9215 67.2399 12.4206 67.1123 12.8809C66.9847 13.3366 66.7979 13.7331 66.5518 14.0703C66.3057 14.4076 66.0049 14.6696 65.6494 14.8564C65.2939 15.0433 64.8861 15.1367 64.4258 15.1367C63.9564 15.1367 63.5439 15.057 63.1885 14.8975C62.8376 14.7334 62.5413 14.4987 62.2998 14.1934C62.0583 13.888 61.8646 13.5189 61.7188 13.0859C61.5775 12.653 61.4795 12.1654 61.4248 11.623V10.9941C61.4795 10.4473 61.5775 9.95736 61.7188 9.52441C61.8646 9.09147 62.0583 8.72233 62.2998 8.41699C62.5413 8.1071 62.8376 7.8724 63.1885 7.71289C63.5394 7.54883 63.9473 7.4668 64.4121 7.4668C64.877 7.4668 65.2894 7.55794 65.6494 7.74023C66.0094 7.91797 66.3102 8.17318 66.5518 8.50586C66.7979 8.83854 66.9847 9.2373 67.1123 9.70215C67.2399 10.1624 67.3037 10.6751 67.3037 11.2402ZM66.0322 11.3838V11.2402C66.0322 10.8711 65.998 10.5247 65.9297 10.2012C65.8613 9.87305 65.752 9.58594 65.6016 9.33984C65.4512 9.08919 65.2529 8.89323 65.0068 8.75195C64.7607 8.60612 64.4577 8.5332 64.0977 8.5332C63.7786 8.5332 63.5007 8.58789 63.2637 8.69727C63.0312 8.80664 62.833 8.95475 62.6689 9.1416C62.5049 9.32389 62.3704 9.53353 62.2656 9.77051C62.1654 10.0029 62.0902 10.2445 62.04 10.4951V12.1426C62.113 12.4616 62.2314 12.7692 62.3955 13.0654C62.5641 13.3571 62.7874 13.5964 63.0654 13.7832C63.348 13.9701 63.6966 14.0635 64.1113 14.0635C64.4531 14.0635 64.7448 13.9951 64.9863 13.8584C65.2324 13.7171 65.4307 13.5234 65.5811 13.2773C65.736 13.0312 65.8499 12.7464 65.9229 12.4229C65.9958 12.0993 66.0322 11.7529 66.0322 11.3838ZM71.1494 14.2344L73.207 7.60352H74.5605L71.5938 16.1416C71.5254 16.3239 71.4342 16.5199 71.3203 16.7295C71.2109 16.9437 71.0697 17.1465 70.8965 17.3379C70.7233 17.5293 70.5137 17.6842 70.2676 17.8027C70.026 17.9258 69.7367 17.9873 69.3994 17.9873C69.2992 17.9873 69.1715 17.9736 69.0166 17.9463C68.8617 17.9189 68.7523 17.8962 68.6885 17.8779L68.6816 16.8525C68.7181 16.8571 68.7751 16.8617 68.8525 16.8662C68.9346 16.8753 68.9915 16.8799 69.0234 16.8799C69.3105 16.8799 69.5544 16.8411 69.7549 16.7637C69.9554 16.6908 70.124 16.5654 70.2607 16.3877C70.402 16.2145 70.5228 15.9753 70.623 15.6699L71.1494 14.2344ZM69.6387 7.60352L71.5596 13.3457L71.8877 14.6787L70.9785 15.1436L68.2578 7.60352H69.6387Z" fill="white"/>
</svg>
