<svg width="252" height="48" viewBox="0 0 252 48" fill="none" xmlns="http://www.w3.org/2000/svg">
    <path d="M42.202 30.2406C41.9774 30.1582 41.7387 30.1207 41.4995 30.1303C41.2603 30.1399 41.0254 30.1964 40.8082 30.2966C40.591 30.3968 40.3958 30.5386 40.2338 30.714C40.0718 30.8894 39.9461 31.0949 39.864 31.3187C39.864 31.3187 38.6688 35.8548 27.5643 37.8925C26.8212 36.2211 24.967 33.318 21.2234 33.7577L21.9876 35.4674C22.429 35.5075 22.8739 35.4852 23.309 35.4012C22.8463 35.9385 20.1018 36.9957 18.1914 36.5561C18.3337 36.5098 18.4665 36.4389 18.584 36.3467L17.9075 35.1569C17.9075 35.1569 15.6817 36.4793 16.551 38.4577C17.4203 40.4361 20.1228 39.5045 20.1228 39.5045C20.1228 39.5045 19.1519 40.321 18.23 40.321C17.6411 41.9435 19.6531 44.7244 21.8404 44.3964C21.7304 44.5396 21.5888 44.6557 21.4265 44.7356C21.2642 44.8154 21.0855 44.857 20.9045 44.857C22.3661 45.6351 27.0771 45.827 27.9148 41.5108C41.3958 39.0998 43.2781 32.5888 43.2886 32.5679C43.3708 32.3441 43.4079 32.1063 43.3978 31.8682C43.3877 31.6301 43.3305 31.3963 43.2296 31.1802C43.1287 30.964 42.986 30.7698 42.8097 30.6086C42.6334 30.4474 42.4269 30.3223 42.202 30.2406Z" fill="#42E8E0"/>
    <path d="M12.4924 32.4916L14.3537 36.2146C14.7042 36.8916 14.7042 37.7918 14.2275 38.0779L11.4233 39.7458C11.5225 39.8047 11.6153 39.8736 11.7002 39.9516C11.9689 40.1927 12.1695 40.4996 12.282 40.8418C12.3946 41.184 12.4151 41.5496 12.3417 41.9021C16.4953 40.8693 17.0071 34.641 12.4924 32.4916Z" fill="#42E8E0"/>
    <path d="M9.15189 40.4292C10.1544 38.9009 9.15189 37.3831 7.88651 37.1668C7.77113 37.1442 7.6534 37.136 7.53599 37.1423C8.44033 35.3454 7.4764 33.6252 6.24608 33.3879C4.51101 33.039 3.77142 36.1444 3.65925 37.9553C3.54708 39.7662 5.37679 39.2952 5.37679 39.2952C5.49948 39.2185 5.61865 39.1452 5.72731 39.0684C5.53302 39.6749 5.41528 40.3032 5.37679 40.9386C5.28916 42.446 7.12939 42.0796 7.12939 42.0796C7.25207 42.0203 7.36774 41.9575 7.47991 41.8982C7.38527 42.0098 7.29764 42.118 7.22053 42.2227C6.31268 43.4334 8.03724 44.1243 8.03724 44.1243C12.2154 44.6407 12.6991 41.6609 11.4162 40.4571C10.7397 39.857 9.92303 39.9931 9.15189 40.4292Z" fill="#42E8E0"/>
    <path d="M32.016 16.7896C31.2168 16.7896 30.5683 17.6898 30.5683 18.7959C30.5683 19.902 31.2168 20.8022 32.016 20.8022C32.8151 20.8022 33.4636 19.9054 33.4636 18.7959C33.4636 17.6863 32.8221 16.7896 32.016 16.7896Z" fill="#42E8E0"/>
    <path d="M42.0583 13.105C42.3305 12.6946 42.689 12.3479 43.109 12.0889C43.529 11.8298 44.0005 11.6646 44.4909 11.6046C42.2896 9.22148 36.4955 8.68414 36.4955 8.68414C36.7569 9.03239 36.9181 9.44494 36.9617 9.87748C36.2607 8.91444 34.1786 6.79647 31.5497 7.17331C31.6653 6.92538 31.8088 6.69127 31.9773 6.47546C31.6497 5.52489 31.3851 4.55397 31.1852 3.56894C31.6044 3.42385 31.957 3.13308 32.1782 2.75004C32.3994 2.36699 32.4743 1.91738 32.3893 1.48374C32.3042 1.0501 32.0649 0.661546 31.7152 0.389431C31.3656 0.117316 30.929 -0.0201274 30.4858 0.00238526C30.0425 0.0248979 29.6223 0.205844 29.3022 0.511972C28.9822 0.8181 28.7838 1.22889 28.7436 1.66889C28.7033 2.10889 28.8238 2.54856 29.0831 2.90721C29.3423 3.26585 29.7227 3.51938 30.1546 3.62124C30.1908 4.8833 30.3887 6.13561 30.7435 7.34777C27.8447 8.34919 27.3049 12.0896 27.3049 12.0896C27.1637 11.5584 27.1771 10.9981 27.3435 10.4741C26.5723 10.8963 20.2384 15.708 20.5083 21.6607C20.7782 27.6133 26.5127 33.6916 35.7244 31.1933C44.936 28.695 45.4933 20.9279 45.4933 20.9279C45.4933 20.9279 44.0667 20.9663 43.7197 19.9684C49.321 20.8965 48.0556 9.96471 42.0583 13.105ZM39.0438 24.2916C36.6813 28.3042 25.8082 30.0837 23.1127 26.1862C21.9735 24.5393 21.6791 23.3146 21.5914 21.4094C21.5178 19.7625 21.7632 18.4715 22.5834 17.1456C24.2309 14.4868 32.6258 13.1364 36.8425 14.2216C39.6677 14.9264 40.2426 22.2434 39.0438 24.2706V24.2916Z" fill="#42E8E0"/>
    <path d="M31.4697 23.9675C31.4117 23.9254 31.3459 23.895 31.2761 23.8781C31.2063 23.8613 31.1339 23.8583 31.0629 23.8693C30.992 23.8803 30.9239 23.9051 30.8626 23.9424C30.8012 23.9796 30.7479 24.0284 30.7055 24.0861C29.3525 25.9529 26.8814 24.6654 26.8744 24.6619C26.7461 24.5962 26.5968 24.5839 26.4594 24.6277C26.322 24.6716 26.2078 24.768 26.1418 24.8957C26.0758 25.0234 26.0634 25.1719 26.1075 25.3087C26.1515 25.4455 26.2483 25.5592 26.3766 25.6249C26.3766 25.6249 29.682 27.3486 31.5888 24.7247C31.6311 24.6673 31.6615 24.6021 31.6784 24.5329C31.6953 24.4637 31.6983 24.3918 31.6872 24.3215C31.6762 24.2511 31.6512 24.1836 31.6139 24.1229C31.5766 24.0622 31.5275 24.0094 31.4697 23.9675Z" fill="#42E8E0"/>
    <path d="M24.0238 18.1816C23.2877 18.1816 22.6919 19.0085 22.6919 20.0274C22.6919 21.0462 23.2877 21.8697 24.0238 21.8697C24.7599 21.8697 25.3558 21.0462 25.3558 20.0274C25.3558 19.0085 24.7599 18.1816 24.0238 18.1816Z" fill="#42E8E0"/>
    <path fill-rule="evenodd" clip-rule="evenodd" d="M12.1626 18.168C14.2412 18.168 16.9718 21.3083 18.2582 25.1465C19.5446 28.9846 18.8961 32.125 16.814 32.125C14.7319 32.125 12.0049 28.9846 10.7185 25.1465C9.4321 21.3083 10.0806 18.168 12.1626 18.168ZM25.7838 45.1224L26.4849 46.6891C26.5389 46.7974 26.5707 46.9154 26.5783 47.0362C26.5859 47.1569 26.5691 47.278 26.529 47.3922C26.4889 47.5064 26.4263 47.6115 26.3448 47.7012C26.2633 47.791 26.1645 47.8636 26.0544 47.9148C25.9443 47.966 25.825 47.9947 25.7036 47.9994C25.5821 48.004 25.461 47.9844 25.3472 47.9417C25.2335 47.899 25.1295 47.8341 25.0413 47.7508C24.9532 47.6675 24.8827 47.5675 24.8339 47.4567L23.9646 45.7539C24.6057 45.66 25.2231 45.4457 25.7838 45.1224ZM19.9161 32.3273L21.5495 35.7747C20.7511 36.0406 19.9167 36.1841 19.0749 36.2004L17.6202 33.5032C14.774 33.4439 11.2688 29.5953 9.76159 24.8534C8.25435 20.1115 9.33045 16.207 12.1907 16.207C15.0509 16.207 18.5947 20.0766 20.1124 24.8534C21.1254 28.0426 20.9747 30.8304 19.9161 32.3273ZM0.36066 27.5052L6.29495 24.494C6.78568 24.2428 7.38507 24.3753 7.7461 25.0557L13.7996 36.5144C14.1501 37.2123 14.2027 38.0985 13.7295 38.3846L11.4651 39.7803C10.8166 39.3826 10.063 39.5326 9.30942 39.9269C9.53997 39.6367 9.68914 39.2908 9.74174 38.9246C9.79434 38.5583 9.74849 38.1847 9.60885 37.8418C9.46921 37.4989 9.24078 37.199 8.94682 36.9725C8.65286 36.7461 8.30386 36.6013 7.93538 36.5528C7.80474 36.5294 7.67183 36.5213 7.53929 36.5284C8.51023 34.6861 7.46569 32.9135 6.13722 32.6658C4.89638 32.432 4.13225 33.7405 3.72214 35.192L0.304577 29.3754C-0.0950146 28.7125 -0.126561 27.7599 0.36066 27.5052Z" fill="#42E8E0"/>
    <path d="M74.6472 30.2932H69.7635L67.1357 27.1851H61.5314V30.2932H57.8816V24.288H68.1388C69.269 24.288 70.1497 23.7816 70.1497 22.9753C70.1497 22.0611 69.3915 21.6064 68.1388 21.6064H57.8816L60.2599 18.5499H67.8421C70.5217 18.5499 73.9031 19.3937 73.9031 22.7456C73.9256 23.6318 73.6259 24.4964 73.0592 25.1802C72.4924 25.8641 71.6968 26.3213 70.8184 26.4679C71.4104 26.9384 71.9646 27.454 72.4761 28.0102L74.6472 30.2932Z" fill="white"/>
    <path d="M93.6306 24.414C93.6306 28.605 90.739 30.5083 85.0124 30.5083C79.2857 30.5083 76.3894 28.6331 76.3894 24.414C76.3894 20.1948 79.2669 18.3571 85.0124 18.3571C90.7579 18.3571 93.6306 20.2182 93.6306 24.414ZM89.9996 24.414C89.9996 21.8871 88.6763 21.4136 85.0124 21.4136C81.3484 21.4136 80.0204 21.8824 80.0204 24.414C80.0204 26.9455 81.3437 27.4283 85.0124 27.4283C88.681 27.4283 89.9996 26.9408 89.9996 24.414Z" fill="white"/>
    <path d="M111.875 26.871C111.875 28.8166 110.801 30.2932 107.081 30.2932H96.7156V23.1487H107.152C107.684 23.1487 108.174 22.9566 108.174 22.3612C108.174 21.7658 107.665 21.6064 107.152 21.6064H96.7156L99.1833 18.5499H106.996C109.822 18.5499 111.63 19.6421 111.63 21.7986C111.662 22.3252 111.523 22.848 111.234 23.2902C110.945 23.7323 110.521 24.0705 110.024 24.2551C110.583 24.4214 111.069 24.7698 111.405 25.2442C111.74 25.7186 111.906 26.2916 111.875 26.871ZM100.384 25.6568V27.2742H107.1C107.891 27.2742 108.23 26.9929 108.23 26.4491C108.23 25.9053 107.891 25.6568 107.1 25.6568H100.384Z" fill="white"/>
    <path d="M131.815 24.414C131.815 28.605 128.923 30.5083 123.192 30.5083C117.46 30.5083 114.573 28.6331 114.573 24.414C114.573 20.1948 117.446 18.3571 123.192 18.3571C128.937 18.3571 131.815 20.2182 131.815 24.414ZM128.184 24.414C128.184 21.8871 126.86 21.4136 123.192 21.4136C119.523 21.4136 118.204 21.8824 118.204 24.414C118.204 26.9455 119.528 27.4283 123.192 27.4283C126.856 27.4283 128.184 26.9408 128.184 24.414Z" fill="white"/>
    <path d="M142.18 22.9565H149.715V30.2932H141.634C137.546 30.2932 134.528 27.7101 134.528 24.3067C134.528 20.9032 137.546 18.5499 141.634 18.5499H150.078L147.723 21.6064H141.634C139.661 21.6064 138.158 22.7972 138.158 24.4661C138.158 26.135 139.604 27.2789 141.634 27.2789H146.094V25.5772H139.972L142.18 22.9565Z" fill="white"/>
    <path d="M169.787 30.2932H164.904L162.276 27.1851H156.671V30.2932H153.022V24.288H163.279C164.409 24.288 165.29 23.7816 165.29 22.9753C165.29 22.0611 164.531 21.6064 163.279 21.6064H153.022L155.4 18.5499H162.982C165.662 18.5499 169.043 19.3937 169.043 22.7456C169.066 23.6318 168.766 24.4964 168.199 25.1802C167.632 25.8641 166.837 26.3213 165.958 26.4679C166.55 26.9384 167.105 27.454 167.616 28.0102L169.787 30.2932Z" fill="white"/>
    <path d="M177.312 30.2926L179.516 27.2736H182.479C183.185 27.2736 184.009 27.2736 184.574 27.3064C184.259 26.8845 183.764 26.1672 183.378 25.6047L181.264 22.5012L175.725 30.2926H171.407L178.97 19.6743C179.221 19.2765 179.568 18.9476 179.979 18.7175C180.39 18.4874 180.853 18.3635 181.325 18.3571C181.794 18.3596 182.255 18.482 182.663 18.7127C183.071 18.9433 183.413 19.2745 183.656 19.6743L191.022 30.2926H177.312Z" fill="white"/>
    <path d="M201.462 30.2935H193.565V22.9756H197.233V27.2745H201.472C203.501 27.2745 204.961 26.1494 204.961 24.4617C204.961 22.774 203.445 21.602 201.472 21.602H193.565L195.891 18.5455H201.462C205.588 18.5455 208.569 20.9175 208.569 24.3023C208.569 27.687 205.555 30.2935 201.462 30.2935Z" fill="white"/>
    <path d="M215.355 30.2928H211.705V18.5729H215.355V30.2928Z" fill="white"/>
    <path d="M229.352 29.8522L222.123 23.3922V30.2882H218.826V20.5466C218.826 18.9855 219.768 18.3526 220.818 18.3526C221.092 18.3536 221.363 18.4102 221.614 18.5191C221.865 18.6279 222.091 18.7866 222.278 18.9855L229.507 25.4408V18.5448H232.818V28.2677C232.818 29.8288 231.876 30.4804 230.812 30.4804C230.538 30.4826 230.267 30.4278 230.015 30.3196C229.764 30.2114 229.538 30.0523 229.352 29.8522Z" fill="white"/>
    <path d="M243.489 22.9565H251.024V30.2932H242.943C238.855 30.2932 235.841 27.7101 235.841 24.3067C235.841 20.9032 238.855 18.5499 242.943 18.5499H251.387L249.032 21.6064H242.943C240.969 21.6064 239.467 22.7972 239.467 24.4661C239.467 26.135 240.913 27.2789 242.943 27.2789H247.417V25.5772H241.294L243.489 22.9565Z" fill="white"/>
</svg>
