<svg width="250" height="64" viewBox="0 0 250 64" fill="none" xmlns="http://www.w3.org/2000/svg">
<path d="M41.0507 38.2863C40.8428 38.2101 40.6219 38.1755 40.4006 38.1843C40.1793 38.1932 39.9619 38.2455 39.761 38.3382C39.56 38.4309 39.3794 38.5622 39.2294 38.7245C39.0795 38.8868 38.9632 39.0769 38.8873 39.284C38.8873 39.284 37.7813 43.4813 27.5061 45.3669C26.8184 43.8203 25.1027 41.134 21.6387 41.5408L22.3457 43.1229C22.7542 43.16 23.1659 43.1394 23.5685 43.0616C23.1404 43.5588 20.6008 44.5371 18.8331 44.1303C18.9647 44.0874 19.0877 44.0219 19.1964 43.9365L18.5704 42.8355C18.5704 42.8355 16.5108 44.0592 17.3152 45.8899C18.1195 47.7206 20.6202 46.8585 20.6202 46.8585C20.6202 46.8585 19.7218 47.614 18.8688 47.614C18.3239 49.1153 20.1856 51.6886 22.2095 51.3851C22.1078 51.5177 21.9767 51.625 21.8265 51.6989C21.6764 51.7728 21.5111 51.8113 21.3435 51.8113C22.696 52.5313 27.0552 52.7089 27.8304 48.715C40.3047 46.484 42.0464 40.4593 42.0561 40.4399C42.1322 40.2328 42.1665 40.0128 42.1572 39.7924C42.1478 39.5721 42.0949 39.3558 42.0016 39.1558C41.9082 38.9558 41.7761 38.7761 41.613 38.6269C41.4498 38.4777 41.2588 38.362 41.0507 38.2863V38.2863Z" fill="#42E8E0"/>
<path d="M13.5593 40.3688L15.2816 43.8138C15.6059 44.4401 15.6059 45.2731 15.1648 45.5379L12.5701 47.0812C12.6619 47.1357 12.7477 47.1995 12.8263 47.2717C13.0749 47.4947 13.2605 47.7788 13.3647 48.0954C13.4688 48.412 13.4878 48.7503 13.4199 49.0765C17.2633 48.1208 17.7369 42.3576 13.5593 40.3688Z" fill="#42E8E0"/>
<path d="M10.4683 47.7141C11.3959 46.3 10.4683 44.8955 9.2974 44.6953C9.19064 44.6744 9.08169 44.6669 8.97306 44.6727C9.80986 43.0099 8.91792 41.4182 7.77947 41.1986C6.17397 40.8758 5.4896 43.7493 5.38581 45.425C5.28202 47.1007 6.9751 46.6648 6.9751 46.6648C7.08862 46.5938 7.19889 46.526 7.29944 46.4549C7.11965 47.0162 7.0107 47.5975 6.9751 48.1855C6.89401 49.5803 8.59682 49.2413 8.59682 49.2413C8.71034 49.1864 8.81737 49.1283 8.92116 49.0734C8.83359 49.1767 8.7525 49.2768 8.68115 49.3736C7.84109 50.494 9.43687 51.1333 9.43687 51.1333C13.303 51.6111 13.7506 48.8538 12.5635 47.74C11.9376 47.1846 11.1818 47.3106 10.4683 47.7141Z" fill="#42E8E0"/>
<path d="M31.6252 25.8398C30.8857 25.8398 30.2857 26.6728 30.2857 27.6963C30.2857 28.7198 30.8857 29.5528 31.6252 29.5528C32.3648 29.5528 32.9648 28.7231 32.9648 27.6963C32.9648 26.6696 32.3712 25.8398 31.6252 25.8398Z" fill="#42E8E0"/>
<path d="M40.9177 22.4304C41.1697 22.0506 41.5014 21.7298 41.89 21.4901C42.2786 21.2504 42.7149 21.0975 43.1687 21.042C41.1318 18.8368 35.7704 18.3396 35.7704 18.3396C36.0122 18.6618 36.1614 19.0436 36.2018 19.4438C35.5531 18.5527 33.6265 16.5929 31.1939 16.9416C31.3009 16.7122 31.4336 16.4955 31.5896 16.2959C31.2865 15.4163 31.0416 14.5179 30.8566 13.6064C31.2445 13.4721 31.5707 13.2031 31.7754 12.8486C31.9801 12.4942 32.0495 12.0781 31.9708 11.6769C31.8921 11.2756 31.6706 10.9161 31.3471 10.6643C31.0235 10.4125 30.6196 10.2853 30.2094 10.3062C29.7992 10.327 29.4104 10.4944 29.1142 10.7777C28.8181 11.061 28.6346 11.4411 28.5973 11.8482C28.5601 12.2554 28.6716 12.6622 28.9114 12.9941C29.1513 13.3259 29.5034 13.5605 29.903 13.6548C29.9365 14.8226 30.1196 15.9814 30.4479 17.103C27.7656 18.0297 27.2661 21.4908 27.2661 21.4908C27.1354 20.9992 27.1478 20.4808 27.3018 19.9959C26.5882 20.3866 20.7273 24.839 20.9771 30.3471C21.2268 35.8552 26.5331 41.4796 35.0568 39.1678C43.5806 36.8561 44.0963 29.6691 44.0963 29.6691C44.0963 29.6691 42.7762 29.7046 42.4551 28.7812C47.6381 29.64 46.4673 19.5245 40.9177 22.4304ZM38.1284 32.7815C35.9423 36.4945 25.8811 38.1411 23.3869 34.5347C22.3328 33.0107 22.0604 31.8775 21.9793 30.1146C21.9112 28.5907 22.1382 27.3961 22.8972 26.1692C24.4216 23.7089 32.1896 22.4594 36.0915 23.4635C38.7057 24.1157 39.2376 30.8863 38.1284 32.7621V32.7815Z" fill="#42E8E0"/>
<path d="M31.1193 32.4813C31.0656 32.4423 31.0047 32.4142 30.9402 32.3986C30.8756 32.383 30.8086 32.3802 30.7429 32.3904C30.6772 32.4006 30.6142 32.4236 30.5575 32.458C30.5008 32.4925 30.4514 32.5376 30.4122 32.5911C29.1602 34.3184 26.8736 33.127 26.8671 33.1238C26.7484 33.063 26.6103 33.0516 26.4832 33.0922C26.3561 33.1328 26.2503 33.222 26.1893 33.3402C26.1282 33.4583 26.1168 33.5958 26.1575 33.7223C26.1983 33.8489 26.2879 33.9541 26.4066 34.0149C26.4066 34.0149 29.4651 35.6099 31.2296 33.182C31.2687 33.1288 31.2968 33.0685 31.3125 33.0044C31.3281 32.9404 31.3308 32.8739 31.3206 32.8088C31.3104 32.7437 31.2873 32.6813 31.2527 32.6251C31.2182 32.5689 31.1728 32.52 31.1193 32.4813V32.4813Z" fill="#42E8E0"/>
<path d="M24.2302 27.1281C23.5491 27.1281 22.9977 27.8932 22.9977 28.836C22.9977 29.7788 23.5491 30.5408 24.2302 30.5408C24.9113 30.5408 25.4627 29.7788 25.4627 28.836C25.4627 27.8932 24.9113 27.1281 24.2302 27.1281Z" fill="#42E8E0"/>
<path fill-rule="evenodd" clip-rule="evenodd" d="M13.2544 27.1153C15.1778 27.1153 17.7044 30.0211 18.8947 33.5727C20.0851 37.1242 19.485 40.03 17.5584 40.03C15.6318 40.03 13.1084 37.1242 11.9181 33.5727C10.7278 30.0211 11.3278 27.1153 13.2544 27.1153ZM25.8584 52.0569L26.5071 53.5066C26.5571 53.6068 26.5865 53.716 26.5936 53.8278C26.6006 53.9395 26.5851 54.0515 26.548 54.1572C26.5109 54.2629 26.4529 54.3601 26.3775 54.4431C26.302 54.5262 26.2107 54.5934 26.1088 54.6407C26.0069 54.6881 25.8965 54.7147 25.7841 54.719C25.6717 54.7233 25.5596 54.7051 25.4544 54.6656C25.3492 54.6261 25.2529 54.5661 25.1714 54.489C25.0898 54.412 25.0245 54.3194 24.9794 54.2168L24.1751 52.6412C24.7683 52.5544 25.3395 52.3561 25.8584 52.0569V52.0569ZM20.4289 40.2173L21.9403 43.4072C21.2015 43.6533 20.4294 43.7861 19.6505 43.8011L18.3044 41.3053C15.6708 41.2505 12.4273 37.6892 11.0326 33.3015C9.63796 28.9137 10.6337 25.3008 13.2803 25.3008C15.927 25.3008 19.2061 28.8814 20.6105 33.3015C21.5479 36.2525 21.4084 38.8322 20.4289 40.2173ZM2.33373 35.7553L7.82487 32.9689C8.27895 32.7364 8.83358 32.8591 9.16766 33.4887L14.7691 44.0917C15.0934 44.7374 15.1421 45.5575 14.7042 45.8223L12.6089 47.1137C12.0089 46.7457 11.3116 46.8845 10.6142 47.2494C10.8276 46.9808 10.9656 46.6608 11.0143 46.3219C11.0629 45.9829 11.0205 45.6372 10.8913 45.32C10.7621 45.0027 10.5507 44.7251 10.2787 44.5156C10.0067 44.3061 9.68377 44.1721 9.3428 44.1272C9.22192 44.1056 9.09893 44.098 8.97629 44.1046C9.87473 42.3999 8.90818 40.7597 7.67892 40.5305C6.53074 40.3142 5.82367 41.5249 5.44419 42.8681L2.28183 37.4858C1.91208 36.8724 1.88289 35.991 2.33373 35.7553V35.7553Z" fill="#42E8E0"/>
<path fill-rule="evenodd" clip-rule="evenodd" d="M27.1187 13.1503C29.3597 5.73998 33.9086 -0.305085 42.4351 2.74656C45.782 3.94521 48.1805 6.33479 49.589 9.35432C50.9976 12.3738 50.7596 20.3026 50.7596 20.3026L49.6008 22.6372L45.8808 21.4625L27.1187 13.1503Z" fill="#B5292A"/>
<path opacity="0.2" fill-rule="evenodd" clip-rule="evenodd" d="M42.4198 15.2649C42.859 12.1046 39.8393 5.6565 36.7616 4.6183C35.4383 4.17284 39.4909 4.64871 42.7387 8.85529C45.9866 13.0619 46.8112 14.7083 48.0359 18.2117C49.2607 21.715 49.8762 22.0782 49.8762 22.0782L46.7249 23.4132L42.4196 15.2621L42.4198 15.2649Z" fill="#181714"/>
<path opacity="0.2" fill-rule="evenodd" clip-rule="evenodd" d="M47.7668 20.9306C47.7668 20.9306 48.3396 21.0133 48.6863 19.9331C48.4938 19.4651 48.2758 18.9016 48.036 18.2117C46.8687 14.874 46.06 13.2182 43.1838 9.43762C43.2668 9.57114 45.1218 12.5926 45.3406 13.9419C45.5639 15.3187 45.1051 16.3699 45.1051 16.3699L47.767 20.9334L47.7668 20.9306Z" fill="#181714"/>
<path fill-rule="evenodd" clip-rule="evenodd" d="M23.7476 23.2571C23.7476 23.2571 25.5142 21.636 27.934 21.4808C34.7737 21.0421 40.8981 21.5184 45.5827 27.0378C45.5827 27.0378 47.3185 26.4822 47.655 25.1139C49.8222 16.3394 39.8915 11.6674 32.1958 12.161C29.2163 12.3522 26.4444 12.8604 24.8008 14.8956C23.1547 16.9338 21.3983 22.3221 23.7474 23.2543L23.7476 23.2571Z" fill="white"/>
<path opacity="0.2" fill-rule="evenodd" clip-rule="evenodd" d="M23.6853 23.2305C25.8773 19.3942 32.5165 18.9211 36.3112 19.7995C40.2932 20.7214 43.0095 23.0406 44.7672 22.7418C45.6856 22.5857 46.8509 21.8557 47.767 20.9334C48.0439 22.2012 48.0316 23.5987 47.6553 25.1194C47.3187 26.4849 45.5831 27.0433 45.5831 27.0433C40.8984 21.5239 34.7769 21.0474 27.9344 21.4864C25.5146 21.6416 23.748 23.2626 23.748 23.2626C23.7253 23.253 23.7054 23.2431 23.6828 23.2335L23.6853 23.2305Z" fill="#181714"/>
<path d="M50.8771 24.7962C52.5984 24.6858 53.9082 23.2629 53.8027 21.6181C53.6972 19.9732 52.2163 18.7293 50.495 18.8398C48.7737 18.9502 47.4638 20.3731 47.5693 22.0179C47.6748 23.6627 49.1558 24.9066 50.8771 24.7962Z" fill="white"/>
<path opacity="0.2" fill-rule="evenodd" clip-rule="evenodd" d="M52.0506 19.1259C53.0299 19.5767 53.7315 20.5064 53.8028 21.618C53.9081 23.2606 52.5973 24.6858 50.8771 24.7962C49.5794 24.8794 48.4169 24.1932 47.8813 23.1446C48.3496 23.3589 48.8799 23.4665 49.4369 23.4308C51.1571 23.3204 52.4681 21.898 52.3625 20.2526C52.3366 19.8489 52.2269 19.47 52.0535 19.1285L52.0506 19.1259Z" fill="#181714"/>
<path opacity="0.2" fill-rule="evenodd" clip-rule="evenodd" d="M45.583 27.0405C45.583 27.0405 47.3187 26.4849 47.6552 25.1166C47.69 24.9728 47.7194 24.8293 47.7489 24.6886C47.3378 24.9787 46.5718 25.3638 45.5957 25.1349C44.1107 24.7887 43.25 23.0529 37.5995 21.5883C31.949 20.1237 26.789 21.6681 26.789 21.6681C27.1495 21.5755 27.5307 21.5067 27.9341 21.4808C34.7738 21.0421 40.8981 21.5183 45.5828 27.0377L45.583 27.0405Z" fill="#181714"/>
<path d="M73.04 37.9407H68.1562L65.5285 34.8326H59.9242V37.9407H56.2744V31.9355H66.5316C67.6618 31.9355 68.5424 31.4291 68.5424 30.6228C68.5424 29.7086 67.7843 29.2539 66.5316 29.2539H56.2744L58.6527 26.1974H66.2349C68.9145 26.1974 72.2959 27.0412 72.2959 30.3931C72.3184 31.2793 72.0187 32.1439 71.452 32.8277C70.8852 33.5116 70.0896 33.9688 69.2112 34.1154C69.8032 34.5859 70.3574 35.1015 70.8689 35.6577L73.04 37.9407Z" fill="white"/>
<path d="M92.0234 32.0614C92.0234 36.2524 89.1318 38.1557 83.4052 38.1557C77.6785 38.1557 74.7822 36.2805 74.7822 32.0614C74.7822 27.8422 77.6597 26.0045 83.4052 26.0045C89.1507 26.0045 92.0234 27.8656 92.0234 32.0614ZM88.3924 32.0614C88.3924 29.5345 87.0691 29.061 83.4052 29.061C79.7412 29.061 78.4132 29.5298 78.4132 32.0614C78.4132 34.5929 79.7365 35.0757 83.4052 35.0757C87.0738 35.0757 88.3924 34.5882 88.3924 32.0614Z" fill="white"/>
<path d="M110.268 34.5185C110.268 36.4641 109.194 37.9407 105.474 37.9407H95.1083V30.7962H105.545C106.077 30.7962 106.567 30.6041 106.567 30.0087C106.567 29.4133 106.058 29.2539 105.545 29.2539H95.1083L97.576 26.1974H105.389C108.215 26.1974 110.023 27.2896 110.023 29.4461C110.055 29.9727 109.916 30.4955 109.627 30.9377C109.338 31.3798 108.914 31.718 108.417 31.9026C108.976 32.0689 109.462 32.4173 109.798 32.8917C110.133 33.3661 110.299 33.9391 110.268 34.5185ZM98.7767 33.3043V34.9217H105.493C106.284 34.9217 106.623 34.6404 106.623 34.0966C106.623 33.5528 106.284 33.3043 105.493 33.3043H98.7767Z" fill="white"/>
<path d="M130.208 32.0614C130.208 36.2524 127.316 38.1557 121.585 38.1557C115.853 38.1557 112.966 36.2805 112.966 32.0614C112.966 27.8422 115.839 26.0045 121.585 26.0045C127.33 26.0045 130.208 27.8656 130.208 32.0614ZM126.577 32.0614C126.577 29.5345 125.253 29.061 121.585 29.061C117.916 29.061 116.597 29.5298 116.597 32.0614C116.597 34.5929 117.921 35.0757 121.585 35.0757C125.249 35.0757 126.577 34.5882 126.577 32.0614Z" fill="white"/>
<path d="M140.573 30.604H148.108V37.9407H140.027C135.939 37.9407 132.921 35.3576 132.921 31.9542C132.921 28.5507 135.939 26.1974 140.027 26.1974H148.471L146.116 29.2539H140.027C138.054 29.2539 136.551 30.4447 136.551 32.1136C136.551 33.7825 137.997 34.9264 140.027 34.9264H144.487V33.2247H138.365L140.573 30.604Z" fill="white"/>
<path d="M168.18 37.9407H163.297L160.669 34.8326H155.064V37.9407H151.415V31.9355H161.672C162.802 31.9355 163.683 31.4291 163.683 30.6228C163.683 29.7086 162.924 29.2539 161.672 29.2539H151.415L153.793 26.1974H161.375C164.055 26.1974 167.436 27.0412 167.436 30.3931C167.459 31.2793 167.159 32.1439 166.592 32.8277C166.025 33.5116 165.23 33.9688 164.351 34.1154C164.943 34.5859 165.498 35.1015 166.009 35.6577L168.18 37.9407Z" fill="white"/>
<path d="M175.705 37.94L177.909 34.921H180.872C181.578 34.921 182.402 34.921 182.967 34.9538C182.652 34.5319 182.157 33.8146 181.771 33.2521L179.657 30.1486L174.118 37.94H169.8L177.363 27.3217C177.614 26.9239 177.961 26.595 178.372 26.3649C178.783 26.1348 179.246 26.0109 179.718 26.0045C180.187 26.007 180.648 26.1294 181.056 26.3601C181.464 26.5907 181.806 26.9219 182.049 27.3217L189.415 37.94H175.705Z" fill="white"/>
<path d="M199.855 37.941H191.958V30.6231H195.626V34.922H199.865C201.894 34.922 203.354 33.7969 203.354 32.1092C203.354 30.4215 201.838 29.2495 199.865 29.2495H191.958L194.284 26.193H199.855C203.981 26.193 206.962 28.565 206.962 31.9498C206.962 35.3345 203.948 37.941 199.855 37.941Z" fill="white"/>
<path d="M213.748 37.9402H210.098V26.2203H213.748V37.9402Z" fill="white"/>
<path d="M227.745 37.4996L220.516 31.0396V37.9356H217.219V28.194C217.219 26.6329 218.161 26 219.211 26C219.485 26.001 219.756 26.0576 220.007 26.1665C220.258 26.2753 220.484 26.434 220.671 26.6329L227.9 33.0882V26.1922H231.211V35.9151C231.211 37.4762 230.269 38.1278 229.205 38.1278C228.931 38.13 228.66 38.0752 228.408 37.967C228.157 37.8588 227.931 37.6997 227.745 37.4996Z" fill="white"/>
<path d="M241.882 30.604H249.417V37.9407H241.336C237.248 37.9407 234.234 35.3576 234.234 31.9542C234.234 28.5507 237.248 26.1974 241.336 26.1974H249.78L247.425 29.2539H241.336C239.362 29.2539 237.86 30.4447 237.86 32.1136C237.86 33.7825 239.306 34.9264 241.336 34.9264H245.81V33.2247H239.687L241.882 30.604Z" fill="white"/>
</svg>
