<svg width="208" height="46" viewBox="0 0 208 46" fill="#000" xmlns="http://www.w3.org/2000/svg">
<path d="M39.8606 28.6608C39.6485 28.5827 39.423 28.5472 39.1971 28.5563C38.9712 28.5654 38.7493 28.619 38.5442 28.7139C38.339 28.8089 38.1546 28.9433 38.0016 29.1095C37.8486 29.2758 37.7299 29.4705 37.6524 29.6827C37.6524 29.6827 36.5234 33.9818 26.035 35.913C25.3331 34.329 23.5817 31.5776 20.0459 31.9942L20.7676 33.6147C21.1845 33.6527 21.6047 33.6315 22.0157 33.5519C21.5787 34.0611 18.9864 35.0631 17.1821 34.6464C17.3164 34.6026 17.4419 34.5354 17.5529 34.448L16.9139 33.3203C16.9139 33.3203 14.8116 34.5737 15.6326 36.4488C16.4537 38.3238 19.0063 37.4409 19.0063 37.4409C19.0063 37.4409 18.0892 38.2147 17.2185 38.2147C16.6623 39.7524 18.5626 42.3881 20.6285 42.0773C20.5247 42.213 20.3909 42.323 20.2376 42.3987C20.0843 42.4744 19.9156 42.5138 19.7446 42.5138C21.1252 43.2512 25.5748 43.4331 26.3661 39.3424C39.0992 37.0573 40.877 30.8864 40.887 30.8666C40.9646 30.6544 40.9997 30.4291 40.9901 30.2034C40.9805 29.9777 40.9266 29.7562 40.8313 29.5513C40.7359 29.3465 40.6012 29.1624 40.4346 29.0096C40.2681 28.8568 40.073 28.7383 39.8606 28.6608Z"/>
<path d="M11.7993 30.7942L13.5573 34.3227C13.8883 34.9643 13.8883 35.8175 13.4381 36.0886L10.7895 37.6694C10.8832 37.7252 10.9708 37.7906 11.051 37.8645C11.3048 38.093 11.4943 38.3839 11.6006 38.7082C11.7069 39.0325 11.7263 39.379 11.6569 39.7131C15.5801 38.7343 16.0635 32.8313 11.7993 30.7942Z"/>
<path d="M8.64336 38.3178C9.59023 36.8694 8.64336 35.4308 7.44818 35.2258C7.3392 35.2044 7.228 35.1967 7.1171 35.2026C7.97128 33.4995 7.06082 31.8692 5.89875 31.6443C4.25993 31.3136 3.56137 34.2568 3.45542 35.9732C3.34948 37.6895 5.07769 37.2431 5.07769 37.2431C5.19356 37.1703 5.30613 37.1009 5.40876 37.0281C5.22525 37.603 5.11403 38.1984 5.07769 38.8006C4.99492 40.2293 6.73306 39.882 6.73306 39.882C6.84893 39.8258 6.95819 39.7663 7.06413 39.7101C6.97474 39.8159 6.89197 39.9184 6.81914 40.0176C5.96166 41.1651 7.59054 41.8199 7.59054 41.8199C11.5369 42.3094 11.9938 39.4852 10.7821 38.3443C10.1431 37.7755 9.37172 37.9045 8.64336 38.3178Z"/>
<path d="M30.2403 15.9128C29.4854 15.9128 28.8729 16.766 28.8729 17.8144C28.8729 18.8627 29.4854 19.7159 30.2403 19.7159C30.9951 19.7159 31.6076 18.866 31.6076 17.8144C31.6076 16.7627 31.0017 15.9128 30.2403 15.9128Z"/>
<path d="M39.7256 12.4205C39.9827 12.0315 40.3213 11.7029 40.718 11.4574C41.1147 11.2119 41.56 11.0553 42.0232 10.9985C39.9441 8.73981 34.4714 8.23054 34.4714 8.23054C34.7183 8.5606 34.8705 8.9516 34.9118 9.36154C34.2496 8.44882 32.283 6.44147 29.8 6.79863C29.9092 6.56364 30.0447 6.34176 30.2039 6.13723C29.8945 5.23631 29.6445 4.31611 29.4557 3.38252C29.8516 3.24501 30.1846 2.96943 30.3936 2.60639C30.6025 2.24336 30.6733 1.81723 30.593 1.40624C30.5127 0.995251 30.2866 0.626991 29.9563 0.36909C29.6261 0.111188 29.2137 -0.0190761 28.795 0.00226067C28.3764 0.0235975 27.9795 0.195092 27.6772 0.48523C27.3749 0.775368 27.1875 1.1647 27.1495 1.58172C27.1115 1.99874 27.2253 2.41544 27.4702 2.75535C27.715 3.09527 28.0744 3.33555 28.4823 3.43209C28.5165 4.62823 28.7034 5.81513 29.0385 6.96398C26.3005 7.91308 25.7907 11.4582 25.7907 11.4582C25.6573 10.9547 25.6699 10.4236 25.8271 9.92703C25.0987 10.3272 19.1162 14.8875 19.3711 20.5293C19.6261 26.171 25.0424 31.9317 33.7431 29.5639C42.4437 27.1961 42.9701 19.8348 42.9701 19.8348C42.9701 19.8348 41.6226 19.8712 41.2949 18.9254C46.5854 19.805 45.3902 9.44422 39.7256 12.4205ZM36.8783 23.0227C34.6469 26.8258 24.377 28.5123 21.831 24.8184C20.755 23.2575 20.4769 22.0968 20.3942 20.2912C20.3246 18.7303 20.5564 17.5066 21.3311 16.25C22.8871 13.7301 30.8164 12.4503 34.7992 13.4787C37.4676 14.1467 38.0106 21.0815 36.8783 23.0029V23.0227Z"/>
<path d="M29.7228 22.7152C29.668 22.6753 29.6059 22.6465 29.54 22.6305C29.474 22.6145 29.4056 22.6117 29.3386 22.6221C29.2716 22.6326 29.2073 22.6561 29.1494 22.6914C29.0914 22.7266 29.041 22.7729 29.001 22.8277C27.7231 24.5969 25.389 23.3766 25.3824 23.3733C25.2612 23.311 25.1203 23.2994 24.9905 23.3409C24.8607 23.3825 24.7528 23.4739 24.6905 23.5949C24.6281 23.7159 24.6165 23.8567 24.6581 23.9864C24.6997 24.116 24.7911 24.2238 24.9123 24.2861C24.9123 24.2861 28.0343 25.9197 29.8354 23.4329C29.8753 23.3784 29.904 23.3166 29.92 23.251C29.9359 23.1855 29.9387 23.1174 29.9283 23.0507C29.9178 22.984 29.8943 22.9201 29.859 22.8625C29.8238 22.8049 29.7775 22.7549 29.7228 22.7152Z"/>
<path d="M22.6909 17.2319C21.9957 17.2319 21.4329 18.0157 21.4329 18.9813C21.4329 19.9469 21.9957 20.7274 22.6909 20.7274C23.3862 20.7274 23.949 19.9469 23.949 18.9813C23.949 18.0157 23.3862 17.2319 22.6909 17.2319Z"/>
<path fill-rule="evenodd" clip-rule="evenodd" d="M11.4879 17.2189C13.4512 17.2189 16.0303 20.1952 17.2453 23.8329C18.4603 27.4705 17.8478 30.4468 15.8813 30.4468C13.9147 30.4468 11.3389 27.4705 10.1239 23.8329C8.90885 20.1952 9.52133 17.2189 11.4879 17.2189ZM24.3535 42.7654L25.0156 44.2502C25.0667 44.3529 25.0967 44.4648 25.1039 44.5792C25.111 44.6937 25.0952 44.8084 25.0573 44.9166C25.0194 45.0249 24.9603 45.1244 24.8833 45.2095C24.8063 45.2945 24.7131 45.3634 24.609 45.4119C24.505 45.4604 24.3924 45.4877 24.2776 45.4921C24.1629 45.4965 24.0485 45.4779 23.9411 45.4374C23.8337 45.397 23.7354 45.3355 23.6522 45.2565C23.5689 45.1776 23.5023 45.0828 23.4562 44.9777L22.6352 43.3639C23.2407 43.2749 23.8238 43.0718 24.3535 42.7654ZM18.8113 30.6386L20.3541 33.9059C19.5999 34.158 18.8118 34.294 18.0167 34.3094L16.6427 31.7531C13.9544 31.6969 10.6437 28.0493 9.22006 23.5551C7.79644 19.0609 8.81284 15.3604 11.5144 15.3604C14.216 15.3604 17.5631 19.0278 18.9967 23.5551C19.9535 26.5777 19.8111 29.2199 18.8113 30.6386ZM0.340653 26.0684L5.94574 23.2145C6.40924 22.9764 6.97538 23.102 7.31638 23.7469L13.034 34.607C13.3651 35.2684 13.4148 36.1084 12.9678 36.3796L10.8291 37.7024C10.2166 37.3254 9.50478 37.4676 8.79297 37.8413C9.01074 37.5662 9.15163 37.2384 9.20131 36.8913C9.25099 36.5441 9.20768 36.19 9.07579 35.8651C8.9439 35.5401 8.72814 35.2558 8.45049 35.0412C8.17284 34.8266 7.8432 34.6893 7.49516 34.6434C7.37177 34.6213 7.24623 34.6135 7.12105 34.6203C8.03812 32.8742 7.05152 31.1942 5.79675 30.9594C4.62475 30.7379 3.90301 31.978 3.51565 33.3537L0.287681 27.8409C-0.0897436 27.2126 -0.11954 26.3098 0.340653 26.0684Z"/>
<path d="M66.5062 18.597H62.6201L60.5291 16.1153H56.0697V18.597H53.1655V13.8021H61.3273C62.2267 13.8021 62.9274 13.3978 62.9274 12.754C62.9274 12.0241 62.3241 11.661 61.3273 11.661H53.1655L55.0579 9.22046H61.0912C63.2235 9.22046 65.9141 9.89421 65.9141 12.5706C65.932 13.2782 65.6935 13.9685 65.2426 14.5145C64.7916 15.0605 64.1585 15.4256 63.4596 15.5426C63.9306 15.9183 64.3716 16.33 64.7786 16.7741L66.5062 18.597Z"/>
<path d="M81.6127 13.9031C81.6127 17.2494 79.3118 18.7691 74.755 18.7691C70.1981 18.7691 67.8935 17.2719 67.8935 13.9031C67.8935 10.5342 70.1832 9.06689 74.755 9.06689C79.3268 9.06689 81.6127 10.5529 81.6127 13.9031ZM78.7235 13.9031C78.7235 11.8855 77.6704 11.5074 74.755 11.5074C71.8395 11.5074 70.7827 11.8818 70.7827 13.9031C70.7827 15.9244 71.8358 16.3099 74.755 16.3099C77.6742 16.3099 78.7235 15.9206 78.7235 13.9031Z"/>
<path d="M96.1301 15.8645C96.1301 17.418 95.2757 18.597 92.3152 18.597H84.0672V12.8925H92.3714C92.7949 12.8925 93.1846 12.739 93.1846 12.2636C93.1846 11.7883 92.7799 11.661 92.3714 11.661H84.0672L86.0308 9.22046H92.2478C94.4962 9.22046 95.9352 10.0926 95.9352 11.8144C95.9603 12.2349 95.8497 12.6523 95.6197 13.0054C95.3896 13.3584 95.0524 13.6284 94.6573 13.7758C95.1017 13.9086 95.4885 14.1868 95.7556 14.5656C96.0227 14.9444 96.1546 15.4019 96.1301 15.8645ZM86.9864 14.895V16.1865H92.3302C92.9598 16.1865 93.2296 15.9619 93.2296 15.5277C93.2296 15.0935 92.9598 14.895 92.3302 14.895H86.9864Z"/>
<path d="M111.996 13.9031C111.996 17.2494 109.695 18.7691 105.134 18.7691C100.574 18.7691 98.2766 17.2719 98.2766 13.9031C98.2766 10.5342 100.563 9.06689 105.134 9.06689C109.706 9.06689 111.996 10.5529 111.996 13.9031ZM109.107 13.9031C109.107 11.8855 108.054 11.5074 105.134 11.5074C102.215 11.5074 101.166 11.8818 101.166 13.9031C101.166 15.9244 102.219 16.3099 105.134 16.3099C108.05 16.3099 109.107 15.9206 109.107 13.9031Z"/>
<path d="M120.245 12.739H126.24V18.597H119.81C116.557 18.597 114.155 16.5345 114.155 13.817C114.155 11.0995 116.557 9.22046 119.81 9.22046H126.529L124.655 11.661H119.81C118.24 11.661 117.044 12.6117 117.044 13.9443C117.044 15.2769 118.195 16.1902 119.81 16.1902H123.359V14.8314H118.487L120.245 12.739Z"/>
<path d="M142.212 18.597H138.326L136.235 16.1153H131.775V18.597H128.871V13.8021H137.033C137.932 13.8021 138.633 13.3978 138.633 12.754C138.633 12.0241 138.03 11.661 137.033 11.661H128.871L130.764 9.22046H136.797C138.929 9.22046 141.62 9.89421 141.62 12.5706C141.638 13.2782 141.399 13.9685 140.948 14.5145C140.497 15.0605 139.864 15.4256 139.165 15.5426C139.636 15.9183 140.077 16.33 140.484 16.7741L142.212 18.597Z"/>
<path d="M148.2 18.5969L149.954 16.1864H152.311C152.873 16.1864 153.529 16.1864 153.979 16.2126C153.728 15.8757 153.334 15.303 153.027 14.8538L151.344 12.3758L146.937 18.5969H143.501L149.519 10.1187C149.719 9.80106 149.995 9.53839 150.322 9.35467C150.649 9.17094 151.018 9.07202 151.393 9.06689C151.766 9.0689 152.133 9.16666 152.458 9.35083C152.783 9.535 153.055 9.7994 153.248 10.1187L159.109 18.5969H148.2Z"/>
<path d="M167.416 18.5969H161.132V12.7538H164.051V16.1863H167.424C169.039 16.1863 170.201 15.2879 170.201 13.9404C170.201 12.5929 168.994 11.6571 167.424 11.6571H161.132L162.983 9.21655H167.416C170.699 9.21655 173.071 11.1105 173.071 13.8131C173.071 16.5157 170.673 18.5969 167.416 18.5969Z"/>
<path d="M178.471 18.5969H175.566V9.23901H178.471V18.5969Z"/>
<path d="M189.608 18.2449L183.856 13.0869V18.593H181.232V10.8148C181.232 9.56833 181.982 9.06299 182.818 9.06299C183.035 9.06378 183.251 9.10902 183.451 9.19591C183.65 9.2828 183.83 9.40951 183.979 9.5683L189.731 14.7226V9.21647H192.366V16.9798C192.366 18.2262 191.616 18.7465 190.769 18.7465C190.552 18.7482 190.336 18.7045 190.136 18.6181C189.936 18.5318 189.756 18.4047 189.608 18.2449Z"/>
<path d="M200.858 12.739H206.854V18.597H200.424C197.171 18.597 194.773 16.5345 194.773 13.817C194.773 11.0995 197.171 9.22046 200.424 9.22046H207.143L205.269 11.661H200.424C198.854 11.661 197.658 12.6117 197.658 13.9443C197.658 15.2769 198.809 16.1902 200.424 16.1902H203.984V14.8314H199.112L200.858 12.739Z"/>
<path d="M56.9844 32.0896H54.5527V31.4744H56.9844C57.4922 31.4744 57.9043 31.3923 58.2207 31.2283C58.541 31.0603 58.7734 30.8337 58.918 30.5486C59.0664 30.2634 59.1406 29.9431 59.1406 29.5876C59.1406 29.24 59.0664 28.9197 58.918 28.6267C58.7734 28.3337 58.541 28.0994 58.2207 27.9236C57.9043 27.7439 57.4922 27.6541 56.9844 27.6541H54.8047V35.5642H54.084V27.033H56.9844C57.6094 27.033 58.1348 27.1404 58.5605 27.3552C58.9902 27.5701 59.3145 27.8689 59.5332 28.2517C59.752 28.6345 59.8613 29.0759 59.8613 29.5759C59.8613 30.0994 59.752 30.5505 59.5332 30.9294C59.3145 31.3044 58.9922 31.5916 58.5664 31.7908C58.1406 31.99 57.6133 32.0896 56.9844 32.0896ZM60.8457 32.4939V32.3005C60.8457 31.8396 60.9121 31.4138 61.0449 31.0232C61.1777 30.6326 61.3672 30.2947 61.6133 30.0095C61.8633 29.7244 62.1621 29.5037 62.5098 29.3474C62.8574 29.1873 63.2441 29.1072 63.6699 29.1072C64.0996 29.1072 64.4883 29.1873 64.8359 29.3474C65.1836 29.5037 65.4824 29.7244 65.7324 30.0095C65.9824 30.2947 66.1738 30.6326 66.3066 31.0232C66.4395 31.4138 66.5059 31.8396 66.5059 32.3005V32.4939C66.5059 32.9548 66.4395 33.3806 66.3066 33.7712C66.1738 34.158 65.9824 34.4939 65.7324 34.7791C65.4863 35.0642 65.1895 35.2869 64.8418 35.447C64.4941 35.6033 64.1074 35.6814 63.6816 35.6814C63.252 35.6814 62.8633 35.6033 62.5156 35.447C62.168 35.2869 61.8691 35.0642 61.6191 34.7791C61.3691 34.4939 61.1777 34.158 61.0449 33.7712C60.9121 33.3806 60.8457 32.9548 60.8457 32.4939ZM61.543 32.3005V32.4939C61.543 32.8416 61.5898 33.1716 61.6836 33.4841C61.7773 33.7927 61.9141 34.0681 62.0938 34.3103C62.2734 34.5486 62.4961 34.7361 62.7617 34.8728C63.0273 35.0095 63.334 35.0779 63.6816 35.0779C64.0254 35.0779 64.3281 35.0095 64.5898 34.8728C64.8555 34.7361 65.0781 34.5486 65.2578 34.3103C65.4375 34.0681 65.5723 33.7927 65.6621 33.4841C65.7559 33.1716 65.8027 32.8416 65.8027 32.4939V32.3005C65.8027 31.9568 65.7559 31.6306 65.6621 31.322C65.5723 31.0134 65.4355 30.738 65.252 30.4958C65.0723 30.2537 64.8496 30.0623 64.584 29.9216C64.3184 29.781 64.0137 29.7107 63.6699 29.7107C63.3262 29.7107 63.0215 29.781 62.7559 29.9216C62.4941 30.0623 62.2715 30.2537 62.0879 30.4958C61.9082 30.738 61.7715 31.0134 61.6777 31.322C61.5879 31.6306 61.543 31.9568 61.543 32.3005ZM69.7168 34.0818L71.2461 29.2244H71.7383L71.4453 30.531L69.8457 35.5642H69.3535L69.7168 34.0818ZM68.1289 29.2244L69.4707 34.1111L69.7578 35.5642H69.248L67.4082 29.2244H68.1289ZM73.6426 34.0935L74.9492 29.2244H75.6699L73.8301 35.5642H73.3262L73.6426 34.0935ZM71.8379 29.2244L73.3438 34.0408L73.7246 35.5642H73.2324L71.5977 30.5251L71.3223 29.2244H71.8379ZM79.4668 35.6814C79.0527 35.6814 78.6719 35.6052 78.3242 35.4529C77.9805 35.3005 77.6797 35.0857 77.4219 34.8083C77.168 34.531 76.9707 34.2029 76.8301 33.824C76.6934 33.4412 76.625 33.0232 76.625 32.5701V32.3181C76.625 31.8298 76.6973 31.3884 76.8418 30.9939C76.9863 30.5994 77.1855 30.2615 77.4395 29.9802C77.6934 29.699 77.9824 29.4841 78.3066 29.3357C78.6348 29.1833 78.9785 29.1072 79.3379 29.1072C79.7402 29.1072 80.0977 29.1794 80.4102 29.324C80.7227 29.4646 80.9844 29.6658 81.1953 29.9275C81.4102 30.1853 81.5723 30.4919 81.6816 30.8474C81.791 31.199 81.8457 31.5876 81.8457 32.0134V32.4412H77.0469V31.8435H81.1484V31.7615C81.1406 31.406 81.0684 31.074 80.9316 30.7654C80.7988 30.4529 80.5996 30.199 80.334 30.0037C80.0684 29.8083 79.7363 29.7107 79.3379 29.7107C79.041 29.7107 78.7676 29.7732 78.5176 29.8982C78.2715 30.0232 78.0586 30.2029 77.8789 30.4373C77.7031 30.6677 77.5664 30.9431 77.4688 31.2634C77.375 31.5798 77.3281 31.9314 77.3281 32.3181V32.5701C77.3281 32.9216 77.3789 33.2498 77.4805 33.5544C77.5859 33.8552 77.7344 34.1208 77.9258 34.3513C78.1211 34.5818 78.3516 34.7615 78.6172 34.8904C78.8828 35.0193 79.1758 35.0837 79.4961 35.0837C79.8711 35.0837 80.2031 35.0154 80.4922 34.8787C80.7812 34.738 81.041 34.5173 81.2715 34.2166L81.7109 34.5564C81.5742 34.7595 81.4023 34.947 81.1953 35.1189C80.9922 35.2908 80.748 35.4275 80.4629 35.5291C80.1777 35.6306 79.8457 35.6814 79.4668 35.6814ZM83.9258 30.2732V35.5642H83.2285V29.2244H83.9082L83.9258 30.2732ZM86.1699 29.1775L86.1523 29.822C86.0742 29.8103 85.998 29.8005 85.9238 29.7927C85.8496 29.7849 85.7695 29.781 85.6836 29.781C85.3789 29.781 85.1113 29.8376 84.8809 29.9509C84.6543 30.0603 84.4629 30.2146 84.3066 30.4138C84.1504 30.6091 84.0312 30.8396 83.9492 31.1052C83.8672 31.3669 83.8203 31.6482 83.8086 31.949L83.5508 32.0486C83.5508 31.6345 83.5938 31.2498 83.6797 30.8943C83.7656 30.5388 83.8965 30.2283 84.0723 29.9626C84.252 29.6931 84.4766 29.4841 84.7461 29.3357C85.0195 29.1833 85.3398 29.1072 85.707 29.1072C85.7969 29.1072 85.8848 29.115 85.9707 29.1306C86.0605 29.1423 86.127 29.158 86.1699 29.1775ZM89.6035 35.6814C89.1895 35.6814 88.8086 35.6052 88.4609 35.4529C88.1172 35.3005 87.8164 35.0857 87.5586 34.8083C87.3047 34.531 87.1074 34.2029 86.9668 33.824C86.8301 33.4412 86.7617 33.0232 86.7617 32.5701V32.3181C86.7617 31.8298 86.834 31.3884 86.9785 30.9939C87.123 30.5994 87.3223 30.2615 87.5762 29.9802C87.8301 29.699 88.1191 29.4841 88.4434 29.3357C88.7715 29.1833 89.1152 29.1072 89.4746 29.1072C89.877 29.1072 90.2344 29.1794 90.5469 29.324C90.8594 29.4646 91.1211 29.6658 91.332 29.9275C91.5469 30.1853 91.709 30.4919 91.8184 30.8474C91.9277 31.199 91.9824 31.5876 91.9824 32.0134V32.4412H87.1836V31.8435H91.2852V31.7615C91.2773 31.406 91.2051 31.074 91.0684 30.7654C90.9355 30.4529 90.7363 30.199 90.4707 30.0037C90.2051 29.8083 89.873 29.7107 89.4746 29.7107C89.1777 29.7107 88.9043 29.7732 88.6543 29.8982C88.4082 30.0232 88.1953 30.2029 88.0156 30.4373C87.8398 30.6677 87.7031 30.9431 87.6055 31.2634C87.5117 31.5798 87.4648 31.9314 87.4648 32.3181V32.5701C87.4648 32.9216 87.5156 33.2498 87.6172 33.5544C87.7227 33.8552 87.8711 34.1208 88.0625 34.3513C88.2578 34.5818 88.4883 34.7615 88.7539 34.8904C89.0195 35.0193 89.3125 35.0837 89.6328 35.0837C90.0078 35.0837 90.3398 35.0154 90.6289 34.8787C90.918 34.738 91.1777 34.5173 91.4082 34.2166L91.8477 34.5564C91.7109 34.7595 91.5391 34.947 91.332 35.1189C91.1289 35.2908 90.8848 35.4275 90.5996 35.5291C90.3145 35.6306 89.9824 35.6814 89.6035 35.6814ZM97.4844 34.3337V26.5642H98.1875V35.5642H97.5312L97.4844 34.3337ZM93.084 32.4587V32.3357C93.084 31.8435 93.1406 31.4001 93.2539 31.0056C93.3672 30.6072 93.5293 30.2673 93.7402 29.9861C93.9551 29.7009 94.2129 29.4841 94.5137 29.3357C94.8145 29.1833 95.1543 29.1072 95.5332 29.1072C95.9043 29.1072 96.2324 29.1677 96.5176 29.2888C96.8027 29.4099 97.0469 29.5837 97.25 29.8103C97.457 30.0369 97.623 30.3064 97.748 30.6189C97.877 30.9314 97.9707 31.2791 98.0293 31.6619V33.2263C97.9824 33.5857 97.8965 33.9158 97.7715 34.2166C97.6465 34.5134 97.4805 34.7732 97.2734 34.9958C97.0664 35.2146 96.8164 35.3845 96.5234 35.5056C96.2344 35.6228 95.9004 35.6814 95.5215 35.6814C95.1465 35.6814 94.8086 35.6033 94.5078 35.447C94.207 35.2908 93.9512 35.0701 93.7402 34.7849C93.5293 34.4958 93.3672 34.1541 93.2539 33.7595C93.1406 33.365 93.084 32.9314 93.084 32.4587ZM93.7871 32.3357V32.4587C93.7871 32.8298 93.8242 33.1736 93.8984 33.49C93.9727 33.8064 94.0859 34.0818 94.2383 34.3162C94.3906 34.5505 94.584 34.7341 94.8184 34.8669C95.0527 34.9998 95.3301 35.0662 95.6504 35.0662C96.0527 35.0662 96.3906 34.99 96.6641 34.8376C96.9375 34.6814 97.1562 34.4763 97.3203 34.2224C97.4844 33.9646 97.6035 33.6833 97.6777 33.3787V31.5564C97.6309 31.3494 97.5625 31.1384 97.4727 30.9236C97.3828 30.7087 97.2598 30.5115 97.1035 30.3318C96.9512 30.1482 96.7559 30.0017 96.5176 29.8923C96.2832 29.7791 95.998 29.7224 95.6621 29.7224C95.3379 29.7224 95.0586 29.7888 94.8242 29.9216C94.5898 30.0544 94.3945 30.24 94.2383 30.4783C94.0859 30.7126 93.9727 30.988 93.8984 31.3044C93.8242 31.6208 93.7871 31.9646 93.7871 32.3357ZM102.951 26.5642H103.654V34.3337L103.607 35.5642H102.951V26.5642ZM108.066 32.3357V32.4587C108.066 32.9314 108.012 33.365 107.902 33.7595C107.793 34.1541 107.635 34.4958 107.428 34.7849C107.221 35.0701 106.967 35.2908 106.666 35.447C106.369 35.6033 106.027 35.6814 105.641 35.6814C105.262 35.6814 104.926 35.6228 104.633 35.5056C104.34 35.3845 104.09 35.2146 103.883 34.9958C103.676 34.7732 103.51 34.5134 103.385 34.2166C103.26 33.9158 103.172 33.5857 103.121 33.2263V31.6619C103.18 31.2791 103.273 30.9314 103.402 30.6189C103.531 30.3064 103.697 30.0369 103.9 29.8103C104.107 29.5837 104.354 29.4099 104.639 29.2888C104.928 29.1677 105.258 29.1072 105.629 29.1072C106.016 29.1072 106.359 29.1833 106.66 29.3357C106.965 29.4841 107.221 29.7009 107.428 29.9861C107.635 30.2673 107.793 30.6072 107.902 31.0056C108.012 31.4001 108.066 31.8435 108.066 32.3357ZM107.357 32.4587V32.3357C107.357 31.9646 107.322 31.6208 107.252 31.3044C107.182 30.988 107.07 30.7126 106.918 30.4783C106.77 30.24 106.578 30.0544 106.344 29.9216C106.109 29.7888 105.828 29.7224 105.5 29.7224C105.164 29.7224 104.877 29.7791 104.639 29.8923C104.404 30.0017 104.209 30.1482 104.053 30.3318C103.9 30.5115 103.779 30.7087 103.689 30.9236C103.6 31.1384 103.533 31.3494 103.49 31.5564V33.3787C103.557 33.6716 103.672 33.947 103.836 34.2048C104 34.4626 104.221 34.6716 104.498 34.8318C104.775 34.988 105.113 35.0662 105.512 35.0662C105.832 35.0662 106.107 34.9998 106.338 34.8669C106.572 34.7341 106.764 34.5505 106.912 34.3162C107.064 34.0818 107.176 33.8064 107.246 33.49C107.32 33.1736 107.357 32.8298 107.357 32.4587ZM111.43 34.9314L113.404 29.2244H114.16L111.477 36.5837C111.422 36.7283 111.352 36.8884 111.266 37.0642C111.184 37.24 111.074 37.408 110.938 37.5681C110.805 37.7322 110.637 37.865 110.434 37.9666C110.234 38.072 109.99 38.1248 109.701 38.1248C109.627 38.1248 109.531 38.115 109.414 38.0955C109.301 38.0798 109.219 38.0642 109.168 38.0486L109.162 37.4568C109.205 37.4685 109.268 37.4783 109.35 37.4861C109.432 37.4939 109.488 37.4978 109.52 37.4978C109.773 37.4978 109.986 37.4548 110.158 37.3689C110.334 37.283 110.48 37.1541 110.598 36.9822C110.715 36.8142 110.818 36.6033 110.908 36.3494L111.43 34.9314ZM109.584 29.2244L111.605 34.6677L111.793 35.4001L111.283 35.6873L108.822 29.2244H109.584ZM121.15 27.5427L118.197 35.5642H117.447L120.67 27.033H121.191L121.15 27.5427ZM123.834 35.5642L120.875 27.5427L120.834 27.033H121.355L124.584 35.5642H123.834ZM123.307 32.5525V33.1736H118.777V32.5525H123.307ZM131.932 31.5095V34.5447C131.834 34.6892 131.666 34.8494 131.428 35.0251C131.189 35.2009 130.869 35.3552 130.467 35.488C130.064 35.6169 129.564 35.6814 128.967 35.6814C128.467 35.6814 128.008 35.5916 127.59 35.4119C127.172 35.2322 126.809 34.9724 126.5 34.6326C126.195 34.2888 125.959 33.8767 125.791 33.3962C125.627 32.9158 125.545 32.3767 125.545 31.7791V30.7478C125.545 30.1619 125.621 29.6345 125.773 29.1658C125.926 28.6931 126.146 28.2888 126.436 27.9529C126.725 27.6169 127.072 27.3611 127.479 27.1853C127.889 27.0056 128.348 26.9158 128.855 26.9158C129.488 26.9158 130.021 27.0251 130.455 27.2439C130.889 27.4626 131.227 27.7634 131.469 28.1462C131.715 28.5251 131.867 28.9548 131.926 29.4353H131.205C131.15 29.0955 131.037 28.783 130.865 28.4978C130.693 28.2087 130.443 27.9763 130.115 27.8005C129.791 27.6248 129.371 27.5369 128.855 27.5369C128.441 27.5369 128.072 27.613 127.748 27.7654C127.428 27.9177 127.158 28.1345 126.939 28.4158C126.721 28.697 126.555 29.0349 126.441 29.4294C126.328 29.8201 126.271 30.2556 126.271 30.7361V31.7791C126.271 32.2791 126.334 32.7302 126.459 33.1326C126.588 33.5349 126.771 33.8806 127.01 34.1697C127.248 34.4587 127.533 34.6814 127.865 34.8376C128.197 34.99 128.566 35.0662 128.973 35.0662C129.406 35.0662 129.775 35.0251 130.08 34.9431C130.385 34.8611 130.629 34.7634 130.812 34.6501C131 34.533 131.135 34.4236 131.217 34.322V32.1248H128.926V31.5095H131.932ZM138.822 33.4666C138.822 33.2322 138.783 33.0232 138.705 32.8396C138.627 32.656 138.498 32.4919 138.318 32.3474C138.143 32.199 137.904 32.0623 137.604 31.9373C137.307 31.8083 136.936 31.6814 136.49 31.5564C136.064 31.4353 135.68 31.3025 135.336 31.158C134.992 31.0134 134.697 30.8474 134.451 30.6599C134.209 30.4724 134.023 30.2537 133.895 30.0037C133.766 29.7498 133.701 29.4548 133.701 29.1189C133.701 28.7908 133.771 28.4919 133.912 28.2224C134.053 27.9529 134.25 27.7205 134.504 27.5251C134.762 27.3298 135.064 27.1794 135.412 27.074C135.764 26.9685 136.148 26.9158 136.566 26.9158C137.164 26.9158 137.68 27.0291 138.113 27.2556C138.551 27.4822 138.889 27.7888 139.127 28.1755C139.369 28.5583 139.49 28.988 139.49 29.4646H138.77C138.77 29.0935 138.682 28.7634 138.506 28.4744C138.334 28.1814 138.084 27.9529 137.756 27.7888C137.432 27.6208 137.035 27.5369 136.566 27.5369C136.098 27.5369 135.703 27.6091 135.383 27.7537C135.066 27.8943 134.826 28.0837 134.662 28.322C134.502 28.5564 134.422 28.8181 134.422 29.1072C134.422 29.3103 134.461 29.4978 134.539 29.6697C134.617 29.8376 134.744 29.9958 134.92 30.1443C135.1 30.2888 135.336 30.4255 135.629 30.5544C135.922 30.6794 136.283 30.7986 136.713 30.9119C137.166 31.0369 137.568 31.1755 137.92 31.3279C138.271 31.4802 138.568 31.656 138.811 31.8552C139.053 32.0505 139.236 32.2791 139.361 32.5408C139.486 32.8025 139.549 33.1072 139.549 33.4548C139.549 33.8025 139.475 34.115 139.326 34.3923C139.182 34.6658 138.977 34.8982 138.711 35.0896C138.449 35.281 138.139 35.4275 137.779 35.5291C137.424 35.6306 137.035 35.6814 136.613 35.6814C136.234 35.6814 135.857 35.6326 135.482 35.5349C135.107 35.4373 134.764 35.2869 134.451 35.0837C134.143 34.8767 133.895 34.6111 133.707 34.2869C133.523 33.9626 133.432 33.5759 133.432 33.1267H134.146C134.146 33.4861 134.219 33.7888 134.363 34.0349C134.508 34.281 134.699 34.4802 134.938 34.6326C135.18 34.7849 135.445 34.8962 135.734 34.9666C136.027 35.033 136.32 35.0662 136.613 35.0662C137.062 35.0662 137.451 34.9998 137.779 34.8669C138.111 34.7341 138.367 34.5486 138.547 34.3103C138.73 34.0681 138.822 33.7869 138.822 33.4666ZM144.916 27.033V35.5642H144.195V27.033H144.916ZM147.77 30.5779V35.5642H147.072V29.2244H147.74L147.77 30.5779ZM147.611 32.0017L147.301 31.8259C147.324 31.4509 147.4 31.0994 147.529 30.7712C147.658 30.4431 147.832 30.1541 148.051 29.9041C148.273 29.6541 148.533 29.4587 148.83 29.3181C149.131 29.1775 149.463 29.1072 149.826 29.1072C150.143 29.1072 150.426 29.1501 150.676 29.2361C150.926 29.322 151.139 29.4587 151.314 29.6462C151.49 29.8337 151.623 30.074 151.713 30.3669C151.807 30.6599 151.854 31.0173 151.854 31.4392V35.5642H151.15V31.4333C151.15 30.9958 151.09 30.6541 150.969 30.408C150.848 30.158 150.676 29.9802 150.453 29.8748C150.23 29.7693 149.967 29.7166 149.662 29.7166C149.326 29.7166 149.031 29.7908 148.777 29.9392C148.527 30.0837 148.316 30.2732 148.145 30.5076C147.977 30.738 147.848 30.9861 147.758 31.2517C147.668 31.5134 147.619 31.7634 147.611 32.0017ZM156.008 35.0779C156.305 35.0779 156.582 35.0232 156.84 34.9138C157.102 34.8005 157.316 34.6345 157.484 34.4158C157.656 34.1931 157.754 33.9216 157.777 33.6013H158.445C158.426 34.0037 158.303 34.363 158.076 34.6794C157.854 34.9919 157.561 35.238 157.197 35.4177C156.838 35.5935 156.441 35.6814 156.008 35.6814C155.566 35.6814 155.176 35.6013 154.836 35.4412C154.5 35.281 154.219 35.0583 153.992 34.7732C153.766 34.4841 153.594 34.1482 153.477 33.7654C153.363 33.3787 153.307 32.9626 153.307 32.5173V32.2712C153.307 31.8259 153.363 31.4119 153.477 31.0291C153.594 30.6423 153.766 30.3064 153.992 30.0212C154.219 29.7322 154.5 29.5076 154.836 29.3474C155.172 29.1873 155.561 29.1072 156.002 29.1072C156.455 29.1072 156.861 29.199 157.221 29.3826C157.584 29.5662 157.873 29.8259 158.088 30.1619C158.307 30.4978 158.426 30.8962 158.445 31.3572H157.777C157.758 31.0173 157.668 30.7244 157.508 30.4783C157.348 30.2322 157.137 30.0427 156.875 29.9099C156.613 29.7771 156.322 29.7107 156.002 29.7107C155.643 29.7107 155.336 29.781 155.082 29.9216C154.828 30.0583 154.621 30.2478 154.461 30.49C154.305 30.7283 154.189 31.0017 154.115 31.3103C154.041 31.615 154.004 31.9353 154.004 32.2712V32.5173C154.004 32.8572 154.039 33.1814 154.109 33.49C154.184 33.7947 154.299 34.0662 154.455 34.3044C154.615 34.5427 154.822 34.7322 155.076 34.8728C155.334 35.0095 155.645 35.0779 156.008 35.0779ZM159.793 35.1365C159.793 34.9998 159.836 34.8845 159.922 34.7908C160.012 34.6931 160.133 34.6443 160.285 34.6443C160.441 34.6443 160.564 34.6912 160.654 34.7849C160.744 34.8787 160.789 34.9958 160.789 35.1365C160.789 35.2693 160.744 35.3826 160.654 35.4763C160.564 35.5701 160.441 35.6169 160.285 35.6169C160.133 35.6169 160.012 35.5701 159.922 35.4763C159.836 35.3826 159.793 35.2693 159.793 35.1365Z"/>
</svg>
