<svg width="249" height="48" viewBox="0 0 249 48" fill="none" xmlns="http://www.w3.org/2000/svg">
<path d="M41.8048 30.1105C41.5806 30.029 41.3423 29.992 41.1036 30.0015C40.8648 30.0109 40.6304 30.0668 40.4136 30.1659C40.1968 30.265 40.0019 30.4053 39.8402 30.5787C39.6785 30.7522 39.553 30.9555 39.4711 31.1768C39.4711 31.1768 38.2781 35.6631 27.1941 37.6784C26.4523 36.0254 24.6015 33.1541 20.8648 33.589L21.6276 35.2799C22.0682 35.3196 22.5123 35.2975 22.9466 35.2145C22.4848 35.7459 19.7453 36.7915 17.8384 36.3567C17.9805 36.3109 18.113 36.2408 18.2303 36.1496L17.5551 34.9729C17.5551 34.9729 15.3334 36.2807 16.2011 38.2374C17.0688 40.1941 19.7663 39.2727 19.7663 39.2727C19.7663 39.2727 18.7972 40.0802 17.877 40.0802C17.2891 41.6849 19.2974 44.4353 21.4807 44.1109C21.3709 44.2525 21.2296 44.3673 21.0676 44.4464C20.9056 44.5253 20.7272 44.5664 20.5465 44.5664C22.0054 45.336 26.7078 45.5258 27.5439 41.257C41.0001 38.8725 42.8789 32.433 42.8894 32.4123C42.9714 32.1909 43.0085 31.9558 42.9984 31.7203C42.9883 31.4848 42.9312 31.2536 42.8305 31.0398C42.7298 30.826 42.5873 30.6339 42.4114 30.4745C42.2354 30.3151 42.0293 30.1913 41.8048 30.1105Z" fill="#42E8E0"/>
<path d="M12.258 32L14.4483 35.9562C14.8607 36.6756 14.8607 37.6322 14.2998 37.9362L11 39.7086C11.1167 39.7712 11.2259 39.8444 11.3258 39.9273C11.642 40.1835 11.8781 40.5096 12.0104 40.8733C12.1429 41.2369 12.1671 41.6254 12.0807 42C16.9683 40.9025 17.5706 34.284 12.258 32Z" fill="#42E8E0"/>
<path d="M9.24313 40.184C10.1992 38.6307 9.24313 37.0881 8.03632 36.8682C7.92628 36.8452 7.814 36.8369 7.70203 36.8433C8.56451 35.017 7.64519 33.2687 6.47182 33.0275C4.81706 32.6729 4.1117 35.8291 4.00473 37.6696C3.89775 39.5101 5.64277 39.0314 5.64277 39.0314C5.75978 38.9535 5.87343 38.879 5.97706 38.8009C5.79177 39.4173 5.67948 40.0559 5.64277 40.7017C5.55919 42.2338 7.31425 41.8614 7.31425 41.8614C7.43125 41.8011 7.54156 41.7373 7.64854 41.677C7.55828 41.7904 7.47471 41.9004 7.40117 42.0068C6.53534 43.2373 8.18008 43.9395 8.18008 43.9395C12.1648 44.4643 12.6262 41.4358 11.4026 40.2123C10.7574 39.6024 9.97858 39.7407 9.24313 40.184Z" fill="#42E8E0"/>
<path d="M31.5001 17C30.6719 17 30 17.8974 30 19C30 20.1026 30.6719 21 31.5001 21C32.328 21 33 20.106 33 19C33 17.8939 32.3353 17 31.5001 17Z" fill="#42E8E0"/>
<path d="M41.7134 12.7876C41.9875 12.3871 42.3486 12.0488 42.7716 11.7961C43.1947 11.5433 43.6695 11.3821 44.1635 11.3235C41.9463 8.99812 36.1106 8.4738 36.1106 8.4738C36.3739 8.81361 36.5362 9.21617 36.5801 9.63823C35.8741 8.69852 33.777 6.63185 31.1292 6.99956C31.2457 6.75764 31.3902 6.5292 31.5599 6.31862C31.2299 5.39107 30.9634 4.44367 30.7621 3.4825C31.1843 3.34092 31.5395 3.05719 31.7622 2.68343C31.985 2.30966 32.0605 1.87094 31.9749 1.4478C31.8891 1.02466 31.6481 0.645522 31.2959 0.379998C30.9438 0.114474 30.5041 -0.0196399 30.0577 0.00232748C29.6112 0.0242948 29.188 0.200858 28.8656 0.499571C28.5433 0.798284 28.3434 1.19912 28.3029 1.62847C28.2624 2.05781 28.3837 2.48683 28.6449 2.83679C28.906 3.18675 29.2891 3.43414 29.7241 3.53353C29.7606 4.76502 29.9599 5.987 30.3172 7.1698C27.3976 8.14696 26.8539 11.7968 26.8539 11.7968C26.7117 11.2784 26.7252 10.7317 26.8928 10.2204C26.116 10.6324 19.7366 15.3275 20.0084 21.136C20.2803 26.9445 26.056 32.8755 35.3339 30.4378C44.6118 28 45.1731 20.421 45.1731 20.421C45.1731 20.421 43.7362 20.4585 43.3867 19.4847C49.0283 20.3904 47.7538 9.72335 41.7134 12.7876ZM38.6772 23.7032C36.2977 27.6186 25.3464 29.355 22.6316 25.5519C21.4842 23.9449 21.1877 22.7499 21.0993 20.8908C21.0252 19.2838 21.2724 18.0241 22.0985 16.7303C23.7578 14.1359 32.2131 12.8182 36.4601 13.8771C39.3056 14.5649 39.8846 21.7046 38.6772 23.6827V23.7032Z" fill="#42E8E0"/>
<path d="M30.8004 24.0903C30.7487 24.054 30.6901 24.0278 30.6279 24.0132C30.5657 23.9987 30.5012 23.9961 30.438 24.0056C30.3748 24.0151 30.3141 24.0365 30.2595 24.0687C30.2048 24.1008 30.1573 24.1429 30.1195 24.1927C28.9141 25.8035 26.7126 24.6925 26.7064 24.6895C26.5921 24.6328 26.4591 24.6222 26.3367 24.66C26.2143 24.6979 26.1125 24.7811 26.0537 24.8913C25.9949 25.0014 25.9839 25.1296 26.0232 25.2476C26.0624 25.3657 26.1486 25.4638 26.2629 25.5205C26.2629 25.5205 29.2077 27.0078 30.9065 24.7437C30.9442 24.6942 30.9713 24.6379 30.9863 24.5782C31.0014 24.5185 31.004 24.4565 30.9942 24.3958C30.9844 24.335 30.9621 24.2768 30.9288 24.2244C30.8956 24.1721 30.8519 24.1265 30.8004 24.0903Z" fill="#42E8E0"/>
<path d="M23.4999 18C22.671 18 22 18.8968 22 20.0019C22 21.1069 22.671 22 23.4999 22C24.3289 22 25 21.1069 25 20.0019C25 18.8968 24.3289 18 23.4999 18Z" fill="#42E8E0"/>
<path fill-rule="evenodd" clip-rule="evenodd" d="M11.8972 17.9738C13.9304 17.9738 16.6014 21.1345 17.8597 24.9977C19.1181 28.8608 18.4837 32.0216 16.4471 32.0216C14.4104 32.0216 11.7429 28.8608 10.4846 24.9977C9.22626 21.1345 9.8606 17.9738 11.8972 17.9738ZM25.2211 45.1036L25.9069 46.6805C25.9597 46.7895 25.9908 46.9083 25.9983 47.0299C26.0057 47.1514 25.9893 47.2732 25.95 47.3882C25.9108 47.5031 25.8496 47.6089 25.7699 47.6992C25.6901 47.7896 25.5935 47.8627 25.4858 47.9142C25.3781 47.9657 25.2614 47.9946 25.1426 47.9993C25.0238 48.004 24.9053 47.9842 24.794 47.9413C24.6828 47.8983 24.5811 47.833 24.4948 47.7491C24.4086 47.6653 24.3397 47.5646 24.2919 47.4531L23.4416 45.7392C24.0687 45.6447 24.6726 45.429 25.2211 45.1036ZM19.4815 32.2252L21.0792 35.6951C20.2982 35.9627 19.482 36.1071 18.6586 36.1235L17.2357 33.4088C14.4516 33.3491 11.0229 29.4754 9.54855 24.7027C8.07421 19.9299 9.12682 16 11.9247 16C14.7224 16 18.1889 19.8948 19.6735 24.7027C20.6644 27.9126 20.517 30.7186 19.4815 32.2252ZM0.352789 27.3717L6.15757 24.3409C6.63759 24.0881 7.2239 24.2215 7.57705 24.9063L13.4984 36.4396C13.8413 37.142 13.8927 38.034 13.4299 38.322L11.2149 39.7267C10.5805 39.3265 9.84339 39.4774 9.10625 39.8743C9.33177 39.5822 9.47769 39.2341 9.52914 38.8655C9.58059 38.4968 9.53574 38.1208 9.39915 37.7756C9.26255 37.4305 9.03911 37.1286 8.75157 36.9007C8.46402 36.6728 8.12264 36.527 7.7622 36.4782C7.63441 36.4547 7.5044 36.4465 7.37475 36.4537C8.3245 34.5994 7.30276 32.8152 6.00328 32.5659C4.78952 32.3306 4.04207 33.6476 3.64091 35.1086L0.29793 29.2541C-0.0929411 28.5869 -0.123799 27.6281 0.352789 27.3717Z" fill="#42E8E0"/>
<path d="M73.9384 20.3173H69.1011L66.4983 17.2388H60.9472V20.3173H57.332V14.3692H67.4918C68.6113 14.3692 69.4836 13.8676 69.4836 13.0689C69.4836 12.1634 68.7326 11.713 67.4918 11.713H57.332L59.6877 8.68555H67.198C69.8521 8.68555 73.2014 9.52133 73.2014 12.8414C73.2237 13.7192 72.9268 14.5756 72.3655 15.2529C71.8041 15.9303 71.0161 16.3832 70.146 16.5284C70.7324 16.9944 71.2813 17.5051 71.788 18.056L73.9384 20.3173Z" fill="white"/>
<path d="M92.7416 14.4939C92.7416 18.6451 89.8774 20.5303 84.2052 20.5303C78.5329 20.5303 75.6641 18.6729 75.6641 14.4939C75.6641 10.3148 78.5142 8.49451 84.2052 8.49451C89.8961 8.49451 92.7416 10.3379 92.7416 14.4939ZM89.145 14.4939C89.145 11.991 87.8343 11.522 84.2052 11.522C80.576 11.522 79.2606 11.9863 79.2606 14.4939C79.2606 17.0014 80.5713 17.4796 84.2052 17.4796C87.839 17.4796 89.145 16.9967 89.145 14.4939Z" fill="white"/>
<path d="M110.813 16.9276C110.813 18.8548 109.749 20.3173 106.064 20.3173H95.7974V13.2407H106.135C106.662 13.2407 107.147 13.0504 107.147 12.4607C107.147 11.8709 106.643 11.713 106.135 11.713H95.7974L98.2416 8.68555H105.98C108.779 8.68555 110.57 9.76738 110.57 11.9034C110.602 12.425 110.464 12.9428 110.178 13.3808C109.892 13.8187 109.472 14.1537 108.979 14.3366C109.533 14.5013 110.014 14.8464 110.347 15.3163C110.679 15.7862 110.844 16.3537 110.813 16.9276ZM99.4309 15.725V17.327H106.083C106.867 17.327 107.202 17.0484 107.202 16.5097C107.202 15.9711 106.867 15.725 106.083 15.725H99.4309Z" fill="white"/>
<path d="M130.563 14.4939C130.563 18.6451 127.699 20.5303 122.022 20.5303C116.345 20.5303 113.485 18.6729 113.485 14.4939C113.485 10.3148 116.331 8.49451 122.022 8.49451C127.713 8.49451 130.563 10.3379 130.563 14.4939ZM126.967 14.4939C126.967 11.991 125.655 11.522 122.022 11.522C118.388 11.522 117.082 11.9863 117.082 14.4939C117.082 17.0014 118.393 17.4796 122.022 17.4796C125.651 17.4796 126.967 16.9967 126.967 14.4939Z" fill="white"/>
<path d="M140.83 13.0503H148.294V20.3173H140.289C136.24 20.3173 133.251 17.7588 133.251 14.3877C133.251 11.0165 136.24 8.68555 140.289 8.68555H148.653L146.32 11.713H140.289C138.335 11.713 136.846 12.8925 136.846 14.5456C136.846 16.1986 138.279 17.3317 140.289 17.3317H144.707V15.6461H138.643L140.83 13.0503Z" fill="white"/>
<path d="M168.175 20.3173H163.338L160.735 17.2388H155.183V20.3173H151.569V14.3692H161.729C162.848 14.3692 163.721 13.8676 163.721 13.0689C163.721 12.1634 162.969 11.713 161.729 11.713H151.569L153.925 8.68555H161.435C164.089 8.68555 167.438 9.52133 167.438 12.8414C167.461 13.7192 167.164 14.5756 166.602 15.2529C166.04 15.9303 165.253 16.3832 164.382 16.5284C164.969 16.9944 165.518 17.5051 166.025 18.056L168.175 20.3173Z" fill="white"/>
<path d="M175.628 20.3167L177.811 17.3263H180.746C181.445 17.3263 182.262 17.3263 182.821 17.3588C182.509 16.9409 182.019 16.2304 181.637 15.6733L179.543 12.5993L174.056 20.3167H169.779L177.27 9.7992C177.519 9.40518 177.863 9.0794 178.27 8.85149C178.677 8.62357 179.136 8.50085 179.603 8.49451C180.068 8.49698 180.524 8.61822 180.928 8.84673C181.333 9.07514 181.671 9.4032 181.912 9.7992L189.208 20.3167H175.628Z" fill="white"/>
<path d="M199.549 20.3177H191.727V13.0692H195.36V17.3273H199.559C201.569 17.3273 203.015 16.2129 203.015 14.5412C203.015 12.8696 201.513 11.7087 199.559 11.7087H191.727L194.031 8.68121H199.549C203.636 8.68121 206.589 11.0307 206.589 14.3834C206.589 17.7359 203.603 20.3177 199.549 20.3177Z" fill="white"/>
<path d="M213.31 20.3169H209.695V8.70831H213.31V20.3169Z" fill="white"/>
<path d="M227.174 19.8805L220.014 13.4818V20.3123H216.748V10.6632C216.748 9.11694 217.681 8.49005 218.721 8.49005C218.993 8.49104 219.261 8.5471 219.51 8.65497C219.758 8.76274 219.982 8.91993 220.168 9.11694L227.328 15.5109V8.68043H230.607V18.311C230.607 19.8573 229.674 20.5027 228.62 20.5027C228.349 20.5049 228.081 20.4506 227.831 20.3434C227.582 20.2362 227.359 20.0787 227.174 19.8805Z" fill="white"/>
<path d="M241.177 13.0503H248.64V20.3173H240.636C236.587 20.3173 233.602 17.7588 233.602 14.3877C233.602 11.0165 236.587 8.68555 240.636 8.68555H249L246.667 11.713H240.636C238.681 11.713 237.193 12.8925 237.193 14.5456C237.193 16.1986 238.625 17.3317 240.636 17.3317H245.068V15.6461H239.003L241.177 13.0503Z" fill="white"/>
<path d="M59.7791 32.8491H57.3513V32.2166H59.7791C60.2861 32.2166 60.6976 32.1322 61.0135 31.9635C61.3333 31.7908 61.5653 31.5579 61.7096 31.2647C61.8578 30.9715 61.9319 30.6422 61.9319 30.2767C61.9319 29.9193 61.8578 29.5899 61.7096 29.2887C61.5653 28.9875 61.3333 28.7465 61.0135 28.5658C60.6976 28.3811 60.2861 28.2887 59.7791 28.2887H57.6029V36.4216H56.8833V27.6501H59.7791C60.4031 27.6501 60.9277 27.7605 61.3528 27.9814C61.7818 28.2023 62.1055 28.5096 62.3239 28.9032C62.5423 29.2968 62.6515 29.7506 62.6515 30.2647C62.6515 30.8028 62.5423 31.2667 62.3239 31.6563C62.1055 32.0419 61.7837 32.3371 61.3586 32.5419C60.9335 32.7467 60.407 32.8491 59.7791 32.8491Z" fill="white"/>
<path d="M63.8054 33.2648V33.066C63.8054 32.5921 63.8717 32.1543 64.0044 31.7527C64.137 31.3511 64.3261 31.0037 64.5718 30.7105C64.8214 30.4173 65.1198 30.1904 65.4669 30.0297C65.814 29.8651 66.2001 29.7827 66.6252 29.7827C67.0542 29.7827 67.4422 29.8651 67.7894 30.0297C68.1365 30.1904 68.4348 30.4173 68.6844 30.7105C68.934 31.0037 69.1251 31.3511 69.2577 31.7527C69.3903 32.1543 69.4566 32.5921 69.4566 33.066V33.2648C69.4566 33.7387 69.3903 34.1765 69.2577 34.5781C69.1251 34.9757 68.934 35.3211 68.6844 35.6143C68.4387 35.9075 68.1423 36.1364 67.7952 36.3011C67.4481 36.4617 67.062 36.5421 66.6369 36.5421C66.2079 36.5421 65.8198 36.4617 65.4727 36.3011C65.1256 36.1364 64.8273 35.9075 64.5777 35.6143C64.3281 35.3211 64.137 34.9757 64.0044 34.5781C63.8717 34.1765 63.8054 33.7387 63.8054 33.2648ZM64.5016 33.066V33.2648C64.5016 33.6222 64.5484 33.9616 64.642 34.2829C64.7356 34.6002 64.8721 34.8833 65.0515 35.1324C65.2309 35.3773 65.4532 35.5701 65.7184 35.7107C65.9836 35.8513 66.2898 35.9215 66.6369 35.9215C66.9801 35.9215 67.2823 35.8513 67.5436 35.7107C67.8089 35.5701 68.0312 35.3773 68.2106 35.1324C68.39 34.8833 68.5245 34.6002 68.6142 34.2829C68.7078 33.9616 68.7546 33.6222 68.7546 33.2648V33.066C68.7546 32.7126 68.7078 32.3772 68.6142 32.0599C68.5245 31.7426 68.388 31.4595 68.2047 31.2105C68.0253 30.9615 67.803 30.7647 67.5378 30.6201C67.2726 30.4755 66.9684 30.4032 66.6252 30.4032C66.282 30.4032 65.9778 30.4755 65.7126 30.6201C65.4513 30.7647 65.229 30.9615 65.0457 31.2105C64.8663 31.4595 64.7298 31.7426 64.6362 32.0599C64.5465 32.3772 64.5016 32.7126 64.5016 33.066Z" fill="white"/>
<path d="M72.8336 34.8974L74.3605 29.9032H74.8519L74.5594 31.2466L72.9623 36.4216H72.4709L72.8336 34.8974ZM71.2483 29.9032L72.5879 34.9275L72.8746 36.4216H72.3656L70.5287 29.9032H71.2483ZM76.7532 34.9095L78.0577 29.9032H78.7773L76.9404 36.4216H76.4373L76.7532 34.9095ZM74.9514 29.9032L76.4548 34.8552L76.8351 36.4216H76.3437L74.7115 31.2406L74.4365 29.9032H74.9514Z" fill="white"/>
<path d="M82.7393 36.5421C82.3259 36.5421 81.9457 36.4637 81.5985 36.3071C81.2553 36.1505 80.955 35.9296 80.6976 35.6444C80.4441 35.3593 80.2472 35.0219 80.1068 34.6323C79.9703 34.2387 79.902 33.809 79.902 33.3431V33.0841C79.902 32.582 79.9742 32.1282 80.1185 31.7226C80.2628 31.3169 80.4617 30.9695 80.7152 30.6804C80.9687 30.3912 81.2573 30.1703 81.581 30.0177C81.9086 29.861 82.2518 29.7827 82.6106 29.7827C83.0123 29.7827 83.3692 29.857 83.6812 30.0056C83.9932 30.1502 84.2545 30.357 84.4651 30.6261C84.6796 30.8912 84.8414 31.2065 84.9506 31.572C85.0598 31.9334 85.1144 32.333 85.1144 32.7708V33.2106H80.3232V32.5961H84.4183V32.5118C84.4105 32.1463 84.3383 31.8049 84.2018 31.4876C84.0692 31.1663 83.8703 30.9053 83.6051 30.7044C83.3399 30.5036 83.0084 30.4032 82.6106 30.4032C82.3142 30.4032 82.0412 30.4675 81.7916 30.596C81.5459 30.7245 81.3333 30.9093 81.1539 31.1503C80.9784 31.3872 80.8419 31.6704 80.7444 31.9997C80.6508 32.325 80.604 32.6865 80.604 33.0841V33.3431C80.604 33.7046 80.6547 34.0419 80.7561 34.3552C80.8614 34.6645 81.0096 34.9376 81.2007 35.1745C81.3957 35.4115 81.6259 35.5962 81.8911 35.7288C82.1563 35.8613 82.4488 35.9276 82.7686 35.9276C83.143 35.9276 83.4745 35.8573 83.7631 35.7167C84.0517 35.5721 84.311 35.3452 84.5411 35.036L84.9799 35.3854C84.8434 35.5942 84.6718 35.787 84.4651 35.9637C84.2623 36.1404 84.0185 36.281 83.7338 36.3854C83.4491 36.4898 83.1176 36.5421 82.7393 36.5421Z" fill="white"/>
<path d="M87.3624 30.9816V36.4216H86.6662V29.9032H87.3448L87.3624 30.9816ZM89.603 29.855L89.5854 30.5177C89.5074 30.5056 89.4314 30.4956 89.3573 30.4876C89.2832 30.4795 89.2032 30.4755 89.1174 30.4755C88.8132 30.4755 88.546 30.5338 88.3159 30.6502C88.0897 30.7627 87.8986 30.9213 87.7426 31.1262C87.5866 31.327 87.4677 31.5639 87.3858 31.837C87.3039 32.1061 87.2571 32.3953 87.2454 32.7045L86.988 32.807C86.988 32.3812 87.0309 31.9856 87.1167 31.6202C87.2025 31.2547 87.3331 30.9354 87.5086 30.6623C87.688 30.3852 87.9123 30.1703 88.1814 30.0177C88.4544 29.861 88.7742 29.7827 89.1408 29.7827C89.2305 29.7827 89.3183 29.7908 89.4041 29.8068C89.4938 29.8189 89.5601 29.8349 89.603 29.855Z" fill="white"/>
<path d="M93.2023 36.5421C92.7889 36.5421 92.4086 36.4637 92.0615 36.3071C91.7183 36.1505 91.418 35.9296 91.1606 35.6444C90.9071 35.3593 90.7101 35.0219 90.5697 34.6323C90.4332 34.2387 90.365 33.809 90.365 33.3431V33.0841C90.365 32.582 90.4371 32.1282 90.5814 31.7226C90.7257 31.3169 90.9246 30.9695 91.1781 30.6804C91.4316 30.3912 91.7202 30.1703 92.0439 30.0177C92.3716 29.861 92.7148 29.7827 93.0736 29.7827C93.4753 29.7827 93.8321 29.857 94.1441 30.0056C94.4561 30.1502 94.7174 30.357 94.928 30.6261C95.1425 30.8912 95.3044 31.2065 95.4136 31.572C95.5228 31.9334 95.5774 32.333 95.5774 32.7708V33.2106H90.7862V32.5961H94.8812V32.5118C94.8734 32.1463 94.8013 31.8049 94.6648 31.4876C94.5322 31.1663 94.3333 30.9053 94.0681 30.7044C93.8029 30.5036 93.4714 30.4032 93.0736 30.4032C92.7772 30.4032 92.5042 30.4675 92.2546 30.596C92.0089 30.7245 91.7963 30.9093 91.6169 31.1503C91.4414 31.3872 91.3049 31.6704 91.2074 31.9997C91.1138 32.325 91.067 32.6865 91.067 33.0841V33.3431C91.067 33.7046 91.1177 34.0419 91.2191 34.3552C91.3244 34.6645 91.4726 34.9376 91.6637 35.1745C91.8587 35.4115 92.0888 35.5962 92.354 35.7288C92.6192 35.8613 92.9117 35.9276 93.2315 35.9276C93.6059 35.9276 93.9374 35.8573 94.226 35.7167C94.5146 35.5721 94.774 35.3452 95.0041 35.036L95.4428 35.3854C95.3063 35.5942 95.1347 35.787 94.928 35.9637C94.7252 36.1404 94.4815 36.281 94.1968 36.3854C93.9121 36.4898 93.5806 36.5421 93.2023 36.5421Z" fill="white"/>
<path d="M101.242 35.1565V27.1682H101.944V36.4216H101.289L101.242 35.1565ZM96.8484 33.2287V33.1021C96.8484 32.5961 96.9049 32.1403 97.018 31.7346C97.1311 31.325 97.293 30.9755 97.5036 30.6864C97.7181 30.3932 97.9755 30.1703 98.2758 30.0177C98.5761 29.861 98.9154 29.7827 99.2937 29.7827C99.6642 29.7827 99.9918 29.845 100.277 29.9695C100.561 30.094 100.805 30.2727 101.008 30.5056C101.214 30.7386 101.38 31.0157 101.505 31.337C101.634 31.6583 101.727 32.0158 101.786 32.4093V34.0178C101.739 34.3873 101.653 34.7267 101.528 35.036C101.404 35.3412 101.238 35.6083 101.031 35.8372C100.824 36.0621 100.575 36.2368 100.282 36.3613C99.9938 36.4818 99.6603 36.5421 99.282 36.5421C98.9076 36.5421 98.5702 36.4617 98.2699 36.3011C97.9696 36.1404 97.7142 35.9135 97.5036 35.6203C97.293 35.3231 97.1311 34.9717 97.018 34.5661C96.9049 34.1604 96.8484 33.7146 96.8484 33.2287ZM97.5504 33.1021V33.2287C97.5504 33.6102 97.5874 33.9636 97.6615 34.2889C97.7356 34.6143 97.8487 34.8974 98.0008 35.1384C98.1529 35.3794 98.346 35.5681 98.58 35.7047C98.814 35.8412 99.0909 35.9095 99.4107 35.9095C99.8124 35.9095 100.15 35.8312 100.423 35.6745C100.696 35.5139 100.914 35.303 101.078 35.042C101.242 34.7769 101.361 34.4877 101.435 34.1745V32.3009C101.388 32.088 101.32 31.8712 101.23 31.6503C101.14 31.4294 101.018 31.2266 100.862 31.0418C100.709 30.8531 100.514 30.7024 100.277 30.59C100.043 30.4735 99.7578 30.4153 99.4224 30.4153C99.0987 30.4153 98.8198 30.4836 98.5858 30.6201C98.3518 30.7567 98.1568 30.9474 98.0008 31.1924C97.8487 31.4334 97.7356 31.7165 97.6615 32.0419C97.5874 32.3672 97.5504 32.7206 97.5504 33.1021Z" fill="white"/>
<path d="M107.042 27.1682H107.744V35.1565L107.697 36.4216H107.042V27.1682ZM112.149 33.1021V33.2287C112.149 33.7146 112.095 34.1604 111.986 34.5661C111.876 34.9717 111.718 35.3231 111.512 35.6203C111.305 35.9135 111.051 36.1404 110.751 36.3011C110.455 36.4617 110.114 36.5421 109.727 36.5421C109.349 36.5421 109.014 36.4818 108.721 36.3613C108.429 36.2368 108.179 36.0621 107.972 35.8372C107.766 35.6083 107.6 35.3412 107.475 35.036C107.35 34.7267 107.263 34.3873 107.212 34.0178V32.4093C107.27 32.0158 107.364 31.6583 107.493 31.337C107.621 31.0157 107.787 30.7386 107.99 30.5056C108.197 30.2727 108.442 30.094 108.727 29.9695C109.016 29.845 109.345 29.7827 109.716 29.7827C110.102 29.7827 110.445 29.861 110.745 30.0177C111.05 30.1703 111.305 30.3932 111.512 30.6864C111.718 30.9755 111.876 31.325 111.986 31.7346C112.095 32.1403 112.149 32.5961 112.149 33.1021ZM111.441 33.2287V33.1021C111.441 32.7206 111.406 32.3672 111.336 32.0419C111.266 31.7165 111.155 31.4334 111.003 31.1924C110.855 30.9474 110.663 30.7567 110.429 30.6201C110.195 30.4836 109.915 30.4153 109.587 30.4153C109.252 30.4153 108.965 30.4735 108.727 30.59C108.493 30.7024 108.298 30.8531 108.142 31.0418C107.99 31.2266 107.869 31.4294 107.779 31.6503C107.69 31.8712 107.623 32.088 107.58 32.3009V34.1745C107.647 34.4757 107.762 34.7588 107.926 35.0239C108.089 35.289 108.31 35.5039 108.587 35.6685C108.864 35.8292 109.201 35.9095 109.599 35.9095C109.919 35.9095 110.193 35.8412 110.424 35.7047C110.658 35.5681 110.849 35.3794 110.997 35.1384C111.149 34.8974 111.26 34.6143 111.33 34.2889C111.404 33.9636 111.441 33.6102 111.441 33.2287Z" fill="white"/>
<path d="M115.678 35.7709L117.65 29.9032H118.405L115.725 37.4698C115.671 37.6184 115.6 37.7831 115.515 37.9638C115.433 38.1445 115.324 38.3172 115.187 38.4819C115.054 38.6506 114.887 38.7871 114.684 38.8916C114.485 39 114.241 39.0542 113.953 39.0542C113.879 39.0542 113.783 39.0442 113.666 39.0241C113.553 39.008 113.471 38.992 113.42 38.9759L113.414 38.3674C113.457 38.3795 113.52 38.3895 113.602 38.3976C113.684 38.4056 113.74 38.4096 113.771 38.4096C114.025 38.4096 114.237 38.3654 114.409 38.2771C114.584 38.1887 114.731 38.0562 114.848 37.8795C114.965 37.7068 115.068 37.4899 115.158 37.2288L115.678 35.7709ZM113.836 29.9032L115.854 35.4998L116.041 36.2529L115.532 36.5481L113.075 29.9032H113.836Z" fill="white"/>
<path d="M126.077 28.8188L123.532 36.4216H121.994L125.2 27.6501H126.182L126.077 28.8188ZM128.206 36.4216L125.656 28.8188L125.545 27.6501H126.533L129.751 36.4216H128.206ZM128.084 33.1684V34.3673H123.45V33.1684H128.084Z" fill="white"/>
<path d="M137.322 31.9394V35.289C137.201 35.4537 137.012 35.6344 136.755 35.8312C136.501 36.024 136.164 36.1906 135.743 36.3312C135.322 36.4718 134.797 36.5421 134.169 36.5421C133.635 36.5421 133.145 36.4497 132.701 36.2649C132.256 36.0762 131.872 35.8011 131.548 35.4396C131.229 35.0781 130.981 34.6384 130.805 34.1203C130.63 33.5981 130.542 33.0037 130.542 32.3371V31.7286C130.542 31.0659 130.622 30.4755 130.782 29.9574C130.946 29.4353 131.18 28.9935 131.484 28.6321C131.788 28.2706 132.155 27.9975 132.584 27.8128C133.017 27.624 133.506 27.5296 134.052 27.5296C134.75 27.5296 135.328 27.6501 135.784 27.8911C136.244 28.128 136.599 28.4574 136.849 28.8791C137.098 29.3008 137.256 29.7827 137.322 30.3249H135.883C135.836 30.0197 135.745 29.7466 135.608 29.5056C135.476 29.2646 135.285 29.0759 135.035 28.9393C134.789 28.7987 134.47 28.7285 134.076 28.7285C133.736 28.7285 133.438 28.7947 133.181 28.9273C132.923 29.0598 132.709 29.2546 132.537 29.5116C132.369 29.7687 132.243 30.0819 132.157 30.4514C132.071 30.8209 132.028 31.2426 132.028 31.7165V32.3371C132.028 32.819 132.077 33.2467 132.174 33.6202C132.276 33.9937 132.42 34.309 132.607 34.5661C132.798 34.8231 133.03 35.0179 133.303 35.1504C133.576 35.2789 133.884 35.3432 134.228 35.3432C134.563 35.3432 134.838 35.3151 135.053 35.2589C135.267 35.1986 135.437 35.1283 135.562 35.048C135.69 34.9637 135.79 34.8833 135.86 34.807V33.066H134.087V31.9394H137.322Z" fill="white"/>
<path d="M143.601 34.1624C143.601 33.9817 143.574 33.8211 143.519 33.6805C143.468 33.5399 143.377 33.4114 143.244 33.2949C143.112 33.1785 142.924 33.066 142.683 32.9576C142.445 32.8451 142.14 32.7306 141.77 32.6142C141.364 32.4857 140.99 32.3431 140.647 32.1864C140.307 32.0258 140.011 31.841 139.758 31.6322C139.504 31.4193 139.307 31.1764 139.167 30.9033C139.026 30.6261 138.956 30.3068 138.956 29.9454C138.956 29.5879 139.028 29.2626 139.173 28.9694C139.321 28.6762 139.529 28.4232 139.798 28.2104C140.071 27.9935 140.393 27.8268 140.764 27.7103C141.134 27.5899 141.544 27.5296 141.992 27.5296C142.624 27.5296 143.168 27.6501 143.624 27.8911C144.085 28.132 144.438 28.4554 144.683 28.861C144.933 29.2666 145.058 29.7144 145.058 30.2044H143.601C143.601 29.9153 143.541 29.6602 143.42 29.4393C143.303 29.2144 143.123 29.0377 142.881 28.9092C142.644 28.7807 142.341 28.7164 141.975 28.7164C141.628 28.7164 141.339 28.7706 141.109 28.8791C140.879 28.9875 140.707 29.1341 140.594 29.3188C140.481 29.5036 140.424 29.7124 140.424 29.9454C140.424 30.11 140.461 30.2607 140.536 30.3972C140.61 30.5297 140.723 30.6542 140.875 30.7707C141.027 30.8832 141.218 30.9896 141.448 31.09C141.678 31.1904 141.949 31.2868 142.261 31.3792C142.733 31.5238 143.145 31.6844 143.496 31.8611C143.847 32.0338 144.139 32.2306 144.373 32.4515C144.607 32.6724 144.783 32.9234 144.9 33.2046C145.017 33.4817 145.075 33.797 145.075 34.1504C145.075 34.5199 145.003 34.8532 144.859 35.1504C144.715 35.4436 144.508 35.6946 144.239 35.9035C143.973 36.1083 143.654 36.2669 143.279 36.3794C142.909 36.4878 142.495 36.5421 142.039 36.5421C141.63 36.5421 141.226 36.4858 140.828 36.3734C140.434 36.2609 140.075 36.0902 139.752 35.8613C139.428 35.6284 139.171 35.3392 138.979 34.9938C138.788 34.6444 138.693 34.2367 138.693 33.7708H140.161C140.161 34.056 140.208 34.299 140.302 34.4998C140.399 34.7006 140.534 34.8653 140.705 34.9938C140.877 35.1183 141.076 35.2107 141.302 35.2709C141.532 35.3312 141.778 35.3613 142.039 35.3613C142.382 35.3613 142.669 35.3111 142.899 35.2107C143.133 35.1103 143.309 34.9697 143.426 34.789C143.543 34.6082 143.601 34.3994 143.601 34.1624Z" fill="white"/>
<path d="M151.268 27.6501V36.4216H149.799V27.6501H151.268Z" fill="white"/>
<path d="M154.522 31.2948V36.4216H153.112V29.9032H154.44L154.522 31.2948ZM154.27 32.9214L153.814 32.9154C153.818 32.4535 153.88 32.0298 154.001 31.6442C154.126 31.2587 154.298 30.9274 154.516 30.6502C154.738 30.3731 155.003 30.1602 155.312 30.0116C155.62 29.859 155.963 29.7827 156.341 29.7827C156.645 29.7827 156.92 29.8269 157.166 29.9153C157.416 29.9996 157.628 30.1382 157.804 30.3309C157.983 30.5237 158.12 30.7747 158.213 31.084C158.307 31.3892 158.354 31.7647 158.354 32.2105V36.4216H156.938V32.2045C156.938 31.8912 156.893 31.6442 156.803 31.4635C156.718 31.2788 156.591 31.1482 156.423 31.0719C156.259 30.9916 156.055 30.9514 155.809 30.9514C155.567 30.9514 155.351 31.0037 155.159 31.1081C154.968 31.2125 154.806 31.3551 154.674 31.5358C154.545 31.7165 154.446 31.9254 154.376 32.1623C154.305 32.3993 154.27 32.6523 154.27 32.9214Z" fill="white"/>
<path d="M162.55 35.3854C162.78 35.3854 162.986 35.3392 163.17 35.2468C163.357 35.1504 163.507 35.0179 163.62 34.8492C163.737 34.6805 163.802 34.4857 163.813 34.2648H165.141C165.133 34.6866 165.012 35.0701 164.778 35.4155C164.544 35.7609 164.234 36.036 163.848 36.2408C163.462 36.4416 163.035 36.5421 162.567 36.5421C162.084 36.5421 161.662 36.4577 161.304 36.289C160.945 36.1163 160.646 35.8794 160.408 35.5782C160.171 35.2769 159.991 34.9295 159.87 34.5359C159.753 34.1424 159.695 33.7206 159.695 33.2708V33.06C159.695 32.6102 159.753 32.1885 159.87 31.7949C159.991 31.3973 160.171 31.0478 160.408 30.7466C160.646 30.4454 160.945 30.2105 161.304 30.0418C161.662 29.8691 162.082 29.7827 162.561 29.7827C163.068 29.7827 163.513 29.8871 163.895 30.096C164.277 30.3008 164.578 30.588 164.796 30.9575C165.018 31.323 165.133 31.7487 165.141 32.2346H163.813C163.802 31.9937 163.743 31.7768 163.638 31.584C163.536 31.3872 163.392 31.2306 163.205 31.1141C163.022 30.9976 162.801 30.9394 162.544 30.9394C162.259 30.9394 162.023 30.9996 161.836 31.1201C161.649 31.2366 161.502 31.3973 161.397 31.6021C161.292 31.8029 161.216 32.0298 161.169 32.2828C161.126 32.5318 161.105 32.7909 161.105 33.06V33.2708C161.105 33.5399 161.126 33.801 161.169 34.054C161.212 34.307 161.286 34.5339 161.391 34.7347C161.5 34.9315 161.649 35.0902 161.836 35.2107C162.023 35.3271 162.261 35.3854 162.55 35.3854Z" fill="white"/>
<path d="M166.453 35.6986C166.453 35.4737 166.527 35.285 166.675 35.1324C166.824 34.9757 167.024 34.8974 167.278 34.8974C167.535 34.8974 167.736 34.9757 167.881 35.1324C168.029 35.285 168.103 35.4737 168.103 35.6986C168.103 35.9236 168.029 36.1123 167.881 36.2649C167.736 36.4175 167.535 36.4939 167.278 36.4939C167.024 36.4939 166.824 36.4175 166.675 36.2649C166.527 36.1123 166.453 35.9236 166.453 35.6986Z" fill="white"/>
</svg>
