<svg width="147" height="36" viewBox="0 0 147 36" fill="none" xmlns="http://www.w3.org/2000/svg">
    <g clip-path="url(#clip0_7380_881)">
        <path d="M31.1586 22.6901C30.9928 22.6283 30.8166 22.6002 30.64 22.6074C30.4634 22.6146 30.29 22.657 30.1297 22.7322C29.9693 22.8073 29.8252 22.9137 29.7056 23.0454C29.586 23.177 29.4932 23.3311 29.4326 23.4991C29.4326 23.4991 28.5502 26.9025 20.3523 28.4314C19.8037 27.1774 18.4348 24.9992 15.6712 25.329L16.2353 26.6118C16.5612 26.6419 16.8896 26.6252 17.2109 26.5621C16.8693 26.9653 14.8431 27.7585 13.4328 27.4287C13.5378 27.3939 13.6359 27.3408 13.7226 27.2716L13.2232 26.3788C13.2232 26.3788 11.58 27.3711 12.2218 28.8555C12.8635 30.3399 14.8586 29.6409 14.8586 29.6409C14.8586 29.6409 14.1418 30.2535 13.4613 30.2535C13.0265 31.4708 14.5119 33.5574 16.1266 33.3113C16.0455 33.4188 15.9409 33.5058 15.8211 33.5658C15.7012 33.6257 15.5694 33.6569 15.4357 33.6569C16.5148 34.2407 19.9926 34.3847 20.6111 31.1462C30.5634 29.3372 31.953 24.452 31.9608 24.4363C32.0215 24.2684 32.0489 24.09 32.0414 23.9113C32.0339 23.7327 31.9918 23.5573 31.9173 23.3951C31.8428 23.2329 31.7374 23.0872 31.6073 22.9663C31.4771 22.8453 31.3246 22.7514 31.1586 22.6901Z" fill="#42E8E0"/>
        <path d="M9.22516 24.3787L10.5992 27.1721C10.858 27.68 10.858 28.3554 10.5061 28.5701L8.43591 29.8215C8.50915 29.8657 8.57766 29.9175 8.64034 29.976C8.83869 30.1568 8.98677 30.3871 9.06985 30.6439C9.15293 30.9006 9.16812 31.1749 9.11389 31.4394C12.1803 30.6645 12.5581 25.9914 9.22516 24.3787Z" fill="#42E8E0"/>
        <path d="M6.7591 30.3347C7.49918 29.188 6.7591 28.0492 5.82494 27.8868C5.73976 27.8699 5.65284 27.8638 5.56616 27.8685C6.23379 26.5203 5.52217 25.2296 4.61389 25.0516C3.33297 24.7898 2.78696 27.1198 2.70416 28.4785C2.62135 29.8372 3.97214 29.4838 3.97214 29.4838C4.06271 29.4262 4.15069 29.3713 4.23091 29.3137C4.08747 29.7687 4.00054 30.2401 3.97214 30.7169C3.90744 31.8479 5.26599 31.573 5.26599 31.573C5.35656 31.5285 5.44195 31.4814 5.52476 31.4369C5.45489 31.5206 5.3902 31.6018 5.33327 31.6803C4.66305 32.5887 5.93621 33.1071 5.93621 33.1071C9.02076 33.4946 9.37786 31.2588 8.43076 30.3556C7.93133 29.9053 7.32839 30.0074 6.7591 30.3347Z" fill="#42E8E0"/>
        <path d="M23.6387 12.5978C23.0487 12.5978 22.57 13.2732 22.57 14.1031C22.57 14.933 23.0487 15.6085 23.6387 15.6085C24.2287 15.6085 24.7075 14.9356 24.7075 14.1031C24.7075 13.2706 24.2339 12.5978 23.6387 12.5978Z" fill="#42E8E0"/>
        <path d="M31.0525 9.83314C31.2535 9.52521 31.5182 9.26508 31.8282 9.07072C32.1383 8.87636 32.4864 8.75239 32.8484 8.70739C31.2233 6.9193 26.9458 6.51613 26.9458 6.51613C27.1388 6.77743 27.2577 7.08697 27.29 7.4115C26.7724 6.68893 25.2353 5.09981 23.2946 5.38255C23.3799 5.19653 23.4858 5.02088 23.6103 4.85896C23.3684 4.14574 23.1731 3.41726 23.0254 2.67818C23.3349 2.56932 23.5952 2.35116 23.7585 2.06376C23.9218 1.77636 23.9772 1.43901 23.9144 1.11365C23.8516 0.788291 23.6749 0.496756 23.4168 0.292588C23.1586 0.0884192 22.8363 -0.0147049 22.5091 0.0021864C22.1819 0.0190777 21.8716 0.154842 21.6354 0.384531C21.3991 0.61422 21.2527 0.922437 21.2229 1.25257C21.1932 1.58271 21.2822 1.91259 21.4736 2.18168C21.6649 2.45078 21.9458 2.641 22.2646 2.71743C22.2913 3.66435 22.4374 4.60397 22.6994 5.51345C20.5593 6.26482 20.1608 9.0713 20.1608 9.0713C20.0566 8.67269 20.0665 8.25231 20.1893 7.85916C19.62 8.17594 14.944 11.7862 15.1433 16.2525C15.3425 20.7188 19.576 25.2793 26.3765 23.4048C33.177 21.5303 33.5885 15.7027 33.5885 15.7027C33.5885 15.7027 32.5353 15.7315 32.2791 14.9827C36.4142 15.6791 35.4801 7.47695 31.0525 9.83314ZM28.8271 18.2264C27.083 21.2371 19.0559 22.5723 17.0659 19.648C16.2249 18.4123 16.0076 17.4934 15.9429 16.064C15.8885 14.8283 16.0697 13.8596 16.6752 12.8648C17.8914 10.8699 24.089 9.85669 27.202 10.6709C29.2877 11.1997 29.7121 16.6897 28.8271 18.2107V18.2264Z" fill="#42E8E0"/>
        <path d="M23.2351 17.9829C23.1923 17.9513 23.1437 17.9285 23.0922 17.9159C23.0406 17.9032 22.9872 17.901 22.9348 17.9092C22.8824 17.9175 22.8321 17.9361 22.7869 17.9641C22.7416 17.992 22.7022 18.0286 22.6709 18.0719C21.6721 19.4726 19.8478 18.5065 19.8426 18.5039C19.7479 18.4546 19.6377 18.4454 19.5363 18.4783C19.4348 18.5112 19.3505 18.5835 19.3018 18.6793C19.253 18.7752 19.2439 18.8866 19.2764 18.9892C19.3089 19.0918 19.3804 19.1772 19.4751 19.2265C19.4751 19.2265 21.9153 20.5198 23.3231 18.5511C23.3542 18.5079 23.3767 18.459 23.3892 18.4071C23.4017 18.3552 23.4039 18.3013 23.3957 18.2485C23.3875 18.1957 23.3691 18.1451 23.3416 18.0995C23.314 18.0539 23.2778 18.0143 23.2351 17.9829Z" fill="#42E8E0"/>
        <path d="M17.7387 13.6424C17.1953 13.6424 16.7554 14.2628 16.7554 15.0273C16.7554 15.7917 17.1953 16.4096 17.7387 16.4096C18.2821 16.4096 18.722 15.7917 18.722 15.0273C18.722 14.2628 18.2821 13.6424 17.7387 13.6424Z" fill="#42E8E0"/>
        <path fill-rule="evenodd" clip-rule="evenodd" d="M8.98194 13.6318C10.5165 13.6318 12.5323 15.988 13.482 18.8678C14.4317 21.7476 13.9529 24.1038 12.4158 24.1038C10.8787 24.1038 8.86549 21.7476 7.91581 18.8678C6.96612 15.988 7.44484 13.6318 8.98194 13.6318ZM19.0378 33.8558L19.5553 35.0313C19.5953 35.1126 19.6187 35.2011 19.6243 35.2917C19.6299 35.3823 19.6175 35.4732 19.5879 35.5588C19.5583 35.6445 19.5121 35.7234 19.4519 35.7907C19.3917 35.858 19.3188 35.9125 19.2376 35.9509C19.1563 35.9894 19.0682 36.0109 18.9785 36.0144C18.8889 36.0179 18.7994 36.0032 18.7155 35.9711C18.6315 35.9391 18.5547 35.8904 18.4896 35.8279C18.4246 35.7654 18.3725 35.6904 18.3365 35.6072L17.6948 34.3296C18.1681 34.2592 18.6238 34.0984 19.0378 33.8558ZM14.706 24.2556L15.9118 26.8422C15.3224 27.0417 14.7064 27.1494 14.0849 27.1616L13.011 25.1379C10.9098 25.0934 8.32208 22.2058 7.20936 18.6479C6.09665 15.0901 6.89107 12.1605 9.00264 12.1605C11.1142 12.1605 13.7304 15.0639 14.8509 18.6479C15.5987 21.0408 15.4874 23.1325 14.706 24.2556ZM0.269126 20.6376L4.65012 18.3783C5.0124 18.1898 5.4549 18.2892 5.72143 18.7997L10.1904 27.3972C10.4492 27.9208 10.488 28.5858 10.1386 28.8005L8.46699 29.8477C7.98826 29.5492 7.4319 29.6618 6.87555 29.9576C7.04575 29.7399 7.15588 29.4804 7.19471 29.2056C7.23354 28.9307 7.19969 28.6504 7.0966 28.3932C6.99352 28.1359 6.82488 27.9108 6.60786 27.741C6.39084 27.5711 6.1332 27.4624 5.86117 27.426C5.76472 27.4085 5.6666 27.4024 5.56875 27.4077C6.28555 26.0254 5.51441 24.6955 4.53367 24.5096C3.61762 24.3342 3.0535 25.3159 2.75074 26.405L0.227723 22.0408C-0.0672759 21.5434 -0.0905653 20.8287 0.269126 20.6376Z" fill="#42E8E0"/>
        <path d="M49.8885 21.279H47.205L45.7611 19.5433H42.6817V21.279H40.6762V17.9254H46.3122C46.9333 17.9254 47.4172 17.6426 47.4172 17.1923C47.4172 16.6818 47.0006 16.4279 46.3122 16.4279H40.6762L41.983 14.7209H46.1492C47.6216 14.7209 49.4796 15.1922 49.4796 17.064C49.4919 17.559 49.3273 18.0418 49.0159 18.4237C48.7045 18.8056 48.2673 19.0609 47.7847 19.1427C48.1099 19.4055 48.4145 19.6935 48.6955 20.004L49.8885 21.279Z" fill="white"/>
        <path d="M60.3195 17.9961C60.3195 20.3366 58.7306 21.3995 55.584 21.3995C52.4373 21.3995 50.8459 20.3523 50.8459 17.9961C50.8459 15.6399 52.427 14.6136 55.584 14.6136C58.741 14.6136 60.3195 15.653 60.3195 17.9961ZM58.3244 17.9961C58.3244 16.585 57.5972 16.3206 55.584 16.3206C53.5707 16.3206 52.841 16.5824 52.841 17.9961C52.841 19.4098 53.5682 19.6794 55.584 19.6794C57.5998 19.6794 58.3244 19.4072 58.3244 17.9961Z" fill="white"/>
        <path d="M70.3443 19.3679C70.3443 20.4543 69.7543 21.279 67.71 21.279H62.0145V17.2892H67.7488C68.0412 17.2892 68.3104 17.1819 68.3104 16.8494C68.3104 16.5169 68.0309 16.4279 67.7488 16.4279H62.0145L63.3704 14.7209H67.6634C69.2161 14.7209 70.2097 15.3309 70.2097 16.5352C70.227 16.8293 70.1507 17.1212 69.9918 17.3681C69.833 17.6151 69.6001 17.8039 69.3273 17.907C69.6342 17.9999 69.9013 18.1945 70.0857 18.4594C70.2702 18.7243 70.3612 19.0443 70.3443 19.3679ZM64.0303 18.6898V19.593H67.7204C68.1551 19.593 68.3414 19.4359 68.3414 19.1323C68.3414 18.8286 68.1551 18.6898 67.7204 18.6898H64.0303Z" fill="white"/>
        <path d="M81.3006 17.9961C81.3006 20.3366 79.7118 21.3995 76.5625 21.3995C73.4133 21.3995 71.827 20.3523 71.827 17.9961C71.827 15.6399 73.4055 14.6136 76.5625 14.6136C79.7195 14.6136 81.3006 15.653 81.3006 17.9961ZM79.3055 17.9961C79.3055 16.585 78.5784 16.3206 76.5625 16.3206C74.5467 16.3206 73.8221 16.5824 73.8221 17.9961C73.8221 19.4098 74.5493 19.6794 76.5625 19.6794C78.5758 19.6794 79.3055 19.4072 79.3055 17.9961Z" fill="white"/>
        <path d="M86.9962 17.1818H91.1365V21.279H86.696C84.4499 21.279 82.7911 19.8365 82.7911 17.9358C82.7911 16.0352 84.4499 14.7209 86.696 14.7209H91.3358L90.0419 16.4279H86.696C85.6117 16.4279 84.7863 17.0928 84.7863 18.0249C84.7863 18.9569 85.5807 19.5956 86.696 19.5956H89.1466V18.6453H85.7825L86.9962 17.1818Z" fill="white"/>
        <path d="M102.165 21.279H99.4819L98.038 19.5433H94.9586V21.279H92.9531V17.9254H98.5892C99.2102 17.9254 99.6941 17.6426 99.6941 17.1923C99.6941 16.6818 99.2775 16.4279 98.5892 16.4279H92.9531L94.2599 14.7209H98.4261C99.8985 14.7209 101.757 15.1922 101.757 17.064C101.769 17.559 101.604 18.0418 101.293 18.4237C100.981 18.8056 100.544 19.0609 100.062 19.1427C100.387 19.4055 100.691 19.6935 100.972 20.004L102.165 21.279Z" fill="white"/>
        <path d="M106.301 21.279L107.512 19.593H109.139C109.527 19.593 109.98 19.593 110.291 19.6114C110.117 19.3757 109.846 18.9752 109.633 18.661L108.472 16.9279L105.428 21.279H103.056L107.211 15.3493C107.349 15.1271 107.54 14.9434 107.766 14.8149C107.992 14.6864 108.246 14.6172 108.505 14.6136C108.763 14.615 109.016 14.6834 109.241 14.8122C109.465 14.941 109.653 15.1259 109.786 15.3493L113.833 21.279H106.301Z" fill="white"/>
        <path d="M119.57 21.279H115.231V17.1923H117.247V19.5931H119.575C120.691 19.5931 121.493 18.9647 121.493 18.0223C121.493 17.0798 120.66 16.4253 119.575 16.4253H115.231L116.509 14.7184H119.57C121.837 14.7184 123.475 16.043 123.475 17.9332C123.475 19.8234 121.819 21.279 119.57 21.279Z" fill="white"/>
        <path d="M127.204 21.279H125.199V14.734H127.204V21.279Z" fill="white"/>
        <path d="M134.895 21.0329L130.923 17.4253V21.2764H129.111V15.8362C129.111 14.9644 129.629 14.611 130.206 14.611C130.356 14.6115 130.505 14.6432 130.643 14.704C130.781 14.7647 130.905 14.8534 131.008 14.9644L134.98 18.5694V14.7183H136.799V20.1481C136.799 21.0199 136.282 21.3837 135.697 21.3837C135.546 21.3849 135.397 21.3543 135.259 21.2939C135.121 21.2335 134.997 21.1447 134.895 21.0329Z" fill="white"/>
        <path d="M142.663 17.1818H146.803V21.279H142.363C140.117 21.279 138.461 19.8365 138.461 17.9358C138.461 16.0352 140.117 14.7209 142.363 14.7209H147.003L145.709 16.4279H142.363C141.279 16.4279 140.453 17.0928 140.453 18.0249C140.453 18.9569 141.248 19.5956 142.363 19.5956H144.821V18.6453H141.457L142.663 17.1818Z" fill="white"/>
    </g>
    <defs>
        <clipPath id="clip0_7380_881">
            <rect width="147" height="36" fill="white"/>
        </clipPath>
    </defs>
</svg>
