<svg width="221" height="210" viewBox="0 0 221 210" fill="none" xmlns="http://www.w3.org/2000/svg">
<g clip-path="url(#clip0_21188_2514)">
<path d="M41.8325 58.8563C43.776 68.7165 37.3358 78.2912 27.4421 80.2375C17.5485 82.1839 7.95013 75.769 6.00664 65.9088C4.06316 56.0487 10.5033 46.474 20.397 44.5277C30.2907 42.5813 39.889 48.9962 41.8325 58.8563Z" fill="#F5F5F5"/>
<path d="M37.5692 59.6941C39.0506 67.2082 34.1395 74.5034 26.599 75.9881C19.0585 77.4728 11.7466 72.5856 10.2651 65.0715C8.7837 57.5574 13.6948 50.2622 21.2306 48.7774C28.7711 47.2927 36.083 52.18 37.5644 59.6988L37.5692 59.6941Z" fill="#EBEBEB"/>
<path d="M37.4835 59.2657C37.4025 59.2847 37.2262 58.6994 36.7975 57.6953C36.3688 56.7007 35.6591 55.2826 34.3968 53.8264C33.768 53.1031 33.0058 52.3702 32.1008 51.704C31.191 51.0425 30.1478 50.4382 28.9712 49.9813C28.3853 49.7529 27.7708 49.5483 27.1277 49.4055C26.4847 49.2532 25.8226 49.139 25.1414 49.0867C24.4602 49.0343 23.76 49.0153 23.055 49.0677C22.35 49.12 21.6403 49.2247 20.9305 49.3817C20.2255 49.5483 19.5396 49.7672 18.8822 50.0242C18.2249 50.2859 17.6056 50.6047 17.015 50.9474C16.4243 51.29 15.8765 51.685 15.3668 52.1037C14.8523 52.5178 14.3855 52.9651 13.9616 53.4267C13.1042 54.3499 12.4278 55.354 11.899 56.3438C11.375 57.3384 11.0082 58.3282 10.7605 59.2562C10.2652 61.1169 10.2461 62.7015 10.2937 63.7818C10.3509 64.8668 10.4462 65.4711 10.3652 65.4902C10.3033 65.5045 10.0698 64.9286 9.88407 63.8246C9.70783 62.7253 9.60303 61.0645 10.027 59.0801C10.2413 58.0903 10.5891 57.0243 11.1083 55.9488C11.637 54.8781 12.3277 53.7836 13.2328 52.7747C13.6805 52.2703 14.1712 51.7754 14.719 51.3233C15.262 50.8665 15.8479 50.4334 16.4814 50.0575C17.115 49.6768 17.7819 49.3294 18.4916 49.0439C19.2014 48.7583 19.9397 48.5251 20.7019 48.3443C21.464 48.173 22.2357 48.0635 22.9931 48.0112C23.7552 47.9589 24.5078 47.9826 25.2414 48.0445C25.975 48.1064 26.6895 48.2444 27.3802 48.4157C28.0709 48.5823 28.7283 48.8107 29.3523 49.0724C30.6051 49.5864 31.7054 50.2669 32.6486 50.9997C33.587 51.7421 34.3634 52.5511 34.9922 53.3458C36.245 54.9447 36.8785 56.4818 37.1977 57.5525C37.512 58.628 37.5502 59.2514 37.493 59.2609L37.4835 59.2657Z" fill="#E0E0E0"/>
<path d="M27.0659 70.2108L27.5708 72.5807L25.4558 73.028L24.9652 70.7247C22.8407 71.0436 20.6924 70.8104 19.3348 70.1489L19.9493 67.3222C21.1735 67.879 22.8169 68.1264 24.3745 67.9551L23.6219 64.4241C21.1497 64.3527 18.3583 64.1243 17.72 61.1025C17.2437 58.8611 18.4679 56.5912 21.7308 55.5014L21.2307 53.1553L23.3456 52.708L23.8363 55.016C25.4511 54.8066 27.0849 54.9018 28.4092 55.3967L27.9043 58.2234C26.6943 57.838 25.5178 57.7142 24.4317 57.8094L25.1939 61.407C27.6613 61.4594 30.4098 61.6926 31.0434 64.6763C31.5102 66.8749 30.305 69.121 27.0659 70.2251V70.2108ZM22.9646 61.3119L22.3263 58.3091C21.2592 58.7992 20.9449 59.5083 21.0925 60.2078C21.2497 60.9454 21.969 61.2167 22.9646 61.3119ZM27.6899 65.6376C27.5327 64.8952 26.8325 64.624 25.856 64.5002L26.4752 67.4174C27.4851 66.9605 27.8328 66.3133 27.6899 65.6376Z" fill="#E0E0E0"/>
<path d="M90.7817 123.534C91.9201 129.301 88.1522 134.902 82.3647 136.04C76.5771 137.177 70.9657 133.427 69.8273 127.66C68.6888 121.892 72.4567 116.291 78.2443 115.153C84.0319 114.016 89.6432 117.766 90.7817 123.534Z" fill="#F5F5F5"/>
<path d="M88.2904 124.024C89.1573 128.421 86.285 132.684 81.874 133.555C77.4631 134.421 73.1855 131.566 72.3186 127.169C71.4516 122.772 74.324 118.508 78.7349 117.637C83.1459 116.771 87.4234 119.626 88.2904 124.024Z" fill="#EBEBEB"/>
<path d="M88.238 123.777C88.1903 123.786 88.0855 123.444 87.8378 122.858C87.5854 122.278 87.171 121.445 86.4326 120.593C86.0658 120.17 85.6181 119.741 85.0893 119.351C84.5558 118.966 83.9461 118.609 83.2602 118.342C82.9172 118.209 82.5552 118.09 82.1836 118.004C81.8073 117.919 81.4215 117.847 81.0214 117.819C80.6212 117.786 80.2163 117.776 79.8019 117.809C79.3875 117.838 78.9731 117.9 78.5587 117.995C78.1442 118.095 77.7441 118.219 77.3583 118.371C76.9724 118.523 76.6104 118.709 76.2674 118.913C75.9197 119.113 75.6006 119.346 75.3005 119.589C75.0004 119.832 74.7289 120.094 74.4764 120.365C73.9762 120.903 73.5809 121.493 73.2712 122.068C72.9664 122.649 72.752 123.23 72.6044 123.772C72.3138 124.857 72.3043 125.785 72.3328 126.418C72.3662 127.056 72.4233 127.408 72.3757 127.417C72.3424 127.427 72.1995 127.089 72.0947 126.442C71.9899 125.799 71.9279 124.829 72.1804 123.667C72.3043 123.087 72.5091 122.463 72.8139 121.835C73.1236 121.207 73.5285 120.569 74.0572 119.979C74.3192 119.684 74.605 119.394 74.9242 119.132C75.2433 118.866 75.5815 118.614 75.9531 118.39C76.3246 118.166 76.7152 117.962 77.1296 117.8C77.544 117.633 77.9775 117.495 78.4205 117.391C78.8683 117.291 79.3161 117.224 79.7591 117.195C80.2021 117.162 80.645 117.176 81.0738 117.214C81.5025 117.253 81.9217 117.329 82.3218 117.433C82.7267 117.533 83.1078 117.667 83.4745 117.819C84.2081 118.119 84.8512 118.518 85.4037 118.947C85.9515 119.38 86.4088 119.856 86.7756 120.317C87.5092 121.255 87.876 122.154 88.0665 122.777C88.2523 123.406 88.2761 123.772 88.238 123.777Z" fill="#E0E0E0"/>
<path d="M82.1456 130.177L82.4409 131.561L81.2024 131.823L80.9166 130.476C79.6733 130.662 78.4158 130.529 77.625 130.138L77.9871 128.487C78.7016 128.816 79.6638 128.958 80.5736 128.858L80.1354 126.793C78.6921 126.75 77.0582 126.617 76.6819 124.851C76.4056 123.538 77.1201 122.215 79.0255 121.577L78.7349 120.202L79.9734 119.94L80.2592 121.287C81.2024 121.163 82.1598 121.221 82.9315 121.511L82.6362 123.162C81.9264 122.938 81.2405 122.862 80.607 122.919L81.0547 125.023C82.4981 125.051 84.1033 125.189 84.4749 126.936C84.7464 128.221 84.0414 129.534 82.1503 130.181L82.1456 130.177ZM79.7448 124.97L79.3732 123.214C78.7492 123.5 78.5634 123.914 78.6492 124.323C78.7397 124.756 79.1636 124.913 79.7448 124.97ZM82.5076 127.502C82.4171 127.069 82.0074 126.912 81.4358 126.836L81.7978 128.544C82.3885 128.278 82.5933 127.897 82.5076 127.502Z" fill="#E0E0E0"/>
<path d="M200.527 93.2198L199.974 95.5183L197.921 95.0234L198.459 92.7868C196.454 92.1729 194.653 91.0689 193.739 89.9125L195.473 87.6806C196.316 88.6895 197.664 89.5984 199.107 90.0981L199.931 86.667C197.783 85.5629 195.42 84.1924 196.125 81.2563C196.649 79.0815 198.683 77.592 202.018 78.006L202.565 75.7266L204.618 76.2215L204.08 78.4581C205.59 78.953 206.995 79.7239 207.948 80.7138L206.314 82.9932C205.409 82.1461 204.423 81.5418 203.428 81.1706L202.584 84.6588C204.738 85.739 207.062 87.1048 206.362 89.9981C205.847 92.1348 203.842 93.6053 200.522 93.2198H200.527ZM200.655 83.6499L201.356 80.7328C200.208 80.7185 199.631 81.2087 199.469 81.8844C199.298 82.603 199.817 83.1407 200.655 83.6452V83.6499ZM202.999 89.4461C203.17 88.7275 202.67 88.1946 201.86 87.6758L201.179 90.5073C202.261 90.5264 202.842 90.1028 202.999 89.4461Z" fill="#EBEBEB"/>
<path d="M207.205 38.9508L207.386 43.0338L203.737 43.1956L203.561 39.222C199.941 39.1649 196.425 38.1846 194.348 36.7094L196.159 32.1743C198.04 33.4401 200.712 34.311 203.347 34.449L203.08 28.3625C198.988 27.5583 194.406 26.4067 194.177 21.1958C194.005 17.3317 196.668 13.8958 202.403 12.9821L202.227 8.93719L205.876 8.77539L206.052 12.749C208.796 12.8489 211.492 13.458 213.555 14.643L211.93 19.2066C210.025 18.2311 208.1 17.6981 206.267 17.5601L206.543 23.756C210.635 24.5269 215.141 25.6786 215.37 30.8133C215.536 34.6013 212.912 38.0038 207.215 38.9508H207.205ZM202.846 23.0041L202.618 17.8313C200.703 18.3548 199.984 19.4446 200.036 20.6485C200.093 21.9239 201.217 22.5663 202.846 23.0089V23.0041ZM209.506 31.5081C209.449 30.2327 208.362 29.5855 206.767 29.1096L206.991 34.1397C208.796 33.659 209.558 32.674 209.506 31.5081Z" fill="#EBEBEB"/>
<path d="M221 195.981C221 196.048 171.522 196.105 110.507 196.105C49.4922 196.105 0 196.048 0 195.981C0 195.915 49.4684 195.857 110.507 195.857C171.546 195.857 221 195.915 221 195.981Z" fill="#263238"/>
<path d="M185.712 0.238281H35.3066C33.4098 0.238281 31.8722 1.77443 31.8722 3.66936V114.673C31.8722 116.567 33.4098 118.104 35.3066 118.104H185.712C187.609 118.104 189.147 116.567 189.147 114.673V3.66936C189.147 1.77443 187.609 0.238281 185.712 0.238281Z" fill="white"/>
<path d="M185.712 118.103C185.703 118.075 186.213 118.165 187.075 117.808C187.494 117.618 187.999 117.299 188.413 116.757C188.837 116.224 189.142 115.438 189.123 114.534C189.118 110.908 189.109 105.564 189.099 98.6828C189.09 84.9156 189.075 64.9954 189.061 40.383C189.061 34.2299 189.056 27.7818 189.052 21.0671C189.052 17.7074 189.052 14.2811 189.052 10.7929C189.052 9.04646 189.052 7.28571 189.052 5.50593C189.052 5.06336 189.052 4.61604 189.052 4.16871C189.052 3.71663 189.061 3.28358 188.947 2.86005C188.737 2.01299 188.175 1.2611 187.418 0.813775C187.041 0.590113 186.617 0.442591 186.179 0.380727C185.746 0.323621 185.284 0.352174 184.826 0.347415C183.912 0.347415 182.997 0.347415 182.078 0.347415C180.234 0.347415 178.381 0.347415 176.509 0.347415C172.765 0.347415 168.964 0.347415 165.106 0.347415C157.389 0.347415 149.448 0.347415 141.303 0.352174C108.726 0.352174 72.9141 0.356933 35.321 0.361691C34.1825 0.352174 33.0679 0.970815 32.4867 1.9416C32.1866 2.42224 32.0247 2.97902 32.0056 3.54055C31.9913 4.11637 32.0056 4.70645 32.0008 5.28702C32.0008 7.61882 32.0008 9.94587 32.0008 12.2681C32.0008 16.908 32.0008 21.5145 32.0008 26.0876C32.0008 35.234 32.0008 44.2471 32.0008 53.1032C32.0008 70.8154 31.9961 87.8994 31.9913 104.174C31.9913 106.206 31.9913 108.229 31.9913 110.237C31.9913 111.241 31.9913 112.241 31.9913 113.24C31.9913 113.74 31.9913 114.234 31.9913 114.734C32.0008 115.215 32.1152 115.691 32.3248 116.124C32.7392 116.99 33.549 117.651 34.4731 117.884C34.9351 118.013 35.4162 117.994 35.9116 117.994C36.4023 117.994 36.8929 117.994 37.3835 117.994C39.3413 117.994 41.2848 117.994 43.214 117.994C50.9308 117.994 58.4237 117.994 65.6641 117.999C80.1497 118.003 93.6446 118.008 105.963 118.013C130.599 118.027 150.539 118.041 164.315 118.051C171.203 118.061 176.552 118.07 180.182 118.075C181.992 118.08 183.378 118.084 184.307 118.089C185.236 118.089 185.712 118.103 185.712 118.103C185.712 118.103 185.236 118.113 184.307 118.118C183.374 118.118 181.992 118.122 180.182 118.132C176.552 118.137 171.203 118.146 164.315 118.156C150.534 118.165 130.599 118.179 105.963 118.194C93.6446 118.194 80.1497 118.203 65.6641 118.208C58.4189 118.208 50.9308 118.208 43.214 118.213C41.2848 118.213 39.3413 118.213 37.3835 118.213C36.8929 118.213 36.4023 118.213 35.9116 118.213C35.4305 118.213 34.9113 118.232 34.4159 118.094C33.4251 117.846 32.5629 117.142 32.1199 116.214C31.896 115.752 31.7722 115.243 31.7627 114.729C31.7627 114.23 31.7627 113.735 31.7627 113.235C31.7627 112.236 31.7627 111.236 31.7627 110.232C31.7627 108.224 31.7627 106.202 31.7627 104.17C31.7627 87.8946 31.7627 70.8106 31.7531 53.0984C31.7531 44.2424 31.7531 35.2292 31.7531 26.0829C31.7531 21.5097 31.7531 16.9032 31.7531 12.2634C31.7531 9.94587 31.7531 7.61882 31.7531 5.28227C31.7531 4.69694 31.7484 4.12112 31.7579 3.52628C31.777 2.92191 31.9532 2.32231 32.2771 1.80836C32.9011 0.761429 34.1015 0.0999588 35.321 0.109476C72.9141 0.109476 108.726 0.114235 141.303 0.118994C149.448 0.118994 157.389 0.118994 165.106 0.123753C168.964 0.123753 172.765 0.123753 176.509 0.123753C178.381 0.123753 180.239 0.123753 182.078 0.123753C182.997 0.123753 183.917 0.123753 184.826 0.123753C185.284 0.13327 185.736 0.0999588 186.208 0.161823C186.67 0.223687 187.122 0.385485 187.523 0.623424C188.328 1.0993 188.923 1.89878 189.142 2.79343C189.261 3.24075 189.256 3.71187 189.252 4.14968C189.252 4.597 189.252 5.03957 189.252 5.48689C189.252 7.26667 189.252 9.02742 189.252 10.7739C189.252 14.2668 189.252 17.6932 189.252 21.0481C189.252 27.7675 189.247 34.2109 189.242 40.364C189.228 64.9763 189.214 84.8966 189.204 98.6637C189.195 105.545 189.185 110.889 189.18 114.515C189.199 115.429 188.885 116.224 188.451 116.761C188.027 117.309 187.513 117.627 187.094 117.813C186.665 117.999 186.308 118.041 186.074 118.075C185.841 118.084 185.722 118.084 185.722 118.084L185.712 118.103Z" fill="#263238"/>
<path d="M116.685 18.1836H177.819C179.977 18.1836 181.73 19.9348 181.73 22.0905V45.4181C181.73 47.5738 179.977 49.325 177.819 49.325H116.685C114.527 49.325 112.775 47.5738 112.775 45.4181V22.0905C112.775 19.9348 114.527 18.1836 116.685 18.1836Z" fill="#7B4DD3"/>
<g opacity="0.2">
<path d="M149.987 32.4545V33.6918H148.881V32.4878C147.791 32.4212 146.738 32.0785 146.133 31.6074L146.738 30.2607C147.29 30.6699 148.086 30.965 148.881 31.0459V29.2042C147.657 28.9044 146.285 28.4999 146.285 26.92C146.285 25.7494 147.133 24.7453 148.881 24.5502V23.3271H149.987V24.5311C150.815 24.5977 151.62 24.8166 152.23 25.2021L151.678 26.5584C151.116 26.2395 150.539 26.0492 149.987 25.9825V27.8575C151.211 28.143 152.559 28.5523 152.559 30.1084C152.559 31.2553 151.72 32.2499 149.987 32.4592V32.4545ZM148.881 27.5815V26.0159C148.296 26.1491 148.067 26.4679 148.067 26.8344C148.067 27.2198 148.4 27.4292 148.881 27.5863V27.5815ZM150.782 30.2416C150.782 29.8562 150.463 29.6468 149.987 29.4802V31.0031C150.539 30.8841 150.782 30.5938 150.782 30.2416Z" fill="white"/>
</g>
<g opacity="0.2">
<path d="M155.274 40.2404V41.1969H154.421V40.2642C153.573 40.2118 152.764 39.9501 152.292 39.5789L152.764 38.5367C153.192 38.8508 153.807 39.084 154.421 39.1411V37.7134C153.473 37.485 152.411 37.1662 152.411 35.9479C152.411 35.0438 153.069 34.2681 154.421 34.1111V33.1641H155.274V34.0968C155.917 34.1491 156.541 34.3204 157.008 34.6155L156.579 35.6672C156.146 35.4197 155.698 35.2722 155.269 35.2246V36.676C156.217 36.8997 157.26 37.2138 157.26 38.4178C157.26 39.3076 156.613 40.0738 155.269 40.2356L155.274 40.2404ZM154.421 36.4666V35.2532C153.969 35.3579 153.788 35.6053 153.788 35.8861C153.788 36.1859 154.045 36.3477 154.421 36.4666ZM155.893 38.5224C155.893 38.2226 155.646 38.0608 155.279 37.9324V39.1125C155.708 39.0174 155.893 38.7984 155.893 38.5224Z" fill="white"/>
</g>
<path d="M161.824 31.3132C161.824 31.3132 161.833 31.3798 161.838 31.5083C161.838 31.6558 161.848 31.8414 161.852 32.0698C161.852 32.5838 161.862 33.2881 161.871 34.1685C161.871 35.9911 161.871 38.537 161.871 41.535L161.848 41.4684C162.195 41.8348 162.748 42.0728 163.3 42.2108C163.862 42.3535 164.463 42.4154 165.077 42.4154C166.287 42.4154 167.607 42.1204 168.635 41.3494L168.593 41.4446V41.4351C168.602 37.6662 168.607 34.1732 168.616 31.3132L168.626 31.3513C168.521 31.1419 168.292 30.9563 168.078 30.823C167.854 30.685 167.611 30.5946 167.373 30.5137C166.887 30.3662 166.406 30.2948 165.954 30.2663C165.044 30.2044 164.248 30.2663 163.61 30.3995C162.976 30.5375 162.51 30.7564 162.229 30.9563C162.09 31.0562 161.99 31.1466 161.929 31.2133C161.867 31.2799 161.843 31.3132 161.838 31.3132C161.828 31.3132 161.914 31.1324 162.19 30.9087C162.467 30.685 162.938 30.4423 163.581 30.2853C164.224 30.1378 165.034 30.0569 165.958 30.1045C166.42 30.1283 166.916 30.1901 167.426 30.3376C167.921 30.5042 168.478 30.7088 168.816 31.2751L168.826 31.2894V31.3132C168.831 34.1732 168.84 37.6662 168.85 41.4351V41.5065L168.807 41.5398C167.692 42.3726 166.344 42.6581 165.087 42.6581C164.458 42.6581 163.839 42.5915 163.253 42.4392C162.672 42.2774 162.11 42.0585 161.681 41.6064L161.657 41.5826V41.5398C161.695 38.5275 161.728 35.9768 161.752 34.1494C161.771 33.2738 161.786 32.5695 161.8 32.0556C161.809 31.8319 161.814 31.6511 161.819 31.5035C161.824 31.3798 161.833 31.3132 161.838 31.3179L161.824 31.3132Z" fill="white"/>
<path d="M168.707 31.3276C168.707 31.3276 168.407 31.6226 167.807 31.9224C167.206 32.2318 166.268 32.4507 165.249 32.4364C164.229 32.4459 163.286 32.2841 162.676 31.9891C162.062 31.7035 161.743 31.4418 161.757 31.418C161.776 31.3799 162.133 31.5941 162.743 31.8273C163.348 32.07 164.244 32.1984 165.249 32.1889C166.249 32.1984 167.14 32.0224 167.735 31.7654C168.335 31.5132 168.688 31.2943 168.707 31.3276Z" fill="white"/>
<path d="M168.707 33.8588C168.707 33.8588 168.407 34.1539 167.807 34.4537C167.206 34.763 166.268 34.9819 165.249 34.9676C164.229 34.9771 163.286 34.8153 162.676 34.5203C162.062 34.2348 161.743 33.973 161.757 33.9492C161.776 33.9112 162.133 34.1253 162.743 34.3585C163.348 34.6012 164.244 34.7297 165.249 34.7202C166.249 34.7297 167.14 34.5536 167.735 34.2966C168.335 34.0444 168.688 33.8255 168.707 33.8588Z" fill="white"/>
<path d="M168.707 36.3862C168.707 36.3862 168.407 36.6812 167.807 36.981C167.206 37.2903 166.268 37.5092 165.249 37.495C164.229 37.5045 163.286 37.3427 162.676 37.0476C162.062 36.7621 161.743 36.5004 161.757 36.4766C161.776 36.4385 162.133 36.6527 162.743 36.8859C163.348 37.1285 164.244 37.257 165.249 37.2475C166.249 37.257 167.14 37.081 167.735 36.824C168.335 36.5718 168.688 36.3529 168.707 36.3862Z" fill="white"/>
<path d="M168.707 38.9174C168.707 38.9174 168.407 39.2125 167.807 39.5123C167.206 39.8216 166.268 40.0405 165.249 40.0262C164.229 40.0357 163.286 39.8739 162.676 39.5789C162.062 39.2934 161.743 39.0316 161.757 39.0078C161.776 38.9698 162.133 39.1839 162.743 39.4171C163.348 39.6598 164.244 39.7883 165.249 39.7788C166.249 39.7883 167.14 39.6122 167.735 39.3552C168.335 39.103 168.688 38.8841 168.707 38.9174Z" fill="white"/>
<path d="M168.74 26.126C168.74 26.126 168.755 26.2307 168.759 26.4258C168.759 26.64 168.769 26.9207 168.774 27.2824C168.774 28.0486 168.783 29.1288 168.793 30.4756C168.793 33.2214 168.793 37.0617 168.793 41.5349L168.769 41.4636C169.121 41.8395 169.688 42.0774 170.246 42.2154C170.812 42.3582 171.417 42.4153 172.027 42.4153C173.232 42.4106 174.537 42.1108 175.543 41.3541L175.5 41.4493V41.4398C175.514 35.5294 175.523 30.1472 175.533 26.1308V26.1641C175.428 25.9452 175.2 25.7596 174.976 25.6264C174.747 25.4884 174.499 25.3979 174.256 25.317C173.766 25.1695 173.275 25.1029 172.823 25.0743C171.908 25.022 171.113 25.0839 170.484 25.2171C169.855 25.3551 169.398 25.5788 169.121 25.7786C168.983 25.8786 168.893 25.969 168.831 26.0309C168.774 26.0975 168.745 26.1308 168.745 26.1308C168.745 26.1308 168.759 26.088 168.812 26.0166C168.864 25.9452 168.955 25.85 169.088 25.7406C169.36 25.5217 169.822 25.279 170.46 25.1219C171.098 24.9696 171.903 24.8935 172.832 24.9316C173.294 24.9554 173.794 25.0125 174.309 25.16C174.809 25.3218 175.376 25.5312 175.714 26.0975V26.107L175.719 26.1308C175.728 30.1472 175.738 35.5294 175.752 41.4398V41.5112L175.709 41.5445C174.614 42.3677 173.285 42.6533 172.032 42.6628C171.403 42.6628 170.784 42.6057 170.188 42.4534C169.598 42.2963 169.021 42.0774 168.583 41.6111L168.559 41.5873V41.5397C168.597 37.0569 168.631 33.2071 168.655 30.4518C168.674 29.105 168.693 28.0295 168.702 27.2634C168.712 26.9112 168.721 26.6257 168.726 26.4163C168.736 26.226 168.74 26.126 168.745 26.126H168.74Z" fill="white"/>
<path d="M175.623 31.3276C175.623 31.3276 175.323 31.6226 174.723 31.9224C174.123 32.2318 173.185 32.4507 172.165 32.4364C171.146 32.4459 170.203 32.2841 169.593 31.9891C168.978 31.7035 168.659 31.4418 168.674 31.418C168.693 31.3799 169.05 31.5941 169.66 31.8273C170.265 32.07 171.16 32.1984 172.165 32.1889C173.165 32.1984 174.056 32.0224 174.652 31.7654C175.252 31.5132 175.604 31.2943 175.623 31.3276Z" fill="white"/>
<path d="M175.623 33.8588C175.623 33.8588 175.323 34.1539 174.723 34.4537C174.123 34.763 173.185 34.9819 172.165 34.9676C171.146 34.9771 170.203 34.8153 169.593 34.5203C168.978 34.2348 168.659 33.973 168.674 33.9492C168.693 33.9112 169.05 34.1253 169.66 34.3585C170.265 34.6012 171.16 34.7297 172.165 34.7202C173.165 34.7297 174.056 34.5536 174.652 34.2966C175.252 34.0444 175.604 33.8255 175.623 33.8588Z" fill="white"/>
<path d="M175.623 28.7387C175.623 28.7387 175.323 29.0338 174.723 29.3336C174.123 29.6429 173.185 29.8618 172.165 29.8475C171.146 29.857 170.203 29.6952 169.593 29.4002C168.978 29.1147 168.659 28.8529 168.674 28.8291C168.693 28.7911 169.05 29.0052 169.66 29.2384C170.265 29.4811 171.16 29.6096 172.165 29.6001C173.165 29.6096 174.056 29.4335 174.652 29.1765C175.252 28.9243 175.604 28.7054 175.623 28.7387Z" fill="white"/>
<path d="M175.623 26.1264C175.623 26.1264 175.323 26.4215 174.723 26.7213C174.123 27.0306 173.185 27.2495 172.165 27.2352C171.146 27.2447 170.203 27.0829 169.593 26.7879C168.978 26.5024 168.659 26.2406 168.674 26.2168C168.693 26.1788 169.05 26.3929 169.66 26.6261C170.265 26.8688 171.16 26.9973 172.165 26.9877C173.165 26.9973 174.056 26.8212 174.652 26.5642C175.252 26.312 175.604 26.0931 175.623 26.1264Z" fill="white"/>
<path d="M175.623 36.3862C175.623 36.3862 175.323 36.6812 174.723 36.981C174.123 37.2903 173.185 37.5092 172.165 37.495C171.146 37.5045 170.203 37.3427 169.593 37.0476C168.978 36.7621 168.659 36.5004 168.674 36.4766C168.693 36.4385 169.05 36.6527 169.66 36.8859C170.265 37.1285 171.16 37.257 172.165 37.2475C173.165 37.257 174.056 37.081 174.652 36.824C175.252 36.5718 175.604 36.3529 175.623 36.3862Z" fill="white"/>
<path d="M175.623 38.9174C175.623 38.9174 175.323 39.2125 174.723 39.5123C174.123 39.8216 173.185 40.0405 172.165 40.0262C171.146 40.0357 170.203 39.8739 169.593 39.5789C168.978 39.2934 168.659 39.0316 168.674 39.0078C168.693 38.9698 169.05 39.1839 169.66 39.4171C170.265 39.6598 171.16 39.7883 172.165 39.7788C173.165 39.7883 174.056 39.6122 174.652 39.3552C175.252 39.103 175.604 38.8841 175.623 38.9174Z" fill="white"/>
<path d="M105.92 18.1836H44.7907C42.6282 18.1836 40.8751 19.9349 40.8751 22.0953V45.4181C40.8751 47.5784 42.6282 49.3298 44.7907 49.3298H105.92C108.082 49.3298 109.836 47.5784 109.836 45.4181V22.0953C109.836 19.9349 108.082 18.1836 105.92 18.1836Z" fill="#E0E0E0"/>
<path d="M73.0188 32.431V33.6683H71.9137V32.4644C70.8228 32.3977 69.7701 32.0551 69.1652 31.584L69.7701 30.2372C70.3227 30.6465 71.1182 30.9415 71.9137 31.0224V29.1808C70.6895 28.881 69.3176 28.4765 69.3176 26.8966C69.3176 25.7259 70.1655 24.7218 71.9137 24.5267V23.3037H73.0188V24.5077C73.8476 24.5743 74.6527 24.7932 75.2624 25.1787L74.7098 26.5349C74.1477 26.2161 73.5713 26.0257 73.0188 25.9591V27.8341C74.243 28.1196 75.5911 28.5288 75.5911 30.085C75.5911 31.2318 74.7527 32.2264 73.0188 32.4358V32.431ZM71.9137 27.5581V25.9924C71.3278 26.1257 71.0944 26.4445 71.0944 26.8109C71.0944 27.1964 71.4278 27.4058 71.9137 27.5628V27.5581ZM73.8143 30.2182C73.8143 29.8327 73.4951 29.6234 73.0188 29.4568V30.9796C73.5713 30.8606 73.8143 30.5704 73.8143 30.2182Z" fill="#EBEBEB"/>
<path d="M78.311 40.2169V41.1734H77.4584V40.2407C76.6105 40.1884 75.8007 39.9266 75.3291 39.5555L75.8007 38.5133C76.2294 38.8274 76.8439 39.0605 77.4584 39.1176V37.69C76.5104 37.4616 75.4482 37.1428 75.4482 35.9245C75.4482 35.0203 76.1055 34.2399 77.4584 34.0876V33.1406H78.311V34.0733C78.9541 34.1257 79.5781 34.297 80.0449 34.5921L79.6162 35.6437C79.1827 35.3963 78.735 35.2488 78.3063 35.2012V36.6526C79.2542 36.8763 80.2974 37.1903 80.2974 38.3943C80.2974 39.2842 79.6495 40.0504 78.3063 40.2122L78.311 40.2169ZM77.4584 36.4432V35.2297C77.0058 35.3344 76.8248 35.5819 76.8248 35.8626C76.8248 36.1624 77.082 36.3242 77.4584 36.4432ZM78.9303 38.499C78.9303 38.1992 78.6826 38.0374 78.3158 37.9089V39.0891C78.7445 38.9939 78.9303 38.775 78.9303 38.499Z" fill="#EBEBEB"/>
<path d="M47.0438 29.1949H46.2483V28.9902H48.0727V29.1949H47.2772V31.2459H47.039V29.1949H47.0438Z" fill="#263238"/>
<path d="M48.0583 30.3994C48.0583 29.895 48.4251 29.5381 48.9253 29.5381C49.4255 29.5381 49.7875 29.895 49.7875 30.3994C49.7875 30.9039 49.4207 31.2655 48.9253 31.2655C48.4299 31.2655 48.0583 30.9039 48.0583 30.3994ZM49.5541 30.3994C49.5541 30.0044 49.2873 29.738 48.9253 29.738C48.5633 29.738 48.2918 30.0044 48.2918 30.3994C48.2918 30.7944 48.5633 31.0609 48.9253 31.0609C49.2873 31.0609 49.5541 30.7944 49.5541 30.3994Z" fill="#263238"/>
<path d="M51.1451 31.146C51.0546 31.2269 50.9212 31.265 50.7878 31.265C50.4687 31.265 50.2924 31.0842 50.2924 30.7701V29.747H49.9875V29.5518H50.2924V29.1807H50.5211V29.5518H51.0355V29.747H50.5211V30.7606C50.5211 30.9604 50.6258 31.0699 50.8164 31.0699C50.9117 31.0699 51.0022 31.0413 51.0688 30.9842L51.1498 31.1508L51.1451 31.146Z" fill="#263238"/>
<path d="M52.8457 30.1947V31.2464H52.6265V30.9799C52.5217 31.1559 52.3217 31.2606 52.0406 31.2606C51.6548 31.2606 51.4214 31.0608 51.4214 30.7657C51.4214 30.504 51.5881 30.2851 52.0787 30.2851H52.617V30.1804C52.617 29.8901 52.4503 29.7331 52.1359 29.7331C51.9168 29.7331 51.712 29.8092 51.5691 29.9329L51.4643 29.7616C51.6357 29.6189 51.8882 29.5332 52.155 29.5332C52.5932 29.5332 52.8409 29.7521 52.8409 30.1899L52.8457 30.1947ZM52.617 30.7372V30.4612H52.0835C51.7548 30.4612 51.6453 30.5897 51.6453 30.7657C51.6453 30.9608 51.8025 31.0846 52.074 31.0846C52.3455 31.0846 52.5217 30.9608 52.6122 30.7419L52.617 30.7372Z" fill="#263238"/>
<path d="M53.465 28.8574H53.6936V31.2511H53.465V28.8574Z" fill="#263238"/>
<path d="M55.0273 30.1185C55.0273 29.4618 55.5323 28.9717 56.2134 28.9717C56.8946 28.9717 57.3995 29.4571 57.3995 30.1185C57.3995 30.78 56.8946 31.2654 56.2134 31.2654C55.5323 31.2654 55.0273 30.7753 55.0273 30.1185ZM57.1614 30.1185C57.1614 29.5808 56.7565 29.1858 56.2182 29.1858C55.6799 29.1858 55.2655 29.5808 55.2655 30.1185C55.2655 30.6563 55.6704 31.0513 56.2182 31.0513C56.766 31.0513 57.1614 30.6563 57.1614 30.1185Z" fill="#263238"/>
<path d="M58.7428 29.5381V29.7617C58.7428 29.7617 58.7047 29.7617 58.6904 29.7617C58.3331 29.7617 58.1188 29.9854 58.1188 30.3851V31.2512H57.8901V29.5571H58.1093V29.8902C58.2141 29.6666 58.4332 29.5428 58.7428 29.5428V29.5381Z" fill="#263238"/>
<path d="M60.6863 28.8574V31.2511H60.4672V30.918C60.329 31.1464 60.0908 31.2701 59.8098 31.2701C59.3239 31.2701 58.9619 30.918 58.9619 30.404C58.9619 29.8901 59.3239 29.5427 59.8098 29.5427C60.0813 29.5427 60.3147 29.6569 60.4529 29.8758V28.8574H60.6815H60.6863ZM60.4624 30.404C60.4624 30.009 60.1909 29.7426 59.8336 29.7426C59.4764 29.7426 59.2001 30.009 59.2001 30.404C59.2001 30.799 59.4716 31.0655 59.8336 31.0655C60.1956 31.0655 60.4624 30.799 60.4624 30.404Z" fill="#263238"/>
<path d="M62.8012 30.4707H61.3817C61.4055 30.8276 61.6771 31.0608 62.0486 31.0608C62.2534 31.0608 62.4392 30.9846 62.5678 30.8371L62.6964 30.9846C62.544 31.1655 62.3106 31.2606 62.0438 31.2606C61.5151 31.2606 61.1531 30.899 61.1531 30.3945C61.1531 29.8901 61.5056 29.5332 61.9819 29.5332C62.4583 29.5332 62.806 29.8854 62.806 30.3945C62.806 30.4136 62.806 30.4374 62.806 30.4659L62.8012 30.4707ZM61.3817 30.2994H62.5869C62.5583 29.9663 62.3154 29.7331 61.9819 29.7331C61.6485 29.7331 61.4103 29.9663 61.3817 30.2994Z" fill="#263238"/>
<path d="M64.1302 29.5381V29.7617C64.1302 29.7617 64.0921 29.7617 64.0779 29.7617C63.7206 29.7617 63.5062 29.9854 63.5062 30.3851V31.2512H63.2776V29.5571H63.4967V29.8902C63.6015 29.6666 63.8206 29.5428 64.1302 29.5428V29.5381Z" fill="#263238"/>
<path d="M49.3302 34.1113V41.1162H47.7059V35.4105H46.3054V34.1113H49.3302Z" fill="#263238"/>
<path d="M55.7894 39.798V41.121H50.4925V40.0693L53.1981 37.5186C53.8174 36.9285 53.9269 36.5668 53.9269 36.2289C53.9269 35.6769 53.5459 35.3581 52.8075 35.3581C52.2073 35.3581 51.6976 35.5865 51.3547 36.0576L50.1733 35.2962C50.7164 34.5063 51.6976 33.9971 52.96 33.9971C54.5224 33.9971 55.5656 34.7965 55.5656 36.0671C55.5656 36.7476 55.375 37.3663 54.3938 38.28L52.7789 39.8028H55.7942L55.7894 39.798Z" fill="#263238"/>
<path d="M56.4373 37.6136C56.4373 35.3009 57.7186 33.9922 59.443 33.9922C61.1674 33.9922 62.4487 35.3009 62.4487 37.6136C62.4487 39.9264 61.1769 41.235 59.443 41.235C57.7091 41.235 56.4373 39.9264 56.4373 37.6136ZM60.8149 37.6136C60.8149 36.0242 60.2528 35.3627 59.443 35.3627C58.6332 35.3627 58.0806 36.0242 58.0806 37.6136C58.0806 39.203 58.6427 39.8645 59.443 39.8645C60.2432 39.8645 60.8149 39.203 60.8149 37.6136Z" fill="#263238"/>
<path d="M102.805 27.9248H85.6229C84.789 27.9248 84.1129 28.6002 84.1129 29.4333V39.3744C84.1129 40.2076 84.789 40.883 85.6229 40.883H102.805C103.639 40.883 104.315 40.2076 104.315 39.3744V29.4333C104.315 28.6002 103.639 27.9248 102.805 27.9248Z" fill="#F5F5F5"/>
<path d="M89.6957 30.3086H86.4042V31.503H89.6957V30.3086Z" fill="#E0E0E0"/>
<path d="M90.3816 33.9587C90.3816 34.0253 89.3384 34.0824 88.0522 34.0824C86.7661 34.0824 85.7181 34.0253 85.7181 33.9587C85.7181 33.8921 86.7613 33.835 88.0522 33.835C89.3431 33.835 90.3816 33.8921 90.3816 33.9587Z" fill="#E0E0E0"/>
<path d="M93.5731 33.9587C93.5731 34.0253 93.0491 34.0824 92.4061 34.0824C91.763 34.0824 91.239 34.0253 91.239 33.9587C91.239 33.8921 91.763 33.835 92.4061 33.835C93.0491 33.835 93.5731 33.8921 93.5731 33.9587Z" fill="#E0E0E0"/>
<path d="M102.247 33.9587C102.247 34.0253 101.466 34.0824 100.504 34.0824C99.5417 34.0824 98.7605 34.0253 98.7605 33.9587C98.7605 33.8921 99.5417 33.835 100.504 33.835C101.466 33.835 102.247 33.8921 102.247 33.9587Z" fill="#E0E0E0"/>
<path d="M97.9412 33.9587C97.9412 34.0253 97.1886 34.0824 96.2597 34.0824C95.3309 34.0824 94.5782 34.0253 94.5782 33.9587C94.5782 33.8921 95.3309 33.835 96.2597 33.835C97.1886 33.835 97.9412 33.8921 97.9412 33.9587Z" fill="#E0E0E0"/>
<path d="M89.2527 36.862C89.2527 36.9286 88.481 36.9857 87.5283 36.9857C86.5756 36.9857 85.804 36.9286 85.804 36.862C85.804 36.7954 86.5756 36.7383 87.5283 36.7383C88.481 36.7383 89.2527 36.7954 89.2527 36.862Z" fill="#E0E0E0"/>
<path d="M92.1727 38.0993C92.1727 38.1659 90.7484 38.223 88.9907 38.223C87.233 38.223 85.8087 38.1659 85.8087 38.0993C85.8087 38.0327 87.233 37.9756 88.9907 37.9756C90.7484 37.9756 92.1727 38.0327 92.1727 38.0993Z" fill="#E0E0E0"/>
<path d="M102.247 38.0993C102.247 38.1659 101.642 38.223 100.899 38.223C100.156 38.223 99.5513 38.1659 99.5513 38.0993C99.5513 38.0327 100.156 37.9756 100.899 37.9756C101.642 37.9756 102.247 38.0327 102.247 38.0993Z" fill="#E0E0E0"/>
<path d="M118.938 30.2896H118.143V30.085H119.967V30.2896H119.172V32.3406H118.934V30.2896H118.938Z" fill="white"/>
<path d="M119.958 31.4941C119.958 30.9897 120.325 30.6328 120.825 30.6328C121.325 30.6328 121.687 30.9897 121.687 31.4941C121.687 31.9986 121.325 32.3602 120.825 32.3602C120.325 32.3602 119.958 31.9986 119.958 31.4941ZM121.453 31.4941C121.453 31.0992 121.187 30.8327 120.825 30.8327C120.463 30.8327 120.191 31.0992 120.191 31.4941C120.191 31.8891 120.463 32.1556 120.825 32.1556C121.187 32.1556 121.453 31.8891 121.453 31.4941Z" fill="white"/>
<path d="M123.044 32.2359C122.954 32.3168 122.821 32.3549 122.687 32.3549C122.368 32.3549 122.192 32.174 122.192 31.8599V30.8368H121.887V30.6417H122.192V30.2705H122.42V30.6417H122.935V30.8368H122.42V31.8504C122.42 32.0503 122.525 32.1597 122.716 32.1597C122.811 32.1597 122.902 32.1312 122.968 32.0741L123.049 32.2406L123.044 32.2359Z" fill="white"/>
<path d="M124.74 31.2894V32.3411H124.521V32.0746C124.416 32.2507 124.216 32.3554 123.935 32.3554C123.549 32.3554 123.316 32.1555 123.316 31.8605C123.316 31.5987 123.483 31.3798 123.969 31.3798H124.507V31.2751C124.507 30.9848 124.34 30.8278 124.026 30.8278C123.807 30.8278 123.602 30.9039 123.459 31.0277L123.354 30.8563C123.526 30.7136 123.778 30.6279 124.045 30.6279C124.483 30.6279 124.731 30.8468 124.731 31.2846L124.74 31.2894ZM124.512 31.8319V31.5559H123.978C123.649 31.5559 123.545 31.6844 123.545 31.8605C123.545 32.0556 123.702 32.1793 123.973 32.1793C124.245 32.1793 124.421 32.0556 124.512 31.8367V31.8319Z" fill="white"/>
<path d="M125.364 29.9473H125.593V32.3409H125.364V29.9473Z" fill="white"/>
<path d="M128.67 32.3406L128.156 31.6173C128.099 31.622 128.041 31.6268 127.975 31.6268H127.37V32.3406H127.132V30.085H127.975C128.551 30.085 128.899 30.3752 128.899 30.8606C128.899 31.2175 128.713 31.465 128.384 31.5697L128.937 32.3454H128.675L128.67 32.3406ZM128.656 30.8559C128.656 30.4942 128.418 30.2896 127.965 30.2896H127.365V31.4222H127.965C128.418 31.4222 128.656 31.2128 128.656 30.8559Z" fill="white"/>
<path d="M130.89 31.5654H129.47C129.494 31.9223 129.766 32.1555 130.137 32.1555C130.342 32.1555 130.528 32.0794 130.657 31.9318L130.785 32.0794C130.633 32.2602 130.399 32.3554 130.133 32.3554C129.604 32.3554 129.242 31.9937 129.242 31.4893C129.242 30.9848 129.594 30.6279 130.071 30.6279C130.547 30.6279 130.895 30.9801 130.895 31.4893C130.895 31.5083 130.895 31.5321 130.895 31.5606L130.89 31.5654ZM129.47 31.3941H130.676C130.647 31.061 130.404 30.8278 130.071 30.8278C129.737 30.8278 129.499 31.061 129.47 31.3941Z" fill="white"/>
<path d="M132.752 30.6465L132 32.3406H131.762L131.009 30.6465H131.247L131.881 32.0932L132.524 30.6465H132.748H132.752Z" fill="white"/>
<path d="M134.505 31.5654H133.086C133.11 31.9223 133.381 32.1555 133.753 32.1555C133.958 32.1555 134.143 32.0794 134.272 31.9318L134.401 32.0794C134.248 32.2602 134.015 32.3554 133.748 32.3554C133.219 32.3554 132.857 31.9937 132.857 31.4893C132.857 30.9848 133.21 30.6279 133.686 30.6279C134.162 30.6279 134.51 30.9801 134.51 31.4893C134.51 31.5083 134.51 31.5321 134.51 31.5606L134.505 31.5654ZM133.086 31.3941H134.291C134.262 31.061 134.019 30.8278 133.686 30.8278C133.353 30.8278 133.114 31.061 133.086 31.3941Z" fill="white"/>
<path d="M136.539 31.3563V32.3413H136.311V31.3801C136.311 31.0232 136.125 30.8376 135.801 30.8376C135.434 30.8376 135.206 31.0612 135.206 31.4514V32.3413H134.977V30.6472H135.196V30.9613C135.32 30.7567 135.549 30.6377 135.839 30.6377C136.254 30.6377 136.535 30.8756 136.535 31.361L136.539 31.3563Z" fill="white"/>
<path d="M138.688 30.6464V32.3405H138.469V32.0312C138.349 32.2358 138.13 32.3548 137.859 32.3548C137.425 32.3548 137.144 32.1121 137.144 31.6267V30.6416H137.373V31.6029C137.373 31.9645 137.559 32.1501 137.883 32.1501C138.24 32.1501 138.459 31.9217 138.459 31.5362V30.6464H138.688Z" fill="white"/>
<path d="M140.807 31.5654H139.388C139.412 31.9223 139.683 32.1555 140.055 32.1555C140.26 32.1555 140.445 32.0794 140.574 31.9318L140.703 32.0794C140.55 32.2602 140.317 32.3554 140.05 32.3554C139.521 32.3554 139.159 31.9937 139.159 31.4893C139.159 30.9848 139.512 30.6279 139.988 30.6279C140.464 30.6279 140.812 30.9801 140.812 31.4893C140.812 31.5083 140.812 31.5321 140.812 31.5606L140.807 31.5654ZM139.388 31.3941H140.593C140.565 31.061 140.322 30.8278 139.988 30.8278C139.655 30.8278 139.417 31.061 139.388 31.3941Z" fill="white"/>
<path d="M120.81 41.1731V41.9678H120.101V41.1969C119.396 41.1541 118.724 40.9352 118.333 40.6306L118.724 39.7645C119.081 40.0262 119.591 40.2166 120.101 40.2689V39.084C119.31 38.8937 118.434 38.6319 118.434 37.6135C118.434 36.8617 118.981 36.2145 120.101 36.086V35.3008H120.81V36.0717C121.344 36.1145 121.863 36.2573 122.254 36.5048L121.897 37.3756C121.535 37.171 121.163 37.0473 120.81 37.0044V38.2084C121.601 38.394 122.463 38.6557 122.463 39.6551C122.463 40.3927 121.925 41.0303 120.81 41.1684V41.1731ZM120.101 38.0371V37.0282C119.724 37.1139 119.577 37.3185 119.577 37.5517C119.577 37.7991 119.791 37.9371 120.101 38.0323V38.0371ZM121.32 39.7455C121.32 39.498 121.115 39.3648 120.81 39.2553V40.2356C121.168 40.1595 121.32 39.9739 121.32 39.7455Z" fill="white"/>
<path d="M124.783 36.1475V41.1156H123.635V37.0707H122.64V36.1475H124.783Z" fill="white"/>
<path d="M129.409 39.5547C129.409 40.4351 128.761 41.2013 127.341 41.2013C126.65 41.2013 125.926 41.0109 125.445 40.6683L125.898 39.7879C126.274 40.0735 126.793 40.2353 127.313 40.2353C127.889 40.2353 128.241 39.9926 128.241 39.5881C128.241 39.1836 127.984 38.9409 127.084 38.9409H125.812L126.069 36.1475H129.104V37.0707H127.032L126.955 38.0129H127.36C128.832 38.0129 129.413 38.6744 129.413 39.55L129.409 39.5547Z" fill="white"/>
<path d="M131.214 40.4784C131.214 40.6639 131.185 40.7972 131.023 41.1874L130.618 42.2106H129.913L130.228 41.0827C129.994 40.9923 129.842 40.7686 129.842 40.4784C129.842 40.0691 130.142 39.7979 130.533 39.7979C130.923 39.7979 131.214 40.0739 131.214 40.4784Z" fill="white"/>
<path d="M131.643 38.6322C131.643 36.9952 132.552 36.0625 133.772 36.0625C134.991 36.0625 135.901 36.9905 135.901 38.6322C135.901 40.274 135.001 41.202 133.772 41.202C132.543 41.202 131.643 40.274 131.643 38.6322ZM134.744 38.6322C134.744 37.5044 134.348 37.0381 133.772 37.0381C133.195 37.0381 132.805 37.5044 132.805 38.6322C132.805 39.7601 133.2 40.2264 133.772 40.2264C134.343 40.2264 134.744 39.7601 134.744 38.6322Z" fill="white"/>
<path d="M136.458 38.6322C136.458 36.9952 137.368 36.0625 138.588 36.0625C139.807 36.0625 140.717 36.9905 140.717 38.6322C140.717 40.274 139.817 41.202 138.588 41.202C137.359 41.202 136.458 40.274 136.458 38.6322ZM139.559 38.6322C139.559 37.5044 139.164 37.0381 138.588 37.0381C138.011 37.0381 137.621 37.5044 137.621 38.6322C137.621 39.7601 138.016 40.2264 138.588 40.2264C139.159 40.2264 139.559 39.7601 139.559 38.6322Z" fill="white"/>
<path d="M141.279 38.6322C141.279 36.9952 142.189 36.0625 143.408 36.0625C144.628 36.0625 145.538 36.9905 145.538 38.6322C145.538 40.274 144.637 41.202 143.408 41.202C142.179 41.202 141.279 40.274 141.279 38.6322ZM144.38 38.6322C144.38 37.5044 143.985 37.0381 143.408 37.0381C142.832 37.0381 142.441 37.5044 142.441 38.6322C142.441 39.7601 142.837 40.2264 143.408 40.2264C143.98 40.2264 144.38 39.7601 144.38 38.6322Z" fill="white"/>
<path d="M176.781 110.993C176.781 110.993 176.867 110.984 177.033 110.974C177.2 110.974 177.448 110.936 177.772 110.879C178.401 110.736 179.377 110.403 180.273 109.466C180.711 109.004 181.111 108.39 181.359 107.638C181.473 107.262 181.563 106.858 181.578 106.425C181.602 105.996 181.583 105.54 181.587 105.073C181.587 103.194 181.583 101.028 181.578 98.5871C181.573 93.7046 181.563 87.7323 181.559 80.7988C181.559 77.3296 181.554 73.6225 181.549 69.6918C181.549 67.7264 181.549 65.7039 181.549 63.6291C181.549 62.5917 181.549 61.54 181.549 60.474C181.544 59.9458 181.563 59.3986 181.525 58.8751C181.468 58.3469 181.325 57.8282 181.097 57.3428C180.649 56.3672 179.844 55.5487 178.853 55.0824C178.358 54.8444 177.819 54.6921 177.272 54.635C176.724 54.5922 176.143 54.6208 175.576 54.6112C173.289 54.6112 170.955 54.6112 168.569 54.6112C163.801 54.6112 158.842 54.6112 153.702 54.6208C143.427 54.6208 132.452 54.6303 120.901 54.6303C97.7983 54.6303 72.3996 54.635 45.7434 54.6398C44.9336 54.6493 44.119 54.8492 43.4188 55.2489C42.7186 55.6486 42.1136 56.2245 41.704 56.9192C41.28 57.6045 41.0562 58.4087 41.0323 59.2082C41.018 60.0267 41.0323 60.8548 41.0276 61.6733C41.0276 64.9616 41.0276 68.2309 41.0276 71.4716C41.0276 77.9578 41.0276 84.3488 41.0276 90.6304C41.0276 93.7712 41.0276 96.8834 41.0276 99.9671C41.0276 101.509 41.0276 103.041 41.0276 104.569V105.711C41.0276 106.096 41.0228 106.468 41.08 106.829C41.1895 107.557 41.4563 108.271 41.8945 108.866C42.3232 109.466 42.8853 109.97 43.5331 110.308C44.181 110.646 44.9098 110.836 45.6386 110.85C47.1343 110.85 48.6205 110.85 50.0972 110.855C53.0553 110.855 55.98 110.855 58.8667 110.855C81.9694 110.865 102.776 110.874 120.253 110.884C137.725 110.903 151.863 110.912 161.638 110.922C166.521 110.931 170.312 110.941 172.889 110.946C174.175 110.95 175.152 110.955 175.814 110.96C176.471 110.96 176.81 110.974 176.81 110.974C176.81 110.974 176.471 110.984 175.814 110.988C175.152 110.988 174.171 110.993 172.889 111.003C170.312 111.007 166.521 111.017 161.638 111.027C151.863 111.036 137.725 111.05 120.253 111.065C102.781 111.074 81.9741 111.079 58.8667 111.093C55.98 111.093 53.0553 111.093 50.0972 111.093C48.6157 111.093 47.1295 111.093 45.6338 111.093C44.8669 111.074 44.1048 110.879 43.4236 110.522C42.7424 110.16 42.1517 109.632 41.6992 109.009C41.2419 108.381 40.9561 107.638 40.8418 106.867C40.7799 106.482 40.7846 106.087 40.7846 105.711V104.569C40.7846 103.041 40.7846 101.509 40.7846 99.9671C40.7846 96.8834 40.7846 93.7712 40.7846 90.6304C40.7846 84.3488 40.7846 77.9578 40.7846 71.4716C40.7846 68.2261 40.7846 64.9616 40.7846 61.6733C40.7846 60.85 40.7799 60.0315 40.7894 59.1987C40.818 58.3564 41.0466 57.5093 41.4944 56.786C41.9279 56.0531 42.5614 55.4488 43.2997 55.0252C44.0381 54.6017 44.8955 54.3876 45.7481 54.3828C72.4044 54.3828 97.8031 54.3876 120.906 54.3923C132.457 54.3923 143.432 54.4018 153.707 54.4018C158.842 54.4018 163.805 54.4066 168.574 54.4114C170.96 54.4114 173.294 54.4114 175.581 54.4114C176.152 54.4209 176.714 54.3923 177.295 54.4352C177.867 54.497 178.429 54.6541 178.939 54.9015C179.968 55.3917 180.801 56.2387 181.263 57.2524C181.497 57.7568 181.644 58.2945 181.706 58.8418C181.744 59.3938 181.725 59.922 181.73 60.455C181.73 61.521 181.73 62.5727 181.73 63.6101C181.73 65.6849 181.73 67.7074 181.73 69.6728C181.73 73.6035 181.725 77.3106 181.721 80.7797C181.711 87.7133 181.706 93.6855 181.702 98.568C181.702 101.009 181.692 103.175 181.692 105.054C181.687 105.525 181.702 105.973 181.678 106.411C181.663 106.848 181.568 107.258 181.449 107.638C181.197 108.395 180.787 109.014 180.344 109.48C179.439 110.417 178.448 110.746 177.815 110.884C177.491 110.936 177.243 110.969 177.072 110.969C176.905 110.974 176.819 110.974 176.819 110.974L176.781 110.993Z" fill="#E0E0E0"/>
<path d="M88.481 89.6689H83.9081V107.805H88.481V89.6689Z" fill="#EBEBEB"/>
<path d="M95.3308 95.1562H90.7579V107.805H95.3308V95.1562Z" fill="#EBEBEB"/>
<path d="M81.9123 95.1562H77.3394V107.805H81.9123V95.1562Z" fill="#EBEBEB"/>
<path d="M68.4983 106.12H63.9254V107.805H68.4983V106.12Z" fill="#EBEBEB"/>
<path d="M75.3006 103.584H70.7277V107.81H75.3006V103.584Z" fill="#EBEBEB"/>
<path d="M61.9534 106.406H57.3805V107.81H61.9534V106.406Z" fill="#EBEBEB"/>
<path d="M55.0845 106.406H50.5116V107.81H55.0845V106.406Z" fill="#EBEBEB"/>
<path d="M102.543 97.7021H97.9698V107.805H102.543V97.7021Z" fill="#EBEBEB"/>
<path d="M109.755 100.481H105.182V107.81H109.755V100.481Z" fill="#EBEBEB"/>
<path d="M116.971 95.1562H112.398V107.805H116.971V95.1562Z" fill="#EBEBEB"/>
<path d="M124.183 87.2617H119.61V107.81H124.183V87.2617Z" fill="#EBEBEB"/>
<path d="M131.395 81.1797H126.822V107.81H131.395V81.1797Z" fill="#EBEBEB"/>
<path d="M138.607 89.6689H134.034V107.805H138.607V89.6689Z" fill="#EBEBEB"/>
<path d="M145.823 73.3896H141.25V107.805H145.823V73.3896Z" fill="#EBEBEB"/>
<path d="M153.035 89.6689H148.462V107.805H153.035V89.6689Z" fill="#EBEBEB"/>
<path d="M160.247 95.1562H155.674V107.805H160.247V95.1562Z" fill="#EBEBEB"/>
<path d="M167.459 97.5312H162.886V107.805H167.459V97.5312Z" fill="#EBEBEB"/>
<path d="M174.675 100.481H170.103V107.81H174.675V100.481Z" fill="#EBEBEB"/>
<path d="M54.2651 107.805C54.2651 107.805 54.4176 107.796 54.7129 107.791C55.0178 107.791 55.456 107.786 56.0324 107.777C57.1994 107.772 58.9047 107.763 61.1054 107.753C61.658 107.753 62.2391 107.753 62.8489 107.748C63.4633 107.748 64.0969 107.739 64.759 107.653C66.0785 107.482 67.4932 107.044 68.8032 106.211C69.4605 105.797 70.075 105.269 70.6085 104.636C71.1277 103.998 71.4802 103.204 71.8565 102.409C72.5711 100.791 73.2189 99.035 73.881 97.1838C74.5288 95.3279 75.2052 93.3816 75.915 91.3543C76.2722 90.3407 76.6343 89.3081 77.0535 88.2707C77.4869 87.238 77.9776 86.2006 78.6159 85.225C79.2589 84.2543 80.0306 83.3406 80.9547 82.5601C81.8741 81.7797 82.9458 81.142 84.1129 80.7137C85.2799 80.2807 86.547 80.0761 87.8284 80.0618C89.105 80.0618 90.4054 80.1712 91.6725 80.5329C92.3108 80.6994 92.9253 80.9564 93.5254 81.2467C94.1066 81.5655 94.6877 81.9177 95.1926 82.365C96.2358 83.2311 97.0409 84.3637 97.6744 85.5772C98.3175 86.8002 98.6843 88.1422 99.113 89.4604C99.5322 90.7833 99.9466 92.1205 100.413 93.4577C101.352 96.1131 102.424 98.8113 104.057 101.219C104.877 102.414 105.858 103.532 107.101 104.303C107.711 104.698 108.406 104.96 109.121 105.102C109.478 105.188 109.845 105.193 110.212 105.212C110.583 105.193 110.955 105.212 111.322 105.155C112.327 105.064 113.318 104.822 114.194 104.346C115.071 103.875 115.78 103.151 116.361 102.347C116.938 101.538 117.419 100.663 117.91 99.7964C118.4 98.9351 118.829 98.0452 119.219 97.1458C120.782 93.5434 121.754 89.7887 123.211 86.3243C123.902 84.5826 124.612 82.8647 125.512 81.2705C126.398 79.6716 127.508 78.2201 128.789 76.9971C129.432 76.3928 130.109 75.8122 130.871 75.3791C131.614 74.9128 132.428 74.6035 133.238 74.3227C134.877 73.8135 136.573 73.6517 138.207 73.7183C139.845 73.7897 141.436 74.099 142.908 74.6368C144.38 75.1793 145.709 75.993 146.814 76.9828C149.048 78.953 150.668 81.261 152.516 83.0931C154.34 84.9586 156.603 86.0245 158.699 86.7145C160.819 87.3998 162.838 87.7044 164.639 87.8471C168.283 87.8614 171.098 87.8709 173.008 87.8757C173.956 87.8804 174.675 87.89 175.166 87.89C175.652 87.8947 175.9 87.9042 175.9 87.9042C175.9 87.9042 175.652 87.9138 175.166 87.9185C174.675 87.9185 173.951 87.928 173.008 87.9328C171.098 87.9375 168.288 87.9471 164.639 87.9613C162.829 87.8281 160.795 87.533 158.661 86.8525C156.546 86.1625 154.255 85.0966 152.402 83.2121C150.534 81.3752 148.905 79.072 146.69 77.1256C145.595 76.1501 144.289 75.3553 142.841 74.8224C141.389 74.2941 139.817 73.9943 138.202 73.9277C136.587 73.8658 134.915 74.0229 133.31 74.5273C131.7 75.0317 130.194 75.9169 128.951 77.1542C127.689 78.3629 126.598 79.7953 125.717 81.38C124.831 82.9599 124.121 84.6683 123.435 86.41C121.982 89.8649 121.02 93.61 119.443 97.2409C119.048 98.1451 118.615 99.0445 118.119 99.9106C117.628 100.777 117.147 101.657 116.557 102.485C115.966 103.304 115.223 104.065 114.308 104.555C113.394 105.05 112.37 105.302 111.341 105.393C110.964 105.445 110.583 105.431 110.207 105.45C109.826 105.431 109.44 105.426 109.069 105.336C108.325 105.188 107.597 104.912 106.963 104.503C105.682 103.699 104.677 102.557 103.848 101.348C102.195 98.9065 101.118 96.194 100.18 93.5243C99.7132 92.1871 99.294 90.8452 98.8796 89.5222C98.4508 88.1993 98.0841 86.8716 97.4601 85.6771C96.836 84.4827 96.0501 83.3786 95.0355 82.5363C94.5448 82.0985 93.978 81.7607 93.4111 81.4466C92.8252 81.1658 92.2298 80.9088 91.6058 80.747C90.3673 80.3901 89.0812 80.2759 87.8236 80.2807C86.5708 80.295 85.3276 80.4901 84.1843 80.9136C81.8741 81.7464 80.0401 83.4262 78.7826 85.3345C77.5155 87.2618 76.8153 89.4033 76.0912 91.4162C75.3767 93.4435 74.6956 95.385 74.043 97.2409C73.3761 99.0921 72.7187 100.848 71.9994 102.471C71.6231 103.27 71.2659 104.07 70.7228 104.731C70.175 105.374 69.551 105.911 68.8794 106.325C67.5409 107.168 66.1071 107.601 64.7733 107.767C64.1064 107.853 63.4586 107.863 62.8489 107.853C62.2391 107.853 61.658 107.853 61.1054 107.848C58.9095 107.839 57.1994 107.829 56.0324 107.824C55.456 107.82 55.0178 107.815 54.7129 107.81C54.4176 107.81 54.2651 107.796 54.2651 107.796V107.805Z" fill="#7B4DD3"/>
<path d="M98.5699 65.6953H72.8616C72.4567 65.6953 72.1328 66.0237 72.1328 66.4234V75.2604C72.1328 75.6649 72.4615 75.9885 72.8616 75.9885H85.8754C86.0802 75.9885 86.2755 76.0742 86.4136 76.2265C86.8185 76.6786 87.3663 77.2639 87.7664 77.6922C88.057 78.0015 88.5524 78.0015 88.8382 77.6827L90.1625 76.2265C90.3006 76.0742 90.4959 75.9885 90.7007 75.9885H98.5652C98.9701 75.9885 99.294 75.6602 99.294 75.2604V66.4234C99.294 66.0189 98.9653 65.6953 98.5652 65.6953H98.5699Z" fill="#7B4DD3"/>
<path d="M70.3847 90.8545H48.954C48.7158 90.8545 48.5205 91.0496 48.5205 91.2875V96.5412C48.5205 96.7792 48.7158 96.9743 48.954 96.9743H56.6946C56.8184 96.9743 56.9328 97.0266 57.0137 97.117C57.2567 97.3835 57.5806 97.7357 57.8187 97.9879C57.9902 98.1735 58.2856 98.1687 58.4571 97.9879L59.243 97.1218C59.324 97.0314 59.4431 96.979 59.5622 96.979H70.38C70.6181 96.979 70.8134 96.7839 70.8134 96.546V91.2923C70.8134 91.0544 70.6181 90.8592 70.38 90.8592L70.3847 90.8545Z" fill="#F5F5F5"/>
<path d="M89.1767 80.0911C89.1767 80.6432 88.7289 81.0905 88.1764 81.0905C87.6238 81.0905 87.176 80.6432 87.176 80.0911C87.176 79.5391 87.6238 79.0918 88.1764 79.0918C88.7289 79.0918 89.1767 79.5391 89.1767 80.0911Z" fill="#7B4DD3"/>
<path d="M88.1714 81.0995C87.614 81.0995 87.1567 80.6474 87.1567 80.0859C87.1567 79.5243 87.6093 79.0723 88.1714 79.0723C88.7334 79.0723 89.186 79.5243 89.186 80.0859C89.186 80.6474 88.7334 81.0995 88.1714 81.0995ZM88.1714 79.1008C87.6236 79.1008 87.1806 79.5434 87.1806 80.0906C87.1806 80.6379 87.6236 81.0805 88.1714 81.0805C88.7192 81.0805 89.1621 80.6379 89.1621 80.0906C89.1621 79.5434 88.7192 79.1008 88.1714 79.1008Z" fill="#263238"/>
<path d="M78.835 72.4956V72.9857H78.3967V72.5098C77.9633 72.4813 77.5488 72.3481 77.3059 72.1625L77.5441 71.6295C77.7632 71.7913 78.0776 71.9102 78.392 71.9388V71.2107C77.9061 71.0917 77.3631 70.9299 77.3631 70.3065C77.3631 69.8449 77.7013 69.4452 78.392 69.3643V68.8789H78.8302V69.3548C79.1589 69.3833 79.478 69.469 79.7162 69.6213L79.4971 70.159C79.2732 70.0305 79.0446 69.9591 78.8254 69.9306V70.673C79.3113 70.7872 79.8448 70.949 79.8448 71.5629C79.8448 72.0197 79.5114 72.4099 78.8254 72.4956H78.835ZM78.3967 70.5635V69.9449C78.1633 69.9972 78.0728 70.1257 78.0728 70.2685C78.0728 70.4207 78.2062 70.5064 78.3967 70.5635ZM79.1494 71.6152C79.1494 71.4629 79.0208 71.3773 78.835 71.3154V71.9198C79.0541 71.8722 79.1494 71.758 79.1494 71.62V71.6152Z" fill="white"/>
<path d="M81.2833 69.3975V72.4573H80.5736V69.9638H79.9591V69.3975H81.2786H81.2833Z" fill="white"/>
<path d="M84.1319 71.496C84.1319 72.0385 83.7317 72.5096 82.86 72.5096C82.4361 72.5096 81.9883 72.3906 81.693 72.1812L81.974 71.6387C82.2074 71.8148 82.5266 71.9147 82.8457 71.9147C83.1982 71.9147 83.4174 71.7672 83.4174 71.515C83.4174 71.2628 83.2602 71.1153 82.7028 71.1153H81.9216L82.0788 69.3926H83.9461V69.9589H82.6695L82.6219 70.5394H82.8696C83.7746 70.5394 84.1366 70.9439 84.1366 71.4864L84.1319 71.496Z" fill="white"/>
<path d="M85.2466 72.0672C85.2466 72.1814 85.2275 72.2623 85.1275 72.505L84.8798 73.1332H84.4463L84.6369 72.4384C84.494 72.3813 84.3987 72.248 84.3987 72.0672C84.3987 71.815 84.5845 71.6484 84.8226 71.6484C85.0608 71.6484 85.2418 71.8198 85.2418 72.0672H85.2466Z" fill="white"/>
<path d="M85.5085 70.9304C85.5085 69.9215 86.0706 69.3457 86.8233 69.3457C87.5759 69.3457 88.138 69.9168 88.138 70.9304C88.138 71.944 87.5806 72.515 86.8233 72.515C86.0659 72.515 85.5085 71.944 85.5085 70.9304ZM87.4187 70.9304C87.4187 70.2356 87.1758 69.9453 86.8185 69.9453C86.4612 69.9453 86.2231 70.2356 86.2231 70.9304C86.2231 71.6252 86.466 71.9154 86.8185 71.9154C87.171 71.9154 87.4187 71.6252 87.4187 70.9304Z" fill="white"/>
<path d="M88.481 70.9304C88.481 69.9215 89.043 69.3457 89.7957 69.3457C90.5483 69.3457 91.1104 69.9168 91.1104 70.9304C91.1104 71.944 90.5531 72.515 89.7957 72.515C89.0383 72.515 88.481 71.944 88.481 70.9304ZM90.3911 70.9304C90.3911 70.2356 90.1482 69.9453 89.7909 69.9453C89.4336 69.9453 89.1955 70.2356 89.1955 70.9304C89.1955 71.6252 89.4384 71.9154 89.7909 71.9154C90.1434 71.9154 90.3911 71.6252 90.3911 70.9304Z" fill="white"/>
<path d="M91.4486 70.9304C91.4486 69.9215 92.0107 69.3457 92.7633 69.3457C93.5159 69.3457 94.078 69.9168 94.078 70.9304C94.078 71.944 93.5207 72.515 92.7633 72.515C92.0059 72.515 91.4486 71.944 91.4486 70.9304ZM93.3588 70.9304C93.3588 70.2356 93.1158 69.9453 92.7586 69.9453C92.4013 69.9453 92.1631 70.2356 92.1631 70.9304C92.1631 71.6252 92.4061 71.9154 92.7586 71.9154C93.1111 71.9154 93.3588 71.6252 93.3588 70.9304Z" fill="white"/>
<path d="M34.6114 0H186.389C187.961 0 189.233 1.27535 189.233 2.84099V8.8656H31.7676V2.84099C31.7676 1.27059 33.0442 0 34.6114 0Z" fill="#263238"/>
<path d="M37.474 5.81975C38.1738 5.81975 38.7411 5.25302 38.7411 4.55392C38.7411 3.85482 38.1738 3.28809 37.474 3.28809C36.7742 3.28809 36.2069 3.85482 36.2069 4.55392C36.2069 5.25302 36.7742 5.81975 37.474 5.81975Z" fill="#F5F5F5"/>
<path d="M41.423 5.81975C42.1227 5.81975 42.69 5.25302 42.69 4.55392C42.69 3.85482 42.1227 3.28809 41.423 3.28809C40.7232 3.28809 40.1559 3.85482 40.1559 4.55392C40.1559 5.25302 40.7232 5.81975 41.423 5.81975Z" fill="#F5F5F5"/>
<path d="M45.367 5.81975C46.0668 5.81975 46.6341 5.25302 46.6341 4.55392C46.6341 3.85482 46.0668 3.28809 45.367 3.28809C44.6673 3.28809 44.1 3.85482 44.1 4.55392C44.1 5.25302 44.6673 5.81975 45.367 5.81975Z" fill="#F5F5F5"/>
<path d="M201.417 195.98C205.852 196.019 209.682 192.902 210.539 188.557C212.054 180.876 214.007 170.131 214.064 158.063C214.103 150.663 212.445 141.293 210.154 134.254C206.805 123.975 199.645 114.919 189.237 111.955C175.723 108.1 170.836 109.58 161.252 114.601C150.83 120.064 148.01 130.305 137.159 134.864C126.627 139.289 113.923 137.776 104.319 143.962C95.8739 149.406 91.7535 159.861 91.42 169.898C91.2057 176.265 91.7821 180.819 92.9634 185.759C94.2686 191.236 99.2226 195.933 104.858 195.98H201.417Z" fill="#7B4DD3"/>
<g opacity="0.4">
<path d="M201.417 195.98C205.852 196.019 209.682 192.902 210.539 188.557C212.054 180.876 214.007 170.131 214.064 158.063C214.103 150.663 212.445 141.293 210.154 134.254C206.805 123.975 199.645 114.919 189.237 111.955C175.723 108.1 170.836 109.58 161.252 114.601C150.83 120.064 148.01 130.305 137.159 134.864C126.627 139.289 113.923 137.776 104.319 143.962C95.8739 149.406 91.7535 159.861 91.42 169.898C91.2057 176.265 91.7821 180.819 92.9634 185.759C94.2686 191.236 99.2226 195.933 104.858 195.98H201.417Z" fill="black"/>
</g>
<path d="M194.468 113.787C194.468 113.787 194.506 113.849 194.568 113.977C194.634 114.12 194.725 114.311 194.844 114.553C195.087 115.077 195.43 115.819 195.873 116.776C196.097 117.261 196.344 117.799 196.611 118.384C196.873 118.974 197.106 119.64 197.388 120.34C197.659 121.044 197.95 121.801 198.259 122.6C198.588 123.395 198.859 124.256 199.145 125.165C199.436 126.074 199.736 127.021 200.055 128.011C200.222 128.501 200.35 129.015 200.484 129.539C200.617 130.062 200.755 130.595 200.893 131.138C201.032 131.68 201.174 132.232 201.317 132.789C201.389 133.07 201.46 133.35 201.536 133.636C201.594 133.921 201.656 134.212 201.713 134.507C201.946 135.677 202.189 136.877 202.437 138.114C203.299 143.068 203.932 148.579 204.104 154.384C204.242 160.195 203.942 165.724 203.461 170.731C203.161 173.229 202.918 175.608 202.532 177.812C202.356 178.916 202.203 179.986 202.018 181.005C201.822 182.023 201.632 183.004 201.451 183.936C201.113 185.806 200.698 187.477 200.365 188.952C200.193 189.685 200.036 190.37 199.888 191.003C199.722 191.626 199.569 192.197 199.431 192.711C199.155 193.725 198.94 194.52 198.793 195.077C198.721 195.333 198.664 195.538 198.621 195.69C198.583 195.828 198.559 195.9 198.555 195.895C198.555 195.895 198.564 195.824 198.597 195.681C198.636 195.529 198.683 195.324 198.745 195.062C198.883 194.505 199.083 193.706 199.336 192.688C199.464 192.169 199.612 191.598 199.769 190.974C199.907 190.342 200.06 189.656 200.222 188.919C200.541 187.443 200.941 185.773 201.265 183.898C201.441 182.965 201.622 181.985 201.813 180.967C201.994 179.944 202.137 178.878 202.308 177.774C202.68 175.57 202.913 173.196 203.208 170.702C203.68 165.705 203.966 160.18 203.828 154.389C203.656 148.598 203.032 143.101 202.184 138.157C201.941 136.924 201.703 135.725 201.475 134.559C201.417 134.269 201.355 133.979 201.298 133.693C201.227 133.408 201.155 133.127 201.084 132.846C200.941 132.289 200.803 131.737 200.665 131.195C200.527 130.652 200.393 130.124 200.26 129.601C200.131 129.077 200.003 128.563 199.836 128.073C199.526 127.083 199.231 126.136 198.945 125.227C198.664 124.318 198.402 123.452 198.083 122.662C197.783 121.863 197.497 121.106 197.235 120.402C196.964 119.698 196.74 119.031 196.482 118.436C196.22 117.846 195.982 117.309 195.768 116.818C195.344 115.857 195.015 115.101 194.787 114.577C194.682 114.33 194.601 114.134 194.539 113.992C194.482 113.858 194.458 113.792 194.463 113.787H194.468Z" fill="#263238"/>
<path d="M105.672 195.905L96.6598 210L79.0446 198.884C80.2116 197.266 91.4581 199.645 91.4581 199.645L96.8646 190.375L105.677 195.9L105.672 195.905Z" fill="#455A64"/>
<g opacity="0.6">
<path d="M97.3838 202.319C97.6649 202.629 97.6601 203.157 97.3648 203.452C97.0694 203.747 96.5264 203.742 96.2406 203.442C95.9548 203.138 95.9405 202.5 96.2692 202.243C96.5978 201.986 97.2314 202.02 97.4362 202.386" fill="white"/>
</g>
<g opacity="0.6">
<path d="M96.6598 210L97.5124 208.544L80.3069 198.431C80.3069 198.431 79.3065 198.279 79.0493 198.883L96.6645 210H96.6598Z" fill="white"/>
</g>
<path d="M91.2247 199.379C91.1723 199.464 91.5772 199.778 91.8249 200.321C92.0869 200.859 92.0726 201.368 92.1726 201.382C92.2632 201.415 92.4585 200.82 92.1488 200.169C91.844 199.512 91.2581 199.288 91.2247 199.379Z" fill="#263238"/>
<path d="M88.8953 198.974C88.8239 199.046 89.1049 199.426 89.1669 199.974C89.2431 200.521 89.0716 200.959 89.1573 201.011C89.2288 201.078 89.6051 200.611 89.5146 199.931C89.4288 199.25 88.9477 198.893 88.8953 198.974Z" fill="#263238"/>
<path d="M86.4517 200.52C86.5184 200.587 86.909 200.235 86.9852 199.626C87.0662 199.017 86.7804 198.574 86.6946 198.622C86.5993 198.66 86.7041 199.079 86.6327 199.578C86.5755 200.078 86.3707 200.459 86.4517 200.52Z" fill="#263238"/>
<path d="M92.6918 197.404C92.6775 197.503 93.1491 197.637 93.6111 197.975C94.0827 198.303 94.359 198.707 94.4495 198.66C94.54 198.631 94.3685 198.079 93.8159 197.684C93.2634 197.289 92.687 197.308 92.687 197.399L92.6918 197.404Z" fill="#263238"/>
<path d="M94.4305 195.576C94.4066 195.609 94.7115 195.881 95.3165 196.128C95.6166 196.252 95.9929 196.366 96.4168 196.428C96.6312 196.461 96.8598 196.475 97.0932 196.48C97.2075 196.48 97.3362 196.49 97.4886 196.442C97.641 196.414 97.8411 196.218 97.8173 196.009C97.8173 195.819 97.6887 195.657 97.5648 195.576C97.4362 195.49 97.3171 195.447 97.2028 195.414C96.9789 195.338 96.7503 195.286 96.5359 195.257C96.1024 195.2 95.7071 195.219 95.3831 195.276C94.7353 195.395 94.3923 195.628 94.4114 195.666C94.4305 195.719 94.802 195.576 95.4165 195.528C95.7213 195.505 96.0881 195.509 96.4835 195.581C96.6788 195.619 96.8836 195.671 97.0885 195.743C97.3076 195.809 97.4648 195.909 97.46 196.023C97.46 196.066 97.4505 196.08 97.379 196.109C97.3076 196.133 97.198 196.138 97.0885 196.138C96.8693 196.138 96.655 196.128 96.4549 196.109C96.05 196.066 95.6928 195.985 95.3974 195.9C94.802 195.723 94.459 195.538 94.4305 195.585V195.576Z" fill="#263238"/>
<path d="M94.4686 195.771C94.4924 195.805 94.8544 195.605 95.2403 195.067C95.4308 194.801 95.6118 194.449 95.7309 194.025C95.7881 193.816 95.8309 193.587 95.8452 193.349C95.85 193.111 95.8738 192.797 95.5642 192.55C95.3927 192.436 95.1641 192.478 95.0402 192.564C94.9068 192.645 94.8306 192.74 94.7449 192.831C94.5829 193.016 94.4591 193.221 94.3686 193.425C94.1876 193.835 94.1447 194.244 94.1685 194.572C94.2257 195.243 94.5162 195.576 94.5448 195.548C94.602 195.524 94.4067 195.167 94.421 194.563C94.4257 194.263 94.4924 193.906 94.6639 193.559C94.7496 193.383 94.8592 193.211 95.0021 193.059C95.1498 192.888 95.3117 192.783 95.3736 192.845C95.4642 192.897 95.5213 193.135 95.4975 193.33C95.488 193.544 95.4594 193.754 95.4118 193.944C95.3213 194.33 95.1783 194.667 95.0259 194.929C94.7258 195.462 94.4305 195.724 94.4686 195.767V195.771Z" fill="#263238"/>
<path d="M118.281 152.014L112.879 167.847L93.1252 161.237C93.8731 159.39 105.363 159.024 105.363 159.024L108.406 148.735L118.281 152.009V152.014Z" fill="#455A64"/>
<g opacity="0.6">
<path d="M111.76 160.213C112.108 160.446 112.227 160.965 112.007 161.322C111.788 161.679 111.264 161.803 110.912 161.579C110.559 161.351 110.397 160.737 110.655 160.404C110.912 160.075 111.536 159.961 111.822 160.261" fill="white"/>
</g>
<g opacity="0.6">
<path d="M112.879 167.846L113.36 166.228L94.2399 160.494C94.2399 160.494 93.23 160.58 93.1252 161.237L112.879 167.846Z" fill="white"/>
</g>
<path d="M105.077 158.819C105.048 158.914 105.515 159.124 105.886 159.59C106.268 160.047 106.372 160.547 106.477 160.542C106.572 160.552 106.62 159.928 106.163 159.371C105.71 158.81 105.086 158.729 105.077 158.824V158.819Z" fill="#263238"/>
<path d="M102.719 158.981C102.666 159.067 103.028 159.371 103.219 159.89C103.424 160.399 103.362 160.87 103.457 160.899C103.543 160.946 103.8 160.404 103.548 159.761C103.305 159.119 102.752 158.89 102.719 158.981Z" fill="#263238"/>
<path d="M100.709 161.066C100.79 161.118 101.085 160.68 101.014 160.066C100.947 159.457 100.561 159.096 100.494 159.162C100.413 159.224 100.613 159.605 100.661 160.104C100.723 160.604 100.613 161.023 100.709 161.061V161.066Z" fill="#263238"/>
<path d="M106.029 156.549C106.039 156.649 106.53 156.663 107.058 156.887C107.597 157.096 107.959 157.42 108.035 157.353C108.116 157.301 107.82 156.806 107.187 156.558C106.558 156.306 106.001 156.458 106.025 156.549H106.029Z" fill="#263238"/>
<path d="M107.287 154.365C107.273 154.403 107.635 154.593 108.278 154.693C108.597 154.741 108.987 154.765 109.421 154.722C109.635 154.703 109.859 154.665 110.088 154.612C110.197 154.584 110.326 154.56 110.464 154.479C110.607 154.412 110.75 154.179 110.678 153.979C110.626 153.794 110.469 153.67 110.331 153.618C110.188 153.565 110.059 153.556 109.945 153.546C109.707 153.527 109.478 153.532 109.259 153.551C108.825 153.594 108.444 153.713 108.144 153.846C107.544 154.117 107.268 154.427 107.292 154.455C107.325 154.503 107.649 154.274 108.235 154.079C108.525 153.984 108.883 153.903 109.283 153.879C109.483 153.87 109.692 153.87 109.912 153.894C110.14 153.908 110.316 153.965 110.34 154.079C110.35 154.122 110.345 154.136 110.283 154.184C110.221 154.227 110.116 154.251 110.007 154.279C109.792 154.336 109.583 154.374 109.383 154.403C108.983 154.46 108.611 154.465 108.302 154.45C107.682 154.417 107.301 154.322 107.287 154.374V154.365Z" fill="#263238"/>
<path d="M107.368 154.546C107.396 154.574 107.706 154.289 107.949 153.68C108.068 153.375 108.163 152.99 108.178 152.552C108.182 152.333 108.168 152.104 108.125 151.867C108.073 151.633 108.02 151.324 107.663 151.157C107.468 151.086 107.258 151.181 107.158 151.295C107.049 151.405 106.996 151.519 106.934 151.624C106.82 151.843 106.749 152.071 106.711 152.29C106.63 152.733 106.687 153.137 106.792 153.451C107.006 154.094 107.368 154.341 107.387 154.313C107.435 154.274 107.163 153.975 107.03 153.385C106.963 153.094 106.944 152.733 107.03 152.352C107.073 152.162 107.139 151.971 107.239 151.786C107.339 151.586 107.477 151.443 107.549 151.491C107.649 151.524 107.763 151.738 107.787 151.928C107.83 152.138 107.849 152.347 107.854 152.547C107.854 152.947 107.797 153.304 107.716 153.599C107.549 154.189 107.325 154.512 107.373 154.546H107.368Z" fill="#263238"/>
<path d="M151.006 147.498C151.006 147.498 136.139 123.661 132.062 117.056C127.336 109.409 117.652 110.38 115.323 117.285C115.847 115.733 113.518 122.567 105.672 148.088L118.886 151.867L125.317 138.718L130.761 154.289L151.006 147.498Z" fill="#263238"/>
<path d="M153.802 146.247H126.479C122.135 146.247 118.048 148.117 115.218 151.306C114.261 152.381 113.584 153.68 113.16 155.056L93.1635 192.345L105.949 199.398L129.832 165.335L143.184 165.492L172.884 146.966L153.802 146.247Z" fill="#263238"/>
<path d="M126.669 158.063C126.693 158.044 126.979 158.387 127.37 158.991C127.76 159.596 128.241 160.471 128.651 161.494C129.061 162.517 129.318 163.484 129.451 164.193C129.585 164.902 129.613 165.344 129.585 165.349C129.509 165.363 129.237 163.602 128.422 161.59C127.622 159.567 126.603 158.106 126.669 158.063Z" fill="#455A64"/>
<path d="M98.4365 124.399L109.564 146.252H144.651L143.232 143.396L133.067 143.096L124.788 124.675C124.269 123.524 123.125 122.781 121.858 122.781H99.4321C98.5985 122.781 98.0602 123.662 98.4365 124.399Z" fill="#E0E0E0"/>
<path d="M116.385 134.064C116.385 134.854 115.742 135.497 114.951 135.497C114.161 135.497 113.518 134.854 113.518 134.064C113.518 133.274 114.161 132.632 114.951 132.632C115.742 132.632 116.385 133.274 116.385 134.064Z" fill="#263238"/>
<path d="M149.039 120.939L143.627 139.432L123.602 141.578V145.128L153.026 145.533L157.032 121.453L149.039 120.939Z" fill="#FFBE9D"/>
<path d="M187.513 108.809C186.346 103.537 178.458 101.528 174.909 101.519C169.95 101.509 170.398 101.205 165.53 102.08L164.887 102.061C150.072 101.462 148.367 121.791 148.367 121.791L155.122 122.343L153.34 136.348L148.167 146.261L176.619 146.213L178.21 123.071L190.123 122.757C190.123 122.757 188.699 114.144 187.518 108.809H187.513Z" fill="#7B4DD3"/>
<path d="M155.931 113.206C156.008 113.215 155.507 118.15 154.812 124.227C154.116 130.309 153.497 135.23 153.421 135.22C153.345 135.211 153.845 130.276 154.54 124.194C155.231 118.117 155.855 113.192 155.931 113.201V113.206Z" fill="#263238"/>
<g opacity="0.2">
<path d="M177.681 113.206C176.466 119.002 174.885 124.955 173.675 130.747C173.418 131.979 173.142 133.255 172.389 134.264C171.917 134.892 171.289 135.382 170.66 135.853C168.269 137.647 165.749 139.322 162.938 140.345C166.997 140.003 171.022 139.303 174.961 138.256C175.628 138.08 176.338 137.861 176.767 137.323C177.148 136.848 177.233 136.21 177.305 135.601C178.176 128.172 177.924 120.677 177.686 113.201" fill="black"/>
</g>
<path d="M138.369 138.989L147.19 137.928L153.407 142.001L177.176 136.31L177.872 123.057L188.542 122.795L188.294 138.347C188.189 143.353 184.021 147.317 179.01 147.179L144.199 146.218L142.722 143.258L135.253 143.034L138.373 138.989H138.369Z" fill="#FFBE9D"/>
<path d="M177.176 136.309C177.176 136.309 177.024 136.367 176.729 136.443C176.409 136.524 175.976 136.638 175.433 136.781C174.28 137.066 172.656 137.471 170.665 137.965C166.611 138.946 161.047 140.293 154.902 141.782C154.407 141.901 153.921 142.015 153.435 142.134L153.378 142.148L153.33 142.115C151.135 140.673 149.039 139.298 147.119 138.037L147.205 138.056C143.713 138.46 140.693 138.808 138.378 139.074L138.435 139.041C137.449 140.293 136.663 141.292 136.106 141.996C135.844 142.32 135.634 142.581 135.477 142.772C135.334 142.948 135.253 143.034 135.248 143.029C135.244 143.024 135.306 142.924 135.439 142.743C135.587 142.543 135.782 142.277 136.03 141.939C136.573 141.22 137.34 140.207 138.297 138.936L138.321 138.908H138.359C140.669 138.613 143.689 138.237 147.176 137.804H147.224L147.262 137.823C149.186 139.079 151.282 140.45 153.483 141.887L153.373 141.868C153.854 141.753 154.345 141.634 154.84 141.516C160.99 140.059 166.559 138.741 170.622 137.78C172.627 137.318 174.256 136.942 175.414 136.676C175.962 136.557 176.395 136.462 176.719 136.39C177.019 136.328 177.176 136.3 177.176 136.309Z" fill="#EB996E"/>
<path d="M143.489 141.516C143.489 141.592 141.955 141.654 140.064 141.654C139.85 141.654 139.64 141.654 139.435 141.654L139.521 141.621C138.297 142.644 137.344 143.381 137.301 143.329C137.259 143.277 138.14 142.454 139.345 141.416L139.383 141.383H139.435C139.64 141.383 139.85 141.383 140.064 141.383C141.955 141.383 143.489 141.445 143.489 141.521V141.516Z" fill="#EB996E"/>
<path d="M181.33 138.523C181.258 138.565 180.801 137.452 179.596 136.719C178.41 135.958 177.21 136.024 177.219 135.939C177.219 135.905 177.51 135.839 177.986 135.877C178.462 135.915 179.12 136.091 179.744 136.481C180.368 136.876 180.811 137.39 181.049 137.804C181.292 138.218 181.354 138.508 181.325 138.523H181.33Z" fill="#EB996E"/>
<path d="M190.118 122.867C189.461 122.89 188.585 122.924 187.522 122.962C185.326 123.028 182.297 123.105 178.948 123.171C178.581 123.176 178.215 123.185 177.872 123.19H177.738L177.734 123.062C177.614 119.954 177.667 117.194 177.729 115.21C177.757 114.215 177.795 113.42 177.829 112.868C177.862 112.316 177.891 112.017 177.91 112.017C177.929 112.017 177.934 112.321 177.934 112.873C177.934 113.468 177.924 114.258 177.915 115.214C177.905 117.199 177.881 119.959 178.01 123.047L177.872 122.919C178.215 122.914 178.581 122.905 178.948 122.895C182.297 122.829 185.326 122.786 187.522 122.767C188.585 122.767 189.461 122.762 190.123 122.757C190.738 122.757 189.171 122.829 190.123 122.867H190.118Z" fill="#263238"/>
<path d="M171.784 122.952C171.784 122.952 171.679 123.204 171.446 123.637C171.332 123.856 171.184 124.118 170.998 124.413C170.812 124.708 170.612 125.055 170.355 125.412C169.864 126.145 169.221 126.973 168.45 127.849C167.668 128.715 166.759 129.619 165.73 130.49C164.691 131.351 163.639 132.084 162.648 132.698C161.647 133.298 160.714 133.783 159.909 134.14C159.513 134.33 159.137 134.468 158.813 134.597C158.489 134.73 158.204 134.825 157.97 134.901C157.503 135.054 157.241 135.13 157.237 135.116C157.232 135.101 157.479 134.992 157.937 134.811C158.165 134.725 158.446 134.616 158.761 134.468C159.08 134.326 159.447 134.178 159.837 133.978C160.628 133.607 161.547 133.107 162.529 132.503C163.505 131.884 164.544 131.151 165.573 130.3C166.592 129.438 167.497 128.548 168.283 127.697C169.055 126.835 169.707 126.022 170.212 125.308C170.479 124.96 170.688 124.622 170.884 124.337C171.084 124.051 171.241 123.794 171.365 123.585C171.622 123.166 171.775 122.943 171.789 122.947L171.784 122.952Z" fill="#263238"/>
<path d="M186.989 107.829C186.989 107.829 186.87 107.838 186.641 107.834C186.389 107.824 186.06 107.814 185.646 107.8C184.755 107.767 183.512 107.719 181.992 107.662C178.905 107.558 174.642 107.472 169.936 107.538C165.225 107.605 160.966 107.81 157.884 108C156.365 108.1 155.126 108.181 154.235 108.238C153.826 108.262 153.492 108.286 153.245 108.3C153.016 108.309 152.897 108.314 152.897 108.305C152.897 108.295 153.016 108.276 153.24 108.252C153.492 108.224 153.821 108.19 154.231 108.143C155.088 108.052 156.336 107.943 157.875 107.824C160.957 107.586 165.22 107.358 169.936 107.291C174.652 107.229 178.92 107.339 182.002 107.491C183.545 107.567 184.793 107.638 185.655 107.71C186.065 107.743 186.394 107.772 186.646 107.791C186.875 107.81 186.989 107.829 186.989 107.834V107.829Z" fill="#FAFAFA"/>
<path d="M155.331 117.513C155.331 117.58 153.931 117.637 152.206 117.637C150.482 117.637 149.081 117.58 149.081 117.513C149.081 117.447 150.482 117.39 152.206 117.39C153.931 117.39 155.331 117.447 155.331 117.513Z" fill="#FAFAFA"/>
<path d="M177.619 118.588C177.619 118.588 177.543 118.612 177.395 118.636C177.219 118.66 177.01 118.693 176.752 118.731C176.195 118.807 175.385 118.902 174.385 119.007C172.384 119.216 169.612 119.435 166.549 119.554C163.481 119.673 160.7 119.668 158.689 119.616C157.684 119.592 156.87 119.559 156.308 119.526C156.05 119.507 155.836 119.492 155.66 119.483C155.512 119.469 155.436 119.459 155.436 119.45C155.436 119.44 155.512 119.435 155.665 119.43C155.841 119.43 156.055 119.43 156.312 119.43C156.913 119.43 157.718 119.435 158.689 119.44C160.7 119.445 163.472 119.426 166.535 119.307C169.598 119.188 172.365 118.993 174.366 118.831C175.338 118.75 176.138 118.683 176.738 118.636C176.995 118.617 177.205 118.602 177.386 118.588C177.534 118.579 177.61 118.579 177.615 118.588H177.619Z" fill="#FAFAFA"/>
<path d="M189.075 116.642C189.08 116.709 186.541 116.994 183.402 117.27C180.263 117.551 177.714 117.723 177.71 117.656C177.705 117.589 180.244 117.304 183.383 117.028C186.522 116.747 189.071 116.576 189.075 116.642Z" fill="#FAFAFA"/>
<path d="M164.372 131.128C164.372 131.161 163.801 131.213 162.872 131.247C161.943 131.285 160.661 131.299 159.247 131.266C157.832 131.232 156.551 131.156 155.626 131.075C154.702 130.994 154.131 130.918 154.136 130.885C154.136 130.852 154.712 130.866 155.636 130.904C156.56 130.942 157.841 130.99 159.251 131.023C160.661 131.056 161.943 131.066 162.872 131.075C163.796 131.085 164.372 131.094 164.372 131.128Z" fill="#FAFAFA"/>
<path d="M177.457 131.532C177.457 131.532 177.267 131.589 176.919 131.651C176.571 131.713 176.062 131.784 175.438 131.861C174.185 132.018 172.441 132.175 170.512 132.251C168.583 132.327 166.835 132.298 165.573 132.241C164.939 132.213 164.429 132.179 164.077 132.146C163.724 132.113 163.529 132.089 163.534 132.07C163.534 132.051 163.729 132.046 164.082 132.046C164.486 132.046 164.987 132.056 165.577 132.06C166.84 132.075 168.583 132.07 170.503 131.999C172.427 131.922 174.161 131.794 175.419 131.68C176.004 131.627 176.505 131.585 176.91 131.547C177.262 131.518 177.457 131.508 177.457 131.527V131.532Z" fill="#FAFAFA"/>
<path d="M156.812 140.641C156.803 140.702 155.669 140.56 154.374 140.031C153.073 139.513 152.159 138.827 152.197 138.775C152.235 138.713 153.192 139.289 154.469 139.798C155.736 140.317 156.827 140.564 156.812 140.636V140.641Z" fill="#FAFAFA"/>
<path d="M168.693 75.7783H168.24C163.686 75.7878 159.904 79.1951 159.547 83.6113C159.213 87.7181 158.904 92.258 158.937 94.4613C159.004 99.0202 163.696 99.7245 163.696 99.7245L163.524 103.779C163.419 106.806 165.754 109.361 168.778 109.537C171.879 109.718 174.533 107.334 174.685 104.236L175.657 84.9675C176.066 80.2325 173.575 76.0496 168.697 75.7831L168.693 75.7783Z" fill="#FFBE9D"/>
<path d="M163.653 99.7197C163.653 99.7197 166.649 99.891 169.793 97.959C169.793 97.959 168.354 101.243 163.677 100.843L163.653 99.7197Z" fill="#EB996E"/>
<path d="M161.209 86.4475C161.2 86.7901 161.486 87.0852 161.857 87.1042C162.224 87.1232 162.533 86.8615 162.548 86.5141C162.557 86.1715 162.271 85.8764 161.9 85.8574C161.533 85.8384 161.224 86.1049 161.209 86.4475Z" fill="#263238"/>
<path d="M160.557 85.8436C160.638 85.9292 161.147 85.5628 161.867 85.5628C162.586 85.5533 163.115 85.915 163.196 85.8245C163.234 85.7865 163.148 85.6342 162.919 85.4724C162.691 85.3106 162.305 85.1535 161.857 85.1583C161.409 85.1583 161.033 85.3249 160.814 85.4867C160.595 85.6532 160.519 85.8055 160.557 85.8436Z" fill="#263238"/>
<path d="M167.935 86.6575C167.926 87.0001 168.212 87.2951 168.583 87.3142C168.95 87.3332 169.26 87.0715 169.274 86.7241C169.283 86.3814 168.998 86.0864 168.626 86.0674C168.259 86.0483 167.95 86.3148 167.935 86.6575Z" fill="#263238"/>
<path d="M167.283 85.9625C167.364 86.0481 167.873 85.6817 168.593 85.6817C169.312 85.6722 169.841 86.0339 169.922 85.9435C169.96 85.9054 169.874 85.7531 169.645 85.5913C169.417 85.4295 169.031 85.2725 168.583 85.2725C168.135 85.2725 167.759 85.439 167.54 85.6008C167.321 85.7674 167.244 85.9197 167.283 85.9577V85.9625Z" fill="#263238"/>
<path d="M165.039 91.1644C165.039 91.1263 164.596 91.0501 163.867 90.9597C163.682 90.9407 163.51 90.9074 163.477 90.7837C163.434 90.6552 163.51 90.4601 163.601 90.2507C163.772 89.8176 163.953 89.3608 164.144 88.8849C164.896 86.9433 165.439 85.3444 165.358 85.3158C165.277 85.2873 164.601 86.8386 163.853 88.7802C163.672 89.2608 163.501 89.7177 163.334 90.1507C163.262 90.3554 163.143 90.5838 163.239 90.855C163.286 90.9883 163.424 91.0835 163.543 91.1168C163.663 91.1501 163.767 91.1548 163.858 91.1596C164.587 91.1977 165.039 91.1977 165.044 91.1596L165.039 91.1644Z" fill="#263238"/>
<path d="M167.159 91.6446C167.04 91.6398 167.04 92.4012 166.373 92.9389C165.706 93.4814 164.872 93.4005 164.868 93.5052C164.858 93.5528 165.053 93.6528 165.406 93.6623C165.749 93.6718 166.254 93.5623 166.663 93.234C167.073 92.9009 167.244 92.4583 167.273 92.149C167.302 91.8301 167.216 91.6446 167.159 91.6493V91.6446Z" fill="#263238"/>
<path d="M167.449 83.2117C167.521 83.402 168.24 83.3116 169.083 83.4068C169.931 83.4877 170.612 83.7256 170.727 83.5543C170.774 83.4734 170.655 83.2926 170.379 83.107C170.107 82.9214 169.669 82.7501 169.159 82.693C168.65 82.6406 168.188 82.7215 167.878 82.8405C167.568 82.9642 167.411 83.1118 167.445 83.2022L167.449 83.2117Z" fill="#263238"/>
<path d="M160.819 83.8163C160.947 83.9733 161.443 83.8067 162.038 83.802C162.634 83.7734 163.138 83.9067 163.258 83.7401C163.31 83.6592 163.229 83.5022 163.005 83.3499C162.786 83.2024 162.424 83.0786 162.014 83.0929C161.605 83.1072 161.247 83.25 161.043 83.4165C160.833 83.5783 160.761 83.7449 160.819 83.821V83.8163Z" fill="#263238"/>
<path d="M174.952 88.3417C175.033 88.3084 178.172 87.409 178.077 90.526C177.981 93.643 174.78 92.9054 174.78 92.8197C174.78 92.7293 174.952 88.3417 174.952 88.3417Z" fill="#FFBE9D"/>
<path d="M175.509 91.6684C175.509 91.6684 175.562 91.7065 175.657 91.7541C175.747 91.7969 175.904 91.8302 176.076 91.7731C176.419 91.6636 176.719 91.1449 176.752 90.5834C176.771 90.2979 176.714 90.0266 176.619 89.803C176.528 89.5698 176.381 89.408 176.214 89.3747C176.047 89.3318 175.924 89.427 175.881 89.5127C175.833 89.5983 175.852 89.6602 175.838 89.665C175.828 89.6745 175.771 89.6126 175.8 89.4841C175.814 89.4223 175.857 89.3509 175.933 89.2938C176.014 89.2367 176.124 89.2081 176.243 89.2224C176.49 89.2462 176.705 89.4746 176.81 89.7221C176.929 89.9743 176.995 90.2788 176.976 90.5977C176.938 91.2258 176.586 91.8016 176.119 91.9206C175.89 91.973 175.704 91.9016 175.609 91.8254C175.514 91.7445 175.5 91.6732 175.509 91.6684Z" fill="#EB996E"/>
<path d="M172.846 79.0719L159.48 79.3574C159.895 78.458 160.638 77.7442 161.443 77.1493C163.181 75.8692 165.315 75.065 167.497 75.0317C169.679 74.9936 174.113 77.5776 175.695 79.0386C176.957 80.2092 176.952 81.2228 176.952 81.2228C177.152 82.9074 176.186 84.8252 175.8 86.4813C175.6 87.3331 175.219 89.9171 175.219 89.9171C174.48 89.9171 174.209 89.3461 174.318 88.637L174.456 85.8579C174.456 85.8579 171.951 84.1257 173.137 80.9563C173.327 80.7041 173.732 79.5477 172.851 79.0766L172.846 79.0719Z" fill="#263238"/>
<path d="M170.041 88.9367C170.083 88.9463 170.126 88.913 170.136 88.8701C170.145 88.8225 170.117 88.7797 170.074 88.7702C170.031 88.7607 169.988 88.794 169.979 88.8368C169.969 88.8844 169.998 88.9272 170.041 88.9367Z" fill="#EB996E"/>
<path d="M168.664 88.6322C168.707 88.6418 168.75 88.6037 168.759 88.5513C168.769 88.499 168.745 88.4514 168.702 88.4419C168.659 88.4324 168.616 88.4704 168.607 88.5228C168.597 88.5751 168.621 88.6227 168.664 88.6322Z" fill="#EB996E"/>
<path d="M167.735 88.613C167.778 88.6178 167.821 88.5654 167.83 88.4988C167.84 88.4274 167.811 88.3703 167.768 88.3655C167.726 88.3608 167.683 88.4131 167.673 88.4797C167.664 88.5511 167.692 88.6082 167.735 88.613Z" fill="#EB996E"/>
<path d="M169.364 89.7788C169.407 89.7788 169.445 89.755 169.445 89.7312C169.445 89.7026 169.412 89.6836 169.364 89.6836C169.321 89.6836 169.283 89.7074 169.283 89.7312C169.283 89.7597 169.317 89.7788 169.364 89.7788Z" fill="#EB996E"/>
<path d="M168.102 89.4935C168.145 89.4935 168.183 89.4601 168.188 89.4126C168.188 89.365 168.159 89.3221 168.116 89.3174C168.073 89.3174 168.035 89.3507 168.031 89.3983C168.031 89.4459 168.059 89.4887 168.102 89.4935Z" fill="#EB996E"/>
<path d="M161.533 88.7462C161.576 88.7557 161.619 88.7224 161.628 88.6748C161.638 88.6272 161.609 88.5844 161.566 88.5749C161.524 88.5654 161.481 88.5987 161.471 88.6462C161.462 88.6938 161.49 88.7367 161.533 88.7462Z" fill="#EB996E"/>
<path d="M160.595 88.6658C160.638 88.6658 160.676 88.6277 160.685 88.5754C160.69 88.5231 160.661 88.4755 160.614 88.4707C160.571 88.4707 160.533 88.5088 160.523 88.5611C160.514 88.6135 160.547 88.6611 160.595 88.6658Z" fill="#EB996E"/>
<path d="M162.357 88.7652C162.4 88.7747 162.443 88.7509 162.448 88.7129C162.457 88.6748 162.429 88.6415 162.381 88.632C162.338 88.6225 162.295 88.6463 162.29 88.6843C162.286 88.7224 162.309 88.7557 162.357 88.7652Z" fill="#EB996E"/>
<path d="M161.667 89.679C161.705 89.698 161.757 89.6742 161.776 89.6266C161.795 89.5838 161.776 89.5315 161.738 89.5124C161.7 89.4934 161.647 89.5172 161.628 89.5648C161.609 89.6076 161.628 89.6599 161.667 89.679Z" fill="#EB996E"/>
<path d="M160.866 89.5266C160.909 89.5171 160.933 89.479 160.923 89.4457C160.914 89.4124 160.871 89.3933 160.828 89.4028C160.785 89.4124 160.761 89.4504 160.771 89.4837C160.781 89.517 160.823 89.5361 160.866 89.5266Z" fill="#EB996E"/>
<path d="M175.785 79.2146C176.128 78.0772 175.785 76.8067 175.033 75.8739C174.28 74.9412 173.051 74.3892 171.836 74.4368C171.212 74.4606 170.593 74.6319 169.969 74.57C168.812 74.4463 167.921 73.5469 166.849 73.1091C165.177 72.4286 163.053 73.0472 162.043 74.5129C161.638 75.103 161.371 75.8311 160.747 76.207C160.209 76.5306 159.528 76.5021 158.923 76.6782C157.698 77.0351 156.86 78.3009 156.922 79.5429C156.984 80.785 157.879 81.9223 159.056 82.4077C160.233 82.8931 161.633 82.7599 162.753 82.1555C163.762 81.6083 164.663 80.6803 165.82 80.7088C167.016 80.7422 168.059 81.8414 169.231 81.613C169.845 81.494 170.317 81.0324 170.769 80.6089C171.217 80.1854 171.736 79.7523 172.365 79.7143C172.989 79.6762 173.318 80.5137 173.094 81.0848L175.79 79.2193" fill="#263238"/>
<path d="M159.742 77.7107C159.742 77.7107 159.747 77.7249 159.761 77.7582C159.775 77.7868 159.799 77.8296 159.837 77.882C159.909 77.9914 160.033 78.1437 160.218 78.3055C160.409 78.4673 160.671 78.6386 161.014 78.7528C161.352 78.867 161.781 78.9146 162.229 78.8242C162.672 78.7338 163.143 78.5054 163.51 78.1151C163.877 77.7249 164.091 77.2015 164.434 76.7446C164.606 76.5162 164.815 76.3068 165.082 76.1736C165.349 76.0403 165.658 75.9785 165.968 75.9832C166.282 75.9927 166.597 76.0736 166.878 76.2212C167.159 76.3734 167.392 76.6066 167.549 76.8921C167.711 77.1777 167.826 77.4918 168.021 77.7678C168.207 78.0485 168.531 78.2627 168.878 78.2722C169.221 78.2912 169.54 78.1675 169.812 78.0105C170.088 77.8534 170.317 77.644 170.522 77.4394C170.936 77.0349 171.341 76.6304 171.846 76.521C172.346 76.4068 172.837 76.5828 173.189 76.8255C173.547 77.073 173.78 77.4061 173.928 77.7154C174.075 78.0247 174.151 78.315 174.204 78.553C174.252 78.7909 174.275 78.9765 174.294 79.105C174.309 79.2335 174.318 79.3001 174.323 79.3001C174.323 79.3001 174.323 79.2811 174.323 79.2477C174.323 79.2144 174.323 79.1668 174.318 79.1002C174.309 78.9717 174.294 78.7814 174.252 78.5434C174.209 78.3007 174.137 78.0057 173.994 77.6869C173.851 77.368 173.613 77.0206 173.246 76.7541C172.884 76.4972 172.37 76.2973 171.827 76.4163C171.279 76.5305 170.855 76.954 170.441 77.3537C170.231 77.5584 170.017 77.7582 169.75 77.9058C169.493 78.0533 169.193 78.1675 168.888 78.1485C168.583 78.1342 168.302 77.9534 168.13 77.6916C167.949 77.4346 167.835 77.1206 167.668 76.8255C167.506 76.5257 167.249 76.2687 166.949 76.1069C166.649 75.9451 166.311 75.8595 165.977 75.8547C165.644 75.85 165.315 75.9166 165.029 76.0594C164.744 76.2069 164.515 76.4305 164.344 76.6685C163.996 77.1444 163.786 77.6631 163.438 78.039C163.096 78.415 162.648 78.6386 162.219 78.729C161.79 78.8242 161.381 78.7814 161.047 78.6767C160.714 78.572 160.452 78.4102 160.261 78.2579C159.88 77.9438 159.761 77.6869 159.747 77.7011L159.742 77.7107Z" fill="#455A64"/>
<path d="M157.317 77.7538C157.317 77.7538 157.279 77.8394 157.265 78.006C157.246 78.1726 157.256 78.4153 157.332 78.7008C157.413 78.9863 157.57 79.3147 157.832 79.6192C158.094 79.9238 158.461 80.1855 158.889 80.3663C159.752 80.7328 160.633 80.6995 161.223 80.6233C161.524 80.5805 161.762 80.5281 161.924 80.4853C162.086 80.4425 162.176 80.4139 162.171 80.4044C162.167 80.3854 161.805 80.471 161.214 80.5329C160.628 80.59 159.775 80.6043 158.947 80.2474C158.537 80.0713 158.18 79.8238 157.927 79.5383C157.67 79.2528 157.513 78.9435 157.422 78.6722C157.246 78.1202 157.351 77.749 157.322 77.749L157.317 77.7538Z" fill="#455A64"/>
<path d="M192.191 123.947C192.11 130.067 188.375 135.706 183.502 139.423C178.629 143.139 172.718 145.205 166.825 146.899C160.938 148.593 154.917 149.992 149.377 152.609C141.703 156.236 134.601 161.213 130.266 168.504C125.931 175.794 124.388 185.369 124.874 193.835L190.028 187.325L193.596 150.33L192.191 123.947Z" fill="#7B4DD3"/>
<path d="M133.796 163.312C133.796 163.312 133.743 163.407 133.629 163.578C133.495 163.769 133.324 164.007 133.11 164.311C132.881 164.625 132.6 165.006 132.305 165.477C132.014 165.943 131.638 166.453 131.304 167.062C130.956 167.661 130.561 168.313 130.204 169.046C129.813 169.765 129.466 170.559 129.089 171.402C128.379 173.091 127.713 174.999 127.198 177.05C126.693 179.106 126.388 181.105 126.193 182.927C126.107 183.841 126.031 184.712 126.007 185.526C125.955 186.339 125.96 187.101 125.95 187.796C125.931 188.49 125.969 189.119 125.979 189.671C125.983 190.223 126.012 190.698 126.036 191.084C126.055 191.45 126.064 191.75 126.079 191.979C126.083 192.183 126.083 192.293 126.079 192.293C126.069 192.293 126.055 192.188 126.031 191.983C126.007 191.755 125.979 191.46 125.945 191.089C125.907 190.703 125.864 190.227 125.845 189.675C125.826 189.123 125.774 188.495 125.783 187.796C125.783 187.101 125.764 186.335 125.807 185.516C125.821 184.698 125.893 183.822 125.969 182.904C126.15 181.067 126.455 179.059 126.96 176.988C127.479 174.923 128.16 173.005 128.884 171.306C129.265 170.464 129.627 169.665 130.023 168.946C130.39 168.213 130.795 167.561 131.152 166.966C131.495 166.362 131.881 165.858 132.185 165.396C132.49 164.934 132.786 164.559 133.024 164.249C133.252 163.959 133.438 163.726 133.581 163.545C133.71 163.388 133.781 163.307 133.786 163.312H133.796Z" fill="#263238"/>
<g opacity="0.4">
<path d="M192.191 123.947C192.11 130.067 188.375 135.706 183.502 139.423C178.629 143.139 172.718 145.205 166.825 146.899C160.938 148.593 154.917 149.992 149.377 152.609C141.703 156.236 134.601 161.213 130.266 168.504C125.931 175.794 124.388 185.369 124.874 193.835L190.028 187.325L193.596 150.33L192.191 123.947Z" fill="black"/>
</g>
<path d="M41.804 151.477C36.1784 145.724 27.3612 143.306 19.5825 145.386C26.3371 149.911 33.93 152.338 42.066 152.405" fill="#7B4DD3"/>
<path d="M34.2682 124.814C35.1923 118.27 32.6486 110.913 27.7471 106.159C27.5851 112.641 30.3241 119.936 34.2682 124.814Z" fill="#7B4DD3"/>
<path d="M38.1886 137.172C34.6969 130.5 28.9618 125.022 22.131 121.839C24.1793 129.372 30.6242 135.535 38.2505 137.238" fill="#7B4DD3"/>
<path d="M38.9983 139.556C35.0447 139.666 31.0434 139.528 27.2183 138.519C23.3933 137.51 19.7302 135.564 17.1865 132.537C24.8795 132.547 32.5582 134.888 38.9412 139.171" fill="#7B4DD3"/>
<path d="M36.9929 131.704C38.9983 124.19 42.3137 118.989 48.2251 114.777C48.6729 118.437 47.7726 122.239 45.7338 125.313C43.6951 128.387 40.5369 130.695 36.9929 131.709" fill="#7B4DD3"/>
<path d="M51.9216 144.667C52.0264 140.298 49.2064 136.006 45.1575 134.359C45.4861 138.243 48.5395 142.73 51.9216 144.667Z" fill="#7B4DD3"/>
<path d="M53.8126 138.329C54.2604 132.052 58.7285 126.241 64.6828 124.186C63.3157 130.467 59.6812 135.697 53.8126 138.329Z" fill="#7B4DD3"/>
<path d="M50.9641 149.573C52.3598 147.579 54.6367 146.342 56.9899 145.723C59.343 145.11 61.8057 145.052 64.2398 145.005C60.9578 148.612 56.0277 150.663 51.1499 150.449" fill="#7B4DD3"/>
<path d="M48.1346 165.597C52.5218 164.245 57.4138 164.593 61.5628 166.558C65.7118 168.523 69.0795 172.078 70.8134 176.328C62.5774 174.767 54.4462 171.112 48.1394 165.597" fill="#7B4DD3"/>
<path d="M39.0984 160.028C40.4655 164.069 40.2035 168.956 37.1644 172.434C35.9259 168.29 36.6595 163.602 39.0984 160.028Z" fill="#7B4DD3"/>
<path d="M33.7538 157.782C33.3727 162.979 30.0478 167.857 25.3511 170.117C25.1177 170.231 24.8461 170.336 24.608 170.241C24.2364 170.088 24.2031 169.584 24.2507 169.189C24.8461 164.011 28.6855 159.005 33.7585 157.787" fill="#7B4DD3"/>
<path d="M30.2622 157.259C27.9471 159.757 24.5746 161.242 21.1688 161.256C17.7629 161.275 14.3713 159.824 12.0325 157.349C17.8248 156.716 24.5127 156.293 30.2622 157.254" fill="#7B4DD3"/>
<path d="M29.3953 110.979C29.3953 110.979 29.4096 111.037 29.4477 111.151C29.4905 111.27 29.5477 111.432 29.6239 111.641C29.7859 112.079 30.024 112.712 30.3241 113.516C30.6338 114.325 30.9958 115.329 31.4102 116.49C31.6198 117.071 31.8437 117.689 32.0818 118.351C32.3105 119.012 32.5534 119.712 32.8059 120.445C33.8348 123.376 34.9733 126.893 36.2022 130.814C37.4121 134.74 38.6792 139.071 39.9272 143.644C41.161 148.222 42.2518 152.604 43.1807 156.602C44.0857 160.609 44.8622 164.225 45.4195 167.276C45.5624 168.037 45.7005 168.765 45.8291 169.451C45.9482 170.141 46.0578 170.788 46.1626 171.397C46.3722 172.61 46.5532 173.657 46.6723 174.519C46.8009 175.366 46.9057 176.032 46.9771 176.494C47.0152 176.712 47.0391 176.879 47.0629 177.007C47.0819 177.122 47.0962 177.184 47.101 177.184C47.101 177.184 47.101 177.122 47.0867 177.007C47.0724 176.879 47.0486 176.708 47.0248 176.489C46.9628 176.022 46.8771 175.356 46.7628 174.504C46.6532 173.643 46.4865 172.591 46.2912 171.373C46.1912 170.764 46.0864 170.112 45.9768 169.422C45.853 168.732 45.7196 168.004 45.5814 167.242C45.0384 164.183 44.2763 160.561 43.3855 156.55C42.4662 152.543 41.3801 148.16 40.1464 143.577C38.8983 139.004 37.6217 134.669 36.4023 130.747C35.159 126.831 34.0063 123.314 32.9583 120.388C32.7011 119.655 32.4534 118.96 32.22 118.298C31.9771 117.642 31.7484 117.023 31.534 116.443C31.1053 115.286 30.7338 114.287 30.4099 113.483C30.0907 112.683 29.843 112.06 29.6715 111.622C29.5858 111.417 29.5239 111.26 29.4762 111.141C29.4286 111.032 29.4048 110.979 29.4 110.979H29.3953Z" fill="#263238"/>
<path d="M61.2246 127.54C61.2246 127.54 61.1865 127.569 61.1246 127.635C61.0531 127.711 60.9626 127.807 60.8483 127.925C60.6053 128.182 60.2576 128.568 59.8194 129.077C58.9429 130.095 57.7092 131.599 56.4088 133.622C55.1083 135.635 53.7698 138.2 52.8409 141.245C51.8835 144.281 51.2928 147.732 50.7021 151.334C49.5256 158.553 48.0775 165.015 47.0295 169.693C46.5008 172.02 46.0721 173.91 45.7767 175.228C45.6338 175.87 45.5243 176.375 45.4433 176.736C45.41 176.898 45.3814 177.031 45.3623 177.131C45.3433 177.222 45.3385 177.264 45.3433 177.269C45.3433 177.269 45.3623 177.226 45.3861 177.141C45.4147 177.041 45.4481 176.912 45.4909 176.751C45.5814 176.394 45.7053 175.894 45.8672 175.252C46.1816 173.933 46.6342 172.049 47.1915 169.731C48.2776 165.063 49.7495 158.601 50.926 151.372C51.5167 147.765 52.1026 144.329 53.041 141.307C53.9556 138.276 55.2655 135.725 56.5469 133.707C57.8283 131.685 59.0382 130.167 59.8908 129.134C60.3195 128.616 60.6577 128.225 60.8864 127.959C60.9959 127.83 61.0817 127.73 61.1484 127.654C61.2055 127.583 61.2341 127.55 61.2294 127.545L61.2246 127.54Z" fill="#263238"/>
<path d="M28.5331 157.012C28.5331 157.012 28.6045 157.031 28.7427 157.05C28.9046 157.069 29.1047 157.088 29.3429 157.116C29.4762 157.131 29.6191 157.145 29.7763 157.159C29.9383 157.183 30.105 157.207 30.2908 157.235C30.6576 157.288 31.0768 157.345 31.534 157.445C31.7627 157.492 32.0056 157.54 32.2533 157.587C32.501 157.649 32.7583 157.716 33.025 157.783C33.5633 157.901 34.1158 158.101 34.7065 158.277C35.8735 158.687 37.1263 159.21 38.3744 159.891C39.6224 160.581 40.7227 161.38 41.6659 162.175C42.1232 162.589 42.5614 162.974 42.9282 163.384C43.3188 163.769 43.6332 164.174 43.9285 164.535C44.2382 164.887 44.4525 165.254 44.6669 165.554C44.886 165.853 45.0432 166.129 45.1718 166.358C45.2956 166.562 45.3957 166.734 45.4814 166.877C45.5529 166.996 45.5957 167.053 45.6005 167.053C45.6053 167.053 45.5814 166.981 45.5195 166.858C45.4481 166.71 45.3576 166.534 45.248 166.315C45.1289 166.077 44.9813 165.792 44.7717 165.487C44.5621 165.178 44.3572 164.802 44.0524 164.44C43.7666 164.069 43.4522 163.655 43.0616 163.26C42.6996 162.841 42.2566 162.441 41.7993 162.023C40.8561 161.209 39.7415 160.4 38.4839 159.7C37.2216 159.01 35.9498 158.487 34.7732 158.087C34.1778 157.911 33.6157 157.721 33.0726 157.606C32.8059 157.545 32.5439 157.483 32.2914 157.421C32.039 157.378 31.796 157.33 31.5626 157.292C31.1006 157.202 30.6766 157.159 30.3051 157.112C30.1193 157.092 29.9478 157.069 29.7859 157.054C29.6287 157.045 29.481 157.04 29.3476 157.031C29.1047 157.021 28.9046 157.012 28.7427 157.007C28.6045 157.007 28.5331 157.007 28.5331 157.012Z" fill="#263238"/>
<path d="M26.8801 127.678C26.8801 127.678 27.0183 127.83 27.2993 128.078C27.6137 128.349 28.0138 128.697 28.4902 129.111C29.5048 129.977 30.9148 131.162 32.4772 132.456C34.0443 133.755 35.4686 134.916 36.507 135.754C37.0024 136.149 37.4169 136.477 37.7455 136.734C38.0409 136.962 38.2076 137.081 38.2171 137.067C38.2267 137.053 38.079 136.91 37.7979 136.663C37.4836 136.391 37.0834 136.044 36.6071 135.63C35.5925 134.764 34.1825 133.579 32.6201 132.285C31.0529 130.99 29.6286 129.824 28.5902 128.992C28.0948 128.597 27.6804 128.268 27.3517 128.011C27.0564 127.783 26.8897 127.664 26.8801 127.673V127.678Z" fill="#263238"/>
<path d="M25.4558 135.336C25.4368 135.393 28.4806 136.345 32.2485 137.458C36.0211 138.572 39.0888 139.423 39.1078 139.366C39.1269 139.309 36.0831 138.358 32.3104 137.244C28.5425 136.13 25.4701 135.279 25.451 135.336H25.4558Z" fill="#263238"/>
<path d="M36.6928 132.29C36.6928 132.29 36.8167 132.142 37.0072 131.852C37.2216 131.528 37.4883 131.119 37.8075 130.629C38.4886 129.601 39.4556 128.197 40.5941 126.703C41.7373 125.209 42.8377 123.909 43.6474 122.981C44.0333 122.544 44.3524 122.177 44.6097 121.882C44.8383 121.62 44.9574 121.473 44.9479 121.463C44.9383 121.454 44.7954 121.582 44.5477 121.825C44.3 122.068 43.9523 122.425 43.5331 122.877C42.69 123.781 41.5658 125.071 40.4178 126.57C39.2698 128.069 38.3219 129.491 37.6741 130.543C37.3502 131.071 37.0977 131.5 36.931 131.804C36.7643 132.109 36.6785 132.275 36.6928 132.285V132.29Z" fill="#263238"/>
<path d="M47.2582 136.539C47.2296 136.558 47.5154 136.996 47.9727 137.709C48.4252 138.423 49.0445 139.418 49.6828 140.536C50.3211 141.659 50.8593 142.697 51.2404 143.448C51.6215 144.205 51.8549 144.671 51.8835 144.662C51.9073 144.652 51.7263 144.158 51.3786 143.382C51.0308 142.606 50.5116 141.554 49.8686 140.427C49.2255 139.299 48.5872 138.314 48.0965 137.624C47.6059 136.929 47.2772 136.52 47.2534 136.539H47.2582Z" fill="#263238"/>
<path d="M50.8735 149.782C50.8878 149.811 51.469 149.53 52.4217 149.102C53.3696 148.674 54.6986 148.117 56.1991 147.593C57.6996 147.07 59.0857 146.68 60.0956 146.423C61.1054 146.166 61.7342 146.023 61.7294 145.99C61.7294 145.975 61.5675 145.99 61.2769 146.037C60.9863 146.08 60.5719 146.161 60.0622 146.27C59.0381 146.489 57.6376 146.861 56.1324 147.384C54.6271 147.912 53.2981 148.498 52.3645 148.964C51.8977 149.197 51.5214 149.392 51.2689 149.54C51.0164 149.687 50.8783 149.773 50.8831 149.787L50.8735 149.782Z" fill="#263238"/>
<path d="M48.025 165.62C48.025 165.62 48.087 165.648 48.2108 165.681C48.3632 165.72 48.5395 165.767 48.7586 165.82C49.2731 165.938 49.9542 166.096 50.7831 166.286C52.4884 166.681 54.8653 167.176 57.39 168.028C59.9194 168.889 62.0867 169.979 63.5539 170.921C64.2922 171.392 64.8638 171.806 65.2544 172.101C65.645 172.396 65.8546 172.567 65.8689 172.553C65.8737 172.548 65.826 172.496 65.7308 172.41C65.6355 172.325 65.4973 172.192 65.3068 172.034C64.9353 171.716 64.3684 171.278 63.6396 170.788C62.182 169.807 60.0051 168.68 57.4614 167.813C54.913 166.957 52.5265 166.486 50.8116 166.129C49.978 165.967 49.2921 165.834 48.7729 165.729C48.2918 165.639 48.025 165.596 48.0203 165.61L48.025 165.62Z" fill="#263238"/>
<path d="M37.736 169.527C37.7979 169.537 38.1599 167.405 38.5458 164.764C38.9316 162.123 39.1984 159.976 39.1364 159.972C39.0745 159.962 38.7125 162.094 38.3267 164.735C37.9408 167.372 37.6741 169.518 37.736 169.527Z" fill="#263238"/>
<path d="M27.0183 165.639C27.0421 165.658 27.4041 165.215 27.9853 164.492C28.5664 163.773 29.3667 162.779 30.2717 161.703C31.1816 160.623 32.0199 159.667 32.6296 158.972C33.2394 158.277 33.6157 157.849 33.5919 157.825C33.5823 157.815 33.4728 157.911 33.287 158.087C33.1012 158.267 32.8345 158.529 32.5153 158.867C31.8723 159.533 31.0148 160.48 30.105 161.565C29.1952 162.646 28.4092 163.659 27.8614 164.402C27.5852 164.773 27.3708 165.082 27.2279 165.296C27.085 165.51 27.0088 165.634 27.0231 165.644L27.0183 165.639Z" fill="#263238"/>
<path d="M55.3751 175.566V180.853H54.0509L49.3446 195.696H38.9079L34.3493 181.001L32.5868 180.853V175.566H55.3751Z" fill="#455A64"/>
<path d="M33.468 181C33.468 181.062 38.0743 181.11 43.7618 181.11C49.4494 181.11 54.0556 181.062 54.0556 181C54.0556 180.938 49.4494 180.891 43.7618 180.891C38.0743 180.891 33.468 180.938 33.468 181Z" fill="#263238"/>
<path d="M25.9608 146.979C25.9608 146.979 26.1942 147.06 26.6277 147.16C27.0993 147.275 27.7138 147.422 28.4616 147.603C30.005 147.984 32.1247 148.564 34.4255 149.335C36.7262 150.111 38.765 150.929 40.2273 151.553C40.9276 151.857 41.5087 152.114 41.9517 152.309C42.3566 152.49 42.5852 152.581 42.5948 152.571C42.5995 152.557 42.3852 152.438 41.9898 152.233C41.5944 152.029 41.0133 151.748 40.2893 151.415C38.8412 150.748 36.8024 149.906 34.4969 149.13C32.1914 148.355 30.0574 147.798 28.4997 147.455C27.7233 147.284 27.0898 147.156 26.6515 147.084C26.2133 147.008 25.9703 146.975 25.9656 146.989L25.9608 146.979Z" fill="#263238"/>
<path d="M36.931 189.242C36.931 189.304 40.1654 189.352 44.1524 189.352C48.1394 189.352 51.3738 189.304 51.3738 189.242C51.3738 189.18 48.1394 189.133 44.1524 189.133C40.1654 189.133 36.931 189.18 36.931 189.242Z" fill="#FAFAFA"/>
<path d="M36.5261 188.015C36.5261 188.077 39.951 188.124 44.1762 188.124C48.4014 188.124 51.8311 188.077 51.8311 188.015C51.8311 187.953 48.4062 187.905 44.1762 187.905C39.9463 187.905 36.5261 187.953 36.5261 188.015Z" fill="#FAFAFA"/>
</g>
<defs>
<clipPath id="clip0_21188_2514">
<rect width="221" height="210" fill="white"/>
</clipPath>
</defs>
</svg>
